M48
%
T1C.015
X0675Y05925
X0675Y05975
X06895Y05175
X0694Y0525
X0694Y051
X0704Y05875
X0711Y05875
X0711Y06075
X0704Y06075
X0675Y06025
X0495Y066
X049Y064
X0485Y066
X04825Y0645
X04725Y0645
X04675Y064
X0337Y0812
X03425Y0812
X0348Y0812
X04095Y0812
X0415Y0812
X04205Y0812
X07275Y08635
X07175Y08675
X04555Y08545
X045Y08545
X04445Y08545
X042Y08525
X0415Y08525
X041Y08525
X0383Y08545
X03775Y08545
X0372Y08545
X03475Y08525
X03425Y08525
X03375Y08525
X0313Y08545
X03075Y08545
X0302Y08545
X03025Y0895
X03075Y0895
X03125Y0895
X03725Y0895
X03775Y0895
X03825Y0895
X0445Y0895
X045Y0895
X0455Y0895
X07225Y08745
T2C.04
X023901Y069868
X071098Y069887
X071098Y073431
X023901Y073412
T3C.043
X03891Y04391
X03891Y04615
X03945Y04503
X04Y04391
X04Y04615
X04054Y04503
X04109Y04391
X04109Y04615
X04163Y04503
X04218Y04391
X04218Y04615
X04272Y04503
X04327Y04391
X04327Y04615
X04381Y04503
X04436Y04391
X04436Y04615
X04489Y04503
X04545Y04615
X04545Y04391
X04599Y04503
X04654Y04615
X04654Y04391
X04708Y04503
X04763Y04391
X04763Y04615
X04817Y04503
X04872Y04615
X04872Y04391
X04926Y04503
X04981Y04615
X04981Y04391
X05035Y04503
X0509Y04615
X0509Y04391
X05144Y04503
X05199Y04615
X05199Y04391
X05253Y04503
X05308Y04391
X05308Y04615
X05362Y04503
X05417Y04615
X05417Y04391
X05471Y04503
X05526Y04615
X05526Y04391
X0558Y04503
X05635Y04391
X05635Y04615
X0728Y0473
X0728Y0483
X0728Y0522
X0728Y0532
X0728Y0542
X0728Y0552
X0728Y0562
X0728Y0601
X0728Y0611
X0728Y0621
X0728Y0631
X0728Y0641
X0728Y0651
X07265Y07225
X07265Y071068
X071468Y071068
X071468Y07225
X023531Y072231
X023531Y07105
X02235Y07105
X02235Y072231
X0231Y0781
X0231Y07928
X0231Y08046
X03005Y08305
X03105Y08305
X03205Y08305
X03715Y08305
X03815Y08305
X03915Y08305
X0525Y08305
X0535Y08305
X0545Y08305
X0555Y08305
X06195Y08305
X06295Y08305
X06395Y08305
X06495Y08305
X07185Y08045
X07185Y07927
X07185Y07809
X06965Y0874
X06865Y0874
X06765Y0874
X06665Y0874
X0602Y0874
X0592Y0874
X0582Y0874
X0572Y0874
X05075Y0874
X04975Y0874
X04875Y0874
X04775Y0874
X04265Y0874
X04165Y0874
X04065Y0874
X03555Y0874
X03455Y0874
X03355Y0874
X0285Y0874
X0275Y0874
X0265Y0874
T4C.05
X02233Y07692
X07262Y07691
X07262Y08163
X02233Y08164
T5C.059
X02205Y04715
X02205Y05305
X02205Y05895
X02205Y06485
T6C.063
X02105Y04615
X02105Y04815
X02105Y05205
X02305Y04615
X02305Y05205
X02305Y04815
X02305Y05405
X02305Y05795
X02305Y05995
X02105Y05405
X02105Y05795
X02105Y05995
X02105Y06385
X02105Y06585
X02305Y06585
X02305Y06385
T7C.126
X03562Y04503
X05964Y04503
T8C.157
X02236Y04236
X07264Y04236
X06555Y0778
X02236Y08764
M30
