*
*
G04 PADS Layout (Build Number 2005.103.1) generated Gerber (RS-274-X) file*
G04 PC Version=2.1*
*
%IN "7754.pcb"*%
*
%MOIN*%
*
%FSLAX35Y35*%
*
*
*
*
G04 PC Standard Apertures*
*
*
G04 Thermal Relief Aperture macro.*
%AMTER*
1,1,$1,0,0*
1,0,$1-$2,0,0*
21,0,$3,$4,0,0,45*
21,0,$3,$4,0,0,135*
%
*
*
G04 Annular Aperture macro.*
%AMANN*
1,1,$1,0,0*
1,0,$2,0,0*
%
*
*
G04 Odd Aperture macro.*
%AMODD*
1,1,$1,0,0*
1,0,$1-0.005,0,0*
%
*
*
G04 PC Custom Aperture Macros*
*
*
*
*
*
*
G04 PC Aperture Table*
*
%ADD013C,0.075*%
%ADD014C,0.065*%
%ADD052C,0.01*%
%ADD053C,0.02*%
%ADD058C,0.025*%
%ADD059C,0.075*%
%ADD064C,0.006*%
%ADD138C,0.03*%
%ADD193C,0.25*%
*
*
*
*
G04 PC Custom Flashes*
G04 Layer Name 7754.pcb - flashes*
%LPD*%
*
*
G04 PC Circuitry*
G04 Layer Name 7754.pcb - circuitry*
%LPD*%
*
G54D13*
G01X831000Y1181000D03*
Y1192800D03*
Y1204600D03*
X823500Y1110500D03*
Y1122311D03*
X835311Y1110500D03*
Y1122311D03*
X865000Y1274000D03*
X935500D03*
X971500Y1230500D03*
X1006500Y1274000D03*
X900500Y1230500D03*
X1328000Y883000D03*
Y962000D03*
Y1021000D03*
Y1051000D03*
G54D14*
X1152600Y861500D03*
X1130800D03*
X1109000D03*
X1098100D03*
X1087200D03*
X1065400D03*
X1158000Y850300D03*
X1136200D03*
X1103500D03*
X1092600D03*
X1070800D03*
X1152600Y839100D03*
X1130800D03*
X1098100D03*
X1087200D03*
X1065400D03*
G54D52*
X800000Y800000D02*
X1350000D01*
Y1300000*
X800000*
Y800000*
G54D53*
X1006909Y767812D02*
X1011909D01*
X1011909D02*
X1009181Y763312D01*
X1009181D02*
X1010545D01*
X1010545D02*
X1011454Y762750D01*
X1011454D02*
X1011909Y762187D01*
X1011909D02*
X1012363Y760500D01*
X1012363D02*
Y759375D01*
X1012363D02*
X1011909Y757687D01*
X1011909D02*
X1011000Y756562D01*
X1011000D02*
X1009636Y756000D01*
X1008272*
X1008272D02*
X1006909Y756562D01*
X1006909D02*
X1006454Y757125D01*
X1006454D02*
X1006000Y758250D01*
X1016454Y765562D02*
X1017363Y766125D01*
X1017363D02*
X1018727Y767812D01*
X1018727D02*
Y756000D01*
X1022818Y761062D02*
X1031000D01*
X1037818Y767812D02*
X1036454Y767250D01*
X1036454D02*
X1035545Y765562D01*
X1035545D02*
X1035090Y762750D01*
X1035090D02*
Y761062D01*
X1035090D02*
X1035545Y758250D01*
X1036454Y756562*
X1036454D02*
X1037818Y756000D01*
X1038727*
X1040090Y756562*
X1040090D02*
X1041000Y758250D01*
X1041454Y761062*
X1041454D02*
Y762750D01*
X1041454D02*
X1041000Y765562D01*
X1041000D02*
X1040090Y767250D01*
X1040090D02*
X1038727Y767812D01*
X1038727D02*
X1037818D01*
X1048272D02*
X1046909Y767250D01*
X1046000Y765562*
X1046000D02*
X1045545Y762750D01*
Y761062*
X1045545D02*
X1046000Y758250D01*
X1046909Y756562*
X1046909D02*
X1048272Y756000D01*
X1048272D02*
X1049181D01*
X1049181D02*
X1050545Y756562D01*
X1050545D02*
X1051454Y758250D01*
X1051454D02*
X1051909Y761062D01*
X1051909D02*
Y762750D01*
X1051454Y765562*
X1051454D02*
X1050545Y767250D01*
X1049181Y767812*
X1049181D02*
X1048272D01*
X1058727D02*
X1057363Y767250D01*
X1057363D02*
X1056454Y765562D01*
X1056454D02*
X1056000Y762750D01*
Y761062*
X1056000D02*
X1056454Y758250D01*
X1056454D02*
X1057363Y756562D01*
X1057363D02*
X1058727Y756000D01*
X1059636*
X1061000Y756562*
X1061000D02*
X1061909Y758250D01*
X1062363Y761062*
X1062363D02*
Y762750D01*
X1062363D02*
X1061909Y765562D01*
X1061909D02*
X1061000Y767250D01*
X1059636Y767812*
X1059636D02*
X1058727D01*
X1071000D02*
X1066454Y759937D01*
X1066454D02*
X1073272D01*
X1071000Y767812D02*
Y756000D01*
X1087818Y767812D02*
Y756000D01*
Y767812D02*
X1091909D01*
X1091909D02*
X1093272Y767250D01*
X1093272D02*
X1093727Y766687D01*
X1093727D02*
X1094181Y765562D01*
X1094181D02*
Y764437D01*
X1094181D02*
X1093727Y763312D01*
X1093727D02*
X1093272Y762750D01*
X1093272D02*
X1091909Y762187D01*
X1091909D02*
X1087818D01*
X1091000D02*
X1094181Y756000D01*
X1098272Y767812D02*
Y756000D01*
Y767812D02*
X1104181D01*
X1098272Y762187D02*
X1101909D01*
X1098272Y756000D02*
X1104181D01*
X1108272Y767812D02*
X1111909Y756000D01*
X1115545Y767812D02*
X1111909Y756000D01*
X1130090Y765562D02*
X1131000Y766125D01*
X1132363Y767812*
X1132363D02*
Y756000D01*
X986000Y792812D02*
Y781000D01*
X991454*
X999181Y792812D02*
X995545Y781000D01*
X999181Y792812D02*
X1002818Y781000D01*
X996909Y784937D02*
X1001454D01*
X1006909Y792812D02*
X1010545Y787187D01*
X1010545D02*
Y781000D01*
X1014181Y792812D02*
X1010545Y787187D01*
X1018272Y792812D02*
Y781000D01*
Y792812D02*
X1024181D01*
X1018272Y787187D02*
X1021909D01*
X1018272Y781000D02*
X1024181D01*
X1028272Y792812D02*
Y781000D01*
Y792812D02*
X1032363D01*
X1032363D02*
X1033727Y792250D01*
X1034181Y791687*
X1034181D02*
X1034636Y790562D01*
X1034636D02*
Y789437D01*
X1034636D02*
X1034181Y788312D01*
X1034181D02*
X1033727Y787750D01*
X1032363Y787187*
X1032363D02*
X1028272D01*
X1031454D02*
X1034636Y781000D01*
X1049636Y790000D02*
Y790562D01*
X1049636D02*
X1050090Y791687D01*
X1050090D02*
X1050545Y792250D01*
X1051454Y792812*
X1051454D02*
X1053272D01*
X1053272D02*
X1054181Y792250D01*
X1054181D02*
X1054636Y791687D01*
X1054636D02*
X1055090Y790562D01*
X1055090D02*
Y789437D01*
X1055090D02*
X1054636Y788312D01*
X1054636D02*
X1053727Y786625D01*
X1049181Y781000*
X1049181D02*
X1055545D01*
X1076909Y790000D02*
X1076454Y791125D01*
X1076454D02*
X1075545Y792250D01*
X1074636Y792812*
X1074636D02*
X1072818D01*
X1072818D02*
X1071909Y792250D01*
X1071000Y791125*
X1070545Y790000*
X1070090Y788312*
X1070090D02*
Y785500D01*
X1070090D02*
X1070545Y783812D01*
X1070545D02*
X1071000Y782687D01*
X1071000D02*
X1071909Y781562D01*
X1071909D02*
X1072818Y781000D01*
X1074636*
X1075545Y781562*
X1075545D02*
X1076454Y782687D01*
X1076454D02*
X1076909Y783812D01*
X1076909D02*
Y785500D01*
X1074636D02*
X1076909D01*
X1081000Y792812D02*
Y781000D01*
Y792812D02*
X1085090D01*
X1085090D02*
X1086454Y792250D01*
X1086454D02*
X1086909Y791687D01*
X1086909D02*
X1087363Y790562D01*
X1087363D02*
Y789437D01*
X1087363D02*
X1086909Y788312D01*
X1086909D02*
X1086454Y787750D01*
X1086454D02*
X1085090Y787187D01*
X1085090D02*
X1081000D01*
X1084181D02*
X1087363Y781000D01*
X1094181Y792812D02*
X1093272Y792250D01*
X1093272D02*
X1092363Y791125D01*
X1092363D02*
X1091909Y790000D01*
X1091454Y788312*
X1091454D02*
Y785500D01*
X1091454D02*
X1091909Y783812D01*
X1091909D02*
X1092363Y782687D01*
X1092363D02*
X1093272Y781562D01*
X1093272D02*
X1094181Y781000D01*
X1094181D02*
X1096000D01*
X1096909Y781562*
X1096909D02*
X1097818Y782687D01*
X1097818D02*
X1098272Y783812D01*
X1098272D02*
X1098727Y785500D01*
Y788312*
X1098727D02*
X1098272Y790000D01*
X1098272D02*
X1097818Y791125D01*
X1096909Y792250*
X1096000Y792812*
X1096000D02*
X1094181D01*
X1102818D02*
Y784375D01*
X1103272Y782687*
X1103272D02*
X1104181Y781562D01*
X1104181D02*
X1105545Y781000D01*
X1106454*
X1106454D02*
X1107818Y781562D01*
X1107818D02*
X1108727Y782687D01*
X1108727D02*
X1109181Y784375D01*
X1109181D02*
Y792812D01*
X1113272D02*
Y781000D01*
Y792812D02*
X1119636Y781000D01*
Y792812D02*
Y781000D01*
X1123727Y792812D02*
Y781000D01*
Y792812D02*
X1126909D01*
X1126909D02*
X1128272Y792250D01*
X1128272D02*
X1129181Y791125D01*
X1129181D02*
X1129636Y790000D01*
X1130090Y788312*
X1130090D02*
Y785500D01*
X1130090D02*
X1129636Y783812D01*
X1129636D02*
X1129181Y782687D01*
X1129181D02*
X1128272Y781562D01*
X1128272D02*
X1126909Y781000D01*
X1123727*
X1161040Y853340D02*
X1160298Y852598D01*
X1154959Y853340D02*
X1155701Y852598D01*
X1154959Y847259D02*
X1155701Y848001D01*
X1161040Y847259D02*
X1160298Y848001D01*
X1155640Y864540D02*
X1154898Y863798D01*
X1149559Y864540D02*
X1150301Y863798D01*
X1149559Y858459D02*
X1150301Y859201D01*
X1155640Y858459D02*
X1154898Y859201D01*
X1155640Y842140D02*
X1154898Y841398D01*
X1149559Y842140D02*
X1150301Y841398D01*
X1149559Y836059D02*
X1150301Y836801D01*
X1155640Y836059D02*
X1154898Y836801D01*
X1133840Y842140D02*
X1133098Y841398D01*
X1127759Y842140D02*
X1128501Y841398D01*
X1127759Y836059D02*
X1128501Y836801D01*
X1133840Y836059D02*
X1133098Y836801D01*
X1139240Y853340D02*
X1138498Y852598D01*
X1133159Y853340D02*
X1133901Y852598D01*
X1133159Y847259D02*
X1133901Y848001D01*
X1139240Y847259D02*
X1138498Y848001D01*
X1133840Y864540D02*
X1133098Y863798D01*
X1127759Y864540D02*
X1128501Y863798D01*
X1127759Y858459D02*
X1128501Y859201D01*
X1133840Y858459D02*
X1133098Y859201D01*
X1095640Y853340D02*
X1094898Y852598D01*
X1089559Y853340D02*
X1090301Y852598D01*
X1089559Y847259D02*
X1090301Y848001D01*
X1095640Y847259D02*
X1094898Y848001D01*
X1090240Y864540D02*
X1089498Y863798D01*
X1084159Y864540D02*
X1084901Y863798D01*
X1084159Y858459D02*
X1084901Y859201D01*
X1090240Y858459D02*
X1089498Y859201D01*
X1090240Y842140D02*
X1089498Y841398D01*
X1084159Y842140D02*
X1084901Y841398D01*
X1084159Y836059D02*
X1084901Y836801D01*
X1090240Y836059D02*
X1089498Y836801D01*
X1068440Y842140D02*
X1067698Y841398D01*
X1062359Y842140D02*
X1063101Y841398D01*
X1062359Y836059D02*
X1063101Y836801D01*
X1068440Y836059D02*
X1067698Y836801D01*
X1073840Y853340D02*
X1073098Y852598D01*
X1067759Y853340D02*
X1068501Y852598D01*
X1067759Y847259D02*
X1068501Y848001D01*
X1073840Y847259D02*
X1073098Y848001D01*
X1068440Y864540D02*
X1067698Y863798D01*
X1062359Y864540D02*
X1063101Y863798D01*
X1062359Y858459D02*
X1063101Y859201D01*
X1068440Y858459D02*
X1067698Y859201D01*
X1101140Y842140D02*
X1100398Y841398D01*
X1095059Y842140D02*
X1095801Y841398D01*
X1095059Y836059D02*
X1095801Y836801D01*
X1101140Y836059D02*
X1100398Y836801D01*
X1106540Y853340D02*
X1105798Y852598D01*
X1100459Y853340D02*
X1101201Y852598D01*
X1100459Y847259D02*
X1101201Y848001D01*
X1106540Y847259D02*
X1105798Y848001D01*
X1101140Y864540D02*
X1100398Y863798D01*
X1095059Y864540D02*
X1095801Y863798D01*
X1095059Y858459D02*
X1095801Y859201D01*
X1101140Y858459D02*
X1100398Y859201D01*
X1112040Y864540D02*
X1111298Y863798D01*
X1105959Y864540D02*
X1106701Y863798D01*
X1105959Y858459D02*
X1106701Y859201D01*
X1112040Y858459D02*
X1111298Y859201D01*
G54D58*
X835311Y1110500D02*
X845000D01*
X905500Y1050000*
X1067500*
X1072500Y1045000*
X823500Y1110500D02*
X830000Y1104000D01*
X842500*
X901500Y1045000*
X1062500*
X1067500Y1040000*
X835311Y1122311D02*
X842500D01*
X909811Y1055000*
X1072500*
X1082500Y1045000*
X823500Y1122311D02*
X830188Y1129000D01*
X830188D02*
X845000D01*
X914000Y1060000*
X1075000*
X1090000Y1045000*
Y1040000*
X831000Y1192800D02*
X840000Y1183800D01*
Y1152500*
X922500Y1070000*
X1085000*
X1095000Y1060000*
X831000Y1181000D02*
Y1152500D01*
X918500Y1065000*
X1080000*
X1085000Y1060000*
X1324605Y1024394D02*
X1325348Y1023651D01*
X1324605Y1017605D02*
X1325348Y1018348D01*
X1331394Y1017605D02*
X1330651Y1018348D01*
X1331394Y1024394D02*
X1330651Y1023651D01*
X1324605Y1054394D02*
X1325348Y1053651D01*
X1324605Y1047605D02*
X1325348Y1048348D01*
X1331394Y1047605D02*
X1330651Y1048348D01*
X1331394Y1054394D02*
X1330651Y1053651D01*
X1324605Y965394D02*
X1325348Y964651D01*
X1324605Y958605D02*
X1325348Y959348D01*
X1331394Y958605D02*
X1330651Y959348D01*
X1331394Y965394D02*
X1330651Y964651D01*
X1331394Y879605D02*
X1330651Y880348D01*
X1331394Y886394D02*
X1330651Y885651D01*
X1324605Y886394D02*
X1325348Y885651D01*
X1324605Y879605D02*
X1325348Y880348D01*
X938894Y1277394D02*
X938151Y1276651D01*
X932105Y1277394D02*
X932848Y1276651D01*
X932105Y1270605D02*
X932848Y1271348D01*
X938894Y1270605D02*
X938151Y1271348D01*
X1009894Y1277394D02*
X1009151Y1276651D01*
X1003105Y1277394D02*
X1003848Y1276651D01*
X1003105Y1270605D02*
X1003848Y1271348D01*
X1009894Y1270605D02*
X1009151Y1271348D01*
X868394Y1277394D02*
X867651Y1276651D01*
X861605Y1277394D02*
X862348Y1276651D01*
X861605Y1270605D02*
X862348Y1271348D01*
X868394Y1270605D02*
X867651Y1271348D01*
X974894Y1233894D02*
X974151Y1233151D01*
X968105Y1233894D02*
X968848Y1233151D01*
X968105Y1227105D02*
X968848Y1227848D01*
X974894Y1227105D02*
X974151Y1227848D01*
X903894Y1233894D02*
X903151Y1233151D01*
X897105Y1233894D02*
X897848Y1233151D01*
X897105Y1227105D02*
X897848Y1227848D01*
X903894Y1227105D02*
X903151Y1227848D01*
G54D59*
X810000Y1100000D02*
Y1194600D01*
X820000Y1204600*
X831000*
X810000Y1100000D02*
X842500Y1067500D01*
Y964000*
X956200Y850300*
G54D64*
X1339200Y823600D02*
G75*
G03X1339200I-12800J0D01*
G01X1332050Y873000D02*
G03X1332050I-4050J0D01*
G01X1332800Y883000D02*
G03X1332800I-4800J0D01*
G01X1332050Y922000D02*
G03X1332050I-4050J0D01*
G01Y932000D02*
G03X1332050I-4050J0D01*
G01Y942000D02*
G03X1332050I-4050J0D01*
G01Y952000D02*
G03X1332050I-4050J0D01*
G01X1332800Y962000D02*
G03X1332800I-4800J0D01*
G01X1332050Y1001000D02*
G03X1332050I-4050J0D01*
G01Y1011000D02*
G03X1332050I-4050J0D01*
G01X1332800Y1021000D02*
G03X1332800I-4800J0D01*
G01X1332050Y1031000D02*
G03X1332050I-4050J0D01*
G01Y1041000D02*
G03X1332050I-4050J0D01*
G01X1332800Y1051000D02*
G03X1332800I-4800J0D01*
G01X1330550Y1110688D02*
G03X1330550I-4050J0D01*
G01Y1122500D02*
G03X1330550I-4050J0D01*
G01X1331500Y1169100D02*
G03X1331500I-5300J0D01*
G01X1313300Y987500D02*
G03X1313300I-2300J0D01*
G01Y1007500D02*
G03X1313300I-2300J0D01*
G01X1315288Y1098877D02*
G03X1315288I-4299J0D01*
G01X1318738Y1110688D02*
G03X1318738I-4049J0D01*
G01Y1122500D02*
G03X1318738I-4049J0D01*
G01X1315288Y1134311D02*
G03X1315288I-4299J0D01*
G01X1322550Y1180900D02*
G03X1322550I-4050J0D01*
G01Y1192700D02*
G03X1322550I-4050J0D01*
G01Y1204500D02*
G03X1322550I-4050J0D01*
G01X1331500Y1216300D02*
G03X1331500I-5300J0D01*
G01X1329800Y1263500D02*
G03X1329800I-2300J0D01*
G01X1324800Y1274500D02*
G03X1324800I-2300J0D01*
G01X1319800Y1267500D02*
G03X1319800I-2300J0D01*
G01X1306300Y987500D02*
G03X1306300I-2300J0D01*
G01Y1007500D02*
G03X1306300I-2300J0D01*
G01X1300550Y1274000D02*
G03X1300550I-4050J0D01*
G01X1290550D02*
G03X1290550I-4050J0D01*
G01X1280550D02*
G03X1280550I-4050J0D01*
G01X1268300Y1178000D02*
G03X1268300I-12800J0D01*
G01X1270550Y1274000D02*
G03X1270550I-4050J0D01*
G01X1253550Y1230500D02*
G03X1253550I-4050J0D01*
G01X1243550D02*
G03X1243550I-4050J0D01*
G01X1233550D02*
G03X1233550I-4050J0D01*
G01X1223550D02*
G03X1223550I-4050J0D01*
G01X1209200Y850300D02*
G03X1209200I-12800J0D01*
G01X1206050Y1274000D02*
G03X1206050I-4050J0D01*
G01X1196050D02*
G03X1196050I-4050J0D01*
G01X1186050D02*
G03X1186050I-4050J0D01*
G01X1176050D02*
G03X1176050I-4050J0D01*
G01X1167550Y839100D02*
G03X1167550I-4050J0D01*
G01X1156900D02*
G03X1156900I-4300J0D01*
G01X1162300Y850300D02*
G03X1162300I-4300J0D01*
G01X1167550Y861500D02*
G03X1167550I-4050J0D01*
G01X1145750Y839100D02*
G03X1145750I-4050J0D01*
G01X1151150Y850300D02*
G03X1151150I-4050J0D01*
G01X1156900Y861500D02*
G03X1156900I-4300J0D01*
G01X1159050Y1230500D02*
G03X1159050I-4050J0D01*
G01X1135100Y839100D02*
G03X1135100I-4300J0D01*
G01X1140500Y850300D02*
G03X1140500I-4300J0D01*
G01X1145750Y861500D02*
G03X1145750I-4050J0D01*
G01X1149050Y1230500D02*
G03X1149050I-4050J0D01*
G01X1123950Y839100D02*
G03X1123950I-4050J0D01*
G01X1129350Y850300D02*
G03X1129350I-4050J0D01*
G01X1135100Y861500D02*
G03X1135100I-4300J0D01*
G01X1139050Y1230500D02*
G03X1139050I-4050J0D01*
G01X1113050Y839100D02*
G03X1113050I-4050J0D01*
G01X1118450Y850300D02*
G03X1118450I-4050J0D01*
G01X1123950Y861500D02*
G03X1123950I-4050J0D01*
G01X1129050Y1230500D02*
G03X1129050I-4050J0D01*
G01X1102400Y839100D02*
G03X1102400I-4300J0D01*
G01X1107800Y850300D02*
G03X1107800I-4300J0D01*
G01X1113300Y861500D02*
G03X1113300I-4300J0D01*
G01X1111550Y1274000D02*
G03X1111550I-4050J0D01*
G01X1091500Y839100D02*
G03X1091500I-4300J0D01*
G01X1096900Y850300D02*
G03X1096900I-4300J0D01*
G01X1102400Y861500D02*
G03X1102400I-4300J0D01*
G01X1080350Y839100D02*
G03X1080350I-4050J0D01*
G01X1085750Y850300D02*
G03X1085750I-4050J0D01*
G01X1091500Y861500D02*
G03X1091500I-4300J0D01*
G01X1101550Y1274000D02*
G03X1101550I-4050J0D01*
G01X1091550D02*
G03X1091550I-4050J0D01*
G01X1081550D02*
G03X1081550I-4050J0D01*
G01X1057800Y1254500D02*
G03X1057800I-2300J0D01*
G01X1052300D02*
G03X1052300I-2300J0D01*
G01X1046800D02*
G03X1046800I-2300J0D01*
G01X1022800Y1212000D02*
G03X1022800I-2300J0D01*
G01X1030550Y1274000D02*
G03X1030550I-4050J0D01*
G01X1017300Y1212000D02*
G03X1017300I-2300J0D01*
G01X1020550Y1274000D02*
G03X1020550I-4050J0D01*
G01X1011800Y1212000D02*
G03X1011800I-2300J0D01*
G01X1011300Y1274000D02*
G03X1011300I-4800J0D01*
G01X995550Y1230500D02*
G03X995550I-4050J0D01*
G01X985550D02*
G03X985550I-4050J0D01*
G01X985300Y1254500D02*
G03X985300I-2300J0D01*
G01X976300Y1230500D02*
G03X976300I-4800J0D01*
G01X979800Y1254500D02*
G03X979800I-2300J0D01*
G01X974300D02*
G03X974300I-2300J0D01*
G01X959550Y1274000D02*
G03X959550I-4050J0D01*
G01X950300Y1212000D02*
G03X950300I-2300J0D01*
G01X944800D02*
G03X944800I-2300J0D01*
G01X949550Y1274000D02*
G03X949550I-4050J0D01*
G01X939300Y1212000D02*
G03X939300I-2300J0D01*
G01X940300Y1274000D02*
G03X940300I-4800J0D01*
G01X924550Y1230500D02*
G03X924550I-4050J0D01*
G01X914550D02*
G03X914550I-4050J0D01*
G01X915300Y1254500D02*
G03X915300I-2300J0D01*
G01X905300Y1230500D02*
G03X905300I-4800J0D01*
G01X909800Y1254500D02*
G03X909800I-2300J0D01*
G01X904300D02*
G03X904300I-2300J0D01*
G01X889050Y1274000D02*
G03X889050I-4050J0D01*
G01X879050D02*
G03X879050I-4050J0D01*
G01X869800D02*
G03X869800I-4800J0D01*
G01X828600Y1216400D02*
G03X828600I-5300J0D01*
G01X836400Y1276400D02*
G03X836400I-12800J0D01*
G01Y823600D02*
G03X836400I-12800J0D01*
G01X835800Y861500D02*
G03X835800I-5300J0D01*
G01X815800D02*
G03X815800I-5300J0D01*
G01X825800Y871500D02*
G03X825800I-5300J0D01*
G01X835800Y881500D02*
G03X835800I-5300J0D01*
G01Y920500D02*
G03X835800I-5300J0D01*
G01X815800Y881500D02*
G03X815800I-5300J0D01*
G01Y920500D02*
G03X815800I-5300J0D01*
G01X825800Y930500D02*
G03X825800I-5300J0D01*
G01X835800Y940500D02*
G03X835800I-5300J0D01*
G01Y979500D02*
G03X835800I-5300J0D01*
G01X815800Y940500D02*
G03X815800I-5300J0D01*
G01Y979500D02*
G03X815800I-5300J0D01*
G01X825800Y989500D02*
G03X825800I-5300J0D01*
G01X835800Y999500D02*
G03X835800I-5300J0D01*
G01Y1038500D02*
G03X835800I-5300J0D01*
G01X815800Y999500D02*
G03X815800I-5300J0D01*
G01Y1038500D02*
G03X815800I-5300J0D01*
G01X825800Y1048500D02*
G03X825800I-5300J0D01*
G01X835800Y1058500D02*
G03X835800I-5300J0D01*
G01X815800D02*
G03X815800I-5300J0D01*
G01X1069700Y839100D02*
G03X1069700I-4300J0D01*
G01X1075100Y850300D02*
G03X1075100I-4300J0D01*
G01X1080350Y861500D02*
G03X1080350I-4050J0D01*
G01X1058550Y839100D02*
G03X1058550I-4050J0D01*
G01X1063950Y850300D02*
G03X1063950I-4050J0D01*
G01X1069700Y861500D02*
G03X1069700I-4300J0D01*
G01X1047650Y839100D02*
G03X1047650I-4050J0D01*
G01X1052950Y850300D02*
G03X1052950I-4050J0D01*
G01X1058550Y861500D02*
G03X1058550I-4050J0D01*
G01X1036750Y839100D02*
G03X1036750I-4050J0D01*
G01X1042150Y850300D02*
G03X1042150I-4050J0D01*
G01X1047650Y861500D02*
G03X1047650I-4050J0D01*
G01X1025850Y839100D02*
G03X1025850I-4050J0D01*
G01X1031250Y850300D02*
G03X1031250I-4050J0D01*
G01X1036750Y861500D02*
G03X1036750I-4050J0D01*
G01X1014950Y839100D02*
G03X1014950I-4050J0D01*
G01X1020350Y850300D02*
G03X1020350I-4050J0D01*
G01X1025850Y861500D02*
G03X1025850I-4050J0D01*
G01X1004050Y839100D02*
G03X1004050I-4050J0D01*
G01X1009450Y850300D02*
G03X1009450I-4050J0D01*
G01X1014950Y861500D02*
G03X1014950I-4050J0D01*
G01X993150Y839100D02*
G03X993150I-4050J0D01*
G01X998550Y850300D02*
G03X998550I-4050J0D01*
G01X1004050Y861500D02*
G03X1004050I-4050J0D01*
G01X993150D02*
G03X993150I-4050J0D01*
G01X1347199Y802800D02*
Y1297199D01*
X1347199D02*
X802800D01*
X802800D02*
Y802800D01*
X1347199*
X1339200Y823600D02*
G03X1339200I-12800J0D01*
G01X1332050Y873000D02*
G03X1332050I-4050J0D01*
G01X1332800Y883000D02*
G03X1332800I-4800J0D01*
G01X1332050Y922000D02*
G03X1332050I-4050J0D01*
G01Y932000D02*
G03X1332050I-4050J0D01*
G01Y942000D02*
G03X1332050I-4050J0D01*
G01Y952000D02*
G03X1332050I-4050J0D01*
G01X1332800Y962000D02*
G03X1332800I-4800J0D01*
G01X1332050Y1001000D02*
G03X1332050I-4050J0D01*
G01Y1011000D02*
G03X1332050I-4050J0D01*
G01X1332800Y1021000D02*
G03X1332800I-4800J0D01*
G01X1332050Y1031000D02*
G03X1332050I-4050J0D01*
G01Y1041000D02*
G03X1332050I-4050J0D01*
G01X1332800Y1051000D02*
G03X1332800I-4800J0D01*
G01X1330550Y1110688D02*
G03X1330550I-4050J0D01*
G01Y1122500D02*
G03X1330550I-4050J0D01*
G01X1331500Y1169100D02*
G03X1331500I-5300J0D01*
G01X1313300Y987500D02*
G03X1313300I-2300J0D01*
G01Y1007500D02*
G03X1313300I-2300J0D01*
G01X1315288Y1098877D02*
G03X1315288I-4299J0D01*
G01X1318738Y1110688D02*
G03X1318738I-4049J0D01*
G01Y1122500D02*
G03X1318738I-4049J0D01*
G01X1315288Y1134311D02*
G03X1315288I-4299J0D01*
G01X1322550Y1180900D02*
G03X1322550I-4050J0D01*
G01Y1192700D02*
G03X1322550I-4050J0D01*
G01Y1204500D02*
G03X1322550I-4050J0D01*
G01X1331500Y1216300D02*
G03X1331500I-5300J0D01*
G01X1329800Y1263500D02*
G03X1329800I-2300J0D01*
G01X1324800Y1274500D02*
G03X1324800I-2300J0D01*
G01X1319800Y1267500D02*
G03X1319800I-2300J0D01*
G01X1306300Y987500D02*
G03X1306300I-2300J0D01*
G01Y1007500D02*
G03X1306300I-2300J0D01*
G01X1300550Y1274000D02*
G03X1300550I-4050J0D01*
G01X1290550D02*
G03X1290550I-4050J0D01*
G01X1280550D02*
G03X1280550I-4050J0D01*
G01X1268300Y1178000D02*
G03X1268300I-12800J0D01*
G01X1270550Y1274000D02*
G03X1270550I-4050J0D01*
G01X1253550Y1230500D02*
G03X1253550I-4050J0D01*
G01X1243550D02*
G03X1243550I-4050J0D01*
G01X1233550D02*
G03X1233550I-4050J0D01*
G01X1223550D02*
G03X1223550I-4050J0D01*
G01X1209200Y850300D02*
G03X1209200I-12800J0D01*
G01X1206050Y1274000D02*
G03X1206050I-4050J0D01*
G01X1196050D02*
G03X1196050I-4050J0D01*
G01X1186050D02*
G03X1186050I-4050J0D01*
G01X1176050D02*
G03X1176050I-4050J0D01*
G01X1167550Y839100D02*
G03X1167550I-4050J0D01*
G01X1156900D02*
G03X1156900I-4300J0D01*
G01X1162300Y850300D02*
G03X1162300I-4300J0D01*
G01X1167550Y861500D02*
G03X1167550I-4050J0D01*
G01X1145750Y839100D02*
G03X1145750I-4050J0D01*
G01X1151150Y850300D02*
G03X1151150I-4050J0D01*
G01X1156900Y861500D02*
G03X1156900I-4300J0D01*
G01X1159050Y1230500D02*
G03X1159050I-4050J0D01*
G01X1135100Y839100D02*
G03X1135100I-4300J0D01*
G01X1140500Y850300D02*
G03X1140500I-4300J0D01*
G01X1145750Y861500D02*
G03X1145750I-4050J0D01*
G01X1149050Y1230500D02*
G03X1149050I-4050J0D01*
G01X1123950Y839100D02*
G03X1123950I-4050J0D01*
G01X1129350Y850300D02*
G03X1129350I-4050J0D01*
G01X1135100Y861500D02*
G03X1135100I-4300J0D01*
G01X1139050Y1230500D02*
G03X1139050I-4050J0D01*
G01X1113050Y839100D02*
G03X1113050I-4050J0D01*
G01X1118450Y850300D02*
G03X1118450I-4050J0D01*
G01X1123950Y861500D02*
G03X1123950I-4050J0D01*
G01X1129050Y1230500D02*
G03X1129050I-4050J0D01*
G01X1102400Y839100D02*
G03X1102400I-4300J0D01*
G01X1107800Y850300D02*
G03X1107800I-4300J0D01*
G01X1113300Y861500D02*
G03X1113300I-4300J0D01*
G01X1111550Y1274000D02*
G03X1111550I-4050J0D01*
G01X1091500Y839100D02*
G03X1091500I-4300J0D01*
G01X1096900Y850300D02*
G03X1096900I-4300J0D01*
G01X1102400Y861500D02*
G03X1102400I-4300J0D01*
G01X1080350Y839100D02*
G03X1080350I-4050J0D01*
G01X1085750Y850300D02*
G03X1085750I-4050J0D01*
G01X1091500Y861500D02*
G03X1091500I-4300J0D01*
G01X1091952Y1058734D02*
G03X1096265Y1063047I3048J1266D01*
G01X1091952Y1058734D02*
X1083736Y1066949D01*
X1083736D02*
X1082363D01*
X1082363D02*
X1086265Y1063047D01*
X1081952Y1058734D02*
G03X1086265Y1063047I3048J1266D01*
G01X1081952Y1058734D02*
X1078736Y1061949D01*
X1078736D02*
X1077363D01*
X1077363D02*
X1092156Y1047156D01*
X1093050Y1045000D02*
G03X1092156Y1047156I-3050J0D01*
G01X1093050Y1045000D02*
Y1041259D01*
X1086949D02*
G03X1093050I3051J-1259D01*
G01X1086949D02*
Y1043736D01*
X1086949D02*
X1085798Y1044888D01*
X1079452Y1043734D02*
G03X1085798Y1044888I3048J1266D01*
G01X1079452Y1043734D02*
X1071236Y1051949D01*
X1071236D02*
X1069863D01*
X1069863D02*
X1073765Y1048047D01*
X1069452Y1043734D02*
G03X1073765Y1048047I3048J1266D01*
G01X1069452Y1043734D02*
X1066236Y1046949D01*
X1066236D02*
X1064863D01*
X1064863D02*
X1068765Y1043047D01*
X1064452Y1038734D02*
G03X1068765Y1043047I3048J1266D01*
G01X1064452Y1038734D02*
X1061236Y1041949D01*
X1061236D02*
X901500D01*
X899343Y1042843D02*
G03X901500Y1041949I2157J2157D01*
G01X899343Y1042843D02*
X843307Y1098878D01*
X835354Y1100949D02*
G03X843307Y1098878I3657J-2260D01*
G01X835354Y1100949D02*
X830000D01*
X827843Y1101843D02*
G03X830000Y1100949I2157J2157D01*
G01X827843Y1101843D02*
X824622Y1105064D01*
X828935Y1109377D02*
G03X824622Y1105064I-5435J1123D01*
G01X828935Y1109377D02*
X830401Y1107912D01*
X839947Y1113550D02*
G03X830401Y1107912I-4635J-3050D01*
G01X839947Y1113550D02*
X845000D01*
X847156Y1112656D02*
G03X845000Y1113550I-2156J-2156D01*
G01X847156Y1112656D02*
X906763Y1053050D01*
X907447*
X907447D02*
X841236Y1119261D01*
X841236D02*
X839947D01*
X830401Y1124898D02*
G03X839947Y1119261I4910J-2586D01*
G01X830401Y1124898D02*
X828935Y1123433D01*
X824622Y1127746D02*
G03X828935Y1123433I-1122J-5434D01*
G01X824622Y1127746D02*
X828032Y1131156D01*
X830188Y1132050D02*
G03X828032Y1131156I0J-3050D01*
G01X830188Y1132050D02*
X835243D01*
X841744Y1137441D02*
G03X835243Y1132050I-2732J-3318D01*
G01X841744Y1137441D02*
X828843Y1150343D01*
X827949Y1152500D02*
G03X828843Y1150343I3051J0D01*
G01X827949Y1152500D02*
Y1166656D01*
Y1171743D02*
G03Y1166656I-4649J-2543D01*
G01Y1171743D02*
Y1176363D01*
X833564Y1185921D02*
G03X827949Y1176363I-2564J-4921D01*
G01X833564Y1185921D02*
X832122Y1187364D01*
X836435Y1191677D02*
G03X832122Y1187364I-5435J1123D01*
G01X836435Y1191677D02*
X842156Y1185956D01*
X843050Y1183800D02*
G03X842156Y1185956I-3050J0D01*
G01X843050Y1183800D02*
Y1153763D01*
X923763Y1073050*
X1085000*
X1087156Y1072156D02*
G03X1085000Y1073050I-2156J-2156D01*
G01X1087156Y1072156D02*
X1096265Y1063047D01*
X1101550Y1274000D02*
G03X1101550I-4050J0D01*
G01X1091550D02*
G03X1091550I-4050J0D01*
G01X1081550D02*
G03X1081550I-4050J0D01*
G01X1057800Y1254500D02*
G03X1057800I-2300J0D01*
G01X1052300D02*
G03X1052300I-2300J0D01*
G01X1046800D02*
G03X1046800I-2300J0D01*
G01X1022800Y1212000D02*
G03X1022800I-2300J0D01*
G01X1030550Y1274000D02*
G03X1030550I-4050J0D01*
G01X1017300Y1212000D02*
G03X1017300I-2300J0D01*
G01X1020550Y1274000D02*
G03X1020550I-4050J0D01*
G01X1011800Y1212000D02*
G03X1011800I-2300J0D01*
G01X1011300Y1274000D02*
G03X1011300I-4800J0D01*
G01X995550Y1230500D02*
G03X995550I-4050J0D01*
G01X985550D02*
G03X985550I-4050J0D01*
G01X985300Y1254500D02*
G03X985300I-2300J0D01*
G01X976300Y1230500D02*
G03X976300I-4800J0D01*
G01X979800Y1254500D02*
G03X979800I-2300J0D01*
G01X974300D02*
G03X974300I-2300J0D01*
G01X959550Y1274000D02*
G03X959550I-4050J0D01*
G01X950300Y1212000D02*
G03X950300I-2300J0D01*
G01X944800D02*
G03X944800I-2300J0D01*
G01X949550Y1274000D02*
G03X949550I-4050J0D01*
G01X939300Y1212000D02*
G03X939300I-2300J0D01*
G01X940300Y1274000D02*
G03X940300I-4800J0D01*
G01X924550Y1230500D02*
G03X924550I-4050J0D01*
G01X914550D02*
G03X914550I-4050J0D01*
G01X915300Y1254500D02*
G03X915300I-2300J0D01*
G01X905300Y1230500D02*
G03X905300I-4800J0D01*
G01X909800Y1254500D02*
G03X909800I-2300J0D01*
G01X904300D02*
G03X904300I-2300J0D01*
G01X889050Y1274000D02*
G03X889050I-4050J0D01*
G01X879050D02*
G03X879050I-4050J0D01*
G01X869800D02*
G03X869800I-4800J0D01*
G01X828600Y1216400D02*
G03X828600I-5300J0D01*
G01X836400Y1276400D02*
G03X836400I-12800J0D01*
G01Y823600D02*
G03X836400I-12800J0D01*
G01X835800Y861500D02*
G03X835800I-5300J0D01*
G01X815800D02*
G03X815800I-5300J0D01*
G01X825800Y871500D02*
G03X825800I-5300J0D01*
G01X835800Y881500D02*
G03X835800I-5300J0D01*
G01Y920500D02*
G03X835800I-5300J0D01*
G01X815800Y881500D02*
G03X815800I-5300J0D01*
G01Y920500D02*
G03X815800I-5300J0D01*
G01X825800Y930500D02*
G03X825800I-5300J0D01*
G01X835800Y940500D02*
G03X835800I-5300J0D01*
G01Y979500D02*
G03X835800I-5300J0D01*
G01X815800Y940500D02*
G03X815800I-5300J0D01*
G01Y979500D02*
G03X815800I-5300J0D01*
G01X825800Y989500D02*
G03X825800I-5300J0D01*
G01X835800Y999500D02*
G03X835800I-5300J0D01*
G01Y1038500D02*
G03X835800I-5300J0D01*
G01X815800Y999500D02*
G03X815800I-5300J0D01*
G01Y1038500D02*
G03X815800I-5300J0D01*
G01X825800Y1048500D02*
G03X825800I-5300J0D01*
G01X835800Y1058500D02*
G03X835800I-5300J0D01*
G01X815800D02*
G03X815800I-5300J0D01*
G01X1069700Y839100D02*
G03X1069700I-4300J0D01*
G01X1075100Y850300D02*
G03X1075100I-4300J0D01*
G01X1080350Y861500D02*
G03X1080350I-4050J0D01*
G01X1058550Y839100D02*
G03X1058550I-4050J0D01*
G01X1063950Y850300D02*
G03X1063950I-4050J0D01*
G01X1069700Y861500D02*
G03X1069700I-4300J0D01*
G01X1047650Y839100D02*
G03X1047650I-4050J0D01*
G01X1052950Y850300D02*
G03X1052950I-4050J0D01*
G01X1058550Y861500D02*
G03X1058550I-4050J0D01*
G01X1036750Y839100D02*
G03X1036750I-4050J0D01*
G01X1042150Y850300D02*
G03X1042150I-4050J0D01*
G01X1047650Y861500D02*
G03X1047650I-4050J0D01*
G01X1025850Y839100D02*
G03X1025850I-4050J0D01*
G01X1031250Y850300D02*
G03X1031250I-4050J0D01*
G01X1036750Y861500D02*
G03X1036750I-4050J0D01*
G01X1014950Y839100D02*
G03X1014950I-4050J0D01*
G01X1020350Y850300D02*
G03X1020350I-4050J0D01*
G01X1025850Y861500D02*
G03X1025850I-4050J0D01*
G01X1004050Y839100D02*
G03X1004050I-4050J0D01*
G01X1009450Y850300D02*
G03X1009450I-4050J0D01*
G01X1014950Y861500D02*
G03X1014950I-4050J0D01*
G01X993150Y839100D02*
G03X993150I-4050J0D01*
G01X998550Y850300D02*
G03X998550I-4050J0D01*
G01X1004050Y861500D02*
G03X1004050I-4050J0D01*
G01X993150D02*
G03X993150I-4050J0D01*
G01X942956Y855694D02*
G03X950805Y863543I13244J-5394D01*
G01X942956Y855694D02*
X838575Y960075D01*
X836949Y964000D02*
G03X838575Y960075I5551J0D01*
G01X836949Y964000D02*
Y1065201D01*
X836949D02*
X806075Y1096075D01*
X804449Y1100000D02*
G03X806075Y1096075I5551J0D01*
G01X804449Y1100000D02*
Y1194600D01*
X806075Y1198524D02*
G03X804449Y1194600I3925J-3924D01*
G01X806075Y1198524D02*
X816075Y1208524D01*
X820000Y1210150D02*
G03X816075Y1208524I0J-5550D01*
G01X820000Y1210150D02*
X831000D01*
Y1199049D02*
G03Y1210150I0J5551D01*
G01Y1199049D02*
X822298D01*
X822298D02*
X815550Y1192301D01*
Y1102298*
X815550D02*
X846424Y1071424D01*
X848050Y1067500D02*
G03X846424Y1071424I-5550J0D01*
G01X848050Y1067500D02*
Y966298D01*
X848050D02*
X950805Y863543D01*
X802800Y1296898D02*
X1347199D01*
X802800Y1296358D02*
X1347199D01*
X802800Y1295818D02*
X1347199D01*
X802800Y1295278D02*
X1347199D01*
X802800Y1294738D02*
X1347199D01*
X802800Y1294198D02*
X1347199D01*
X802800Y1293658D02*
X1347199D01*
X802800Y1293118D02*
X1347199D01*
X802800Y1292578D02*
X1347199D01*
X802800Y1292038D02*
X1347199D01*
X802800Y1291498D02*
X1347199D01*
X802800Y1290958D02*
X1347199D01*
X802800Y1290418D02*
X1347199D01*
X802800Y1289878D02*
X1347199D01*
X802800Y1289338D02*
X1347199D01*
X826780Y1288798D02*
X1347199D01*
X828417Y1288258D02*
X1347199D01*
X829577Y1287718D02*
X1347199D01*
X830503Y1287178D02*
X1347199D01*
X831281Y1286638D02*
X1347199D01*
X831953Y1286098D02*
X1347199D01*
X832541Y1285558D02*
X1347199D01*
X833063Y1285018D02*
X1347199D01*
X833528Y1284478D02*
X1347199D01*
X833944Y1283938D02*
X1347199D01*
X834317Y1283398D02*
X1347199D01*
X834651Y1282858D02*
X1347199D01*
X834949Y1282318D02*
X1347199D01*
X835215Y1281778D02*
X1347199D01*
X835450Y1281238D02*
X1347199D01*
X835656Y1280698D02*
X1347199D01*
X835835Y1280158D02*
X1347199D01*
X835988Y1279618D02*
X1347199D01*
X836116Y1279078D02*
X1347199D01*
X1008062Y1278538D02*
X1347199D01*
X1297142Y1277998D02*
X1347199D01*
X1298607Y1277458D02*
X1347199D01*
X1299307Y1276918D02*
X1347199D01*
X1323826Y1276378D02*
X1347199D01*
X1324370Y1275838D02*
X1347199D01*
X1324656Y1275298D02*
X1347199D01*
X1324785Y1274758D02*
X1347199D01*
X1324782Y1274218D02*
X1347199D01*
X1324648Y1273678D02*
X1347199D01*
X1324353Y1273138D02*
X1347199D01*
X1323794Y1272598D02*
X1347199D01*
X1300054Y1272058D02*
X1347199D01*
X1299700Y1271518D02*
X1347199D01*
X1299197Y1270978D02*
X1347199D01*
X1298428Y1270438D02*
X1347199D01*
X1008993Y1269898D02*
X1347199D01*
X1318854Y1269358D02*
X1347199D01*
X1319384Y1268818D02*
X1347199D01*
X1319664Y1268278D02*
X1347199D01*
X1319787Y1267738D02*
X1347199D01*
X1319780Y1267198D02*
X1347199D01*
X1319640Y1266658D02*
X1347199D01*
X1319339Y1266118D02*
X1347199D01*
X1328484Y1265578D02*
X1347199D01*
X1329209Y1265038D02*
X1347199D01*
X1329571Y1264498D02*
X1347199D01*
X1329753Y1263958D02*
X1347199D01*
X1329798Y1263418D02*
X1347199D01*
X1329714Y1262878D02*
X1347199D01*
X1329485Y1262338D02*
X1347199D01*
X1329047Y1261798D02*
X1347199D01*
X1328016Y1261258D02*
X1347199D01*
X802800Y1260718D02*
X1347199D01*
X802800Y1260178D02*
X1347199D01*
X802800Y1259638D02*
X1347199D01*
X802800Y1259098D02*
X1347199D01*
X802800Y1258558D02*
X1347199D01*
X802800Y1258018D02*
X1347199D01*
X802800Y1257478D02*
X1347199D01*
X802800Y1256938D02*
X1347199D01*
X1056798Y1256398D02*
X1347199D01*
X1057355Y1255858D02*
X1347199D01*
X1057649Y1255318D02*
X1347199D01*
X1057783Y1254778D02*
X1347199D01*
X1057785Y1254238D02*
X1347199D01*
X1057655Y1253698D02*
X1347199D01*
X1057368Y1253158D02*
X1347199D01*
X1056823Y1252618D02*
X1347199D01*
X802800Y1252078D02*
X1347199D01*
X802800Y1251538D02*
X1347199D01*
X802800Y1250998D02*
X1347199D01*
X802800Y1250458D02*
X1347199D01*
X802800Y1249918D02*
X1347199D01*
X802800Y1249378D02*
X1347199D01*
X802800Y1248838D02*
X1347199D01*
X802800Y1248298D02*
X1347199D01*
X802800Y1247758D02*
X1347199D01*
X802800Y1247218D02*
X1347199D01*
X802800Y1246678D02*
X1347199D01*
X802800Y1246138D02*
X1347199D01*
X802800Y1245598D02*
X1347199D01*
X802800Y1245058D02*
X1347199D01*
X802800Y1244518D02*
X1347199D01*
X802800Y1243978D02*
X1347199D01*
X802800Y1243438D02*
X1347199D01*
X802800Y1242898D02*
X1347199D01*
X802800Y1242358D02*
X1347199D01*
X802800Y1241818D02*
X1347199D01*
X802800Y1241278D02*
X1347199D01*
X802800Y1240738D02*
X1347199D01*
X802800Y1240198D02*
X1347199D01*
X802800Y1239658D02*
X1347199D01*
X802800Y1239118D02*
X1347199D01*
X802800Y1238578D02*
X1347199D01*
X802800Y1238038D02*
X1347199D01*
X802800Y1237498D02*
X1347199D01*
X802800Y1236958D02*
X1347199D01*
X802800Y1236418D02*
X1347199D01*
X802800Y1235878D02*
X1347199D01*
X802800Y1235338D02*
X1347199D01*
X973635Y1234798D02*
X1347199D01*
X1251008Y1234258D02*
X1347199D01*
X1251958Y1233718D02*
X1347199D01*
X1252537Y1233178D02*
X1347199D01*
X1252939Y1232638D02*
X1347199D01*
X1253221Y1232098D02*
X1347199D01*
X1253409Y1231558D02*
X1347199D01*
X1253516Y1231018D02*
X1347199D01*
X1253549Y1230478D02*
X1347199D01*
X1253510Y1229938D02*
X1347199D01*
X1253397Y1229398D02*
X1347199D01*
X1253202Y1228858D02*
X1347199D01*
X1252912Y1228318D02*
X1347199D01*
X1252499Y1227778D02*
X1347199D01*
X1251901Y1227238D02*
X1347199D01*
X1250897Y1226698D02*
X1347199D01*
X973547Y1226158D02*
X1347199D01*
X802800Y1225618D02*
X1347199D01*
X802800Y1225078D02*
X1347199D01*
X802800Y1224538D02*
X1347199D01*
X802800Y1223998D02*
X1347199D01*
X802800Y1223458D02*
X1347199D01*
X802800Y1222918D02*
X1347199D01*
X802800Y1222378D02*
X1347199D01*
X802800Y1221838D02*
X1347199D01*
X1327961Y1221298D02*
X1347199D01*
X1329065Y1220758D02*
X1347199D01*
X1329768Y1220218D02*
X1347199D01*
X1330283Y1219678D02*
X1347199D01*
X1330675Y1219138D02*
X1347199D01*
X1330975Y1218598D02*
X1347199D01*
X1331199Y1218058D02*
X1347199D01*
X1331358Y1217518D02*
X1347199D01*
X1331456Y1216978D02*
X1347199D01*
X1331498Y1216438D02*
X1347199D01*
X1331484Y1215898D02*
X1347199D01*
X1331415Y1215358D02*
X1347199D01*
X1331288Y1214818D02*
X1347199D01*
X1331099Y1214278D02*
X1347199D01*
X1330840Y1213738D02*
X1347199D01*
X1330497Y1213198D02*
X1347199D01*
X1330051Y1212658D02*
X1347199D01*
X1329456Y1212118D02*
X1347199D01*
X1328608Y1211578D02*
X1347199D01*
X1326839Y1211038D02*
X1347199D01*
X1022242Y1210498D02*
X1347199D01*
X1021559Y1209958D02*
X1347199D01*
X833753Y1209418D02*
X1347199D01*
X834534Y1208878D02*
X1347199D01*
X1319791Y1208338D02*
X1347199D01*
X1320849Y1207798D02*
X1347199D01*
X1321465Y1207258D02*
X1347199D01*
X1321888Y1206718D02*
X1347199D01*
X1322185Y1206178D02*
X1347199D01*
X1322386Y1205638D02*
X1347199D01*
X1322505Y1205098D02*
X1347199D01*
X1322549Y1204558D02*
X1347199D01*
X1322521Y1204018D02*
X1347199D01*
X1322419Y1203478D02*
X1347199D01*
X1322236Y1202938D02*
X1347199D01*
X1321962Y1202398D02*
X1347199D01*
X1321570Y1201858D02*
X1347199D01*
X1321006Y1201318D02*
X1347199D01*
X1320098Y1200778D02*
X1347199D01*
X834432Y1200238D02*
X1347199D01*
X833603Y1199698D02*
X1347199D01*
X832093Y1199158D02*
X1347199D01*
X821867Y1198618D02*
X1347199D01*
X832714Y1198078D02*
X1347199D01*
X833889Y1197538D02*
X1347199D01*
X834629Y1196998D02*
X1347199D01*
X1320008Y1196458D02*
X1347199D01*
X1320958Y1195918D02*
X1347199D01*
X1321537Y1195378D02*
X1347199D01*
X1321939Y1194838D02*
X1347199D01*
X1322221Y1194298D02*
X1347199D01*
X1322409Y1193758D02*
X1347199D01*
X1322516Y1193218D02*
X1347199D01*
X1322549Y1192678D02*
X1347199D01*
X1322510Y1192138D02*
X1347199D01*
X1322397Y1191598D02*
X1347199D01*
X1322202Y1191058D02*
X1347199D01*
X1321912Y1190518D02*
X1347199D01*
X1321499Y1189978D02*
X1347199D01*
X1320901Y1189438D02*
X1347199D01*
X1319897Y1188898D02*
X1347199D01*
X1263019Y1188358D02*
X1347199D01*
X1263711Y1187818D02*
X1347199D01*
X1264317Y1187278D02*
X1347199D01*
X1264852Y1186738D02*
X1347199D01*
X1265329Y1186198D02*
X1347199D01*
X1265755Y1185658D02*
X1347199D01*
X1266137Y1185118D02*
X1347199D01*
X1320194Y1184578D02*
X1347199D01*
X1321059Y1184038D02*
X1347199D01*
X1321606Y1183498D02*
X1347199D01*
X1321987Y1182958D02*
X1347199D01*
X1322254Y1182418D02*
X1347199D01*
X1322429Y1181878D02*
X1347199D01*
X1322526Y1181338D02*
X1347199D01*
X1322548Y1180798D02*
X1347199D01*
X1322498Y1180258D02*
X1347199D01*
X1322373Y1179718D02*
X1347199D01*
X1322166Y1179178D02*
X1347199D01*
X1321859Y1178638D02*
X1347199D01*
X1321424Y1178098D02*
X1347199D01*
X1320788Y1177558D02*
X1347199D01*
X1319656Y1177018D02*
X1347199D01*
X1268209Y1176478D02*
X1347199D01*
X1268132Y1175938D02*
X1347199D01*
X1268032Y1175398D02*
X1347199D01*
X1267908Y1174858D02*
X1347199D01*
X1327124Y1174318D02*
X1347199D01*
X1328689Y1173778D02*
X1347199D01*
X1329510Y1173238D02*
X1347199D01*
X1330090Y1172698D02*
X1347199D01*
X1330528Y1172158D02*
X1347199D01*
X1330863Y1171618D02*
X1347199D01*
X1331116Y1171078D02*
X1347199D01*
X1331301Y1170538D02*
X1347199D01*
X1331423Y1169998D02*
X1347199D01*
X1331487Y1169458D02*
X1347199D01*
X1331496Y1168918D02*
X1347199D01*
X1331450Y1168378D02*
X1347199D01*
X1331347Y1167838D02*
X1347199D01*
X1331184Y1167298D02*
X1347199D01*
X1330954Y1166758D02*
X1347199D01*
X1330648Y1166218D02*
X1347199D01*
X1330247Y1165678D02*
X1347199D01*
X1329721Y1165138D02*
X1347199D01*
X1328997Y1164598D02*
X1347199D01*
X1327835Y1164058D02*
X1347199D01*
X843050Y1163518D02*
X1347199D01*
X843050Y1162978D02*
X1347199D01*
X843050Y1162438D02*
X1347199D01*
X843050Y1161898D02*
X1347199D01*
X843050Y1161358D02*
X1347199D01*
X843050Y1160818D02*
X1347199D01*
X843050Y1160278D02*
X1347199D01*
X843050Y1159738D02*
X1347199D01*
X843050Y1159198D02*
X1347199D01*
X843050Y1158658D02*
X1347199D01*
X843050Y1158118D02*
X1347199D01*
X843050Y1157578D02*
X1347199D01*
X843050Y1157038D02*
X1347199D01*
X843050Y1156498D02*
X1347199D01*
X843050Y1155958D02*
X1347199D01*
X843050Y1155418D02*
X1347199D01*
X843050Y1154878D02*
X1347199D01*
X843050Y1154338D02*
X1347199D01*
X843050Y1153798D02*
X1347199D01*
X843554Y1153258D02*
X1347199D01*
X844094Y1152718D02*
X1347199D01*
X844634Y1152178D02*
X1347199D01*
X845174Y1151638D02*
X1347199D01*
X845714Y1151098D02*
X1347199D01*
X846254Y1150558D02*
X1347199D01*
X846794Y1150018D02*
X1347199D01*
X847334Y1149478D02*
X1347199D01*
X847874Y1148938D02*
X1347199D01*
X848414Y1148398D02*
X1347199D01*
X848954Y1147858D02*
X1347199D01*
X849494Y1147318D02*
X1347199D01*
X850034Y1146778D02*
X1347199D01*
X850574Y1146238D02*
X1347199D01*
X851114Y1145698D02*
X1347199D01*
X851654Y1145158D02*
X1347199D01*
X852194Y1144618D02*
X1347199D01*
X852734Y1144078D02*
X1347199D01*
X853274Y1143538D02*
X1347199D01*
X853814Y1142998D02*
X1347199D01*
X854354Y1142458D02*
X1347199D01*
X854894Y1141918D02*
X1347199D01*
X855434Y1141378D02*
X1347199D01*
X855974Y1140838D02*
X1347199D01*
X856514Y1140298D02*
X1347199D01*
X857054Y1139758D02*
X1347199D01*
X857594Y1139218D02*
X1347199D01*
X858134Y1138678D02*
X1347199D01*
X1312947Y1138138D02*
X1347199D01*
X1313759Y1137598D02*
X1347199D01*
X1314295Y1137058D02*
X1347199D01*
X1314678Y1136518D02*
X1347199D01*
X1314951Y1135978D02*
X1347199D01*
X1315137Y1135438D02*
X1347199D01*
X1315247Y1134898D02*
X1347199D01*
X1315287Y1134358D02*
X1347199D01*
X1315259Y1133818D02*
X1347199D01*
X1315162Y1133278D02*
X1347199D01*
X1314990Y1132738D02*
X1347199D01*
X1314733Y1132198D02*
X1347199D01*
X1314372Y1131658D02*
X1347199D01*
X1313869Y1131118D02*
X1347199D01*
X1313123Y1130578D02*
X1347199D01*
X1311475Y1130038D02*
X1347199D01*
X867314Y1129498D02*
X1347199D01*
X867854Y1128958D02*
X1347199D01*
X868394Y1128418D02*
X1347199D01*
X868934Y1127878D02*
X1347199D01*
X869474Y1127338D02*
X1347199D01*
X870014Y1126798D02*
X1347199D01*
X1328008Y1126258D02*
X1347199D01*
X1328958Y1125718D02*
X1347199D01*
X1329537Y1125178D02*
X1347199D01*
X1329939Y1124638D02*
X1347199D01*
X1330221Y1124098D02*
X1347199D01*
X1330409Y1123558D02*
X1347199D01*
X1330516Y1123018D02*
X1347199D01*
X1330549Y1122478D02*
X1347199D01*
X1330510Y1121938D02*
X1347199D01*
X1330397Y1121398D02*
X1347199D01*
X1330202Y1120858D02*
X1347199D01*
X1329912Y1120318D02*
X1347199D01*
X1329499Y1119778D02*
X1347199D01*
X1328901Y1119238D02*
X1347199D01*
X1327897Y1118698D02*
X1347199D01*
X878654Y1118158D02*
X1347199D01*
X879194Y1117618D02*
X1347199D01*
X879734Y1117078D02*
X1347199D01*
X880274Y1116538D02*
X1347199D01*
X880814Y1115998D02*
X1347199D01*
X881354Y1115458D02*
X1347199D01*
X881894Y1114918D02*
X1347199D01*
X1328169Y1114378D02*
X1347199D01*
X1329045Y1113838D02*
X1347199D01*
X1329597Y1113298D02*
X1347199D01*
X1329981Y1112758D02*
X1347199D01*
X1330250Y1112218D02*
X1347199D01*
X1330427Y1111678D02*
X1347199D01*
X1330524Y1111138D02*
X1347199D01*
X1330549Y1110598D02*
X1347199D01*
X1330500Y1110058D02*
X1347199D01*
X1330377Y1109518D02*
X1347199D01*
X1330171Y1108978D02*
X1347199D01*
X1329867Y1108438D02*
X1347199D01*
X1329435Y1107898D02*
X1347199D01*
X1328804Y1107358D02*
X1347199D01*
X1327693Y1106818D02*
X1347199D01*
X890534Y1106278D02*
X1347199D01*
X891074Y1105738D02*
X1347199D01*
X891614Y1105198D02*
X1347199D01*
X892154Y1104658D02*
X1347199D01*
X892694Y1104118D02*
X1347199D01*
X893234Y1103578D02*
X1347199D01*
X1312073Y1103038D02*
X1347199D01*
X1313307Y1102498D02*
X1347199D01*
X1313988Y1101958D02*
X1347199D01*
X1314457Y1101418D02*
X1347199D01*
X1314794Y1100878D02*
X1347199D01*
X1315032Y1100338D02*
X1347199D01*
X1315188Y1099798D02*
X1347199D01*
X1315271Y1099258D02*
X1347199D01*
X1315285Y1098718D02*
X1347199D01*
X1315230Y1098178D02*
X1347199D01*
X1315105Y1097638D02*
X1347199D01*
X1314902Y1097098D02*
X1347199D01*
X1314609Y1096558D02*
X1347199D01*
X1314199Y1096018D02*
X1347199D01*
X1313621Y1095478D02*
X1347199D01*
X1312712Y1094938D02*
X1347199D01*
X902414Y1094398D02*
X1347199D01*
X902954Y1093858D02*
X1347199D01*
X903494Y1093318D02*
X1347199D01*
X904034Y1092778D02*
X1347199D01*
X904574Y1092238D02*
X1347199D01*
X905114Y1091698D02*
X1347199D01*
X905654Y1091158D02*
X1347199D01*
X906194Y1090618D02*
X1347199D01*
X906734Y1090078D02*
X1347199D01*
X907274Y1089538D02*
X1347199D01*
X907814Y1088998D02*
X1347199D01*
X908354Y1088458D02*
X1347199D01*
X908894Y1087918D02*
X1347199D01*
X909434Y1087378D02*
X1347199D01*
X909974Y1086838D02*
X1347199D01*
X910514Y1086298D02*
X1347199D01*
X911054Y1085758D02*
X1347199D01*
X911594Y1085218D02*
X1347199D01*
X912134Y1084678D02*
X1347199D01*
X912674Y1084138D02*
X1347199D01*
X913214Y1083598D02*
X1347199D01*
X913754Y1083058D02*
X1347199D01*
X914294Y1082518D02*
X1347199D01*
X914834Y1081978D02*
X1347199D01*
X915374Y1081438D02*
X1347199D01*
X915914Y1080898D02*
X1347199D01*
X916454Y1080358D02*
X1347199D01*
X916994Y1079818D02*
X1347199D01*
X917534Y1079278D02*
X1347199D01*
X918074Y1078738D02*
X1347199D01*
X918614Y1078198D02*
X1347199D01*
X919154Y1077658D02*
X1347199D01*
X919694Y1077118D02*
X1347199D01*
X920234Y1076578D02*
X1347199D01*
X920774Y1076038D02*
X1347199D01*
X921314Y1075498D02*
X1347199D01*
X921854Y1074958D02*
X1347199D01*
X922394Y1074418D02*
X1347199D01*
X922934Y1073878D02*
X1347199D01*
X923474Y1073338D02*
X1347199D01*
X1086212Y1072798D02*
X1347199D01*
X1087049Y1072258D02*
X1347199D01*
X1087594Y1071718D02*
X1347199D01*
X1088134Y1071178D02*
X1347199D01*
X1088674Y1070638D02*
X1347199D01*
X1089214Y1070098D02*
X1347199D01*
X1089754Y1069558D02*
X1347199D01*
X1090294Y1069018D02*
X1347199D01*
X1090834Y1068478D02*
X1347199D01*
X1091374Y1067938D02*
X1347199D01*
X1091914Y1067398D02*
X1347199D01*
X1092454Y1066858D02*
X1347199D01*
X1092994Y1066318D02*
X1347199D01*
X1093534Y1065778D02*
X1347199D01*
X1094074Y1065238D02*
X1347199D01*
X1094614Y1064698D02*
X1347199D01*
X1095154Y1064158D02*
X1347199D01*
X1095694Y1063618D02*
X1347199D01*
X1096234Y1063078D02*
X1347199D01*
X1097108Y1062538D02*
X1347199D01*
X1097625Y1061998D02*
X1347199D01*
X1097960Y1061458D02*
X1347199D01*
X1098169Y1060918D02*
X1347199D01*
X1098278Y1060378D02*
X1347199D01*
X1098296Y1059838D02*
X1347199D01*
X1098224Y1059298D02*
X1347199D01*
X1098057Y1058758D02*
X1347199D01*
X1097777Y1058218D02*
X1347199D01*
X1097345Y1057678D02*
X1347199D01*
X1096644Y1057138D02*
X1347199D01*
X1082714Y1056598D02*
X1347199D01*
X1083254Y1056058D02*
X1347199D01*
X1329619Y1055518D02*
X1347199D01*
X1330685Y1054978D02*
X1347199D01*
X1331348Y1054438D02*
X1347199D01*
X1331825Y1053898D02*
X1347199D01*
X1332180Y1053358D02*
X1347199D01*
X1332442Y1052818D02*
X1347199D01*
X1332626Y1052278D02*
X1347199D01*
X1332742Y1051738D02*
X1347199D01*
X1332795Y1051198D02*
X1347199D01*
X1332787Y1050658D02*
X1347199D01*
X1332718Y1050118D02*
X1347199D01*
X1332584Y1049578D02*
X1347199D01*
X1332381Y1049038D02*
X1347199D01*
X1332096Y1048498D02*
X1347199D01*
X1331713Y1047958D02*
X1347199D01*
X1331196Y1047418D02*
X1347199D01*
X1330460Y1046878D02*
X1347199D01*
X1329145Y1046338D02*
X1347199D01*
X1092943Y1045798D02*
X1347199D01*
X1093039Y1045258D02*
X1347199D01*
X1329604Y1044718D02*
X1347199D01*
X1330509Y1044178D02*
X1347199D01*
X1331072Y1043638D02*
X1347199D01*
X1331463Y1043098D02*
X1347199D01*
X1331738Y1042558D02*
X1347199D01*
X1331919Y1042018D02*
X1347199D01*
X1332021Y1041478D02*
X1347199D01*
X1332049Y1040938D02*
X1347199D01*
X1332005Y1040398D02*
X1347199D01*
X1331885Y1039858D02*
X1347199D01*
X1331684Y1039318D02*
X1347199D01*
X1331386Y1038778D02*
X1347199D01*
X1330962Y1038238D02*
X1347199D01*
X1330346Y1037698D02*
X1347199D01*
X1329283Y1037158D02*
X1347199D01*
X848050Y1036618D02*
X1347199D01*
X848050Y1036078D02*
X1347199D01*
X848050Y1035538D02*
X1347199D01*
X1328642Y1034998D02*
X1347199D01*
X1330107Y1034458D02*
X1347199D01*
X1330807Y1033918D02*
X1347199D01*
X1331277Y1033378D02*
X1347199D01*
X1331608Y1032838D02*
X1347199D01*
X1331836Y1032298D02*
X1347199D01*
X1331978Y1031758D02*
X1347199D01*
X1332044Y1031218D02*
X1347199D01*
X1332037Y1030678D02*
X1347199D01*
X1331957Y1030138D02*
X1347199D01*
X1331799Y1029598D02*
X1347199D01*
X1331554Y1029058D02*
X1347199D01*
X1331200Y1028518D02*
X1347199D01*
X1330697Y1027978D02*
X1347199D01*
X1329928Y1027438D02*
X1347199D01*
X848050Y1026898D02*
X1347199D01*
X848050Y1026358D02*
X1347199D01*
X848050Y1025818D02*
X1347199D01*
X1330175Y1025278D02*
X1347199D01*
X1331010Y1024738D02*
X1347199D01*
X1331578Y1024198D02*
X1347199D01*
X1331996Y1023658D02*
X1347199D01*
X1332307Y1023118D02*
X1347199D01*
X1332532Y1022578D02*
X1347199D01*
X1332686Y1022038D02*
X1347199D01*
X1332774Y1021498D02*
X1347199D01*
X1332799Y1020958D02*
X1347199D01*
X1332764Y1020418D02*
X1347199D01*
X1332667Y1019878D02*
X1347199D01*
X1332503Y1019338D02*
X1347199D01*
X1332265Y1018798D02*
X1347199D01*
X1331940Y1018258D02*
X1347199D01*
X1331503Y1017718D02*
X1347199D01*
X1330904Y1017178D02*
X1347199D01*
X1330004Y1016638D02*
X1347199D01*
X848050Y1016098D02*
X1347199D01*
X848050Y1015558D02*
X1347199D01*
X1328502Y1015018D02*
X1347199D01*
X1330073Y1014478D02*
X1347199D01*
X1330786Y1013938D02*
X1347199D01*
X1331263Y1013398D02*
X1347199D01*
X1331598Y1012858D02*
X1347199D01*
X1331829Y1012318D02*
X1347199D01*
X1331974Y1011778D02*
X1347199D01*
X1332042Y1011238D02*
X1347199D01*
X1332038Y1010698D02*
X1347199D01*
X1331961Y1010158D02*
X1347199D01*
X1331807Y1009618D02*
X1347199D01*
X1331565Y1009078D02*
X1347199D01*
X1331216Y1008538D02*
X1347199D01*
X1330719Y1007998D02*
X1347199D01*
X1329965Y1007458D02*
X1347199D01*
X1313225Y1006918D02*
X1347199D01*
X1313008Y1006378D02*
X1347199D01*
X1312590Y1005838D02*
X1347199D01*
X1311666Y1005298D02*
X1347199D01*
X1329508Y1004758D02*
X1347199D01*
X1330458Y1004218D02*
X1347199D01*
X1331037Y1003678D02*
X1347199D01*
X1331439Y1003138D02*
X1347199D01*
X1331721Y1002598D02*
X1347199D01*
X1331909Y1002058D02*
X1347199D01*
X1332016Y1001518D02*
X1347199D01*
X1332049Y1000978D02*
X1347199D01*
X1332010Y1000438D02*
X1347199D01*
X1331897Y999898D02*
X1347199D01*
X1331702Y999358D02*
X1347199D01*
X1331412Y998818D02*
X1347199D01*
X1330999Y998278D02*
X1347199D01*
X1330401Y997738D02*
X1347199D01*
X1329397Y997198D02*
X1347199D01*
X848050Y996658D02*
X1347199D01*
X848050Y996118D02*
X1347199D01*
X848050Y995578D02*
X1347199D01*
X848050Y995038D02*
X1347199D01*
X848050Y994498D02*
X1347199D01*
X848050Y993958D02*
X1347199D01*
X848050Y993418D02*
X1347199D01*
X848050Y992878D02*
X1347199D01*
X848050Y992338D02*
X1347199D01*
X848050Y991798D02*
X1347199D01*
X848050Y991258D02*
X1347199D01*
X848050Y990718D02*
X1347199D01*
X848050Y990178D02*
X1347199D01*
X1311846Y989638D02*
X1347199D01*
X1312653Y989098D02*
X1347199D01*
X1313041Y988558D02*
X1347199D01*
X1313240Y988018D02*
X1347199D01*
X1313299Y987478D02*
X1347199D01*
X1313230Y986938D02*
X1347199D01*
X1313019Y986398D02*
X1347199D01*
X1312611Y985858D02*
X1347199D01*
X1311729Y985318D02*
X1347199D01*
X848050Y984778D02*
X1347199D01*
X848050Y984238D02*
X1347199D01*
X848050Y983698D02*
X1347199D01*
X848050Y983158D02*
X1347199D01*
X848050Y982618D02*
X1347199D01*
X848050Y982078D02*
X1347199D01*
X848050Y981538D02*
X1347199D01*
X848050Y980998D02*
X1347199D01*
X848050Y980458D02*
X1347199D01*
X848050Y979918D02*
X1347199D01*
X848050Y979378D02*
X1347199D01*
X848050Y978838D02*
X1347199D01*
X848050Y978298D02*
X1347199D01*
X848050Y977758D02*
X1347199D01*
X848050Y977218D02*
X1347199D01*
X848050Y976678D02*
X1347199D01*
X848050Y976138D02*
X1347199D01*
X848050Y975598D02*
X1347199D01*
X848050Y975058D02*
X1347199D01*
X848050Y974518D02*
X1347199D01*
X848050Y973978D02*
X1347199D01*
X848050Y973438D02*
X1347199D01*
X848050Y972898D02*
X1347199D01*
X848050Y972358D02*
X1347199D01*
X848050Y971818D02*
X1347199D01*
X848050Y971278D02*
X1347199D01*
X848050Y970738D02*
X1347199D01*
X848050Y970198D02*
X1347199D01*
X848050Y969658D02*
X1347199D01*
X848050Y969118D02*
X1347199D01*
X848050Y968578D02*
X1347199D01*
X848050Y968038D02*
X1347199D01*
X848050Y967498D02*
X1347199D01*
X848050Y966958D02*
X1347199D01*
X1329874Y966418D02*
X1347199D01*
X1330827Y965878D02*
X1347199D01*
X1331448Y965338D02*
X1347199D01*
X1331899Y964798D02*
X1347199D01*
X1332235Y964258D02*
X1347199D01*
X1332481Y963718D02*
X1347199D01*
X1332653Y963178D02*
X1347199D01*
X1332757Y962638D02*
X1347199D01*
X1332799Y962098D02*
X1347199D01*
X1332779Y961558D02*
X1347199D01*
X1332698Y961018D02*
X1347199D01*
X1332552Y960478D02*
X1347199D01*
X1332334Y959938D02*
X1347199D01*
X1332034Y959398D02*
X1347199D01*
X1331629Y958858D02*
X1347199D01*
X1331080Y958318D02*
X1347199D01*
X1330284Y957778D02*
X1347199D01*
X1328608Y957238D02*
X1347199D01*
X857650Y956698D02*
X1347199D01*
X858190Y956158D02*
X1347199D01*
X1329818Y955618D02*
X1347199D01*
X1330631Y955078D02*
X1347199D01*
X1331155Y954538D02*
X1347199D01*
X1331522Y953998D02*
X1347199D01*
X1331778Y953458D02*
X1347199D01*
X1331944Y952918D02*
X1347199D01*
X1332032Y952378D02*
X1347199D01*
X1332046Y951838D02*
X1347199D01*
X1331988Y951298D02*
X1347199D01*
X1331855Y950758D02*
X1347199D01*
X1331637Y950218D02*
X1347199D01*
X1331318Y949678D02*
X1347199D01*
X1330866Y949138D02*
X1347199D01*
X1330198Y948598D02*
X1347199D01*
X1328932Y948058D02*
X1347199D01*
X866830Y947518D02*
X1347199D01*
X867370Y946978D02*
X1347199D01*
X867910Y946438D02*
X1347199D01*
X1329096Y945898D02*
X1347199D01*
X1330263Y945358D02*
X1347199D01*
X1330908Y944818D02*
X1347199D01*
X1331348Y944278D02*
X1347199D01*
X1331657Y943738D02*
X1347199D01*
X1331868Y943198D02*
X1347199D01*
X1331996Y942658D02*
X1347199D01*
X1332048Y942118D02*
X1347199D01*
X1332028Y941578D02*
X1347199D01*
X1331934Y941038D02*
X1347199D01*
X1331761Y940498D02*
X1347199D01*
X1331497Y939958D02*
X1347199D01*
X1331120Y939418D02*
X1347199D01*
X1330580Y938878D02*
X1347199D01*
X1329731Y938338D02*
X1347199D01*
X876550Y937798D02*
X1347199D01*
X877090Y937258D02*
X1347199D01*
X877630Y936718D02*
X1347199D01*
X878170Y936178D02*
X1347199D01*
X1329778Y935638D02*
X1347199D01*
X1330607Y935098D02*
X1347199D01*
X1331139Y934558D02*
X1347199D01*
X1331511Y934018D02*
X1347199D01*
X1331770Y933478D02*
X1347199D01*
X1331939Y932938D02*
X1347199D01*
X1332030Y932398D02*
X1347199D01*
X1332047Y931858D02*
X1347199D01*
X1331992Y931318D02*
X1347199D01*
X1331861Y930778D02*
X1347199D01*
X1331646Y930238D02*
X1347199D01*
X1331332Y929698D02*
X1347199D01*
X1330886Y929158D02*
X1347199D01*
X1330229Y928618D02*
X1347199D01*
X1329012Y928078D02*
X1347199D01*
X886810Y927538D02*
X1347199D01*
X887350Y926998D02*
X1347199D01*
X887890Y926458D02*
X1347199D01*
X1329022Y925918D02*
X1347199D01*
X1330233Y925378D02*
X1347199D01*
X1330888Y924838D02*
X1347199D01*
X1331334Y924298D02*
X1347199D01*
X1331648Y923758D02*
X1347199D01*
X1331862Y923218D02*
X1347199D01*
X1331992Y922678D02*
X1347199D01*
X1332047Y922138D02*
X1347199D01*
X1332030Y921598D02*
X1347199D01*
X1331939Y921058D02*
X1347199D01*
X1331769Y920518D02*
X1347199D01*
X1331509Y919978D02*
X1347199D01*
X1331137Y919438D02*
X1347199D01*
X1330604Y918898D02*
X1347199D01*
X1329773Y918358D02*
X1347199D01*
X896530Y917818D02*
X1347199D01*
X897070Y917278D02*
X1347199D01*
X897610Y916738D02*
X1347199D01*
X898150Y916198D02*
X1347199D01*
X898690Y915658D02*
X1347199D01*
X899230Y915118D02*
X1347199D01*
X899770Y914578D02*
X1347199D01*
X900310Y914038D02*
X1347199D01*
X900850Y913498D02*
X1347199D01*
X901390Y912958D02*
X1347199D01*
X901930Y912418D02*
X1347199D01*
X902470Y911878D02*
X1347199D01*
X903010Y911338D02*
X1347199D01*
X903550Y910798D02*
X1347199D01*
X904090Y910258D02*
X1347199D01*
X904630Y909718D02*
X1347199D01*
X905170Y909178D02*
X1347199D01*
X905710Y908638D02*
X1347199D01*
X906250Y908098D02*
X1347199D01*
X906790Y907558D02*
X1347199D01*
X907330Y907018D02*
X1347199D01*
X907870Y906478D02*
X1347199D01*
X908410Y905938D02*
X1347199D01*
X908950Y905398D02*
X1347199D01*
X909490Y904858D02*
X1347199D01*
X910030Y904318D02*
X1347199D01*
X910570Y903778D02*
X1347199D01*
X911110Y903238D02*
X1347199D01*
X911650Y902698D02*
X1347199D01*
X912190Y902158D02*
X1347199D01*
X912730Y901618D02*
X1347199D01*
X913270Y901078D02*
X1347199D01*
X913810Y900538D02*
X1347199D01*
X914350Y899998D02*
X1347199D01*
X914890Y899458D02*
X1347199D01*
X915430Y898918D02*
X1347199D01*
X915970Y898378D02*
X1347199D01*
X916510Y897838D02*
X1347199D01*
X917050Y897298D02*
X1347199D01*
X917590Y896758D02*
X1347199D01*
X918130Y896218D02*
X1347199D01*
X918670Y895678D02*
X1347199D01*
X919210Y895138D02*
X1347199D01*
X919750Y894598D02*
X1347199D01*
X920290Y894058D02*
X1347199D01*
X920830Y893518D02*
X1347199D01*
X921370Y892978D02*
X1347199D01*
X921910Y892438D02*
X1347199D01*
X922450Y891898D02*
X1347199D01*
X922990Y891358D02*
X1347199D01*
X923530Y890818D02*
X1347199D01*
X924070Y890278D02*
X1347199D01*
X924610Y889738D02*
X1347199D01*
X925150Y889198D02*
X1347199D01*
X925690Y888658D02*
X1347199D01*
X926230Y888118D02*
X1347199D01*
X1329440Y887578D02*
X1347199D01*
X1330594Y887038D02*
X1347199D01*
X1331286Y886498D02*
X1347199D01*
X1331779Y885958D02*
X1347199D01*
X1332146Y885418D02*
X1347199D01*
X1332417Y884878D02*
X1347199D01*
X1332609Y884338D02*
X1347199D01*
X1332733Y883798D02*
X1347199D01*
X1332793Y883258D02*
X1347199D01*
X1332791Y882718D02*
X1347199D01*
X1332729Y882178D02*
X1347199D01*
X1332602Y881638D02*
X1347199D01*
X1332407Y881098D02*
X1347199D01*
X1332132Y880558D02*
X1347199D01*
X1331761Y880018D02*
X1347199D01*
X1331262Y879478D02*
X1347199D01*
X1330558Y878938D02*
X1347199D01*
X1329366Y878398D02*
X1347199D01*
X936490Y877858D02*
X1347199D01*
X937030Y877318D02*
X1347199D01*
X1329457Y876778D02*
X1347199D01*
X1330431Y876238D02*
X1347199D01*
X1331019Y875698D02*
X1347199D01*
X1331426Y875158D02*
X1347199D01*
X1331712Y874618D02*
X1347199D01*
X1331903Y874078D02*
X1347199D01*
X1332014Y873538D02*
X1347199D01*
X1332050Y872998D02*
X1347199D01*
X1332013Y872458D02*
X1347199D01*
X1331903Y871918D02*
X1347199D01*
X1331711Y871378D02*
X1347199D01*
X1331425Y870838D02*
X1347199D01*
X1331017Y870298D02*
X1347199D01*
X1330428Y869758D02*
X1347199D01*
X1329450Y869218D02*
X1347199D01*
X945670Y868678D02*
X1347199D01*
X946210Y868138D02*
X1347199D01*
X946750Y867598D02*
X1347199D01*
X947290Y867058D02*
X1347199D01*
X947830Y866518D02*
X1347199D01*
X948370Y865978D02*
X1347199D01*
X1164442Y865438D02*
X1347199D01*
X1165702Y864898D02*
X1347199D01*
X1166368Y864358D02*
X1347199D01*
X1166820Y863818D02*
X1347199D01*
X1167138Y863278D02*
X1347199D01*
X1199419Y862738D02*
X1347199D01*
X1201118Y862198D02*
X1347199D01*
X1202300Y861658D02*
X1347199D01*
X1203240Y861118D02*
X1347199D01*
X1204028Y860578D02*
X1347199D01*
X1204706Y860038D02*
X1347199D01*
X1205300Y859498D02*
X1347199D01*
X1205826Y858958D02*
X1347199D01*
X1206295Y858418D02*
X1347199D01*
X1206715Y857878D02*
X1347199D01*
X1207090Y857338D02*
X1347199D01*
X1207427Y856798D02*
X1347199D01*
X1207728Y856258D02*
X1347199D01*
X1207996Y855718D02*
X1347199D01*
X1208233Y855178D02*
X1347199D01*
X1208442Y854638D02*
X1347199D01*
X1208623Y854098D02*
X1347199D01*
X1208778Y853558D02*
X1347199D01*
X1208907Y853018D02*
X1347199D01*
X1209013Y852478D02*
X1347199D01*
X1209094Y851938D02*
X1347199D01*
X1209152Y851398D02*
X1347199D01*
X1209187Y850858D02*
X1347199D01*
X1209200Y850318D02*
X1347199D01*
X1209189Y849778D02*
X1347199D01*
X1209155Y849238D02*
X1347199D01*
X1209099Y848698D02*
X1347199D01*
X1209019Y848158D02*
X1347199D01*
X1208916Y847618D02*
X1347199D01*
X1208788Y847078D02*
X1347199D01*
X1208634Y846538D02*
X1347199D01*
X1208455Y845998D02*
X1347199D01*
X1208249Y845458D02*
X1347199D01*
X1208013Y844918D02*
X1347199D01*
X1207748Y844378D02*
X1347199D01*
X1207449Y843838D02*
X1347199D01*
X1207115Y843298D02*
X1347199D01*
X1206742Y842758D02*
X1347199D01*
X1206326Y842218D02*
X1347199D01*
X1205861Y841678D02*
X1347199D01*
X1205339Y841138D02*
X1347199D01*
X1204750Y840598D02*
X1347199D01*
X1204078Y840058D02*
X1347199D01*
X1203299Y839518D02*
X1347199D01*
X1202372Y838978D02*
X1347199D01*
X1201211Y838438D02*
X1347199D01*
X1199569Y837898D02*
X1347199D01*
X1167156Y837358D02*
X1347199D01*
X1166846Y836818D02*
X1347199D01*
X1328158Y836278D02*
X1347199D01*
X1330461Y835738D02*
X1347199D01*
X1331813Y835198D02*
X1347199D01*
X1332845Y834658D02*
X1347199D01*
X1333693Y834118D02*
X1347199D01*
X1334416Y833578D02*
X1347199D01*
X1335045Y833038D02*
X1347199D01*
X1335600Y832498D02*
X1347199D01*
X1336093Y831958D02*
X1347199D01*
X1336534Y831418D02*
X1347199D01*
X1336929Y830878D02*
X1347199D01*
X1337282Y830338D02*
X1347199D01*
X1337598Y829798D02*
X1347199D01*
X1337881Y829258D02*
X1347199D01*
X1338131Y828718D02*
X1347199D01*
X1338353Y828178D02*
X1347199D01*
X1338546Y827638D02*
X1347199D01*
X1338712Y827098D02*
X1347199D01*
X1338853Y826558D02*
X1347199D01*
X1338969Y826018D02*
X1347199D01*
X1339061Y825478D02*
X1347199D01*
X1339129Y824938D02*
X1347199D01*
X1339175Y824398D02*
X1347199D01*
X1339197Y823858D02*
X1347199D01*
X1339196Y823318D02*
X1347199D01*
X1339173Y822778D02*
X1347199D01*
X1339127Y822238D02*
X1347199D01*
X1339058Y821698D02*
X1347199D01*
X1338965Y821158D02*
X1347199D01*
X1338847Y820618D02*
X1347199D01*
X1338706Y820078D02*
X1347199D01*
X1338538Y819538D02*
X1347199D01*
X1338344Y818998D02*
X1347199D01*
X1338122Y818458D02*
X1347199D01*
X1337870Y817918D02*
X1347199D01*
X1337586Y817378D02*
X1347199D01*
X1337268Y816838D02*
X1347199D01*
X1336913Y816298D02*
X1347199D01*
X1336517Y815758D02*
X1347199D01*
X1336074Y815218D02*
X1347199D01*
X1335578Y814678D02*
X1347199D01*
X1335021Y814138D02*
X1347199D01*
X1334388Y813598D02*
X1347199D01*
X1333660Y813058D02*
X1347199D01*
X1332806Y812518D02*
X1347199D01*
X1331765Y811978D02*
X1347199D01*
X1330392Y811438D02*
X1347199D01*
X1327986Y810898D02*
X1347199D01*
X802800Y810358D02*
X1347199D01*
X802800Y809818D02*
X1347199D01*
X802800Y809278D02*
X1347199D01*
X802800Y808738D02*
X1347199D01*
X802800Y808198D02*
X1347199D01*
X802800Y807658D02*
X1347199D01*
X802800Y807118D02*
X1347199D01*
X802800Y806578D02*
X1347199D01*
X802800Y806038D02*
X1347199D01*
X802800Y805498D02*
X1347199D01*
X802800Y804958D02*
X1347199D01*
X802800Y804418D02*
X1347199D01*
X802800Y803878D02*
X1347199D01*
X802800Y803338D02*
X1347199D01*
X848050Y1015018D02*
X1327497D01*
X857110Y957238D02*
X1327391D01*
X848050Y1034998D02*
X1327357D01*
X866290Y948058D02*
X1327067D01*
X886270Y928078D02*
X1326987D01*
X802800Y1261258D02*
X1326983D01*
X888430Y925918D02*
X1326977D01*
X868450Y945898D02*
X1326903D01*
X1092740Y1046338D02*
X1326854D01*
X1091678Y1037158D02*
X1326716D01*
X935950Y878398D02*
X1326633D01*
X848050Y997198D02*
X1326602D01*
X926770Y887578D02*
X1326559D01*
X945130Y869218D02*
X1326549D01*
X937570Y876778D02*
X1326542D01*
X1318764Y1265578D02*
X1326515D01*
X848050Y1004758D02*
X1326491D01*
X1093050Y1044718D02*
X1326395D01*
X1083794Y1055518D02*
X1326380D01*
X876010Y938338D02*
X1326268D01*
X895990Y918358D02*
X1326226D01*
X878710Y935638D02*
X1326221D01*
X858730Y955618D02*
X1326181D01*
X848050Y966418D02*
X1326125D01*
X848050Y1027438D02*
X1326071D01*
X1313299Y1007458D02*
X1326034D01*
X848050Y1016638D02*
X1325995D01*
X802800Y1261798D02*
X1325952D01*
X848050Y1014478D02*
X1325926D01*
X848050Y1034458D02*
X1325892D01*
X848050Y1025278D02*
X1325824D01*
X865750Y948598D02*
X1325801D01*
X829495Y1265038D02*
X1325790D01*
X885730Y928618D02*
X1325770D01*
X888970Y925378D02*
X1325766D01*
X868990Y945358D02*
X1325736D01*
X856570Y957778D02*
X1325715D01*
X1092365Y1037698D02*
X1325653D01*
X848050Y997738D02*
X1325598D01*
X944590Y869758D02*
X1325571D01*
X938110Y876238D02*
X1325568D01*
X1022589Y1211038D02*
X1325560D01*
X848050Y1004218D02*
X1325541D01*
X1092402Y1046878D02*
X1325539D01*
X802800Y1262338D02*
X1325514D01*
X1093050Y1044178D02*
X1325490D01*
X935410Y878938D02*
X1325441D01*
X828311Y1264498D02*
X1325428D01*
X875470Y938878D02*
X1325419D01*
X927310Y887038D02*
X1325405D01*
X895450Y918898D02*
X1325395D01*
X879250Y935098D02*
X1325392D01*
X859270Y955078D02*
X1325368D01*
X1084334Y1054978D02*
X1325314D01*
X1315882Y1106818D02*
X1325306D01*
X848050Y1027978D02*
X1325302D01*
X802800Y1262878D02*
X1325285D01*
X1313245Y1007998D02*
X1325280D01*
X1267759Y1174318D02*
X1325275D01*
X826609Y1263958D02*
X1325246D01*
X848050Y1013938D02*
X1325213D01*
X802800Y1263418D02*
X1325201D01*
X848050Y1033918D02*
X1325192D01*
X848470Y965878D02*
X1325172D01*
X865210Y949138D02*
X1325133D01*
X885190Y929158D02*
X1325113D01*
X889510Y924838D02*
X1325111D01*
X1316086Y1118698D02*
X1325102D01*
X848050Y1017178D02*
X1325095D01*
X869530Y944818D02*
X1325091D01*
X1092790Y1038238D02*
X1325037D01*
X848050Y998278D02*
X1325000D01*
X1316197Y1126258D02*
X1324991D01*
X848050Y1024738D02*
X1324989D01*
X944050Y870298D02*
X1324982D01*
X938650Y875698D02*
X1324980D01*
X848050Y1003678D02*
X1324962D01*
X1093050Y1043638D02*
X1324927D01*
X856030Y958318D02*
X1324919D01*
X874930Y939418D02*
X1324879D01*
X894910Y919438D02*
X1324862D01*
X879790Y934558D02*
X1324860D01*
X859810Y954538D02*
X1324844D01*
X1316358Y1114378D02*
X1324830D01*
X825186Y810898D02*
X1324813D01*
X1091894Y1047418D02*
X1324803D01*
X848050Y1028518D02*
X1324799D01*
X1313052Y1008538D02*
X1324783D01*
X934870Y879478D02*
X1324737D01*
X848050Y1013398D02*
X1324736D01*
X848050Y1033378D02*
X1324722D01*
X927850Y886498D02*
X1324713D01*
X864670Y949678D02*
X1324681D01*
X884650Y929698D02*
X1324667D01*
X890050Y924298D02*
X1324665D01*
X870070Y944278D02*
X1324651D01*
X1084874Y1054438D02*
X1324651D01*
X1166405Y836278D02*
X1324641D01*
X1093065Y1038778D02*
X1324613D01*
X848050Y998818D02*
X1324587D01*
X943510Y870838D02*
X1324574D01*
X939190Y875158D02*
X1324573D01*
X843050Y1164058D02*
X1324564D01*
X848050Y1003138D02*
X1324560D01*
X849010Y965338D02*
X1324551D01*
X1093050Y1043098D02*
X1324536D01*
X874390Y939958D02*
X1324502D01*
X848050Y1017718D02*
X1324496D01*
X894370Y919978D02*
X1324490D01*
X880330Y934018D02*
X1324488D01*
X860350Y953998D02*
X1324477D01*
X848050Y1029058D02*
X1324445D01*
X825323Y1221298D02*
X1324438D01*
X1312672Y1009078D02*
X1324434D01*
X848050Y1024198D02*
X1324421D01*
X848050Y1012858D02*
X1324401D01*
X848050Y1032838D02*
X1324391D01*
X855490Y958858D02*
X1324370D01*
X864130Y950218D02*
X1324362D01*
X884110Y930238D02*
X1324353D01*
X890590Y923758D02*
X1324351D01*
X870610Y943738D02*
X1324342D01*
X1093228Y1039318D02*
X1324315D01*
X848050Y999358D02*
X1324297D01*
X942970Y871378D02*
X1324288D01*
X939730Y874618D02*
X1324287D01*
X1091354Y1047958D02*
X1324286D01*
X848050Y1002598D02*
X1324278D01*
X1093050Y1042558D02*
X1324261D01*
X873850Y940498D02*
X1324238D01*
X934330Y880018D02*
X1324238D01*
X893830Y920518D02*
X1324230D01*
X880870Y933478D02*
X1324229D01*
X860890Y953458D02*
X1324221D01*
X928390Y885958D02*
X1324220D01*
X848050Y1029598D02*
X1324200D01*
X1316993Y1107358D02*
X1324195D01*
X1311895Y1009618D02*
X1324192D01*
X1085414Y1053898D02*
X1324174D01*
X848050Y1012318D02*
X1324170D01*
X848050Y1032298D02*
X1324163D01*
X863590Y950758D02*
X1324144D01*
X883570Y930778D02*
X1324138D01*
X891130Y923218D02*
X1324137D01*
X871150Y943198D02*
X1324131D01*
X1093296Y1039858D02*
X1324114D01*
X848050Y999898D02*
X1324102D01*
X849550Y964798D02*
X1324100D01*
X1317090Y1119238D02*
X1324098D01*
X942430Y871918D02*
X1324096D01*
X940270Y874078D02*
X1324096D01*
X848050Y1002058D02*
X1324090D01*
X1093050Y1042018D02*
X1324080D01*
X873310Y941038D02*
X1324065D01*
X893290Y921058D02*
X1324060D01*
X881410Y932938D02*
X1324060D01*
X848050Y1018258D02*
X1324059D01*
X861430Y952918D02*
X1324055D01*
X848050Y1030138D02*
X1324042D01*
X1317147Y1125718D02*
X1324041D01*
X848050Y1010158D02*
X1324038D01*
X848050Y1011778D02*
X1324025D01*
X848050Y1031758D02*
X1324021D01*
X863050Y951298D02*
X1324011D01*
X883030Y931318D02*
X1324007D01*
X891670Y922678D02*
X1324007D01*
X871690Y942658D02*
X1324003D01*
X848050Y1023658D02*
X1324003D01*
X1093275Y1040398D02*
X1323994D01*
X848050Y1000438D02*
X1323989D01*
X941890Y872458D02*
X1323986D01*
X940810Y873538D02*
X1323985D01*
X848050Y1001518D02*
X1323983D01*
X1093050Y1041478D02*
X1323978D01*
X872770Y941578D02*
X1323971D01*
X892750Y921598D02*
X1323969D01*
X881950Y932398D02*
X1323969D01*
X861970Y952378D02*
X1323967D01*
X854950Y959398D02*
X1323965D01*
X848050Y1030678D02*
X1323962D01*
X848050Y1010698D02*
X1323961D01*
X848050Y1011238D02*
X1323957D01*
X848050Y1031218D02*
X1323955D01*
X1317234Y1113838D02*
X1323954D01*
X862510Y951838D02*
X1323953D01*
X882490Y931858D02*
X1323952D01*
X892210Y922138D02*
X1323952D01*
X872230Y942118D02*
X1323951D01*
X1093163Y1040938D02*
X1323950D01*
X848050Y1000978D02*
X1323950D01*
X941350Y872998D02*
X1323949D01*
X1090814Y1048498D02*
X1323903D01*
X933790Y880558D02*
X1323867D01*
X928930Y885418D02*
X1323853D01*
X1085954Y1053358D02*
X1323819D01*
X1022761Y1211578D02*
X1323791D01*
X850090Y964258D02*
X1323764D01*
X848050Y1018798D02*
X1323734D01*
X1267583Y1173778D02*
X1323710D01*
X848050Y1023118D02*
X1323692D01*
X854410Y959938D02*
X1323665D01*
X1090274Y1049038D02*
X1323618D01*
X933250Y881098D02*
X1323592D01*
X929470Y884878D02*
X1323582D01*
X1317624Y1107898D02*
X1323564D01*
X1086494Y1052818D02*
X1323557D01*
X850630Y963718D02*
X1323518D01*
X1317688Y1119778D02*
X1323500D01*
X848050Y1019338D02*
X1323496D01*
X848050Y1022578D02*
X1323467D01*
X1317726Y1125178D02*
X1323462D01*
X853870Y960478D02*
X1323447D01*
X1089734Y1049578D02*
X1323415D01*
X1317786Y1113298D02*
X1323402D01*
X843050Y1164598D02*
X1323402D01*
X932710Y881638D02*
X1323397D01*
X930010Y884338D02*
X1323390D01*
X1087034Y1052278D02*
X1323373D01*
X851170Y963178D02*
X1323346D01*
X826315Y1220758D02*
X1323334D01*
X848050Y1019878D02*
X1323332D01*
X848050Y1022038D02*
X1323313D01*
X853330Y961018D02*
X1323301D01*
X1089194Y1050118D02*
X1323281D01*
X932170Y882178D02*
X1323270D01*
X930550Y883798D02*
X1323266D01*
X1087574Y1051738D02*
X1323257D01*
X851710Y962638D02*
X1323242D01*
X848050Y1020418D02*
X1323235D01*
X848050Y1021498D02*
X1323225D01*
X852790Y961558D02*
X1323220D01*
X1088654Y1050658D02*
X1323212D01*
X931630Y882718D02*
X1323208D01*
X931090Y883258D02*
X1323206D01*
X1088114Y1051198D02*
X1323204D01*
X852250Y962098D02*
X1323200D01*
X848050Y1020958D02*
X1323200D01*
X1318056Y1108438D02*
X1323132D01*
X1318101Y1120318D02*
X1323087D01*
X1318128Y1124638D02*
X1323060D01*
X1318170Y1112758D02*
X1323018D01*
X1022796Y1212118D02*
X1322943D01*
X1267381Y1173238D02*
X1322889D01*
X1318360Y1108978D02*
X1322828D01*
X1318391Y1120858D02*
X1322797D01*
X1318410Y1124098D02*
X1322778D01*
X1318438Y1112218D02*
X1322749D01*
X843050Y1165138D02*
X1322678D01*
X826975Y1220218D02*
X1322631D01*
X1318566Y1109518D02*
X1322622D01*
X1318586Y1121398D02*
X1322602D01*
X1318598Y1123558D02*
X1322590D01*
X1318616Y1111678D02*
X1322572D01*
X1318689Y1110058D02*
X1322499D01*
X1318699Y1121938D02*
X1322489D01*
X1318705Y1123018D02*
X1322483D01*
X1318713Y1111138D02*
X1322475D01*
X1318737Y1110598D02*
X1322450D01*
X1318738Y1122478D02*
X1322450D01*
X827592Y811438D02*
X1322407D01*
X1022703Y1212658D02*
X1322348D01*
X1165759Y835738D02*
X1322338D01*
X1267150Y1172698D02*
X1322309D01*
X1258967Y1165678D02*
X1322152D01*
X827464Y1219678D02*
X1322116D01*
X1022462Y1213198D02*
X1321902D01*
X1266889Y1172158D02*
X1321871D01*
X1260504Y1166218D02*
X1321751D01*
X827837Y1219138D02*
X1321724D01*
X1022005Y1213738D02*
X1321559D01*
X1266595Y1171618D02*
X1321536D01*
X1261621Y1166758D02*
X1321445D01*
X828122Y1218598D02*
X1321424D01*
X1020812Y1214278D02*
X1321300D01*
X1266267Y1171078D02*
X1321283D01*
X1262523Y1167298D02*
X1321215D01*
X1300299Y1272598D02*
X1321205D01*
X828333Y1218058D02*
X1321200D01*
X1299777Y1276378D02*
X1321173D01*
X828358Y1214818D02*
X1321111D01*
X1265900Y1170538D02*
X1321098D01*
X1263283Y1167838D02*
X1321052D01*
X828480Y1217518D02*
X1321042D01*
X828965Y811978D02*
X1321034D01*
X1164587Y835198D02*
X1320986D01*
X828496Y1215358D02*
X1320984D01*
X1265490Y1169998D02*
X1320976D01*
X1263942Y1168378D02*
X1320949D01*
X828568Y1216978D02*
X1320943D01*
X828576Y1215898D02*
X1320915D01*
X1265033Y1169458D02*
X1320912D01*
X1264520Y1168918D02*
X1320903D01*
X828599Y1216438D02*
X1320901D01*
X1300457Y1273138D02*
X1320646D01*
X1300108Y1275838D02*
X1320629D01*
X1300537Y1273678D02*
X1320351D01*
X1300336Y1275298D02*
X1320343D01*
X1300544Y1274218D02*
X1320217D01*
X1300478Y1274758D02*
X1320214D01*
X830006Y812518D02*
X1319993D01*
X830045Y834658D02*
X1319954D01*
X830860Y813058D02*
X1319139D01*
X830893Y834118D02*
X1319106D01*
X831588Y813598D02*
X1318411D01*
X831616Y833578D02*
X1318383D01*
X832221Y814138D02*
X1317778D01*
X832245Y833038D02*
X1317754D01*
X1268262Y1177018D02*
X1317343D01*
X832778Y814678D02*
X1317221D01*
X835101Y1208338D02*
X1317208D01*
X832800Y832498D02*
X1317199D01*
X1262212Y1188898D02*
X1317102D01*
X835173Y1196458D02*
X1316991D01*
X835024Y1200778D02*
X1316901D01*
X1266480Y1184578D02*
X1316805D01*
X833274Y815218D02*
X1316725D01*
X833293Y831958D02*
X1316706D01*
X833717Y815758D02*
X1316282D01*
X833734Y831418D02*
X1316265D01*
X830436Y1265578D02*
X1316235D01*
X1268292Y1177558D02*
X1316211D01*
X835535Y1207798D02*
X1316150D01*
X1007724Y1269358D02*
X1316145D01*
X1261244Y1189438D02*
X1316098D01*
X835590Y1195918D02*
X1316041D01*
X835476Y1201318D02*
X1315993D01*
X1266786Y1184038D02*
X1315940D01*
X834113Y816298D02*
X1315886D01*
X834129Y830878D02*
X1315870D01*
X831224Y1266118D02*
X1315660D01*
X833913Y1268818D02*
X1315615D01*
X1268299Y1178098D02*
X1315575D01*
X835871Y1207258D02*
X1315534D01*
X834468Y816838D02*
X1315531D01*
X834482Y830338D02*
X1315517D01*
X1260011Y1189978D02*
X1315500D01*
X835914Y1195378D02*
X1315462D01*
X835825Y1201858D02*
X1315429D01*
X1267058Y1183498D02*
X1315393D01*
X831903Y1266658D02*
X1315359D01*
X833493Y1268278D02*
X1315335D01*
X832498Y1267198D02*
X1315219D01*
X834786Y817378D02*
X1315213D01*
X833024Y1267738D02*
X1315212D01*
X834798Y829798D02*
X1315201D01*
X1268284Y1178638D02*
X1315140D01*
X836129Y1206718D02*
X1315111D01*
X1258168Y1190518D02*
X1315087D01*
X836162Y1194838D02*
X1315060D01*
X836094Y1202398D02*
X1315037D01*
X1267300Y1182958D02*
X1315012D01*
X835070Y817918D02*
X1314929D01*
X835081Y829258D02*
X1314918D01*
X1268245Y1179178D02*
X1314833D01*
X836320Y1206178D02*
X1314814D01*
X837054Y1191058D02*
X1314797D01*
X836343Y1194298D02*
X1314778D01*
X836295Y1202938D02*
X1314763D01*
X1267513Y1182418D02*
X1314745D01*
X835322Y818458D02*
X1314677D01*
X835331Y828718D02*
X1314668D01*
X1268184Y1179718D02*
X1314626D01*
X836451Y1205638D02*
X1314613D01*
X836514Y1191598D02*
X1314602D01*
X836466Y1193758D02*
X1314590D01*
X836435Y1203478D02*
X1314580D01*
X1267698Y1181878D02*
X1314570D01*
X1268099Y1180258D02*
X1314501D01*
X836527Y1205098D02*
X1314494D01*
X836510Y1192138D02*
X1314489D01*
X836534Y1193218D02*
X1314483D01*
X836519Y1204018D02*
X1314478D01*
X1267856Y1181338D02*
X1314473D01*
X835544Y818998D02*
X1314455D01*
X1267990Y1180798D02*
X1314451D01*
X836549Y1204558D02*
X1314450D01*
X836548Y1192678D02*
X1314450D01*
X835553Y828178D02*
X1314446D01*
X835738Y819538D02*
X1314261D01*
X835746Y827638D02*
X1314253D01*
X835906Y820078D02*
X1314093D01*
X835912Y827098D02*
X1314087D01*
X836047Y820618D02*
X1313952D01*
X836053Y826558D02*
X1313946D01*
X836165Y821158D02*
X1313834D01*
X836169Y826018D02*
X1313830D01*
X836258Y821698D02*
X1313741D01*
X836261Y825478D02*
X1313738D01*
X836327Y822238D02*
X1313672D01*
X836329Y824938D02*
X1313670D01*
X836373Y822778D02*
X1313626D01*
X836375Y824398D02*
X1313624D01*
X836396Y823318D02*
X1313603D01*
X836397Y823858D02*
X1313602D01*
X889994Y1106818D02*
X1313495D01*
X878114Y1118698D02*
X1313291D01*
X870554Y1126258D02*
X1313180D01*
X882434Y1114378D02*
X1313019D01*
X889454Y1107358D02*
X1312384D01*
X877574Y1119238D02*
X1312287D01*
X871094Y1125718D02*
X1312230D01*
X882974Y1113838D02*
X1312143D01*
X888914Y1107898D02*
X1311753D01*
X877034Y1119778D02*
X1311689D01*
X871634Y1125178D02*
X1311651D01*
X883514Y1113298D02*
X1311591D01*
X888374Y1108438D02*
X1311321D01*
X876494Y1120318D02*
X1311276D01*
X872174Y1124638D02*
X1311249D01*
X884054Y1112758D02*
X1311207D01*
X887834Y1108978D02*
X1311017D01*
X875954Y1120858D02*
X1310986D01*
X872714Y1124098D02*
X1310967D01*
X884594Y1112218D02*
X1310938D01*
X887294Y1109518D02*
X1310811D01*
X875414Y1121398D02*
X1310791D01*
X873254Y1123558D02*
X1310779D01*
X885134Y1111678D02*
X1310761D01*
X886754Y1110058D02*
X1310688D01*
X874874Y1121938D02*
X1310678D01*
X873794Y1123018D02*
X1310672D01*
X885674Y1111138D02*
X1310664D01*
X886214Y1110598D02*
X1310639D01*
X874334Y1122478D02*
X1310639D01*
X866774Y1130038D02*
X1310500D01*
X1304666Y1005298D02*
X1310333D01*
X1304729Y985318D02*
X1310270D01*
X1304846Y989638D02*
X1310153D01*
X1304895Y1009618D02*
X1310104D01*
X893774Y1103038D02*
X1309902D01*
X1305590Y1005838D02*
X1309409D01*
X1305611Y985858D02*
X1309388D01*
X1305653Y989098D02*
X1309346D01*
X1305672Y1009078D02*
X1309327D01*
X901874Y1094938D02*
X1309264D01*
X858674Y1138138D02*
X1309028D01*
X1306008Y1006378D02*
X1308991D01*
X1306019Y986398D02*
X1308980D01*
X1306041Y988558D02*
X1308958D01*
X1306052Y1008538D02*
X1308947D01*
X866234Y1130578D02*
X1308852D01*
X1306225Y1006918D02*
X1308774D01*
X1306230Y986938D02*
X1308769D01*
X1306240Y988018D02*
X1308759D01*
X1306245Y1007998D02*
X1308754D01*
X1306299Y1007458D02*
X1308700D01*
X1306299Y987478D02*
X1308700D01*
X894314Y1102498D02*
X1308668D01*
X901334Y1095478D02*
X1308354D01*
X859214Y1137598D02*
X1308216D01*
X865694Y1131118D02*
X1308107D01*
X894854Y1101958D02*
X1307988D01*
X900794Y1096018D02*
X1307776D01*
X859754Y1137058D02*
X1307680D01*
X865154Y1131658D02*
X1307603D01*
X895394Y1101418D02*
X1307519D01*
X900254Y1096558D02*
X1307367D01*
X860294Y1136518D02*
X1307298D01*
X864614Y1132198D02*
X1307242D01*
X895934Y1100878D02*
X1307181D01*
X899714Y1097098D02*
X1307073D01*
X860834Y1135978D02*
X1307024D01*
X864074Y1132738D02*
X1306985D01*
X896474Y1100338D02*
X1306943D01*
X899174Y1097638D02*
X1306870D01*
X861374Y1135438D02*
X1306838D01*
X863534Y1133278D02*
X1306813D01*
X897014Y1099798D02*
X1306787D01*
X898634Y1098178D02*
X1306745D01*
X861914Y1134898D02*
X1306728D01*
X862994Y1133818D02*
X1306716D01*
X897554Y1099258D02*
X1306705D01*
X898094Y1098718D02*
X1306691D01*
X862454Y1134358D02*
X1306688D01*
X848050Y1005298D02*
X1303333D01*
X848050Y985318D02*
X1303270D01*
X848050Y989638D02*
X1303153D01*
X848050Y1009618D02*
X1303104D01*
X848050Y1005838D02*
X1302409D01*
X848050Y985858D02*
X1302388D01*
X848050Y989098D02*
X1302346D01*
X848050Y1009078D02*
X1302327D01*
X848050Y1006378D02*
X1301991D01*
X848050Y986398D02*
X1301980D01*
X848050Y988558D02*
X1301958D01*
X848050Y1008538D02*
X1301947D01*
X848050Y1006918D02*
X1301774D01*
X848050Y986938D02*
X1301769D01*
X848050Y988018D02*
X1301759D01*
X848050Y1007998D02*
X1301754D01*
X848050Y1007458D02*
X1301700D01*
X848050Y987478D02*
X1301700D01*
X1287142Y1277998D02*
X1295857D01*
X1288428Y1270438D02*
X1294571D01*
X1288607Y1277458D02*
X1294392D01*
X1289197Y1270978D02*
X1293802D01*
X1289307Y1276918D02*
X1293692D01*
X1289700Y1271518D02*
X1293299D01*
X1289777Y1276378D02*
X1293222D01*
X1290054Y1272058D02*
X1292945D01*
X1290108Y1275838D02*
X1292891D01*
X1290299Y1272598D02*
X1292700D01*
X1290336Y1275298D02*
X1292663D01*
X1290457Y1273138D02*
X1292542D01*
X1290478Y1274758D02*
X1292521D01*
X1290537Y1273678D02*
X1292462D01*
X1290544Y1274218D02*
X1292455D01*
X1277142Y1277998D02*
X1285857D01*
X1278428Y1270438D02*
X1284571D01*
X1278607Y1277458D02*
X1284392D01*
X1279197Y1270978D02*
X1283802D01*
X1279307Y1276918D02*
X1283692D01*
X1279700Y1271518D02*
X1283299D01*
X1279777Y1276378D02*
X1283222D01*
X1280054Y1272058D02*
X1282945D01*
X1280108Y1275838D02*
X1282891D01*
X1280299Y1272598D02*
X1282700D01*
X1280336Y1275298D02*
X1282663D01*
X1280457Y1273138D02*
X1282542D01*
X1280478Y1274758D02*
X1282521D01*
X1280537Y1273678D02*
X1282462D01*
X1280544Y1274218D02*
X1282455D01*
X1267142Y1277998D02*
X1275857D01*
X1268428Y1270438D02*
X1274571D01*
X1268607Y1277458D02*
X1274392D01*
X1269197Y1270978D02*
X1273802D01*
X1269307Y1276918D02*
X1273692D01*
X1269700Y1271518D02*
X1273299D01*
X1269777Y1276378D02*
X1273222D01*
X1270054Y1272058D02*
X1272945D01*
X1270108Y1275838D02*
X1272891D01*
X1270299Y1272598D02*
X1272700D01*
X1270336Y1275298D02*
X1272663D01*
X1270457Y1273138D02*
X1272542D01*
X1270478Y1274758D02*
X1272521D01*
X1270537Y1273678D02*
X1272462D01*
X1270544Y1274218D02*
X1272455D01*
X1202642Y1277998D02*
X1265857D01*
X1203928Y1270438D02*
X1264571D01*
X1204107Y1277458D02*
X1264392D01*
X1204697Y1270978D02*
X1263802D01*
X1204807Y1276918D02*
X1263692D01*
X1205200Y1271518D02*
X1263299D01*
X1205277Y1276378D02*
X1263222D01*
X1205554Y1272058D02*
X1262945D01*
X1205608Y1275838D02*
X1262891D01*
X1205799Y1272598D02*
X1262700D01*
X1205836Y1275298D02*
X1262663D01*
X1205957Y1273138D02*
X1262542D01*
X1205978Y1274758D02*
X1262521D01*
X1206037Y1273678D02*
X1262462D01*
X1206044Y1274218D02*
X1262455D01*
X837594Y1190518D02*
X1252831D01*
X843050Y1165678D02*
X1252032D01*
X838134Y1189978D02*
X1250988D01*
X843050Y1166218D02*
X1250495D01*
X838674Y1189438D02*
X1249755D01*
X843050Y1166758D02*
X1249378D01*
X839214Y1188898D02*
X1248787D01*
X843050Y1167298D02*
X1248476D01*
X1240897Y1226698D02*
X1248102D01*
X1241008Y1234258D02*
X1247991D01*
X839754Y1188358D02*
X1247980D01*
X843050Y1167838D02*
X1247716D01*
X840294Y1187818D02*
X1247288D01*
X1241901Y1227238D02*
X1247098D01*
X843050Y1168378D02*
X1247057D01*
X1241958Y1233718D02*
X1247041D01*
X840834Y1187278D02*
X1246682D01*
X1242499Y1227778D02*
X1246500D01*
X843050Y1168918D02*
X1246479D01*
X1242537Y1233178D02*
X1246462D01*
X841374Y1186738D02*
X1246147D01*
X1242912Y1228318D02*
X1246087D01*
X1242939Y1232638D02*
X1246060D01*
X843050Y1169458D02*
X1245966D01*
X1243202Y1228858D02*
X1245797D01*
X1243221Y1232098D02*
X1245778D01*
X841914Y1186198D02*
X1245670D01*
X1243397Y1229398D02*
X1245602D01*
X1243409Y1231558D02*
X1245590D01*
X843050Y1169998D02*
X1245509D01*
X1243510Y1229938D02*
X1245489D01*
X1243516Y1231018D02*
X1245483D01*
X1243549Y1230478D02*
X1245450D01*
X842418Y1185658D02*
X1245244D01*
X843050Y1170538D02*
X1245099D01*
X842750Y1185118D02*
X1244862D01*
X843050Y1171078D02*
X1244732D01*
X842948Y1184578D02*
X1244519D01*
X843050Y1171618D02*
X1244404D01*
X843040Y1184038D02*
X1244213D01*
X843050Y1172158D02*
X1244110D01*
X843050Y1183498D02*
X1243941D01*
X843050Y1172698D02*
X1243849D01*
X843050Y1182958D02*
X1243699D01*
X843050Y1173238D02*
X1243618D01*
X843050Y1182418D02*
X1243486D01*
X843050Y1173778D02*
X1243416D01*
X843050Y1181878D02*
X1243301D01*
X843050Y1174318D02*
X1243240D01*
X843050Y1181338D02*
X1243143D01*
X843050Y1174858D02*
X1243091D01*
X843050Y1180798D02*
X1243009D01*
X843050Y1175398D02*
X1242967D01*
X843050Y1180258D02*
X1242900D01*
X843050Y1175938D02*
X1242867D01*
X843050Y1179718D02*
X1242815D01*
X843050Y1176478D02*
X1242790D01*
X843050Y1179178D02*
X1242754D01*
X843050Y1177018D02*
X1242737D01*
X843050Y1178638D02*
X1242715D01*
X843050Y1177558D02*
X1242707D01*
X843050Y1178098D02*
X1242700D01*
X1230897Y1226698D02*
X1238102D01*
X1231008Y1234258D02*
X1237991D01*
X1231901Y1227238D02*
X1237098D01*
X1231958Y1233718D02*
X1237041D01*
X1232499Y1227778D02*
X1236500D01*
X1232537Y1233178D02*
X1236462D01*
X1232912Y1228318D02*
X1236087D01*
X1232939Y1232638D02*
X1236060D01*
X1233202Y1228858D02*
X1235797D01*
X1233221Y1232098D02*
X1235778D01*
X1233397Y1229398D02*
X1235602D01*
X1233409Y1231558D02*
X1235590D01*
X1233510Y1229938D02*
X1235489D01*
X1233516Y1231018D02*
X1235483D01*
X1233549Y1230478D02*
X1235450D01*
X1220897Y1226698D02*
X1228102D01*
X1221008Y1234258D02*
X1227991D01*
X1221901Y1227238D02*
X1227098D01*
X1221958Y1233718D02*
X1227041D01*
X1222499Y1227778D02*
X1226500D01*
X1222537Y1233178D02*
X1226462D01*
X1222912Y1228318D02*
X1226087D01*
X1222939Y1232638D02*
X1226060D01*
X1223202Y1228858D02*
X1225797D01*
X1223221Y1232098D02*
X1225778D01*
X1223397Y1229398D02*
X1225602D01*
X1223409Y1231558D02*
X1225590D01*
X1223510Y1229938D02*
X1225489D01*
X1223516Y1231018D02*
X1225483D01*
X1223549Y1230478D02*
X1225450D01*
X1156397Y1226698D02*
X1218102D01*
X1156508Y1234258D02*
X1217991D01*
X1157401Y1227238D02*
X1217098D01*
X1157458Y1233718D02*
X1217041D01*
X1157999Y1227778D02*
X1216500D01*
X1158037Y1233178D02*
X1216462D01*
X1158412Y1228318D02*
X1216087D01*
X1158439Y1232638D02*
X1216060D01*
X1158702Y1228858D02*
X1215797D01*
X1158721Y1232098D02*
X1215778D01*
X1158897Y1229398D02*
X1215602D01*
X1158909Y1231558D02*
X1215590D01*
X1159010Y1229938D02*
X1215489D01*
X1159016Y1231018D02*
X1215483D01*
X1159049Y1230478D02*
X1215450D01*
X1192642Y1277998D02*
X1201357D01*
X1193928Y1270438D02*
X1200071D01*
X1194107Y1277458D02*
X1199892D01*
X1194697Y1270978D02*
X1199302D01*
X1194807Y1276918D02*
X1199192D01*
X1195200Y1271518D02*
X1198799D01*
X1195277Y1276378D02*
X1198722D01*
X1195554Y1272058D02*
X1198445D01*
X1195608Y1275838D02*
X1198391D01*
X1195799Y1272598D02*
X1198200D01*
X1195836Y1275298D02*
X1198163D01*
X1195957Y1273138D02*
X1198042D01*
X1195978Y1274758D02*
X1198021D01*
X1196037Y1273678D02*
X1197962D01*
X1196044Y1274218D02*
X1197955D01*
X1167355Y862738D02*
X1193380D01*
X1167367Y837898D02*
X1193230D01*
X1167489Y862198D02*
X1191681D01*
X1167495Y838438D02*
X1191588D01*
X1182642Y1277998D02*
X1191357D01*
X1167546Y861658D02*
X1190499D01*
X1167548Y838978D02*
X1190427D01*
X1183928Y1270438D02*
X1190071D01*
X1184107Y1277458D02*
X1189892D01*
X1167532Y861118D02*
X1189559D01*
X1167528Y839518D02*
X1189500D01*
X1184697Y1270978D02*
X1189302D01*
X1184807Y1276918D02*
X1189192D01*
X1185200Y1271518D02*
X1188799D01*
X1167443Y860578D02*
X1188771D01*
X1185277Y1276378D02*
X1188722D01*
X1167434Y840058D02*
X1188721D01*
X1185554Y1272058D02*
X1188445D01*
X1185608Y1275838D02*
X1188391D01*
X1185799Y1272598D02*
X1188200D01*
X1185836Y1275298D02*
X1188163D01*
X1167277Y860038D02*
X1188093D01*
X1167262Y840598D02*
X1188049D01*
X1185957Y1273138D02*
X1188042D01*
X1185978Y1274758D02*
X1188021D01*
X1186037Y1273678D02*
X1187962D01*
X1186044Y1274218D02*
X1187955D01*
X1167021Y859498D02*
X1187499D01*
X1166999Y841138D02*
X1187460D01*
X1166653Y858958D02*
X1186973D01*
X1166622Y841678D02*
X1186938D01*
X1166128Y858418D02*
X1186504D01*
X1166083Y842218D02*
X1186473D01*
X1165313Y857878D02*
X1186084D01*
X1165236Y842758D02*
X1186057D01*
X1153683Y857338D02*
X1185709D01*
X1153527Y843298D02*
X1185684D01*
X968938Y856798D02*
X1185372D01*
X968957Y843838D02*
X1185350D01*
X969199Y856258D02*
X1185071D01*
X969216Y844378D02*
X1185051D01*
X969433Y855718D02*
X1184803D01*
X969448Y844918D02*
X1184786D01*
X969642Y855178D02*
X1184566D01*
X969655Y845458D02*
X1184550D01*
X969825Y854638D02*
X1184357D01*
X969837Y845998D02*
X1184344D01*
X1160014Y854098D02*
X1184176D01*
X1160083Y846538D02*
X1184165D01*
X1160805Y853558D02*
X1184021D01*
X1160848Y847078D02*
X1184011D01*
X1161331Y853018D02*
X1183892D01*
X1161361Y847618D02*
X1183883D01*
X1161707Y852478D02*
X1183786D01*
X1161728Y848158D02*
X1183780D01*
X1161975Y851938D02*
X1183705D01*
X1161990Y848698D02*
X1183700D01*
X1162157Y851398D02*
X1183647D01*
X1162166Y849238D02*
X1183644D01*
X1162263Y850858D02*
X1183612D01*
X1162268Y849778D02*
X1183610D01*
X1162299Y850318D02*
X1183599D01*
X1172642Y1277998D02*
X1181357D01*
X1173928Y1270438D02*
X1180071D01*
X1174107Y1277458D02*
X1179892D01*
X1174697Y1270978D02*
X1179302D01*
X1174807Y1276918D02*
X1179192D01*
X1175200Y1271518D02*
X1178799D01*
X1175277Y1276378D02*
X1178722D01*
X1175554Y1272058D02*
X1178445D01*
X1175608Y1275838D02*
X1178391D01*
X1175799Y1272598D02*
X1178200D01*
X1175836Y1275298D02*
X1178163D01*
X1175957Y1273138D02*
X1178042D01*
X1175978Y1274758D02*
X1178021D01*
X1176037Y1273678D02*
X1177962D01*
X1176044Y1274218D02*
X1177955D01*
X1108142Y1277998D02*
X1171357D01*
X1109428Y1270438D02*
X1170071D01*
X1109607Y1277458D02*
X1169892D01*
X1110197Y1270978D02*
X1169302D01*
X1110307Y1276918D02*
X1169192D01*
X1110700Y1271518D02*
X1168799D01*
X1110777Y1276378D02*
X1168722D01*
X1111054Y1272058D02*
X1168445D01*
X1111108Y1275838D02*
X1168391D01*
X1111299Y1272598D02*
X1168200D01*
X1111336Y1275298D02*
X1168163D01*
X1111457Y1273138D02*
X1168042D01*
X1111478Y1274758D02*
X1168021D01*
X1111537Y1273678D02*
X1167962D01*
X1111544Y1274218D02*
X1167955D01*
X1154325Y865438D02*
X1162557D01*
X1154408Y835198D02*
X1162412D01*
X1154859Y842758D02*
X1161763D01*
X1154918Y857878D02*
X1161686D01*
X1155234Y864898D02*
X1161297D01*
X1155281Y835738D02*
X1161240D01*
X1155560Y842218D02*
X1160916D01*
X1155599Y858418D02*
X1160871D01*
X1155812Y864358D02*
X1160631D01*
X1155845Y836278D02*
X1160594D01*
X1156040Y841678D02*
X1160377D01*
X1156068Y858958D02*
X1160346D01*
X1156221Y863818D02*
X1160179D01*
X1156244Y836818D02*
X1160153D01*
X1156386Y841138D02*
X1160000D01*
X1156405Y859498D02*
X1159978D01*
X1156514Y863278D02*
X1159861D01*
X1156531Y837358D02*
X1159843D01*
X1156630Y840598D02*
X1159737D01*
X1156644Y860038D02*
X1159722D01*
X1156717Y862738D02*
X1159644D01*
X1156728Y837898D02*
X1159632D01*
X1156791Y840058D02*
X1159565D01*
X1156800Y860578D02*
X1159556D01*
X1156842Y862198D02*
X1159510D01*
X1156848Y838438D02*
X1159504D01*
X1156879Y839518D02*
X1159471D01*
X1156883Y861118D02*
X1159467D01*
X1156897Y861658D02*
X1159453D01*
X1156898Y838978D02*
X1159451D01*
X1148504Y854098D02*
X1155985D01*
X1148601Y846538D02*
X1155916D01*
X1149504Y853558D02*
X1155194D01*
X1149554Y847078D02*
X1155151D01*
X1150101Y853018D02*
X1154668D01*
X1150135Y847618D02*
X1154638D01*
X1150514Y852478D02*
X1154292D01*
X1150537Y848158D02*
X1154271D01*
X1150803Y851938D02*
X1154024D01*
X1150820Y848698D02*
X1154009D01*
X1150998Y851398D02*
X1153842D01*
X1151008Y849238D02*
X1153833D01*
X1151111Y850858D02*
X1153736D01*
X1151116Y849778D02*
X1153731D01*
X1151149Y850318D02*
X1153700D01*
X1146397Y1226698D02*
X1153602D01*
X1146508Y1234258D02*
X1153491D01*
X1147401Y1227238D02*
X1152598D01*
X1147458Y1233718D02*
X1152541D01*
X1147999Y1227778D02*
X1152000D01*
X1148037Y1233178D02*
X1151962D01*
X1131727Y843298D02*
X1151672D01*
X1148412Y1228318D02*
X1151587D01*
X1148439Y1232638D02*
X1151560D01*
X1131883Y857338D02*
X1151516D01*
X1148702Y1228858D02*
X1151297D01*
X1148721Y1232098D02*
X1151278D01*
X1148897Y1229398D02*
X1151102D01*
X1148909Y1231558D02*
X1151090D01*
X1149010Y1229938D02*
X1150989D01*
X1149016Y1231018D02*
X1150983D01*
X1149049Y1230478D02*
X1150950D01*
X1142642Y865438D02*
X1150874D01*
X1142787Y835198D02*
X1150791D01*
X1143436Y842758D02*
X1150340D01*
X1143513Y857878D02*
X1150281D01*
X1143902Y864898D02*
X1149965D01*
X1143959Y835738D02*
X1149918D01*
X1144283Y842218D02*
X1149639D01*
X1144328Y858418D02*
X1149600D01*
X1144568Y864358D02*
X1149387D01*
X1144605Y836278D02*
X1149354D01*
X1144822Y841678D02*
X1149159D01*
X1144853Y858958D02*
X1149131D01*
X1145020Y863818D02*
X1148978D01*
X1145046Y836818D02*
X1148955D01*
X1145199Y841138D02*
X1148813D01*
X1145221Y859498D02*
X1148794D01*
X1145338Y863278D02*
X1148685D01*
X1145356Y837358D02*
X1148668D01*
X1145462Y840598D02*
X1148569D01*
X1145477Y860038D02*
X1148555D01*
X1145555Y862738D02*
X1148482D01*
X1145567Y837898D02*
X1148471D01*
X1145634Y840058D02*
X1148408D01*
X1145643Y860578D02*
X1148399D01*
X1145689Y862198D02*
X1148357D01*
X1145695Y838438D02*
X1148351D01*
X1145728Y839518D02*
X1148320D01*
X1145732Y861118D02*
X1148316D01*
X1145746Y861658D02*
X1148302D01*
X1145748Y838978D02*
X1148301D01*
X1138214Y854098D02*
X1145695D01*
X1138283Y846538D02*
X1145598D01*
X1139005Y853558D02*
X1144695D01*
X1139048Y847078D02*
X1144645D01*
X1139531Y853018D02*
X1144098D01*
X1139561Y847618D02*
X1144064D01*
X1139907Y852478D02*
X1143685D01*
X1139928Y848158D02*
X1143662D01*
X1136397Y1226698D02*
X1143602D01*
X1136508Y1234258D02*
X1143491D01*
X1140175Y851938D02*
X1143396D01*
X1140190Y848698D02*
X1143379D01*
X1140357Y851398D02*
X1143201D01*
X1140366Y849238D02*
X1143191D01*
X1140463Y850858D02*
X1143088D01*
X1140468Y849778D02*
X1143083D01*
X1140499Y850318D02*
X1143050D01*
X1137401Y1227238D02*
X1142598D01*
X1137458Y1233718D02*
X1142541D01*
X1137999Y1227778D02*
X1142000D01*
X1138037Y1233178D02*
X1141962D01*
X1138412Y1228318D02*
X1141587D01*
X1138439Y1232638D02*
X1141560D01*
X1138702Y1228858D02*
X1141297D01*
X1138721Y1232098D02*
X1141278D01*
X1138897Y1229398D02*
X1141102D01*
X1138909Y1231558D02*
X1141090D01*
X1139010Y1229938D02*
X1140989D01*
X1139016Y1231018D02*
X1140983D01*
X1139049Y1230478D02*
X1140950D01*
X1132525Y865438D02*
X1140757D01*
X1132608Y835198D02*
X1140612D01*
X1133059Y842758D02*
X1139963D01*
X1133118Y857878D02*
X1139886D01*
X1133434Y864898D02*
X1139497D01*
X1133481Y835738D02*
X1139440D01*
X1133760Y842218D02*
X1139116D01*
X1133799Y858418D02*
X1139071D01*
X1134012Y864358D02*
X1138831D01*
X1134045Y836278D02*
X1138794D01*
X1134240Y841678D02*
X1138577D01*
X1134268Y858958D02*
X1138546D01*
X1134421Y863818D02*
X1138379D01*
X1134444Y836818D02*
X1138353D01*
X1134586Y841138D02*
X1138200D01*
X1134605Y859498D02*
X1138178D01*
X1134714Y863278D02*
X1138061D01*
X1134731Y837358D02*
X1138043D01*
X1134830Y840598D02*
X1137937D01*
X1134844Y860038D02*
X1137922D01*
X1134917Y862738D02*
X1137844D01*
X1134928Y837898D02*
X1137832D01*
X1134991Y840058D02*
X1137765D01*
X1135000Y860578D02*
X1137756D01*
X1135042Y862198D02*
X1137710D01*
X1135048Y838438D02*
X1137704D01*
X1135079Y839518D02*
X1137671D01*
X1135083Y861118D02*
X1137667D01*
X1135097Y861658D02*
X1137653D01*
X1135098Y838978D02*
X1137651D01*
X1126704Y854098D02*
X1134185D01*
X1126801Y846538D02*
X1134116D01*
X1126397Y1226698D02*
X1133602D01*
X1126508Y1234258D02*
X1133491D01*
X1127704Y853558D02*
X1133394D01*
X1127754Y847078D02*
X1133351D01*
X1128301Y853018D02*
X1132868D01*
X1128335Y847618D02*
X1132838D01*
X1127401Y1227238D02*
X1132598D01*
X1127458Y1233718D02*
X1132541D01*
X1128714Y852478D02*
X1132492D01*
X1128737Y848158D02*
X1132471D01*
X1129003Y851938D02*
X1132224D01*
X1129020Y848698D02*
X1132209D01*
X1129198Y851398D02*
X1132042D01*
X1129208Y849238D02*
X1132033D01*
X1127999Y1227778D02*
X1132000D01*
X1128037Y1233178D02*
X1131962D01*
X1129311Y850858D02*
X1131936D01*
X1129316Y849778D02*
X1131931D01*
X1129349Y850318D02*
X1131900D01*
X1128412Y1228318D02*
X1131587D01*
X1128439Y1232638D02*
X1131560D01*
X1128702Y1228858D02*
X1131297D01*
X1128721Y1232098D02*
X1131278D01*
X1128897Y1229398D02*
X1131102D01*
X1128909Y1231558D02*
X1131090D01*
X1129010Y1229938D02*
X1130989D01*
X1129016Y1231018D02*
X1130983D01*
X1129049Y1230478D02*
X1130950D01*
X1099027Y843298D02*
X1129872D01*
X1110083Y857338D02*
X1129716D01*
X1120842Y865438D02*
X1129074D01*
X1120987Y835198D02*
X1128991D01*
X1121636Y842758D02*
X1128540D01*
X1121713Y857878D02*
X1128481D01*
X1122102Y864898D02*
X1128165D01*
X1122159Y835738D02*
X1128118D01*
X1122483Y842218D02*
X1127839D01*
X1122528Y858418D02*
X1127800D01*
X1122768Y864358D02*
X1127587D01*
X1122805Y836278D02*
X1127554D01*
X1123022Y841678D02*
X1127359D01*
X1123053Y858958D02*
X1127331D01*
X1123220Y863818D02*
X1127178D01*
X1123246Y836818D02*
X1127155D01*
X1123399Y841138D02*
X1127013D01*
X1123421Y859498D02*
X1126994D01*
X1123538Y863278D02*
X1126885D01*
X1123556Y837358D02*
X1126868D01*
X1123662Y840598D02*
X1126769D01*
X1123677Y860038D02*
X1126755D01*
X1123755Y862738D02*
X1126682D01*
X1123767Y837898D02*
X1126671D01*
X1123834Y840058D02*
X1126608D01*
X1123843Y860578D02*
X1126599D01*
X1123889Y862198D02*
X1126557D01*
X1123895Y838438D02*
X1126551D01*
X1123928Y839518D02*
X1126520D01*
X1123932Y861118D02*
X1126516D01*
X1123946Y861658D02*
X1126502D01*
X1123948Y838978D02*
X1126501D01*
X1115804Y854098D02*
X1123895D01*
X1115901Y846538D02*
X1123798D01*
X992897Y1226698D02*
X1123602D01*
X993008Y1234258D02*
X1123491D01*
X1116804Y853558D02*
X1122895D01*
X1116854Y847078D02*
X1122845D01*
X993901Y1227238D02*
X1122598D01*
X993958Y1233718D02*
X1122541D01*
X1117401Y853018D02*
X1122298D01*
X1117435Y847618D02*
X1122264D01*
X994499Y1227778D02*
X1122000D01*
X994537Y1233178D02*
X1121962D01*
X1117814Y852478D02*
X1121885D01*
X1117837Y848158D02*
X1121862D01*
X1118103Y851938D02*
X1121596D01*
X994912Y1228318D02*
X1121587D01*
X1118120Y848698D02*
X1121579D01*
X994939Y1232638D02*
X1121560D01*
X1118298Y851398D02*
X1121401D01*
X1118308Y849238D02*
X1121391D01*
X995202Y1228858D02*
X1121297D01*
X1118411Y850858D02*
X1121288D01*
X1118416Y849778D02*
X1121283D01*
X995221Y1232098D02*
X1121278D01*
X1118449Y850318D02*
X1121250D01*
X995397Y1229398D02*
X1121102D01*
X995409Y1231558D02*
X1121090D01*
X995510Y1229938D02*
X1120989D01*
X995516Y1231018D02*
X1120983D01*
X995549Y1230478D02*
X1120950D01*
X1110725Y865438D02*
X1118957D01*
X1110087Y835198D02*
X1118812D01*
X1110736Y842758D02*
X1118163D01*
X1111318Y857878D02*
X1118086D01*
X1111634Y864898D02*
X1117697D01*
X1111259Y835738D02*
X1117640D01*
X1111583Y842218D02*
X1117316D01*
X1111999Y858418D02*
X1117271D01*
X1112212Y864358D02*
X1117031D01*
X1111905Y836278D02*
X1116994D01*
X1112122Y841678D02*
X1116777D01*
X1112468Y858958D02*
X1116746D01*
X1112621Y863818D02*
X1116579D01*
X1112346Y836818D02*
X1116553D01*
X1112499Y841138D02*
X1116400D01*
X1112805Y859498D02*
X1116378D01*
X1112914Y863278D02*
X1116261D01*
X1112656Y837358D02*
X1116243D01*
X1112762Y840598D02*
X1116137D01*
X1113044Y860038D02*
X1116122D01*
X1113117Y862738D02*
X1116044D01*
X1112867Y837898D02*
X1116032D01*
X1112934Y840058D02*
X1115965D01*
X1113200Y860578D02*
X1115956D01*
X1113242Y862198D02*
X1115910D01*
X1112995Y838438D02*
X1115904D01*
X1113028Y839518D02*
X1115871D01*
X1113283Y861118D02*
X1115867D01*
X1113297Y861658D02*
X1115853D01*
X1113048Y838978D02*
X1115851D01*
X1105514Y854098D02*
X1112995D01*
X1105583Y846538D02*
X1112898D01*
X1106305Y853558D02*
X1111995D01*
X1106348Y847078D02*
X1111945D01*
X1106831Y853018D02*
X1111398D01*
X1106861Y847618D02*
X1111364D01*
X1107207Y852478D02*
X1110985D01*
X1107228Y848158D02*
X1110962D01*
X1107475Y851938D02*
X1110696D01*
X1107490Y848698D02*
X1110679D01*
X1107657Y851398D02*
X1110501D01*
X1107666Y849238D02*
X1110491D01*
X1107763Y850858D02*
X1110388D01*
X1107768Y849778D02*
X1110383D01*
X1107799Y850318D02*
X1110350D01*
X1099183Y857338D02*
X1107916D01*
X1099908Y835198D02*
X1107912D01*
X1099825Y865438D02*
X1107274D01*
X1100359Y842758D02*
X1107263D01*
X1098142Y1277998D02*
X1106857D01*
X1100781Y835738D02*
X1106740D01*
X1100418Y857878D02*
X1106681D01*
X1101060Y842218D02*
X1106416D01*
X1100734Y864898D02*
X1106365D01*
X1101345Y836278D02*
X1106094D01*
X1101099Y858418D02*
X1106000D01*
X1101540Y841678D02*
X1105877D01*
X1101312Y864358D02*
X1105787D01*
X1101744Y836818D02*
X1105653D01*
X1099428Y1270438D02*
X1105571D01*
X1101568Y858958D02*
X1105531D01*
X1101886Y841138D02*
X1105500D01*
X1099607Y1277458D02*
X1105392D01*
X1101721Y863818D02*
X1105378D01*
X1102031Y837358D02*
X1105343D01*
X1102130Y840598D02*
X1105237D01*
X1101905Y859498D02*
X1105194D01*
X1102228Y837898D02*
X1105132D01*
X1102014Y863278D02*
X1105085D01*
X1102291Y840058D02*
X1105065D01*
X1102348Y838438D02*
X1105004D01*
X1102379Y839518D02*
X1104971D01*
X1102144Y860038D02*
X1104955D01*
X1102398Y838978D02*
X1104951D01*
X1102217Y862738D02*
X1104882D01*
X1100197Y1270978D02*
X1104802D01*
X1102300Y860578D02*
X1104799D01*
X1102342Y862198D02*
X1104757D01*
X1102383Y861118D02*
X1104716D01*
X1102397Y861658D02*
X1104702D01*
X1100307Y1276918D02*
X1104692D01*
X1100700Y1271518D02*
X1104299D01*
X1100777Y1276378D02*
X1104222D01*
X1101054Y1272058D02*
X1103945D01*
X1101108Y1275838D02*
X1103891D01*
X1101299Y1272598D02*
X1103700D01*
X1101336Y1275298D02*
X1103663D01*
X1101457Y1273138D02*
X1103542D01*
X1101478Y1274758D02*
X1103521D01*
X1101537Y1273678D02*
X1103462D01*
X1101544Y1274218D02*
X1103455D01*
X1094614Y854098D02*
X1101485D01*
X1094683Y846538D02*
X1101416D01*
X1095405Y853558D02*
X1100694D01*
X1095448Y847078D02*
X1100651D01*
X1095931Y853018D02*
X1100168D01*
X1095961Y847618D02*
X1100138D01*
X1096307Y852478D02*
X1099792D01*
X1096328Y848158D02*
X1099771D01*
X1096575Y851938D02*
X1099524D01*
X1096590Y848698D02*
X1099509D01*
X1096757Y851398D02*
X1099342D01*
X1096766Y849238D02*
X1099333D01*
X1096863Y850858D02*
X1099236D01*
X1096868Y849778D02*
X1099231D01*
X1096899Y850318D02*
X1099200D01*
X1088127Y843298D02*
X1097172D01*
X1088283Y857338D02*
X1097016D01*
X1088142Y1277998D02*
X1096857D01*
X1088925Y865438D02*
X1096374D01*
X1089008Y835198D02*
X1096291D01*
X1089459Y842758D02*
X1095840D01*
X1089518Y857878D02*
X1095781D01*
X1089428Y1270438D02*
X1095571D01*
X1089834Y864898D02*
X1095465D01*
X1089881Y835738D02*
X1095418D01*
X1089607Y1277458D02*
X1095392D01*
X1090160Y842218D02*
X1095139D01*
X1090199Y858418D02*
X1095100D01*
X1090412Y864358D02*
X1094887D01*
X1090445Y836278D02*
X1094854D01*
X1090197Y1270978D02*
X1094802D01*
X1090307Y1276918D02*
X1094692D01*
X1090640Y841678D02*
X1094659D01*
X1090668Y858958D02*
X1094631D01*
X1090821Y863818D02*
X1094478D01*
X1090844Y836818D02*
X1094455D01*
X1090986Y841138D02*
X1094313D01*
X1090700Y1271518D02*
X1094299D01*
X1091005Y859498D02*
X1094294D01*
X1090777Y1276378D02*
X1094222D01*
X1091114Y863278D02*
X1094185D01*
X1091131Y837358D02*
X1094168D01*
X1091230Y840598D02*
X1094069D01*
X1091244Y860038D02*
X1094055D01*
X1091317Y862738D02*
X1093982D01*
X1091328Y837898D02*
X1093971D01*
X1091054Y1272058D02*
X1093945D01*
X1091391Y840058D02*
X1093908D01*
X1091400Y860578D02*
X1093899D01*
X1091108Y1275838D02*
X1093891D01*
X1091442Y862198D02*
X1093857D01*
X1091448Y838438D02*
X1093851D01*
X1091479Y839518D02*
X1093820D01*
X1091483Y861118D02*
X1093816D01*
X1091497Y861658D02*
X1093802D01*
X1091498Y838978D02*
X1093801D01*
X1091299Y1272598D02*
X1093700D01*
X1091336Y1275298D02*
X1093663D01*
X1091457Y1273138D02*
X1093542D01*
X1091478Y1274758D02*
X1093521D01*
X1091537Y1273678D02*
X1093462D01*
X1091544Y1274218D02*
X1093455D01*
X1086644Y1057138D02*
X1093355D01*
X1087345Y1057678D02*
X1092654D01*
X1087777Y1058218D02*
X1092222D01*
X1088057Y1058758D02*
X1091927D01*
X1088224Y1059298D02*
X1091387D01*
X1088296Y1059838D02*
X1090847D01*
X1083104Y854098D02*
X1090585D01*
X1083201Y846538D02*
X1090516D01*
X1088278Y1060378D02*
X1090307D01*
X1084104Y853558D02*
X1089794D01*
X1088169Y1060918D02*
X1089767D01*
X1084154Y847078D02*
X1089751D01*
X1084701Y853018D02*
X1089268D01*
X1084735Y847618D02*
X1089238D01*
X1087960Y1061458D02*
X1089227D01*
X1085114Y852478D02*
X1088892D01*
X1085137Y848158D02*
X1088871D01*
X1087625Y1061998D02*
X1088687D01*
X1085403Y851938D02*
X1088624D01*
X1085420Y848698D02*
X1088609D01*
X1085598Y851398D02*
X1088442D01*
X1085608Y849238D02*
X1088433D01*
X1085711Y850858D02*
X1088336D01*
X1085716Y849778D02*
X1088331D01*
X1069178Y1037158D02*
X1088321D01*
X1085749Y850318D02*
X1088300D01*
X1087108Y1062538D02*
X1088147D01*
X1069865Y1037698D02*
X1087634D01*
X1086234Y1063078D02*
X1087607D01*
X1070290Y1038238D02*
X1087209D01*
X1085694Y1063618D02*
X1087067D01*
X1085506Y1043638D02*
X1086949D01*
X1085197Y1043098D02*
X1086949D01*
X1084720Y1042558D02*
X1086949D01*
X1083914Y1042018D02*
X1086949D01*
X1070450Y1041478D02*
X1086949D01*
X1070565Y1038778D02*
X1086934D01*
X1078142Y1277998D02*
X1086857D01*
X1070663Y1040938D02*
X1086836D01*
X1070728Y1039318D02*
X1086771D01*
X1070775Y1040398D02*
X1086724D01*
X1070796Y1039858D02*
X1086703D01*
X1085154Y1064158D02*
X1086527D01*
X1085696Y1044178D02*
X1086507D01*
X1066327Y843298D02*
X1086272D01*
X1066483Y857338D02*
X1086116D01*
X1084614Y1064698D02*
X1085987D01*
X1085788Y1044718D02*
X1085967D01*
X1079428Y1270438D02*
X1085571D01*
X1077242Y865438D02*
X1085474D01*
X1084074Y1065238D02*
X1085447D01*
X1079607Y1277458D02*
X1085392D01*
X1077387Y835198D02*
X1085391D01*
X1078036Y842758D02*
X1084940D01*
X1083534Y1065778D02*
X1084907D01*
X1078113Y857878D02*
X1084881D01*
X1080197Y1270978D02*
X1084802D01*
X1080307Y1276918D02*
X1084692D01*
X1078502Y864898D02*
X1084565D01*
X1078559Y835738D02*
X1084518D01*
X1082994Y1066318D02*
X1084367D01*
X1080700Y1271518D02*
X1084299D01*
X1078883Y842218D02*
X1084239D01*
X1080777Y1276378D02*
X1084222D01*
X1078928Y858418D02*
X1084200D01*
X1079168Y864358D02*
X1083987D01*
X1079205Y836278D02*
X1083954D01*
X1081054Y1272058D02*
X1083945D01*
X1081108Y1275838D02*
X1083891D01*
X1082454Y1066858D02*
X1083827D01*
X1079422Y841678D02*
X1083759D01*
X1079453Y858958D02*
X1083731D01*
X1081299Y1272598D02*
X1083700D01*
X1081336Y1275298D02*
X1083663D01*
X1079620Y863818D02*
X1083578D01*
X1079646Y836818D02*
X1083555D01*
X1081457Y1273138D02*
X1083542D01*
X1081478Y1274758D02*
X1083521D01*
X1081537Y1273678D02*
X1083462D01*
X1081544Y1274218D02*
X1083455D01*
X1079799Y841138D02*
X1083413D01*
X1079821Y859498D02*
X1083394D01*
X1082174Y1057138D02*
X1083355D01*
X1079938Y863278D02*
X1083285D01*
X1079956Y837358D02*
X1083268D01*
X1080062Y840598D02*
X1083169D01*
X1080077Y860038D02*
X1083155D01*
X1080155Y862738D02*
X1083082D01*
X1080167Y837898D02*
X1083071D01*
X1080234Y840058D02*
X1083008D01*
X1080243Y860578D02*
X1082999D01*
X1080289Y862198D02*
X1082957D01*
X1080295Y838438D02*
X1082951D01*
X1080328Y839518D02*
X1082920D01*
X1080332Y861118D02*
X1082916D01*
X1080346Y861658D02*
X1082902D01*
X1080348Y838978D02*
X1082901D01*
X1081634Y1057678D02*
X1082654D01*
X1081094Y1058218D02*
X1082222D01*
X1080554Y1058758D02*
X1081927D01*
X1080014Y1059298D02*
X1081387D01*
X1073914Y1042018D02*
X1081085D01*
X1079474Y1059838D02*
X1080847D01*
X1078934Y1060378D02*
X1080307D01*
X1072814Y854098D02*
X1080295D01*
X1074720Y1042558D02*
X1080279D01*
X1072883Y846538D02*
X1080198D01*
X1075197Y1043098D02*
X1079802D01*
X1078394Y1060918D02*
X1079767D01*
X1075506Y1043638D02*
X1079493D01*
X1073605Y853558D02*
X1079295D01*
X1073648Y847078D02*
X1079245D01*
X1077854Y1061458D02*
X1079227D01*
X1075696Y1044178D02*
X1079007D01*
X1074131Y853018D02*
X1078698D01*
X1074161Y847618D02*
X1078664D01*
X1075788Y1044718D02*
X1078467D01*
X1074507Y852478D02*
X1078285D01*
X1074528Y848158D02*
X1078262D01*
X1074775Y851938D02*
X1077996D01*
X1074790Y848698D02*
X1077979D01*
X1075789Y1045258D02*
X1077927D01*
X1074957Y851398D02*
X1077801D01*
X1074966Y849238D02*
X1077791D01*
X1075063Y850858D02*
X1077688D01*
X1075068Y849778D02*
X1077683D01*
X1075099Y850318D02*
X1077650D01*
X1075701Y1045798D02*
X1077387D01*
X1027142Y1277998D02*
X1076857D01*
X1075516Y1046338D02*
X1076847D01*
X1075213Y1046878D02*
X1076307D01*
X1074744Y1047418D02*
X1075767D01*
X1028428Y1270438D02*
X1075571D01*
X1028607Y1277458D02*
X1075392D01*
X1067125Y865438D02*
X1075357D01*
X1073961Y1047958D02*
X1075227D01*
X1067208Y835198D02*
X1075212D01*
X1029197Y1270978D02*
X1074802D01*
X1029307Y1276918D02*
X1074692D01*
X1073314Y1048498D02*
X1074687D01*
X1067659Y842758D02*
X1074563D01*
X1067718Y857878D02*
X1074486D01*
X1029700Y1271518D02*
X1074299D01*
X1029777Y1276378D02*
X1074222D01*
X1072774Y1049038D02*
X1074147D01*
X1068034Y864898D02*
X1074097D01*
X1068081Y835738D02*
X1074040D01*
X1030054Y1272058D02*
X1073945D01*
X1030108Y1275838D02*
X1073891D01*
X1068360Y842218D02*
X1073716D01*
X1030299Y1272598D02*
X1073700D01*
X1068399Y858418D02*
X1073671D01*
X1030336Y1275298D02*
X1073663D01*
X1072234Y1049578D02*
X1073607D01*
X1030457Y1273138D02*
X1073542D01*
X1030478Y1274758D02*
X1073521D01*
X1030537Y1273678D02*
X1073462D01*
X1030544Y1274218D02*
X1073455D01*
X1068612Y864358D02*
X1073431D01*
X1068645Y836278D02*
X1073394D01*
X1068840Y841678D02*
X1073177D01*
X1068868Y858958D02*
X1073146D01*
X1071694Y1050118D02*
X1073067D01*
X1069021Y863818D02*
X1072979D01*
X1069044Y836818D02*
X1072953D01*
X1069186Y841138D02*
X1072800D01*
X1069205Y859498D02*
X1072778D01*
X1069314Y863278D02*
X1072661D01*
X1069331Y837358D02*
X1072643D01*
X1069430Y840598D02*
X1072537D01*
X1071154Y1050658D02*
X1072527D01*
X1069444Y860038D02*
X1072522D01*
X1069517Y862738D02*
X1072444D01*
X1069528Y837898D02*
X1072432D01*
X1069591Y840058D02*
X1072365D01*
X1069600Y860578D02*
X1072356D01*
X1069642Y862198D02*
X1072310D01*
X1069648Y838438D02*
X1072304D01*
X1069679Y839518D02*
X1072271D01*
X1069683Y861118D02*
X1072267D01*
X1069697Y861658D02*
X1072253D01*
X1069698Y838978D02*
X1072251D01*
X1070614Y1051198D02*
X1071987D01*
X1070074Y1051738D02*
X1071447D01*
X1070110Y1042018D02*
X1071085D01*
X1069584Y1042558D02*
X1070279D01*
X1068714Y1043098D02*
X1069802D01*
X1068174Y1043638D02*
X1069493D01*
X1067634Y1044178D02*
X1069007D01*
X1061304Y854098D02*
X1068785D01*
X1061401Y846538D02*
X1068716D01*
X1067094Y1044718D02*
X1068467D01*
X1062304Y853558D02*
X1067994D01*
X1062354Y847078D02*
X1067951D01*
X1066554Y1045258D02*
X1067927D01*
X1062901Y853018D02*
X1067468D01*
X1062935Y847618D02*
X1067438D01*
X1066014Y1045798D02*
X1067387D01*
X1063314Y852478D02*
X1067092D01*
X1063337Y848158D02*
X1067071D01*
X1065474Y1046338D02*
X1066847D01*
X1063603Y851938D02*
X1066824D01*
X1063620Y848698D02*
X1066809D01*
X1063798Y851398D02*
X1066642D01*
X1063808Y849238D02*
X1066633D01*
X1063911Y850858D02*
X1066536D01*
X1063916Y849778D02*
X1066531D01*
X1063949Y850318D02*
X1066500D01*
X1064934Y1046878D02*
X1066307D01*
X848050Y1037158D02*
X1065821D01*
X848050Y1037698D02*
X1065134D01*
X848050Y1038238D02*
X1064709D01*
X968668Y843298D02*
X1064472D01*
X848050Y1038778D02*
X1064407D01*
X968647Y857338D02*
X1064316D01*
X848050Y1039318D02*
X1063867D01*
X1055442Y865438D02*
X1063674D01*
X1055587Y835198D02*
X1063591D01*
X848050Y1039858D02*
X1063327D01*
X1056236Y842758D02*
X1063140D01*
X1056313Y857878D02*
X1063081D01*
X848050Y1040398D02*
X1062787D01*
X1056702Y864898D02*
X1062765D01*
X1056759Y835738D02*
X1062718D01*
X1057083Y842218D02*
X1062439D01*
X1057128Y858418D02*
X1062400D01*
X848050Y1040938D02*
X1062247D01*
X1057368Y864358D02*
X1062187D01*
X1057405Y836278D02*
X1062154D01*
X1057622Y841678D02*
X1061959D01*
X1057653Y858958D02*
X1061931D01*
X1057820Y863818D02*
X1061778D01*
X1057846Y836818D02*
X1061755D01*
X848050Y1041478D02*
X1061707D01*
X1057999Y841138D02*
X1061613D01*
X1058021Y859498D02*
X1061594D01*
X1058138Y863278D02*
X1061485D01*
X1058156Y837358D02*
X1061468D01*
X1058262Y840598D02*
X1061369D01*
X1058277Y860038D02*
X1061355D01*
X1058355Y862738D02*
X1061282D01*
X1058367Y837898D02*
X1061271D01*
X1058434Y840058D02*
X1061208D01*
X1058443Y860578D02*
X1061199D01*
X1058489Y862198D02*
X1061157D01*
X1058495Y838438D02*
X1061151D01*
X1058528Y839518D02*
X1061120D01*
X1058532Y861118D02*
X1061116D01*
X1058546Y861658D02*
X1061102D01*
X1058548Y838978D02*
X1061101D01*
X1050304Y854098D02*
X1058495D01*
X1050401Y846538D02*
X1058398D01*
X1051304Y853558D02*
X1057495D01*
X1051354Y847078D02*
X1057445D01*
X1051901Y853018D02*
X1056898D01*
X1051935Y847618D02*
X1056864D01*
X1052314Y852478D02*
X1056485D01*
X1052337Y848158D02*
X1056462D01*
X1052603Y851938D02*
X1056196D01*
X1052620Y848698D02*
X1056179D01*
X1052798Y851398D02*
X1056001D01*
X1052808Y849238D02*
X1055991D01*
X1052911Y850858D02*
X1055888D01*
X1052916Y849778D02*
X1055883D01*
X1052949Y850318D02*
X1055850D01*
X1051298Y1256398D02*
X1054201D01*
X1051323Y1252618D02*
X1054176D01*
X1051855Y1255858D02*
X1053644D01*
X1051868Y1253158D02*
X1053631D01*
X1044542Y865438D02*
X1053557D01*
X1044687Y835198D02*
X1053412D01*
X1052149Y1255318D02*
X1053350D01*
X1052155Y1253698D02*
X1053344D01*
X1052283Y1254778D02*
X1053216D01*
X1052285Y1254238D02*
X1053214D01*
X1045336Y842758D02*
X1052763D01*
X1045413Y857878D02*
X1052686D01*
X1045802Y864898D02*
X1052297D01*
X1045859Y835738D02*
X1052240D01*
X1046183Y842218D02*
X1051916D01*
X1046228Y858418D02*
X1051871D01*
X1046468Y864358D02*
X1051631D01*
X1046505Y836278D02*
X1051594D01*
X1046722Y841678D02*
X1051377D01*
X1046753Y858958D02*
X1051346D01*
X1046920Y863818D02*
X1051179D01*
X1046946Y836818D02*
X1051153D01*
X1047099Y841138D02*
X1051000D01*
X1047121Y859498D02*
X1050978D01*
X1047238Y863278D02*
X1050861D01*
X1047256Y837358D02*
X1050843D01*
X1047362Y840598D02*
X1050737D01*
X1047377Y860038D02*
X1050722D01*
X1047455Y862738D02*
X1050644D01*
X1047467Y837898D02*
X1050632D01*
X1047534Y840058D02*
X1050565D01*
X1047543Y860578D02*
X1050556D01*
X1047589Y862198D02*
X1050510D01*
X1047595Y838438D02*
X1050504D01*
X1047628Y839518D02*
X1050471D01*
X1047632Y861118D02*
X1050467D01*
X1047646Y861658D02*
X1050453D01*
X1047648Y838978D02*
X1050451D01*
X1045798Y1256398D02*
X1048701D01*
X1045823Y1252618D02*
X1048676D01*
X1046355Y1255858D02*
X1048144D01*
X1046368Y1253158D02*
X1048131D01*
X1046649Y1255318D02*
X1047850D01*
X1046655Y1253698D02*
X1047844D01*
X1046783Y1254778D02*
X1047716D01*
X1046785Y1254238D02*
X1047714D01*
X1039504Y854098D02*
X1047495D01*
X1039601Y846538D02*
X1047398D01*
X1040504Y853558D02*
X1046495D01*
X1040554Y847078D02*
X1046445D01*
X1041101Y853018D02*
X1045898D01*
X1041135Y847618D02*
X1045864D01*
X1041514Y852478D02*
X1045485D01*
X1041537Y848158D02*
X1045462D01*
X1041803Y851938D02*
X1045196D01*
X1041820Y848698D02*
X1045179D01*
X1041998Y851398D02*
X1045001D01*
X1042008Y849238D02*
X1044991D01*
X1042111Y850858D02*
X1044888D01*
X1042116Y849778D02*
X1044883D01*
X1042149Y850318D02*
X1044850D01*
X984298Y1256398D02*
X1043201D01*
X984323Y1252618D02*
X1043176D01*
X1033642Y865438D02*
X1042657D01*
X984855Y1255858D02*
X1042644D01*
X984868Y1253158D02*
X1042631D01*
X1033787Y835198D02*
X1042512D01*
X985149Y1255318D02*
X1042350D01*
X985155Y1253698D02*
X1042344D01*
X985283Y1254778D02*
X1042216D01*
X985285Y1254238D02*
X1042214D01*
X1034436Y842758D02*
X1041863D01*
X1034513Y857878D02*
X1041786D01*
X1034902Y864898D02*
X1041397D01*
X1034959Y835738D02*
X1041340D01*
X1035283Y842218D02*
X1041016D01*
X1035328Y858418D02*
X1040971D01*
X1035568Y864358D02*
X1040731D01*
X1035605Y836278D02*
X1040694D01*
X1035822Y841678D02*
X1040477D01*
X1035853Y858958D02*
X1040446D01*
X1036020Y863818D02*
X1040279D01*
X1036046Y836818D02*
X1040253D01*
X1036199Y841138D02*
X1040100D01*
X1036221Y859498D02*
X1040078D01*
X1036338Y863278D02*
X1039961D01*
X1036356Y837358D02*
X1039943D01*
X1036462Y840598D02*
X1039837D01*
X1036477Y860038D02*
X1039822D01*
X1036555Y862738D02*
X1039744D01*
X1036567Y837898D02*
X1039732D01*
X1036634Y840058D02*
X1039665D01*
X1036643Y860578D02*
X1039656D01*
X1036689Y862198D02*
X1039610D01*
X1036695Y838438D02*
X1039604D01*
X1036728Y839518D02*
X1039571D01*
X1036732Y861118D02*
X1039567D01*
X1036746Y861658D02*
X1039553D01*
X1036748Y838978D02*
X1039551D01*
X1028604Y854098D02*
X1036695D01*
X1028701Y846538D02*
X1036598D01*
X1029604Y853558D02*
X1035695D01*
X1029654Y847078D02*
X1035645D01*
X1030201Y853018D02*
X1035098D01*
X1030235Y847618D02*
X1035064D01*
X1030614Y852478D02*
X1034685D01*
X1030637Y848158D02*
X1034662D01*
X1030903Y851938D02*
X1034396D01*
X1030920Y848698D02*
X1034379D01*
X1031098Y851398D02*
X1034201D01*
X1031108Y849238D02*
X1034191D01*
X1031211Y850858D02*
X1034088D01*
X1031216Y849778D02*
X1034083D01*
X1031249Y850318D02*
X1034050D01*
X1022742Y865438D02*
X1031757D01*
X1022887Y835198D02*
X1031612D01*
X1023536Y842758D02*
X1030963D01*
X1023613Y857878D02*
X1030886D01*
X1024002Y864898D02*
X1030497D01*
X1024059Y835738D02*
X1030440D01*
X1024383Y842218D02*
X1030116D01*
X1024428Y858418D02*
X1030071D01*
X1024668Y864358D02*
X1029831D01*
X1024705Y836278D02*
X1029794D01*
X1024922Y841678D02*
X1029577D01*
X1024953Y858958D02*
X1029546D01*
X1025120Y863818D02*
X1029379D01*
X1025146Y836818D02*
X1029353D01*
X1025299Y841138D02*
X1029200D01*
X1025321Y859498D02*
X1029178D01*
X1025438Y863278D02*
X1029061D01*
X1025456Y837358D02*
X1029043D01*
X1025562Y840598D02*
X1028937D01*
X1025577Y860038D02*
X1028922D01*
X1025655Y862738D02*
X1028844D01*
X1025667Y837898D02*
X1028832D01*
X1025734Y840058D02*
X1028765D01*
X1025743Y860578D02*
X1028756D01*
X1025789Y862198D02*
X1028710D01*
X1025795Y838438D02*
X1028704D01*
X1025828Y839518D02*
X1028671D01*
X1025832Y861118D02*
X1028667D01*
X1025846Y861658D02*
X1028653D01*
X1025848Y838978D02*
X1028651D01*
X1017142Y1277998D02*
X1025857D01*
X1017704Y854098D02*
X1025795D01*
X1017801Y846538D02*
X1025698D01*
X1018704Y853558D02*
X1024795D01*
X1018754Y847078D02*
X1024745D01*
X1018428Y1270438D02*
X1024571D01*
X1018607Y1277458D02*
X1024392D01*
X1019301Y853018D02*
X1024198D01*
X1019335Y847618D02*
X1024164D01*
X1019197Y1270978D02*
X1023802D01*
X1019714Y852478D02*
X1023785D01*
X1019737Y848158D02*
X1023762D01*
X1019307Y1276918D02*
X1023692D01*
X1020003Y851938D02*
X1023496D01*
X1020020Y848698D02*
X1023479D01*
X1020198Y851398D02*
X1023301D01*
X1019700Y1271518D02*
X1023299D01*
X1020208Y849238D02*
X1023291D01*
X1019777Y1276378D02*
X1023222D01*
X1020311Y850858D02*
X1023188D01*
X1020316Y849778D02*
X1023183D01*
X1020349Y850318D02*
X1023150D01*
X1020054Y1272058D02*
X1022945D01*
X1020108Y1275838D02*
X1022891D01*
X1020299Y1272598D02*
X1022700D01*
X1020336Y1275298D02*
X1022663D01*
X1020457Y1273138D02*
X1022542D01*
X1020478Y1274758D02*
X1022521D01*
X1020537Y1273678D02*
X1022462D01*
X1020544Y1274218D02*
X1022455D01*
X1011842Y865438D02*
X1020857D01*
X1011987Y835198D02*
X1020712D01*
X1015312Y1214278D02*
X1020187D01*
X1012636Y842758D02*
X1020063D01*
X1012713Y857878D02*
X1019986D01*
X1013102Y864898D02*
X1019597D01*
X1013159Y835738D02*
X1019540D01*
X1016059Y1209958D02*
X1019440D01*
X1013483Y842218D02*
X1019216D01*
X1013528Y858418D02*
X1019171D01*
X1016505Y1213738D02*
X1018994D01*
X1013768Y864358D02*
X1018931D01*
X1013805Y836278D02*
X1018894D01*
X1016742Y1210498D02*
X1018757D01*
X1014022Y841678D02*
X1018677D01*
X1014053Y858958D02*
X1018646D01*
X1016962Y1213198D02*
X1018537D01*
X1014220Y863818D02*
X1018479D01*
X1014246Y836818D02*
X1018453D01*
X1017089Y1211038D02*
X1018410D01*
X1014399Y841138D02*
X1018300D01*
X1017203Y1212658D02*
X1018296D01*
X1014421Y859498D02*
X1018278D01*
X1017261Y1211578D02*
X1018238D01*
X1017296Y1212118D02*
X1018203D01*
X1014538Y863278D02*
X1018161D01*
X1014556Y837358D02*
X1018143D01*
X1014662Y840598D02*
X1018037D01*
X1014677Y860038D02*
X1018022D01*
X1014755Y862738D02*
X1017944D01*
X1014767Y837898D02*
X1017932D01*
X1014834Y840058D02*
X1017865D01*
X1014843Y860578D02*
X1017856D01*
X1014889Y862198D02*
X1017810D01*
X1014895Y838438D02*
X1017804D01*
X1014928Y839518D02*
X1017771D01*
X1014932Y861118D02*
X1017767D01*
X1014946Y861658D02*
X1017753D01*
X1014948Y838978D02*
X1017751D01*
X1009155Y1277998D02*
X1015857D01*
X1006804Y854098D02*
X1014895D01*
X1006901Y846538D02*
X1014798D01*
X1009812Y1214278D02*
X1014687D01*
X1009718Y1270438D02*
X1014571D01*
X1009828Y1277458D02*
X1014392D01*
X1010559Y1209958D02*
X1013940D01*
X1007804Y853558D02*
X1013895D01*
X1007854Y847078D02*
X1013845D01*
X1010229Y1270978D02*
X1013802D01*
X1010310Y1276918D02*
X1013692D01*
X1011005Y1213738D02*
X1013494D01*
X1010608Y1271518D02*
X1013299D01*
X1008401Y853018D02*
X1013298D01*
X1008435Y847618D02*
X1013264D01*
X1011242Y1210498D02*
X1013257D01*
X1010669Y1276378D02*
X1013222D01*
X1011462Y1213198D02*
X1013037D01*
X1010889Y1272058D02*
X1012945D01*
X1011589Y1211038D02*
X1012910D01*
X1010933Y1275838D02*
X1012891D01*
X1008814Y852478D02*
X1012885D01*
X1008837Y848158D02*
X1012862D01*
X1011703Y1212658D02*
X1012796D01*
X1011761Y1211578D02*
X1012738D01*
X1011796Y1212118D02*
X1012703D01*
X1011090Y1272598D02*
X1012700D01*
X1011120Y1275298D02*
X1012663D01*
X1009103Y851938D02*
X1012596D01*
X1009120Y848698D02*
X1012579D01*
X1011222Y1273138D02*
X1012542D01*
X1011239Y1274758D02*
X1012521D01*
X1011289Y1273678D02*
X1012462D01*
X1011295Y1274218D02*
X1012455D01*
X1009298Y851398D02*
X1012401D01*
X1009308Y849238D02*
X1012391D01*
X1009411Y850858D02*
X1012288D01*
X1009416Y849778D02*
X1012283D01*
X1009449Y850318D02*
X1012250D01*
X1000942Y865438D02*
X1009957D01*
X1001087Y835198D02*
X1009812D01*
X948312Y1214278D02*
X1009187D01*
X1001736Y842758D02*
X1009163D01*
X1001813Y857878D02*
X1009086D01*
X1002202Y864898D02*
X1008697D01*
X1002259Y835738D02*
X1008640D01*
X949059Y1209958D02*
X1008440D01*
X1002583Y842218D02*
X1008316D01*
X1002628Y858418D02*
X1008271D01*
X1002868Y864358D02*
X1008031D01*
X949505Y1213738D02*
X1007994D01*
X1002905Y836278D02*
X1007994D01*
X1003122Y841678D02*
X1007777D01*
X949742Y1210498D02*
X1007757D01*
X1003153Y858958D02*
X1007746D01*
X1003320Y863818D02*
X1007579D01*
X1003346Y836818D02*
X1007553D01*
X949962Y1213198D02*
X1007537D01*
X950089Y1211038D02*
X1007410D01*
X1003499Y841138D02*
X1007400D01*
X1003521Y859498D02*
X1007378D01*
X950203Y1212658D02*
X1007296D01*
X1003638Y863278D02*
X1007261D01*
X1003656Y837358D02*
X1007243D01*
X950261Y1211578D02*
X1007238D01*
X950296Y1212118D02*
X1007203D01*
X1003762Y840598D02*
X1007137D01*
X1003777Y860038D02*
X1007122D01*
X1003855Y862738D02*
X1007044D01*
X1003867Y837898D02*
X1007032D01*
X1003934Y840058D02*
X1006965D01*
X1003943Y860578D02*
X1006956D01*
X1003989Y862198D02*
X1006910D01*
X1003995Y838438D02*
X1006904D01*
X1004028Y839518D02*
X1006871D01*
X1004032Y861118D02*
X1006867D01*
X1004046Y861658D02*
X1006853D01*
X1004048Y838978D02*
X1006851D01*
X936724Y1269358D02*
X1005275D01*
X937062Y1278538D02*
X1004937D01*
X937993Y1269898D02*
X1004006D01*
X995904Y854098D02*
X1003995D01*
X996001Y846538D02*
X1003898D01*
X956142Y1277998D02*
X1003844D01*
X957428Y1270438D02*
X1003281D01*
X957607Y1277458D02*
X1003171D01*
X996904Y853558D02*
X1002995D01*
X996954Y847078D02*
X1002945D01*
X958197Y1270978D02*
X1002770D01*
X958307Y1276918D02*
X1002689D01*
X997501Y853018D02*
X1002398D01*
X958700Y1271518D02*
X1002391D01*
X997535Y847618D02*
X1002364D01*
X958777Y1276378D02*
X1002330D01*
X959054Y1272058D02*
X1002110D01*
X959108Y1275838D02*
X1002066D01*
X997914Y852478D02*
X1001985D01*
X997937Y848158D02*
X1001962D01*
X959299Y1272598D02*
X1001909D01*
X959336Y1275298D02*
X1001879D01*
X959457Y1273138D02*
X1001777D01*
X959478Y1274758D02*
X1001760D01*
X959537Y1273678D02*
X1001710D01*
X959544Y1274218D02*
X1001704D01*
X998203Y851938D02*
X1001696D01*
X998220Y848698D02*
X1001679D01*
X998398Y851398D02*
X1001501D01*
X998408Y849238D02*
X1001491D01*
X998511Y850858D02*
X1001388D01*
X998516Y849778D02*
X1001383D01*
X998549Y850318D02*
X1001350D01*
X990042Y865438D02*
X999057D01*
X990187Y835198D02*
X998912D01*
X990836Y842758D02*
X998263D01*
X990913Y857878D02*
X998186D01*
X991302Y864898D02*
X997797D01*
X991359Y835738D02*
X997740D01*
X991683Y842218D02*
X997416D01*
X991728Y858418D02*
X997371D01*
X991968Y864358D02*
X997131D01*
X992005Y836278D02*
X997094D01*
X992222Y841678D02*
X996877D01*
X992253Y858958D02*
X996846D01*
X992420Y863818D02*
X996679D01*
X992446Y836818D02*
X996653D01*
X992599Y841138D02*
X996500D01*
X992621Y859498D02*
X996478D01*
X992738Y863278D02*
X996361D01*
X992756Y837358D02*
X996343D01*
X992862Y840598D02*
X996237D01*
X992877Y860038D02*
X996222D01*
X992955Y862738D02*
X996144D01*
X992967Y837898D02*
X996132D01*
X993034Y840058D02*
X996065D01*
X993043Y860578D02*
X996056D01*
X993089Y862198D02*
X996010D01*
X993095Y838438D02*
X996004D01*
X993128Y839518D02*
X995971D01*
X993132Y861118D02*
X995967D01*
X993146Y861658D02*
X995953D01*
X993148Y838978D02*
X995951D01*
X969986Y854098D02*
X993095D01*
X969996Y846538D02*
X992998D01*
X970123Y853558D02*
X992095D01*
X970132Y847078D02*
X992045D01*
X970239Y853018D02*
X991498D01*
X970246Y847618D02*
X991464D01*
X970333Y852478D02*
X991085D01*
X970338Y848158D02*
X991062D01*
X970405Y851938D02*
X990796D01*
X970410Y848698D02*
X990779D01*
X970457Y851398D02*
X990601D01*
X970460Y849238D02*
X990591D01*
X970489Y850858D02*
X990488D01*
X970490Y849778D02*
X990483D01*
X970500Y850318D02*
X990450D01*
X982897Y1226698D02*
X990102D01*
X983008Y1234258D02*
X989991D01*
X983901Y1227238D02*
X989098D01*
X983958Y1233718D02*
X989041D01*
X984499Y1227778D02*
X988500D01*
X984537Y1233178D02*
X988462D01*
X948910Y865438D02*
X988157D01*
X984912Y1228318D02*
X988087D01*
X984939Y1232638D02*
X988060D01*
X829013Y835198D02*
X988012D01*
X985202Y1228858D02*
X987797D01*
X985221Y1232098D02*
X987778D01*
X985397Y1229398D02*
X987602D01*
X985409Y1231558D02*
X987590D01*
X985510Y1229938D02*
X987489D01*
X985516Y1231018D02*
X987483D01*
X985549Y1230478D02*
X987450D01*
X968349Y842758D02*
X987363D01*
X968326Y857878D02*
X987286D01*
X949450Y864898D02*
X986897D01*
X827661Y835738D02*
X986840D01*
X967997Y842218D02*
X986516D01*
X967971Y858418D02*
X986471D01*
X958815Y864358D02*
X986231D01*
X959009Y836278D02*
X986194D01*
X967608Y841678D02*
X985977D01*
X967580Y858958D02*
X985946D01*
X960862Y863818D02*
X985779D01*
X960969Y836818D02*
X985753D01*
X967180Y841138D02*
X985600D01*
X967148Y859498D02*
X985578D01*
X962203Y863278D02*
X985461D01*
X962283Y837358D02*
X985443D01*
X966705Y840598D02*
X985337D01*
X966671Y860038D02*
X985322D01*
X963254Y862738D02*
X985244D01*
X963320Y837898D02*
X985232D01*
X966180Y840058D02*
X985165D01*
X966141Y860578D02*
X985156D01*
X964131Y862198D02*
X985110D01*
X964187Y838438D02*
X985104D01*
X965594Y839518D02*
X985071D01*
X965551Y861118D02*
X985067D01*
X964887Y861658D02*
X985053D01*
X964936Y838978D02*
X985051D01*
X978798Y1256398D02*
X981701D01*
X978823Y1252618D02*
X981676D01*
X979355Y1255858D02*
X981144D01*
X979368Y1253158D02*
X981131D01*
X979649Y1255318D02*
X980850D01*
X979655Y1253698D02*
X980844D01*
X979783Y1254778D02*
X980716D01*
X979785Y1254238D02*
X980714D01*
X974430Y1226698D02*
X980102D01*
X974485Y1234258D02*
X979991D01*
X975021Y1227238D02*
X979098D01*
X975060Y1233718D02*
X979041D01*
X975454Y1227778D02*
X978500D01*
X975483Y1233178D02*
X978462D01*
X975775Y1228318D02*
X978087D01*
X975797Y1232638D02*
X978060D01*
X976010Y1228858D02*
X977797D01*
X976025Y1232098D02*
X977778D01*
X976171Y1229398D02*
X977602D01*
X976181Y1231558D02*
X977590D01*
X976267Y1229938D02*
X977489D01*
X976271Y1231018D02*
X977483D01*
X976299Y1230478D02*
X977450D01*
X973298Y1256398D02*
X976201D01*
X973323Y1252618D02*
X976176D01*
X973855Y1255858D02*
X975644D01*
X973868Y1253158D02*
X975631D01*
X974149Y1255318D02*
X975350D01*
X974155Y1253698D02*
X975344D01*
X974283Y1254778D02*
X975216D01*
X974285Y1254238D02*
X975214D01*
X914298Y1256398D02*
X970701D01*
X914323Y1252618D02*
X970676D01*
X914855Y1255858D02*
X970144D01*
X914868Y1253158D02*
X970131D01*
X915149Y1255318D02*
X969850D01*
X915155Y1253698D02*
X969844D01*
X915283Y1254778D02*
X969716D01*
X915285Y1254238D02*
X969714D01*
X902547Y1226158D02*
X969452D01*
X902635Y1234798D02*
X969364D01*
X921897Y1226698D02*
X968569D01*
X922008Y1234258D02*
X968514D01*
X922901Y1227238D02*
X967978D01*
X922958Y1233718D02*
X967939D01*
X923499Y1227778D02*
X967545D01*
X923537Y1233178D02*
X967516D01*
X923912Y1228318D02*
X967224D01*
X923939Y1232638D02*
X967202D01*
X924202Y1228858D02*
X966989D01*
X924221Y1232098D02*
X966974D01*
X924397Y1229398D02*
X966828D01*
X924409Y1231558D02*
X966818D01*
X924510Y1229938D02*
X966732D01*
X924516Y1231018D02*
X966728D01*
X924549Y1230478D02*
X966700D01*
X946142Y1277998D02*
X954857D01*
X949990Y864358D02*
X953584D01*
X947428Y1270438D02*
X953571D01*
X947607Y1277458D02*
X953392D01*
X825358Y836278D02*
X953390D01*
X948197Y1270978D02*
X952802D01*
X948307Y1276918D02*
X952692D01*
X948700Y1271518D02*
X952299D01*
X948777Y1276378D02*
X952222D01*
X949054Y1272058D02*
X951945D01*
X949108Y1275838D02*
X951891D01*
X949299Y1272598D02*
X951700D01*
X949336Y1275298D02*
X951663D01*
X949457Y1273138D02*
X951542D01*
X950530Y863818D02*
X951537D01*
X949478Y1274758D02*
X951521D01*
X949537Y1273678D02*
X951462D01*
X949544Y1274218D02*
X951455D01*
X802800Y836818D02*
X951430D01*
X802800Y837358D02*
X950116D01*
X802800Y837898D02*
X949079D01*
X802800Y838438D02*
X948212D01*
X942812Y1214278D02*
X947687D01*
X802800Y838978D02*
X947463D01*
X943559Y1209958D02*
X946940D01*
X802800Y839518D02*
X946805D01*
X944005Y1213738D02*
X946494D01*
X944242Y1210498D02*
X946257D01*
X802800Y840058D02*
X946219D01*
X944462Y1213198D02*
X946037D01*
X944589Y1211038D02*
X945910D01*
X944703Y1212658D02*
X945796D01*
X944761Y1211578D02*
X945738D01*
X944796Y1212118D02*
X945703D01*
X802800Y840598D02*
X945694D01*
X802800Y841138D02*
X945219D01*
X938155Y1277998D02*
X944857D01*
X802800Y841678D02*
X944791D01*
X802800Y842218D02*
X944402D01*
X802800Y842758D02*
X944050D01*
X802800Y843298D02*
X943731D01*
X938718Y1270438D02*
X943571D01*
X802800Y843838D02*
X943442D01*
X938828Y1277458D02*
X943392D01*
X802800Y844378D02*
X943183D01*
X802800Y844918D02*
X942951D01*
X802800Y855718D02*
X942932D01*
X939229Y1270978D02*
X942802D01*
X802800Y855178D02*
X942757D01*
X802800Y845458D02*
X942744D01*
X939310Y1276918D02*
X942692D01*
X802800Y854638D02*
X942574D01*
X802800Y845998D02*
X942562D01*
X802800Y854098D02*
X942413D01*
X802800Y846538D02*
X942403D01*
X831286Y856258D02*
X942392D01*
X939608Y1271518D02*
X942299D01*
X802800Y853558D02*
X942276D01*
X802800Y847078D02*
X942267D01*
X939669Y1276378D02*
X942222D01*
X937312Y1214278D02*
X942187D01*
X802800Y853018D02*
X942160D01*
X802800Y847618D02*
X942153D01*
X802800Y852478D02*
X942066D01*
X802800Y848158D02*
X942061D01*
X802800Y851938D02*
X941994D01*
X802800Y848698D02*
X941989D01*
X939889Y1272058D02*
X941945D01*
X802800Y851398D02*
X941942D01*
X802800Y849238D02*
X941939D01*
X802800Y850858D02*
X941910D01*
X802800Y849778D02*
X941909D01*
X802800Y850318D02*
X941899D01*
X939933Y1275838D02*
X941891D01*
X832947Y856798D02*
X941852D01*
X940090Y1272598D02*
X941700D01*
X940120Y1275298D02*
X941663D01*
X940222Y1273138D02*
X941542D01*
X940239Y1274758D02*
X941521D01*
X940289Y1273678D02*
X941462D01*
X940295Y1274218D02*
X941455D01*
X938059Y1209958D02*
X941440D01*
X833782Y857338D02*
X941312D01*
X938505Y1213738D02*
X940994D01*
X834369Y857878D02*
X940772D01*
X938742Y1210498D02*
X940757D01*
X938962Y1213198D02*
X940537D01*
X939089Y1211038D02*
X940410D01*
X939203Y1212658D02*
X940296D01*
X939261Y1211578D02*
X940238D01*
X834812Y858418D02*
X940232D01*
X939296Y1212118D02*
X940203D01*
X835151Y858958D02*
X939692D01*
X835407Y859498D02*
X939152D01*
X835594Y860038D02*
X938612D01*
X835719Y860578D02*
X938072D01*
X835786Y861118D02*
X937532D01*
X835797Y861658D02*
X936992D01*
X828156Y1214278D02*
X936687D01*
X835753Y862198D02*
X936452D01*
X832444Y1209958D02*
X935940D01*
X835653Y862738D02*
X935912D01*
X827883Y1213738D02*
X935494D01*
X835492Y863278D02*
X935372D01*
X802800Y1210498D02*
X935257D01*
X827523Y1213198D02*
X935037D01*
X802800Y1211038D02*
X934910D01*
X835265Y863818D02*
X934832D01*
X827054Y1212658D02*
X934796D01*
X825501Y1211578D02*
X934738D01*
X826424Y1212118D02*
X934703D01*
X834962Y864358D02*
X934292D01*
X866224Y1269358D02*
X934275D01*
X866562Y1278538D02*
X933937D01*
X834566Y864898D02*
X933752D01*
X834046Y865438D02*
X933212D01*
X867493Y1269898D02*
X933006D01*
X885642Y1277998D02*
X932844D01*
X833333Y865978D02*
X932672D01*
X886928Y1270438D02*
X932281D01*
X887107Y1277458D02*
X932171D01*
X832203Y866518D02*
X932132D01*
X887697Y1270978D02*
X931770D01*
X887807Y1276918D02*
X931689D01*
X823392Y867058D02*
X931592D01*
X888200Y1271518D02*
X931391D01*
X888277Y1276378D02*
X931330D01*
X888554Y1272058D02*
X931110D01*
X888608Y1275838D02*
X931066D01*
X824087Y867598D02*
X931052D01*
X888799Y1272598D02*
X930909D01*
X888836Y1275298D02*
X930879D01*
X888957Y1273138D02*
X930777D01*
X888978Y1274758D02*
X930760D01*
X889037Y1273678D02*
X930710D01*
X889044Y1274218D02*
X930704D01*
X824597Y868138D02*
X930512D01*
X824986Y868678D02*
X929972D01*
X825283Y869218D02*
X929432D01*
X825505Y869758D02*
X928892D01*
X825662Y870298D02*
X928352D01*
X825758Y870838D02*
X927812D01*
X825798Y871378D02*
X927272D01*
X825783Y871918D02*
X926732D01*
X825712Y872458D02*
X926192D01*
X825583Y872998D02*
X925652D01*
X825392Y873538D02*
X925112D01*
X825130Y874078D02*
X924572D01*
X824785Y874618D02*
X924032D01*
X824334Y875158D02*
X923492D01*
X823734Y875698D02*
X922952D01*
X831139Y876238D02*
X922412D01*
X832908Y876778D02*
X921872D01*
X833756Y877318D02*
X921332D01*
X834351Y877858D02*
X920792D01*
X834797Y878398D02*
X920252D01*
X835140Y878938D02*
X919712D01*
X835399Y879478D02*
X919172D01*
X911897Y1226698D02*
X919102D01*
X912008Y1234258D02*
X918991D01*
X835588Y880018D02*
X918632D01*
X912901Y1227238D02*
X918098D01*
X835715Y880558D02*
X918092D01*
X912958Y1233718D02*
X918041D01*
X835784Y881098D02*
X917552D01*
X913499Y1227778D02*
X917500D01*
X913537Y1233178D02*
X917462D01*
X913912Y1228318D02*
X917087D01*
X913939Y1232638D02*
X917060D01*
X835798Y881638D02*
X917012D01*
X914202Y1228858D02*
X916797D01*
X914221Y1232098D02*
X916778D01*
X914397Y1229398D02*
X916602D01*
X914409Y1231558D02*
X916590D01*
X914510Y1229938D02*
X916489D01*
X914516Y1231018D02*
X916483D01*
X835756Y882178D02*
X916472D01*
X914549Y1230478D02*
X916450D01*
X835658Y882718D02*
X915932D01*
X835499Y883258D02*
X915392D01*
X835275Y883798D02*
X914852D01*
X834975Y884338D02*
X914312D01*
X834583Y884878D02*
X913772D01*
X834068Y885418D02*
X913232D01*
X833365Y885958D02*
X912692D01*
X832261Y886498D02*
X912152D01*
X908798Y1256398D02*
X911701D01*
X908823Y1252618D02*
X911676D01*
X802800Y887038D02*
X911612D01*
X909355Y1255858D02*
X911144D01*
X909368Y1253158D02*
X911131D01*
X802800Y887578D02*
X911072D01*
X909649Y1255318D02*
X910850D01*
X909655Y1253698D02*
X910844D01*
X909783Y1254778D02*
X910716D01*
X909785Y1254238D02*
X910714D01*
X802800Y888118D02*
X910532D01*
X802800Y888658D02*
X909992D01*
X802800Y889198D02*
X909452D01*
X903430Y1226698D02*
X909102D01*
X903485Y1234258D02*
X908991D01*
X802800Y889738D02*
X908912D01*
X802800Y890278D02*
X908372D01*
X904021Y1227238D02*
X908098D01*
X904060Y1233718D02*
X908041D01*
X802800Y890818D02*
X907832D01*
X904454Y1227778D02*
X907500D01*
X904483Y1233178D02*
X907462D01*
X802800Y891358D02*
X907292D01*
X906454Y1053358D02*
X907138D01*
X904775Y1228318D02*
X907087D01*
X904797Y1232638D02*
X907060D01*
X905010Y1228858D02*
X906797D01*
X905025Y1232098D02*
X906778D01*
X802800Y891898D02*
X906752D01*
X905171Y1229398D02*
X906602D01*
X905914Y1053898D02*
X906598D01*
X905181Y1231558D02*
X906590D01*
X905267Y1229938D02*
X906489D01*
X905271Y1231018D02*
X906483D01*
X905299Y1230478D02*
X906450D01*
X802800Y892438D02*
X906212D01*
X903298Y1256398D02*
X906201D01*
X903323Y1252618D02*
X906176D01*
X905374Y1054438D02*
X906058D01*
X802800Y892978D02*
X905672D01*
X903855Y1255858D02*
X905644D01*
X903868Y1253158D02*
X905631D01*
X904834Y1054978D02*
X905518D01*
X904149Y1255318D02*
X905350D01*
X904155Y1253698D02*
X905344D01*
X904283Y1254778D02*
X905216D01*
X904285Y1254238D02*
X905214D01*
X802800Y893518D02*
X905132D01*
X904294Y1055518D02*
X904978D01*
X802800Y894058D02*
X904592D01*
X903754Y1056058D02*
X904438D01*
X802800Y894598D02*
X904052D01*
X903214Y1056598D02*
X903898D01*
X802800Y895138D02*
X903512D01*
X902674Y1057138D02*
X903358D01*
X802800Y895678D02*
X902972D01*
X902134Y1057678D02*
X902818D01*
X802800Y896218D02*
X902432D01*
X901594Y1058218D02*
X902278D01*
X802800Y896758D02*
X901892D01*
X901054Y1058758D02*
X901738D01*
X802800Y897298D02*
X901352D01*
X900514Y1059298D02*
X901198D01*
X848050Y1042018D02*
X900856D01*
X802800Y897838D02*
X900812D01*
X802800Y1256398D02*
X900701D01*
X802800Y1252618D02*
X900676D01*
X899974Y1059838D02*
X900658D01*
X802800Y898378D02*
X900272D01*
X802800Y1255858D02*
X900144D01*
X802800Y1253158D02*
X900131D01*
X899434Y1060378D02*
X900118D01*
X802800Y1255318D02*
X899850D01*
X802800Y1253698D02*
X899844D01*
X802800Y898918D02*
X899732D01*
X802800Y1254778D02*
X899716D01*
X802800Y1254238D02*
X899714D01*
X848050Y1042558D02*
X899671D01*
X898894Y1060918D02*
X899578D01*
X802800Y899458D02*
X899192D01*
X848050Y1043098D02*
X899087D01*
X898354Y1061458D02*
X899038D01*
X802800Y899998D02*
X898652D01*
X848050Y1043638D02*
X898547D01*
X897814Y1061998D02*
X898498D01*
X802800Y1226158D02*
X898452D01*
X802800Y1234798D02*
X898364D01*
X802800Y900538D02*
X898112D01*
X848050Y1044178D02*
X898007D01*
X897274Y1062538D02*
X897958D01*
X802800Y901078D02*
X897572D01*
X802800Y1226698D02*
X897569D01*
X802800Y1234258D02*
X897514D01*
X848050Y1044718D02*
X897467D01*
X896734Y1063078D02*
X897418D01*
X802800Y901618D02*
X897032D01*
X802800Y1227238D02*
X896978D01*
X802800Y1233718D02*
X896939D01*
X848050Y1045258D02*
X896927D01*
X896194Y1063618D02*
X896878D01*
X802800Y1227778D02*
X896545D01*
X802800Y1233178D02*
X896516D01*
X802800Y902158D02*
X896492D01*
X848050Y1045798D02*
X896387D01*
X895654Y1064158D02*
X896338D01*
X802800Y1228318D02*
X896224D01*
X802800Y1232638D02*
X896202D01*
X802800Y1228858D02*
X895989D01*
X802800Y1232098D02*
X895974D01*
X802800Y902698D02*
X895952D01*
X848050Y1046338D02*
X895847D01*
X802800Y1229398D02*
X895828D01*
X802800Y1231558D02*
X895818D01*
X895114Y1064698D02*
X895798D01*
X802800Y1229938D02*
X895732D01*
X802800Y1231018D02*
X895728D01*
X802800Y1230478D02*
X895700D01*
X802800Y903238D02*
X895412D01*
X848050Y1046878D02*
X895307D01*
X894574Y1065238D02*
X895258D01*
X802800Y903778D02*
X894872D01*
X848050Y1047418D02*
X894767D01*
X894034Y1065778D02*
X894718D01*
X802800Y904318D02*
X894332D01*
X848050Y1047958D02*
X894227D01*
X893494Y1066318D02*
X894178D01*
X802800Y904858D02*
X893792D01*
X848050Y1048498D02*
X893687D01*
X892954Y1066858D02*
X893638D01*
X802800Y905398D02*
X893252D01*
X848050Y1049038D02*
X893147D01*
X892414Y1067398D02*
X893098D01*
X802800Y905938D02*
X892712D01*
X848050Y1049578D02*
X892607D01*
X891874Y1067938D02*
X892558D01*
X802800Y906478D02*
X892172D01*
X848050Y1050118D02*
X892067D01*
X891334Y1068478D02*
X892018D01*
X802800Y907018D02*
X891632D01*
X848050Y1050658D02*
X891527D01*
X890794Y1069018D02*
X891478D01*
X802800Y907558D02*
X891092D01*
X848050Y1051198D02*
X890987D01*
X890254Y1069558D02*
X890938D01*
X802800Y908098D02*
X890552D01*
X848050Y1051738D02*
X890447D01*
X889714Y1070098D02*
X890398D01*
X802800Y908638D02*
X890012D01*
X848050Y1052278D02*
X889907D01*
X889174Y1070638D02*
X889858D01*
X802800Y909178D02*
X889472D01*
X848050Y1052818D02*
X889367D01*
X888634Y1071178D02*
X889318D01*
X802800Y909718D02*
X888932D01*
X848050Y1053358D02*
X888827D01*
X888094Y1071718D02*
X888778D01*
X802800Y910258D02*
X888392D01*
X848050Y1053898D02*
X888287D01*
X887554Y1072258D02*
X888238D01*
X802800Y910798D02*
X887852D01*
X848050Y1054438D02*
X887747D01*
X887014Y1072798D02*
X887698D01*
X802800Y911338D02*
X887312D01*
X848050Y1054978D02*
X887207D01*
X886474Y1073338D02*
X887158D01*
X802800Y911878D02*
X886772D01*
X848050Y1055518D02*
X886667D01*
X885934Y1073878D02*
X886618D01*
X802800Y912418D02*
X886232D01*
X848050Y1056058D02*
X886127D01*
X885394Y1074418D02*
X886078D01*
X802800Y912958D02*
X885692D01*
X848050Y1056598D02*
X885587D01*
X884854Y1074958D02*
X885538D01*
X802800Y913498D02*
X885152D01*
X848050Y1057138D02*
X885047D01*
X884314Y1075498D02*
X884998D01*
X802800Y914038D02*
X884612D01*
X848050Y1057678D02*
X884507D01*
X883774Y1076038D02*
X884458D01*
X875642Y1277998D02*
X884357D01*
X802800Y914578D02*
X884072D01*
X848050Y1058218D02*
X883967D01*
X883234Y1076578D02*
X883918D01*
X802800Y915118D02*
X883532D01*
X848050Y1058758D02*
X883427D01*
X882694Y1077118D02*
X883378D01*
X876928Y1270438D02*
X883071D01*
X832656Y915658D02*
X882992D01*
X877107Y1277458D02*
X882892D01*
X848050Y1059298D02*
X882887D01*
X882154Y1077658D02*
X882838D01*
X833596Y916198D02*
X882452D01*
X848050Y1059838D02*
X882347D01*
X877697Y1270978D02*
X882302D01*
X881614Y1078198D02*
X882298D01*
X877807Y1276918D02*
X882192D01*
X834234Y916738D02*
X881912D01*
X848050Y1060378D02*
X881807D01*
X878200Y1271518D02*
X881799D01*
X881074Y1078738D02*
X881758D01*
X878277Y1276378D02*
X881722D01*
X878554Y1272058D02*
X881445D01*
X878608Y1275838D02*
X881391D01*
X834708Y917278D02*
X881372D01*
X848050Y1060918D02*
X881267D01*
X880534Y1079278D02*
X881218D01*
X878799Y1272598D02*
X881200D01*
X878836Y1275298D02*
X881163D01*
X878957Y1273138D02*
X881042D01*
X878978Y1274758D02*
X881021D01*
X879037Y1273678D02*
X880962D01*
X879044Y1274218D02*
X880955D01*
X835071Y917818D02*
X880832D01*
X848050Y1061458D02*
X880727D01*
X879994Y1079818D02*
X880678D01*
X835348Y918358D02*
X880292D01*
X848050Y1061998D02*
X880187D01*
X879454Y1080358D02*
X880138D01*
X835552Y918898D02*
X879752D01*
X848050Y1062538D02*
X879647D01*
X878914Y1080898D02*
X879598D01*
X835692Y919438D02*
X879212D01*
X848050Y1063078D02*
X879107D01*
X878374Y1081438D02*
X879058D01*
X835774Y919978D02*
X878672D01*
X848050Y1063618D02*
X878567D01*
X877834Y1081978D02*
X878518D01*
X835799Y920518D02*
X878132D01*
X848050Y1064158D02*
X878027D01*
X877294Y1082518D02*
X877978D01*
X835770Y921058D02*
X877592D01*
X848050Y1064698D02*
X877487D01*
X876754Y1083058D02*
X877438D01*
X835684Y921598D02*
X877052D01*
X848050Y1065238D02*
X876947D01*
X876214Y1083598D02*
X876898D01*
X835540Y922138D02*
X876512D01*
X848050Y1065778D02*
X876407D01*
X875674Y1084138D02*
X876358D01*
X835331Y922678D02*
X875972D01*
X848050Y1066318D02*
X875867D01*
X875134Y1084678D02*
X875818D01*
X835049Y923218D02*
X875432D01*
X848050Y1066858D02*
X875327D01*
X874594Y1085218D02*
X875278D01*
X834679Y923758D02*
X874892D01*
X848050Y1067398D02*
X874787D01*
X874054Y1085758D02*
X874738D01*
X867655Y1277998D02*
X874357D01*
X834195Y924298D02*
X874352D01*
X848032Y1067938D02*
X874247D01*
X873514Y1086298D02*
X874198D01*
X833543Y924838D02*
X873812D01*
X847963Y1068478D02*
X873707D01*
X872974Y1086838D02*
X873658D01*
X832570Y925378D02*
X873272D01*
X847838Y1069018D02*
X873167D01*
X872434Y1087378D02*
X873118D01*
X868218Y1270438D02*
X873071D01*
X868328Y1277458D02*
X872892D01*
X823164Y925918D02*
X872732D01*
X847654Y1069558D02*
X872627D01*
X871894Y1087918D02*
X872578D01*
X868729Y1270978D02*
X872302D01*
X823929Y926458D02*
X872192D01*
X868810Y1276918D02*
X872192D01*
X847404Y1070098D02*
X872087D01*
X871354Y1088458D02*
X872038D01*
X869108Y1271518D02*
X871799D01*
X869169Y1276378D02*
X871722D01*
X824478Y926998D02*
X871652D01*
X847077Y1070638D02*
X871547D01*
X870814Y1088998D02*
X871498D01*
X869389Y1272058D02*
X871445D01*
X869433Y1275838D02*
X871391D01*
X869590Y1272598D02*
X871200D01*
X869620Y1275298D02*
X871163D01*
X824895Y927538D02*
X871112D01*
X869722Y1273138D02*
X871042D01*
X869739Y1274758D02*
X871021D01*
X846655Y1071178D02*
X871007D01*
X869789Y1273678D02*
X870962D01*
X870274Y1089538D02*
X870958D01*
X869795Y1274218D02*
X870955D01*
X825214Y928078D02*
X870572D01*
X846130Y1071718D02*
X870467D01*
X869734Y1090078D02*
X870418D01*
X825454Y928618D02*
X870032D01*
X845590Y1072258D02*
X869927D01*
X869194Y1090618D02*
X869878D01*
X825627Y929158D02*
X869492D01*
X845050Y1072798D02*
X869387D01*
X868654Y1091158D02*
X869338D01*
X825739Y929698D02*
X868952D01*
X844510Y1073338D02*
X868847D01*
X868114Y1091698D02*
X868798D01*
X825793Y930238D02*
X868412D01*
X843970Y1073878D02*
X868307D01*
X867574Y1092238D02*
X868258D01*
X825792Y930778D02*
X867872D01*
X843430Y1074418D02*
X867767D01*
X867034Y1092778D02*
X867718D01*
X825736Y931318D02*
X867332D01*
X842890Y1074958D02*
X867227D01*
X866494Y1093318D02*
X867178D01*
X825622Y931858D02*
X866792D01*
X842350Y1075498D02*
X866687D01*
X865954Y1093858D02*
X866638D01*
X825448Y932398D02*
X866252D01*
X841810Y1076038D02*
X866147D01*
X865414Y1094398D02*
X866098D01*
X825205Y932938D02*
X865712D01*
X841270Y1076578D02*
X865607D01*
X864874Y1094938D02*
X865558D01*
X824883Y933478D02*
X865172D01*
X840730Y1077118D02*
X865067D01*
X864334Y1095478D02*
X865018D01*
X824463Y934018D02*
X864632D01*
X840190Y1077658D02*
X864527D01*
X863794Y1096018D02*
X864478D01*
X823908Y934558D02*
X864092D01*
X839650Y1078198D02*
X863987D01*
X863254Y1096558D02*
X863938D01*
X834289Y1269358D02*
X863775D01*
X823134Y935098D02*
X863552D01*
X839110Y1078738D02*
X863447D01*
X836220Y1278538D02*
X863437D01*
X862714Y1097098D02*
X863398D01*
X832611Y935638D02*
X863012D01*
X838570Y1079278D02*
X862907D01*
X862174Y1097638D02*
X862858D01*
X834626Y1269898D02*
X862506D01*
X833568Y936178D02*
X862472D01*
X838030Y1079818D02*
X862367D01*
X836299Y1277998D02*
X862344D01*
X861634Y1098178D02*
X862318D01*
X834213Y936718D02*
X861932D01*
X837490Y1080358D02*
X861827D01*
X834927Y1270438D02*
X861781D01*
X861094Y1098718D02*
X861778D01*
X836356Y1277458D02*
X861671D01*
X834693Y937258D02*
X861392D01*
X836950Y1080898D02*
X861287D01*
X835195Y1270978D02*
X861270D01*
X860554Y1099258D02*
X861238D01*
X836389Y1276918D02*
X861189D01*
X835432Y1271518D02*
X860891D01*
X835059Y937798D02*
X860852D01*
X836400Y1276378D02*
X860830D01*
X836410Y1081438D02*
X860747D01*
X860014Y1099798D02*
X860698D01*
X835641Y1272058D02*
X860610D01*
X836387Y1275838D02*
X860566D01*
X835822Y1272598D02*
X860409D01*
X836352Y1275298D02*
X860379D01*
X835339Y938338D02*
X860312D01*
X835977Y1273138D02*
X860277D01*
X836294Y1274758D02*
X860260D01*
X836107Y1273678D02*
X860210D01*
X835870Y1081978D02*
X860207D01*
X836212Y1274218D02*
X860204D01*
X859474Y1100338D02*
X860158D01*
X835545Y938878D02*
X859772D01*
X835330Y1082518D02*
X859667D01*
X858934Y1100878D02*
X859618D01*
X835688Y939418D02*
X859232D01*
X834790Y1083058D02*
X859127D01*
X858394Y1101418D02*
X859078D01*
X835772Y939958D02*
X858692D01*
X834250Y1083598D02*
X858587D01*
X857854Y1101958D02*
X858538D01*
X835800Y940498D02*
X858152D01*
X833710Y1084138D02*
X858047D01*
X857314Y1102498D02*
X857998D01*
X835772Y941038D02*
X857612D01*
X833170Y1084678D02*
X857507D01*
X856774Y1103038D02*
X857458D01*
X835689Y941578D02*
X857072D01*
X832630Y1085218D02*
X856967D01*
X856234Y1103578D02*
X856918D01*
X835546Y942118D02*
X856532D01*
X832090Y1085758D02*
X856427D01*
X855694Y1104118D02*
X856378D01*
X835340Y942658D02*
X855992D01*
X831550Y1086298D02*
X855887D01*
X855154Y1104658D02*
X855838D01*
X835061Y943198D02*
X855452D01*
X831010Y1086838D02*
X855347D01*
X854614Y1105198D02*
X855298D01*
X834695Y943738D02*
X854912D01*
X830470Y1087378D02*
X854807D01*
X854074Y1105738D02*
X854758D01*
X834216Y944278D02*
X854372D01*
X829930Y1087918D02*
X854267D01*
X853534Y1106278D02*
X854218D01*
X833572Y944818D02*
X853832D01*
X829390Y1088458D02*
X853727D01*
X852994Y1106818D02*
X853678D01*
X832617Y945358D02*
X853292D01*
X828850Y1088998D02*
X853187D01*
X852454Y1107358D02*
X853138D01*
X802800Y945898D02*
X852752D01*
X828310Y1089538D02*
X852647D01*
X851914Y1107898D02*
X852598D01*
X802800Y946438D02*
X852212D01*
X827770Y1090078D02*
X852107D01*
X851374Y1108438D02*
X852058D01*
X802800Y946978D02*
X851672D01*
X827230Y1090618D02*
X851567D01*
X850834Y1108978D02*
X851518D01*
X802800Y947518D02*
X851132D01*
X826690Y1091158D02*
X851027D01*
X850294Y1109518D02*
X850978D01*
X802800Y948058D02*
X850592D01*
X826150Y1091698D02*
X850487D01*
X849754Y1110058D02*
X850438D01*
X802800Y948598D02*
X850052D01*
X825610Y1092238D02*
X849947D01*
X849214Y1110598D02*
X849898D01*
X802800Y949138D02*
X849512D01*
X825070Y1092778D02*
X849407D01*
X848674Y1111138D02*
X849358D01*
X802800Y949678D02*
X848972D01*
X824530Y1093318D02*
X848867D01*
X848134Y1111678D02*
X848818D01*
X802800Y950218D02*
X848432D01*
X823990Y1093858D02*
X848327D01*
X847594Y1112218D02*
X848278D01*
X802800Y950758D02*
X847892D01*
X839301Y1094398D02*
X847787D01*
X847049Y1112758D02*
X847738D01*
X802800Y951298D02*
X847352D01*
X841115Y1094938D02*
X847247D01*
X846212Y1113298D02*
X847198D01*
X802800Y951838D02*
X846812D01*
X841872Y1095478D02*
X846707D01*
X839744Y1113838D02*
X846658D01*
X802800Y952378D02*
X846272D01*
X842382Y1096018D02*
X846167D01*
X839280Y1114378D02*
X846118D01*
X802800Y952918D02*
X845732D01*
X842747Y1096558D02*
X845627D01*
X838669Y1114918D02*
X845578D01*
X802800Y953458D02*
X845192D01*
X843006Y1097098D02*
X845087D01*
X837803Y1115458D02*
X845038D01*
X802800Y953998D02*
X844652D01*
X843181Y1097638D02*
X844547D01*
X836063Y1115998D02*
X844498D01*
X802800Y954538D02*
X844112D01*
X843281Y1098178D02*
X844007D01*
X815550Y1116538D02*
X843958D01*
X802800Y955078D02*
X843572D01*
X843311Y1098718D02*
X843467D01*
X837161Y1117078D02*
X843418D01*
X802800Y955618D02*
X843032D01*
X838274Y1117618D02*
X842878D01*
X802800Y956158D02*
X842492D01*
X838993Y1118158D02*
X842338D01*
X802800Y956698D02*
X841952D01*
X839524Y1118698D02*
X841798D01*
X841542Y1137598D02*
X841587D01*
X802800Y957238D02*
X841412D01*
X839933Y1119238D02*
X841258D01*
X840546Y1138138D02*
X841047D01*
X802800Y957778D02*
X840872D01*
X815550Y1138678D02*
X840507D01*
X802800Y958318D02*
X840332D01*
X815550Y1139218D02*
X839967D01*
X802800Y958858D02*
X839792D01*
X815550Y1139758D02*
X839427D01*
X802800Y959398D02*
X839252D01*
X815550Y1140298D02*
X838887D01*
X823450Y1094398D02*
X838722D01*
X802800Y959938D02*
X838712D01*
X815550Y1140838D02*
X838347D01*
X802800Y960478D02*
X838210D01*
X802800Y961018D02*
X837818D01*
X815550Y1141378D02*
X837807D01*
X802800Y961558D02*
X837515D01*
X815550Y1138138D02*
X837476D01*
X802800Y962098D02*
X837285D01*
X815550Y1141918D02*
X837267D01*
X802800Y962638D02*
X837119D01*
X802800Y963178D02*
X837011D01*
X802800Y963718D02*
X836957D01*
X802800Y1064698D02*
X836949D01*
X802800Y1064158D02*
X836949D01*
X831874Y1063618D02*
X836949D01*
X833169Y1063078D02*
X836949D01*
X833932Y1062538D02*
X836949D01*
X834481Y1061998D02*
X836949D01*
X834897Y1061458D02*
X836949D01*
X835215Y1060918D02*
X836949D01*
X835455Y1060378D02*
X836949D01*
X835628Y1059838D02*
X836949D01*
X835739Y1059298D02*
X836949D01*
X835793Y1058758D02*
X836949D01*
X835792Y1058218D02*
X836949D01*
X835736Y1057678D02*
X836949D01*
X835622Y1057138D02*
X836949D01*
X835447Y1056598D02*
X836949D01*
X835204Y1056058D02*
X836949D01*
X834882Y1055518D02*
X836949D01*
X834461Y1054978D02*
X836949D01*
X833905Y1054438D02*
X836949D01*
X833130Y1053898D02*
X836949D01*
X831787Y1053358D02*
X836949D01*
X823572Y1052818D02*
X836949D01*
X824216Y1052278D02*
X836949D01*
X824695Y1051738D02*
X836949D01*
X825061Y1051198D02*
X836949D01*
X825340Y1050658D02*
X836949D01*
X825546Y1050118D02*
X836949D01*
X825689Y1049578D02*
X836949D01*
X825772Y1049038D02*
X836949D01*
X825800Y1048498D02*
X836949D01*
X825772Y1047958D02*
X836949D01*
X825688Y1047418D02*
X836949D01*
X825545Y1046878D02*
X836949D01*
X825339Y1046338D02*
X836949D01*
X825059Y1045798D02*
X836949D01*
X824693Y1045258D02*
X836949D01*
X824213Y1044718D02*
X836949D01*
X823568Y1044178D02*
X836949D01*
X831797Y1043638D02*
X836949D01*
X833134Y1043098D02*
X836949D01*
X833908Y1042558D02*
X836949D01*
X834463Y1042018D02*
X836949D01*
X834883Y1041478D02*
X836949D01*
X835205Y1040938D02*
X836949D01*
X835448Y1040398D02*
X836949D01*
X835622Y1039858D02*
X836949D01*
X835736Y1039318D02*
X836949D01*
X835792Y1038778D02*
X836949D01*
X835793Y1038238D02*
X836949D01*
X835739Y1037698D02*
X836949D01*
X835627Y1037158D02*
X836949D01*
X835454Y1036618D02*
X836949D01*
X835214Y1036078D02*
X836949D01*
X834895Y1035538D02*
X836949D01*
X834478Y1034998D02*
X836949D01*
X833929Y1034458D02*
X836949D01*
X833164Y1033918D02*
X836949D01*
X831864Y1033378D02*
X836949D01*
X802800Y1032838D02*
X836949D01*
X802800Y1032298D02*
X836949D01*
X802800Y1031758D02*
X836949D01*
X802800Y1031218D02*
X836949D01*
X802800Y1030678D02*
X836949D01*
X802800Y1030138D02*
X836949D01*
X802800Y1029598D02*
X836949D01*
X802800Y1029058D02*
X836949D01*
X802800Y1028518D02*
X836949D01*
X802800Y1027978D02*
X836949D01*
X802800Y1027438D02*
X836949D01*
X802800Y1026898D02*
X836949D01*
X802800Y1026358D02*
X836949D01*
X802800Y1025818D02*
X836949D01*
X802800Y1025278D02*
X836949D01*
X802800Y1024738D02*
X836949D01*
X802800Y1024198D02*
X836949D01*
X802800Y1023658D02*
X836949D01*
X802800Y1023118D02*
X836949D01*
X802800Y1022578D02*
X836949D01*
X802800Y1022038D02*
X836949D01*
X802800Y1021498D02*
X836949D01*
X802800Y1020958D02*
X836949D01*
X802800Y1020418D02*
X836949D01*
X802800Y1019878D02*
X836949D01*
X802800Y1019338D02*
X836949D01*
X802800Y1018798D02*
X836949D01*
X802800Y1018258D02*
X836949D01*
X802800Y1017718D02*
X836949D01*
X802800Y1017178D02*
X836949D01*
X802800Y1016638D02*
X836949D01*
X802800Y1016098D02*
X836949D01*
X802800Y1015558D02*
X836949D01*
X802800Y1015018D02*
X836949D01*
X802800Y1014478D02*
X836949D01*
X802800Y1013938D02*
X836949D01*
X802800Y1013398D02*
X836949D01*
X802800Y1012858D02*
X836949D01*
X802800Y1012318D02*
X836949D01*
X802800Y1011778D02*
X836949D01*
X802800Y1011238D02*
X836949D01*
X802800Y1010698D02*
X836949D01*
X802800Y1010158D02*
X836949D01*
X802800Y1009618D02*
X836949D01*
X802800Y1009078D02*
X836949D01*
X802800Y1008538D02*
X836949D01*
X802800Y1007998D02*
X836949D01*
X802800Y1007458D02*
X836949D01*
X802800Y1006918D02*
X836949D01*
X802800Y1006378D02*
X836949D01*
X802800Y1005838D02*
X836949D01*
X802800Y1005298D02*
X836949D01*
X831160Y1004758D02*
X836949D01*
X832913Y1004218D02*
X836949D01*
X833760Y1003678D02*
X836949D01*
X834353Y1003138D02*
X836949D01*
X834799Y1002598D02*
X836949D01*
X835141Y1002058D02*
X836949D01*
X835400Y1001518D02*
X836949D01*
X835589Y1000978D02*
X836949D01*
X835716Y1000438D02*
X836949D01*
X835785Y999898D02*
X836949D01*
X835798Y999358D02*
X836949D01*
X835756Y998818D02*
X836949D01*
X835657Y998278D02*
X836949D01*
X835498Y997738D02*
X836949D01*
X835274Y997198D02*
X836949D01*
X834974Y996658D02*
X836949D01*
X834581Y996118D02*
X836949D01*
X834065Y995578D02*
X836949D01*
X833361Y995038D02*
X836949D01*
X832254Y994498D02*
X836949D01*
X823365Y993958D02*
X836949D01*
X824068Y993418D02*
X836949D01*
X824583Y992878D02*
X836949D01*
X824975Y992338D02*
X836949D01*
X825275Y991798D02*
X836949D01*
X825499Y991258D02*
X836949D01*
X825658Y990718D02*
X836949D01*
X825756Y990178D02*
X836949D01*
X825798Y989638D02*
X836949D01*
X825784Y989098D02*
X836949D01*
X825715Y988558D02*
X836949D01*
X825588Y988018D02*
X836949D01*
X825399Y987478D02*
X836949D01*
X825140Y986938D02*
X836949D01*
X824797Y986398D02*
X836949D01*
X824351Y985858D02*
X836949D01*
X823756Y985318D02*
X836949D01*
X830974Y984778D02*
X836949D01*
X832873Y984238D02*
X836949D01*
X833734Y983698D02*
X836949D01*
X834334Y983158D02*
X836949D01*
X834785Y982618D02*
X836949D01*
X835130Y982078D02*
X836949D01*
X835392Y981538D02*
X836949D01*
X835583Y980998D02*
X836949D01*
X835712Y980458D02*
X836949D01*
X835783Y979918D02*
X836949D01*
X835798Y979378D02*
X836949D01*
X835758Y978838D02*
X836949D01*
X835662Y978298D02*
X836949D01*
X835505Y977758D02*
X836949D01*
X835283Y977218D02*
X836949D01*
X834986Y976678D02*
X836949D01*
X834597Y976138D02*
X836949D01*
X834087Y975598D02*
X836949D01*
X833392Y975058D02*
X836949D01*
X832310Y974518D02*
X836949D01*
X802800Y973978D02*
X836949D01*
X802800Y973438D02*
X836949D01*
X802800Y972898D02*
X836949D01*
X802800Y972358D02*
X836949D01*
X802800Y971818D02*
X836949D01*
X802800Y971278D02*
X836949D01*
X802800Y970738D02*
X836949D01*
X802800Y970198D02*
X836949D01*
X802800Y969658D02*
X836949D01*
X802800Y969118D02*
X836949D01*
X802800Y968578D02*
X836949D01*
X802800Y968038D02*
X836949D01*
X802800Y967498D02*
X836949D01*
X802800Y966958D02*
X836949D01*
X802800Y966418D02*
X836949D01*
X802800Y965878D02*
X836949D01*
X802800Y965338D02*
X836949D01*
X802800Y964798D02*
X836949D01*
X802800Y964258D02*
X836949D01*
X802800Y1065238D02*
X836912D01*
X822910Y1094938D02*
X836908D01*
X815550Y1142458D02*
X836727D01*
X815550Y1137598D02*
X836481D01*
X802800Y1065778D02*
X836372D01*
X815550Y1142998D02*
X836187D01*
X822370Y1095478D02*
X836150D01*
X815550Y1137058D02*
X835870D01*
X802800Y1066318D02*
X835832D01*
X815550Y1143538D02*
X835647D01*
X821830Y1096018D02*
X835641D01*
X815550Y1136518D02*
X835441D01*
X816970Y1100878D02*
X835311D01*
X802800Y1066858D02*
X835292D01*
X821290Y1096558D02*
X835276D01*
X815550Y1132198D02*
X835165D01*
X815550Y1135978D02*
X835133D01*
X815550Y1144078D02*
X835107D01*
X817510Y1100338D02*
X835040D01*
X820750Y1097098D02*
X835016D01*
X815550Y1132738D02*
X834940D01*
X815550Y1135438D02*
X834918D01*
X818050Y1099798D02*
X834857D01*
X820210Y1097638D02*
X834842D01*
X815550Y1133278D02*
X834795D01*
X815550Y1134898D02*
X834782D01*
X802800Y1067398D02*
X834752D01*
X818590Y1099258D02*
X834749D01*
X819670Y1098178D02*
X834742D01*
X815550Y1133818D02*
X834722D01*
X815550Y1134358D02*
X834718D01*
X819130Y1098718D02*
X834711D01*
X815550Y1144618D02*
X834567D01*
X824252Y1115998D02*
X834558D01*
X802800Y1067938D02*
X834212D01*
X815550Y1145158D02*
X834027D01*
X802800Y1068478D02*
X833672D01*
X815550Y1145698D02*
X833487D01*
X825350Y1117078D02*
X833460D01*
X832943Y1186198D02*
X833287D01*
X802800Y1069018D02*
X833132D01*
X815550Y1146238D02*
X832947D01*
X825992Y1115458D02*
X832818D01*
X815550Y1186738D02*
X832747D01*
X802800Y1069558D02*
X832592D01*
X815550Y1146778D02*
X832407D01*
X826463Y1117618D02*
X832347D01*
X831563Y1187278D02*
X832207D01*
X802800Y1070098D02*
X832052D01*
X826858Y1114918D02*
X831952D01*
X815550Y1147318D02*
X831867D01*
X827182Y1118158D02*
X831628D01*
X802800Y1070638D02*
X831512D01*
X827469Y1114378D02*
X831341D01*
X815550Y1147858D02*
X831327D01*
X827713Y1118698D02*
X831097D01*
X802800Y1071178D02*
X830972D01*
X827933Y1113838D02*
X830877D01*
X815550Y1148398D02*
X830787D01*
X828122Y1119238D02*
X830688D01*
X828292Y1113298D02*
X830518D01*
X815550Y1187278D02*
X830436D01*
X802800Y1071718D02*
X830432D01*
X828438Y1119778D02*
X830372D01*
X830141Y1124638D02*
X830272D01*
X815550Y1148938D02*
X830247D01*
X828569Y1112758D02*
X830241D01*
X829874Y1108438D02*
X830157D01*
X828680Y1120318D02*
X830130D01*
X829601Y1124098D02*
X830056D01*
X828777Y1112218D02*
X830033D01*
X822908Y984778D02*
X830025D01*
X829334Y1108978D02*
X829973D01*
X828856Y1120858D02*
X829954D01*
X829061Y1123558D02*
X829903D01*
X802800Y1072258D02*
X829892D01*
X828923Y1111678D02*
X829887D01*
X822873Y876238D02*
X829860D01*
X828962Y1109518D02*
X829848D01*
X811160Y1004758D02*
X829839D01*
X828974Y1121398D02*
X829836D01*
X829004Y1123018D02*
X829806D01*
X829013Y1111138D02*
X829797D01*
X829032Y1110058D02*
X829778D01*
X829037Y1121938D02*
X829773D01*
X829047Y1122478D02*
X829763D01*
X829049Y1110598D02*
X829761D01*
X811286Y856258D02*
X829713D01*
X815550Y1149478D02*
X829707D01*
X802800Y1072798D02*
X829352D01*
X821327Y1198078D02*
X829285D01*
X822617Y1053358D02*
X829212D01*
X822611Y1043638D02*
X829202D01*
X815550Y1150018D02*
X829167D01*
X811864Y1033378D02*
X829135D01*
X811874Y1063618D02*
X829125D01*
X815550Y1186198D02*
X829056D01*
X802800Y1073338D02*
X828812D01*
X822310Y866518D02*
X828796D01*
X822261Y994498D02*
X828745D01*
X812261Y886498D02*
X828738D01*
X815550Y1131658D02*
X828694D01*
X812310Y974518D02*
X828689D01*
X815550Y1150558D02*
X828647D01*
X815550Y1187818D02*
X828552D01*
X821864Y925378D02*
X828429D01*
X821797Y935638D02*
X828388D01*
X812617Y945358D02*
X828382D01*
X816430Y1101418D02*
X828375D01*
X812656Y915658D02*
X828343D01*
X815550Y1151098D02*
X828290D01*
X802800Y1073878D02*
X828272D01*
X821139Y984238D02*
X828126D01*
X820787Y1197538D02*
X828110D01*
X820974Y876778D02*
X828091D01*
X812913Y1004218D02*
X828086D01*
X815550Y1151638D02*
X828074D01*
X812947Y856798D02*
X828052D01*
X815550Y1131118D02*
X827994D01*
X815550Y1185658D02*
X827983D01*
X815550Y1152178D02*
X827966D01*
X815550Y1175938D02*
X827949D01*
X815550Y1175398D02*
X827949D01*
X815550Y1174858D02*
X827949D01*
X824674Y1174318D02*
X827949D01*
X825969Y1173778D02*
X827949D01*
X826732Y1173238D02*
X827949D01*
X827281Y1172698D02*
X827949D01*
X827697Y1172158D02*
X827949D01*
X827682Y1166218D02*
X827949D01*
X827261Y1165678D02*
X827949D01*
X826705Y1165138D02*
X827949D01*
X825930Y1164598D02*
X827949D01*
X824587Y1164058D02*
X827949D01*
X815550Y1163518D02*
X827949D01*
X815550Y1162978D02*
X827949D01*
X815550Y1162438D02*
X827949D01*
X815550Y1161898D02*
X827949D01*
X815550Y1161358D02*
X827949D01*
X815550Y1160818D02*
X827949D01*
X815550Y1160278D02*
X827949D01*
X815550Y1159738D02*
X827949D01*
X815550Y1159198D02*
X827949D01*
X815550Y1158658D02*
X827949D01*
X815550Y1158118D02*
X827949D01*
X815550Y1157578D02*
X827949D01*
X815550Y1157038D02*
X827949D01*
X815550Y1156498D02*
X827949D01*
X815550Y1155958D02*
X827949D01*
X815550Y1155418D02*
X827949D01*
X815550Y1154878D02*
X827949D01*
X815550Y1154338D02*
X827949D01*
X815550Y1153798D02*
X827949D01*
X815550Y1153258D02*
X827949D01*
X815550Y1152718D02*
X827949D01*
X813130Y1053898D02*
X827869D01*
X813134Y1043098D02*
X827865D01*
X813164Y1033918D02*
X827835D01*
X813169Y1063078D02*
X827830D01*
X815550Y1176478D02*
X827781D01*
X802800Y1074418D02*
X827732D01*
X815890Y1101958D02*
X827727D01*
X815550Y1188358D02*
X827671D01*
X813333Y865978D02*
X827666D01*
X813361Y995038D02*
X827638D01*
X813365Y885958D02*
X827634D01*
X813392Y975058D02*
X827607D01*
X813543Y924838D02*
X827456D01*
X815550Y1130578D02*
X827454D01*
X813568Y936178D02*
X827431D01*
X813572Y944818D02*
X827427D01*
X813596Y916198D02*
X827403D01*
X820247Y1196998D02*
X827370D01*
X815550Y1185118D02*
X827279D01*
X813734Y983698D02*
X827265D01*
X813756Y877318D02*
X827243D01*
X813760Y1003678D02*
X827239D01*
X813782Y857338D02*
X827217D01*
X802800Y1074958D02*
X827192D01*
X815550Y1102498D02*
X827187D01*
X815550Y1177018D02*
X827133D01*
X813905Y1054438D02*
X827094D01*
X813908Y1042558D02*
X827091D01*
X813929Y1034458D02*
X827070D01*
X813932Y1062538D02*
X827067D01*
X815550Y1188898D02*
X827052D01*
X814046Y865438D02*
X826953D01*
X814065Y995578D02*
X826934D01*
X814068Y885418D02*
X826931D01*
X815550Y1130038D02*
X826914D01*
X814087Y975598D02*
X826912D01*
X819707Y1196458D02*
X826826D01*
X814195Y924298D02*
X826804D01*
X814213Y936718D02*
X826786D01*
X814216Y944278D02*
X826783D01*
X814234Y916738D02*
X826765D01*
X815550Y1184578D02*
X826757D01*
X814334Y983158D02*
X826665D01*
X802800Y1075498D02*
X826652D01*
X814351Y877858D02*
X826648D01*
X815550Y1103038D02*
X826647D01*
X814353Y1003138D02*
X826646D01*
X815550Y1177558D02*
X826645D01*
X814369Y857878D02*
X826630D01*
X815550Y1189438D02*
X826583D01*
X814461Y1054978D02*
X826538D01*
X814463Y1042018D02*
X826536D01*
X814478Y1034998D02*
X826521D01*
X814481Y1061998D02*
X826518D01*
X814566Y864898D02*
X826433D01*
X814581Y996118D02*
X826418D01*
X814583Y884878D02*
X826416D01*
X819167Y1195918D02*
X826409D01*
X814597Y976138D02*
X826402D01*
X815550Y1129498D02*
X826374D01*
X815550Y1184038D02*
X826355D01*
X814679Y923758D02*
X826320D01*
X814693Y937258D02*
X826306D01*
X814695Y943738D02*
X826304D01*
X814708Y917278D02*
X826291D01*
X815550Y1178098D02*
X826268D01*
X815550Y1189978D02*
X826220D01*
X814785Y982618D02*
X826214D01*
X814797Y878398D02*
X826202D01*
X814799Y1002598D02*
X826200D01*
X814812Y858418D02*
X826187D01*
X814882Y1055518D02*
X826117D01*
X814883Y1041478D02*
X826116D01*
X802800Y1076038D02*
X826112D01*
X815550Y1103578D02*
X826107D01*
X814895Y1035538D02*
X826104D01*
X814897Y1061458D02*
X826102D01*
X818627Y1195378D02*
X826085D01*
X815550Y1183498D02*
X826044D01*
X814962Y864358D02*
X826037D01*
X814974Y996658D02*
X826025D01*
X814975Y884338D02*
X826024D01*
X814986Y976678D02*
X826013D01*
X815550Y1178638D02*
X825977D01*
X815049Y923218D02*
X825950D01*
X815550Y1190518D02*
X825940D01*
X815059Y937798D02*
X825940D01*
X815061Y943198D02*
X825938D01*
X815071Y917818D02*
X825928D01*
X815130Y982078D02*
X825869D01*
X815140Y878938D02*
X825859D01*
X815141Y1002058D02*
X825858D01*
X815151Y858958D02*
X825848D01*
X818087Y1194838D02*
X825837D01*
X815550Y1128958D02*
X825834D01*
X815550Y1182958D02*
X825807D01*
X815204Y1056058D02*
X825795D01*
X815205Y1040938D02*
X825794D01*
X815214Y1036078D02*
X825785D01*
X815215Y1060918D02*
X825784D01*
X815550Y1179178D02*
X825757D01*
X815265Y863818D02*
X825734D01*
X815550Y1191058D02*
X825730D01*
X815274Y997198D02*
X825725D01*
X815275Y883798D02*
X825724D01*
X815283Y977218D02*
X825716D01*
X815331Y922678D02*
X825668D01*
X815339Y938338D02*
X825660D01*
X815340Y942658D02*
X825659D01*
X817547Y1194298D02*
X825656D01*
X815348Y918358D02*
X825651D01*
X815550Y1182418D02*
X825634D01*
X815392Y981538D02*
X825607D01*
X815399Y879478D02*
X825600D01*
X815550Y1179718D02*
X825599D01*
X815400Y1001518D02*
X825599D01*
X815407Y859498D02*
X825592D01*
X815550Y1191598D02*
X825581D01*
X802800Y1076578D02*
X825572D01*
X815550Y1104118D02*
X825567D01*
X815447Y1056598D02*
X825552D01*
X815448Y1040398D02*
X825551D01*
X815454Y1036618D02*
X825545D01*
X815455Y1060378D02*
X825544D01*
X817007Y1193758D02*
X825533D01*
X815550Y1181878D02*
X825519D01*
X815492Y863278D02*
X825507D01*
X815498Y997738D02*
X825501D01*
X815499Y883258D02*
X825500D01*
X815550Y1180258D02*
X825499D01*
X815505Y977758D02*
X825494D01*
X815550Y1192138D02*
X825489D01*
X816467Y1193218D02*
X825465D01*
X815550Y1181338D02*
X825460D01*
X815540Y922138D02*
X825459D01*
X815545Y938878D02*
X825454D01*
X815550Y1180798D02*
X825453D01*
X815546Y942118D02*
X825453D01*
X815927Y1192678D02*
X825451D01*
X815552Y918898D02*
X825447D01*
X815583Y980998D02*
X825416D01*
X815588Y880018D02*
X825411D01*
X815589Y1000978D02*
X825410D01*
X815594Y860038D02*
X825405D01*
X815622Y1057138D02*
X825377D01*
X815622Y1039858D02*
X825377D01*
X815627Y1037158D02*
X825372D01*
X815628Y1059838D02*
X825371D01*
X815653Y862738D02*
X825346D01*
X815657Y998278D02*
X825342D01*
X815658Y882718D02*
X825342D01*
X815662Y978298D02*
X825337D01*
X815684Y921598D02*
X825315D01*
X815688Y939418D02*
X825311D01*
X815689Y941578D02*
X825310D01*
X815692Y919438D02*
X825307D01*
X815550Y1128418D02*
X825294D01*
X815712Y980458D02*
X825287D01*
X815715Y880558D02*
X825284D01*
X815716Y1000438D02*
X825283D01*
X815719Y860578D02*
X825280D01*
X815736Y1057678D02*
X825264D01*
X815736Y1039318D02*
X825263D01*
X815739Y1037698D02*
X825260D01*
X815739Y1059298D02*
X825260D01*
X815753Y862198D02*
X825246D01*
X815756Y998818D02*
X825243D01*
X815756Y882178D02*
X825243D01*
X815758Y978838D02*
X825241D01*
X815770Y921058D02*
X825229D01*
X815772Y939958D02*
X825227D01*
X815772Y941038D02*
X825227D01*
X815774Y919978D02*
X825225D01*
X815783Y979918D02*
X825216D01*
X815784Y881098D02*
X825215D01*
X815785Y999898D02*
X825214D01*
X815786Y861118D02*
X825213D01*
X815792Y1058218D02*
X825207D01*
X815792Y1038778D02*
X825207D01*
X815793Y1038238D02*
X825206D01*
X815793Y1058758D02*
X825206D01*
X815797Y861658D02*
X825202D01*
X815798Y999358D02*
X825201D01*
X815798Y881638D02*
X825201D01*
X815798Y979378D02*
X825201D01*
X815799Y920518D02*
X825200D01*
X815800Y940498D02*
X825199D01*
X802800Y1077118D02*
X825032D01*
X815550Y1104658D02*
X825027D01*
X815550Y1127878D02*
X824754D01*
X802800Y1077658D02*
X824492D01*
X802800Y1078198D02*
X823952D01*
X802800Y1078738D02*
X823412D01*
X802800Y1079278D02*
X822872D01*
X815550Y1115998D02*
X822747D01*
X802800Y1079818D02*
X822332D01*
X802800Y810898D02*
X822013D01*
X815550Y1164058D02*
X822012D01*
X815550Y1174318D02*
X821925D01*
X815550Y1105198D02*
X821857D01*
X802800Y836278D02*
X821841D01*
X802800Y1080358D02*
X821792D01*
X815550Y1117078D02*
X821649D01*
X802800Y1221298D02*
X821276D01*
X802800Y1080898D02*
X821252D01*
X815550Y1127338D02*
X821149D01*
X802800Y1211578D02*
X821098D01*
X815550Y1115458D02*
X821007D01*
X802800Y1081438D02*
X820712D01*
X815550Y1164598D02*
X820669D01*
X815550Y1105738D02*
X820648D01*
X815550Y1173778D02*
X820630D01*
X802800Y1263958D02*
X820590D01*
X815550Y1117618D02*
X820536D01*
X802800Y1288798D02*
X820419D01*
X802800Y1220758D02*
X820284D01*
X815550Y1126798D02*
X820234D01*
X802800Y1212118D02*
X820175D01*
X802800Y1081978D02*
X820172D01*
X815550Y1114918D02*
X820141D01*
X812908Y876778D02*
X820025D01*
X815550Y1106278D02*
X819896D01*
X815550Y1165138D02*
X819894D01*
X815550Y1173238D02*
X819867D01*
X812873Y984238D02*
X819860D01*
X815550Y1118158D02*
X819817D01*
X802800Y1082518D02*
X819632D01*
X802800Y1220218D02*
X819624D01*
X802800Y811438D02*
X819607D01*
X815550Y1126258D02*
X819598D01*
X802800Y1212658D02*
X819545D01*
X802800Y835738D02*
X819538D01*
X815550Y1114378D02*
X819530D01*
X815550Y1106818D02*
X819346D01*
X815550Y1165678D02*
X819338D01*
X815550Y1172698D02*
X819318D01*
X815550Y1118698D02*
X819286D01*
X812611Y935638D02*
X819202D01*
X802800Y1219678D02*
X819135D01*
X812570Y925378D02*
X819135D01*
X815550Y1125718D02*
X819119D01*
X802800Y1083058D02*
X819092D01*
X802800Y1213198D02*
X819076D01*
X815550Y1113838D02*
X819066D01*
X815550Y1107358D02*
X818924D01*
X815550Y1166218D02*
X818917D01*
X815550Y1172158D02*
X818902D01*
X802800Y1264498D02*
X818888D01*
X815550Y1119238D02*
X818877D01*
X802800Y1288258D02*
X818782D01*
X802800Y1219138D02*
X818762D01*
X815550Y1125178D02*
X818748D01*
X812254Y994498D02*
X818738D01*
X802800Y1213738D02*
X818716D01*
X815550Y1113298D02*
X818707D01*
X812203Y866518D02*
X818689D01*
X815550Y1107898D02*
X818597D01*
X815550Y1166758D02*
X818595D01*
X815550Y1171618D02*
X818584D01*
X815550Y1119778D02*
X818561D01*
X802800Y1209958D02*
X818555D01*
X802800Y1083598D02*
X818552D01*
X802800Y1218598D02*
X818477D01*
X815550Y1124638D02*
X818461D01*
X802800Y1214278D02*
X818443D01*
X815550Y1112758D02*
X818430D01*
X811797Y1043638D02*
X818388D01*
X811787Y1053358D02*
X818382D01*
X815550Y1167298D02*
X818352D01*
X815550Y1108438D02*
X818346D01*
X815550Y1171078D02*
X818344D01*
X815550Y1120318D02*
X818319D01*
X802800Y1218058D02*
X818266D01*
X815550Y1124098D02*
X818245D01*
X802800Y1214818D02*
X818241D01*
X802800Y811978D02*
X818234D01*
X815550Y1112218D02*
X818222D01*
X802800Y835198D02*
X818186D01*
X815550Y1167838D02*
X818177D01*
X815550Y1170538D02*
X818171D01*
X815550Y1108978D02*
X818162D01*
X815550Y1120858D02*
X818143D01*
X811139Y876238D02*
X818126D01*
X802800Y1217518D02*
X818119D01*
X802800Y1215358D02*
X818103D01*
X815550Y1123558D02*
X818092D01*
X810974Y984778D02*
X818091D01*
X815550Y1111678D02*
X818076D01*
X815550Y1168378D02*
X818064D01*
X815550Y1169998D02*
X818060D01*
X815550Y1109518D02*
X818037D01*
X802800Y1216978D02*
X818031D01*
X815550Y1121398D02*
X818025D01*
X802800Y1215898D02*
X818023D01*
X802800Y1084138D02*
X818012D01*
X815550Y1168918D02*
X818007D01*
X815550Y1169458D02*
X818006D01*
X802800Y1216438D02*
X818000D01*
X815550Y1123018D02*
X817995D01*
X815550Y1111138D02*
X817986D01*
X815550Y1110058D02*
X817967D01*
X815550Y1121938D02*
X817962D01*
X815550Y1122478D02*
X817952D01*
X815550Y1110598D02*
X817950D01*
X802800Y935098D02*
X817865D01*
X802800Y925918D02*
X817835D01*
X802800Y1265038D02*
X817704D01*
X802800Y993958D02*
X817634D01*
X802800Y1287718D02*
X817622D01*
X802800Y867058D02*
X817607D01*
X802800Y1084678D02*
X817472D01*
X802800Y1044178D02*
X817431D01*
X802800Y1052818D02*
X817427D01*
X802800Y875698D02*
X817265D01*
X802800Y1209418D02*
X817246D01*
X802800Y985318D02*
X817243D01*
X802800Y812518D02*
X817193D01*
X802800Y834658D02*
X817154D01*
X802800Y934558D02*
X817091D01*
X802800Y926458D02*
X817070D01*
X802800Y1085218D02*
X816932D01*
X802800Y993418D02*
X816931D01*
X802800Y867598D02*
X816912D01*
X802800Y1044718D02*
X816786D01*
X802800Y1052278D02*
X816783D01*
X802800Y1265578D02*
X816763D01*
X802800Y1287178D02*
X816696D01*
X802800Y875158D02*
X816665D01*
X802800Y985858D02*
X816648D01*
X802800Y934018D02*
X816536D01*
X802800Y926998D02*
X816521D01*
X802800Y1208878D02*
X816465D01*
X802800Y992878D02*
X816416D01*
X802800Y868138D02*
X816402D01*
X802800Y1085758D02*
X816392D01*
X802800Y813058D02*
X816339D01*
X802800Y1045258D02*
X816306D01*
X802800Y834118D02*
X816306D01*
X802800Y1051738D02*
X816304D01*
X802800Y874618D02*
X816214D01*
X802800Y986398D02*
X816202D01*
X802800Y933478D02*
X816116D01*
X802800Y927538D02*
X816104D01*
X802800Y992338D02*
X816024D01*
X802800Y868678D02*
X816013D01*
X802800Y1266118D02*
X815975D01*
X802800Y1045798D02*
X815940D01*
X802800Y1051198D02*
X815938D01*
X802800Y1286638D02*
X815918D01*
X802800Y1208338D02*
X815889D01*
X802800Y874078D02*
X815869D01*
X802800Y986938D02*
X815859D01*
X802800Y1086298D02*
X815852D01*
X802800Y932938D02*
X815794D01*
X802800Y928078D02*
X815785D01*
X802800Y991798D02*
X815724D01*
X802800Y869218D02*
X815716D01*
X802800Y1046338D02*
X815660D01*
X802800Y1050658D02*
X815659D01*
X802800Y813598D02*
X815611D01*
X802800Y873538D02*
X815607D01*
X802800Y987478D02*
X815600D01*
X802800Y833578D02*
X815583D01*
X802800Y932398D02*
X815551D01*
X802800Y928618D02*
X815545D01*
X802800Y991258D02*
X815500D01*
X802800Y869758D02*
X815494D01*
X802800Y1046878D02*
X815454D01*
X802800Y1050118D02*
X815453D01*
X802800Y872998D02*
X815416D01*
X802800Y988018D02*
X815411D01*
X802800Y931858D02*
X815377D01*
X802800Y929158D02*
X815372D01*
X802800Y1207798D02*
X815349D01*
X802800Y990718D02*
X815342D01*
X802800Y870298D02*
X815337D01*
X802800Y1086838D02*
X815312D01*
X802800Y1047418D02*
X815311D01*
X802800Y1049578D02*
X815310D01*
X802800Y1266658D02*
X815296D01*
X802800Y872458D02*
X815287D01*
X802800Y988558D02*
X815284D01*
X802800Y931318D02*
X815263D01*
X802800Y929698D02*
X815260D01*
X802800Y1286098D02*
X815246D01*
X802800Y990178D02*
X815243D01*
X802800Y870838D02*
X815241D01*
X802800Y1047958D02*
X815227D01*
X802800Y1049038D02*
X815227D01*
X802800Y871918D02*
X815216D01*
X802800Y989098D02*
X815215D01*
X802800Y930778D02*
X815207D01*
X802800Y930238D02*
X815206D01*
X802800Y989638D02*
X815201D01*
X802800Y871378D02*
X815201D01*
X802800Y1048498D02*
X815199D01*
X802800Y814138D02*
X814978D01*
X802800Y833038D02*
X814954D01*
X802800Y1207258D02*
X814809D01*
X802800Y1087378D02*
X814772D01*
X802800Y1267198D02*
X814701D01*
X802800Y1285558D02*
X814658D01*
X802800Y814678D02*
X814421D01*
X802800Y832498D02*
X814399D01*
X802800Y1206718D02*
X814269D01*
X802800Y1087918D02*
X814232D01*
X802800Y1267738D02*
X814175D01*
X802800Y1285018D02*
X814136D01*
X802800Y815218D02*
X813925D01*
X802800Y831958D02*
X813906D01*
X802800Y1206178D02*
X813729D01*
X802800Y1268278D02*
X813706D01*
X802800Y1088458D02*
X813692D01*
X802800Y1284478D02*
X813671D01*
X802800Y815758D02*
X813482D01*
X802800Y831418D02*
X813465D01*
X802800Y1268818D02*
X813286D01*
X802800Y1283938D02*
X813255D01*
X802800Y1205638D02*
X813189D01*
X802800Y1088998D02*
X813152D01*
X802800Y816298D02*
X813086D01*
X802800Y830878D02*
X813070D01*
X802800Y1269358D02*
X812910D01*
X802800Y1283398D02*
X812882D01*
X802800Y816838D02*
X812731D01*
X802800Y830338D02*
X812717D01*
X802800Y1205098D02*
X812649D01*
X802800Y1089538D02*
X812612D01*
X802800Y1269898D02*
X812573D01*
X802800Y1282858D02*
X812548D01*
X802800Y817378D02*
X812413D01*
X802800Y829798D02*
X812401D01*
X802800Y1270438D02*
X812272D01*
X802800Y1282318D02*
X812250D01*
X802800Y817918D02*
X812129D01*
X802800Y829258D02*
X812118D01*
X802800Y1204558D02*
X812109D01*
X802800Y1090078D02*
X812072D01*
X802800Y1270978D02*
X812004D01*
X802800Y1281778D02*
X811984D01*
X802800Y818458D02*
X811877D01*
X802800Y828718D02*
X811868D01*
X802800Y1271518D02*
X811767D01*
X802800Y1281238D02*
X811749D01*
X802800Y818998D02*
X811655D01*
X802800Y828178D02*
X811646D01*
X802800Y1204018D02*
X811569D01*
X802800Y1272058D02*
X811558D01*
X802800Y1280698D02*
X811543D01*
X802800Y1090618D02*
X811532D01*
X802800Y819538D02*
X811461D01*
X802800Y827638D02*
X811453D01*
X802800Y1272598D02*
X811377D01*
X802800Y1280158D02*
X811364D01*
X802800Y820078D02*
X811293D01*
X802800Y827098D02*
X811287D01*
X802800Y1273138D02*
X811222D01*
X802800Y1279618D02*
X811211D01*
X802800Y820618D02*
X811152D01*
X802800Y826558D02*
X811146D01*
X802800Y1273678D02*
X811092D01*
X802800Y1279078D02*
X811083D01*
X802800Y821158D02*
X811034D01*
X802800Y826018D02*
X811030D01*
X802800Y1203478D02*
X811029D01*
X802800Y1091158D02*
X810992D01*
X802800Y1274218D02*
X810987D01*
X802800Y1278538D02*
X810979D01*
X802800Y821698D02*
X810941D01*
X802800Y825478D02*
X810938D01*
X802800Y1274758D02*
X810905D01*
X802800Y1277998D02*
X810900D01*
X802800Y822238D02*
X810872D01*
X802800Y824938D02*
X810870D01*
X802800Y1275298D02*
X810847D01*
X802800Y1277458D02*
X810843D01*
X802800Y822778D02*
X810826D01*
X802800Y824398D02*
X810824D01*
X802800Y1275838D02*
X810812D01*
X802800Y1276918D02*
X810810D01*
X802800Y823318D02*
X810803D01*
X802800Y823858D02*
X810802D01*
X802800Y1276378D02*
X810799D01*
X802800Y1202938D02*
X810489D01*
X802800Y1091698D02*
X810452D01*
X802800Y984778D02*
X810025D01*
X802800Y1202398D02*
X809949D01*
X802800Y1092238D02*
X809912D01*
X802800Y876238D02*
X809860D01*
X802800Y1004758D02*
X809839D01*
X802800Y856258D02*
X809713D01*
X802800Y1201858D02*
X809409D01*
X802800Y1092778D02*
X809372D01*
X802800Y1053358D02*
X809212D01*
X802800Y1043638D02*
X809202D01*
X802800Y1033378D02*
X809135D01*
X802800Y1063618D02*
X809125D01*
X802800Y1201318D02*
X808869D01*
X802800Y1093318D02*
X808832D01*
X802800Y866518D02*
X808796D01*
X802800Y994498D02*
X808745D01*
X802800Y886498D02*
X808738D01*
X802800Y974518D02*
X808689D01*
X802800Y925378D02*
X808429D01*
X802800Y935638D02*
X808388D01*
X802800Y945358D02*
X808382D01*
X802800Y915658D02*
X808343D01*
X802800Y1200778D02*
X808329D01*
X802800Y1093858D02*
X808292D01*
X802800Y984238D02*
X808126D01*
X802800Y876778D02*
X808091D01*
X802800Y1004218D02*
X808086D01*
X802800Y856798D02*
X808052D01*
X802800Y1053898D02*
X807869D01*
X802800Y1043098D02*
X807865D01*
X802800Y1033918D02*
X807835D01*
X802800Y1063078D02*
X807830D01*
X802800Y1200238D02*
X807789D01*
X802800Y1094398D02*
X807752D01*
X802800Y865978D02*
X807666D01*
X802800Y995038D02*
X807638D01*
X802800Y885958D02*
X807634D01*
X802800Y975058D02*
X807607D01*
X802800Y924838D02*
X807456D01*
X802800Y936178D02*
X807431D01*
X802800Y944818D02*
X807427D01*
X802800Y916198D02*
X807403D01*
X802800Y983698D02*
X807265D01*
X802800Y1199698D02*
X807249D01*
X802800Y877318D02*
X807243D01*
X802800Y1003678D02*
X807239D01*
X802800Y857338D02*
X807217D01*
X802800Y1094938D02*
X807212D01*
X802800Y1054438D02*
X807094D01*
X802800Y1042558D02*
X807091D01*
X802800Y1034458D02*
X807070D01*
X802800Y1062538D02*
X807067D01*
X802800Y865438D02*
X806953D01*
X802800Y995578D02*
X806934D01*
X802800Y885418D02*
X806931D01*
X802800Y975598D02*
X806912D01*
X802800Y924298D02*
X806804D01*
X802800Y936718D02*
X806786D01*
X802800Y944278D02*
X806783D01*
X802800Y916738D02*
X806765D01*
X802800Y1199158D02*
X806709D01*
X802800Y1095478D02*
X806672D01*
X802800Y983158D02*
X806665D01*
X802800Y877858D02*
X806648D01*
X802800Y1003138D02*
X806646D01*
X802800Y857878D02*
X806630D01*
X802800Y1054978D02*
X806538D01*
X802800Y1042018D02*
X806536D01*
X802800Y1034998D02*
X806521D01*
X802800Y1061998D02*
X806518D01*
X802800Y864898D02*
X806433D01*
X802800Y996118D02*
X806418D01*
X802800Y884878D02*
X806416D01*
X802800Y976138D02*
X806402D01*
X802800Y923758D02*
X806320D01*
X802800Y937258D02*
X806306D01*
X802800Y943738D02*
X806304D01*
X802800Y917278D02*
X806291D01*
X802800Y982618D02*
X806214D01*
X802800Y878398D02*
X806202D01*
X802800Y1002598D02*
X806200D01*
X802800Y858418D02*
X806187D01*
X802800Y1198618D02*
X806169D01*
X802800Y1096018D02*
X806132D01*
X802800Y1055518D02*
X806117D01*
X802800Y1041478D02*
X806116D01*
X802800Y1035538D02*
X806104D01*
X802800Y1061458D02*
X806102D01*
X802800Y864358D02*
X806037D01*
X802800Y996658D02*
X806025D01*
X802800Y884338D02*
X806024D01*
X802800Y976678D02*
X806013D01*
X802800Y923218D02*
X805950D01*
X802800Y937798D02*
X805940D01*
X802800Y943198D02*
X805938D01*
X802800Y917818D02*
X805928D01*
X802800Y982078D02*
X805869D01*
X802800Y878938D02*
X805859D01*
X802800Y1002058D02*
X805858D01*
X802800Y858958D02*
X805848D01*
X802800Y1056058D02*
X805795D01*
X802800Y1040938D02*
X805794D01*
X802800Y1036078D02*
X805785D01*
X802800Y1060918D02*
X805784D01*
X802800Y863818D02*
X805734D01*
X802800Y997198D02*
X805725D01*
X802800Y883798D02*
X805724D01*
X802800Y977218D02*
X805716D01*
X802800Y1198078D02*
X805675D01*
X802800Y922678D02*
X805668D01*
X802800Y938338D02*
X805660D01*
X802800Y942658D02*
X805659D01*
X802800Y918358D02*
X805651D01*
X802800Y1096558D02*
X805645D01*
X802800Y981538D02*
X805607D01*
X802800Y879478D02*
X805600D01*
X802800Y1001518D02*
X805599D01*
X802800Y859498D02*
X805592D01*
X802800Y1056598D02*
X805552D01*
X802800Y1040398D02*
X805551D01*
X802800Y1036618D02*
X805545D01*
X802800Y1060378D02*
X805544D01*
X802800Y863278D02*
X805507D01*
X802800Y997738D02*
X805501D01*
X802800Y883258D02*
X805500D01*
X802800Y977758D02*
X805494D01*
X802800Y922138D02*
X805459D01*
X802800Y938878D02*
X805454D01*
X802800Y942118D02*
X805453D01*
X802800Y918898D02*
X805447D01*
X802800Y980998D02*
X805416D01*
X802800Y880018D02*
X805411D01*
X802800Y1000978D02*
X805410D01*
X802800Y860038D02*
X805405D01*
X802800Y1057138D02*
X805377D01*
X802800Y1039858D02*
X805377D01*
X802800Y1037158D02*
X805372D01*
X802800Y1059838D02*
X805371D01*
X802800Y862738D02*
X805346D01*
X802800Y998278D02*
X805342D01*
X802800Y882718D02*
X805342D01*
X802800Y978298D02*
X805337D01*
X802800Y921598D02*
X805315D01*
X802800Y939418D02*
X805311D01*
X802800Y941578D02*
X805310D01*
X802800Y919438D02*
X805307D01*
X802800Y1197538D02*
X805291D01*
X802800Y980458D02*
X805287D01*
X802800Y880558D02*
X805284D01*
X802800Y1000438D02*
X805283D01*
X802800Y860578D02*
X805280D01*
X802800Y1097098D02*
X805268D01*
X802800Y1057678D02*
X805264D01*
X802800Y1039318D02*
X805263D01*
X802800Y1037698D02*
X805260D01*
X802800Y1059298D02*
X805260D01*
X802800Y862198D02*
X805246D01*
X802800Y998818D02*
X805243D01*
X802800Y882178D02*
X805243D01*
X802800Y978838D02*
X805241D01*
X802800Y921058D02*
X805229D01*
X802800Y939958D02*
X805227D01*
X802800Y941038D02*
X805227D01*
X802800Y919978D02*
X805225D01*
X802800Y979918D02*
X805216D01*
X802800Y881098D02*
X805215D01*
X802800Y999898D02*
X805214D01*
X802800Y861118D02*
X805213D01*
X802800Y1058218D02*
X805207D01*
X802800Y1038778D02*
X805207D01*
X802800Y1038238D02*
X805206D01*
X802800Y1058758D02*
X805206D01*
X802800Y861658D02*
X805202D01*
X802800Y999358D02*
X805201D01*
X802800Y881638D02*
X805201D01*
X802800Y979378D02*
X805201D01*
X802800Y920518D02*
X805200D01*
X802800Y940498D02*
X805199D01*
X802800Y1196998D02*
X804995D01*
X802800Y1097638D02*
X804977D01*
X802800Y1196458D02*
X804770D01*
X802800Y1098178D02*
X804757D01*
X802800Y1195918D02*
X804608D01*
X802800Y1098718D02*
X804599D01*
X802800Y1195378D02*
X804504D01*
X802800Y1099258D02*
X804499D01*
X802800Y1194838D02*
X804455D01*
X802800Y1099798D02*
X804453D01*
X802800Y1194298D02*
X804449D01*
X802800Y1193758D02*
X804449D01*
X802800Y1193218D02*
X804449D01*
X802800Y1192678D02*
X804449D01*
X802800Y1192138D02*
X804449D01*
X802800Y1191598D02*
X804449D01*
X802800Y1191058D02*
X804449D01*
X802800Y1190518D02*
X804449D01*
X802800Y1189978D02*
X804449D01*
X802800Y1189438D02*
X804449D01*
X802800Y1188898D02*
X804449D01*
X802800Y1188358D02*
X804449D01*
X802800Y1187818D02*
X804449D01*
X802800Y1187278D02*
X804449D01*
X802800Y1186738D02*
X804449D01*
X802800Y1186198D02*
X804449D01*
X802800Y1185658D02*
X804449D01*
X802800Y1185118D02*
X804449D01*
X802800Y1184578D02*
X804449D01*
X802800Y1184038D02*
X804449D01*
X802800Y1183498D02*
X804449D01*
X802800Y1182958D02*
X804449D01*
X802800Y1182418D02*
X804449D01*
X802800Y1181878D02*
X804449D01*
X802800Y1181338D02*
X804449D01*
X802800Y1180798D02*
X804449D01*
X802800Y1180258D02*
X804449D01*
X802800Y1179718D02*
X804449D01*
X802800Y1179178D02*
X804449D01*
X802800Y1178638D02*
X804449D01*
X802800Y1178098D02*
X804449D01*
X802800Y1177558D02*
X804449D01*
X802800Y1177018D02*
X804449D01*
X802800Y1176478D02*
X804449D01*
X802800Y1175938D02*
X804449D01*
X802800Y1175398D02*
X804449D01*
X802800Y1174858D02*
X804449D01*
X802800Y1174318D02*
X804449D01*
X802800Y1173778D02*
X804449D01*
X802800Y1173238D02*
X804449D01*
X802800Y1172698D02*
X804449D01*
X802800Y1172158D02*
X804449D01*
X802800Y1171618D02*
X804449D01*
X802800Y1171078D02*
X804449D01*
X802800Y1170538D02*
X804449D01*
X802800Y1169998D02*
X804449D01*
X802800Y1169458D02*
X804449D01*
X802800Y1168918D02*
X804449D01*
X802800Y1168378D02*
X804449D01*
X802800Y1167838D02*
X804449D01*
X802800Y1167298D02*
X804449D01*
X802800Y1166758D02*
X804449D01*
X802800Y1166218D02*
X804449D01*
X802800Y1165678D02*
X804449D01*
X802800Y1165138D02*
X804449D01*
X802800Y1164598D02*
X804449D01*
X802800Y1164058D02*
X804449D01*
X802800Y1163518D02*
X804449D01*
X802800Y1162978D02*
X804449D01*
X802800Y1162438D02*
X804449D01*
X802800Y1161898D02*
X804449D01*
X802800Y1161358D02*
X804449D01*
X802800Y1160818D02*
X804449D01*
X802800Y1160278D02*
X804449D01*
X802800Y1159738D02*
X804449D01*
X802800Y1159198D02*
X804449D01*
X802800Y1158658D02*
X804449D01*
X802800Y1158118D02*
X804449D01*
X802800Y1157578D02*
X804449D01*
X802800Y1157038D02*
X804449D01*
X802800Y1156498D02*
X804449D01*
X802800Y1155958D02*
X804449D01*
X802800Y1155418D02*
X804449D01*
X802800Y1154878D02*
X804449D01*
X802800Y1154338D02*
X804449D01*
X802800Y1153798D02*
X804449D01*
X802800Y1153258D02*
X804449D01*
X802800Y1152718D02*
X804449D01*
X802800Y1152178D02*
X804449D01*
X802800Y1151638D02*
X804449D01*
X802800Y1151098D02*
X804449D01*
X802800Y1150558D02*
X804449D01*
X802800Y1150018D02*
X804449D01*
X802800Y1149478D02*
X804449D01*
X802800Y1148938D02*
X804449D01*
X802800Y1148398D02*
X804449D01*
X802800Y1147858D02*
X804449D01*
X802800Y1147318D02*
X804449D01*
X802800Y1146778D02*
X804449D01*
X802800Y1146238D02*
X804449D01*
X802800Y1145698D02*
X804449D01*
X802800Y1145158D02*
X804449D01*
X802800Y1144618D02*
X804449D01*
X802800Y1144078D02*
X804449D01*
X802800Y1143538D02*
X804449D01*
X802800Y1142998D02*
X804449D01*
X802800Y1142458D02*
X804449D01*
X802800Y1141918D02*
X804449D01*
X802800Y1141378D02*
X804449D01*
X802800Y1140838D02*
X804449D01*
X802800Y1140298D02*
X804449D01*
X802800Y1139758D02*
X804449D01*
X802800Y1139218D02*
X804449D01*
X802800Y1138678D02*
X804449D01*
X802800Y1138138D02*
X804449D01*
X802800Y1137598D02*
X804449D01*
X802800Y1137058D02*
X804449D01*
X802800Y1136518D02*
X804449D01*
X802800Y1135978D02*
X804449D01*
X802800Y1135438D02*
X804449D01*
X802800Y1134898D02*
X804449D01*
X802800Y1134358D02*
X804449D01*
X802800Y1133818D02*
X804449D01*
X802800Y1133278D02*
X804449D01*
X802800Y1132738D02*
X804449D01*
X802800Y1132198D02*
X804449D01*
X802800Y1131658D02*
X804449D01*
X802800Y1131118D02*
X804449D01*
X802800Y1130578D02*
X804449D01*
X802800Y1130038D02*
X804449D01*
X802800Y1129498D02*
X804449D01*
X802800Y1128958D02*
X804449D01*
X802800Y1128418D02*
X804449D01*
X802800Y1127878D02*
X804449D01*
X802800Y1127338D02*
X804449D01*
X802800Y1126798D02*
X804449D01*
X802800Y1126258D02*
X804449D01*
X802800Y1125718D02*
X804449D01*
X802800Y1125178D02*
X804449D01*
X802800Y1124638D02*
X804449D01*
X802800Y1124098D02*
X804449D01*
X802800Y1123558D02*
X804449D01*
X802800Y1123018D02*
X804449D01*
X802800Y1122478D02*
X804449D01*
X802800Y1121938D02*
X804449D01*
X802800Y1121398D02*
X804449D01*
X802800Y1120858D02*
X804449D01*
X802800Y1120318D02*
X804449D01*
X802800Y1119778D02*
X804449D01*
X802800Y1119238D02*
X804449D01*
X802800Y1118698D02*
X804449D01*
X802800Y1118158D02*
X804449D01*
X802800Y1117618D02*
X804449D01*
X802800Y1117078D02*
X804449D01*
X802800Y1116538D02*
X804449D01*
X802800Y1115998D02*
X804449D01*
X802800Y1115458D02*
X804449D01*
X802800Y1114918D02*
X804449D01*
X802800Y1114378D02*
X804449D01*
X802800Y1113838D02*
X804449D01*
X802800Y1113298D02*
X804449D01*
X802800Y1112758D02*
X804449D01*
X802800Y1112218D02*
X804449D01*
X802800Y1111678D02*
X804449D01*
X802800Y1111138D02*
X804449D01*
X802800Y1110598D02*
X804449D01*
X802800Y1110058D02*
X804449D01*
X802800Y1109518D02*
X804449D01*
X802800Y1108978D02*
X804449D01*
X802800Y1108438D02*
X804449D01*
X802800Y1107898D02*
X804449D01*
X802800Y1107358D02*
X804449D01*
X802800Y1106818D02*
X804449D01*
X802800Y1106278D02*
X804449D01*
X802800Y1105738D02*
X804449D01*
X802800Y1105198D02*
X804449D01*
X802800Y1104658D02*
X804449D01*
X802800Y1104118D02*
X804449D01*
X802800Y1103578D02*
X804449D01*
X802800Y1103038D02*
X804449D01*
X802800Y1102498D02*
X804449D01*
X802800Y1101958D02*
X804449D01*
X802800Y1101418D02*
X804449D01*
X802800Y1100878D02*
X804449D01*
X802800Y1100338D02*
X804449D01*
G54D138*
X1289500Y917500D03*
X1294000Y910000D03*
Y925000D03*
X1275000Y992500D03*
Y997500D03*
Y1002500D03*
X1067500Y1040000D03*
X1072500Y1045000D03*
X1082500D03*
X1090000Y1040000D03*
X1095000Y1060000D03*
X1085000D03*
X937500Y1252500D03*
X942500D03*
X947500D03*
X1015000D03*
X1010000D03*
X1020000D03*
X902500Y1295000D03*
X912500D03*
X907500D03*
X977500D03*
X972500D03*
X982500D03*
X1050000D03*
X1045000D03*
X1055000D03*
G54D193*
X956200Y850300D03*
G74*
X0Y0D02*
M02*
