*
*
G04 PADS Layout (Build Number 2005.103.1) generated Gerber (RS-274-X) file*
G04 PC Version=2.1*
*
%IN "7754.pcb"*%
*
%MOIN*%
*
%FSLAX35Y35*%
*
*
*
*
G04 PC Standard Apertures*
*
*
G04 Thermal Relief Aperture macro.*
%AMTER*
1,1,$1,0,0*
1,0,$1-$2,0,0*
21,0,$3,$4,0,0,45*
21,0,$3,$4,0,0,135*
%
*
*
G04 Annular Aperture macro.*
%AMANN*
1,1,$1,0,0*
1,0,$2,0,0*
%
*
*
G04 Odd Aperture macro.*
%AMODD*
1,1,$1,0,0*
1,0,$1-0.005,0,0*
%
*
*
G04 PC Custom Aperture Macros*
*
*
*
*
*
*
G04 PC Aperture Table*
*
%ADD013C,0.075*%
%ADD014C,0.065*%
%ADD052C,0.01*%
%ADD053C,0.02*%
%ADD058C,0.025*%
%ADD064C,0.006*%
%ADD138C,0.03*%
*
*
*
*
G04 PC Custom Flashes*
G04 Layer Name 7754.pcb - flashes*
%LPD*%
*
*
G04 PC Circuitry*
G04 Layer Name 7754.pcb - circuitry*
%LPD*%
*
G54D13*
G01X885000Y1274000D03*
X955500D03*
X991500Y1230500D03*
X1026500Y1274000D03*
X920500Y1230500D03*
X1328000Y1001000D03*
Y1031000D03*
G54D14*
X1141700Y861500D03*
X1147100Y850300D03*
X1141700Y839100D03*
G54D52*
X800000Y800000D02*
X1350000D01*
Y1300000*
X800000*
Y800000*
G54D53*
X1006909Y767812D02*
X1011909D01*
X1011909D02*
X1009181Y763312D01*
X1009181D02*
X1010545D01*
X1010545D02*
X1011454Y762750D01*
X1011454D02*
X1011909Y762187D01*
X1011909D02*
X1012363Y760500D01*
X1012363D02*
Y759375D01*
X1012363D02*
X1011909Y757687D01*
X1011909D02*
X1011000Y756562D01*
X1011000D02*
X1009636Y756000D01*
X1008272*
X1008272D02*
X1006909Y756562D01*
X1006909D02*
X1006454Y757125D01*
X1006454D02*
X1006000Y758250D01*
X1016454Y765562D02*
X1017363Y766125D01*
X1017363D02*
X1018727Y767812D01*
X1018727D02*
Y756000D01*
X1022818Y761062D02*
X1031000D01*
X1037818Y767812D02*
X1036454Y767250D01*
X1036454D02*
X1035545Y765562D01*
X1035545D02*
X1035090Y762750D01*
X1035090D02*
Y761062D01*
X1035090D02*
X1035545Y758250D01*
X1036454Y756562*
X1036454D02*
X1037818Y756000D01*
X1038727*
X1040090Y756562*
X1040090D02*
X1041000Y758250D01*
X1041454Y761062*
X1041454D02*
Y762750D01*
X1041454D02*
X1041000Y765562D01*
X1041000D02*
X1040090Y767250D01*
X1040090D02*
X1038727Y767812D01*
X1038727D02*
X1037818D01*
X1048272D02*
X1046909Y767250D01*
X1046000Y765562*
X1046000D02*
X1045545Y762750D01*
Y761062*
X1045545D02*
X1046000Y758250D01*
X1046909Y756562*
X1046909D02*
X1048272Y756000D01*
X1048272D02*
X1049181D01*
X1049181D02*
X1050545Y756562D01*
X1050545D02*
X1051454Y758250D01*
X1051454D02*
X1051909Y761062D01*
X1051909D02*
Y762750D01*
X1051454Y765562*
X1051454D02*
X1050545Y767250D01*
X1049181Y767812*
X1049181D02*
X1048272D01*
X1058727D02*
X1057363Y767250D01*
X1057363D02*
X1056454Y765562D01*
X1056454D02*
X1056000Y762750D01*
Y761062*
X1056000D02*
X1056454Y758250D01*
X1056454D02*
X1057363Y756562D01*
X1057363D02*
X1058727Y756000D01*
X1059636*
X1061000Y756562*
X1061000D02*
X1061909Y758250D01*
X1062363Y761062*
X1062363D02*
Y762750D01*
X1062363D02*
X1061909Y765562D01*
X1061909D02*
X1061000Y767250D01*
X1059636Y767812*
X1059636D02*
X1058727D01*
X1071000D02*
X1066454Y759937D01*
X1066454D02*
X1073272D01*
X1071000Y767812D02*
Y756000D01*
X1087818Y767812D02*
Y756000D01*
Y767812D02*
X1091909D01*
X1091909D02*
X1093272Y767250D01*
X1093272D02*
X1093727Y766687D01*
X1093727D02*
X1094181Y765562D01*
X1094181D02*
Y764437D01*
X1094181D02*
X1093727Y763312D01*
X1093727D02*
X1093272Y762750D01*
X1093272D02*
X1091909Y762187D01*
X1091909D02*
X1087818D01*
X1091000D02*
X1094181Y756000D01*
X1098272Y767812D02*
Y756000D01*
Y767812D02*
X1104181D01*
X1098272Y762187D02*
X1101909D01*
X1098272Y756000D02*
X1104181D01*
X1108272Y767812D02*
X1111909Y756000D01*
X1115545Y767812D02*
X1111909Y756000D01*
X1130090Y765562D02*
X1131000Y766125D01*
X1132363Y767812*
X1132363D02*
Y756000D01*
X1001000Y792812D02*
Y781000D01*
X1006454*
X1014181Y792812D02*
X1010545Y781000D01*
X1014181Y792812D02*
X1017818Y781000D01*
X1011909Y784937D02*
X1016454D01*
X1021909Y792812D02*
X1025545Y787187D01*
X1025545D02*
Y781000D01*
X1029181Y792812D02*
X1025545Y787187D01*
X1033272Y792812D02*
Y781000D01*
Y792812D02*
X1039181D01*
X1033272Y787187D02*
X1036909D01*
X1033272Y781000D02*
X1039181D01*
X1043272Y792812D02*
Y781000D01*
Y792812D02*
X1047363D01*
X1047363D02*
X1048727Y792250D01*
X1049181Y791687*
X1049181D02*
X1049636Y790562D01*
X1049636D02*
Y789437D01*
X1049636D02*
X1049181Y788312D01*
X1049181D02*
X1048727Y787750D01*
X1047363Y787187*
X1047363D02*
X1043272D01*
X1046454D02*
X1049636Y781000D01*
X1065090Y792812D02*
X1070090D01*
X1070090D02*
X1067363Y788312D01*
X1067363D02*
X1068727D01*
X1068727D02*
X1069636Y787750D01*
X1070090Y787187*
X1070090D02*
X1070545Y785500D01*
Y784375*
X1070090Y782687*
X1070090D02*
X1069181Y781562D01*
X1069181D02*
X1067818Y781000D01*
X1066454*
X1066454D02*
X1065090Y781562D01*
X1065090D02*
X1064636Y782125D01*
X1064181Y783250*
X1085090Y792812D02*
Y781000D01*
Y792812D02*
X1089181D01*
X1089181D02*
X1090545Y792250D01*
X1091000Y791687*
X1091000D02*
X1091454Y790562D01*
X1091454D02*
Y788875D01*
X1091454D02*
X1091000Y787750D01*
X1090545Y787187*
X1090545D02*
X1089181Y786625D01*
X1089181D02*
X1085090D01*
X1098272Y792812D02*
X1097363Y792250D01*
X1097363D02*
X1096454Y791125D01*
X1096454D02*
X1096000Y790000D01*
X1095545Y788312*
X1095545D02*
Y785500D01*
X1096000Y783812*
X1096000D02*
X1096454Y782687D01*
X1096454D02*
X1097363Y781562D01*
X1097363D02*
X1098272Y781000D01*
X1098272D02*
X1100090D01*
X1100090D02*
X1101000Y781562D01*
X1101000D02*
X1101909Y782687D01*
X1101909D02*
X1102363Y783812D01*
X1102363D02*
X1102818Y785500D01*
Y788312*
X1102818D02*
X1102363Y790000D01*
X1102363D02*
X1101909Y791125D01*
X1101000Y792250*
X1100090Y792812*
X1100090D02*
X1098272D01*
X1106909D02*
X1109181Y781000D01*
X1111454Y792812D02*
X1109181Y781000D01*
X1111454Y792812D02*
X1113727Y781000D01*
X1116000Y792812D02*
X1113727Y781000D01*
X1120090Y792812D02*
Y781000D01*
Y792812D02*
X1126000D01*
X1120090Y787187D02*
X1123727D01*
X1120090Y781000D02*
X1126000D01*
X1130090Y792812D02*
Y781000D01*
Y792812D02*
X1134181D01*
X1134181D02*
X1135545Y792250D01*
X1136000Y791687*
X1136000D02*
X1136454Y790562D01*
X1136454D02*
Y789437D01*
X1136454D02*
X1136000Y788312D01*
X1136000D02*
X1135545Y787750D01*
X1134181Y787187*
X1134181D02*
X1130090D01*
X1133272D02*
X1136454Y781000D01*
X1144740Y864540D02*
X1143998Y863798D01*
X1138659Y864540D02*
X1139401Y863798D01*
X1138659Y858459D02*
X1139401Y859201D01*
X1144740Y858459D02*
X1143998Y859201D01*
X1150140Y853340D02*
X1149398Y852598D01*
X1144059Y853340D02*
X1144801Y852598D01*
X1144059Y847259D02*
X1144801Y848001D01*
X1150140Y847259D02*
X1149398Y848001D01*
X1144740Y842140D02*
X1143998Y841398D01*
X1138659Y842140D02*
X1139401Y841398D01*
X1138659Y836059D02*
X1139401Y836801D01*
X1144740Y836059D02*
X1143998Y836801D01*
G54D58*
X1324605Y1034394D02*
X1325348Y1033651D01*
X1324605Y1027605D02*
X1325348Y1028348D01*
X1331394Y1027605D02*
X1330651Y1028348D01*
X1331394Y1034394D02*
X1330651Y1033651D01*
X1324605Y1004394D02*
X1325348Y1003651D01*
X1324605Y997605D02*
X1325348Y998348D01*
X1331394Y997605D02*
X1330651Y998348D01*
X1331394Y1004394D02*
X1330651Y1003651D01*
X1029894Y1277394D02*
X1029151Y1276651D01*
X1023105Y1277394D02*
X1023848Y1276651D01*
X1023105Y1270605D02*
X1023848Y1271348D01*
X1029894Y1270605D02*
X1029151Y1271348D01*
X994894Y1233894D02*
X994151Y1233151D01*
X988105Y1233894D02*
X988848Y1233151D01*
X988105Y1227105D02*
X988848Y1227848D01*
X994894Y1227105D02*
X994151Y1227848D01*
X958894Y1277394D02*
X958151Y1276651D01*
X952105Y1277394D02*
X952848Y1276651D01*
X952105Y1270605D02*
X952848Y1271348D01*
X958894Y1270605D02*
X958151Y1271348D01*
X923894Y1233894D02*
X923151Y1233151D01*
X917105Y1233894D02*
X917848Y1233151D01*
X917105Y1227105D02*
X917848Y1227848D01*
X923894Y1227105D02*
X923151Y1227848D01*
X888394Y1277394D02*
X887651Y1276651D01*
X881605Y1277394D02*
X882348Y1276651D01*
X881605Y1270605D02*
X882348Y1271348D01*
X888394Y1270605D02*
X887651Y1271348D01*
G54D64*
X1339200Y823600D02*
G75*
G03X1339200I-12800J0D01*
G01X1332050Y873000D02*
G03X1332050I-4050J0D01*
G01Y883000D02*
G03X1332050I-4050J0D01*
G01Y922000D02*
G03X1332050I-4050J0D01*
G01Y932000D02*
G03X1332050I-4050J0D01*
G01Y942000D02*
G03X1332050I-4050J0D01*
G01Y952000D02*
G03X1332050I-4050J0D01*
G01Y962000D02*
G03X1332050I-4050J0D01*
G01X1332800Y1001000D02*
G03X1332800I-4800J0D01*
G01X1332050Y1011000D02*
G03X1332050I-4050J0D01*
G01Y1021000D02*
G03X1332050I-4050J0D01*
G01X1332800Y1031000D02*
G03X1332800I-4800J0D01*
G01X1332050Y1041000D02*
G03X1332050I-4050J0D01*
G01Y1051000D02*
G03X1332050I-4050J0D01*
G01X1330550Y1110688D02*
G03X1330550I-4050J0D01*
G01Y1122500D02*
G03X1330550I-4050J0D01*
G01X1331500Y1169100D02*
G03X1331500I-5300J0D01*
G01X1315288Y1098877D02*
G03X1315288I-4299J0D01*
G01X1318738Y1110688D02*
G03X1318738I-4049J0D01*
G01Y1122500D02*
G03X1318738I-4049J0D01*
G01X1315288Y1134311D02*
G03X1315288I-4299J0D01*
G01X1322550Y1180900D02*
G03X1322550I-4050J0D01*
G01Y1192700D02*
G03X1322550I-4050J0D01*
G01Y1204500D02*
G03X1322550I-4050J0D01*
G01X1331500Y1216300D02*
G03X1331500I-5300J0D01*
G01X1329800Y1263500D02*
G03X1329800I-2300J0D01*
G01X1324800Y1274500D02*
G03X1324800I-2300J0D01*
G01X1319800Y1267500D02*
G03X1319800I-2300J0D01*
G01X1296300Y910000D02*
G03X1296300I-2300J0D01*
G01X1291800Y917500D02*
G03X1291800I-2300J0D01*
G01X1296300Y925000D02*
G03X1296300I-2300J0D01*
G01X1300550Y1274000D02*
G03X1300550I-4050J0D01*
G01X1290550D02*
G03X1290550I-4050J0D01*
G01X1277300Y992500D02*
G03X1277300I-2300J0D01*
G01Y997500D02*
G03X1277300I-2300J0D01*
G01Y1002500D02*
G03X1277300I-2300J0D01*
G01X1280550Y1274000D02*
G03X1280550I-4050J0D01*
G01X1268300Y1178000D02*
G03X1268300I-12800J0D01*
G01X1270550Y1274000D02*
G03X1270550I-4050J0D01*
G01X1253550Y1230500D02*
G03X1253550I-4050J0D01*
G01X1243550D02*
G03X1243550I-4050J0D01*
G01X1233550D02*
G03X1233550I-4050J0D01*
G01X1223550D02*
G03X1223550I-4050J0D01*
G01X1209200Y850300D02*
G03X1209200I-12800J0D01*
G01X1206050Y1274000D02*
G03X1206050I-4050J0D01*
G01X1196050D02*
G03X1196050I-4050J0D01*
G01X1186050D02*
G03X1186050I-4050J0D01*
G01X1176050D02*
G03X1176050I-4050J0D01*
G01X1167550Y839100D02*
G03X1167550I-4050J0D01*
G01X1156650D02*
G03X1156650I-4050J0D01*
G01X1162050Y850300D02*
G03X1162050I-4050J0D01*
G01X1167550Y861500D02*
G03X1167550I-4050J0D01*
G01X1146000Y839100D02*
G03X1146000I-4300J0D01*
G01X1151400Y850300D02*
G03X1151400I-4300J0D01*
G01X1156650Y861500D02*
G03X1156650I-4050J0D01*
G01X1159050Y1230500D02*
G03X1159050I-4050J0D01*
G01X1134850Y839100D02*
G03X1134850I-4050J0D01*
G01X1140250Y850300D02*
G03X1140250I-4050J0D01*
G01X1146000Y861500D02*
G03X1146000I-4300J0D01*
G01X1149050Y1230500D02*
G03X1149050I-4050J0D01*
G01X1123950Y839100D02*
G03X1123950I-4050J0D01*
G01X1129350Y850300D02*
G03X1129350I-4050J0D01*
G01X1134850Y861500D02*
G03X1134850I-4050J0D01*
G01X1139050Y1230500D02*
G03X1139050I-4050J0D01*
G01X1113050Y839100D02*
G03X1113050I-4050J0D01*
G01X1118450Y850300D02*
G03X1118450I-4050J0D01*
G01X1123950Y861500D02*
G03X1123950I-4050J0D01*
G01X1129050Y1230500D02*
G03X1129050I-4050J0D01*
G01X1102150Y839100D02*
G03X1102150I-4050J0D01*
G01X1107550Y850300D02*
G03X1107550I-4050J0D01*
G01X1113050Y861500D02*
G03X1113050I-4050J0D01*
G01X1111550Y1274000D02*
G03X1111550I-4050J0D01*
G01X1091250Y839100D02*
G03X1091250I-4050J0D01*
G01X1096650Y850300D02*
G03X1096650I-4050J0D01*
G01X1102150Y861500D02*
G03X1102150I-4050J0D01*
G01X1097300Y1060000D02*
G03X1097300I-2300J0D01*
G01X1101550Y1274000D02*
G03X1101550I-4050J0D01*
G01X1080350Y839100D02*
G03X1080350I-4050J0D01*
G01X1085750Y850300D02*
G03X1085750I-4050J0D01*
G01X1091250Y861500D02*
G03X1091250I-4050J0D01*
G01X1092300Y1040000D02*
G03X1092300I-2300J0D01*
G01X1069450Y839100D02*
G03X1069450I-4050J0D01*
G01X1074850Y850300D02*
G03X1074850I-4050J0D01*
G01X1080350Y861500D02*
G03X1080350I-4050J0D01*
G01X1084800Y1045000D02*
G03X1084800I-2300J0D01*
G01X1087300Y1060000D02*
G03X1087300I-2300J0D01*
G01X1091550Y1274000D02*
G03X1091550I-4050J0D01*
G01X1074800Y1045000D02*
G03X1074800I-2300J0D01*
G01X1081550Y1274000D02*
G03X1081550I-4050J0D01*
G01X1058550Y839100D02*
G03X1058550I-4050J0D01*
G01X1063950Y850300D02*
G03X1063950I-4050J0D01*
G01X1069450Y861500D02*
G03X1069450I-4050J0D01*
G01X1069800Y1040000D02*
G03X1069800I-2300J0D01*
G01X1047650Y839100D02*
G03X1047650I-4050J0D01*
G01X1052950Y850300D02*
G03X1052950I-4050J0D01*
G01X1058550Y861500D02*
G03X1058550I-4050J0D01*
G01X1036750Y839100D02*
G03X1036750I-4050J0D01*
G01X1042150Y850300D02*
G03X1042150I-4050J0D01*
G01X1047650Y861500D02*
G03X1047650I-4050J0D01*
G01X1025850Y839100D02*
G03X1025850I-4050J0D01*
G01X1031250Y850300D02*
G03X1031250I-4050J0D01*
G01X1036750Y861500D02*
G03X1036750I-4050J0D01*
G01X1014950Y839100D02*
G03X1014950I-4050J0D01*
G01X1020350Y850300D02*
G03X1020350I-4050J0D01*
G01X1025850Y861500D02*
G03X1025850I-4050J0D01*
G01X1022300Y1252500D02*
G03X1022300I-2300J0D01*
G01X1031300Y1274000D02*
G03X1031300I-4800J0D01*
G01X1004050Y839100D02*
G03X1004050I-4050J0D01*
G01X1009450Y850300D02*
G03X1009450I-4050J0D01*
G01X1014950Y861500D02*
G03X1014950I-4050J0D01*
G01X1017300Y1252500D02*
G03X1017300I-2300J0D01*
G01X1020550Y1274000D02*
G03X1020550I-4050J0D01*
G01X1012300Y1252500D02*
G03X1012300I-2300J0D01*
G01X993150Y839100D02*
G03X993150I-4050J0D01*
G01X998550Y850300D02*
G03X998550I-4050J0D01*
G01X1004050Y861500D02*
G03X1004050I-4050J0D01*
G01X1010550Y1274000D02*
G03X1010550I-4050J0D01*
G01X993150Y861500D02*
G03X993150I-4050J0D01*
G01X996300Y1230500D02*
G03X996300I-4800J0D01*
G01X985550D02*
G03X985550I-4050J0D01*
G01X969000Y850300D02*
G03X969000I-12800J0D01*
G01X975550Y1230500D02*
G03X975550I-4050J0D01*
G01X960300Y1274000D02*
G03X960300I-4800J0D01*
G01X949800Y1252500D02*
G03X949800I-2300J0D01*
G01X944800D02*
G03X944800I-2300J0D01*
G01X949550Y1274000D02*
G03X949550I-4050J0D01*
G01X939800Y1252500D02*
G03X939800I-2300J0D01*
G01X939550Y1274000D02*
G03X939550I-4050J0D01*
G01X925300Y1230500D02*
G03X925300I-4800J0D01*
G01X914550D02*
G03X914550I-4050J0D01*
G01X904550D02*
G03X904550I-4050J0D01*
G01X889800Y1274000D02*
G03X889800I-4800J0D01*
G01X879050D02*
G03X879050I-4050J0D01*
G01X869050D02*
G03X869050I-4050J0D01*
G01X836400Y823600D02*
G03X836400I-12800J0D01*
G01X835800Y861500D02*
G03X835800I-5300J0D01*
G01X815800D02*
G03X815800I-5300J0D01*
G01X825800Y871500D02*
G03X825800I-5300J0D01*
G01X835800Y881500D02*
G03X835800I-5300J0D01*
G01Y920500D02*
G03X835800I-5300J0D01*
G01X815800Y881500D02*
G03X815800I-5300J0D01*
G01Y920500D02*
G03X815800I-5300J0D01*
G01X825800Y930500D02*
G03X825800I-5300J0D01*
G01X835800Y940500D02*
G03X835800I-5300J0D01*
G01Y979500D02*
G03X835800I-5300J0D01*
G01X815800Y940500D02*
G03X815800I-5300J0D01*
G01Y979500D02*
G03X815800I-5300J0D01*
G01X825800Y989500D02*
G03X825800I-5300J0D01*
G01X835800Y999500D02*
G03X835800I-5300J0D01*
G01Y1038500D02*
G03X835800I-5300J0D01*
G01X815800Y999500D02*
G03X815800I-5300J0D01*
G01Y1038500D02*
G03X815800I-5300J0D01*
G01X825800Y1048500D02*
G03X825800I-5300J0D01*
G01X835800Y1058500D02*
G03X835800I-5300J0D01*
G01X843311Y1098688D02*
G03X843311I-4299J0D01*
G01X839361Y1110500D02*
G03X839361I-4049J0D01*
G01Y1122311D02*
G03X839361I-4049J0D01*
G01X843311Y1134122D02*
G03X843311I-4299J0D01*
G01X827550Y1110500D02*
G03X827550I-4050J0D01*
G01Y1122311D02*
G03X827550I-4050J0D01*
G01X828600Y1169200D02*
G03X828600I-5300J0D01*
G01X835050Y1181000D02*
G03X835050I-4050J0D01*
G01Y1192800D02*
G03X835050I-4050J0D01*
G01Y1204600D02*
G03X835050I-4050J0D01*
G01X828600Y1216400D02*
G03X828600I-5300J0D01*
G01X815800Y1058500D02*
G03X815800I-5300J0D01*
G01X836400Y1276400D02*
G03X836400I-12800J0D01*
G01X1347199Y802800D02*
Y1297199D01*
X1347199D02*
X1055670D01*
X1054329D02*
G03X1055670I671J-2199D01*
G01X1054329D02*
X1050670D01*
X1049329D02*
G03X1050670I671J-2199D01*
G01X1049329D02*
X1045670D01*
X1044329D02*
G03X1045670I671J-2199D01*
G01X1044329D02*
X983170D01*
X981829D02*
G03X983170I671J-2199D01*
G01X981829D02*
X978170D01*
X976829D02*
G03X978170I671J-2199D01*
G01X976829D02*
X973170D01*
X971829D02*
G03X973170I671J-2199D01*
G01X971829D02*
X913170D01*
X911829D02*
G03X913170I671J-2199D01*
G01X911829D02*
X908170D01*
X906829D02*
G03X908170I671J-2199D01*
G01X906829D02*
X903170D01*
X901829D02*
G03X903170I671J-2199D01*
G01X901829D02*
X802800D01*
X802800D02*
Y802800D01*
X1347199*
X1339200Y823600D02*
G03X1339200I-12800J0D01*
G01X1332050Y873000D02*
G03X1332050I-4050J0D01*
G01Y883000D02*
G03X1332050I-4050J0D01*
G01Y922000D02*
G03X1332050I-4050J0D01*
G01Y932000D02*
G03X1332050I-4050J0D01*
G01Y942000D02*
G03X1332050I-4050J0D01*
G01Y952000D02*
G03X1332050I-4050J0D01*
G01Y962000D02*
G03X1332050I-4050J0D01*
G01X1332800Y1001000D02*
G03X1332800I-4800J0D01*
G01X1332050Y1011000D02*
G03X1332050I-4050J0D01*
G01Y1021000D02*
G03X1332050I-4050J0D01*
G01X1332800Y1031000D02*
G03X1332800I-4800J0D01*
G01X1332050Y1041000D02*
G03X1332050I-4050J0D01*
G01Y1051000D02*
G03X1332050I-4050J0D01*
G01X1330550Y1110688D02*
G03X1330550I-4050J0D01*
G01Y1122500D02*
G03X1330550I-4050J0D01*
G01X1331500Y1169100D02*
G03X1331500I-5300J0D01*
G01X1315288Y1098877D02*
G03X1315288I-4299J0D01*
G01X1318738Y1110688D02*
G03X1318738I-4049J0D01*
G01Y1122500D02*
G03X1318738I-4049J0D01*
G01X1315288Y1134311D02*
G03X1315288I-4299J0D01*
G01X1322550Y1180900D02*
G03X1322550I-4050J0D01*
G01Y1192700D02*
G03X1322550I-4050J0D01*
G01Y1204500D02*
G03X1322550I-4050J0D01*
G01X1331500Y1216300D02*
G03X1331500I-5300J0D01*
G01X1329800Y1263500D02*
G03X1329800I-2300J0D01*
G01X1324800Y1274500D02*
G03X1324800I-2300J0D01*
G01X1319800Y1267500D02*
G03X1319800I-2300J0D01*
G01X1296300Y910000D02*
G03X1296300I-2300J0D01*
G01X1291800Y917500D02*
G03X1291800I-2300J0D01*
G01X1296300Y925000D02*
G03X1296300I-2300J0D01*
G01X1300550Y1274000D02*
G03X1300550I-4050J0D01*
G01X1290550D02*
G03X1290550I-4050J0D01*
G01X1277300Y992500D02*
G03X1277300I-2300J0D01*
G01Y997500D02*
G03X1277300I-2300J0D01*
G01Y1002500D02*
G03X1277300I-2300J0D01*
G01X1280550Y1274000D02*
G03X1280550I-4050J0D01*
G01X1268300Y1178000D02*
G03X1268300I-12800J0D01*
G01X1270550Y1274000D02*
G03X1270550I-4050J0D01*
G01X1253550Y1230500D02*
G03X1253550I-4050J0D01*
G01X1243550D02*
G03X1243550I-4050J0D01*
G01X1233550D02*
G03X1233550I-4050J0D01*
G01X1223550D02*
G03X1223550I-4050J0D01*
G01X1209200Y850300D02*
G03X1209200I-12800J0D01*
G01X1206050Y1274000D02*
G03X1206050I-4050J0D01*
G01X1196050D02*
G03X1196050I-4050J0D01*
G01X1186050D02*
G03X1186050I-4050J0D01*
G01X1176050D02*
G03X1176050I-4050J0D01*
G01X1167550Y839100D02*
G03X1167550I-4050J0D01*
G01X1156650D02*
G03X1156650I-4050J0D01*
G01X1162050Y850300D02*
G03X1162050I-4050J0D01*
G01X1167550Y861500D02*
G03X1167550I-4050J0D01*
G01X1146000Y839100D02*
G03X1146000I-4300J0D01*
G01X1151400Y850300D02*
G03X1151400I-4300J0D01*
G01X1156650Y861500D02*
G03X1156650I-4050J0D01*
G01X1159050Y1230500D02*
G03X1159050I-4050J0D01*
G01X1134850Y839100D02*
G03X1134850I-4050J0D01*
G01X1140250Y850300D02*
G03X1140250I-4050J0D01*
G01X1146000Y861500D02*
G03X1146000I-4300J0D01*
G01X1149050Y1230500D02*
G03X1149050I-4050J0D01*
G01X1123950Y839100D02*
G03X1123950I-4050J0D01*
G01X1129350Y850300D02*
G03X1129350I-4050J0D01*
G01X1134850Y861500D02*
G03X1134850I-4050J0D01*
G01X1139050Y1230500D02*
G03X1139050I-4050J0D01*
G01X1113050Y839100D02*
G03X1113050I-4050J0D01*
G01X1118450Y850300D02*
G03X1118450I-4050J0D01*
G01X1123950Y861500D02*
G03X1123950I-4050J0D01*
G01X1129050Y1230500D02*
G03X1129050I-4050J0D01*
G01X1102150Y839100D02*
G03X1102150I-4050J0D01*
G01X1107550Y850300D02*
G03X1107550I-4050J0D01*
G01X1113050Y861500D02*
G03X1113050I-4050J0D01*
G01X1111550Y1274000D02*
G03X1111550I-4050J0D01*
G01X1091250Y839100D02*
G03X1091250I-4050J0D01*
G01X1096650Y850300D02*
G03X1096650I-4050J0D01*
G01X1102150Y861500D02*
G03X1102150I-4050J0D01*
G01X1097300Y1060000D02*
G03X1097300I-2300J0D01*
G01X1101550Y1274000D02*
G03X1101550I-4050J0D01*
G01X1080350Y839100D02*
G03X1080350I-4050J0D01*
G01X1085750Y850300D02*
G03X1085750I-4050J0D01*
G01X1091250Y861500D02*
G03X1091250I-4050J0D01*
G01X1092300Y1040000D02*
G03X1092300I-2300J0D01*
G01X1069450Y839100D02*
G03X1069450I-4050J0D01*
G01X1074850Y850300D02*
G03X1074850I-4050J0D01*
G01X1080350Y861500D02*
G03X1080350I-4050J0D01*
G01X1084800Y1045000D02*
G03X1084800I-2300J0D01*
G01X1087300Y1060000D02*
G03X1087300I-2300J0D01*
G01X1091550Y1274000D02*
G03X1091550I-4050J0D01*
G01X1074800Y1045000D02*
G03X1074800I-2300J0D01*
G01X1081550Y1274000D02*
G03X1081550I-4050J0D01*
G01X1058550Y839100D02*
G03X1058550I-4050J0D01*
G01X1063950Y850300D02*
G03X1063950I-4050J0D01*
G01X1069450Y861500D02*
G03X1069450I-4050J0D01*
G01X1069800Y1040000D02*
G03X1069800I-2300J0D01*
G01X1047650Y839100D02*
G03X1047650I-4050J0D01*
G01X1052950Y850300D02*
G03X1052950I-4050J0D01*
G01X1058550Y861500D02*
G03X1058550I-4050J0D01*
G01X1036750Y839100D02*
G03X1036750I-4050J0D01*
G01X1042150Y850300D02*
G03X1042150I-4050J0D01*
G01X1047650Y861500D02*
G03X1047650I-4050J0D01*
G01X1025850Y839100D02*
G03X1025850I-4050J0D01*
G01X1031250Y850300D02*
G03X1031250I-4050J0D01*
G01X1036750Y861500D02*
G03X1036750I-4050J0D01*
G01X1014950Y839100D02*
G03X1014950I-4050J0D01*
G01X1020350Y850300D02*
G03X1020350I-4050J0D01*
G01X1025850Y861500D02*
G03X1025850I-4050J0D01*
G01X1022300Y1252500D02*
G03X1022300I-2300J0D01*
G01X1031300Y1274000D02*
G03X1031300I-4800J0D01*
G01X1004050Y839100D02*
G03X1004050I-4050J0D01*
G01X1009450Y850300D02*
G03X1009450I-4050J0D01*
G01X1014950Y861500D02*
G03X1014950I-4050J0D01*
G01X1017300Y1252500D02*
G03X1017300I-2300J0D01*
G01X1020550Y1274000D02*
G03X1020550I-4050J0D01*
G01X1012300Y1252500D02*
G03X1012300I-2300J0D01*
G01X993150Y839100D02*
G03X993150I-4050J0D01*
G01X998550Y850300D02*
G03X998550I-4050J0D01*
G01X1004050Y861500D02*
G03X1004050I-4050J0D01*
G01X1010550Y1274000D02*
G03X1010550I-4050J0D01*
G01X993150Y861500D02*
G03X993150I-4050J0D01*
G01X996300Y1230500D02*
G03X996300I-4800J0D01*
G01X985550D02*
G03X985550I-4050J0D01*
G01X969000Y850300D02*
G03X969000I-12800J0D01*
G01X975550Y1230500D02*
G03X975550I-4050J0D01*
G01X960300Y1274000D02*
G03X960300I-4800J0D01*
G01X949800Y1252500D02*
G03X949800I-2300J0D01*
G01X944800D02*
G03X944800I-2300J0D01*
G01X949550Y1274000D02*
G03X949550I-4050J0D01*
G01X939800Y1252500D02*
G03X939800I-2300J0D01*
G01X939550Y1274000D02*
G03X939550I-4050J0D01*
G01X925300Y1230500D02*
G03X925300I-4800J0D01*
G01X914550D02*
G03X914550I-4050J0D01*
G01X904550D02*
G03X904550I-4050J0D01*
G01X889800Y1274000D02*
G03X889800I-4800J0D01*
G01X879050D02*
G03X879050I-4050J0D01*
G01X869050D02*
G03X869050I-4050J0D01*
G01X836400Y823600D02*
G03X836400I-12800J0D01*
G01X835800Y861500D02*
G03X835800I-5300J0D01*
G01X815800D02*
G03X815800I-5300J0D01*
G01X825800Y871500D02*
G03X825800I-5300J0D01*
G01X835800Y881500D02*
G03X835800I-5300J0D01*
G01Y920500D02*
G03X835800I-5300J0D01*
G01X815800Y881500D02*
G03X815800I-5300J0D01*
G01Y920500D02*
G03X815800I-5300J0D01*
G01X825800Y930500D02*
G03X825800I-5300J0D01*
G01X835800Y940500D02*
G03X835800I-5300J0D01*
G01Y979500D02*
G03X835800I-5300J0D01*
G01X815800Y940500D02*
G03X815800I-5300J0D01*
G01Y979500D02*
G03X815800I-5300J0D01*
G01X825800Y989500D02*
G03X825800I-5300J0D01*
G01X835800Y999500D02*
G03X835800I-5300J0D01*
G01Y1038500D02*
G03X835800I-5300J0D01*
G01X815800Y999500D02*
G03X815800I-5300J0D01*
G01Y1038500D02*
G03X815800I-5300J0D01*
G01X825800Y1048500D02*
G03X825800I-5300J0D01*
G01X835800Y1058500D02*
G03X835800I-5300J0D01*
G01X843311Y1098688D02*
G03X843311I-4299J0D01*
G01X839361Y1110500D02*
G03X839361I-4049J0D01*
G01Y1122311D02*
G03X839361I-4049J0D01*
G01X843311Y1134122D02*
G03X843311I-4299J0D01*
G01X827550Y1110500D02*
G03X827550I-4050J0D01*
G01Y1122311D02*
G03X827550I-4050J0D01*
G01X828600Y1169200D02*
G03X828600I-5300J0D01*
G01X835050Y1181000D02*
G03X835050I-4050J0D01*
G01Y1192800D02*
G03X835050I-4050J0D01*
G01Y1204600D02*
G03X835050I-4050J0D01*
G01X828600Y1216400D02*
G03X828600I-5300J0D01*
G01X815800Y1058500D02*
G03X815800I-5300J0D01*
G01X836400Y1276400D02*
G03X836400I-12800J0D01*
G01X1056298Y1296898D02*
X1347199D01*
X1056855Y1296358D02*
X1347199D01*
X1057149Y1295818D02*
X1347199D01*
X1057283Y1295278D02*
X1347199D01*
X1057285Y1294738D02*
X1347199D01*
X1057155Y1294198D02*
X1347199D01*
X1056868Y1293658D02*
X1347199D01*
X1056323Y1293118D02*
X1347199D01*
X802800Y1292578D02*
X1347199D01*
X802800Y1292038D02*
X1347199D01*
X802800Y1291498D02*
X1347199D01*
X802800Y1290958D02*
X1347199D01*
X802800Y1290418D02*
X1347199D01*
X802800Y1289878D02*
X1347199D01*
X802800Y1289338D02*
X1347199D01*
X826780Y1288798D02*
X1347199D01*
X828417Y1288258D02*
X1347199D01*
X829577Y1287718D02*
X1347199D01*
X830503Y1287178D02*
X1347199D01*
X831281Y1286638D02*
X1347199D01*
X831953Y1286098D02*
X1347199D01*
X832541Y1285558D02*
X1347199D01*
X833063Y1285018D02*
X1347199D01*
X833528Y1284478D02*
X1347199D01*
X833944Y1283938D02*
X1347199D01*
X834317Y1283398D02*
X1347199D01*
X834651Y1282858D02*
X1347199D01*
X834949Y1282318D02*
X1347199D01*
X835215Y1281778D02*
X1347199D01*
X835450Y1281238D02*
X1347199D01*
X835656Y1280698D02*
X1347199D01*
X835835Y1280158D02*
X1347199D01*
X835988Y1279618D02*
X1347199D01*
X836116Y1279078D02*
X1347199D01*
X1028062Y1278538D02*
X1347199D01*
X1297142Y1277998D02*
X1347199D01*
X1298607Y1277458D02*
X1347199D01*
X1299307Y1276918D02*
X1347199D01*
X1323826Y1276378D02*
X1347199D01*
X1324370Y1275838D02*
X1347199D01*
X1324656Y1275298D02*
X1347199D01*
X1324785Y1274758D02*
X1347199D01*
X1324782Y1274218D02*
X1347199D01*
X1324648Y1273678D02*
X1347199D01*
X1324353Y1273138D02*
X1347199D01*
X1323794Y1272598D02*
X1347199D01*
X1300054Y1272058D02*
X1347199D01*
X1299700Y1271518D02*
X1347199D01*
X1299197Y1270978D02*
X1347199D01*
X1298428Y1270438D02*
X1347199D01*
X1028993Y1269898D02*
X1347199D01*
X1318854Y1269358D02*
X1347199D01*
X1319384Y1268818D02*
X1347199D01*
X1319664Y1268278D02*
X1347199D01*
X1319787Y1267738D02*
X1347199D01*
X1319780Y1267198D02*
X1347199D01*
X1319640Y1266658D02*
X1347199D01*
X1319339Y1266118D02*
X1347199D01*
X1328484Y1265578D02*
X1347199D01*
X1329209Y1265038D02*
X1347199D01*
X1329571Y1264498D02*
X1347199D01*
X1329753Y1263958D02*
X1347199D01*
X1329798Y1263418D02*
X1347199D01*
X1329714Y1262878D02*
X1347199D01*
X1329485Y1262338D02*
X1347199D01*
X1329047Y1261798D02*
X1347199D01*
X1328016Y1261258D02*
X1347199D01*
X802800Y1260718D02*
X1347199D01*
X802800Y1260178D02*
X1347199D01*
X802800Y1259638D02*
X1347199D01*
X802800Y1259098D02*
X1347199D01*
X802800Y1258558D02*
X1347199D01*
X802800Y1258018D02*
X1347199D01*
X802800Y1257478D02*
X1347199D01*
X802800Y1256938D02*
X1347199D01*
X802800Y1256398D02*
X1347199D01*
X802800Y1255858D02*
X1347199D01*
X802800Y1255318D02*
X1347199D01*
X1020312Y1254778D02*
X1347199D01*
X1021505Y1254238D02*
X1347199D01*
X1021962Y1253698D02*
X1347199D01*
X1022203Y1253158D02*
X1347199D01*
X1022296Y1252618D02*
X1347199D01*
X1022261Y1252078D02*
X1347199D01*
X1022089Y1251538D02*
X1347199D01*
X1021742Y1250998D02*
X1347199D01*
X1021059Y1250458D02*
X1347199D01*
X802800Y1249918D02*
X1347199D01*
X802800Y1249378D02*
X1347199D01*
X802800Y1248838D02*
X1347199D01*
X802800Y1248298D02*
X1347199D01*
X802800Y1247758D02*
X1347199D01*
X802800Y1247218D02*
X1347199D01*
X802800Y1246678D02*
X1347199D01*
X802800Y1246138D02*
X1347199D01*
X802800Y1245598D02*
X1347199D01*
X802800Y1245058D02*
X1347199D01*
X802800Y1244518D02*
X1347199D01*
X802800Y1243978D02*
X1347199D01*
X802800Y1243438D02*
X1347199D01*
X802800Y1242898D02*
X1347199D01*
X802800Y1242358D02*
X1347199D01*
X802800Y1241818D02*
X1347199D01*
X802800Y1241278D02*
X1347199D01*
X802800Y1240738D02*
X1347199D01*
X802800Y1240198D02*
X1347199D01*
X802800Y1239658D02*
X1347199D01*
X802800Y1239118D02*
X1347199D01*
X802800Y1238578D02*
X1347199D01*
X802800Y1238038D02*
X1347199D01*
X802800Y1237498D02*
X1347199D01*
X802800Y1236958D02*
X1347199D01*
X802800Y1236418D02*
X1347199D01*
X802800Y1235878D02*
X1347199D01*
X802800Y1235338D02*
X1347199D01*
X993635Y1234798D02*
X1347199D01*
X1251008Y1234258D02*
X1347199D01*
X1251958Y1233718D02*
X1347199D01*
X1252537Y1233178D02*
X1347199D01*
X1252939Y1232638D02*
X1347199D01*
X1253221Y1232098D02*
X1347199D01*
X1253409Y1231558D02*
X1347199D01*
X1253516Y1231018D02*
X1347199D01*
X1253549Y1230478D02*
X1347199D01*
X1253510Y1229938D02*
X1347199D01*
X1253397Y1229398D02*
X1347199D01*
X1253202Y1228858D02*
X1347199D01*
X1252912Y1228318D02*
X1347199D01*
X1252499Y1227778D02*
X1347199D01*
X1251901Y1227238D02*
X1347199D01*
X1250897Y1226698D02*
X1347199D01*
X993547Y1226158D02*
X1347199D01*
X802800Y1225618D02*
X1347199D01*
X802800Y1225078D02*
X1347199D01*
X802800Y1224538D02*
X1347199D01*
X802800Y1223998D02*
X1347199D01*
X802800Y1223458D02*
X1347199D01*
X802800Y1222918D02*
X1347199D01*
X802800Y1222378D02*
X1347199D01*
X802800Y1221838D02*
X1347199D01*
X1327961Y1221298D02*
X1347199D01*
X1329065Y1220758D02*
X1347199D01*
X1329768Y1220218D02*
X1347199D01*
X1330283Y1219678D02*
X1347199D01*
X1330675Y1219138D02*
X1347199D01*
X1330975Y1218598D02*
X1347199D01*
X1331199Y1218058D02*
X1347199D01*
X1331358Y1217518D02*
X1347199D01*
X1331456Y1216978D02*
X1347199D01*
X1331498Y1216438D02*
X1347199D01*
X1331484Y1215898D02*
X1347199D01*
X1331415Y1215358D02*
X1347199D01*
X1331288Y1214818D02*
X1347199D01*
X1331099Y1214278D02*
X1347199D01*
X1330840Y1213738D02*
X1347199D01*
X1330497Y1213198D02*
X1347199D01*
X1330051Y1212658D02*
X1347199D01*
X1329456Y1212118D02*
X1347199D01*
X1328608Y1211578D02*
X1347199D01*
X1326839Y1211038D02*
X1347199D01*
X802800Y1210498D02*
X1347199D01*
X802800Y1209958D02*
X1347199D01*
X802800Y1209418D02*
X1347199D01*
X802800Y1208878D02*
X1347199D01*
X1319791Y1208338D02*
X1347199D01*
X1320849Y1207798D02*
X1347199D01*
X1321465Y1207258D02*
X1347199D01*
X1321888Y1206718D02*
X1347199D01*
X1322185Y1206178D02*
X1347199D01*
X1322386Y1205638D02*
X1347199D01*
X1322505Y1205098D02*
X1347199D01*
X1322549Y1204558D02*
X1347199D01*
X1322521Y1204018D02*
X1347199D01*
X1322419Y1203478D02*
X1347199D01*
X1322236Y1202938D02*
X1347199D01*
X1321962Y1202398D02*
X1347199D01*
X1321570Y1201858D02*
X1347199D01*
X1321006Y1201318D02*
X1347199D01*
X1320098Y1200778D02*
X1347199D01*
X802800Y1200238D02*
X1347199D01*
X802800Y1199698D02*
X1347199D01*
X802800Y1199158D02*
X1347199D01*
X802800Y1198618D02*
X1347199D01*
X802800Y1198078D02*
X1347199D01*
X802800Y1197538D02*
X1347199D01*
X802800Y1196998D02*
X1347199D01*
X1320008Y1196458D02*
X1347199D01*
X1320958Y1195918D02*
X1347199D01*
X1321537Y1195378D02*
X1347199D01*
X1321939Y1194838D02*
X1347199D01*
X1322221Y1194298D02*
X1347199D01*
X1322409Y1193758D02*
X1347199D01*
X1322516Y1193218D02*
X1347199D01*
X1322549Y1192678D02*
X1347199D01*
X1322510Y1192138D02*
X1347199D01*
X1322397Y1191598D02*
X1347199D01*
X1322202Y1191058D02*
X1347199D01*
X1321912Y1190518D02*
X1347199D01*
X1321499Y1189978D02*
X1347199D01*
X1320901Y1189438D02*
X1347199D01*
X1319897Y1188898D02*
X1347199D01*
X1263019Y1188358D02*
X1347199D01*
X1263711Y1187818D02*
X1347199D01*
X1264317Y1187278D02*
X1347199D01*
X1264852Y1186738D02*
X1347199D01*
X1265329Y1186198D02*
X1347199D01*
X1265755Y1185658D02*
X1347199D01*
X1266137Y1185118D02*
X1347199D01*
X1320194Y1184578D02*
X1347199D01*
X1321059Y1184038D02*
X1347199D01*
X1321606Y1183498D02*
X1347199D01*
X1321987Y1182958D02*
X1347199D01*
X1322254Y1182418D02*
X1347199D01*
X1322429Y1181878D02*
X1347199D01*
X1322526Y1181338D02*
X1347199D01*
X1322548Y1180798D02*
X1347199D01*
X1322498Y1180258D02*
X1347199D01*
X1322373Y1179718D02*
X1347199D01*
X1322166Y1179178D02*
X1347199D01*
X1321859Y1178638D02*
X1347199D01*
X1321424Y1178098D02*
X1347199D01*
X1320788Y1177558D02*
X1347199D01*
X1319656Y1177018D02*
X1347199D01*
X1268209Y1176478D02*
X1347199D01*
X1268132Y1175938D02*
X1347199D01*
X1268032Y1175398D02*
X1347199D01*
X1267908Y1174858D02*
X1347199D01*
X1327124Y1174318D02*
X1347199D01*
X1328689Y1173778D02*
X1347199D01*
X1329510Y1173238D02*
X1347199D01*
X1330090Y1172698D02*
X1347199D01*
X1330528Y1172158D02*
X1347199D01*
X1330863Y1171618D02*
X1347199D01*
X1331116Y1171078D02*
X1347199D01*
X1331301Y1170538D02*
X1347199D01*
X1331423Y1169998D02*
X1347199D01*
X1331487Y1169458D02*
X1347199D01*
X1331496Y1168918D02*
X1347199D01*
X1331450Y1168378D02*
X1347199D01*
X1331347Y1167838D02*
X1347199D01*
X1331184Y1167298D02*
X1347199D01*
X1330954Y1166758D02*
X1347199D01*
X1330648Y1166218D02*
X1347199D01*
X1330247Y1165678D02*
X1347199D01*
X1329721Y1165138D02*
X1347199D01*
X1328997Y1164598D02*
X1347199D01*
X1327835Y1164058D02*
X1347199D01*
X802800Y1163518D02*
X1347199D01*
X802800Y1162978D02*
X1347199D01*
X802800Y1162438D02*
X1347199D01*
X802800Y1161898D02*
X1347199D01*
X802800Y1161358D02*
X1347199D01*
X802800Y1160818D02*
X1347199D01*
X802800Y1160278D02*
X1347199D01*
X802800Y1159738D02*
X1347199D01*
X802800Y1159198D02*
X1347199D01*
X802800Y1158658D02*
X1347199D01*
X802800Y1158118D02*
X1347199D01*
X802800Y1157578D02*
X1347199D01*
X802800Y1157038D02*
X1347199D01*
X802800Y1156498D02*
X1347199D01*
X802800Y1155958D02*
X1347199D01*
X802800Y1155418D02*
X1347199D01*
X802800Y1154878D02*
X1347199D01*
X802800Y1154338D02*
X1347199D01*
X802800Y1153798D02*
X1347199D01*
X802800Y1153258D02*
X1347199D01*
X802800Y1152718D02*
X1347199D01*
X802800Y1152178D02*
X1347199D01*
X802800Y1151638D02*
X1347199D01*
X802800Y1151098D02*
X1347199D01*
X802800Y1150558D02*
X1347199D01*
X802800Y1150018D02*
X1347199D01*
X802800Y1149478D02*
X1347199D01*
X802800Y1148938D02*
X1347199D01*
X802800Y1148398D02*
X1347199D01*
X802800Y1147858D02*
X1347199D01*
X802800Y1147318D02*
X1347199D01*
X802800Y1146778D02*
X1347199D01*
X802800Y1146238D02*
X1347199D01*
X802800Y1145698D02*
X1347199D01*
X802800Y1145158D02*
X1347199D01*
X802800Y1144618D02*
X1347199D01*
X802800Y1144078D02*
X1347199D01*
X802800Y1143538D02*
X1347199D01*
X802800Y1142998D02*
X1347199D01*
X802800Y1142458D02*
X1347199D01*
X802800Y1141918D02*
X1347199D01*
X802800Y1141378D02*
X1347199D01*
X802800Y1140838D02*
X1347199D01*
X802800Y1140298D02*
X1347199D01*
X802800Y1139758D02*
X1347199D01*
X802800Y1139218D02*
X1347199D01*
X802800Y1138678D02*
X1347199D01*
X1312947Y1138138D02*
X1347199D01*
X1313759Y1137598D02*
X1347199D01*
X1314295Y1137058D02*
X1347199D01*
X1314678Y1136518D02*
X1347199D01*
X1314951Y1135978D02*
X1347199D01*
X1315137Y1135438D02*
X1347199D01*
X1315247Y1134898D02*
X1347199D01*
X1315287Y1134358D02*
X1347199D01*
X1315259Y1133818D02*
X1347199D01*
X1315162Y1133278D02*
X1347199D01*
X1314990Y1132738D02*
X1347199D01*
X1314733Y1132198D02*
X1347199D01*
X1314372Y1131658D02*
X1347199D01*
X1313869Y1131118D02*
X1347199D01*
X1313123Y1130578D02*
X1347199D01*
X1311475Y1130038D02*
X1347199D01*
X802800Y1129498D02*
X1347199D01*
X802800Y1128958D02*
X1347199D01*
X802800Y1128418D02*
X1347199D01*
X802800Y1127878D02*
X1347199D01*
X802800Y1127338D02*
X1347199D01*
X802800Y1126798D02*
X1347199D01*
X1328008Y1126258D02*
X1347199D01*
X1328958Y1125718D02*
X1347199D01*
X1329537Y1125178D02*
X1347199D01*
X1329939Y1124638D02*
X1347199D01*
X1330221Y1124098D02*
X1347199D01*
X1330409Y1123558D02*
X1347199D01*
X1330516Y1123018D02*
X1347199D01*
X1330549Y1122478D02*
X1347199D01*
X1330510Y1121938D02*
X1347199D01*
X1330397Y1121398D02*
X1347199D01*
X1330202Y1120858D02*
X1347199D01*
X1329912Y1120318D02*
X1347199D01*
X1329499Y1119778D02*
X1347199D01*
X1328901Y1119238D02*
X1347199D01*
X1327897Y1118698D02*
X1347199D01*
X802800Y1118158D02*
X1347199D01*
X802800Y1117618D02*
X1347199D01*
X802800Y1117078D02*
X1347199D01*
X802800Y1116538D02*
X1347199D01*
X802800Y1115998D02*
X1347199D01*
X802800Y1115458D02*
X1347199D01*
X802800Y1114918D02*
X1347199D01*
X1328169Y1114378D02*
X1347199D01*
X1329045Y1113838D02*
X1347199D01*
X1329597Y1113298D02*
X1347199D01*
X1329981Y1112758D02*
X1347199D01*
X1330250Y1112218D02*
X1347199D01*
X1330427Y1111678D02*
X1347199D01*
X1330524Y1111138D02*
X1347199D01*
X1330549Y1110598D02*
X1347199D01*
X1330500Y1110058D02*
X1347199D01*
X1330377Y1109518D02*
X1347199D01*
X1330171Y1108978D02*
X1347199D01*
X1329867Y1108438D02*
X1347199D01*
X1329435Y1107898D02*
X1347199D01*
X1328804Y1107358D02*
X1347199D01*
X1327693Y1106818D02*
X1347199D01*
X802800Y1106278D02*
X1347199D01*
X802800Y1105738D02*
X1347199D01*
X802800Y1105198D02*
X1347199D01*
X802800Y1104658D02*
X1347199D01*
X802800Y1104118D02*
X1347199D01*
X802800Y1103578D02*
X1347199D01*
X1312073Y1103038D02*
X1347199D01*
X1313307Y1102498D02*
X1347199D01*
X1313988Y1101958D02*
X1347199D01*
X1314457Y1101418D02*
X1347199D01*
X1314794Y1100878D02*
X1347199D01*
X1315032Y1100338D02*
X1347199D01*
X1315188Y1099798D02*
X1347199D01*
X1315271Y1099258D02*
X1347199D01*
X1315285Y1098718D02*
X1347199D01*
X1315230Y1098178D02*
X1347199D01*
X1315105Y1097638D02*
X1347199D01*
X1314902Y1097098D02*
X1347199D01*
X1314609Y1096558D02*
X1347199D01*
X1314199Y1096018D02*
X1347199D01*
X1313621Y1095478D02*
X1347199D01*
X1312712Y1094938D02*
X1347199D01*
X839301Y1094398D02*
X1347199D01*
X802800Y1093858D02*
X1347199D01*
X802800Y1093318D02*
X1347199D01*
X802800Y1092778D02*
X1347199D01*
X802800Y1092238D02*
X1347199D01*
X802800Y1091698D02*
X1347199D01*
X802800Y1091158D02*
X1347199D01*
X802800Y1090618D02*
X1347199D01*
X802800Y1090078D02*
X1347199D01*
X802800Y1089538D02*
X1347199D01*
X802800Y1088998D02*
X1347199D01*
X802800Y1088458D02*
X1347199D01*
X802800Y1087918D02*
X1347199D01*
X802800Y1087378D02*
X1347199D01*
X802800Y1086838D02*
X1347199D01*
X802800Y1086298D02*
X1347199D01*
X802800Y1085758D02*
X1347199D01*
X802800Y1085218D02*
X1347199D01*
X802800Y1084678D02*
X1347199D01*
X802800Y1084138D02*
X1347199D01*
X802800Y1083598D02*
X1347199D01*
X802800Y1083058D02*
X1347199D01*
X802800Y1082518D02*
X1347199D01*
X802800Y1081978D02*
X1347199D01*
X802800Y1081438D02*
X1347199D01*
X802800Y1080898D02*
X1347199D01*
X802800Y1080358D02*
X1347199D01*
X802800Y1079818D02*
X1347199D01*
X802800Y1079278D02*
X1347199D01*
X802800Y1078738D02*
X1347199D01*
X802800Y1078198D02*
X1347199D01*
X802800Y1077658D02*
X1347199D01*
X802800Y1077118D02*
X1347199D01*
X802800Y1076578D02*
X1347199D01*
X802800Y1076038D02*
X1347199D01*
X802800Y1075498D02*
X1347199D01*
X802800Y1074958D02*
X1347199D01*
X802800Y1074418D02*
X1347199D01*
X802800Y1073878D02*
X1347199D01*
X802800Y1073338D02*
X1347199D01*
X802800Y1072798D02*
X1347199D01*
X802800Y1072258D02*
X1347199D01*
X802800Y1071718D02*
X1347199D01*
X802800Y1071178D02*
X1347199D01*
X802800Y1070638D02*
X1347199D01*
X802800Y1070098D02*
X1347199D01*
X802800Y1069558D02*
X1347199D01*
X802800Y1069018D02*
X1347199D01*
X802800Y1068478D02*
X1347199D01*
X802800Y1067938D02*
X1347199D01*
X802800Y1067398D02*
X1347199D01*
X802800Y1066858D02*
X1347199D01*
X802800Y1066318D02*
X1347199D01*
X802800Y1065778D02*
X1347199D01*
X802800Y1065238D02*
X1347199D01*
X802800Y1064698D02*
X1347199D01*
X802800Y1064158D02*
X1347199D01*
X831874Y1063618D02*
X1347199D01*
X833169Y1063078D02*
X1347199D01*
X833932Y1062538D02*
X1347199D01*
X1096138Y1061998D02*
X1347199D01*
X1096778Y1061458D02*
X1347199D01*
X1097108Y1060918D02*
X1347199D01*
X1097268Y1060378D02*
X1347199D01*
X1097294Y1059838D02*
X1347199D01*
X1097190Y1059298D02*
X1347199D01*
X1096936Y1058758D02*
X1347199D01*
X1096455Y1058218D02*
X1347199D01*
X835736Y1057678D02*
X1347199D01*
X835622Y1057138D02*
X1347199D01*
X835447Y1056598D02*
X1347199D01*
X835204Y1056058D02*
X1347199D01*
X834882Y1055518D02*
X1347199D01*
X1328756Y1054978D02*
X1347199D01*
X1330139Y1054438D02*
X1347199D01*
X1330828Y1053898D02*
X1347199D01*
X1331292Y1053358D02*
X1347199D01*
X1331618Y1052818D02*
X1347199D01*
X1331842Y1052278D02*
X1347199D01*
X1331982Y1051738D02*
X1347199D01*
X1332045Y1051198D02*
X1347199D01*
X1332035Y1050658D02*
X1347199D01*
X1331952Y1050118D02*
X1347199D01*
X1331792Y1049578D02*
X1347199D01*
X1331543Y1049038D02*
X1347199D01*
X1331185Y1048498D02*
X1347199D01*
X1330674Y1047958D02*
X1347199D01*
X1329891Y1047418D02*
X1347199D01*
X1083826Y1046878D02*
X1347199D01*
X1084370Y1046338D02*
X1347199D01*
X1084656Y1045798D02*
X1347199D01*
X1084785Y1045258D02*
X1347199D01*
X1329604Y1044718D02*
X1347199D01*
X1330509Y1044178D02*
X1347199D01*
X1331072Y1043638D02*
X1347199D01*
X1331463Y1043098D02*
X1347199D01*
X1331738Y1042558D02*
X1347199D01*
X1331919Y1042018D02*
X1347199D01*
X1332021Y1041478D02*
X1347199D01*
X1332049Y1040938D02*
X1347199D01*
X1332005Y1040398D02*
X1347199D01*
X1331885Y1039858D02*
X1347199D01*
X1331684Y1039318D02*
X1347199D01*
X1331386Y1038778D02*
X1347199D01*
X1330962Y1038238D02*
X1347199D01*
X1330346Y1037698D02*
X1347199D01*
X1329283Y1037158D02*
X1347199D01*
X835454Y1036618D02*
X1347199D01*
X835214Y1036078D02*
X1347199D01*
X1329562Y1035538D02*
X1347199D01*
X1330655Y1034998D02*
X1347199D01*
X1331328Y1034458D02*
X1347199D01*
X1331810Y1033918D02*
X1347199D01*
X1332169Y1033378D02*
X1347199D01*
X1332433Y1032838D02*
X1347199D01*
X1332620Y1032298D02*
X1347199D01*
X1332739Y1031758D02*
X1347199D01*
X1332795Y1031218D02*
X1347199D01*
X1332789Y1030678D02*
X1347199D01*
X1332722Y1030138D02*
X1347199D01*
X1332590Y1029598D02*
X1347199D01*
X1332389Y1029058D02*
X1347199D01*
X1332108Y1028518D02*
X1347199D01*
X1331729Y1027978D02*
X1347199D01*
X1331218Y1027438D02*
X1347199D01*
X1330493Y1026898D02*
X1347199D01*
X1329224Y1026358D02*
X1347199D01*
X802800Y1025818D02*
X1347199D01*
X802800Y1025278D02*
X1347199D01*
X1329557Y1024738D02*
X1347199D01*
X1330484Y1024198D02*
X1347199D01*
X1331055Y1023658D02*
X1347199D01*
X1331451Y1023118D02*
X1347199D01*
X1331729Y1022578D02*
X1347199D01*
X1331914Y1022038D02*
X1347199D01*
X1332019Y1021498D02*
X1347199D01*
X1332049Y1020958D02*
X1347199D01*
X1332008Y1020418D02*
X1347199D01*
X1331891Y1019878D02*
X1347199D01*
X1331693Y1019338D02*
X1347199D01*
X1331399Y1018798D02*
X1347199D01*
X1330981Y1018258D02*
X1347199D01*
X1330373Y1017718D02*
X1347199D01*
X1329341Y1017178D02*
X1347199D01*
X802800Y1016638D02*
X1347199D01*
X802800Y1016098D02*
X1347199D01*
X802800Y1015558D02*
X1347199D01*
X1328502Y1015018D02*
X1347199D01*
X1330073Y1014478D02*
X1347199D01*
X1330786Y1013938D02*
X1347199D01*
X1331263Y1013398D02*
X1347199D01*
X1331598Y1012858D02*
X1347199D01*
X1331829Y1012318D02*
X1347199D01*
X1331974Y1011778D02*
X1347199D01*
X1332042Y1011238D02*
X1347199D01*
X1332038Y1010698D02*
X1347199D01*
X1331961Y1010158D02*
X1347199D01*
X1331807Y1009618D02*
X1347199D01*
X1331565Y1009078D02*
X1347199D01*
X1331216Y1008538D02*
X1347199D01*
X1330719Y1007998D02*
X1347199D01*
X1329965Y1007458D02*
X1347199D01*
X802800Y1006918D02*
X1347199D01*
X802800Y1006378D02*
X1347199D01*
X802800Y1005838D02*
X1347199D01*
X1330135Y1005298D02*
X1347199D01*
X1330985Y1004758D02*
X1347199D01*
X1331560Y1004218D02*
X1347199D01*
X1331983Y1003678D02*
X1347199D01*
X1332297Y1003138D02*
X1347199D01*
X1332525Y1002598D02*
X1347199D01*
X1332681Y1002058D02*
X1347199D01*
X1332771Y1001518D02*
X1347199D01*
X1332799Y1000978D02*
X1347199D01*
X1332767Y1000438D02*
X1347199D01*
X1332671Y999898D02*
X1347199D01*
X1332510Y999358D02*
X1347199D01*
X1332275Y998818D02*
X1347199D01*
X1331954Y998278D02*
X1347199D01*
X1331521Y997738D02*
X1347199D01*
X1330930Y997198D02*
X1347199D01*
X1330047Y996658D02*
X1347199D01*
X1276839Y996118D02*
X1347199D01*
X1276264Y995578D02*
X1347199D01*
X833361Y995038D02*
X1347199D01*
X1276138Y994498D02*
X1347199D01*
X1276778Y993958D02*
X1347199D01*
X1277108Y993418D02*
X1347199D01*
X1277268Y992878D02*
X1347199D01*
X1277294Y992338D02*
X1347199D01*
X1277190Y991798D02*
X1347199D01*
X1276936Y991258D02*
X1347199D01*
X1276455Y990718D02*
X1347199D01*
X825756Y990178D02*
X1347199D01*
X825798Y989638D02*
X1347199D01*
X825784Y989098D02*
X1347199D01*
X825715Y988558D02*
X1347199D01*
X825588Y988018D02*
X1347199D01*
X825399Y987478D02*
X1347199D01*
X825140Y986938D02*
X1347199D01*
X824797Y986398D02*
X1347199D01*
X824351Y985858D02*
X1347199D01*
X823756Y985318D02*
X1347199D01*
X830974Y984778D02*
X1347199D01*
X832873Y984238D02*
X1347199D01*
X833734Y983698D02*
X1347199D01*
X834334Y983158D02*
X1347199D01*
X834785Y982618D02*
X1347199D01*
X835130Y982078D02*
X1347199D01*
X835392Y981538D02*
X1347199D01*
X835583Y980998D02*
X1347199D01*
X835712Y980458D02*
X1347199D01*
X835783Y979918D02*
X1347199D01*
X835798Y979378D02*
X1347199D01*
X835758Y978838D02*
X1347199D01*
X835662Y978298D02*
X1347199D01*
X835505Y977758D02*
X1347199D01*
X835283Y977218D02*
X1347199D01*
X834986Y976678D02*
X1347199D01*
X834597Y976138D02*
X1347199D01*
X834087Y975598D02*
X1347199D01*
X833392Y975058D02*
X1347199D01*
X832310Y974518D02*
X1347199D01*
X802800Y973978D02*
X1347199D01*
X802800Y973438D02*
X1347199D01*
X802800Y972898D02*
X1347199D01*
X802800Y972358D02*
X1347199D01*
X802800Y971818D02*
X1347199D01*
X802800Y971278D02*
X1347199D01*
X802800Y970738D02*
X1347199D01*
X802800Y970198D02*
X1347199D01*
X802800Y969658D02*
X1347199D01*
X802800Y969118D02*
X1347199D01*
X802800Y968578D02*
X1347199D01*
X802800Y968038D02*
X1347199D01*
X802800Y967498D02*
X1347199D01*
X802800Y966958D02*
X1347199D01*
X802800Y966418D02*
X1347199D01*
X1329165Y965878D02*
X1347199D01*
X1330292Y965338D02*
X1347199D01*
X1330927Y964798D02*
X1347199D01*
X1331361Y964258D02*
X1347199D01*
X1331667Y963718D02*
X1347199D01*
X1331874Y963178D02*
X1347199D01*
X1331999Y962638D02*
X1347199D01*
X1332048Y962098D02*
X1347199D01*
X1332025Y961558D02*
X1347199D01*
X1331929Y961018D02*
X1347199D01*
X1331753Y960478D02*
X1347199D01*
X1331486Y959938D02*
X1347199D01*
X1331104Y959398D02*
X1347199D01*
X1330556Y958858D02*
X1347199D01*
X1329688Y958318D02*
X1347199D01*
X802800Y957778D02*
X1347199D01*
X802800Y957238D02*
X1347199D01*
X802800Y956698D02*
X1347199D01*
X802800Y956158D02*
X1347199D01*
X1329818Y955618D02*
X1347199D01*
X1330631Y955078D02*
X1347199D01*
X1331155Y954538D02*
X1347199D01*
X1331522Y953998D02*
X1347199D01*
X1331778Y953458D02*
X1347199D01*
X1331944Y952918D02*
X1347199D01*
X1332032Y952378D02*
X1347199D01*
X1332046Y951838D02*
X1347199D01*
X1331988Y951298D02*
X1347199D01*
X1331855Y950758D02*
X1347199D01*
X1331637Y950218D02*
X1347199D01*
X1331318Y949678D02*
X1347199D01*
X1330866Y949138D02*
X1347199D01*
X1330198Y948598D02*
X1347199D01*
X1328932Y948058D02*
X1347199D01*
X802800Y947518D02*
X1347199D01*
X802800Y946978D02*
X1347199D01*
X802800Y946438D02*
X1347199D01*
X1329096Y945898D02*
X1347199D01*
X1330263Y945358D02*
X1347199D01*
X1330908Y944818D02*
X1347199D01*
X1331348Y944278D02*
X1347199D01*
X1331657Y943738D02*
X1347199D01*
X1331868Y943198D02*
X1347199D01*
X1331996Y942658D02*
X1347199D01*
X1332048Y942118D02*
X1347199D01*
X1332028Y941578D02*
X1347199D01*
X1331934Y941038D02*
X1347199D01*
X1331761Y940498D02*
X1347199D01*
X1331497Y939958D02*
X1347199D01*
X1331120Y939418D02*
X1347199D01*
X1330580Y938878D02*
X1347199D01*
X1329731Y938338D02*
X1347199D01*
X835059Y937798D02*
X1347199D01*
X834693Y937258D02*
X1347199D01*
X834213Y936718D02*
X1347199D01*
X833568Y936178D02*
X1347199D01*
X1329778Y935638D02*
X1347199D01*
X1330607Y935098D02*
X1347199D01*
X1331139Y934558D02*
X1347199D01*
X1331511Y934018D02*
X1347199D01*
X1331770Y933478D02*
X1347199D01*
X1331939Y932938D02*
X1347199D01*
X1332030Y932398D02*
X1347199D01*
X1332047Y931858D02*
X1347199D01*
X1331992Y931318D02*
X1347199D01*
X1331861Y930778D02*
X1347199D01*
X1331646Y930238D02*
X1347199D01*
X1331332Y929698D02*
X1347199D01*
X1330886Y929158D02*
X1347199D01*
X1330229Y928618D02*
X1347199D01*
X1329012Y928078D02*
X1347199D01*
X824895Y927538D02*
X1347199D01*
X1295138Y926998D02*
X1347199D01*
X1295778Y926458D02*
X1347199D01*
X1329022Y925918D02*
X1347199D01*
X1330233Y925378D02*
X1347199D01*
X1330888Y924838D02*
X1347199D01*
X1331334Y924298D02*
X1347199D01*
X1331648Y923758D02*
X1347199D01*
X1331862Y923218D02*
X1347199D01*
X1331992Y922678D02*
X1347199D01*
X1332047Y922138D02*
X1347199D01*
X1332030Y921598D02*
X1347199D01*
X1331939Y921058D02*
X1347199D01*
X1331769Y920518D02*
X1347199D01*
X1331509Y919978D02*
X1347199D01*
X1331137Y919438D02*
X1347199D01*
X1330604Y918898D02*
X1347199D01*
X1329773Y918358D02*
X1347199D01*
X1291777Y917818D02*
X1347199D01*
X1291789Y917278D02*
X1347199D01*
X1291670Y916738D02*
X1347199D01*
X1291396Y916198D02*
X1347199D01*
X1290878Y915658D02*
X1347199D01*
X802800Y915118D02*
X1347199D01*
X802800Y914578D02*
X1347199D01*
X802800Y914038D02*
X1347199D01*
X802800Y913498D02*
X1347199D01*
X802800Y912958D02*
X1347199D01*
X802800Y912418D02*
X1347199D01*
X1295326Y911878D02*
X1347199D01*
X1295870Y911338D02*
X1347199D01*
X1296156Y910798D02*
X1347199D01*
X1296285Y910258D02*
X1347199D01*
X1296282Y909718D02*
X1347199D01*
X1296148Y909178D02*
X1347199D01*
X1295853Y908638D02*
X1347199D01*
X1295294Y908098D02*
X1347199D01*
X802800Y907558D02*
X1347199D01*
X802800Y907018D02*
X1347199D01*
X802800Y906478D02*
X1347199D01*
X802800Y905938D02*
X1347199D01*
X802800Y905398D02*
X1347199D01*
X802800Y904858D02*
X1347199D01*
X802800Y904318D02*
X1347199D01*
X802800Y903778D02*
X1347199D01*
X802800Y903238D02*
X1347199D01*
X802800Y902698D02*
X1347199D01*
X802800Y902158D02*
X1347199D01*
X802800Y901618D02*
X1347199D01*
X802800Y901078D02*
X1347199D01*
X802800Y900538D02*
X1347199D01*
X802800Y899998D02*
X1347199D01*
X802800Y899458D02*
X1347199D01*
X802800Y898918D02*
X1347199D01*
X802800Y898378D02*
X1347199D01*
X802800Y897838D02*
X1347199D01*
X802800Y897298D02*
X1347199D01*
X802800Y896758D02*
X1347199D01*
X802800Y896218D02*
X1347199D01*
X802800Y895678D02*
X1347199D01*
X802800Y895138D02*
X1347199D01*
X802800Y894598D02*
X1347199D01*
X802800Y894058D02*
X1347199D01*
X802800Y893518D02*
X1347199D01*
X802800Y892978D02*
X1347199D01*
X802800Y892438D02*
X1347199D01*
X802800Y891898D02*
X1347199D01*
X802800Y891358D02*
X1347199D01*
X802800Y890818D02*
X1347199D01*
X802800Y890278D02*
X1347199D01*
X802800Y889738D02*
X1347199D01*
X802800Y889198D02*
X1347199D01*
X802800Y888658D02*
X1347199D01*
X802800Y888118D02*
X1347199D01*
X802800Y887578D02*
X1347199D01*
X1328302Y887038D02*
X1347199D01*
X1330040Y886498D02*
X1347199D01*
X1330765Y885958D02*
X1347199D01*
X1331248Y885418D02*
X1347199D01*
X1331587Y884878D02*
X1347199D01*
X1331822Y884338D02*
X1347199D01*
X1331970Y883798D02*
X1347199D01*
X1332041Y883258D02*
X1347199D01*
X1332040Y882718D02*
X1347199D01*
X1331965Y882178D02*
X1347199D01*
X1331814Y881638D02*
X1347199D01*
X1331575Y881098D02*
X1347199D01*
X1331231Y880558D02*
X1347199D01*
X1330741Y880018D02*
X1347199D01*
X1330000Y879478D02*
X1347199D01*
X835140Y878938D02*
X1347199D01*
X834797Y878398D02*
X1347199D01*
X834351Y877858D02*
X1347199D01*
X833756Y877318D02*
X1347199D01*
X1329457Y876778D02*
X1347199D01*
X1330431Y876238D02*
X1347199D01*
X1331019Y875698D02*
X1347199D01*
X1331426Y875158D02*
X1347199D01*
X1331712Y874618D02*
X1347199D01*
X1331903Y874078D02*
X1347199D01*
X1332014Y873538D02*
X1347199D01*
X1332050Y872998D02*
X1347199D01*
X1332013Y872458D02*
X1347199D01*
X1331903Y871918D02*
X1347199D01*
X1331711Y871378D02*
X1347199D01*
X1331425Y870838D02*
X1347199D01*
X1331017Y870298D02*
X1347199D01*
X1330428Y869758D02*
X1347199D01*
X1329450Y869218D02*
X1347199D01*
X824986Y868678D02*
X1347199D01*
X824597Y868138D02*
X1347199D01*
X824087Y867598D02*
X1347199D01*
X823392Y867058D02*
X1347199D01*
X832203Y866518D02*
X1347199D01*
X833333Y865978D02*
X1347199D01*
X1164442Y865438D02*
X1347199D01*
X1165702Y864898D02*
X1347199D01*
X1166368Y864358D02*
X1347199D01*
X1166820Y863818D02*
X1347199D01*
X1167138Y863278D02*
X1347199D01*
X1199419Y862738D02*
X1347199D01*
X1201118Y862198D02*
X1347199D01*
X1202300Y861658D02*
X1347199D01*
X1203240Y861118D02*
X1347199D01*
X1204028Y860578D02*
X1347199D01*
X1204706Y860038D02*
X1347199D01*
X1205300Y859498D02*
X1347199D01*
X1205826Y858958D02*
X1347199D01*
X1206295Y858418D02*
X1347199D01*
X1206715Y857878D02*
X1347199D01*
X1207090Y857338D02*
X1347199D01*
X1207427Y856798D02*
X1347199D01*
X1207728Y856258D02*
X1347199D01*
X1207996Y855718D02*
X1347199D01*
X1208233Y855178D02*
X1347199D01*
X1208442Y854638D02*
X1347199D01*
X1208623Y854098D02*
X1347199D01*
X1208778Y853558D02*
X1347199D01*
X1208907Y853018D02*
X1347199D01*
X1209013Y852478D02*
X1347199D01*
X1209094Y851938D02*
X1347199D01*
X1209152Y851398D02*
X1347199D01*
X1209187Y850858D02*
X1347199D01*
X1209200Y850318D02*
X1347199D01*
X1209189Y849778D02*
X1347199D01*
X1209155Y849238D02*
X1347199D01*
X1209099Y848698D02*
X1347199D01*
X1209019Y848158D02*
X1347199D01*
X1208916Y847618D02*
X1347199D01*
X1208788Y847078D02*
X1347199D01*
X1208634Y846538D02*
X1347199D01*
X1208455Y845998D02*
X1347199D01*
X1208249Y845458D02*
X1347199D01*
X1208013Y844918D02*
X1347199D01*
X1207748Y844378D02*
X1347199D01*
X1207449Y843838D02*
X1347199D01*
X1207115Y843298D02*
X1347199D01*
X1206742Y842758D02*
X1347199D01*
X1206326Y842218D02*
X1347199D01*
X1205861Y841678D02*
X1347199D01*
X1205339Y841138D02*
X1347199D01*
X1204750Y840598D02*
X1347199D01*
X1204078Y840058D02*
X1347199D01*
X1203299Y839518D02*
X1347199D01*
X1202372Y838978D02*
X1347199D01*
X1201211Y838438D02*
X1347199D01*
X1199569Y837898D02*
X1347199D01*
X1167156Y837358D02*
X1347199D01*
X1166846Y836818D02*
X1347199D01*
X1328158Y836278D02*
X1347199D01*
X1330461Y835738D02*
X1347199D01*
X1331813Y835198D02*
X1347199D01*
X1332845Y834658D02*
X1347199D01*
X1333693Y834118D02*
X1347199D01*
X1334416Y833578D02*
X1347199D01*
X1335045Y833038D02*
X1347199D01*
X1335600Y832498D02*
X1347199D01*
X1336093Y831958D02*
X1347199D01*
X1336534Y831418D02*
X1347199D01*
X1336929Y830878D02*
X1347199D01*
X1337282Y830338D02*
X1347199D01*
X1337598Y829798D02*
X1347199D01*
X1337881Y829258D02*
X1347199D01*
X1338131Y828718D02*
X1347199D01*
X1338353Y828178D02*
X1347199D01*
X1338546Y827638D02*
X1347199D01*
X1338712Y827098D02*
X1347199D01*
X1338853Y826558D02*
X1347199D01*
X1338969Y826018D02*
X1347199D01*
X1339061Y825478D02*
X1347199D01*
X1339129Y824938D02*
X1347199D01*
X1339175Y824398D02*
X1347199D01*
X1339197Y823858D02*
X1347199D01*
X1339196Y823318D02*
X1347199D01*
X1339173Y822778D02*
X1347199D01*
X1339127Y822238D02*
X1347199D01*
X1339058Y821698D02*
X1347199D01*
X1338965Y821158D02*
X1347199D01*
X1338847Y820618D02*
X1347199D01*
X1338706Y820078D02*
X1347199D01*
X1338538Y819538D02*
X1347199D01*
X1338344Y818998D02*
X1347199D01*
X1338122Y818458D02*
X1347199D01*
X1337870Y817918D02*
X1347199D01*
X1337586Y817378D02*
X1347199D01*
X1337268Y816838D02*
X1347199D01*
X1336913Y816298D02*
X1347199D01*
X1336517Y815758D02*
X1347199D01*
X1336074Y815218D02*
X1347199D01*
X1335578Y814678D02*
X1347199D01*
X1335021Y814138D02*
X1347199D01*
X1334388Y813598D02*
X1347199D01*
X1333660Y813058D02*
X1347199D01*
X1332806Y812518D02*
X1347199D01*
X1331765Y811978D02*
X1347199D01*
X1330392Y811438D02*
X1347199D01*
X1327986Y810898D02*
X1347199D01*
X802800Y810358D02*
X1347199D01*
X802800Y809818D02*
X1347199D01*
X802800Y809278D02*
X1347199D01*
X802800Y808738D02*
X1347199D01*
X802800Y808198D02*
X1347199D01*
X802800Y807658D02*
X1347199D01*
X802800Y807118D02*
X1347199D01*
X802800Y806578D02*
X1347199D01*
X802800Y806038D02*
X1347199D01*
X802800Y805498D02*
X1347199D01*
X802800Y804958D02*
X1347199D01*
X802800Y804418D02*
X1347199D01*
X802800Y803878D02*
X1347199D01*
X802800Y803338D02*
X1347199D01*
X802800Y887038D02*
X1327697D01*
X802800Y1015018D02*
X1327497D01*
X834461Y1054978D02*
X1327243D01*
X802800Y948058D02*
X1327067D01*
X825214Y928078D02*
X1326987D01*
X802800Y1261258D02*
X1326983D01*
X1296108Y925918D02*
X1326977D01*
X802800Y945898D02*
X1326903D01*
X802800Y965878D02*
X1326834D01*
X802800Y1026358D02*
X1326775D01*
X835627Y1037158D02*
X1326716D01*
X802800Y1017178D02*
X1326658D01*
X825283Y869218D02*
X1326549D01*
X832908Y876778D02*
X1326542D01*
X1318764Y1265578D02*
X1326515D01*
X802800Y1024738D02*
X1326442D01*
X834895Y1035538D02*
X1326437D01*
X1084782Y1044718D02*
X1326395D01*
X802800Y958318D02*
X1326311D01*
X835339Y938338D02*
X1326268D01*
X1291633Y918358D02*
X1326226D01*
X832611Y935638D02*
X1326221D01*
X802800Y955618D02*
X1326181D01*
X825688Y1047418D02*
X1326108D01*
X802800Y1007458D02*
X1326034D01*
X835399Y879478D02*
X1325999D01*
X832261Y886498D02*
X1325959D01*
X1277140Y996658D02*
X1325952D01*
X802800Y1261798D02*
X1325952D01*
X802800Y1014478D02*
X1325926D01*
X802800Y1005298D02*
X1325864D01*
X833905Y1054438D02*
X1325860D01*
X802800Y948598D02*
X1325801D01*
X829495Y1265038D02*
X1325790D01*
X825454Y928618D02*
X1325770D01*
X1296268Y925378D02*
X1325766D01*
X832617Y945358D02*
X1325736D01*
X802800Y965338D02*
X1325707D01*
X835739Y1037698D02*
X1325653D01*
X802800Y1017718D02*
X1325626D01*
X825505Y869758D02*
X1325571D01*
X831139Y876238D02*
X1325568D01*
X802800Y1211038D02*
X1325560D01*
X802800Y1024198D02*
X1325515D01*
X802800Y1262338D02*
X1325514D01*
X802800Y1026898D02*
X1325506D01*
X1084648Y1044178D02*
X1325490D01*
X802800Y958858D02*
X1325443D01*
X828311Y1264498D02*
X1325428D01*
X835545Y938878D02*
X1325419D01*
X1291325Y918898D02*
X1325395D01*
X823134Y935098D02*
X1325392D01*
X802800Y955078D02*
X1325368D01*
X834478Y1034998D02*
X1325344D01*
X825772Y1047958D02*
X1325325D01*
X1315882Y1106818D02*
X1325306D01*
X802800Y1262878D02*
X1325285D01*
X802800Y1007998D02*
X1325280D01*
X1267759Y1174318D02*
X1325275D01*
X835588Y880018D02*
X1325258D01*
X826609Y1263958D02*
X1325246D01*
X833365Y885958D02*
X1325234D01*
X802800Y1013938D02*
X1325213D01*
X802800Y1263418D02*
X1325201D01*
X833130Y1053898D02*
X1325171D01*
X802800Y949138D02*
X1325133D01*
X825627Y929158D02*
X1325113D01*
X1296294Y924838D02*
X1325111D01*
X1316086Y1118698D02*
X1325102D01*
X833572Y944818D02*
X1325091D01*
X802800Y964798D02*
X1325072D01*
X1277280Y997198D02*
X1325069D01*
X1091479Y1038238D02*
X1325037D01*
X802800Y1018258D02*
X1325018D01*
X1275433Y1004758D02*
X1325014D01*
X1316197Y1126258D02*
X1324991D01*
X825662Y870298D02*
X1324982D01*
X823734Y875698D02*
X1324980D01*
X802800Y1023658D02*
X1324944D01*
X1084353Y1043638D02*
X1324927D01*
X802800Y959398D02*
X1324895D01*
X835688Y939418D02*
X1324879D01*
X1290737Y919438D02*
X1324862D01*
X823908Y934558D02*
X1324860D01*
X802800Y954538D02*
X1324844D01*
X1316358Y1114378D02*
X1324830D01*
X825800Y1048498D02*
X1324814D01*
X825186Y810898D02*
X1324813D01*
X802800Y1008538D02*
X1324783D01*
X802800Y1027438D02*
X1324781D01*
X835715Y880558D02*
X1324768D01*
X834068Y885418D02*
X1324751D01*
X802800Y1013398D02*
X1324736D01*
X831787Y1053358D02*
X1324707D01*
X802800Y949678D02*
X1324681D01*
X833929Y1034458D02*
X1324671D01*
X825739Y929698D02*
X1324667D01*
X1296190Y924298D02*
X1324665D01*
X834216Y944278D02*
X1324651D01*
X1166405Y836278D02*
X1324641D01*
X802800Y964258D02*
X1324638D01*
X1091948Y1038778D02*
X1324613D01*
X802800Y1018798D02*
X1324600D01*
X825758Y870838D02*
X1324574D01*
X824334Y875158D02*
X1324573D01*
X824587Y1164058D02*
X1324564D01*
X802800Y1023118D02*
X1324548D01*
X1083794Y1043098D02*
X1324536D01*
X802800Y959938D02*
X1324513D01*
X835772Y939958D02*
X1324502D01*
X835774Y919978D02*
X1324490D01*
X824463Y934018D02*
X1324488D01*
X1277287Y997738D02*
X1324478D01*
X802800Y953998D02*
X1324477D01*
X825772Y1049038D02*
X1324456D01*
X1276528Y1004218D02*
X1324439D01*
X825323Y1221298D02*
X1324438D01*
X802800Y1009078D02*
X1324434D01*
X835784Y881098D02*
X1324424D01*
X834583Y884878D02*
X1324412D01*
X802800Y1012858D02*
X1324401D01*
X823572Y1052818D02*
X1324381D01*
X802800Y950218D02*
X1324362D01*
X825793Y930238D02*
X1324353D01*
X1295936Y923758D02*
X1324351D01*
X834695Y943738D02*
X1324342D01*
X802800Y963718D02*
X1324332D01*
X1092196Y1039318D02*
X1324315D01*
X802800Y1019338D02*
X1324306D01*
X825798Y871378D02*
X1324288D01*
X824785Y874618D02*
X1324287D01*
X802800Y1022578D02*
X1324270D01*
X802800Y1027978D02*
X1324270D01*
X833908Y1042558D02*
X1324261D01*
X802800Y960478D02*
X1324246D01*
X835800Y940498D02*
X1324238D01*
X835799Y920518D02*
X1324230D01*
X824883Y933478D02*
X1324229D01*
X802800Y953458D02*
X1324221D01*
X825689Y1049578D02*
X1324207D01*
X1316993Y1107358D02*
X1324195D01*
X802800Y1009618D02*
X1324192D01*
X833164Y1033918D02*
X1324189D01*
X835798Y881638D02*
X1324185D01*
X834975Y884338D02*
X1324177D01*
X802800Y1012318D02*
X1324170D01*
X824216Y1052278D02*
X1324157D01*
X802800Y950758D02*
X1324144D01*
X825792Y930778D02*
X1324138D01*
X1295455Y923218D02*
X1324137D01*
X835061Y943198D02*
X1324131D01*
X802800Y963178D02*
X1324125D01*
X1092295Y1039858D02*
X1324114D01*
X802800Y1019878D02*
X1324108D01*
X1317090Y1119238D02*
X1324098D01*
X825783Y871918D02*
X1324096D01*
X825130Y874078D02*
X1324096D01*
X802800Y1022038D02*
X1324085D01*
X1091102Y1042018D02*
X1324080D01*
X802800Y961018D02*
X1324070D01*
X835772Y941038D02*
X1324065D01*
X835770Y921058D02*
X1324060D01*
X825205Y932938D02*
X1324060D01*
X802800Y952918D02*
X1324055D01*
X825546Y1050118D02*
X1324047D01*
X1277164Y998278D02*
X1324045D01*
X1317147Y1125718D02*
X1324041D01*
X802800Y1010158D02*
X1324038D01*
X835756Y882178D02*
X1324034D01*
X835275Y883798D02*
X1324029D01*
X802800Y1011778D02*
X1324025D01*
X824695Y1051738D02*
X1324017D01*
X1276975Y1003678D02*
X1324016D01*
X802800Y951298D02*
X1324011D01*
X825736Y931318D02*
X1324007D01*
X835331Y922678D02*
X1324007D01*
X835340Y942658D02*
X1324003D01*
X802800Y962638D02*
X1324000D01*
X1092265Y1040398D02*
X1323994D01*
X802800Y1020418D02*
X1323991D01*
X825712Y872458D02*
X1323986D01*
X825392Y873538D02*
X1323985D01*
X802800Y1021498D02*
X1323980D01*
X1091761Y1041478D02*
X1323978D01*
X802800Y961558D02*
X1323974D01*
X835689Y941578D02*
X1323971D01*
X835684Y921598D02*
X1323969D01*
X825448Y932398D02*
X1323969D01*
X802800Y952378D02*
X1323967D01*
X825340Y1050658D02*
X1323964D01*
X802800Y1010698D02*
X1323961D01*
X835658Y882718D02*
X1323959D01*
X835499Y883258D02*
X1323958D01*
X802800Y1011238D02*
X1323957D01*
X825061Y1051198D02*
X1323954D01*
X1317234Y1113838D02*
X1323954D01*
X802800Y951838D02*
X1323953D01*
X825622Y931858D02*
X1323952D01*
X835540Y922138D02*
X1323952D01*
X835546Y942118D02*
X1323951D01*
X802800Y962098D02*
X1323951D01*
X1092099Y1040938D02*
X1323950D01*
X802800Y1020958D02*
X1323950D01*
X825583Y872998D02*
X1323949D01*
X802800Y1028518D02*
X1323891D01*
X831864Y1033378D02*
X1323830D01*
X825501Y1211578D02*
X1323791D01*
X1276884Y998818D02*
X1323724D01*
X1267583Y1173778D02*
X1323710D01*
X1277209Y1003138D02*
X1323702D01*
X802800Y1029058D02*
X1323610D01*
X802800Y1032838D02*
X1323566D01*
X1317624Y1107898D02*
X1323564D01*
X1317688Y1119778D02*
X1323500D01*
X1276354Y999358D02*
X1323489D01*
X1277297Y1002598D02*
X1323474D01*
X1317726Y1125178D02*
X1323462D01*
X802800Y1029598D02*
X1323409D01*
X1317786Y1113298D02*
X1323402D01*
X825930Y1164598D02*
X1323402D01*
X802800Y1032298D02*
X1323379D01*
X826315Y1220758D02*
X1323334D01*
X835785Y999898D02*
X1323328D01*
X1277257Y1002058D02*
X1323318D01*
X802800Y1030138D02*
X1323277D01*
X802800Y1031758D02*
X1323260D01*
X1276020Y1000438D02*
X1323232D01*
X1277080Y1001518D02*
X1323228D01*
X802800Y1030678D02*
X1323210D01*
X802800Y1031218D02*
X1323204D01*
X1276725Y1000978D02*
X1323200D01*
X1318056Y1108438D02*
X1323132D01*
X1318101Y1120318D02*
X1323087D01*
X1318128Y1124638D02*
X1323060D01*
X1318170Y1112758D02*
X1323018D01*
X826424Y1212118D02*
X1322943D01*
X1267381Y1173238D02*
X1322889D01*
X1318360Y1108978D02*
X1322828D01*
X1318391Y1120858D02*
X1322797D01*
X1318410Y1124098D02*
X1322778D01*
X1318438Y1112218D02*
X1322749D01*
X826705Y1165138D02*
X1322678D01*
X826975Y1220218D02*
X1322631D01*
X1318566Y1109518D02*
X1322622D01*
X1318586Y1121398D02*
X1322602D01*
X1318598Y1123558D02*
X1322590D01*
X1318616Y1111678D02*
X1322572D01*
X1318689Y1110058D02*
X1322499D01*
X1318699Y1121938D02*
X1322489D01*
X1318705Y1123018D02*
X1322483D01*
X1318713Y1111138D02*
X1322475D01*
X1318737Y1110598D02*
X1322450D01*
X1318738Y1122478D02*
X1322450D01*
X827592Y811438D02*
X1322407D01*
X827054Y1212658D02*
X1322348D01*
X1165759Y835738D02*
X1322338D01*
X1267150Y1172698D02*
X1322309D01*
X1258967Y1165678D02*
X1322152D01*
X827464Y1219678D02*
X1322116D01*
X827523Y1213198D02*
X1321902D01*
X1266889Y1172158D02*
X1321871D01*
X1260504Y1166218D02*
X1321751D01*
X827837Y1219138D02*
X1321724D01*
X827883Y1213738D02*
X1321559D01*
X1266595Y1171618D02*
X1321536D01*
X1261621Y1166758D02*
X1321445D01*
X828122Y1218598D02*
X1321424D01*
X828156Y1214278D02*
X1321300D01*
X1266267Y1171078D02*
X1321283D01*
X1262523Y1167298D02*
X1321215D01*
X1300299Y1272598D02*
X1321205D01*
X828333Y1218058D02*
X1321200D01*
X1299777Y1276378D02*
X1321173D01*
X828358Y1214818D02*
X1321111D01*
X1265900Y1170538D02*
X1321098D01*
X1263283Y1167838D02*
X1321052D01*
X828480Y1217518D02*
X1321042D01*
X828965Y811978D02*
X1321034D01*
X1164587Y835198D02*
X1320986D01*
X828496Y1215358D02*
X1320984D01*
X1265490Y1169998D02*
X1320976D01*
X1263942Y1168378D02*
X1320949D01*
X828568Y1216978D02*
X1320943D01*
X828576Y1215898D02*
X1320915D01*
X1265033Y1169458D02*
X1320912D01*
X1264520Y1168918D02*
X1320903D01*
X828599Y1216438D02*
X1320901D01*
X1300457Y1273138D02*
X1320646D01*
X1300108Y1275838D02*
X1320629D01*
X1300537Y1273678D02*
X1320351D01*
X1300336Y1275298D02*
X1320343D01*
X1300544Y1274218D02*
X1320217D01*
X1300478Y1274758D02*
X1320214D01*
X830006Y812518D02*
X1319993D01*
X830045Y834658D02*
X1319954D01*
X830860Y813058D02*
X1319139D01*
X830893Y834118D02*
X1319106D01*
X831588Y813598D02*
X1318411D01*
X831616Y833578D02*
X1318383D01*
X832221Y814138D02*
X1317778D01*
X832245Y833038D02*
X1317754D01*
X1268262Y1177018D02*
X1317343D01*
X832778Y814678D02*
X1317221D01*
X832557Y1208338D02*
X1317208D01*
X832800Y832498D02*
X1317199D01*
X1262212Y1188898D02*
X1317102D01*
X832736Y1196458D02*
X1316991D01*
X832341Y1200778D02*
X1316901D01*
X1266480Y1184578D02*
X1316805D01*
X833274Y815218D02*
X1316725D01*
X833293Y831958D02*
X1316706D01*
X833717Y815758D02*
X1316282D01*
X833734Y831418D02*
X1316265D01*
X830436Y1265578D02*
X1316235D01*
X1268292Y1177558D02*
X1316211D01*
X833484Y1207798D02*
X1316150D01*
X1027724Y1269358D02*
X1316145D01*
X1261244Y1189438D02*
X1316098D01*
X833583Y1195918D02*
X1316041D01*
X833373Y1201318D02*
X1315993D01*
X1266786Y1184038D02*
X1315940D01*
X834113Y816298D02*
X1315886D01*
X834129Y830878D02*
X1315870D01*
X831224Y1266118D02*
X1315660D01*
X833913Y1268818D02*
X1315615D01*
X1268299Y1178098D02*
X1315575D01*
X834055Y1207258D02*
X1315534D01*
X834468Y816838D02*
X1315531D01*
X834482Y830338D02*
X1315517D01*
X1260011Y1189978D02*
X1315500D01*
X834122Y1195378D02*
X1315462D01*
X833981Y1201858D02*
X1315429D01*
X1267058Y1183498D02*
X1315393D01*
X831903Y1266658D02*
X1315359D01*
X833493Y1268278D02*
X1315335D01*
X832498Y1267198D02*
X1315219D01*
X834786Y817378D02*
X1315213D01*
X833024Y1267738D02*
X1315212D01*
X834798Y829798D02*
X1315201D01*
X1268284Y1178638D02*
X1315140D01*
X834451Y1206718D02*
X1315111D01*
X1258168Y1190518D02*
X1315087D01*
X834499Y1194838D02*
X1315060D01*
X834399Y1202398D02*
X1315037D01*
X1267300Y1182958D02*
X1315012D01*
X835070Y817918D02*
X1314929D01*
X835081Y829258D02*
X1314918D01*
X1268245Y1179178D02*
X1314833D01*
X834729Y1206178D02*
X1314814D01*
X834656Y1191058D02*
X1314797D01*
X834762Y1194298D02*
X1314778D01*
X834693Y1202938D02*
X1314763D01*
X1267513Y1182418D02*
X1314745D01*
X835322Y818458D02*
X1314677D01*
X835331Y828718D02*
X1314668D01*
X1268184Y1179718D02*
X1314626D01*
X834914Y1205638D02*
X1314613D01*
X834867Y1191598D02*
X1314602D01*
X834934Y1193758D02*
X1314590D01*
X834891Y1203478D02*
X1314580D01*
X1267698Y1181878D02*
X1314570D01*
X1268099Y1180258D02*
X1314501D01*
X835019Y1205098D02*
X1314494D01*
X834995Y1192138D02*
X1314489D01*
X835028Y1193218D02*
X1314483D01*
X835008Y1204018D02*
X1314478D01*
X1267856Y1181338D02*
X1314473D01*
X835544Y818998D02*
X1314455D01*
X1267990Y1180798D02*
X1314451D01*
X835049Y1204558D02*
X1314450D01*
X835048Y1192678D02*
X1314450D01*
X835553Y828178D02*
X1314446D01*
X835738Y819538D02*
X1314261D01*
X835746Y827638D02*
X1314253D01*
X835906Y820078D02*
X1314093D01*
X835912Y827098D02*
X1314087D01*
X836047Y820618D02*
X1313952D01*
X836053Y826558D02*
X1313946D01*
X836165Y821158D02*
X1313834D01*
X836169Y826018D02*
X1313830D01*
X836258Y821698D02*
X1313741D01*
X836261Y825478D02*
X1313738D01*
X836327Y822238D02*
X1313672D01*
X836329Y824938D02*
X1313670D01*
X836373Y822778D02*
X1313626D01*
X836375Y824398D02*
X1313624D01*
X836396Y823318D02*
X1313603D01*
X836397Y823858D02*
X1313602D01*
X836999Y1106818D02*
X1313495D01*
X837142Y1118698D02*
X1313291D01*
X836215Y1126258D02*
X1313180D01*
X836476Y1114378D02*
X1313019D01*
X837867Y1107358D02*
X1312384D01*
X837949Y1119238D02*
X1312287D01*
X837499Y1125718D02*
X1312230D01*
X837603Y1113838D02*
X1312143D01*
X838415Y1107898D02*
X1311753D01*
X838471Y1119778D02*
X1311689D01*
X838170Y1125178D02*
X1311651D01*
X838238Y1113298D02*
X1311591D01*
X838797Y1108438D02*
X1311321D01*
X838837Y1120318D02*
X1311276D01*
X838625Y1124638D02*
X1311249D01*
X838672Y1112758D02*
X1311207D01*
X839064Y1108978D02*
X1311017D01*
X839091Y1120858D02*
X1310986D01*
X838945Y1124098D02*
X1310967D01*
X838978Y1112218D02*
X1310938D01*
X839240Y1109518D02*
X1310811D01*
X839256Y1121398D02*
X1310791D01*
X839164Y1123558D02*
X1310779D01*
X839185Y1111678D02*
X1310761D01*
X839336Y1110058D02*
X1310688D01*
X839343Y1121938D02*
X1310678D01*
X839298Y1123018D02*
X1310672D01*
X839310Y1111138D02*
X1310664D01*
X839359Y1110598D02*
X1310639D01*
X839357Y1122478D02*
X1310639D01*
X840359Y1130038D02*
X1310500D01*
X802800Y1103038D02*
X1309902D01*
X841115Y1094938D02*
X1309264D01*
X840546Y1138138D02*
X1309028D01*
X841447Y1130578D02*
X1308852D01*
X841005Y1102498D02*
X1308668D01*
X841872Y1095478D02*
X1308354D01*
X841542Y1137598D02*
X1308216D01*
X842089Y1131118D02*
X1308107D01*
X841804Y1101958D02*
X1307988D01*
X842382Y1096018D02*
X1307776D01*
X842152Y1137058D02*
X1307680D01*
X842536Y1131658D02*
X1307603D01*
X842334Y1101418D02*
X1307519D01*
X842747Y1096558D02*
X1307367D01*
X842581Y1136518D02*
X1307298D01*
X842857Y1132198D02*
X1307242D01*
X842712Y1100878D02*
X1307181D01*
X843006Y1097098D02*
X1307073D01*
X842890Y1135978D02*
X1307024D01*
X843083Y1132738D02*
X1306985D01*
X842982Y1100338D02*
X1306943D01*
X843181Y1097638D02*
X1306870D01*
X843105Y1135438D02*
X1306838D01*
X843228Y1133278D02*
X1306813D01*
X843166Y1099798D02*
X1306787D01*
X843281Y1098178D02*
X1306745D01*
X843241Y1134898D02*
X1306728D01*
X843301Y1133818D02*
X1306716D01*
X843273Y1099258D02*
X1306705D01*
X843311Y1098718D02*
X1306691D01*
X843305Y1134358D02*
X1306688D01*
X1287142Y1277998D02*
X1295857D01*
X1288428Y1270438D02*
X1294571D01*
X1288607Y1277458D02*
X1294392D01*
X1289197Y1270978D02*
X1293802D01*
X1289307Y1276918D02*
X1293692D01*
X1289700Y1271518D02*
X1293299D01*
X1289777Y1276378D02*
X1293222D01*
X1290054Y1272058D02*
X1292945D01*
X1290108Y1275838D02*
X1292891D01*
X824478Y926998D02*
X1292861D01*
X802800Y908098D02*
X1292705D01*
X1290299Y1272598D02*
X1292700D01*
X802800Y911878D02*
X1292673D01*
X1290336Y1275298D02*
X1292663D01*
X835049Y923218D02*
X1292544D01*
X1290457Y1273138D02*
X1292542D01*
X1290478Y1274758D02*
X1292521D01*
X1290537Y1273678D02*
X1292462D01*
X1290544Y1274218D02*
X1292455D01*
X823929Y926458D02*
X1292221D01*
X802800Y908638D02*
X1292146D01*
X802800Y911338D02*
X1292129D01*
X834679Y923758D02*
X1292063D01*
X823164Y925918D02*
X1291891D01*
X802800Y909178D02*
X1291851D01*
X802800Y910798D02*
X1291843D01*
X834195Y924298D02*
X1291809D01*
X832570Y925378D02*
X1291731D01*
X802800Y909718D02*
X1291717D01*
X802800Y910258D02*
X1291714D01*
X833543Y924838D02*
X1291705D01*
X835692Y919438D02*
X1288262D01*
X832656Y915658D02*
X1288121D01*
X835552Y918898D02*
X1287674D01*
X833596Y916198D02*
X1287603D01*
X835348Y918358D02*
X1287366D01*
X834234Y916738D02*
X1287329D01*
X835071Y917818D02*
X1287222D01*
X834708Y917278D02*
X1287210D01*
X1277142Y1277998D02*
X1285857D01*
X1278428Y1270438D02*
X1284571D01*
X1278607Y1277458D02*
X1284392D01*
X1279197Y1270978D02*
X1283802D01*
X1279307Y1276918D02*
X1283692D01*
X1279700Y1271518D02*
X1283299D01*
X1279777Y1276378D02*
X1283222D01*
X1280054Y1272058D02*
X1282945D01*
X1280108Y1275838D02*
X1282891D01*
X1280299Y1272598D02*
X1282700D01*
X1280336Y1275298D02*
X1282663D01*
X1280457Y1273138D02*
X1282542D01*
X1280478Y1274758D02*
X1282521D01*
X1280537Y1273678D02*
X1282462D01*
X1280544Y1274218D02*
X1282455D01*
X1267142Y1277998D02*
X1275857D01*
X1268428Y1270438D02*
X1274571D01*
X831160Y1004758D02*
X1274566D01*
X1268607Y1277458D02*
X1274392D01*
X835716Y1000438D02*
X1273979D01*
X832254Y994498D02*
X1273861D01*
X1269197Y1270978D02*
X1273802D01*
X834065Y995578D02*
X1273735D01*
X1269307Y1276918D02*
X1273692D01*
X835798Y999358D02*
X1273645D01*
X825658Y990718D02*
X1273544D01*
X832913Y1004218D02*
X1273471D01*
X1269700Y1271518D02*
X1273299D01*
X835589Y1000978D02*
X1273274D01*
X1269777Y1276378D02*
X1273222D01*
X823365Y993958D02*
X1273221D01*
X834581Y996118D02*
X1273160D01*
X835756Y998818D02*
X1273115D01*
X825499Y991258D02*
X1273063D01*
X833760Y1003678D02*
X1273024D01*
X1270054Y1272058D02*
X1272945D01*
X835400Y1001518D02*
X1272919D01*
X824068Y993418D02*
X1272891D01*
X1270108Y1275838D02*
X1272891D01*
X834974Y996658D02*
X1272859D01*
X835657Y998278D02*
X1272835D01*
X825275Y991798D02*
X1272809D01*
X834353Y1003138D02*
X1272790D01*
X835141Y1002058D02*
X1272742D01*
X824583Y992878D02*
X1272731D01*
X835274Y997198D02*
X1272719D01*
X835498Y997738D02*
X1272712D01*
X824975Y992338D02*
X1272705D01*
X834799Y1002598D02*
X1272702D01*
X1270299Y1272598D02*
X1272700D01*
X1270336Y1275298D02*
X1272663D01*
X1270457Y1273138D02*
X1272542D01*
X1270478Y1274758D02*
X1272521D01*
X1270537Y1273678D02*
X1272462D01*
X1270544Y1274218D02*
X1272455D01*
X1202642Y1277998D02*
X1265857D01*
X1203928Y1270438D02*
X1264571D01*
X1204107Y1277458D02*
X1264392D01*
X1204697Y1270978D02*
X1263802D01*
X1204807Y1276918D02*
X1263692D01*
X1205200Y1271518D02*
X1263299D01*
X1205277Y1276378D02*
X1263222D01*
X1205554Y1272058D02*
X1262945D01*
X1205608Y1275838D02*
X1262891D01*
X1205799Y1272598D02*
X1262700D01*
X1205836Y1275298D02*
X1262663D01*
X1205957Y1273138D02*
X1262542D01*
X1205978Y1274758D02*
X1262521D01*
X1206037Y1273678D02*
X1262462D01*
X1206044Y1274218D02*
X1262455D01*
X834346Y1190518D02*
X1252831D01*
X827261Y1165678D02*
X1252032D01*
X833905Y1189978D02*
X1250988D01*
X827682Y1166218D02*
X1250495D01*
X833259Y1189438D02*
X1249755D01*
X828004Y1166758D02*
X1249378D01*
X832087Y1188898D02*
X1248787D01*
X828247Y1167298D02*
X1248476D01*
X1240897Y1226698D02*
X1248102D01*
X1241008Y1234258D02*
X1247991D01*
X802800Y1188358D02*
X1247980D01*
X828422Y1167838D02*
X1247716D01*
X802800Y1187818D02*
X1247288D01*
X1241901Y1227238D02*
X1247098D01*
X828536Y1168378D02*
X1247057D01*
X1241958Y1233718D02*
X1247041D01*
X802800Y1187278D02*
X1246682D01*
X1242499Y1227778D02*
X1246500D01*
X828592Y1168918D02*
X1246479D01*
X1242537Y1233178D02*
X1246462D01*
X802800Y1186738D02*
X1246147D01*
X1242912Y1228318D02*
X1246087D01*
X1242939Y1232638D02*
X1246060D01*
X828593Y1169458D02*
X1245966D01*
X1243202Y1228858D02*
X1245797D01*
X1243221Y1232098D02*
X1245778D01*
X802800Y1186198D02*
X1245670D01*
X1243397Y1229398D02*
X1245602D01*
X1243409Y1231558D02*
X1245590D01*
X828539Y1169998D02*
X1245509D01*
X1243510Y1229938D02*
X1245489D01*
X1243516Y1231018D02*
X1245483D01*
X1243549Y1230478D02*
X1245450D01*
X802800Y1185658D02*
X1245244D01*
X828428Y1170538D02*
X1245099D01*
X802800Y1185118D02*
X1244862D01*
X828255Y1171078D02*
X1244732D01*
X832896Y1184578D02*
X1244519D01*
X828015Y1171618D02*
X1244404D01*
X833677Y1184038D02*
X1244213D01*
X827697Y1172158D02*
X1244110D01*
X834187Y1183498D02*
X1243941D01*
X827281Y1172698D02*
X1243849D01*
X834544Y1182958D02*
X1243699D01*
X826732Y1173238D02*
X1243618D01*
X834793Y1182418D02*
X1243486D01*
X825969Y1173778D02*
X1243416D01*
X834953Y1181878D02*
X1243301D01*
X824674Y1174318D02*
X1243240D01*
X835035Y1181338D02*
X1243143D01*
X802800Y1174858D02*
X1243091D01*
X835045Y1180798D02*
X1243009D01*
X802800Y1175398D02*
X1242967D01*
X834981Y1180258D02*
X1242900D01*
X802800Y1175938D02*
X1242867D01*
X834842Y1179718D02*
X1242815D01*
X802800Y1176478D02*
X1242790D01*
X834617Y1179178D02*
X1242754D01*
X831742Y1177018D02*
X1242737D01*
X834290Y1178638D02*
X1242715D01*
X833135Y1177558D02*
X1242707D01*
X833825Y1178098D02*
X1242700D01*
X1230897Y1226698D02*
X1238102D01*
X1231008Y1234258D02*
X1237991D01*
X1231901Y1227238D02*
X1237098D01*
X1231958Y1233718D02*
X1237041D01*
X1232499Y1227778D02*
X1236500D01*
X1232537Y1233178D02*
X1236462D01*
X1232912Y1228318D02*
X1236087D01*
X1232939Y1232638D02*
X1236060D01*
X1233202Y1228858D02*
X1235797D01*
X1233221Y1232098D02*
X1235778D01*
X1233397Y1229398D02*
X1235602D01*
X1233409Y1231558D02*
X1235590D01*
X1233510Y1229938D02*
X1235489D01*
X1233516Y1231018D02*
X1235483D01*
X1233549Y1230478D02*
X1235450D01*
X1220897Y1226698D02*
X1228102D01*
X1221008Y1234258D02*
X1227991D01*
X1221901Y1227238D02*
X1227098D01*
X1221958Y1233718D02*
X1227041D01*
X1222499Y1227778D02*
X1226500D01*
X1222537Y1233178D02*
X1226462D01*
X1222912Y1228318D02*
X1226087D01*
X1222939Y1232638D02*
X1226060D01*
X1223202Y1228858D02*
X1225797D01*
X1223221Y1232098D02*
X1225778D01*
X1223397Y1229398D02*
X1225602D01*
X1223409Y1231558D02*
X1225590D01*
X1223510Y1229938D02*
X1225489D01*
X1223516Y1231018D02*
X1225483D01*
X1223549Y1230478D02*
X1225450D01*
X1156397Y1226698D02*
X1218102D01*
X1156508Y1234258D02*
X1217991D01*
X1157401Y1227238D02*
X1217098D01*
X1157458Y1233718D02*
X1217041D01*
X1157999Y1227778D02*
X1216500D01*
X1158037Y1233178D02*
X1216462D01*
X1158412Y1228318D02*
X1216087D01*
X1158439Y1232638D02*
X1216060D01*
X1158702Y1228858D02*
X1215797D01*
X1158721Y1232098D02*
X1215778D01*
X1158897Y1229398D02*
X1215602D01*
X1158909Y1231558D02*
X1215590D01*
X1159010Y1229938D02*
X1215489D01*
X1159016Y1231018D02*
X1215483D01*
X1159049Y1230478D02*
X1215450D01*
X1192642Y1277998D02*
X1201357D01*
X1193928Y1270438D02*
X1200071D01*
X1194107Y1277458D02*
X1199892D01*
X1194697Y1270978D02*
X1199302D01*
X1194807Y1276918D02*
X1199192D01*
X1195200Y1271518D02*
X1198799D01*
X1195277Y1276378D02*
X1198722D01*
X1195554Y1272058D02*
X1198445D01*
X1195608Y1275838D02*
X1198391D01*
X1195799Y1272598D02*
X1198200D01*
X1195836Y1275298D02*
X1198163D01*
X1195957Y1273138D02*
X1198042D01*
X1195978Y1274758D02*
X1198021D01*
X1196037Y1273678D02*
X1197962D01*
X1196044Y1274218D02*
X1197955D01*
X1167355Y862738D02*
X1193380D01*
X1167367Y837898D02*
X1193230D01*
X1167489Y862198D02*
X1191681D01*
X1167495Y838438D02*
X1191588D01*
X1182642Y1277998D02*
X1191357D01*
X1167546Y861658D02*
X1190499D01*
X1167548Y838978D02*
X1190427D01*
X1183928Y1270438D02*
X1190071D01*
X1184107Y1277458D02*
X1189892D01*
X1167532Y861118D02*
X1189559D01*
X1167528Y839518D02*
X1189500D01*
X1184697Y1270978D02*
X1189302D01*
X1184807Y1276918D02*
X1189192D01*
X1185200Y1271518D02*
X1188799D01*
X1167443Y860578D02*
X1188771D01*
X1185277Y1276378D02*
X1188722D01*
X1167434Y840058D02*
X1188721D01*
X1185554Y1272058D02*
X1188445D01*
X1185608Y1275838D02*
X1188391D01*
X1185799Y1272598D02*
X1188200D01*
X1185836Y1275298D02*
X1188163D01*
X1167277Y860038D02*
X1188093D01*
X1167262Y840598D02*
X1188049D01*
X1185957Y1273138D02*
X1188042D01*
X1185978Y1274758D02*
X1188021D01*
X1186037Y1273678D02*
X1187962D01*
X1186044Y1274218D02*
X1187955D01*
X1167021Y859498D02*
X1187499D01*
X1166999Y841138D02*
X1187460D01*
X1166653Y858958D02*
X1186973D01*
X1166622Y841678D02*
X1186938D01*
X1166128Y858418D02*
X1186504D01*
X1166083Y842218D02*
X1186473D01*
X1165313Y857878D02*
X1186084D01*
X1165236Y842758D02*
X1186057D01*
X1142783Y857338D02*
X1185709D01*
X1142627Y843298D02*
X1185684D01*
X967227Y856798D02*
X1185372D01*
X967249Y843838D02*
X1185350D01*
X967528Y856258D02*
X1185071D01*
X967548Y844378D02*
X1185051D01*
X967796Y855718D02*
X1184803D01*
X967813Y844918D02*
X1184786D01*
X968033Y855178D02*
X1184566D01*
X968049Y845458D02*
X1184550D01*
X968242Y854638D02*
X1184357D01*
X968255Y845998D02*
X1184344D01*
X1159404Y854098D02*
X1184176D01*
X1159501Y846538D02*
X1184165D01*
X1160404Y853558D02*
X1184021D01*
X1160454Y847078D02*
X1184011D01*
X1161001Y853018D02*
X1183892D01*
X1161035Y847618D02*
X1183883D01*
X1161414Y852478D02*
X1183786D01*
X1161437Y848158D02*
X1183780D01*
X1161703Y851938D02*
X1183705D01*
X1161720Y848698D02*
X1183700D01*
X1161898Y851398D02*
X1183647D01*
X1161908Y849238D02*
X1183644D01*
X1162011Y850858D02*
X1183612D01*
X1162016Y849778D02*
X1183610D01*
X1162049Y850318D02*
X1183599D01*
X1172642Y1277998D02*
X1181357D01*
X1173928Y1270438D02*
X1180071D01*
X1174107Y1277458D02*
X1179892D01*
X1174697Y1270978D02*
X1179302D01*
X1174807Y1276918D02*
X1179192D01*
X1175200Y1271518D02*
X1178799D01*
X1175277Y1276378D02*
X1178722D01*
X1175554Y1272058D02*
X1178445D01*
X1175608Y1275838D02*
X1178391D01*
X1175799Y1272598D02*
X1178200D01*
X1175836Y1275298D02*
X1178163D01*
X1175957Y1273138D02*
X1178042D01*
X1175978Y1274758D02*
X1178021D01*
X1176037Y1273678D02*
X1177962D01*
X1176044Y1274218D02*
X1177955D01*
X1108142Y1277998D02*
X1171357D01*
X1109428Y1270438D02*
X1170071D01*
X1109607Y1277458D02*
X1169892D01*
X1110197Y1270978D02*
X1169302D01*
X1110307Y1276918D02*
X1169192D01*
X1110700Y1271518D02*
X1168799D01*
X1110777Y1276378D02*
X1168722D01*
X1111054Y1272058D02*
X1168445D01*
X1111108Y1275838D02*
X1168391D01*
X1111299Y1272598D02*
X1168200D01*
X1111336Y1275298D02*
X1168163D01*
X1111457Y1273138D02*
X1168042D01*
X1111478Y1274758D02*
X1168021D01*
X1111537Y1273678D02*
X1167962D01*
X1111544Y1274218D02*
X1167955D01*
X1153542Y865438D02*
X1162557D01*
X1153687Y835198D02*
X1162412D01*
X1154336Y842758D02*
X1161763D01*
X1154413Y857878D02*
X1161686D01*
X1154802Y864898D02*
X1161297D01*
X1154859Y835738D02*
X1161240D01*
X1155183Y842218D02*
X1160916D01*
X1155228Y858418D02*
X1160871D01*
X1155468Y864358D02*
X1160631D01*
X1155505Y836278D02*
X1160594D01*
X1155722Y841678D02*
X1160377D01*
X1155753Y858958D02*
X1160346D01*
X1155920Y863818D02*
X1160179D01*
X1155946Y836818D02*
X1160153D01*
X1156099Y841138D02*
X1160000D01*
X1156121Y859498D02*
X1159978D01*
X1156238Y863278D02*
X1159861D01*
X1156256Y837358D02*
X1159843D01*
X1156362Y840598D02*
X1159737D01*
X1156377Y860038D02*
X1159722D01*
X1156455Y862738D02*
X1159644D01*
X1156467Y837898D02*
X1159632D01*
X1156534Y840058D02*
X1159565D01*
X1156543Y860578D02*
X1159556D01*
X1156589Y862198D02*
X1159510D01*
X1156595Y838438D02*
X1159504D01*
X1156628Y839518D02*
X1159471D01*
X1156632Y861118D02*
X1159467D01*
X1156646Y861658D02*
X1159453D01*
X1156648Y838978D02*
X1159451D01*
X1149114Y854098D02*
X1156595D01*
X1149183Y846538D02*
X1156498D01*
X1149905Y853558D02*
X1155595D01*
X1149948Y847078D02*
X1155545D01*
X1150431Y853018D02*
X1154998D01*
X1150461Y847618D02*
X1154964D01*
X1150807Y852478D02*
X1154585D01*
X1150828Y848158D02*
X1154562D01*
X1151075Y851938D02*
X1154296D01*
X1151090Y848698D02*
X1154279D01*
X1151257Y851398D02*
X1154101D01*
X1151266Y849238D02*
X1154091D01*
X1151363Y850858D02*
X1153988D01*
X1151368Y849778D02*
X1153983D01*
X1151399Y850318D02*
X1153950D01*
X1146397Y1226698D02*
X1153602D01*
X1146508Y1234258D02*
X1153491D01*
X1147401Y1227238D02*
X1152598D01*
X1147458Y1233718D02*
X1152541D01*
X1147999Y1227778D02*
X1152000D01*
X1148037Y1233178D02*
X1151962D01*
X1143425Y865438D02*
X1151657D01*
X1148412Y1228318D02*
X1151587D01*
X1148439Y1232638D02*
X1151560D01*
X1143508Y835198D02*
X1151512D01*
X1148702Y1228858D02*
X1151297D01*
X1148721Y1232098D02*
X1151278D01*
X1148897Y1229398D02*
X1151102D01*
X1148909Y1231558D02*
X1151090D01*
X1149010Y1229938D02*
X1150989D01*
X1149016Y1231018D02*
X1150983D01*
X1149049Y1230478D02*
X1150950D01*
X1143959Y842758D02*
X1150863D01*
X1144018Y857878D02*
X1150786D01*
X1144334Y864898D02*
X1150397D01*
X1144381Y835738D02*
X1150340D01*
X1144660Y842218D02*
X1150016D01*
X1144699Y858418D02*
X1149971D01*
X1144912Y864358D02*
X1149731D01*
X1144945Y836278D02*
X1149694D01*
X1145140Y841678D02*
X1149477D01*
X1145168Y858958D02*
X1149446D01*
X1145321Y863818D02*
X1149279D01*
X1145344Y836818D02*
X1149253D01*
X1145486Y841138D02*
X1149100D01*
X1145505Y859498D02*
X1149078D01*
X1145614Y863278D02*
X1148961D01*
X1145631Y837358D02*
X1148943D01*
X1145730Y840598D02*
X1148837D01*
X1145744Y860038D02*
X1148822D01*
X1145817Y862738D02*
X1148744D01*
X1145828Y837898D02*
X1148732D01*
X1145891Y840058D02*
X1148665D01*
X1145900Y860578D02*
X1148656D01*
X1145942Y862198D02*
X1148610D01*
X1145948Y838438D02*
X1148604D01*
X1145979Y839518D02*
X1148571D01*
X1145983Y861118D02*
X1148567D01*
X1145997Y861658D02*
X1148553D01*
X1145998Y838978D02*
X1148551D01*
X1137604Y854098D02*
X1145085D01*
X1137701Y846538D02*
X1145016D01*
X1138604Y853558D02*
X1144294D01*
X1138654Y847078D02*
X1144251D01*
X1139201Y853018D02*
X1143768D01*
X1139235Y847618D02*
X1143738D01*
X1136397Y1226698D02*
X1143602D01*
X1136508Y1234258D02*
X1143491D01*
X1139614Y852478D02*
X1143392D01*
X1139637Y848158D02*
X1143371D01*
X1139903Y851938D02*
X1143124D01*
X1139920Y848698D02*
X1143109D01*
X1140098Y851398D02*
X1142942D01*
X1140108Y849238D02*
X1142933D01*
X1140211Y850858D02*
X1142836D01*
X1140216Y849778D02*
X1142831D01*
X1140249Y850318D02*
X1142800D01*
X1137401Y1227238D02*
X1142598D01*
X1137458Y1233718D02*
X1142541D01*
X1137999Y1227778D02*
X1142000D01*
X1138037Y1233178D02*
X1141962D01*
X1138412Y1228318D02*
X1141587D01*
X1138439Y1232638D02*
X1141560D01*
X1138702Y1228858D02*
X1141297D01*
X1138721Y1232098D02*
X1141278D01*
X1138897Y1229398D02*
X1141102D01*
X1138909Y1231558D02*
X1141090D01*
X1139010Y1229938D02*
X1140989D01*
X1139016Y1231018D02*
X1140983D01*
X1139049Y1230478D02*
X1140950D01*
X966915Y843298D02*
X1140772D01*
X966890Y857338D02*
X1140616D01*
X1131742Y865438D02*
X1139974D01*
X1131887Y835198D02*
X1139891D01*
X1132536Y842758D02*
X1139440D01*
X1132613Y857878D02*
X1139381D01*
X1133002Y864898D02*
X1139065D01*
X1133059Y835738D02*
X1139018D01*
X1133383Y842218D02*
X1138739D01*
X1133428Y858418D02*
X1138700D01*
X1133668Y864358D02*
X1138487D01*
X1133705Y836278D02*
X1138454D01*
X1133922Y841678D02*
X1138259D01*
X1133953Y858958D02*
X1138231D01*
X1134120Y863818D02*
X1138078D01*
X1134146Y836818D02*
X1138055D01*
X1134299Y841138D02*
X1137913D01*
X1134321Y859498D02*
X1137894D01*
X1134438Y863278D02*
X1137785D01*
X1134456Y837358D02*
X1137768D01*
X1134562Y840598D02*
X1137669D01*
X1134577Y860038D02*
X1137655D01*
X1134655Y862738D02*
X1137582D01*
X1134667Y837898D02*
X1137571D01*
X1134734Y840058D02*
X1137508D01*
X1134743Y860578D02*
X1137499D01*
X1134789Y862198D02*
X1137457D01*
X1134795Y838438D02*
X1137451D01*
X1134828Y839518D02*
X1137420D01*
X1134832Y861118D02*
X1137416D01*
X1134846Y861658D02*
X1137402D01*
X1134848Y838978D02*
X1137401D01*
X1126704Y854098D02*
X1134795D01*
X1126801Y846538D02*
X1134698D01*
X1127704Y853558D02*
X1133795D01*
X1127754Y847078D02*
X1133745D01*
X1126397Y1226698D02*
X1133602D01*
X1126508Y1234258D02*
X1133491D01*
X1128301Y853018D02*
X1133198D01*
X1128335Y847618D02*
X1133164D01*
X1128714Y852478D02*
X1132785D01*
X1128737Y848158D02*
X1132762D01*
X1127401Y1227238D02*
X1132598D01*
X1127458Y1233718D02*
X1132541D01*
X1129003Y851938D02*
X1132496D01*
X1129020Y848698D02*
X1132479D01*
X1129198Y851398D02*
X1132301D01*
X1129208Y849238D02*
X1132291D01*
X1129311Y850858D02*
X1132188D01*
X1129316Y849778D02*
X1132183D01*
X1129349Y850318D02*
X1132150D01*
X1127999Y1227778D02*
X1132000D01*
X1128037Y1233178D02*
X1131962D01*
X1128412Y1228318D02*
X1131587D01*
X1128439Y1232638D02*
X1131560D01*
X1128702Y1228858D02*
X1131297D01*
X1128721Y1232098D02*
X1131278D01*
X1128897Y1229398D02*
X1131102D01*
X1128909Y1231558D02*
X1131090D01*
X1129010Y1229938D02*
X1130989D01*
X1129016Y1231018D02*
X1130983D01*
X1129049Y1230478D02*
X1130950D01*
X1120842Y865438D02*
X1129857D01*
X1120987Y835198D02*
X1129712D01*
X1121636Y842758D02*
X1129063D01*
X1121713Y857878D02*
X1128986D01*
X1122102Y864898D02*
X1128597D01*
X1122159Y835738D02*
X1128540D01*
X1122483Y842218D02*
X1128216D01*
X1122528Y858418D02*
X1128171D01*
X1122768Y864358D02*
X1127931D01*
X1122805Y836278D02*
X1127894D01*
X1123022Y841678D02*
X1127677D01*
X1123053Y858958D02*
X1127646D01*
X1123220Y863818D02*
X1127479D01*
X1123246Y836818D02*
X1127453D01*
X1123399Y841138D02*
X1127300D01*
X1123421Y859498D02*
X1127278D01*
X1123538Y863278D02*
X1127161D01*
X1123556Y837358D02*
X1127143D01*
X1123662Y840598D02*
X1127037D01*
X1123677Y860038D02*
X1127022D01*
X1123755Y862738D02*
X1126944D01*
X1123767Y837898D02*
X1126932D01*
X1123834Y840058D02*
X1126865D01*
X1123843Y860578D02*
X1126856D01*
X1123889Y862198D02*
X1126810D01*
X1123895Y838438D02*
X1126804D01*
X1123928Y839518D02*
X1126771D01*
X1123932Y861118D02*
X1126767D01*
X1123946Y861658D02*
X1126753D01*
X1123948Y838978D02*
X1126751D01*
X1115804Y854098D02*
X1123895D01*
X1115901Y846538D02*
X1123798D01*
X994430Y1226698D02*
X1123602D01*
X994485Y1234258D02*
X1123491D01*
X1116804Y853558D02*
X1122895D01*
X1116854Y847078D02*
X1122845D01*
X995021Y1227238D02*
X1122598D01*
X995060Y1233718D02*
X1122541D01*
X1117401Y853018D02*
X1122298D01*
X1117435Y847618D02*
X1122264D01*
X995454Y1227778D02*
X1122000D01*
X995483Y1233178D02*
X1121962D01*
X1117814Y852478D02*
X1121885D01*
X1117837Y848158D02*
X1121862D01*
X1118103Y851938D02*
X1121596D01*
X995775Y1228318D02*
X1121587D01*
X1118120Y848698D02*
X1121579D01*
X995797Y1232638D02*
X1121560D01*
X1118298Y851398D02*
X1121401D01*
X1118308Y849238D02*
X1121391D01*
X996010Y1228858D02*
X1121297D01*
X1118411Y850858D02*
X1121288D01*
X1118416Y849778D02*
X1121283D01*
X996025Y1232098D02*
X1121278D01*
X1118449Y850318D02*
X1121250D01*
X996171Y1229398D02*
X1121102D01*
X996181Y1231558D02*
X1121090D01*
X996267Y1229938D02*
X1120989D01*
X996271Y1231018D02*
X1120983D01*
X996299Y1230478D02*
X1120950D01*
X1109942Y865438D02*
X1118957D01*
X1110087Y835198D02*
X1118812D01*
X1110736Y842758D02*
X1118163D01*
X1110813Y857878D02*
X1118086D01*
X1111202Y864898D02*
X1117697D01*
X1111259Y835738D02*
X1117640D01*
X1111583Y842218D02*
X1117316D01*
X1111628Y858418D02*
X1117271D01*
X1111868Y864358D02*
X1117031D01*
X1111905Y836278D02*
X1116994D01*
X1112122Y841678D02*
X1116777D01*
X1112153Y858958D02*
X1116746D01*
X1112320Y863818D02*
X1116579D01*
X1112346Y836818D02*
X1116553D01*
X1112499Y841138D02*
X1116400D01*
X1112521Y859498D02*
X1116378D01*
X1112638Y863278D02*
X1116261D01*
X1112656Y837358D02*
X1116243D01*
X1112762Y840598D02*
X1116137D01*
X1112777Y860038D02*
X1116122D01*
X1112855Y862738D02*
X1116044D01*
X1112867Y837898D02*
X1116032D01*
X1112934Y840058D02*
X1115965D01*
X1112943Y860578D02*
X1115956D01*
X1112989Y862198D02*
X1115910D01*
X1112995Y838438D02*
X1115904D01*
X1113028Y839518D02*
X1115871D01*
X1113032Y861118D02*
X1115867D01*
X1113046Y861658D02*
X1115853D01*
X1113048Y838978D02*
X1115851D01*
X1104904Y854098D02*
X1112995D01*
X1105001Y846538D02*
X1112898D01*
X1105904Y853558D02*
X1111995D01*
X1105954Y847078D02*
X1111945D01*
X1106501Y853018D02*
X1111398D01*
X1106535Y847618D02*
X1111364D01*
X1106914Y852478D02*
X1110985D01*
X1106937Y848158D02*
X1110962D01*
X1107203Y851938D02*
X1110696D01*
X1107220Y848698D02*
X1110679D01*
X1107398Y851398D02*
X1110501D01*
X1107408Y849238D02*
X1110491D01*
X1107511Y850858D02*
X1110388D01*
X1107516Y849778D02*
X1110383D01*
X1107549Y850318D02*
X1110350D01*
X1099042Y865438D02*
X1108057D01*
X1099187Y835198D02*
X1107912D01*
X1099836Y842758D02*
X1107263D01*
X1099913Y857878D02*
X1107186D01*
X1098142Y1277998D02*
X1106857D01*
X1100302Y864898D02*
X1106797D01*
X1100359Y835738D02*
X1106740D01*
X1100683Y842218D02*
X1106416D01*
X1100728Y858418D02*
X1106371D01*
X1100968Y864358D02*
X1106131D01*
X1101005Y836278D02*
X1106094D01*
X1101222Y841678D02*
X1105877D01*
X1101253Y858958D02*
X1105846D01*
X1101420Y863818D02*
X1105679D01*
X1101446Y836818D02*
X1105653D01*
X1099428Y1270438D02*
X1105571D01*
X1101599Y841138D02*
X1105500D01*
X1101621Y859498D02*
X1105478D01*
X1099607Y1277458D02*
X1105392D01*
X1101738Y863278D02*
X1105361D01*
X1101756Y837358D02*
X1105343D01*
X1101862Y840598D02*
X1105237D01*
X1101877Y860038D02*
X1105222D01*
X1101955Y862738D02*
X1105144D01*
X1101967Y837898D02*
X1105132D01*
X1102034Y840058D02*
X1105065D01*
X1102043Y860578D02*
X1105056D01*
X1102089Y862198D02*
X1105010D01*
X1102095Y838438D02*
X1105004D01*
X1102128Y839518D02*
X1104971D01*
X1102132Y861118D02*
X1104967D01*
X1102146Y861658D02*
X1104953D01*
X1102148Y838978D02*
X1104951D01*
X1100197Y1270978D02*
X1104802D01*
X1100307Y1276918D02*
X1104692D01*
X1100700Y1271518D02*
X1104299D01*
X1100777Y1276378D02*
X1104222D01*
X1101054Y1272058D02*
X1103945D01*
X1101108Y1275838D02*
X1103891D01*
X1101299Y1272598D02*
X1103700D01*
X1101336Y1275298D02*
X1103663D01*
X1101457Y1273138D02*
X1103542D01*
X1101478Y1274758D02*
X1103521D01*
X1101537Y1273678D02*
X1103462D01*
X1101544Y1274218D02*
X1103455D01*
X1094004Y854098D02*
X1102095D01*
X1094101Y846538D02*
X1101998D01*
X1095004Y853558D02*
X1101095D01*
X1095054Y847078D02*
X1101045D01*
X1095601Y853018D02*
X1100498D01*
X1095635Y847618D02*
X1100464D01*
X1096014Y852478D02*
X1100085D01*
X1096037Y848158D02*
X1100062D01*
X1096303Y851938D02*
X1099796D01*
X1096320Y848698D02*
X1099779D01*
X1096498Y851398D02*
X1099601D01*
X1096508Y849238D02*
X1099591D01*
X1096611Y850858D02*
X1099488D01*
X1096616Y849778D02*
X1099483D01*
X1096649Y850318D02*
X1099450D01*
X1088142Y865438D02*
X1097157D01*
X1088287Y835198D02*
X1097012D01*
X1088142Y1277998D02*
X1096857D01*
X1088936Y842758D02*
X1096363D01*
X1089013Y857878D02*
X1096286D01*
X1089402Y864898D02*
X1095897D01*
X1089459Y835738D02*
X1095840D01*
X1089428Y1270438D02*
X1095571D01*
X1089783Y842218D02*
X1095516D01*
X1089828Y858418D02*
X1095471D01*
X1089607Y1277458D02*
X1095392D01*
X1090068Y864358D02*
X1095231D01*
X1090105Y836278D02*
X1095194D01*
X1090322Y841678D02*
X1094977D01*
X1090353Y858958D02*
X1094946D01*
X1090197Y1270978D02*
X1094802D01*
X1090520Y863818D02*
X1094779D01*
X1090546Y836818D02*
X1094753D01*
X1090307Y1276918D02*
X1094692D01*
X1090699Y841138D02*
X1094600D01*
X1090721Y859498D02*
X1094578D01*
X1090838Y863278D02*
X1094461D01*
X1090856Y837358D02*
X1094443D01*
X1090962Y840598D02*
X1094337D01*
X1090977Y860038D02*
X1094322D01*
X1090700Y1271518D02*
X1094299D01*
X1091055Y862738D02*
X1094244D01*
X1091067Y837898D02*
X1094232D01*
X1090777Y1276378D02*
X1094222D01*
X1091134Y840058D02*
X1094165D01*
X1091143Y860578D02*
X1094156D01*
X1091189Y862198D02*
X1094110D01*
X1091195Y838438D02*
X1094104D01*
X1091228Y839518D02*
X1094071D01*
X1091232Y861118D02*
X1094067D01*
X1091246Y861658D02*
X1094053D01*
X1091248Y838978D02*
X1094051D01*
X1091054Y1272058D02*
X1093945D01*
X1091108Y1275838D02*
X1093891D01*
X1086138Y1061998D02*
X1093861D01*
X1091299Y1272598D02*
X1093700D01*
X1091336Y1275298D02*
X1093663D01*
X1086455Y1058218D02*
X1093544D01*
X1091457Y1273138D02*
X1093542D01*
X1091478Y1274758D02*
X1093521D01*
X1091537Y1273678D02*
X1093462D01*
X1091544Y1274218D02*
X1093455D01*
X1086778Y1061458D02*
X1093221D01*
X1086936Y1058758D02*
X1093063D01*
X1087108Y1060918D02*
X1092891D01*
X1087190Y1059298D02*
X1092809D01*
X1087268Y1060378D02*
X1092731D01*
X1087294Y1059838D02*
X1092705D01*
X1083104Y854098D02*
X1091195D01*
X1083201Y846538D02*
X1091098D01*
X1084104Y853558D02*
X1090195D01*
X1084154Y847078D02*
X1090145D01*
X1084701Y853018D02*
X1089598D01*
X1084735Y847618D02*
X1089564D01*
X1085114Y852478D02*
X1089185D01*
X1085137Y848158D02*
X1089162D01*
X1068602Y1042018D02*
X1088897D01*
X1085403Y851938D02*
X1088896D01*
X1085420Y848698D02*
X1088879D01*
X1085598Y851398D02*
X1088701D01*
X1085608Y849238D02*
X1088691D01*
X1085711Y850858D02*
X1088588D01*
X1085716Y849778D02*
X1088583D01*
X1085749Y850318D02*
X1088550D01*
X1068979Y1038238D02*
X1088520D01*
X1069261Y1041478D02*
X1088238D01*
X1069448Y1038778D02*
X1088051D01*
X1069599Y1040938D02*
X1087900D01*
X1069696Y1039318D02*
X1087803D01*
X1069765Y1040398D02*
X1087734D01*
X1069795Y1039858D02*
X1087704D01*
X1078142Y1277998D02*
X1086857D01*
X1077242Y865438D02*
X1086257D01*
X1077387Y835198D02*
X1086112D01*
X1079428Y1270438D02*
X1085571D01*
X1078036Y842758D02*
X1085463D01*
X1079607Y1277458D02*
X1085392D01*
X1078113Y857878D02*
X1085386D01*
X1078502Y864898D02*
X1084997D01*
X1078559Y835738D02*
X1084940D01*
X1080197Y1270978D02*
X1084802D01*
X1080307Y1276918D02*
X1084692D01*
X1078883Y842218D02*
X1084616D01*
X1078928Y858418D02*
X1084571D01*
X1079168Y864358D02*
X1084331D01*
X1080700Y1271518D02*
X1084299D01*
X1079205Y836278D02*
X1084294D01*
X1080777Y1276378D02*
X1084222D01*
X1079422Y841678D02*
X1084077D01*
X1079453Y858958D02*
X1084046D01*
X1081054Y1272058D02*
X1083945D01*
X1081108Y1275838D02*
X1083891D01*
X1079620Y863818D02*
X1083879D01*
X834481Y1061998D02*
X1083861D01*
X1079646Y836818D02*
X1083853D01*
X1079799Y841138D02*
X1083700D01*
X1081299Y1272598D02*
X1083700D01*
X1079821Y859498D02*
X1083678D01*
X1081336Y1275298D02*
X1083663D01*
X1079938Y863278D02*
X1083561D01*
X835792Y1058218D02*
X1083544D01*
X1079956Y837358D02*
X1083543D01*
X1081457Y1273138D02*
X1083542D01*
X1081478Y1274758D02*
X1083521D01*
X1081537Y1273678D02*
X1083462D01*
X1081544Y1274218D02*
X1083455D01*
X1080062Y840598D02*
X1083437D01*
X1080077Y860038D02*
X1083422D01*
X1080155Y862738D02*
X1083344D01*
X1080167Y837898D02*
X1083332D01*
X1080234Y840058D02*
X1083265D01*
X1080243Y860578D02*
X1083256D01*
X834897Y1061458D02*
X1083221D01*
X1080289Y862198D02*
X1083210D01*
X1080295Y838438D02*
X1083204D01*
X1080328Y839518D02*
X1083171D01*
X1080332Y861118D02*
X1083167D01*
X1080346Y861658D02*
X1083153D01*
X1080348Y838978D02*
X1083151D01*
X835793Y1058758D02*
X1083063D01*
X835215Y1060918D02*
X1082891D01*
X835739Y1059298D02*
X1082809D01*
X835455Y1060378D02*
X1082731D01*
X835628Y1059838D02*
X1082705D01*
X1073794Y1043098D02*
X1081205D01*
X1073826Y1046878D02*
X1081173D01*
X1074353Y1043638D02*
X1080646D01*
X1074370Y1046338D02*
X1080629D01*
X1074648Y1044178D02*
X1080351D01*
X1074656Y1045798D02*
X1080343D01*
X1072204Y854098D02*
X1080295D01*
X1074782Y1044718D02*
X1080217D01*
X1074785Y1045258D02*
X1080214D01*
X1072301Y846538D02*
X1080198D01*
X1073204Y853558D02*
X1079295D01*
X1073254Y847078D02*
X1079245D01*
X1073801Y853018D02*
X1078698D01*
X1073835Y847618D02*
X1078664D01*
X1074214Y852478D02*
X1078285D01*
X1074237Y848158D02*
X1078262D01*
X1074503Y851938D02*
X1077996D01*
X1074520Y848698D02*
X1077979D01*
X1074698Y851398D02*
X1077801D01*
X1074708Y849238D02*
X1077791D01*
X1074811Y850858D02*
X1077688D01*
X1074816Y849778D02*
X1077683D01*
X1074849Y850318D02*
X1077650D01*
X1029155Y1277998D02*
X1076857D01*
X1029718Y1270438D02*
X1075571D01*
X1029828Y1277458D02*
X1075392D01*
X1066342Y865438D02*
X1075357D01*
X1066487Y835198D02*
X1075212D01*
X1030229Y1270978D02*
X1074802D01*
X1030310Y1276918D02*
X1074692D01*
X1067136Y842758D02*
X1074563D01*
X1067213Y857878D02*
X1074486D01*
X1030608Y1271518D02*
X1074299D01*
X1030669Y1276378D02*
X1074222D01*
X1067602Y864898D02*
X1074097D01*
X1067659Y835738D02*
X1074040D01*
X1030889Y1272058D02*
X1073945D01*
X1030933Y1275838D02*
X1073891D01*
X1067983Y842218D02*
X1073716D01*
X1031090Y1272598D02*
X1073700D01*
X1068028Y858418D02*
X1073671D01*
X1031120Y1275298D02*
X1073663D01*
X1031222Y1273138D02*
X1073542D01*
X1031239Y1274758D02*
X1073521D01*
X1031289Y1273678D02*
X1073462D01*
X1031295Y1274218D02*
X1073455D01*
X1068268Y864358D02*
X1073431D01*
X1068305Y836278D02*
X1073394D01*
X1068522Y841678D02*
X1073177D01*
X1068553Y858958D02*
X1073146D01*
X1068720Y863818D02*
X1072979D01*
X1068746Y836818D02*
X1072953D01*
X1068899Y841138D02*
X1072800D01*
X1068921Y859498D02*
X1072778D01*
X1069038Y863278D02*
X1072661D01*
X1069056Y837358D02*
X1072643D01*
X1069162Y840598D02*
X1072537D01*
X1069177Y860038D02*
X1072522D01*
X1069255Y862738D02*
X1072444D01*
X1069267Y837898D02*
X1072432D01*
X1069334Y840058D02*
X1072365D01*
X1069343Y860578D02*
X1072356D01*
X1069389Y862198D02*
X1072310D01*
X1069395Y838438D02*
X1072304D01*
X1069428Y839518D02*
X1072271D01*
X1069432Y861118D02*
X1072267D01*
X1069446Y861658D02*
X1072253D01*
X1069448Y838978D02*
X1072251D01*
X833134Y1043098D02*
X1071205D01*
X825545Y1046878D02*
X1071173D01*
X831797Y1043638D02*
X1070646D01*
X825339Y1046338D02*
X1070629D01*
X823568Y1044178D02*
X1070351D01*
X825059Y1045798D02*
X1070343D01*
X824213Y1044718D02*
X1070217D01*
X824693Y1045258D02*
X1070214D01*
X1061304Y854098D02*
X1069395D01*
X1061401Y846538D02*
X1069298D01*
X1062304Y853558D02*
X1068395D01*
X1062354Y847078D02*
X1068345D01*
X1062901Y853018D02*
X1067798D01*
X1062935Y847618D02*
X1067764D01*
X1063314Y852478D02*
X1067385D01*
X1063337Y848158D02*
X1067362D01*
X1063603Y851938D02*
X1067096D01*
X1063620Y848698D02*
X1067079D01*
X1063798Y851398D02*
X1066901D01*
X1063808Y849238D02*
X1066891D01*
X1063911Y850858D02*
X1066788D01*
X1063916Y849778D02*
X1066783D01*
X1063949Y850318D02*
X1066750D01*
X834463Y1042018D02*
X1066397D01*
X835793Y1038238D02*
X1066020D01*
X834883Y1041478D02*
X1065738D01*
X835792Y1038778D02*
X1065551D01*
X835205Y1040938D02*
X1065400D01*
X835736Y1039318D02*
X1065303D01*
X835448Y1040398D02*
X1065234D01*
X835622Y1039858D02*
X1065204D01*
X1055442Y865438D02*
X1064457D01*
X1055587Y835198D02*
X1064312D01*
X1056236Y842758D02*
X1063663D01*
X1056313Y857878D02*
X1063586D01*
X1056702Y864898D02*
X1063197D01*
X1056759Y835738D02*
X1063140D01*
X1057083Y842218D02*
X1062816D01*
X1057128Y858418D02*
X1062771D01*
X1057368Y864358D02*
X1062531D01*
X1057405Y836278D02*
X1062494D01*
X1057622Y841678D02*
X1062277D01*
X1057653Y858958D02*
X1062246D01*
X1057820Y863818D02*
X1062079D01*
X1057846Y836818D02*
X1062053D01*
X1057999Y841138D02*
X1061900D01*
X1058021Y859498D02*
X1061878D01*
X1058138Y863278D02*
X1061761D01*
X1058156Y837358D02*
X1061743D01*
X1058262Y840598D02*
X1061637D01*
X1058277Y860038D02*
X1061622D01*
X1058355Y862738D02*
X1061544D01*
X1058367Y837898D02*
X1061532D01*
X1058434Y840058D02*
X1061465D01*
X1058443Y860578D02*
X1061456D01*
X1058489Y862198D02*
X1061410D01*
X1058495Y838438D02*
X1061404D01*
X1058528Y839518D02*
X1061371D01*
X1058532Y861118D02*
X1061367D01*
X1058546Y861658D02*
X1061353D01*
X1058548Y838978D02*
X1061351D01*
X1050304Y854098D02*
X1058495D01*
X1050401Y846538D02*
X1058398D01*
X1051304Y853558D02*
X1057495D01*
X1051354Y847078D02*
X1057445D01*
X1051901Y853018D02*
X1056898D01*
X1051935Y847618D02*
X1056864D01*
X1052314Y852478D02*
X1056485D01*
X1052337Y848158D02*
X1056462D01*
X1052603Y851938D02*
X1056196D01*
X1052620Y848698D02*
X1056179D01*
X1052798Y851398D02*
X1056001D01*
X1052808Y849238D02*
X1055991D01*
X1052911Y850858D02*
X1055888D01*
X1052916Y849778D02*
X1055883D01*
X1052949Y850318D02*
X1055850D01*
X1051298Y1296898D02*
X1053701D01*
X1051323Y1293118D02*
X1053676D01*
X1044542Y865438D02*
X1053557D01*
X1044687Y835198D02*
X1053412D01*
X1051855Y1296358D02*
X1053144D01*
X1051868Y1293658D02*
X1053131D01*
X1052149Y1295818D02*
X1052850D01*
X1052155Y1294198D02*
X1052844D01*
X1045336Y842758D02*
X1052763D01*
X1052283Y1295278D02*
X1052716D01*
X1052285Y1294738D02*
X1052714D01*
X1045413Y857878D02*
X1052686D01*
X1045802Y864898D02*
X1052297D01*
X1045859Y835738D02*
X1052240D01*
X1046183Y842218D02*
X1051916D01*
X1046228Y858418D02*
X1051871D01*
X1046468Y864358D02*
X1051631D01*
X1046505Y836278D02*
X1051594D01*
X1046722Y841678D02*
X1051377D01*
X1046753Y858958D02*
X1051346D01*
X1046920Y863818D02*
X1051179D01*
X1046946Y836818D02*
X1051153D01*
X1047099Y841138D02*
X1051000D01*
X1047121Y859498D02*
X1050978D01*
X1047238Y863278D02*
X1050861D01*
X1047256Y837358D02*
X1050843D01*
X1047362Y840598D02*
X1050737D01*
X1047377Y860038D02*
X1050722D01*
X1047455Y862738D02*
X1050644D01*
X1047467Y837898D02*
X1050632D01*
X1047534Y840058D02*
X1050565D01*
X1047543Y860578D02*
X1050556D01*
X1047589Y862198D02*
X1050510D01*
X1047595Y838438D02*
X1050504D01*
X1047628Y839518D02*
X1050471D01*
X1047632Y861118D02*
X1050467D01*
X1047646Y861658D02*
X1050453D01*
X1047648Y838978D02*
X1050451D01*
X1046298Y1296898D02*
X1048701D01*
X1046323Y1293118D02*
X1048676D01*
X1046855Y1296358D02*
X1048144D01*
X1046868Y1293658D02*
X1048131D01*
X1047149Y1295818D02*
X1047850D01*
X1047155Y1294198D02*
X1047844D01*
X1047283Y1295278D02*
X1047716D01*
X1047285Y1294738D02*
X1047714D01*
X1039504Y854098D02*
X1047495D01*
X1039601Y846538D02*
X1047398D01*
X1040504Y853558D02*
X1046495D01*
X1040554Y847078D02*
X1046445D01*
X1041101Y853018D02*
X1045898D01*
X1041135Y847618D02*
X1045864D01*
X1041514Y852478D02*
X1045485D01*
X1041537Y848158D02*
X1045462D01*
X1041803Y851938D02*
X1045196D01*
X1041820Y848698D02*
X1045179D01*
X1041998Y851398D02*
X1045001D01*
X1042008Y849238D02*
X1044991D01*
X1042111Y850858D02*
X1044888D01*
X1042116Y849778D02*
X1044883D01*
X1042149Y850318D02*
X1044850D01*
X983798Y1296898D02*
X1043701D01*
X983823Y1293118D02*
X1043676D01*
X984355Y1296358D02*
X1043144D01*
X984368Y1293658D02*
X1043131D01*
X984649Y1295818D02*
X1042850D01*
X984655Y1294198D02*
X1042844D01*
X984783Y1295278D02*
X1042716D01*
X984785Y1294738D02*
X1042714D01*
X1033642Y865438D02*
X1042657D01*
X1033787Y835198D02*
X1042512D01*
X1034436Y842758D02*
X1041863D01*
X1034513Y857878D02*
X1041786D01*
X1034902Y864898D02*
X1041397D01*
X1034959Y835738D02*
X1041340D01*
X1035283Y842218D02*
X1041016D01*
X1035328Y858418D02*
X1040971D01*
X1035568Y864358D02*
X1040731D01*
X1035605Y836278D02*
X1040694D01*
X1035822Y841678D02*
X1040477D01*
X1035853Y858958D02*
X1040446D01*
X1036020Y863818D02*
X1040279D01*
X1036046Y836818D02*
X1040253D01*
X1036199Y841138D02*
X1040100D01*
X1036221Y859498D02*
X1040078D01*
X1036338Y863278D02*
X1039961D01*
X1036356Y837358D02*
X1039943D01*
X1036462Y840598D02*
X1039837D01*
X1036477Y860038D02*
X1039822D01*
X1036555Y862738D02*
X1039744D01*
X1036567Y837898D02*
X1039732D01*
X1036634Y840058D02*
X1039665D01*
X1036643Y860578D02*
X1039656D01*
X1036689Y862198D02*
X1039610D01*
X1036695Y838438D02*
X1039604D01*
X1036728Y839518D02*
X1039571D01*
X1036732Y861118D02*
X1039567D01*
X1036746Y861658D02*
X1039553D01*
X1036748Y838978D02*
X1039551D01*
X1028604Y854098D02*
X1036695D01*
X1028701Y846538D02*
X1036598D01*
X1029604Y853558D02*
X1035695D01*
X1029654Y847078D02*
X1035645D01*
X1030201Y853018D02*
X1035098D01*
X1030235Y847618D02*
X1035064D01*
X1030614Y852478D02*
X1034685D01*
X1030637Y848158D02*
X1034662D01*
X1030903Y851938D02*
X1034396D01*
X1030920Y848698D02*
X1034379D01*
X1031098Y851398D02*
X1034201D01*
X1031108Y849238D02*
X1034191D01*
X1031211Y850858D02*
X1034088D01*
X1031216Y849778D02*
X1034083D01*
X1031249Y850318D02*
X1034050D01*
X1022742Y865438D02*
X1031757D01*
X1022887Y835198D02*
X1031612D01*
X1023536Y842758D02*
X1030963D01*
X1023613Y857878D02*
X1030886D01*
X1024002Y864898D02*
X1030497D01*
X1024059Y835738D02*
X1030440D01*
X1024383Y842218D02*
X1030116D01*
X1024428Y858418D02*
X1030071D01*
X1024668Y864358D02*
X1029831D01*
X1024705Y836278D02*
X1029794D01*
X1024922Y841678D02*
X1029577D01*
X1024953Y858958D02*
X1029546D01*
X1025120Y863818D02*
X1029379D01*
X1025146Y836818D02*
X1029353D01*
X1025299Y841138D02*
X1029200D01*
X1025321Y859498D02*
X1029178D01*
X1025438Y863278D02*
X1029061D01*
X1025456Y837358D02*
X1029043D01*
X1025562Y840598D02*
X1028937D01*
X1025577Y860038D02*
X1028922D01*
X1025655Y862738D02*
X1028844D01*
X1025667Y837898D02*
X1028832D01*
X1025734Y840058D02*
X1028765D01*
X1025743Y860578D02*
X1028756D01*
X1025789Y862198D02*
X1028710D01*
X1025795Y838438D02*
X1028704D01*
X1025828Y839518D02*
X1028671D01*
X1025832Y861118D02*
X1028667D01*
X1025846Y861658D02*
X1028653D01*
X1025848Y838978D02*
X1028651D01*
X1017704Y854098D02*
X1025795D01*
X1017801Y846538D02*
X1025698D01*
X956724Y1269358D02*
X1025275D01*
X957062Y1278538D02*
X1024937D01*
X1018704Y853558D02*
X1024795D01*
X1018754Y847078D02*
X1024745D01*
X1019301Y853018D02*
X1024198D01*
X1019335Y847618D02*
X1024164D01*
X957993Y1269898D02*
X1024006D01*
X1017142Y1277998D02*
X1023844D01*
X1019714Y852478D02*
X1023785D01*
X1019737Y848158D02*
X1023762D01*
X1020003Y851938D02*
X1023496D01*
X1020020Y848698D02*
X1023479D01*
X1020198Y851398D02*
X1023301D01*
X1020208Y849238D02*
X1023291D01*
X1018428Y1270438D02*
X1023281D01*
X1020311Y850858D02*
X1023188D01*
X1020316Y849778D02*
X1023183D01*
X1018607Y1277458D02*
X1023171D01*
X1020349Y850318D02*
X1023150D01*
X1019197Y1270978D02*
X1022770D01*
X1019307Y1276918D02*
X1022689D01*
X1019700Y1271518D02*
X1022391D01*
X1019777Y1276378D02*
X1022330D01*
X1020054Y1272058D02*
X1022110D01*
X1020108Y1275838D02*
X1022066D01*
X1020299Y1272598D02*
X1021909D01*
X1020336Y1275298D02*
X1021879D01*
X1020457Y1273138D02*
X1021777D01*
X1020478Y1274758D02*
X1021760D01*
X1020537Y1273678D02*
X1021710D01*
X1020544Y1274218D02*
X1021704D01*
X1011842Y865438D02*
X1020857D01*
X1011987Y835198D02*
X1020712D01*
X1012636Y842758D02*
X1020063D01*
X1012713Y857878D02*
X1019986D01*
X1015312Y1254778D02*
X1019687D01*
X1013102Y864898D02*
X1019597D01*
X1013159Y835738D02*
X1019540D01*
X1013483Y842218D02*
X1019216D01*
X1013528Y858418D02*
X1019171D01*
X1016059Y1250458D02*
X1018940D01*
X1013768Y864358D02*
X1018931D01*
X1013805Y836278D02*
X1018894D01*
X1014022Y841678D02*
X1018677D01*
X1014053Y858958D02*
X1018646D01*
X1016505Y1254238D02*
X1018494D01*
X1014220Y863818D02*
X1018479D01*
X1014246Y836818D02*
X1018453D01*
X1014399Y841138D02*
X1018300D01*
X1014421Y859498D02*
X1018278D01*
X1016742Y1250998D02*
X1018257D01*
X1014538Y863278D02*
X1018161D01*
X1014556Y837358D02*
X1018143D01*
X1014662Y840598D02*
X1018037D01*
X1016962Y1253698D02*
X1018037D01*
X1014677Y860038D02*
X1018022D01*
X1014755Y862738D02*
X1017944D01*
X1014767Y837898D02*
X1017932D01*
X1017089Y1251538D02*
X1017910D01*
X1014834Y840058D02*
X1017865D01*
X1014843Y860578D02*
X1017856D01*
X1014889Y862198D02*
X1017810D01*
X1014895Y838438D02*
X1017804D01*
X1017203Y1253158D02*
X1017796D01*
X1014928Y839518D02*
X1017771D01*
X1014932Y861118D02*
X1017767D01*
X1014946Y861658D02*
X1017753D01*
X1014948Y838978D02*
X1017751D01*
X1017261Y1252078D02*
X1017738D01*
X1017296Y1252618D02*
X1017703D01*
X1007142Y1277998D02*
X1015857D01*
X1006804Y854098D02*
X1014895D01*
X1006901Y846538D02*
X1014798D01*
X1010312Y1254778D02*
X1014687D01*
X1008428Y1270438D02*
X1014571D01*
X1008607Y1277458D02*
X1014392D01*
X1011059Y1250458D02*
X1013940D01*
X1007804Y853558D02*
X1013895D01*
X1007854Y847078D02*
X1013845D01*
X1009197Y1270978D02*
X1013802D01*
X1009307Y1276918D02*
X1013692D01*
X1011505Y1254238D02*
X1013494D01*
X1009700Y1271518D02*
X1013299D01*
X1008401Y853018D02*
X1013298D01*
X1008435Y847618D02*
X1013264D01*
X1011742Y1250998D02*
X1013257D01*
X1009777Y1276378D02*
X1013222D01*
X1011962Y1253698D02*
X1013037D01*
X1010054Y1272058D02*
X1012945D01*
X1012089Y1251538D02*
X1012910D01*
X1010108Y1275838D02*
X1012891D01*
X1008814Y852478D02*
X1012885D01*
X1008837Y848158D02*
X1012862D01*
X1012203Y1253158D02*
X1012796D01*
X1012261Y1252078D02*
X1012738D01*
X1012296Y1252618D02*
X1012703D01*
X1010299Y1272598D02*
X1012700D01*
X1010336Y1275298D02*
X1012663D01*
X1009103Y851938D02*
X1012596D01*
X1009120Y848698D02*
X1012579D01*
X1010457Y1273138D02*
X1012542D01*
X1010478Y1274758D02*
X1012521D01*
X1010537Y1273678D02*
X1012462D01*
X1010544Y1274218D02*
X1012455D01*
X1009298Y851398D02*
X1012401D01*
X1009308Y849238D02*
X1012391D01*
X1009411Y850858D02*
X1012288D01*
X1009416Y849778D02*
X1012283D01*
X1009449Y850318D02*
X1012250D01*
X1000942Y865438D02*
X1009957D01*
X1001087Y835198D02*
X1009812D01*
X947812Y1254778D02*
X1009687D01*
X1001736Y842758D02*
X1009163D01*
X1001813Y857878D02*
X1009086D01*
X948559Y1250458D02*
X1008940D01*
X1002202Y864898D02*
X1008697D01*
X1002259Y835738D02*
X1008640D01*
X949005Y1254238D02*
X1008494D01*
X1002583Y842218D02*
X1008316D01*
X1002628Y858418D02*
X1008271D01*
X949242Y1250998D02*
X1008257D01*
X949462Y1253698D02*
X1008037D01*
X1002868Y864358D02*
X1008031D01*
X1002905Y836278D02*
X1007994D01*
X949589Y1251538D02*
X1007910D01*
X949703Y1253158D02*
X1007796D01*
X1003122Y841678D02*
X1007777D01*
X1003153Y858958D02*
X1007746D01*
X949761Y1252078D02*
X1007738D01*
X949796Y1252618D02*
X1007703D01*
X1003320Y863818D02*
X1007579D01*
X1003346Y836818D02*
X1007553D01*
X1003499Y841138D02*
X1007400D01*
X1003521Y859498D02*
X1007378D01*
X1003638Y863278D02*
X1007261D01*
X1003656Y837358D02*
X1007243D01*
X1003762Y840598D02*
X1007137D01*
X1003777Y860038D02*
X1007122D01*
X1003855Y862738D02*
X1007044D01*
X1003867Y837898D02*
X1007032D01*
X1003934Y840058D02*
X1006965D01*
X1003943Y860578D02*
X1006956D01*
X1003989Y862198D02*
X1006910D01*
X1003995Y838438D02*
X1006904D01*
X1004028Y839518D02*
X1006871D01*
X1004032Y861118D02*
X1006867D01*
X1004046Y861658D02*
X1006853D01*
X1004048Y838978D02*
X1006851D01*
X958155Y1277998D02*
X1005857D01*
X958718Y1270438D02*
X1004571D01*
X958828Y1277458D02*
X1004392D01*
X995904Y854098D02*
X1003995D01*
X996001Y846538D02*
X1003898D01*
X959229Y1270978D02*
X1003802D01*
X959310Y1276918D02*
X1003692D01*
X959608Y1271518D02*
X1003299D01*
X959669Y1276378D02*
X1003222D01*
X996904Y853558D02*
X1002995D01*
X959889Y1272058D02*
X1002945D01*
X996954Y847078D02*
X1002945D01*
X959933Y1275838D02*
X1002891D01*
X960090Y1272598D02*
X1002700D01*
X960120Y1275298D02*
X1002663D01*
X960222Y1273138D02*
X1002542D01*
X960239Y1274758D02*
X1002521D01*
X960289Y1273678D02*
X1002462D01*
X960295Y1274218D02*
X1002455D01*
X997501Y853018D02*
X1002398D01*
X997535Y847618D02*
X1002364D01*
X997914Y852478D02*
X1001985D01*
X997937Y848158D02*
X1001962D01*
X998203Y851938D02*
X1001696D01*
X998220Y848698D02*
X1001679D01*
X998398Y851398D02*
X1001501D01*
X998408Y849238D02*
X1001491D01*
X998511Y850858D02*
X1001388D01*
X998516Y849778D02*
X1001383D01*
X998549Y850318D02*
X1001350D01*
X990042Y865438D02*
X999057D01*
X990187Y835198D02*
X998912D01*
X990836Y842758D02*
X998263D01*
X990913Y857878D02*
X998186D01*
X991302Y864898D02*
X997797D01*
X991359Y835738D02*
X997740D01*
X991683Y842218D02*
X997416D01*
X991728Y858418D02*
X997371D01*
X991968Y864358D02*
X997131D01*
X992005Y836278D02*
X997094D01*
X992222Y841678D02*
X996877D01*
X992253Y858958D02*
X996846D01*
X992420Y863818D02*
X996679D01*
X992446Y836818D02*
X996653D01*
X992599Y841138D02*
X996500D01*
X992621Y859498D02*
X996478D01*
X992738Y863278D02*
X996361D01*
X992756Y837358D02*
X996343D01*
X992862Y840598D02*
X996237D01*
X992877Y860038D02*
X996222D01*
X992955Y862738D02*
X996144D01*
X992967Y837898D02*
X996132D01*
X993034Y840058D02*
X996065D01*
X993043Y860578D02*
X996056D01*
X993089Y862198D02*
X996010D01*
X993095Y838438D02*
X996004D01*
X993128Y839518D02*
X995971D01*
X993132Y861118D02*
X995967D01*
X993146Y861658D02*
X995953D01*
X993148Y838978D02*
X995951D01*
X968423Y854098D02*
X993095D01*
X968434Y846538D02*
X992998D01*
X968578Y853558D02*
X992095D01*
X968588Y847078D02*
X992045D01*
X968707Y853018D02*
X991498D01*
X968716Y847618D02*
X991464D01*
X968813Y852478D02*
X991085D01*
X968819Y848158D02*
X991062D01*
X968894Y851938D02*
X990796D01*
X968899Y848698D02*
X990779D01*
X968952Y851398D02*
X990601D01*
X968955Y849238D02*
X990591D01*
X968987Y850858D02*
X990488D01*
X968989Y849778D02*
X990483D01*
X969000Y850318D02*
X990450D01*
X922547Y1226158D02*
X989452D01*
X922635Y1234798D02*
X989364D01*
X982897Y1226698D02*
X988569D01*
X983008Y1234258D02*
X988514D01*
X834046Y865438D02*
X988157D01*
X829013Y835198D02*
X988012D01*
X983901Y1227238D02*
X987978D01*
X983958Y1233718D02*
X987939D01*
X984499Y1227778D02*
X987545D01*
X984537Y1233178D02*
X987516D01*
X966542Y842758D02*
X987363D01*
X966515Y857878D02*
X987286D01*
X984912Y1228318D02*
X987224D01*
X984939Y1232638D02*
X987202D01*
X985202Y1228858D02*
X986989D01*
X985221Y1232098D02*
X986974D01*
X834566Y864898D02*
X986897D01*
X827661Y835738D02*
X986840D01*
X985397Y1229398D02*
X986828D01*
X985409Y1231558D02*
X986818D01*
X985510Y1229938D02*
X986732D01*
X985516Y1231018D02*
X986728D01*
X985549Y1230478D02*
X986700D01*
X966126Y842218D02*
X986516D01*
X966095Y858418D02*
X986471D01*
X834962Y864358D02*
X986231D01*
X825358Y836278D02*
X986194D01*
X965661Y841678D02*
X985977D01*
X965626Y858958D02*
X985946D01*
X835265Y863818D02*
X985779D01*
X802800Y836818D02*
X985753D01*
X965139Y841138D02*
X985600D01*
X965100Y859498D02*
X985578D01*
X835492Y863278D02*
X985461D01*
X802800Y837358D02*
X985443D01*
X964550Y840598D02*
X985337D01*
X964506Y860038D02*
X985322D01*
X959219Y862738D02*
X985244D01*
X959369Y837898D02*
X985232D01*
X963878Y840058D02*
X985165D01*
X963828Y860578D02*
X985156D01*
X960918Y862198D02*
X985110D01*
X961011Y838438D02*
X985104D01*
X963099Y839518D02*
X985071D01*
X963040Y861118D02*
X985067D01*
X962100Y861658D02*
X985053D01*
X962172Y838978D02*
X985051D01*
X978798Y1296898D02*
X981201D01*
X978823Y1293118D02*
X981176D01*
X979355Y1296358D02*
X980644D01*
X979368Y1293658D02*
X980631D01*
X979649Y1295818D02*
X980350D01*
X979655Y1294198D02*
X980344D01*
X979783Y1295278D02*
X980216D01*
X979785Y1294738D02*
X980214D01*
X972897Y1226698D02*
X980102D01*
X973008Y1234258D02*
X979991D01*
X973901Y1227238D02*
X979098D01*
X973958Y1233718D02*
X979041D01*
X974499Y1227778D02*
X978500D01*
X974537Y1233178D02*
X978462D01*
X974912Y1228318D02*
X978087D01*
X974939Y1232638D02*
X978060D01*
X975202Y1228858D02*
X977797D01*
X975221Y1232098D02*
X977778D01*
X975397Y1229398D02*
X977602D01*
X975409Y1231558D02*
X977590D01*
X975510Y1229938D02*
X977489D01*
X975516Y1231018D02*
X977483D01*
X975549Y1230478D02*
X977450D01*
X973798Y1296898D02*
X976201D01*
X973823Y1293118D02*
X976176D01*
X974355Y1296358D02*
X975644D01*
X974368Y1293658D02*
X975631D01*
X974649Y1295818D02*
X975350D01*
X974655Y1294198D02*
X975344D01*
X974783Y1295278D02*
X975216D01*
X974785Y1294738D02*
X975214D01*
X913798Y1296898D02*
X971201D01*
X913823Y1293118D02*
X971176D01*
X914355Y1296358D02*
X970644D01*
X914368Y1293658D02*
X970631D01*
X914649Y1295818D02*
X970350D01*
X914655Y1294198D02*
X970344D01*
X914783Y1295278D02*
X970216D01*
X914785Y1294738D02*
X970214D01*
X923430Y1226698D02*
X970102D01*
X923485Y1234258D02*
X969991D01*
X924021Y1227238D02*
X969098D01*
X924060Y1233718D02*
X969041D01*
X924454Y1227778D02*
X968500D01*
X924483Y1233178D02*
X968462D01*
X924775Y1228318D02*
X968087D01*
X924797Y1232638D02*
X968060D01*
X925010Y1228858D02*
X967797D01*
X925025Y1232098D02*
X967778D01*
X925171Y1229398D02*
X967602D01*
X925181Y1231558D02*
X967590D01*
X925267Y1229938D02*
X967489D01*
X925271Y1231018D02*
X967483D01*
X925299Y1230478D02*
X967450D01*
X886224Y1269358D02*
X954275D01*
X886562Y1278538D02*
X953937D01*
X835653Y862738D02*
X953180D01*
X802800Y837898D02*
X953030D01*
X887493Y1269898D02*
X953006D01*
X946142Y1277998D02*
X952844D01*
X947428Y1270438D02*
X952281D01*
X947607Y1277458D02*
X952171D01*
X948197Y1270978D02*
X951770D01*
X948307Y1276918D02*
X951689D01*
X835753Y862198D02*
X951481D01*
X948700Y1271518D02*
X951391D01*
X802800Y838438D02*
X951388D01*
X948777Y1276378D02*
X951330D01*
X949054Y1272058D02*
X951110D01*
X949108Y1275838D02*
X951066D01*
X949299Y1272598D02*
X950909D01*
X949336Y1275298D02*
X950879D01*
X949457Y1273138D02*
X950777D01*
X949478Y1274758D02*
X950760D01*
X949537Y1273678D02*
X950710D01*
X949544Y1274218D02*
X950704D01*
X835797Y861658D02*
X950299D01*
X802800Y838978D02*
X950227D01*
X835786Y861118D02*
X949359D01*
X802800Y839518D02*
X949300D01*
X835719Y860578D02*
X948571D01*
X802800Y840058D02*
X948521D01*
X835594Y860038D02*
X947893D01*
X802800Y840598D02*
X947849D01*
X835407Y859498D02*
X947299D01*
X802800Y841138D02*
X947260D01*
X942812Y1254778D02*
X947187D01*
X835151Y858958D02*
X946773D01*
X802800Y841678D02*
X946738D01*
X943559Y1250458D02*
X946440D01*
X834812Y858418D02*
X946304D01*
X802800Y842218D02*
X946273D01*
X944005Y1254238D02*
X945994D01*
X834369Y857878D02*
X945884D01*
X802800Y842758D02*
X945857D01*
X944242Y1250998D02*
X945757D01*
X944462Y1253698D02*
X945537D01*
X833782Y857338D02*
X945509D01*
X802800Y843298D02*
X945484D01*
X944589Y1251538D02*
X945410D01*
X944703Y1253158D02*
X945296D01*
X944761Y1252078D02*
X945238D01*
X944796Y1252618D02*
X945203D01*
X832947Y856798D02*
X945172D01*
X802800Y843838D02*
X945150D01*
X831286Y856258D02*
X944871D01*
X936142Y1277998D02*
X944857D01*
X802800Y844378D02*
X944851D01*
X802800Y855718D02*
X944603D01*
X802800Y844918D02*
X944586D01*
X802800Y855178D02*
X944366D01*
X802800Y845458D02*
X944350D01*
X802800Y854638D02*
X944157D01*
X802800Y845998D02*
X944144D01*
X802800Y854098D02*
X943976D01*
X802800Y846538D02*
X943965D01*
X802800Y853558D02*
X943821D01*
X802800Y847078D02*
X943811D01*
X802800Y853018D02*
X943692D01*
X802800Y847618D02*
X943683D01*
X802800Y852478D02*
X943586D01*
X802800Y848158D02*
X943580D01*
X937428Y1270438D02*
X943571D01*
X802800Y851938D02*
X943505D01*
X802800Y848698D02*
X943500D01*
X802800Y851398D02*
X943447D01*
X802800Y849238D02*
X943444D01*
X802800Y850858D02*
X943412D01*
X802800Y849778D02*
X943410D01*
X802800Y850318D02*
X943399D01*
X937607Y1277458D02*
X943392D01*
X938197Y1270978D02*
X942802D01*
X938307Y1276918D02*
X942692D01*
X938700Y1271518D02*
X942299D01*
X938777Y1276378D02*
X942222D01*
X937812Y1254778D02*
X942187D01*
X939054Y1272058D02*
X941945D01*
X939108Y1275838D02*
X941891D01*
X939299Y1272598D02*
X941700D01*
X939336Y1275298D02*
X941663D01*
X939457Y1273138D02*
X941542D01*
X939478Y1274758D02*
X941521D01*
X939537Y1273678D02*
X941462D01*
X939544Y1274218D02*
X941455D01*
X938559Y1250458D02*
X941440D01*
X939005Y1254238D02*
X940994D01*
X939242Y1250998D02*
X940757D01*
X939462Y1253698D02*
X940537D01*
X939589Y1251538D02*
X940410D01*
X939703Y1253158D02*
X940296D01*
X939761Y1252078D02*
X940238D01*
X939796Y1252618D02*
X940203D01*
X802800Y1254778D02*
X937187D01*
X802800Y1250458D02*
X936440D01*
X802800Y1254238D02*
X935994D01*
X802800Y1250998D02*
X935757D01*
X802800Y1253698D02*
X935537D01*
X802800Y1251538D02*
X935410D01*
X802800Y1253158D02*
X935296D01*
X802800Y1252078D02*
X935238D01*
X802800Y1252618D02*
X935203D01*
X887655Y1277998D02*
X934857D01*
X888218Y1270438D02*
X933571D01*
X888328Y1277458D02*
X933392D01*
X888729Y1270978D02*
X932802D01*
X888810Y1276918D02*
X932692D01*
X889108Y1271518D02*
X932299D01*
X889169Y1276378D02*
X932222D01*
X889389Y1272058D02*
X931945D01*
X889433Y1275838D02*
X931891D01*
X889590Y1272598D02*
X931700D01*
X889620Y1275298D02*
X931663D01*
X889722Y1273138D02*
X931542D01*
X889739Y1274758D02*
X931521D01*
X889789Y1273678D02*
X931462D01*
X889795Y1274218D02*
X931455D01*
X802800Y1226158D02*
X918452D01*
X802800Y1234798D02*
X918364D01*
X911897Y1226698D02*
X917569D01*
X912008Y1234258D02*
X917514D01*
X912901Y1227238D02*
X916978D01*
X912958Y1233718D02*
X916939D01*
X913499Y1227778D02*
X916545D01*
X913537Y1233178D02*
X916516D01*
X913912Y1228318D02*
X916224D01*
X913939Y1232638D02*
X916202D01*
X914202Y1228858D02*
X915989D01*
X914221Y1232098D02*
X915974D01*
X914397Y1229398D02*
X915828D01*
X914409Y1231558D02*
X915818D01*
X914510Y1229938D02*
X915732D01*
X914516Y1231018D02*
X915728D01*
X914549Y1230478D02*
X915700D01*
X908798Y1296898D02*
X911201D01*
X908823Y1293118D02*
X911176D01*
X909355Y1296358D02*
X910644D01*
X909368Y1293658D02*
X910631D01*
X909649Y1295818D02*
X910350D01*
X909655Y1294198D02*
X910344D01*
X909783Y1295278D02*
X910216D01*
X909785Y1294738D02*
X910214D01*
X901897Y1226698D02*
X909102D01*
X902008Y1234258D02*
X908991D01*
X902901Y1227238D02*
X908098D01*
X902958Y1233718D02*
X908041D01*
X903499Y1227778D02*
X907500D01*
X903537Y1233178D02*
X907462D01*
X903912Y1228318D02*
X907087D01*
X903939Y1232638D02*
X907060D01*
X904202Y1228858D02*
X906797D01*
X904221Y1232098D02*
X906778D01*
X904397Y1229398D02*
X906602D01*
X904409Y1231558D02*
X906590D01*
X904510Y1229938D02*
X906489D01*
X904516Y1231018D02*
X906483D01*
X904549Y1230478D02*
X906450D01*
X903798Y1296898D02*
X906201D01*
X903823Y1293118D02*
X906176D01*
X904355Y1296358D02*
X905644D01*
X904368Y1293658D02*
X905631D01*
X904649Y1295818D02*
X905350D01*
X904655Y1294198D02*
X905344D01*
X904783Y1295278D02*
X905216D01*
X904785Y1294738D02*
X905214D01*
X802800Y1296898D02*
X901201D01*
X802800Y1293118D02*
X901176D01*
X802800Y1296358D02*
X900644D01*
X802800Y1293658D02*
X900631D01*
X802800Y1295818D02*
X900350D01*
X802800Y1294198D02*
X900344D01*
X802800Y1295278D02*
X900216D01*
X802800Y1294738D02*
X900214D01*
X802800Y1226698D02*
X899102D01*
X802800Y1234258D02*
X898991D01*
X802800Y1227238D02*
X898098D01*
X802800Y1233718D02*
X898041D01*
X802800Y1227778D02*
X897500D01*
X802800Y1233178D02*
X897462D01*
X802800Y1228318D02*
X897087D01*
X802800Y1232638D02*
X897060D01*
X802800Y1228858D02*
X896797D01*
X802800Y1232098D02*
X896778D01*
X802800Y1229398D02*
X896602D01*
X802800Y1231558D02*
X896590D01*
X802800Y1229938D02*
X896489D01*
X802800Y1231018D02*
X896483D01*
X802800Y1230478D02*
X896450D01*
X834289Y1269358D02*
X883775D01*
X836220Y1278538D02*
X883437D01*
X834626Y1269898D02*
X882506D01*
X875642Y1277998D02*
X882344D01*
X876928Y1270438D02*
X881781D01*
X877107Y1277458D02*
X881671D01*
X877697Y1270978D02*
X881270D01*
X877807Y1276918D02*
X881189D01*
X878200Y1271518D02*
X880891D01*
X878277Y1276378D02*
X880830D01*
X878554Y1272058D02*
X880610D01*
X878608Y1275838D02*
X880566D01*
X878799Y1272598D02*
X880409D01*
X878836Y1275298D02*
X880379D01*
X878957Y1273138D02*
X880277D01*
X878978Y1274758D02*
X880260D01*
X879037Y1273678D02*
X880210D01*
X879044Y1274218D02*
X880204D01*
X865642Y1277998D02*
X874357D01*
X866928Y1270438D02*
X873071D01*
X867107Y1277458D02*
X872892D01*
X867697Y1270978D02*
X872302D01*
X867807Y1276918D02*
X872192D01*
X868200Y1271518D02*
X871799D01*
X868277Y1276378D02*
X871722D01*
X868554Y1272058D02*
X871445D01*
X868608Y1275838D02*
X871391D01*
X868799Y1272598D02*
X871200D01*
X868836Y1275298D02*
X871163D01*
X868957Y1273138D02*
X871042D01*
X868978Y1274758D02*
X871021D01*
X869037Y1273678D02*
X870962D01*
X869044Y1274218D02*
X870955D01*
X836299Y1277998D02*
X864357D01*
X834927Y1270438D02*
X863071D01*
X836356Y1277458D02*
X862892D01*
X835195Y1270978D02*
X862302D01*
X836389Y1276918D02*
X862192D01*
X835432Y1271518D02*
X861799D01*
X836400Y1276378D02*
X861722D01*
X835641Y1272058D02*
X861445D01*
X836387Y1275838D02*
X861391D01*
X835822Y1272598D02*
X861200D01*
X836352Y1275298D02*
X861163D01*
X835977Y1273138D02*
X861042D01*
X836294Y1274758D02*
X861021D01*
X836107Y1273678D02*
X860962D01*
X836212Y1274218D02*
X860955D01*
X802800Y1094398D02*
X838722D01*
X802800Y1130038D02*
X837664D01*
X802800Y1138138D02*
X837476D01*
X802800Y1102498D02*
X837017D01*
X802800Y1094938D02*
X836908D01*
X802800Y1130578D02*
X836575D01*
X802800Y1137598D02*
X836481D01*
X802800Y1101958D02*
X836219D01*
X802800Y1095478D02*
X836150D01*
X802800Y1131118D02*
X835934D01*
X802800Y1137058D02*
X835870D01*
X802800Y1101418D02*
X835689D01*
X802800Y1096018D02*
X835641D01*
X802800Y1131658D02*
X835487D01*
X802800Y1136518D02*
X835441D01*
X802800Y1100878D02*
X835311D01*
X802800Y1096558D02*
X835276D01*
X802800Y1132198D02*
X835165D01*
X802800Y1135978D02*
X835133D01*
X802800Y1100338D02*
X835040D01*
X802800Y1097098D02*
X835016D01*
X802800Y1132738D02*
X834940D01*
X802800Y1135438D02*
X834918D01*
X802800Y1099798D02*
X834857D01*
X802800Y1097638D02*
X834842D01*
X802800Y1133278D02*
X834795D01*
X802800Y1134898D02*
X834782D01*
X802800Y1099258D02*
X834749D01*
X802800Y1098178D02*
X834742D01*
X802800Y1133818D02*
X834722D01*
X802800Y1134358D02*
X834718D01*
X802800Y1098718D02*
X834711D01*
X824404Y1126258D02*
X834406D01*
X824665Y1114378D02*
X834145D01*
X825188Y1106818D02*
X833622D01*
X825331Y1118698D02*
X833479D01*
X825688Y1125718D02*
X833122D01*
X825792Y1113838D02*
X833018D01*
X826056Y1107358D02*
X832754D01*
X826138Y1119238D02*
X832672D01*
X826359Y1125178D02*
X832451D01*
X826427Y1113298D02*
X832383D01*
X826604Y1107898D02*
X832206D01*
X826660Y1119778D02*
X832150D01*
X826814Y1124638D02*
X831996D01*
X826861Y1112758D02*
X831949D01*
X826986Y1108438D02*
X831824D01*
X827026Y1120318D02*
X831784D01*
X827134Y1124098D02*
X831676D01*
X827167Y1112218D02*
X831643D01*
X827253Y1108978D02*
X831557D01*
X827280Y1120858D02*
X831530D01*
X827353Y1123558D02*
X831457D01*
X827374Y1111678D02*
X831436D01*
X827429Y1109518D02*
X831381D01*
X827445Y1121398D02*
X831365D01*
X827487Y1123018D02*
X831323D01*
X827499Y1111138D02*
X831311D01*
X827525Y1110058D02*
X831285D01*
X827532Y1121938D02*
X831278D01*
X827546Y1122478D02*
X831264D01*
X827548Y1110598D02*
X831262D01*
X802800Y1177018D02*
X830257D01*
X822908Y984778D02*
X830025D01*
X802800Y1188898D02*
X829912D01*
X822873Y876238D02*
X829860D01*
X811160Y1004758D02*
X829839D01*
X811286Y856258D02*
X829713D01*
X802800Y1200778D02*
X829658D01*
X802800Y1208338D02*
X829442D01*
X802800Y1196458D02*
X829263D01*
X822617Y1053358D02*
X829212D01*
X822611Y1043638D02*
X829202D01*
X811864Y1033378D02*
X829135D01*
X811874Y1063618D02*
X829125D01*
X802800Y1184578D02*
X829103D01*
X802800Y1177558D02*
X828864D01*
X822310Y866518D02*
X828796D01*
X822261Y994498D02*
X828745D01*
X802800Y1189438D02*
X828740D01*
X812261Y886498D02*
X828738D01*
X812310Y974518D02*
X828689D01*
X802800Y1201318D02*
X828626D01*
X802800Y1207798D02*
X828515D01*
X821864Y925378D02*
X828429D01*
X802800Y1195918D02*
X828416D01*
X821797Y935638D02*
X828388D01*
X812617Y945358D02*
X828382D01*
X812656Y915658D02*
X828343D01*
X802800Y1184038D02*
X828322D01*
X802800Y1178098D02*
X828174D01*
X821139Y984238D02*
X828126D01*
X802800Y1189978D02*
X828094D01*
X820974Y876778D02*
X828091D01*
X812913Y1004218D02*
X828086D01*
X812947Y856798D02*
X828052D01*
X802800Y1201858D02*
X828018D01*
X802800Y1207258D02*
X827944D01*
X802800Y1195378D02*
X827877D01*
X813130Y1053898D02*
X827869D01*
X813134Y1043098D02*
X827865D01*
X813164Y1033918D02*
X827835D01*
X813169Y1063078D02*
X827830D01*
X802800Y1183498D02*
X827812D01*
X802800Y1178638D02*
X827709D01*
X813333Y865978D02*
X827666D01*
X802800Y1190518D02*
X827653D01*
X813361Y995038D02*
X827638D01*
X813365Y885958D02*
X827634D01*
X813392Y975058D02*
X827607D01*
X802800Y1202398D02*
X827600D01*
X802800Y1206718D02*
X827548D01*
X802800Y1194838D02*
X827500D01*
X813543Y924838D02*
X827456D01*
X802800Y1182958D02*
X827455D01*
X813568Y936178D02*
X827431D01*
X813572Y944818D02*
X827427D01*
X813596Y916198D02*
X827403D01*
X802800Y1179178D02*
X827382D01*
X802800Y1191058D02*
X827343D01*
X802800Y1202938D02*
X827306D01*
X802800Y1206178D02*
X827270D01*
X813734Y983698D02*
X827265D01*
X813756Y877318D02*
X827243D01*
X813760Y1003678D02*
X827239D01*
X802800Y1194298D02*
X827237D01*
X813782Y857338D02*
X827217D01*
X802800Y1182418D02*
X827206D01*
X802800Y1179718D02*
X827158D01*
X802800Y1191598D02*
X827132D01*
X802800Y1203478D02*
X827108D01*
X813905Y1054438D02*
X827094D01*
X813908Y1042558D02*
X827091D01*
X802800Y1205638D02*
X827085D01*
X813929Y1034458D02*
X827070D01*
X813932Y1062538D02*
X827067D01*
X802800Y1193758D02*
X827065D01*
X802800Y1181878D02*
X827046D01*
X802800Y1180258D02*
X827018D01*
X802800Y1192138D02*
X827004D01*
X802800Y1204018D02*
X826991D01*
X802800Y1205098D02*
X826980D01*
X802800Y1193218D02*
X826971D01*
X802800Y1181338D02*
X826964D01*
X802800Y1180798D02*
X826954D01*
X814046Y865438D02*
X826953D01*
X802800Y1192678D02*
X826951D01*
X802800Y1204558D02*
X826950D01*
X814065Y995578D02*
X826934D01*
X814068Y885418D02*
X826931D01*
X814087Y975598D02*
X826912D01*
X814195Y924298D02*
X826804D01*
X814213Y936718D02*
X826786D01*
X814216Y944278D02*
X826783D01*
X814234Y916738D02*
X826765D01*
X814334Y983158D02*
X826665D01*
X814351Y877858D02*
X826648D01*
X814353Y1003138D02*
X826646D01*
X814369Y857878D02*
X826630D01*
X814461Y1054978D02*
X826538D01*
X814463Y1042018D02*
X826536D01*
X814478Y1034998D02*
X826521D01*
X814481Y1061998D02*
X826518D01*
X814566Y864898D02*
X826433D01*
X814581Y996118D02*
X826418D01*
X814583Y884878D02*
X826416D01*
X814597Y976138D02*
X826402D01*
X814679Y923758D02*
X826320D01*
X814693Y937258D02*
X826306D01*
X814695Y943738D02*
X826304D01*
X814708Y917278D02*
X826291D01*
X814785Y982618D02*
X826214D01*
X814797Y878398D02*
X826202D01*
X814799Y1002598D02*
X826200D01*
X814812Y858418D02*
X826187D01*
X814882Y1055518D02*
X826117D01*
X814883Y1041478D02*
X826116D01*
X814895Y1035538D02*
X826104D01*
X814897Y1061458D02*
X826102D01*
X814962Y864358D02*
X826037D01*
X814974Y996658D02*
X826025D01*
X814975Y884338D02*
X826024D01*
X814986Y976678D02*
X826013D01*
X815049Y923218D02*
X825950D01*
X815059Y937798D02*
X825940D01*
X815061Y943198D02*
X825938D01*
X815071Y917818D02*
X825928D01*
X815130Y982078D02*
X825869D01*
X815140Y878938D02*
X825859D01*
X815141Y1002058D02*
X825858D01*
X815151Y858958D02*
X825848D01*
X815204Y1056058D02*
X825795D01*
X815205Y1040938D02*
X825794D01*
X815214Y1036078D02*
X825785D01*
X815215Y1060918D02*
X825784D01*
X815265Y863818D02*
X825734D01*
X815274Y997198D02*
X825725D01*
X815275Y883798D02*
X825724D01*
X815283Y977218D02*
X825716D01*
X815331Y922678D02*
X825668D01*
X815339Y938338D02*
X825660D01*
X815340Y942658D02*
X825659D01*
X815348Y918358D02*
X825651D01*
X815392Y981538D02*
X825607D01*
X815399Y879478D02*
X825600D01*
X815400Y1001518D02*
X825599D01*
X815407Y859498D02*
X825592D01*
X815447Y1056598D02*
X825552D01*
X815448Y1040398D02*
X825551D01*
X815454Y1036618D02*
X825545D01*
X815455Y1060378D02*
X825544D01*
X815492Y863278D02*
X825507D01*
X815498Y997738D02*
X825501D01*
X815499Y883258D02*
X825500D01*
X815505Y977758D02*
X825494D01*
X815540Y922138D02*
X825459D01*
X815545Y938878D02*
X825454D01*
X815546Y942118D02*
X825453D01*
X815552Y918898D02*
X825447D01*
X815583Y980998D02*
X825416D01*
X815588Y880018D02*
X825411D01*
X815589Y1000978D02*
X825410D01*
X815594Y860038D02*
X825405D01*
X815622Y1057138D02*
X825377D01*
X815622Y1039858D02*
X825377D01*
X815627Y1037158D02*
X825372D01*
X815628Y1059838D02*
X825371D01*
X815653Y862738D02*
X825346D01*
X815657Y998278D02*
X825342D01*
X815658Y882718D02*
X825342D01*
X815662Y978298D02*
X825337D01*
X815684Y921598D02*
X825315D01*
X815688Y939418D02*
X825311D01*
X815689Y941578D02*
X825310D01*
X815692Y919438D02*
X825307D01*
X815712Y980458D02*
X825287D01*
X815715Y880558D02*
X825284D01*
X815716Y1000438D02*
X825283D01*
X815719Y860578D02*
X825280D01*
X815736Y1057678D02*
X825264D01*
X815736Y1039318D02*
X825263D01*
X815739Y1037698D02*
X825260D01*
X815739Y1059298D02*
X825260D01*
X815753Y862198D02*
X825246D01*
X815756Y998818D02*
X825243D01*
X815756Y882178D02*
X825243D01*
X815758Y978838D02*
X825241D01*
X815770Y921058D02*
X825229D01*
X815772Y939958D02*
X825227D01*
X815772Y941038D02*
X825227D01*
X815774Y919978D02*
X825225D01*
X815783Y979918D02*
X825216D01*
X815784Y881098D02*
X825215D01*
X815785Y999898D02*
X825214D01*
X815786Y861118D02*
X825213D01*
X815792Y1058218D02*
X825207D01*
X815792Y1038778D02*
X825207D01*
X815793Y1038238D02*
X825206D01*
X815793Y1058758D02*
X825206D01*
X815797Y861658D02*
X825202D01*
X815798Y999358D02*
X825201D01*
X815798Y881638D02*
X825201D01*
X815798Y979378D02*
X825201D01*
X815799Y920518D02*
X825200D01*
X815800Y940498D02*
X825199D01*
X802800Y1126258D02*
X822595D01*
X802800Y1114378D02*
X822334D01*
X802800Y810898D02*
X822013D01*
X802800Y1164058D02*
X822012D01*
X802800Y1174318D02*
X821925D01*
X802800Y836278D02*
X821841D01*
X802800Y1106818D02*
X821811D01*
X802800Y1118698D02*
X821668D01*
X802800Y1125718D02*
X821311D01*
X802800Y1221298D02*
X821276D01*
X802800Y1113838D02*
X821207D01*
X802800Y1211578D02*
X821098D01*
X802800Y1107358D02*
X820943D01*
X802800Y1119238D02*
X820861D01*
X802800Y1164598D02*
X820669D01*
X802800Y1125178D02*
X820640D01*
X802800Y1173778D02*
X820630D01*
X802800Y1263958D02*
X820590D01*
X802800Y1113298D02*
X820572D01*
X802800Y1288798D02*
X820419D01*
X802800Y1107898D02*
X820395D01*
X802800Y1119778D02*
X820339D01*
X802800Y1220758D02*
X820284D01*
X802800Y1124638D02*
X820185D01*
X802800Y1212118D02*
X820175D01*
X802800Y1112758D02*
X820138D01*
X812908Y876778D02*
X820025D01*
X802800Y1108438D02*
X820013D01*
X802800Y1120318D02*
X819973D01*
X802800Y1165138D02*
X819894D01*
X802800Y1173238D02*
X819867D01*
X802800Y1124098D02*
X819865D01*
X812873Y984238D02*
X819860D01*
X802800Y1112218D02*
X819832D01*
X802800Y1108978D02*
X819746D01*
X802800Y1120858D02*
X819719D01*
X802800Y1123558D02*
X819646D01*
X802800Y1111678D02*
X819625D01*
X802800Y1220218D02*
X819624D01*
X802800Y811438D02*
X819607D01*
X802800Y1109518D02*
X819570D01*
X802800Y1121398D02*
X819554D01*
X802800Y1212658D02*
X819545D01*
X802800Y835738D02*
X819538D01*
X802800Y1123018D02*
X819512D01*
X802800Y1111138D02*
X819500D01*
X802800Y1110058D02*
X819474D01*
X802800Y1121938D02*
X819467D01*
X802800Y1122478D02*
X819453D01*
X802800Y1110598D02*
X819451D01*
X802800Y1165678D02*
X819338D01*
X802800Y1172698D02*
X819318D01*
X812611Y935638D02*
X819202D01*
X802800Y1219678D02*
X819135D01*
X812570Y925378D02*
X819135D01*
X802800Y1213198D02*
X819076D01*
X802800Y1166218D02*
X818917D01*
X802800Y1172158D02*
X818902D01*
X802800Y1264498D02*
X818888D01*
X802800Y1288258D02*
X818782D01*
X802800Y1219138D02*
X818762D01*
X812254Y994498D02*
X818738D01*
X802800Y1213738D02*
X818716D01*
X812203Y866518D02*
X818689D01*
X802800Y1166758D02*
X818595D01*
X802800Y1171618D02*
X818584D01*
X802800Y1218598D02*
X818477D01*
X802800Y1214278D02*
X818443D01*
X811797Y1043638D02*
X818388D01*
X811787Y1053358D02*
X818382D01*
X802800Y1167298D02*
X818352D01*
X802800Y1171078D02*
X818344D01*
X802800Y1218058D02*
X818266D01*
X802800Y1214818D02*
X818241D01*
X802800Y811978D02*
X818234D01*
X802800Y835198D02*
X818186D01*
X802800Y1167838D02*
X818177D01*
X802800Y1170538D02*
X818171D01*
X811139Y876238D02*
X818126D01*
X802800Y1217518D02*
X818119D01*
X802800Y1215358D02*
X818103D01*
X810974Y984778D02*
X818091D01*
X802800Y1168378D02*
X818064D01*
X802800Y1169998D02*
X818060D01*
X802800Y1216978D02*
X818031D01*
X802800Y1215898D02*
X818023D01*
X802800Y1168918D02*
X818007D01*
X802800Y1169458D02*
X818006D01*
X802800Y1216438D02*
X818000D01*
X802800Y935098D02*
X817865D01*
X802800Y925918D02*
X817835D01*
X802800Y1265038D02*
X817704D01*
X802800Y993958D02*
X817634D01*
X802800Y1287718D02*
X817622D01*
X802800Y867058D02*
X817607D01*
X802800Y1044178D02*
X817431D01*
X802800Y1052818D02*
X817427D01*
X802800Y875698D02*
X817265D01*
X802800Y985318D02*
X817243D01*
X802800Y812518D02*
X817193D01*
X802800Y834658D02*
X817154D01*
X802800Y934558D02*
X817091D01*
X802800Y926458D02*
X817070D01*
X802800Y993418D02*
X816931D01*
X802800Y867598D02*
X816912D01*
X802800Y1044718D02*
X816786D01*
X802800Y1052278D02*
X816783D01*
X802800Y1265578D02*
X816763D01*
X802800Y1287178D02*
X816696D01*
X802800Y875158D02*
X816665D01*
X802800Y985858D02*
X816648D01*
X802800Y934018D02*
X816536D01*
X802800Y926998D02*
X816521D01*
X802800Y992878D02*
X816416D01*
X802800Y868138D02*
X816402D01*
X802800Y813058D02*
X816339D01*
X802800Y1045258D02*
X816306D01*
X802800Y834118D02*
X816306D01*
X802800Y1051738D02*
X816304D01*
X802800Y874618D02*
X816214D01*
X802800Y986398D02*
X816202D01*
X802800Y933478D02*
X816116D01*
X802800Y927538D02*
X816104D01*
X802800Y992338D02*
X816024D01*
X802800Y868678D02*
X816013D01*
X802800Y1266118D02*
X815975D01*
X802800Y1045798D02*
X815940D01*
X802800Y1051198D02*
X815938D01*
X802800Y1286638D02*
X815918D01*
X802800Y874078D02*
X815869D01*
X802800Y986938D02*
X815859D01*
X802800Y932938D02*
X815794D01*
X802800Y928078D02*
X815785D01*
X802800Y991798D02*
X815724D01*
X802800Y869218D02*
X815716D01*
X802800Y1046338D02*
X815660D01*
X802800Y1050658D02*
X815659D01*
X802800Y813598D02*
X815611D01*
X802800Y873538D02*
X815607D01*
X802800Y987478D02*
X815600D01*
X802800Y833578D02*
X815583D01*
X802800Y932398D02*
X815551D01*
X802800Y928618D02*
X815545D01*
X802800Y991258D02*
X815500D01*
X802800Y869758D02*
X815494D01*
X802800Y1046878D02*
X815454D01*
X802800Y1050118D02*
X815453D01*
X802800Y872998D02*
X815416D01*
X802800Y988018D02*
X815411D01*
X802800Y931858D02*
X815377D01*
X802800Y929158D02*
X815372D01*
X802800Y990718D02*
X815342D01*
X802800Y870298D02*
X815337D01*
X802800Y1047418D02*
X815311D01*
X802800Y1049578D02*
X815310D01*
X802800Y1266658D02*
X815296D01*
X802800Y872458D02*
X815287D01*
X802800Y988558D02*
X815284D01*
X802800Y931318D02*
X815263D01*
X802800Y929698D02*
X815260D01*
X802800Y1286098D02*
X815246D01*
X802800Y990178D02*
X815243D01*
X802800Y870838D02*
X815241D01*
X802800Y1047958D02*
X815227D01*
X802800Y1049038D02*
X815227D01*
X802800Y871918D02*
X815216D01*
X802800Y989098D02*
X815215D01*
X802800Y930778D02*
X815207D01*
X802800Y930238D02*
X815206D01*
X802800Y989638D02*
X815201D01*
X802800Y871378D02*
X815201D01*
X802800Y1048498D02*
X815199D01*
X802800Y814138D02*
X814978D01*
X802800Y833038D02*
X814954D01*
X802800Y1267198D02*
X814701D01*
X802800Y1285558D02*
X814658D01*
X802800Y814678D02*
X814421D01*
X802800Y832498D02*
X814399D01*
X802800Y1267738D02*
X814175D01*
X802800Y1285018D02*
X814136D01*
X802800Y815218D02*
X813925D01*
X802800Y831958D02*
X813906D01*
X802800Y1268278D02*
X813706D01*
X802800Y1284478D02*
X813671D01*
X802800Y815758D02*
X813482D01*
X802800Y831418D02*
X813465D01*
X802800Y1268818D02*
X813286D01*
X802800Y1283938D02*
X813255D01*
X802800Y816298D02*
X813086D01*
X802800Y830878D02*
X813070D01*
X802800Y1269358D02*
X812910D01*
X802800Y1283398D02*
X812882D01*
X802800Y816838D02*
X812731D01*
X802800Y830338D02*
X812717D01*
X802800Y1269898D02*
X812573D01*
X802800Y1282858D02*
X812548D01*
X802800Y817378D02*
X812413D01*
X802800Y829798D02*
X812401D01*
X802800Y1270438D02*
X812272D01*
X802800Y1282318D02*
X812250D01*
X802800Y817918D02*
X812129D01*
X802800Y829258D02*
X812118D01*
X802800Y1270978D02*
X812004D01*
X802800Y1281778D02*
X811984D01*
X802800Y818458D02*
X811877D01*
X802800Y828718D02*
X811868D01*
X802800Y1271518D02*
X811767D01*
X802800Y1281238D02*
X811749D01*
X802800Y818998D02*
X811655D01*
X802800Y828178D02*
X811646D01*
X802800Y1272058D02*
X811558D01*
X802800Y1280698D02*
X811543D01*
X802800Y819538D02*
X811461D01*
X802800Y827638D02*
X811453D01*
X802800Y1272598D02*
X811377D01*
X802800Y1280158D02*
X811364D01*
X802800Y820078D02*
X811293D01*
X802800Y827098D02*
X811287D01*
X802800Y1273138D02*
X811222D01*
X802800Y1279618D02*
X811211D01*
X802800Y820618D02*
X811152D01*
X802800Y826558D02*
X811146D01*
X802800Y1273678D02*
X811092D01*
X802800Y1279078D02*
X811083D01*
X802800Y821158D02*
X811034D01*
X802800Y826018D02*
X811030D01*
X802800Y1274218D02*
X810987D01*
X802800Y1278538D02*
X810979D01*
X802800Y821698D02*
X810941D01*
X802800Y825478D02*
X810938D01*
X802800Y1274758D02*
X810905D01*
X802800Y1277998D02*
X810900D01*
X802800Y822238D02*
X810872D01*
X802800Y824938D02*
X810870D01*
X802800Y1275298D02*
X810847D01*
X802800Y1277458D02*
X810843D01*
X802800Y822778D02*
X810826D01*
X802800Y824398D02*
X810824D01*
X802800Y1275838D02*
X810812D01*
X802800Y1276918D02*
X810810D01*
X802800Y823318D02*
X810803D01*
X802800Y823858D02*
X810802D01*
X802800Y1276378D02*
X810799D01*
X802800Y984778D02*
X810025D01*
X802800Y876238D02*
X809860D01*
X802800Y1004758D02*
X809839D01*
X802800Y856258D02*
X809713D01*
X802800Y1053358D02*
X809212D01*
X802800Y1043638D02*
X809202D01*
X802800Y1033378D02*
X809135D01*
X802800Y1063618D02*
X809125D01*
X802800Y866518D02*
X808796D01*
X802800Y994498D02*
X808745D01*
X802800Y886498D02*
X808738D01*
X802800Y974518D02*
X808689D01*
X802800Y925378D02*
X808429D01*
X802800Y935638D02*
X808388D01*
X802800Y945358D02*
X808382D01*
X802800Y915658D02*
X808343D01*
X802800Y984238D02*
X808126D01*
X802800Y876778D02*
X808091D01*
X802800Y1004218D02*
X808086D01*
X802800Y856798D02*
X808052D01*
X802800Y1053898D02*
X807869D01*
X802800Y1043098D02*
X807865D01*
X802800Y1033918D02*
X807835D01*
X802800Y1063078D02*
X807830D01*
X802800Y865978D02*
X807666D01*
X802800Y995038D02*
X807638D01*
X802800Y885958D02*
X807634D01*
X802800Y975058D02*
X807607D01*
X802800Y924838D02*
X807456D01*
X802800Y936178D02*
X807431D01*
X802800Y944818D02*
X807427D01*
X802800Y916198D02*
X807403D01*
X802800Y983698D02*
X807265D01*
X802800Y877318D02*
X807243D01*
X802800Y1003678D02*
X807239D01*
X802800Y857338D02*
X807217D01*
X802800Y1054438D02*
X807094D01*
X802800Y1042558D02*
X807091D01*
X802800Y1034458D02*
X807070D01*
X802800Y1062538D02*
X807067D01*
X802800Y865438D02*
X806953D01*
X802800Y995578D02*
X806934D01*
X802800Y885418D02*
X806931D01*
X802800Y975598D02*
X806912D01*
X802800Y924298D02*
X806804D01*
X802800Y936718D02*
X806786D01*
X802800Y944278D02*
X806783D01*
X802800Y916738D02*
X806765D01*
X802800Y983158D02*
X806665D01*
X802800Y877858D02*
X806648D01*
X802800Y1003138D02*
X806646D01*
X802800Y857878D02*
X806630D01*
X802800Y1054978D02*
X806538D01*
X802800Y1042018D02*
X806536D01*
X802800Y1034998D02*
X806521D01*
X802800Y1061998D02*
X806518D01*
X802800Y864898D02*
X806433D01*
X802800Y996118D02*
X806418D01*
X802800Y884878D02*
X806416D01*
X802800Y976138D02*
X806402D01*
X802800Y923758D02*
X806320D01*
X802800Y937258D02*
X806306D01*
X802800Y943738D02*
X806304D01*
X802800Y917278D02*
X806291D01*
X802800Y982618D02*
X806214D01*
X802800Y878398D02*
X806202D01*
X802800Y1002598D02*
X806200D01*
X802800Y858418D02*
X806187D01*
X802800Y1055518D02*
X806117D01*
X802800Y1041478D02*
X806116D01*
X802800Y1035538D02*
X806104D01*
X802800Y1061458D02*
X806102D01*
X802800Y864358D02*
X806037D01*
X802800Y996658D02*
X806025D01*
X802800Y884338D02*
X806024D01*
X802800Y976678D02*
X806013D01*
X802800Y923218D02*
X805950D01*
X802800Y937798D02*
X805940D01*
X802800Y943198D02*
X805938D01*
X802800Y917818D02*
X805928D01*
X802800Y982078D02*
X805869D01*
X802800Y878938D02*
X805859D01*
X802800Y1002058D02*
X805858D01*
X802800Y858958D02*
X805848D01*
X802800Y1056058D02*
X805795D01*
X802800Y1040938D02*
X805794D01*
X802800Y1036078D02*
X805785D01*
X802800Y1060918D02*
X805784D01*
X802800Y863818D02*
X805734D01*
X802800Y997198D02*
X805725D01*
X802800Y883798D02*
X805724D01*
X802800Y977218D02*
X805716D01*
X802800Y922678D02*
X805668D01*
X802800Y938338D02*
X805660D01*
X802800Y942658D02*
X805659D01*
X802800Y918358D02*
X805651D01*
X802800Y981538D02*
X805607D01*
X802800Y879478D02*
X805600D01*
X802800Y1001518D02*
X805599D01*
X802800Y859498D02*
X805592D01*
X802800Y1056598D02*
X805552D01*
X802800Y1040398D02*
X805551D01*
X802800Y1036618D02*
X805545D01*
X802800Y1060378D02*
X805544D01*
X802800Y863278D02*
X805507D01*
X802800Y997738D02*
X805501D01*
X802800Y883258D02*
X805500D01*
X802800Y977758D02*
X805494D01*
X802800Y922138D02*
X805459D01*
X802800Y938878D02*
X805454D01*
X802800Y942118D02*
X805453D01*
X802800Y918898D02*
X805447D01*
X802800Y980998D02*
X805416D01*
X802800Y880018D02*
X805411D01*
X802800Y1000978D02*
X805410D01*
X802800Y860038D02*
X805405D01*
X802800Y1057138D02*
X805377D01*
X802800Y1039858D02*
X805377D01*
X802800Y1037158D02*
X805372D01*
X802800Y1059838D02*
X805371D01*
X802800Y862738D02*
X805346D01*
X802800Y998278D02*
X805342D01*
X802800Y882718D02*
X805342D01*
X802800Y978298D02*
X805337D01*
X802800Y921598D02*
X805315D01*
X802800Y939418D02*
X805311D01*
X802800Y941578D02*
X805310D01*
X802800Y919438D02*
X805307D01*
X802800Y980458D02*
X805287D01*
X802800Y880558D02*
X805284D01*
X802800Y1000438D02*
X805283D01*
X802800Y860578D02*
X805280D01*
X802800Y1057678D02*
X805264D01*
X802800Y1039318D02*
X805263D01*
X802800Y1037698D02*
X805260D01*
X802800Y1059298D02*
X805260D01*
X802800Y862198D02*
X805246D01*
X802800Y998818D02*
X805243D01*
X802800Y882178D02*
X805243D01*
X802800Y978838D02*
X805241D01*
X802800Y921058D02*
X805229D01*
X802800Y939958D02*
X805227D01*
X802800Y941038D02*
X805227D01*
X802800Y919978D02*
X805225D01*
X802800Y979918D02*
X805216D01*
X802800Y881098D02*
X805215D01*
X802800Y999898D02*
X805214D01*
X802800Y861118D02*
X805213D01*
X802800Y1058218D02*
X805207D01*
X802800Y1038778D02*
X805207D01*
X802800Y1038238D02*
X805206D01*
X802800Y1058758D02*
X805206D01*
X802800Y861658D02*
X805202D01*
X802800Y999358D02*
X805201D01*
X802800Y881638D02*
X805201D01*
X802800Y979378D02*
X805201D01*
X802800Y920518D02*
X805200D01*
X802800Y940498D02*
X805199D01*
G54D138*
X1304000Y987500D03*
X1311000D03*
Y1007500D03*
X1304000D03*
X937000Y1212000D03*
X942500D03*
X948000D03*
X1009500D03*
X1015000D03*
X1020500D03*
X902000Y1254500D03*
X907500D03*
X913000D03*
X977500D03*
X972000D03*
X983000D03*
X1055500D03*
X1044500D03*
X1050000D03*
G74*
X0Y0D02*
M02*
