*
*
G04 PADS Layout (Build Number 2005.103.1) generated Gerber (RS-274-X) file*
G04 PC Version=2.1*
*
%IN "7754.pcb"*%
*
%MOIN*%
*
%FSLAX35Y35*%
*
*
*
*
G04 PC Standard Apertures*
*
*
G04 Thermal Relief Aperture macro.*
%AMTER*
1,1,$1,0,0*
1,0,$1-$2,0,0*
21,0,$3,$4,0,0,45*
21,0,$3,$4,0,0,135*
%
*
*
G04 Annular Aperture macro.*
%AMANN*
1,1,$1,0,0*
1,0,$2,0,0*
%
*
*
G04 Odd Aperture macro.*
%AMODD*
1,1,$1,0,0*
1,0,$1-0.005,0,0*
%
*
*
G04 PC Custom Aperture Macros*
*
*
*
*
*
*
G04 PC Aperture Table*
*
%ADD030C,0.04*%
%ADD052C,0.01*%
%ADD053C,0.02*%
%ADD146R,0.135X0.1*%
%ADD173R,0.08X0.09*%
%ADD197R,0.1X0.135*%
*
*
*
*
G04 PC Custom Flashes*
G04 Layer Name 7754.pcb - flashes*
%LPD*%
*
*
G04 PC Circuitry*
G04 Layer Name 7754.pcb - circuitry*
%LPD*%
*
G54D30*
G01X840000Y840000D03*
Y1260000D03*
X1335000Y1280000D03*
G54D52*
X800000Y800000D02*
X1350000D01*
Y1300000*
X800000*
Y800000*
G54D53*
X1006909Y767812D02*
X1011909D01*
X1011909D02*
X1009181Y763312D01*
X1009181D02*
X1010545D01*
X1010545D02*
X1011454Y762750D01*
X1011454D02*
X1011909Y762187D01*
X1011909D02*
X1012363Y760500D01*
X1012363D02*
Y759375D01*
X1012363D02*
X1011909Y757687D01*
X1011909D02*
X1011000Y756562D01*
X1011000D02*
X1009636Y756000D01*
X1008272*
X1008272D02*
X1006909Y756562D01*
X1006909D02*
X1006454Y757125D01*
X1006454D02*
X1006000Y758250D01*
X1016454Y765562D02*
X1017363Y766125D01*
X1017363D02*
X1018727Y767812D01*
X1018727D02*
Y756000D01*
X1022818Y761062D02*
X1031000D01*
X1037818Y767812D02*
X1036454Y767250D01*
X1036454D02*
X1035545Y765562D01*
X1035545D02*
X1035090Y762750D01*
X1035090D02*
Y761062D01*
X1035090D02*
X1035545Y758250D01*
X1036454Y756562*
X1036454D02*
X1037818Y756000D01*
X1038727*
X1040090Y756562*
X1040090D02*
X1041000Y758250D01*
X1041454Y761062*
X1041454D02*
Y762750D01*
X1041454D02*
X1041000Y765562D01*
X1041000D02*
X1040090Y767250D01*
X1040090D02*
X1038727Y767812D01*
X1038727D02*
X1037818D01*
X1048272D02*
X1046909Y767250D01*
X1046000Y765562*
X1046000D02*
X1045545Y762750D01*
Y761062*
X1045545D02*
X1046000Y758250D01*
X1046909Y756562*
X1046909D02*
X1048272Y756000D01*
X1048272D02*
X1049181D01*
X1049181D02*
X1050545Y756562D01*
X1050545D02*
X1051454Y758250D01*
X1051454D02*
X1051909Y761062D01*
X1051909D02*
Y762750D01*
X1051454Y765562*
X1051454D02*
X1050545Y767250D01*
X1049181Y767812*
X1049181D02*
X1048272D01*
X1058727D02*
X1057363Y767250D01*
X1057363D02*
X1056454Y765562D01*
X1056454D02*
X1056000Y762750D01*
Y761062*
X1056000D02*
X1056454Y758250D01*
X1056454D02*
X1057363Y756562D01*
X1057363D02*
X1058727Y756000D01*
X1059636*
X1061000Y756562*
X1061000D02*
X1061909Y758250D01*
X1062363Y761062*
X1062363D02*
Y762750D01*
X1062363D02*
X1061909Y765562D01*
X1061909D02*
X1061000Y767250D01*
X1059636Y767812*
X1059636D02*
X1058727D01*
X1071000D02*
X1066454Y759937D01*
X1066454D02*
X1073272D01*
X1071000Y767812D02*
Y756000D01*
X1087818Y767812D02*
Y756000D01*
Y767812D02*
X1091909D01*
X1091909D02*
X1093272Y767250D01*
X1093272D02*
X1093727Y766687D01*
X1093727D02*
X1094181Y765562D01*
X1094181D02*
Y764437D01*
X1094181D02*
X1093727Y763312D01*
X1093727D02*
X1093272Y762750D01*
X1093272D02*
X1091909Y762187D01*
X1091909D02*
X1087818D01*
X1091000D02*
X1094181Y756000D01*
X1098272Y767812D02*
Y756000D01*
Y767812D02*
X1104181D01*
X1098272Y762187D02*
X1101909D01*
X1098272Y756000D02*
X1104181D01*
X1108272Y767812D02*
X1111909Y756000D01*
X1115545Y767812D02*
X1111909Y756000D01*
X1130090Y765562D02*
X1131000Y766125D01*
X1132363Y767812*
X1132363D02*
Y756000D01*
X1017363Y791125D02*
X1016454Y792250D01*
X1016454D02*
X1015090Y792812D01*
X1015090D02*
X1013272D01*
X1013272D02*
X1011909Y792250D01*
X1011000Y791125*
Y790000*
X1011454Y788875*
X1011454D02*
X1011909Y788312D01*
X1011909D02*
X1012818Y787750D01*
X1015545Y786625*
X1016454Y786062*
X1016454D02*
X1016909Y785500D01*
X1017363Y784375*
X1017363D02*
Y782687D01*
X1017363D02*
X1016454Y781562D01*
X1016454D02*
X1015090Y781000D01*
X1015090D02*
X1013272D01*
X1013272D02*
X1011909Y781562D01*
X1011909D02*
X1011000Y782687D01*
X1024181Y792812D02*
X1023272Y792250D01*
X1023272D02*
X1022363Y791125D01*
X1022363D02*
X1021909Y790000D01*
X1021454Y788312*
X1021454D02*
Y785500D01*
X1021454D02*
X1021909Y783812D01*
X1021909D02*
X1022363Y782687D01*
X1022363D02*
X1023272Y781562D01*
X1023272D02*
X1024181Y781000D01*
X1024181D02*
X1026000D01*
X1026909Y781562*
X1026909D02*
X1027818Y782687D01*
X1027818D02*
X1028272Y783812D01*
X1028272D02*
X1028727Y785500D01*
Y788312*
X1028727D02*
X1028272Y790000D01*
X1028272D02*
X1027818Y791125D01*
X1026909Y792250*
X1026000Y792812*
X1026000D02*
X1024181D01*
X1032818D02*
Y781000D01*
X1038272*
X1042363Y792812D02*
Y781000D01*
Y792812D02*
X1045545D01*
X1045545D02*
X1046909Y792250D01*
X1047818Y791125*
X1048272Y790000*
X1048272D02*
X1048727Y788312D01*
X1048727D02*
Y785500D01*
X1048272Y783812*
X1048272D02*
X1047818Y782687D01*
X1047818D02*
X1046909Y781562D01*
X1046909D02*
X1045545Y781000D01*
X1042363*
X1052818Y792812D02*
Y781000D01*
Y792812D02*
X1058727D01*
X1052818Y787187D02*
X1056454D01*
X1052818Y781000D02*
X1058727D01*
X1062818Y792812D02*
Y781000D01*
Y792812D02*
X1066909D01*
X1066909D02*
X1068272Y792250D01*
X1068272D02*
X1068727Y791687D01*
X1068727D02*
X1069181Y790562D01*
X1069181D02*
Y789437D01*
X1069181D02*
X1068727Y788312D01*
X1068727D02*
X1068272Y787750D01*
X1068272D02*
X1066909Y787187D01*
X1066909D02*
X1062818D01*
X1066000D02*
X1069181Y781000D01*
X1073272Y792812D02*
Y781000D01*
Y792812D02*
X1077363D01*
X1077363D02*
X1078727Y792250D01*
X1079181Y791687*
X1079181D02*
X1079636Y790562D01*
X1079636D02*
Y788875D01*
X1079181Y787750*
X1079181D02*
X1078727Y787187D01*
X1078727D02*
X1077363Y786625D01*
X1077363D02*
X1073272D01*
X1087363Y792812D02*
X1083727Y781000D01*
X1087363Y792812D02*
X1091000Y781000D01*
X1085090Y784937D02*
X1089636D01*
X1101454Y791125D02*
X1100545Y792250D01*
X1099181Y792812*
X1099181D02*
X1097363D01*
X1097363D02*
X1096000Y792250D01*
X1095090Y791125*
X1095090D02*
Y790000D01*
X1095090D02*
X1095545Y788875D01*
X1096000Y788312*
X1096000D02*
X1096909Y787750D01*
X1099636Y786625*
X1100545Y786062*
X1100545D02*
X1101000Y785500D01*
X1101454Y784375*
X1101454D02*
Y782687D01*
X1101454D02*
X1100545Y781562D01*
X1100545D02*
X1099181Y781000D01*
X1099181D02*
X1097363D01*
X1097363D02*
X1096000Y781562D01*
X1096000D02*
X1095090Y782687D01*
X1108727Y792812D02*
Y781000D01*
X1105545Y792812D02*
X1111909D01*
X1116000D02*
Y781000D01*
Y792812D02*
X1121909D01*
X1116000Y787187D02*
X1119636D01*
X1116000Y781000D02*
X1121909D01*
G54D146*
X907500Y1262401D03*
Y1287598D03*
X977500Y1262401D03*
Y1287598D03*
X1015000Y1219901D03*
Y1245098D03*
X1050000Y1262401D03*
Y1287598D03*
X942500Y1219901D03*
Y1245098D03*
G54D173*
X1308405Y917500D03*
X1296594D03*
G54D197*
X1307598Y997500D03*
X1282401D03*
X0Y0D02*
M02*
