*
*
G04 PADS Layout (Build Number 2005.103.1) generated Gerber (RS-274-X) file*
G04 PC Version=2.1*
*
%IN "7754.pcb"*%
*
%MOIN*%
*
%FSLAX35Y35*%
*
*
*
*
G04 PC Standard Apertures*
*
*
G04 Thermal Relief Aperture macro.*
%AMTER*
1,1,$1,0,0*
1,0,$1-$2,0,0*
21,0,$3,$4,0,0,45*
21,0,$3,$4,0,0,135*
%
*
*
G04 Annular Aperture macro.*
%AMANN*
1,1,$1,0,0*
1,0,$2,0,0*
%
*
*
G04 Odd Aperture macro.*
%AMODD*
1,1,$1,0,0*
1,0,$1-0.005,0,0*
%
*
*
G04 PC Custom Aperture Macros*
*
*
*
*
*
*
G04 PC Aperture Table*
*
%ADD017C,0.055*%
%ADD025C,0.08*%
%ADD039C,0.105*%
%ADD040R,0.08X0.08*%
%ADD041C,0.07*%
%ADD042R,0.07X0.07*%
%ADD052C,0.01*%
%ADD053C,0.02*%
%ADD154R,0.138X0.103*%
%ADD183R,0.083X0.093*%
%ADD205C,0.255*%
%ADD206R,0.103X0.138*%
%ADD207C,0.019*%
*
*
*
*
G04 PC Custom Flashes*
G04 Layer Name 7754.pcb - flashes*
%LPD*%
*
*
G04 PC Circuitry*
G04 Layer Name 7754.pcb - circuitry*
%LPD*%
*
G54D17*
G01X839011Y1134122D03*
Y1098688D03*
X1310988Y1098877D03*
Y1134311D03*
G54D25*
X840000Y840000D03*
Y1260000D03*
X1335000Y1280000D03*
X831000Y1192800D03*
Y1204600D03*
X1318500Y1192700D03*
Y1180900D03*
X823500Y1122311D03*
X835311Y1110500D03*
Y1122311D03*
X1326500Y1110688D03*
X1314688Y1122500D03*
Y1110688D03*
X1097500Y1274000D03*
X1087500D03*
X1077500D03*
X875000D03*
X865000D03*
X1192000D03*
X1182000D03*
X1172000D03*
X945500D03*
X935500D03*
X1239500Y1230500D03*
X1229500D03*
X1219500D03*
X981500D03*
X971500D03*
X1286500Y1274000D03*
X1276500D03*
X1266500D03*
X1016500D03*
X1006500D03*
X1145000Y1230500D03*
X1135000D03*
X1125000D03*
X910500D03*
X900500D03*
X1328000Y883000D03*
Y932000D03*
Y942000D03*
Y952000D03*
Y962000D03*
Y1011000D03*
Y1021000D03*
Y1031000D03*
Y1041000D03*
Y1051000D03*
G54D39*
X830500Y1058500D03*
Y1038500D03*
X810500D03*
Y1058500D03*
X820500Y1048500D03*
X830500Y999500D03*
Y979500D03*
X810500D03*
Y999500D03*
X820500Y989500D03*
X830500Y940500D03*
Y920500D03*
X810500D03*
Y940500D03*
X820500Y930500D03*
X830500Y881500D03*
Y861500D03*
X810500D03*
Y881500D03*
X820500Y871500D03*
G54D40*
X831000Y1181000D03*
X1318500Y1204500D03*
X823500Y1110500D03*
X1326500Y1122500D03*
X1107500Y1274000D03*
X885000D03*
X1202000D03*
X955500D03*
X1249500Y1230500D03*
X991500D03*
X1296500Y1274000D03*
X1026500D03*
X1155000Y1230500D03*
X920500D03*
X1328000Y873000D03*
Y922000D03*
Y1001000D03*
G54D41*
X1152600Y861500D03*
X1141700D03*
X1130800D03*
X1119900D03*
X1109000D03*
X1098100D03*
X1087200D03*
X1076300D03*
X1065400D03*
X1054500D03*
X1043600D03*
X1032700D03*
X1021800D03*
X1010900D03*
X1000000D03*
X989100D03*
X1158000Y850300D03*
X1147100D03*
X1136200D03*
X1125300D03*
X1114400D03*
X1103500D03*
X1092600D03*
X1081700D03*
X1070800D03*
X1059900D03*
X1048900D03*
X1038100D03*
X1027200D03*
X1016300D03*
X1005400D03*
X994500D03*
X1163500Y839100D03*
X1152600D03*
X1141700D03*
X1130800D03*
X1119900D03*
X1109000D03*
X1098100D03*
X1087200D03*
X1076300D03*
X1065400D03*
X1054500D03*
X1043600D03*
X1032700D03*
X1021800D03*
X1010900D03*
X1000000D03*
X989100D03*
X823300Y1169200D03*
Y1216400D03*
X1326200Y1216300D03*
Y1169100D03*
G54D42*
X1163500Y861500D03*
G54D52*
X800000Y800000D02*
X1350000D01*
Y1300000*
X800000*
Y800000*
G54D53*
X1006909Y767812D02*
X1011909D01*
X1011909D02*
X1009181Y763312D01*
X1009181D02*
X1010545D01*
X1010545D02*
X1011454Y762750D01*
X1011454D02*
X1011909Y762187D01*
X1011909D02*
X1012363Y760500D01*
X1012363D02*
Y759375D01*
X1012363D02*
X1011909Y757687D01*
X1011909D02*
X1011000Y756562D01*
X1011000D02*
X1009636Y756000D01*
X1008272*
X1008272D02*
X1006909Y756562D01*
X1006909D02*
X1006454Y757125D01*
X1006454D02*
X1006000Y758250D01*
X1016454Y765562D02*
X1017363Y766125D01*
X1017363D02*
X1018727Y767812D01*
X1018727D02*
Y756000D01*
X1022818Y761062D02*
X1031000D01*
X1037818Y767812D02*
X1036454Y767250D01*
X1036454D02*
X1035545Y765562D01*
X1035545D02*
X1035090Y762750D01*
X1035090D02*
Y761062D01*
X1035090D02*
X1035545Y758250D01*
X1036454Y756562*
X1036454D02*
X1037818Y756000D01*
X1038727*
X1040090Y756562*
X1040090D02*
X1041000Y758250D01*
X1041454Y761062*
X1041454D02*
Y762750D01*
X1041454D02*
X1041000Y765562D01*
X1041000D02*
X1040090Y767250D01*
X1040090D02*
X1038727Y767812D01*
X1038727D02*
X1037818D01*
X1048272D02*
X1046909Y767250D01*
X1046000Y765562*
X1046000D02*
X1045545Y762750D01*
Y761062*
X1045545D02*
X1046000Y758250D01*
X1046909Y756562*
X1046909D02*
X1048272Y756000D01*
X1048272D02*
X1049181D01*
X1049181D02*
X1050545Y756562D01*
X1050545D02*
X1051454Y758250D01*
X1051454D02*
X1051909Y761062D01*
X1051909D02*
Y762750D01*
X1051454Y765562*
X1051454D02*
X1050545Y767250D01*
X1049181Y767812*
X1049181D02*
X1048272D01*
X1058727D02*
X1057363Y767250D01*
X1057363D02*
X1056454Y765562D01*
X1056454D02*
X1056000Y762750D01*
Y761062*
X1056000D02*
X1056454Y758250D01*
X1056454D02*
X1057363Y756562D01*
X1057363D02*
X1058727Y756000D01*
X1059636*
X1061000Y756562*
X1061000D02*
X1061909Y758250D01*
X1062363Y761062*
X1062363D02*
Y762750D01*
X1062363D02*
X1061909Y765562D01*
X1061909D02*
X1061000Y767250D01*
X1059636Y767812*
X1059636D02*
X1058727D01*
X1071000D02*
X1066454Y759937D01*
X1066454D02*
X1073272D01*
X1071000Y767812D02*
Y756000D01*
X1087818Y767812D02*
Y756000D01*
Y767812D02*
X1091909D01*
X1091909D02*
X1093272Y767250D01*
X1093272D02*
X1093727Y766687D01*
X1093727D02*
X1094181Y765562D01*
X1094181D02*
Y764437D01*
X1094181D02*
X1093727Y763312D01*
X1093727D02*
X1093272Y762750D01*
X1093272D02*
X1091909Y762187D01*
X1091909D02*
X1087818D01*
X1091000D02*
X1094181Y756000D01*
X1098272Y767812D02*
Y756000D01*
Y767812D02*
X1104181D01*
X1098272Y762187D02*
X1101909D01*
X1098272Y756000D02*
X1104181D01*
X1108272Y767812D02*
X1111909Y756000D01*
X1115545Y767812D02*
X1111909Y756000D01*
X1130090Y765562D02*
X1131000Y766125D01*
X1132363Y767812*
X1132363D02*
Y756000D01*
X977363Y791125D02*
X976454Y792250D01*
X976454D02*
X975090Y792812D01*
X975090D02*
X973272D01*
X973272D02*
X971909Y792250D01*
X971000Y791125*
Y790000*
X971454Y788875*
X971454D02*
X971909Y788312D01*
X971909D02*
X972818Y787750D01*
X975545Y786625*
X976454Y786062*
X976454D02*
X976909Y785500D01*
X977363Y784375*
X977363D02*
Y782687D01*
X977363D02*
X976454Y781562D01*
X976454D02*
X975090Y781000D01*
X975090D02*
X973272D01*
X973272D02*
X971909Y781562D01*
X971909D02*
X971000Y782687D01*
X984181Y792812D02*
X983272Y792250D01*
X983272D02*
X982363Y791125D01*
X982363D02*
X981909Y790000D01*
X981454Y788312*
X981454D02*
Y785500D01*
X981454D02*
X981909Y783812D01*
X981909D02*
X982363Y782687D01*
X982363D02*
X983272Y781562D01*
X983272D02*
X984181Y781000D01*
X984181D02*
X986000D01*
X986909Y781562*
X986909D02*
X987818Y782687D01*
X987818D02*
X988272Y783812D01*
X988272D02*
X988727Y785500D01*
Y788312*
X988727D02*
X988272Y790000D01*
X988272D02*
X987818Y791125D01*
X986909Y792250*
X986000Y792812*
X986000D02*
X984181D01*
X992818D02*
Y781000D01*
X998272*
X1002363Y792812D02*
Y781000D01*
Y792812D02*
X1005545D01*
X1005545D02*
X1006909Y792250D01*
X1007818Y791125*
X1008272Y790000*
X1008272D02*
X1008727Y788312D01*
X1008727D02*
Y785500D01*
X1008272Y783812*
X1008272D02*
X1007818Y782687D01*
X1007818D02*
X1006909Y781562D01*
X1006909D02*
X1005545Y781000D01*
X1002363*
X1012818Y792812D02*
Y781000D01*
Y792812D02*
X1018727D01*
X1012818Y787187D02*
X1016454D01*
X1012818Y781000D02*
X1018727D01*
X1022818Y792812D02*
Y781000D01*
Y792812D02*
X1026909D01*
X1026909D02*
X1028272Y792250D01*
X1028272D02*
X1028727Y791687D01*
X1028727D02*
X1029181Y790562D01*
X1029181D02*
Y789437D01*
X1029181D02*
X1028727Y788312D01*
X1028727D02*
X1028272Y787750D01*
X1028272D02*
X1026909Y787187D01*
X1026909D02*
X1022818D01*
X1026000D02*
X1029181Y781000D01*
X1033272Y792812D02*
Y781000D01*
Y792812D02*
X1036909Y781000D01*
X1040545Y792812D02*
X1036909Y781000D01*
X1040545Y792812D02*
Y781000D01*
X1048272Y792812D02*
X1044636Y781000D01*
X1048272Y792812D02*
X1051909Y781000D01*
X1046000Y784937D02*
X1050545D01*
X1062363Y791125D02*
X1061454Y792250D01*
X1061454D02*
X1060090Y792812D01*
X1060090D02*
X1058272D01*
X1058272D02*
X1056909Y792250D01*
X1056000Y791125*
Y790000*
X1056454Y788875*
X1056454D02*
X1056909Y788312D01*
X1056909D02*
X1057818Y787750D01*
X1060545Y786625*
X1061454Y786062*
X1061454D02*
X1061909Y785500D01*
X1062363Y784375*
X1062363D02*
Y782687D01*
X1062363D02*
X1061454Y781562D01*
X1061454D02*
X1060090Y781000D01*
X1060090D02*
X1058272D01*
X1058272D02*
X1056909Y781562D01*
X1056909D02*
X1056000Y782687D01*
X1066454Y792812D02*
Y781000D01*
X1072818Y792812D02*
X1066454Y784937D01*
X1068727Y787750D02*
X1072818Y781000D01*
X1090545Y792812D02*
Y781000D01*
X1087363Y792812D02*
X1093727D01*
X1100545D02*
X1099636Y792250D01*
X1098727Y791125*
X1098272Y790000*
X1098272D02*
X1097818Y788312D01*
X1097818D02*
Y785500D01*
X1098272Y783812*
X1098272D02*
X1098727Y782687D01*
X1098727D02*
X1099636Y781562D01*
X1099636D02*
X1100545Y781000D01*
X1102363*
X1102363D02*
X1103272Y781562D01*
X1103272D02*
X1104181Y782687D01*
X1104181D02*
X1104636Y783812D01*
X1104636D02*
X1105090Y785500D01*
X1105090D02*
Y788312D01*
X1105090D02*
X1104636Y790000D01*
X1104181Y791125*
X1104181D02*
X1103272Y792250D01*
X1103272D02*
X1102363Y792812D01*
X1102363D02*
X1100545D01*
X1109181D02*
Y781000D01*
Y792812D02*
X1113272D01*
X1113272D02*
X1114636Y792250D01*
X1115090Y791687*
X1115090D02*
X1115545Y790562D01*
X1115545D02*
Y788875D01*
X1115090Y787750*
X1115090D02*
X1114636Y787187D01*
X1114636D02*
X1113272Y786625D01*
X1113272D02*
X1109181D01*
X1136454Y791125D02*
X1135545Y792250D01*
X1134181Y792812*
X1134181D02*
X1132363D01*
X1132363D02*
X1131000Y792250D01*
X1130090Y791125*
X1130090D02*
Y790000D01*
X1130090D02*
X1130545Y788875D01*
X1131000Y788312*
X1131000D02*
X1131909Y787750D01*
X1134636Y786625*
X1135545Y786062*
X1135545D02*
X1136000Y785500D01*
X1136454Y784375*
X1136454D02*
Y782687D01*
X1136454D02*
X1135545Y781562D01*
X1135545D02*
X1134181Y781000D01*
X1134181D02*
X1132363D01*
X1132363D02*
X1131000Y781562D01*
X1131000D02*
X1130090Y782687D01*
X1140545Y792812D02*
Y781000D01*
X1144636Y792812D02*
Y781000D01*
Y792812D02*
X1147818D01*
X1147818D02*
X1149181Y792250D01*
X1149181D02*
X1150090Y791125D01*
X1150090D02*
X1150545Y790000D01*
X1151000Y788312*
X1151000D02*
Y785500D01*
X1150545Y783812*
X1150545D02*
X1150090Y782687D01*
X1150090D02*
X1149181Y781562D01*
X1149181D02*
X1147818Y781000D01*
X1144636*
X1155090Y792812D02*
Y781000D01*
Y792812D02*
X1161000D01*
X1155090Y787187D02*
X1158727D01*
X1155090Y781000D02*
X1161000D01*
G54D154*
X907500Y1262401D03*
Y1287598D03*
X977500Y1262401D03*
Y1287598D03*
X1015000Y1219901D03*
Y1245098D03*
X1050000Y1262401D03*
Y1287598D03*
X942500Y1219901D03*
Y1245098D03*
G54D183*
X1308405Y917500D03*
X1296594D03*
G54D205*
X823600Y823600D03*
X1326400D03*
X1255500Y1178000D03*
X823600Y1276400D03*
X1196400Y850300D03*
X956200D03*
G54D206*
X1307598Y997500D03*
X1282401D03*
G54D207*
X1289500Y917500D03*
X1294000Y910000D03*
Y925000D03*
X1275000Y992500D03*
Y997500D03*
X1304000Y987500D03*
X1311000D03*
X1275000Y1002500D03*
X1311000Y1007500D03*
X1304000D03*
X1067500Y1040000D03*
X1072500Y1045000D03*
X1082500D03*
X1090000Y1040000D03*
X1095000Y1060000D03*
X1085000D03*
X937000Y1212000D03*
X942500D03*
X948000D03*
X1009500D03*
X1015000D03*
X1020500D03*
X902000Y1254500D03*
X907500D03*
X913000D03*
X937500Y1252500D03*
X942500D03*
X947500D03*
X977500Y1254500D03*
X972000D03*
X983000D03*
X1015000Y1252500D03*
X1010000D03*
X1020000D03*
X1055500Y1254500D03*
X1044500D03*
X1050000D03*
X1317500Y1267500D03*
X1327500Y1263500D03*
X1322500Y1274500D03*
X902500Y1295000D03*
X912500D03*
X907500D03*
X977500D03*
X972500D03*
X982500D03*
X1050000D03*
X1045000D03*
X1055000D03*
X0Y0D02*
M02*
