*
*
G04 PADS Layout (Build Number 2005.103.1) generated Gerber (RS-274-X) file*
G04 PC Version=2.1*
*
%IN "7754.pcb"*%
*
%MOIN*%
*
%FSLAX35Y35*%
*
*
*
*
G04 PC Standard Apertures*
*
*
G04 Thermal Relief Aperture macro.*
%AMTER*
1,1,$1,0,0*
1,0,$1-$2,0,0*
21,0,$3,$4,0,0,45*
21,0,$3,$4,0,0,135*
%
*
*
G04 Annular Aperture macro.*
%AMANN*
1,1,$1,0,0*
1,0,$2,0,0*
%
*
*
G04 Odd Aperture macro.*
%AMODD*
1,1,$1,0,0*
1,0,$1-0.005,0,0*
%
*
*
G04 PC Custom Aperture Macros*
*
*
*
*
*
*
G04 PC Aperture Table*
*
%ADD052C,0.01*%
%ADD053C,0.02*%
%ADD063C,0.008*%
*
*
*
*
G04 PC Custom Flashes*
G04 Layer Name 7754.pcb - flashes*
%LPD*%
*
*
G04 PC Circuitry*
G04 Layer Name 7754.pcb - circuitry*
%LPD*%
*
G54D52*
G01X838500Y1167900D02*
Y1217700D01*
X821300*
Y1167900*
X838500*
X843200Y1186900D02*
Y1198700D01*
X838500*
Y1186900*
X843200*
X1311000Y1217600D02*
Y1167800D01*
X1328200*
Y1217600*
X1311000*
X1306300Y1198600D02*
Y1186800D01*
X1311000*
Y1198600*
X1306300*
X813775Y1135401D02*
X842791D01*
X842791D02*
Y1097409D01*
X813775*
X813775D02*
Y1135401D01*
X842791Y1119161D02*
Y1113649D01*
X842791D02*
X848303D01*
X848303D02*
Y1119161D01*
X842791*
X1336224Y1097598D02*
X1307208D01*
X1307208D02*
Y1135590D01*
X1307208D02*
X1336224D01*
X1336224D02*
Y1097598D01*
X1307208Y1113838D02*
Y1119350D01*
X1307208D02*
X1301696D01*
X1301696D02*
Y1113838D01*
X1301696D02*
X1307208D01*
X1067500Y1284000D02*
Y1264000D01*
X1117500*
Y1284000*
X1107500*
Y1290000*
X1077500*
Y1284000*
X1067500*
X855000D02*
Y1264000D01*
X895000*
Y1284000*
X885000*
Y1290000*
X865000*
Y1284000*
X855000*
X1162000D02*
Y1264000D01*
X1212000*
Y1284000*
X1202000*
Y1290000*
X1172000*
Y1284000*
X1162000*
X925500D02*
Y1264000D01*
X965500*
Y1284000*
X955500*
Y1290000*
X935500*
Y1284000*
X925500*
X1209500Y1240500D02*
Y1220500D01*
X1259500*
Y1240500*
X1249500*
Y1246500*
X1219500*
Y1240500*
X1209500*
X961500D02*
Y1220500D01*
X1001500*
Y1240500*
X991500*
Y1246500*
X971500*
Y1240500*
X961500*
X1256500Y1284000D02*
Y1264000D01*
X1306500*
Y1284000*
X1296500*
Y1290000*
X1266500*
Y1284000*
X1256500*
X996500D02*
Y1264000D01*
X1036500*
Y1284000*
X1026500*
Y1290000*
X1006500*
Y1284000*
X996500*
X1115000Y1240500D02*
Y1220500D01*
X1165000*
Y1240500*
X1155000*
Y1246500*
X1125000*
Y1240500*
X1115000*
X890500D02*
Y1220500D01*
X930500*
Y1240500*
X920500*
Y1246500*
X900500*
Y1240500*
X890500*
X1344000Y893000D02*
X1318000D01*
Y863000*
X1344000*
Y893000*
X1338000Y972000D02*
X1318000D01*
Y912000*
X1338000*
Y927000*
X1344000*
Y957000*
X1338000*
Y972000*
Y1061000D02*
X1318000D01*
Y991000*
X1338000*
Y1011000*
X1344000*
Y1041000*
X1338000*
Y1061000*
X800000Y800000D02*
X1350000D01*
Y1300000*
X800000*
Y800000*
G54D53*
X1027363Y791125D02*
X1026454Y792250D01*
X1026454D02*
X1025090Y792812D01*
X1025090D02*
X1023272D01*
X1023272D02*
X1021909Y792250D01*
X1021000Y791125*
Y790000*
X1021454Y788875*
X1021454D02*
X1021909Y788312D01*
X1021909D02*
X1022818Y787750D01*
X1025545Y786625*
X1026454Y786062*
X1026454D02*
X1026909Y785500D01*
X1027363Y784375*
X1027363D02*
Y782687D01*
X1027363D02*
X1026454Y781562D01*
X1026454D02*
X1025090Y781000D01*
X1025090D02*
X1023272D01*
X1023272D02*
X1021909Y781562D01*
X1021909D02*
X1021000Y782687D01*
X1031454Y792812D02*
Y781000D01*
X1035545Y792812D02*
Y781000D01*
X1041000*
X1045090Y792812D02*
Y781000D01*
X1051454Y792812D02*
X1045090Y784937D01*
X1047363Y787750D02*
X1051454Y781000D01*
X1061909Y791125D02*
X1061000Y792250D01*
X1059636Y792812*
X1059636D02*
X1057818D01*
X1057818D02*
X1056454Y792250D01*
X1056454D02*
X1055545Y791125D01*
Y790000*
X1056000Y788875*
X1056454Y788312*
X1056454D02*
X1057363Y787750D01*
X1057363D02*
X1060090Y786625D01*
X1060090D02*
X1061000Y786062D01*
X1061000D02*
X1061454Y785500D01*
X1061454D02*
X1061909Y784375D01*
Y782687*
X1061909D02*
X1061000Y781562D01*
X1061000D02*
X1059636Y781000D01*
X1057818*
X1056454Y781562*
X1056454D02*
X1055545Y782687D01*
X1072818Y790000D02*
X1072363Y791125D01*
X1072363D02*
X1071454Y792250D01*
X1071454D02*
X1070545Y792812D01*
X1070545D02*
X1068727D01*
X1068727D02*
X1067818Y792250D01*
X1066909Y791125*
X1066454Y790000*
X1066454D02*
X1066000Y788312D01*
X1066000D02*
Y785500D01*
X1066454Y783812*
X1066454D02*
X1066909Y782687D01*
X1066909D02*
X1067818Y781562D01*
X1067818D02*
X1068727Y781000D01*
X1070545*
X1071454Y781562*
X1071454D02*
X1072363Y782687D01*
X1072363D02*
X1072818Y783812D01*
X1076909Y792812D02*
Y781000D01*
Y792812D02*
X1081000D01*
X1081000D02*
X1082363Y792250D01*
X1082363D02*
X1082818Y791687D01*
X1082818D02*
X1083272Y790562D01*
X1083272D02*
Y789437D01*
X1083272D02*
X1082818Y788312D01*
X1082818D02*
X1082363Y787750D01*
X1082363D02*
X1081000Y787187D01*
X1081000D02*
X1076909D01*
X1080090D02*
X1083272Y781000D01*
X1087363Y792812D02*
Y781000D01*
Y792812D02*
X1093272D01*
X1087363Y787187D02*
X1091000D01*
X1087363Y781000D02*
X1093272D01*
X1097363Y792812D02*
Y781000D01*
Y792812D02*
X1103272D01*
X1097363Y787187D02*
X1101000D01*
X1097363Y781000D02*
X1103272D01*
X1107363Y792812D02*
Y781000D01*
Y792812D02*
X1113727Y781000D01*
Y792812D02*
Y781000D01*
X1006909Y767812D02*
X1011909D01*
X1011909D02*
X1009181Y763312D01*
X1009181D02*
X1010545D01*
X1010545D02*
X1011454Y762750D01*
X1011454D02*
X1011909Y762187D01*
X1011909D02*
X1012363Y760500D01*
X1012363D02*
Y759375D01*
X1012363D02*
X1011909Y757687D01*
X1011909D02*
X1011000Y756562D01*
X1011000D02*
X1009636Y756000D01*
X1008272*
X1008272D02*
X1006909Y756562D01*
X1006909D02*
X1006454Y757125D01*
X1006454D02*
X1006000Y758250D01*
X1016454Y765562D02*
X1017363Y766125D01*
X1017363D02*
X1018727Y767812D01*
X1018727D02*
Y756000D01*
X1022818Y761062D02*
X1031000D01*
X1037818Y767812D02*
X1036454Y767250D01*
X1036454D02*
X1035545Y765562D01*
X1035545D02*
X1035090Y762750D01*
X1035090D02*
Y761062D01*
X1035090D02*
X1035545Y758250D01*
X1036454Y756562*
X1036454D02*
X1037818Y756000D01*
X1038727*
X1040090Y756562*
X1040090D02*
X1041000Y758250D01*
X1041454Y761062*
X1041454D02*
Y762750D01*
X1041454D02*
X1041000Y765562D01*
X1041000D02*
X1040090Y767250D01*
X1040090D02*
X1038727Y767812D01*
X1038727D02*
X1037818D01*
X1048272D02*
X1046909Y767250D01*
X1046000Y765562*
X1046000D02*
X1045545Y762750D01*
Y761062*
X1045545D02*
X1046000Y758250D01*
X1046909Y756562*
X1046909D02*
X1048272Y756000D01*
X1048272D02*
X1049181D01*
X1049181D02*
X1050545Y756562D01*
X1050545D02*
X1051454Y758250D01*
X1051454D02*
X1051909Y761062D01*
X1051909D02*
Y762750D01*
X1051454Y765562*
X1051454D02*
X1050545Y767250D01*
X1049181Y767812*
X1049181D02*
X1048272D01*
X1058727D02*
X1057363Y767250D01*
X1057363D02*
X1056454Y765562D01*
X1056454D02*
X1056000Y762750D01*
Y761062*
X1056000D02*
X1056454Y758250D01*
X1056454D02*
X1057363Y756562D01*
X1057363D02*
X1058727Y756000D01*
X1059636*
X1061000Y756562*
X1061000D02*
X1061909Y758250D01*
X1062363Y761062*
X1062363D02*
Y762750D01*
X1062363D02*
X1061909Y765562D01*
X1061909D02*
X1061000Y767250D01*
X1059636Y767812*
X1059636D02*
X1058727D01*
X1071000D02*
X1066454Y759937D01*
X1066454D02*
X1073272D01*
X1071000Y767812D02*
Y756000D01*
X1087818Y767812D02*
Y756000D01*
Y767812D02*
X1091909D01*
X1091909D02*
X1093272Y767250D01*
X1093272D02*
X1093727Y766687D01*
X1093727D02*
X1094181Y765562D01*
X1094181D02*
Y764437D01*
X1094181D02*
X1093727Y763312D01*
X1093727D02*
X1093272Y762750D01*
X1093272D02*
X1091909Y762187D01*
X1091909D02*
X1087818D01*
X1091000D02*
X1094181Y756000D01*
X1098272Y767812D02*
Y756000D01*
Y767812D02*
X1104181D01*
X1098272Y762187D02*
X1101909D01*
X1098272Y756000D02*
X1104181D01*
X1108272Y767812D02*
X1111909Y756000D01*
X1115545Y767812D02*
X1111909Y756000D01*
X1130090Y765562D02*
X1131000Y766125D01*
X1132363Y767812*
X1132363D02*
Y756000D01*
G54D63*
X1309783Y911594D02*
X1295216D01*
X1295216D02*
Y923405D01*
X1295216D02*
X1309783D01*
X1309783D02*
Y911594D01*
X833000Y1036000D02*
X808000D01*
Y1061000*
X833000*
Y1036000*
X808000Y1037500D02*
X777000D01*
Y1059500*
X808098*
X898444Y1260039D02*
Y1289960D01*
X898444D02*
X916555D01*
X916555D02*
Y1260039D01*
X898444*
X833000Y977000D02*
X808000D01*
Y1002000*
X833000*
Y977000*
X808000Y978500D02*
X777000D01*
Y1000500*
X808098*
X833000Y918000D02*
X808000D01*
Y943000*
X833000*
Y918000*
X808000Y919500D02*
X777000D01*
Y941500*
X808098*
X833000Y859000D02*
X808000D01*
Y884000*
X833000*
Y859000*
X808000Y860500D02*
X777000D01*
Y882500*
X808098*
X968444Y1260039D02*
Y1289960D01*
X968444D02*
X986555D01*
X986555D02*
Y1260039D01*
X968444*
X1005944Y1217539D02*
Y1247460D01*
X1005944D02*
X1024055D01*
X1024055D02*
Y1217539D01*
X1005944*
X1040944Y1260039D02*
Y1289960D01*
X1040944D02*
X1059055D01*
X1059055D02*
Y1260039D01*
X1040944*
X933444Y1217539D02*
Y1247460D01*
X933444D02*
X951555D01*
X951555D02*
Y1217539D01*
X933444*
X1309960Y988444D02*
X1280039D01*
X1280039D02*
Y1006555D01*
X1309960*
X1309960D02*
Y988444D01*
X1300786Y930500D02*
X1300627Y930887D01*
X1300627D02*
X1300309Y931275D01*
X1299990Y931468*
X1299990D02*
X1299354D01*
X1299354D02*
X1299036Y931275D01*
X1298718Y930887*
X1298718D02*
X1298559Y930500D01*
X1298400Y929918*
X1298400D02*
Y928950D01*
X1298559Y928368*
X1298559D02*
X1298718Y927981D01*
X1299036Y927593*
X1299036D02*
X1299354Y927400D01*
X1299354D02*
X1299990D01*
X1299990D02*
X1300309Y927593D01*
X1300309D02*
X1300627Y927981D01*
X1300786Y928368*
X1304127Y930887D02*
X1303968Y931275D01*
X1303490Y931468*
X1303490D02*
X1303172D01*
X1303172D02*
X1302695Y931275D01*
X1302377Y930693*
X1302377D02*
X1302218Y929725D01*
Y928756*
X1302377Y927981*
X1302695Y927593*
X1302695D02*
X1303172Y927400D01*
X1303172D02*
X1303331D01*
X1303331D02*
X1303809Y927593D01*
X1303809D02*
X1304127Y927981D01*
X1304286Y928562*
X1304286D02*
Y928756D01*
X1304127Y929337*
X1304127D02*
X1303809Y929725D01*
X1303331Y929918*
X1303331D02*
X1303172D01*
X1303172D02*
X1302695Y929725D01*
X1302377Y929337*
X1302377D02*
X1302218Y928756D01*
X816672Y1072937D02*
Y1068337D01*
X816672D02*
X816445Y1067475D01*
X816218Y1067187*
X816218D02*
X815763Y1066900D01*
X815763D02*
X815309D01*
X814854Y1067187*
X814854D02*
X814627Y1067475D01*
X814400Y1068337*
X814400D02*
Y1068912D01*
X818718Y1071787D02*
X819172Y1072075D01*
X819172D02*
X819854Y1072937D01*
X819854D02*
Y1066900D01*
X824854Y1070925D02*
X824627Y1070062D01*
X824627D02*
X824172Y1069487D01*
X824172D02*
X823490Y1069200D01*
X823490D02*
X823263D01*
X823263D02*
X822581Y1069487D01*
X822581D02*
X822127Y1070062D01*
X822127D02*
X821900Y1070925D01*
Y1071212*
X821900D02*
X822127Y1072075D01*
X822581Y1072650*
X822581D02*
X823263Y1072937D01*
X823263D02*
X823490D01*
X823490D02*
X824172Y1072650D01*
X824172D02*
X824627Y1072075D01*
X824854Y1070925*
X824854D02*
Y1069487D01*
X824854D02*
X824627Y1068050D01*
X824172Y1067187*
X824172D02*
X823490Y1066900D01*
X823490D02*
X823036D01*
X822354Y1067187*
X822354D02*
X822127Y1067762D01*
X919000Y1274786D02*
X918612Y1274627D01*
X918612D02*
X918225Y1274309D01*
X918031Y1273990*
X918031D02*
Y1273354D01*
X918031D02*
X918225Y1273036D01*
X918612Y1272718*
X918612D02*
X919000Y1272559D01*
X919581Y1272400*
X920550*
X921131Y1272559*
X921518Y1272718*
X921518D02*
X921906Y1273036D01*
X922100Y1273354*
X922100D02*
Y1273990D01*
X922100D02*
X921906Y1274309D01*
X921518Y1274627*
X921518D02*
X921131Y1274786D01*
X918806Y1276218D02*
X918612Y1276536D01*
X918612D02*
X918031Y1277013D01*
X918031D02*
X922100D01*
X816672Y1013937D02*
Y1009337D01*
X816672D02*
X816445Y1008475D01*
X816218Y1008187*
X816218D02*
X815763Y1007900D01*
X815763D02*
X815309D01*
X814854Y1008187*
X814854D02*
X814627Y1008475D01*
X814400Y1009337*
X814400D02*
Y1009912D01*
X818945Y1012500D02*
Y1012787D01*
X818945D02*
X819172Y1013362D01*
X819172D02*
X819400Y1013650D01*
X819854Y1013937*
X819854D02*
X820763D01*
X820763D02*
X821218Y1013650D01*
X821445Y1013362*
X821445D02*
X821672Y1012787D01*
X821672D02*
Y1012212D01*
X821672D02*
X821445Y1011637D01*
X821445D02*
X820990Y1010775D01*
X820990D02*
X818718Y1007900D01*
X821900*
X825309Y1013937D02*
X824627Y1013650D01*
X824172Y1012787*
X824172D02*
X823945Y1011350D01*
Y1010487*
X823945D02*
X824172Y1009050D01*
X824172D02*
X824627Y1008187D01*
X824627D02*
X825309Y1007900D01*
X825763*
X825763D02*
X826445Y1008187D01*
X826445D02*
X826900Y1009050D01*
X827127Y1010487*
X827127D02*
Y1011350D01*
X826900Y1012787*
X826900D02*
X826445Y1013650D01*
X825763Y1013937*
X825763D02*
X825309D01*
X816672Y954937D02*
Y950337D01*
X816672D02*
X816445Y949475D01*
X816218Y949187*
X816218D02*
X815763Y948900D01*
X815763D02*
X815309D01*
X814854Y949187*
X814854D02*
X814627Y949475D01*
X814400Y950337*
X814400D02*
Y950912D01*
X818945Y953500D02*
Y953787D01*
X818945D02*
X819172Y954362D01*
X819172D02*
X819400Y954650D01*
X819854Y954937*
X819854D02*
X820763D01*
X820763D02*
X821218Y954650D01*
X821445Y954362*
X821445D02*
X821672Y953787D01*
X821672D02*
Y953212D01*
X821672D02*
X821445Y952637D01*
X821445D02*
X820990Y951775D01*
X820990D02*
X818718Y948900D01*
X821900*
X823945Y953787D02*
X824400Y954075D01*
X825081Y954937*
X825081D02*
Y948900D01*
X816672Y895937D02*
Y891337D01*
X816672D02*
X816445Y890475D01*
X816218Y890187*
X816218D02*
X815763Y889900D01*
X815763D02*
X815309D01*
X814854Y890187*
X814854D02*
X814627Y890475D01*
X814400Y891337*
X814400D02*
Y891912D01*
X818945Y894500D02*
Y894787D01*
X818945D02*
X819172Y895362D01*
X819172D02*
X819400Y895650D01*
X819854Y895937*
X819854D02*
X820763D01*
X820763D02*
X821218Y895650D01*
X821445Y895362*
X821445D02*
X821672Y894787D01*
X821672D02*
Y894212D01*
X821672D02*
X821445Y893637D01*
X821445D02*
X820990Y892775D01*
X820990D02*
X818718Y889900D01*
X821900*
X824172Y894500D02*
Y894787D01*
X824172D02*
X824400Y895362D01*
X824400D02*
X824627Y895650D01*
X825081Y895937*
X825081D02*
X825990D01*
X825990D02*
X826445Y895650D01*
X826672Y895362*
X826672D02*
X826900Y894787D01*
X826900D02*
Y894212D01*
X826900D02*
X826672Y893637D01*
X826672D02*
X826218Y892775D01*
X823945Y889900*
X827127*
X989500Y1274286D02*
X989112Y1274127D01*
X989112D02*
X988725Y1273809D01*
X988531Y1273490*
X988531D02*
Y1272854D01*
X988531D02*
X988725Y1272536D01*
X989112Y1272218*
X989112D02*
X989500Y1272059D01*
X990081Y1271900*
X991050*
X991631Y1272059*
X992018Y1272218*
X992018D02*
X992406Y1272536D01*
X992600Y1272854*
X992600D02*
Y1273490D01*
X992600D02*
X992406Y1273809D01*
X992018Y1274127*
X992018D02*
X991631Y1274286D01*
X989500Y1275877D02*
X989306D01*
X988918Y1276036*
X988918D02*
X988725Y1276195D01*
X988531Y1276513*
X988531D02*
Y1277150D01*
X988725Y1277468*
X988918Y1277627*
X988918D02*
X989306Y1277786D01*
X989693*
X989693D02*
X990081Y1277627D01*
X990662Y1277309*
X990662D02*
X992600Y1275718D01*
Y1277945*
X1030000Y1238786D02*
X1029612Y1238627D01*
X1029612D02*
X1029225Y1238309D01*
X1029031Y1237990*
X1029031D02*
Y1237354D01*
X1029031D02*
X1029225Y1237036D01*
X1029612Y1236718*
X1029612D02*
X1030000Y1236559D01*
X1030581Y1236400*
X1031550*
X1032131Y1236559*
X1032518Y1236718*
X1032518D02*
X1032906Y1237036D01*
X1033100Y1237354*
X1033100D02*
Y1237990D01*
X1033100D02*
X1032906Y1238309D01*
X1032518Y1238627*
X1032518D02*
X1032131Y1238786D01*
X1029031Y1240536D02*
Y1242286D01*
X1030581Y1241331*
X1030581D02*
Y1241809D01*
X1030775Y1242127*
X1030968Y1242286*
X1030968D02*
X1031550Y1242445D01*
X1031937*
X1031937D02*
X1032518Y1242286D01*
X1032518D02*
X1032906Y1241968D01*
X1033100Y1241490*
X1033100D02*
Y1241013D01*
X1033100D02*
X1032906Y1240536D01*
X1032712Y1240377*
X1032712D02*
X1032325Y1240218D01*
X1062000Y1276786D02*
X1061612Y1276627D01*
X1061612D02*
X1061225Y1276309D01*
X1061031Y1275990*
X1061031D02*
Y1275354D01*
X1061031D02*
X1061225Y1275036D01*
X1061612Y1274718*
X1061612D02*
X1062000Y1274559D01*
X1062581Y1274400*
X1063550*
X1064131Y1274559*
X1064518Y1274718*
X1064518D02*
X1064906Y1275036D01*
X1065100Y1275354*
X1065100D02*
Y1275990D01*
X1065100D02*
X1064906Y1276309D01*
X1064518Y1276627*
X1064518D02*
X1064131Y1276786D01*
X1061031Y1279809D02*
X1063743Y1278218D01*
X1063743D02*
Y1280604D01*
X1061031Y1279809D02*
X1065100D01*
X954500Y1245286D02*
X954112Y1245127D01*
X954112D02*
X953725Y1244809D01*
X953531Y1244490*
X953531D02*
Y1243854D01*
X953531D02*
X953725Y1243536D01*
X954112Y1243218*
X954112D02*
X954500Y1243059D01*
X955081Y1242900*
X956050*
X956631Y1243059*
X957018Y1243218*
X957018D02*
X957406Y1243536D01*
X957600Y1243854*
X957600D02*
Y1244490D01*
X957600D02*
X957406Y1244809D01*
X957018Y1245127*
X957018D02*
X956631Y1245286D01*
X953531Y1248786D02*
Y1247195D01*
X955275Y1247036*
X955081Y1247195*
X954887Y1247672*
X954887D02*
Y1248150D01*
X954887D02*
X955081Y1248627D01*
X955468Y1248945*
X955468D02*
X956050Y1249104D01*
X956050D02*
X956437Y1248945D01*
X956437D02*
X957018Y1248786D01*
X957018D02*
X957406Y1248468D01*
X957600Y1247990*
X957600D02*
Y1247513D01*
X957600D02*
X957406Y1247036D01*
X957212Y1246877*
X957212D02*
X956825Y1246718D01*
X1294286Y1013000D02*
X1294127Y1013387D01*
X1294127D02*
X1293809Y1013775D01*
X1293490Y1013968*
X1293490D02*
X1292854D01*
X1292854D02*
X1292536Y1013775D01*
X1292218Y1013387*
X1292218D02*
X1292059Y1013000D01*
X1291900Y1012418*
X1291900D02*
Y1011450D01*
X1292059Y1010868*
X1292059D02*
X1292218Y1010481D01*
X1292536Y1010093*
X1292536D02*
X1292854Y1009900D01*
X1292854D02*
X1293490D01*
X1293490D02*
X1293809Y1010093D01*
X1293809D02*
X1294127Y1010481D01*
X1294286Y1010868*
X1297945Y1013968D02*
X1296354Y1009900D01*
X1295718Y1013968D02*
X1297945D01*
X1070172Y882437D02*
Y877837D01*
X1070172D02*
X1069945Y876975D01*
X1069718Y876687*
X1069718D02*
X1069263Y876400D01*
X1069263D02*
X1068809D01*
X1068354Y876687*
X1068354D02*
X1068127Y876975D01*
X1067900Y877837*
X1067900D02*
Y878412D01*
X1072218Y881287D02*
X1072672Y881575D01*
X1072672D02*
X1073354Y882437D01*
X1073354D02*
Y876400D01*
X829672Y1226437D02*
Y1221837D01*
X829672D02*
X829445Y1220975D01*
X829218Y1220687*
X829218D02*
X828763Y1220400D01*
X828763D02*
X828309D01*
X827854Y1220687*
X827854D02*
X827627Y1220975D01*
X827400Y1221837*
X827400D02*
Y1222412D01*
X831718Y1225287D02*
X832172Y1225575D01*
X832172D02*
X832854Y1226437D01*
X832854D02*
Y1220400D01*
X837854Y1226437D02*
X835581D01*
X835581D02*
X835354Y1223850D01*
X835354D02*
X835581Y1224137D01*
X835581D02*
X836263Y1224425D01*
X836263D02*
X836945D01*
X837627Y1224137*
X837627D02*
X838081Y1223562D01*
X838081D02*
X838309Y1222700D01*
X838081Y1222125*
X838081D02*
X837854Y1221262D01*
X837854D02*
X837400Y1220687D01*
X837400D02*
X836718Y1220400D01*
X836036*
X835354Y1220687*
X835354D02*
X835127Y1220975D01*
X834900Y1221550*
X1316172Y1226437D02*
Y1221837D01*
X1316172D02*
X1315945Y1220975D01*
X1315718Y1220687*
X1315718D02*
X1315263Y1220400D01*
X1315263D02*
X1314809D01*
X1314354Y1220687*
X1314354D02*
X1314127Y1220975D01*
X1313900Y1221837*
X1313900D02*
Y1222412D01*
X1318218Y1225287D02*
X1318672Y1225575D01*
X1318672D02*
X1319354Y1226437D01*
X1319354D02*
Y1220400D01*
X1324127Y1225575D02*
X1323900Y1226150D01*
X1323218Y1226437*
X1323218D02*
X1322763D01*
X1322763D02*
X1322081Y1226150D01*
X1322081D02*
X1321627Y1225287D01*
X1321627D02*
X1321400Y1223850D01*
Y1222412*
X1321400D02*
X1321627Y1221262D01*
X1321627D02*
X1322081Y1220687D01*
X1322081D02*
X1322763Y1220400D01*
X1322763D02*
X1322990D01*
X1322990D02*
X1323672Y1220687D01*
X1323672D02*
X1324127Y1221262D01*
X1324127D02*
X1324354Y1222125D01*
X1324354D02*
Y1222412D01*
X1324354D02*
X1324127Y1223275D01*
X1323672Y1223850*
X1323672D02*
X1322990Y1224137D01*
X1322990D02*
X1322763D01*
X1322763D02*
X1322081Y1223850D01*
X1322081D02*
X1321627Y1223275D01*
X1321400Y1222412*
X827672Y1144937D02*
Y1140337D01*
X827672D02*
X827445Y1139475D01*
X827218Y1139187*
X827218D02*
X826763Y1138900D01*
X826763D02*
X826309D01*
X825854Y1139187*
X825854D02*
X825627Y1139475D01*
X825399Y1140337*
X825399D02*
Y1140912D01*
X829718Y1143787D02*
X830172Y1144075D01*
X830172D02*
X830854Y1144937D01*
X830854D02*
Y1138900D01*
X836081Y1144937D02*
X833809Y1138900D01*
X832899Y1144937D02*
X836081D01*
X1317672D02*
Y1140337D01*
X1317672D02*
X1317445Y1139475D01*
X1317218Y1139187*
X1317218D02*
X1316763Y1138900D01*
X1316763D02*
X1316309D01*
X1315854Y1139187*
X1315854D02*
X1315627Y1139475D01*
X1315400Y1140337*
X1315400D02*
Y1140912D01*
X1319718Y1143787D02*
X1320172Y1144075D01*
X1320172D02*
X1320854Y1144937D01*
X1320854D02*
Y1138900D01*
X1324036Y1144937D02*
X1323354Y1144650D01*
X1323354D02*
X1323127Y1144075D01*
Y1143500*
X1323354Y1142925*
X1323354D02*
X1323809Y1142637D01*
X1323809D02*
X1324718Y1142350D01*
X1325400Y1142062*
X1325400D02*
X1325854Y1141487D01*
X1325854D02*
X1326081Y1140912D01*
X1326081D02*
Y1140050D01*
X1326081D02*
X1325854Y1139475D01*
X1325854D02*
X1325627Y1139187D01*
X1325627D02*
X1324945Y1138900D01*
X1324036*
X1323354Y1139187*
X1323354D02*
X1323127Y1139475D01*
X1322900Y1140050*
Y1140912*
X1322900D02*
X1323127Y1141487D01*
X1323127D02*
X1323581Y1142062D01*
X1323581D02*
X1324263Y1142350D01*
X1324263D02*
X1325172Y1142637D01*
X1325172D02*
X1325627Y1142925D01*
X1325854Y1143500*
X1325854D02*
Y1144075D01*
X1325854D02*
X1325627Y1144650D01*
X1324945Y1144937*
X1324945D02*
X1324036D01*
X1111672Y1293937D02*
Y1289337D01*
X1111672D02*
X1111445Y1288475D01*
X1111218Y1288187*
X1111218D02*
X1110763Y1287900D01*
X1110763D02*
X1110309D01*
X1109854Y1288187*
X1109854D02*
X1109627Y1288475D01*
X1109400Y1289337*
X1109400D02*
Y1289912D01*
X1113945Y1292500D02*
Y1292787D01*
X1113945D02*
X1114172Y1293362D01*
X1114172D02*
X1114400Y1293650D01*
X1114854Y1293937*
X1114854D02*
X1115763D01*
X1115763D02*
X1116218Y1293650D01*
X1116445Y1293362*
X1116445D02*
X1116672Y1292787D01*
X1116672D02*
Y1292212D01*
X1116672D02*
X1116445Y1291637D01*
X1116445D02*
X1115990Y1290775D01*
X1115990D02*
X1113718Y1287900D01*
X1116900*
X889672Y1293943D02*
Y1289343D01*
X889672D02*
X889445Y1288481D01*
X889218Y1288193*
X889218D02*
X888763Y1287906D01*
X888763D02*
X888309D01*
X887854Y1288193*
X887854D02*
X887627Y1288481D01*
X887400Y1289343*
X887400D02*
Y1289918D01*
X892172Y1293943D02*
X894672D01*
X894672D02*
X893309Y1291643D01*
X893309D02*
X893990D01*
X893990D02*
X894445Y1291356D01*
X894672Y1291068*
X894672D02*
X894900Y1290206D01*
Y1289631*
X894672Y1288768*
X894672D02*
X894218Y1288193D01*
X894218D02*
X893536Y1287906D01*
X892854*
X892854D02*
X892172Y1288193D01*
X892172D02*
X891945Y1288481D01*
X891718Y1289056*
X1206672Y1292937D02*
Y1288337D01*
X1206672D02*
X1206445Y1287475D01*
X1206218Y1287187*
X1206218D02*
X1205763Y1286900D01*
X1205763D02*
X1205309D01*
X1204854Y1287187*
X1204854D02*
X1204627Y1287475D01*
X1204400Y1288337*
X1204400D02*
Y1288912D01*
X1210990Y1292937D02*
X1208718Y1288912D01*
X1208718D02*
X1212127D01*
X1210990Y1292937D02*
Y1286900D01*
X960172Y1292943D02*
Y1288343D01*
X960172D02*
X959945Y1287481D01*
X959718Y1287193*
X959718D02*
X959263Y1286906D01*
X959263D02*
X958809D01*
X958354Y1287193*
X958354D02*
X958127Y1287481D01*
X957900Y1288343*
X957900D02*
Y1288918D01*
X965172Y1292943D02*
X962900D01*
X962900D02*
X962672Y1290356D01*
X962672D02*
X962900Y1290643D01*
X962900D02*
X963581Y1290931D01*
X963581D02*
X964263D01*
X964263D02*
X964945Y1290643D01*
X964945D02*
X965400Y1290068D01*
X965400D02*
X965627Y1289206D01*
X965400Y1288631*
X965172Y1287768*
X965172D02*
X964718Y1287193D01*
X964718D02*
X964036Y1286906D01*
X963354*
X963354D02*
X962672Y1287193D01*
X962672D02*
X962445Y1287481D01*
X962218Y1288056*
X1232172Y1255437D02*
Y1250837D01*
X1232172D02*
X1231945Y1249975D01*
X1231718Y1249687*
X1231718D02*
X1231263Y1249400D01*
X1231263D02*
X1230809D01*
X1230354Y1249687*
X1230354D02*
X1230127Y1249975D01*
X1229900Y1250837*
X1229900D02*
Y1251412D01*
X1236945Y1254575D02*
X1236718Y1255150D01*
X1236036Y1255437*
X1236036D02*
X1235581D01*
X1235581D02*
X1234900Y1255150D01*
X1234445Y1254287*
X1234445D02*
X1234218Y1252850D01*
Y1251412*
X1234218D02*
X1234445Y1250262D01*
X1234445D02*
X1234900Y1249687D01*
X1234900D02*
X1235581Y1249400D01*
X1235581D02*
X1235809D01*
X1236490Y1249687*
X1236490D02*
X1236945Y1250262D01*
X1236945D02*
X1237172Y1251125D01*
X1237172D02*
Y1251412D01*
X1237172D02*
X1236945Y1252275D01*
X1236490Y1252850*
X1236490D02*
X1235809Y1253137D01*
X1235809D02*
X1235581D01*
X1235581D02*
X1234900Y1252850D01*
X1234445Y1252275*
X1234218Y1251412*
X954056Y1227172D02*
X958656D01*
X958656D02*
X959518Y1226945D01*
X959518D02*
X959806Y1226718D01*
X960093Y1226263*
X960093D02*
Y1225809D01*
X960093D02*
X959806Y1225354D01*
X959806D02*
X959518Y1225127D01*
X959518D02*
X958656Y1224900D01*
X958081*
X954056Y1232400D02*
X960093Y1230127D01*
X954056Y1229218D02*
Y1232400D01*
X1301172Y1292437D02*
Y1287837D01*
X1301172D02*
X1300945Y1286975D01*
X1300718Y1286687*
X1300718D02*
X1300263Y1286400D01*
X1300263D02*
X1299809D01*
X1299354Y1286687*
X1299354D02*
X1299127Y1286975D01*
X1298900Y1287837*
X1298900D02*
Y1288412D01*
X1304354Y1292437D02*
X1303672Y1292150D01*
X1303672D02*
X1303445Y1291575D01*
Y1291000*
X1303672Y1290425*
X1303672D02*
X1304127Y1290137D01*
X1304127D02*
X1305036Y1289850D01*
X1305718Y1289562*
X1305718D02*
X1306172Y1288987D01*
X1306172D02*
X1306400Y1288412D01*
X1306400D02*
Y1287550D01*
X1306172Y1286975*
X1306172D02*
X1305945Y1286687D01*
X1305945D02*
X1305263Y1286400D01*
X1305263D02*
X1304354D01*
X1304354D02*
X1303672Y1286687D01*
X1303672D02*
X1303445Y1286975D01*
X1303218Y1287550*
Y1288412*
X1303218D02*
X1303445Y1288987D01*
X1303445D02*
X1303900Y1289562D01*
X1303900D02*
X1304581Y1289850D01*
X1304581D02*
X1305490Y1290137D01*
X1305490D02*
X1305945Y1290425D01*
X1306172Y1291000*
X1306172D02*
Y1291575D01*
X1306172D02*
X1305945Y1292150D01*
X1305263Y1292437*
X1305263D02*
X1304354D01*
X1030672Y1293443D02*
Y1288843D01*
X1030672D02*
X1030445Y1287981D01*
X1030218Y1287693*
X1030218D02*
X1029763Y1287406D01*
X1029763D02*
X1029309D01*
X1028854Y1287693*
X1028854D02*
X1028627Y1287981D01*
X1028400Y1288843*
X1028400D02*
Y1289418D01*
X1035672Y1291431D02*
X1035445Y1290568D01*
X1035445D02*
X1034990Y1289993D01*
X1034990D02*
X1034309Y1289706D01*
X1034081*
X1034081D02*
X1033400Y1289993D01*
X1033400D02*
X1032945Y1290568D01*
X1032945D02*
X1032718Y1291431D01*
Y1291718*
X1032718D02*
X1032945Y1292581D01*
X1033400Y1293156*
X1034081Y1293443*
X1034081D02*
X1034309D01*
X1034309D02*
X1034990Y1293156D01*
X1034990D02*
X1035445Y1292581D01*
X1035672Y1291431*
X1035672D02*
Y1289993D01*
X1035672D02*
X1035445Y1288556D01*
X1034990Y1287693*
X1034990D02*
X1034309Y1287406D01*
X1033854*
X1033854D02*
X1033172Y1287693D01*
X1033172D02*
X1032945Y1288268D01*
X1136172Y1255437D02*
Y1250837D01*
X1136172D02*
X1135945Y1249975D01*
X1135718Y1249687*
X1135718D02*
X1135263Y1249400D01*
X1135263D02*
X1134809D01*
X1134354Y1249687*
X1134354D02*
X1134127Y1249975D01*
X1133900Y1250837*
X1133900D02*
Y1251412D01*
X1138218Y1254287D02*
X1138672Y1254575D01*
X1138672D02*
X1139354Y1255437D01*
X1139354D02*
Y1249400D01*
X1142763Y1255437D02*
X1142081Y1255150D01*
X1142081D02*
X1141627Y1254287D01*
X1141627D02*
X1141400Y1252850D01*
Y1251987*
X1141400D02*
X1141627Y1250550D01*
X1142081Y1249687*
X1142081D02*
X1142763Y1249400D01*
X1142763D02*
X1143218D01*
X1143900Y1249687*
X1143900D02*
X1144354Y1250550D01*
X1144354D02*
X1144581Y1251987D01*
X1144581D02*
Y1252850D01*
X1144581D02*
X1144354Y1254287D01*
X1144354D02*
X1143900Y1255150D01*
X1143218Y1255437*
X1143218D02*
X1142763D01*
X882056Y1227172D02*
X886656D01*
X886656D02*
X887518Y1226945D01*
X887518D02*
X887806Y1226718D01*
X888093Y1226263*
X888093D02*
Y1225809D01*
X888093D02*
X887806Y1225354D01*
X887806D02*
X887518Y1225127D01*
X887518D02*
X886656Y1224900D01*
X886081*
X883206Y1229218D02*
X882918Y1229672D01*
X882918D02*
X882056Y1230354D01*
X882056D02*
X888093D01*
X883206Y1232400D02*
X882918Y1232854D01*
X882918D02*
X882056Y1233536D01*
X888093*
X1325281Y901443D02*
Y896843D01*
X1325281D02*
X1325054Y895981D01*
X1325054D02*
X1324827Y895693D01*
X1324827D02*
X1324372Y895406D01*
X1324372D02*
X1323918D01*
X1323463Y895693*
X1323463D02*
X1323236Y895981D01*
X1323009Y896843*
X1323009D02*
Y897418D01*
X1327327Y900293D02*
X1327781Y900581D01*
X1327781D02*
X1328463Y901443D01*
X1328463D02*
Y895406D01*
X1330736Y900006D02*
Y900293D01*
X1330736D02*
X1330963Y900868D01*
X1330963D02*
X1331190Y901156D01*
X1331190D02*
X1331645Y901443D01*
X1331645D02*
X1332554D01*
X1332554D02*
X1333009Y901156D01*
X1333236Y900868*
X1333236D02*
X1333463Y900293D01*
X1333463D02*
Y899718D01*
X1333463D02*
X1333236Y899143D01*
X1333236D02*
X1332781Y898281D01*
X1332781D02*
X1330509Y895406D01*
X1333690*
X1322172Y981437D02*
Y976837D01*
X1322172D02*
X1321945Y975975D01*
X1321718Y975687*
X1321718D02*
X1321263Y975400D01*
X1321263D02*
X1320809D01*
X1320354Y975687*
X1320354D02*
X1320127Y975975D01*
X1319900Y976837*
X1319900D02*
Y977412D01*
X1324218Y980287D02*
X1324672Y980575D01*
X1324672D02*
X1325354Y981437D01*
X1325354D02*
Y975400D01*
X1327854Y981437D02*
X1330354D01*
X1330354D02*
X1328990Y979137D01*
X1328990D02*
X1329672D01*
X1329672D02*
X1330127Y978850D01*
X1330354Y978562*
X1330354D02*
X1330581Y977700D01*
X1330581D02*
Y977125D01*
X1330581D02*
X1330354Y976262D01*
X1330354D02*
X1329900Y975687D01*
X1329900D02*
X1329218Y975400D01*
X1328536*
X1327854Y975687*
X1327854D02*
X1327627Y975975D01*
X1327400Y976550*
X1323172Y1070437D02*
Y1065837D01*
X1323172D02*
X1322945Y1064975D01*
X1322718Y1064687*
X1322718D02*
X1322263Y1064400D01*
X1322263D02*
X1321809D01*
X1321354Y1064687*
X1321354D02*
X1321127Y1064975D01*
X1320900Y1065837*
X1320900D02*
Y1066412D01*
X1325218Y1069287D02*
X1325672Y1069575D01*
X1325672D02*
X1326354Y1070437D01*
X1326354D02*
Y1064400D01*
X1330672Y1070437D02*
X1328400Y1066412D01*
X1328400D02*
X1331809D01*
X1330672Y1070437D02*
Y1064400D01*
X1017900Y973937D02*
Y967900D01*
Y973937D02*
X1019945D01*
X1019945D02*
X1020627Y973650D01*
X1020854Y973362*
X1020854D02*
X1021081Y972787D01*
X1021081D02*
Y971925D01*
X1021081D02*
X1020854Y971350D01*
X1020854D02*
X1020627Y971062D01*
X1020627D02*
X1019945Y970775D01*
X1017900*
X1026536Y972500D02*
X1026309Y973075D01*
X1025854Y973650*
X1025854D02*
X1025400Y973937D01*
X1025400D02*
X1024490D01*
X1024490D02*
X1024036Y973650D01*
X1023581Y973075*
X1023581D02*
X1023354Y972500D01*
X1023354D02*
X1023127Y971637D01*
X1023127D02*
Y970200D01*
X1023354Y969337*
X1023354D02*
X1023581Y968762D01*
X1023581D02*
X1024036Y968187D01*
X1024036D02*
X1024490Y967900D01*
X1024490D02*
X1025400D01*
X1025854Y968187*
X1025854D02*
X1026309Y968762D01*
X1026309D02*
X1026536Y969337D01*
X1028581Y973937D02*
Y967900D01*
Y973937D02*
X1030627D01*
X1030627D02*
X1031309Y973650D01*
X1031536Y973362*
X1031536D02*
X1031763Y972787D01*
X1031763D02*
Y972212D01*
X1031763D02*
X1031536Y971637D01*
X1031536D02*
X1031309Y971350D01*
X1030627Y971062*
X1028581D02*
X1030627D01*
X1030627D02*
X1031309Y970775D01*
X1031536Y970487*
X1031536D02*
X1031763Y969912D01*
X1031763D02*
Y969050D01*
X1031763D02*
X1031536Y968475D01*
X1031309Y968187*
X1031309D02*
X1030627Y967900D01*
X1028581*
X1034036Y971925D02*
X1033809Y971637D01*
X1033809D02*
X1034036Y971350D01*
X1034263Y971637*
X1034263D02*
X1034036Y971925D01*
Y968475D02*
X1033809Y968187D01*
X1033809D02*
X1034036Y967900D01*
X1034263Y968187*
X1034263D02*
X1034036Y968475D01*
X1041990Y973937D02*
X1044490D01*
X1044490D02*
X1043127Y971637D01*
X1043127D02*
X1043809D01*
X1043809D02*
X1044263Y971350D01*
X1044263D02*
X1044490Y971062D01*
X1044490D02*
X1044718Y970200D01*
Y969625*
X1044490Y968762*
X1044490D02*
X1044036Y968187D01*
X1044036D02*
X1043354Y967900D01*
X1043354D02*
X1042672D01*
X1042672D02*
X1041990Y968187D01*
X1041990D02*
X1041763Y968475D01*
X1041763D02*
X1041536Y969050D01*
X1046763Y972787D02*
X1047218Y973075D01*
X1047900Y973937*
X1047900D02*
Y967900D01*
X1049945Y970487D02*
X1054036D01*
X1057445Y973937D02*
X1056763Y973650D01*
X1056763D02*
X1056309Y972787D01*
X1056309D02*
X1056081Y971350D01*
X1056081D02*
Y970487D01*
X1056081D02*
X1056309Y969050D01*
X1056763Y968187*
X1056763D02*
X1057445Y967900D01*
X1057900*
X1058581Y968187*
X1058581D02*
X1059036Y969050D01*
X1059263Y970487*
X1059263D02*
Y971350D01*
X1059263D02*
X1059036Y972787D01*
X1059036D02*
X1058581Y973650D01*
X1058581D02*
X1057900Y973937D01*
X1057900D02*
X1057445D01*
X1062672D02*
X1061990Y973650D01*
X1061990D02*
X1061536Y972787D01*
X1061536D02*
X1061309Y971350D01*
Y970487*
X1061309D02*
X1061536Y969050D01*
X1061990Y968187*
X1061990D02*
X1062672Y967900D01*
X1062672D02*
X1063127D01*
X1063809Y968187*
X1063809D02*
X1064263Y969050D01*
X1064263D02*
X1064490Y970487D01*
X1064490D02*
Y971350D01*
X1064490D02*
X1064263Y972787D01*
X1064263D02*
X1063809Y973650D01*
X1063127Y973937*
X1063127D02*
X1062672D01*
X1067900D02*
X1067218Y973650D01*
X1066763Y972787*
X1066763D02*
X1066536Y971350D01*
Y970487*
X1066536D02*
X1066763Y969050D01*
X1066763D02*
X1067218Y968187D01*
X1067218D02*
X1067900Y967900D01*
X1068354*
X1068354D02*
X1069036Y968187D01*
X1069036D02*
X1069490Y969050D01*
X1069490D02*
X1069718Y970487D01*
X1069718D02*
Y971350D01*
X1069490Y972787*
X1069490D02*
X1069036Y973650D01*
X1068354Y973937*
X1068354D02*
X1067900D01*
X1074036D02*
X1071763Y969912D01*
X1071763D02*
X1075172D01*
X1074036Y973937D02*
Y967900D01*
X1082445Y973937D02*
Y967900D01*
Y973937D02*
X1084490D01*
X1084490D02*
X1085172Y973650D01*
X1085172D02*
X1085400Y973362D01*
X1085400D02*
X1085627Y972787D01*
X1085627D02*
Y972212D01*
X1085627D02*
X1085400Y971637D01*
X1085400D02*
X1085172Y971350D01*
X1085172D02*
X1084490Y971062D01*
X1084490D02*
X1082445D01*
X1084036D02*
X1085627Y967900D01*
X1087672Y973937D02*
Y967900D01*
Y973937D02*
X1090627D01*
X1087672Y971062D02*
X1089490D01*
X1087672Y967900D02*
X1090627D01*
X1092672Y973937D02*
X1094490Y967900D01*
X1096309Y973937D02*
X1094490Y967900D01*
X1103581Y972787D02*
X1104036Y973075D01*
X1104718Y973937*
X1104718D02*
Y967900D01*
X1021309Y1002500D02*
X1021081Y1003075D01*
X1021081D02*
X1020627Y1003650D01*
X1020172Y1003937*
X1020172D02*
X1019263D01*
X1019263D02*
X1018809Y1003650D01*
X1018354Y1003075*
X1018354D02*
X1018127Y1002500D01*
X1017900Y1001637*
X1017900D02*
Y1000200D01*
X1018127Y999337*
X1018127D02*
X1018354Y998762D01*
X1018354D02*
X1018809Y998187D01*
X1018809D02*
X1019263Y997900D01*
X1019263D02*
X1020172D01*
X1020172D02*
X1020627Y998187D01*
X1020627D02*
X1021081Y998762D01*
X1021081D02*
X1021309Y999337D01*
X1021309D02*
Y1000200D01*
X1020172D02*
X1021309D01*
X1023354Y1003937D02*
Y997900D01*
Y1003937D02*
X1026309D01*
X1023354Y1001062D02*
X1025172D01*
X1023354Y997900D02*
X1026309D01*
X1028354Y1003937D02*
Y997900D01*
Y1003937D02*
X1031536Y997900D01*
Y1003937D02*
Y997900D01*
X1035172Y1003937D02*
Y997900D01*
X1033581Y1003937D02*
X1036763D01*
X1038809D02*
Y999625D01*
X1039036Y998762*
X1039036D02*
X1039490Y998187D01*
X1039490D02*
X1040172Y997900D01*
X1040172D02*
X1040627D01*
X1041309Y998187*
X1041309D02*
X1041763Y998762D01*
X1041763D02*
X1041990Y999625D01*
X1041990D02*
Y1003937D01*
X1044036D02*
Y997900D01*
Y1003937D02*
X1046081D01*
X1046081D02*
X1046763Y1003650D01*
X1046763D02*
X1046990Y1003362D01*
X1046990D02*
X1047218Y1002787D01*
X1047218D02*
Y1002212D01*
X1047218D02*
X1046990Y1001637D01*
X1046990D02*
X1046763Y1001350D01*
X1046763D02*
X1046081Y1001062D01*
X1046081D02*
X1044036D01*
X1045627D02*
X1047218Y997900D01*
X1049263Y1003937D02*
Y997900D01*
X1056536Y1003937D02*
Y997900D01*
X1058581Y1003937D02*
Y997900D01*
Y1003937D02*
X1061763Y997900D01*
Y1003937D02*
Y997900D01*
X1067218Y1002500D02*
X1066990Y1003075D01*
X1066990D02*
X1066536Y1003650D01*
X1066081Y1003937*
X1066081D02*
X1065172D01*
X1065172D02*
X1064718Y1003650D01*
X1064263Y1003075*
X1064263D02*
X1064036Y1002500D01*
X1063809Y1001637*
X1063809D02*
Y1000200D01*
X1064036Y999337*
X1064036D02*
X1064263Y998762D01*
X1064263D02*
X1064718Y998187D01*
X1064718D02*
X1065172Y997900D01*
X1065172D02*
X1066081D01*
X1066081D02*
X1066536Y998187D01*
X1066536D02*
X1066990Y998762D01*
X1066990D02*
X1067218Y999337D01*
X1019718Y988937D02*
X1017900Y982900D01*
X1019718Y988937D02*
X1021536Y982900D01*
X1018581Y984912D02*
X1020854D01*
X1026763Y988075D02*
X1026309Y988650D01*
X1025627Y988937*
X1025627D02*
X1024718D01*
X1024718D02*
X1024036Y988650D01*
X1023581Y988075*
X1023581D02*
Y987500D01*
X1023581D02*
X1023809Y986925D01*
X1024036Y986637*
X1024036D02*
X1024490Y986350D01*
X1024490D02*
X1025854Y985775D01*
X1025854D02*
X1026309Y985487D01*
X1026309D02*
X1026536Y985200D01*
X1026763Y984625*
X1026763D02*
Y983762D01*
X1026763D02*
X1026309Y983187D01*
X1026309D02*
X1025627Y982900D01*
X1024718*
X1024036Y983187*
X1024036D02*
X1023581Y983762D01*
X1031990Y988075D02*
X1031536Y988650D01*
X1030854Y988937*
X1030854D02*
X1029945D01*
X1029945D02*
X1029263Y988650D01*
X1029263D02*
X1028809Y988075D01*
Y987500*
X1029036Y986925*
X1029263Y986637*
X1029263D02*
X1029718Y986350D01*
X1031081Y985775*
X1031081D02*
X1031536Y985487D01*
X1031536D02*
X1031763Y985200D01*
X1031763D02*
X1031990Y984625D01*
X1031990D02*
Y983762D01*
X1031990D02*
X1031536Y983187D01*
X1031536D02*
X1030854Y982900D01*
X1030854D02*
X1029945D01*
X1029263Y983187*
X1029263D02*
X1028809Y983762D01*
X1034036Y988937D02*
X1035854Y986062D01*
X1035854D02*
Y982900D01*
X1037672Y988937D02*
X1035854Y986062D01*
X1039945Y986925D02*
X1039718Y986637D01*
X1039718D02*
X1039945Y986350D01*
X1040172Y986637*
X1040172D02*
X1039945Y986925D01*
Y983475D02*
X1039718Y983187D01*
X1039718D02*
X1039945Y982900D01*
X1040172Y983187*
X1040172D02*
X1039945Y983475D01*
X1047900Y988937D02*
X1050400D01*
X1050400D02*
X1049036Y986637D01*
X1049036D02*
X1049718D01*
X1049718D02*
X1050172Y986350D01*
X1050172D02*
X1050400Y986062D01*
X1050400D02*
X1050627Y985200D01*
Y984625*
X1050400Y983762*
X1050400D02*
X1049945Y983187D01*
X1049945D02*
X1049263Y982900D01*
X1049263D02*
X1048581D01*
X1048581D02*
X1047900Y983187D01*
X1047900D02*
X1047672Y983475D01*
X1047672D02*
X1047445Y984050D01*
X1054036Y988937D02*
X1053354Y988650D01*
X1053354D02*
X1052900Y987787D01*
X1052900D02*
X1052672Y986350D01*
X1052672D02*
Y985487D01*
X1052672D02*
X1052900Y984050D01*
X1053354Y983187*
X1053354D02*
X1054036Y982900D01*
X1054490*
X1054490D02*
X1055172Y983187D01*
X1055172D02*
X1055627Y984050D01*
X1055854Y985487*
X1055854D02*
Y986350D01*
X1055854D02*
X1055627Y987787D01*
X1055627D02*
X1055172Y988650D01*
X1055172D02*
X1054490Y988937D01*
X1054490D02*
X1054036D01*
X1057900Y985487D02*
X1061990D01*
X1065400Y988937D02*
X1064718Y988650D01*
X1064263Y987787*
X1064263D02*
X1064036Y986350D01*
Y985487*
X1064036D02*
X1064263Y984050D01*
X1064263D02*
X1064718Y983187D01*
X1064718D02*
X1065400Y982900D01*
X1065854*
X1065854D02*
X1066536Y983187D01*
X1066536D02*
X1066990Y984050D01*
X1066990D02*
X1067218Y985487D01*
X1067218D02*
Y986350D01*
X1066990Y987787*
X1066990D02*
X1066536Y988650D01*
X1065854Y988937*
X1065854D02*
X1065400D01*
X1070627D02*
X1069945Y988650D01*
X1069490Y987787*
X1069490D02*
X1069263Y986350D01*
X1069263D02*
Y985487D01*
X1069263D02*
X1069490Y984050D01*
X1069490D02*
X1069945Y983187D01*
X1069945D02*
X1070627Y982900D01*
X1071081*
X1071081D02*
X1071763Y983187D01*
X1071763D02*
X1072218Y984050D01*
X1072445Y985487*
X1072445D02*
Y986350D01*
X1072218Y987787*
X1072218D02*
X1071763Y988650D01*
X1071763D02*
X1071081Y988937D01*
X1071081D02*
X1070627D01*
X1075854D02*
X1075172Y988650D01*
X1075172D02*
X1074718Y987787D01*
X1074718D02*
X1074490Y986350D01*
X1074490D02*
Y985487D01*
X1074490D02*
X1074718Y984050D01*
X1075172Y983187*
X1075172D02*
X1075854Y982900D01*
X1075854D02*
X1076309D01*
X1076990Y983187*
X1076990D02*
X1077445Y984050D01*
X1077672Y985487*
X1077672D02*
Y986350D01*
X1077672D02*
X1077445Y987787D01*
X1077445D02*
X1076990Y988650D01*
X1076990D02*
X1076309Y988937D01*
X1076309D02*
X1075854D01*
X1081990D02*
X1079718Y984912D01*
X1079718D02*
X1083127D01*
X1081990Y988937D02*
Y982900D01*
X1092900Y988937D02*
Y982900D01*
Y988937D02*
X1094945D01*
X1094945D02*
X1095627Y988650D01*
X1095854Y988362*
X1095854D02*
X1096081Y987787D01*
X1096081D02*
Y987212D01*
X1096081D02*
X1095854Y986637D01*
X1095854D02*
X1095627Y986350D01*
X1094945Y986062*
X1094945D02*
X1092900D01*
X1094490D02*
X1096081Y982900D01*
X1098127Y988937D02*
Y982900D01*
Y988937D02*
X1101081D01*
X1098127Y986062D02*
X1099945D01*
X1098127Y982900D02*
X1101081D01*
X1103127Y988937D02*
X1104945Y982900D01*
X1106763Y988937D02*
X1104945Y982900D01*
X1108809Y981750D02*
X1113581D01*
X1114945D02*
X1119718D01*
X1121081D02*
X1125854D01*
X1127218D02*
X1131990D01*
X1307445Y908075D02*
Y902900D01*
X1305400Y905487D02*
X1309490D01*
X842900Y1058937D02*
Y1052900D01*
Y1058937D02*
X844945D01*
X844945D02*
X845627Y1058650D01*
X845854Y1058362*
X845854D02*
X846081Y1057787D01*
X846081D02*
Y1057212D01*
X846081D02*
X845854Y1056637D01*
X845854D02*
X845627Y1056350D01*
X844945Y1056062*
X842900D02*
X844945D01*
X844945D02*
X845627Y1055775D01*
X845854Y1055487*
X845854D02*
X846081Y1054912D01*
X846081D02*
Y1054050D01*
X846081D02*
X845854Y1053475D01*
X845854D02*
X845627Y1053187D01*
X845627D02*
X844945Y1052900D01*
X842900*
X848127Y1058937D02*
Y1052900D01*
X851990Y1058937D02*
X850172Y1052900D01*
X851990Y1058937D02*
X853809Y1052900D01*
X850854Y1054912D02*
X853127D01*
X859036Y1058075D02*
X858581Y1058650D01*
X858581D02*
X857900Y1058937D01*
X857900D02*
X856990D01*
X856990D02*
X856309Y1058650D01*
X855854Y1058075*
X855854D02*
Y1057500D01*
X855854D02*
X856081Y1056925D01*
X856081D02*
X856309Y1056637D01*
X856309D02*
X856763Y1056350D01*
X856763D02*
X858127Y1055775D01*
X858581Y1055487*
X858581D02*
X858809Y1055200D01*
X859036Y1054625*
Y1053762*
X859036D02*
X858581Y1053187D01*
X858581D02*
X857900Y1052900D01*
X856990*
X856990D02*
X856309Y1053187D01*
X856309D02*
X855854Y1053762D01*
X866309Y1058937D02*
X868127Y1052900D01*
X869945Y1058937D02*
X868127Y1052900D01*
X873354Y1058937D02*
X872900Y1058650D01*
X872445Y1058075*
X872218Y1057500*
X871990Y1056637*
X871990D02*
Y1055200D01*
X871990D02*
X872218Y1054337D01*
X872218D02*
X872445Y1053762D01*
X872445D02*
X872900Y1053187D01*
X872900D02*
X873354Y1052900D01*
X873354D02*
X874263D01*
X874263D02*
X874718Y1053187D01*
X874718D02*
X875172Y1053762D01*
X875172D02*
X875400Y1054337D01*
X875400D02*
X875627Y1055200D01*
Y1056637*
X875627D02*
X875400Y1057500D01*
X875172Y1058075*
X875172D02*
X874718Y1058650D01*
X874263Y1058937*
X874263D02*
X873354D01*
X877672D02*
Y1052900D01*
X877672D02*
X880400D01*
X884036Y1058937D02*
Y1052900D01*
X882445Y1058937D02*
X885627D01*
X889490D02*
X887672Y1052900D01*
X889490Y1058937D02*
X891309Y1052900D01*
X888354Y1054912D02*
X890627D01*
X896763Y1057500D02*
X896536Y1058075D01*
X896081Y1058650*
X896081D02*
X895627Y1058937D01*
X895627D02*
X894718D01*
X894718D02*
X894263Y1058650D01*
X894263D02*
X893809Y1058075D01*
X893581Y1057500*
X893581D02*
X893354Y1056637D01*
X893354D02*
Y1055200D01*
X893354D02*
X893581Y1054337D01*
X893581D02*
X893809Y1053762D01*
X893809D02*
X894263Y1053187D01*
X894263D02*
X894718Y1052900D01*
X895627*
X896081Y1053187*
X896081D02*
X896536Y1053762D01*
X896536D02*
X896763Y1054337D01*
X896763D02*
Y1055200D01*
X895627D02*
X896763D01*
X898809Y1058937D02*
Y1052900D01*
Y1058937D02*
X901763D01*
X898809Y1056062D02*
X900627D01*
X898809Y1052900D02*
X901763D01*
X1312400Y871693D02*
X1312718Y871887D01*
X1312718D02*
X1313195Y872468D01*
X1313195D02*
Y868400D01*
X1307445Y983075D02*
Y977900D01*
X1305400Y980487D02*
X1309490D01*
X1029945Y1223075D02*
Y1217900D01*
X1027900Y1220487D02*
X1031990D01*
X954945Y1218075D02*
Y1212900D01*
X952900Y1215487D02*
X956990D01*
X922445Y1260575D02*
Y1255400D01*
X920400Y1257987D02*
X924490D01*
X989945Y1260575D02*
Y1255400D01*
X987900Y1257987D02*
X991990D01*
X1062445Y1260575D02*
Y1255400D01*
X1060400Y1257987D02*
X1064490D01*
X1315400Y911693D02*
X1315718Y911887D01*
X1315718D02*
X1316195Y912468D01*
X1316195D02*
Y908400D01*
X1314400Y991693D02*
X1314718Y991887D01*
X1314718D02*
X1315195Y992468D01*
X1315195D02*
Y988400D01*
X1339400Y1126693D02*
X1339718Y1126887D01*
X1339718D02*
X1340195Y1127468D01*
X1340195D02*
Y1123400D01*
X1331900Y1206693D02*
X1332218Y1206887D01*
X1332218D02*
X1332695Y1207468D01*
X1332695D02*
Y1203400D01*
X1309900Y1275693D02*
X1310218Y1275887D01*
X1310218D02*
X1310695Y1276468D01*
X1310695D02*
Y1272400D01*
X1262400Y1233193D02*
X1262718Y1233387D01*
X1262718D02*
X1263195Y1233968D01*
X1263195D02*
Y1229900D01*
X1214900Y1275693D02*
X1215218Y1275887D01*
X1215218D02*
X1215695Y1276468D01*
X1215695D02*
Y1272400D01*
X1168400Y1233193D02*
X1168718Y1233387D01*
X1168718D02*
X1169195Y1233968D01*
X1169195D02*
Y1229900D01*
X1120900Y1275193D02*
X1121218Y1275387D01*
X1121218D02*
X1121695Y1275968D01*
X1121695D02*
Y1271900D01*
X1036900Y1259693D02*
X1037218Y1259887D01*
X1037218D02*
X1037695Y1260468D01*
X1037695D02*
Y1256400D01*
X964400Y1260193D02*
X964718Y1260387D01*
X964718D02*
X965195Y1260968D01*
X965195D02*
Y1256900D01*
X1002400Y1215193D02*
X1002718Y1215387D01*
X1002718D02*
X1003195Y1215968D01*
X1003195D02*
Y1211900D01*
X930400Y1215693D02*
X930718Y1215887D01*
X930718D02*
X931195Y1216468D01*
X931195D02*
Y1212400D01*
X893400Y1259693D02*
X893718Y1259887D01*
X893718D02*
X894195Y1260468D01*
X894195D02*
Y1256400D01*
X817400Y1181193D02*
X817718Y1181387D01*
X817718D02*
X818195Y1181968D01*
X818195D02*
Y1177900D01*
X809900Y1106193D02*
X810218Y1106387D01*
X810218D02*
X810695Y1106968D01*
X810695D02*
Y1102900D01*
X1162400Y873693D02*
X1162718Y873887D01*
X1162718D02*
X1163195Y874468D01*
X1163195D02*
Y870400D01*
X847218Y1046437D02*
X845400Y1040400D01*
X847218Y1046437D02*
X849036Y1040400D01*
X846081Y1042412D02*
X848354D01*
X851081Y1046437D02*
Y1040400D01*
Y1046437D02*
X853127D01*
X853127D02*
X853809Y1046150D01*
X854036Y1045862*
X854036D02*
X854263Y1045287D01*
X854263D02*
Y1044712D01*
X854263D02*
X854036Y1044137D01*
X854036D02*
X853809Y1043850D01*
X853127Y1043562*
X853127D02*
X851081D01*
X852672D02*
X854263Y1040400D01*
X856309Y1046437D02*
Y1040400D01*
Y1046437D02*
X858354D01*
X858354D02*
X859036Y1046150D01*
X859263Y1045862*
X859263D02*
X859490Y1045287D01*
X859490D02*
Y1044712D01*
X859490D02*
X859263Y1044137D01*
X859263D02*
X859036Y1043850D01*
X858354Y1043562*
X858354D02*
X856309D01*
X857900D02*
X859490Y1040400D01*
X863354Y1046437D02*
X861536Y1040400D01*
X863354Y1046437D02*
X865172Y1040400D01*
X862218Y1042412D02*
X864490D01*
X867218Y1046437D02*
X869036Y1043562D01*
X869036D02*
Y1040400D01*
X870854Y1046437D02*
X869036Y1043562D01*
X878127Y1045287D02*
X878581Y1045575D01*
X878581D02*
X879263Y1046437D01*
X879263D02*
Y1040400D01*
X886536Y1046437D02*
Y1040400D01*
X888581Y1046437D02*
Y1040400D01*
Y1046437D02*
X891763Y1040400D01*
Y1046437D02*
Y1040400D01*
X842900Y998937D02*
Y992900D01*
Y998937D02*
X844945D01*
X844945D02*
X845627Y998650D01*
X845854Y998362*
X845854D02*
X846081Y997787D01*
X846081D02*
Y997212D01*
X846081D02*
X845854Y996637D01*
X845854D02*
X845627Y996350D01*
X844945Y996062*
X842900D02*
X844945D01*
X844945D02*
X845627Y995775D01*
X845854Y995487*
X845854D02*
X846081Y994912D01*
X846081D02*
Y994050D01*
X846081D02*
X845854Y993475D01*
X845854D02*
X845627Y993187D01*
X845627D02*
X844945Y992900D01*
X842900*
X848127Y998937D02*
Y992900D01*
X851990Y998937D02*
X850172Y992900D01*
X851990Y998937D02*
X853809Y992900D01*
X850854Y994912D02*
X853127D01*
X859036Y998075D02*
X858581Y998650D01*
X858581D02*
X857900Y998937D01*
X857900D02*
X856990D01*
X856990D02*
X856309Y998650D01*
X855854Y998075*
X855854D02*
Y997500D01*
X855854D02*
X856081Y996925D01*
X856081D02*
X856309Y996637D01*
X856309D02*
X856763Y996350D01*
X856763D02*
X858127Y995775D01*
X858581Y995487*
X858581D02*
X858809Y995200D01*
X859036Y994625*
Y993762*
X859036D02*
X858581Y993187D01*
X858581D02*
X857900Y992900D01*
X856990*
X856990D02*
X856309Y993187D01*
X856309D02*
X855854Y993762D01*
X866309Y998937D02*
X868127Y992900D01*
X869945Y998937D02*
X868127Y992900D01*
X873354Y998937D02*
X872900Y998650D01*
X872445Y998075*
X872218Y997500*
X871990Y996637*
X871990D02*
Y995200D01*
X871990D02*
X872218Y994337D01*
X872218D02*
X872445Y993762D01*
X872445D02*
X872900Y993187D01*
X872900D02*
X873354Y992900D01*
X873354D02*
X874263D01*
X874263D02*
X874718Y993187D01*
X874718D02*
X875172Y993762D01*
X875172D02*
X875400Y994337D01*
X875400D02*
X875627Y995200D01*
Y996637*
X875627D02*
X875400Y997500D01*
X875172Y998075*
X875172D02*
X874718Y998650D01*
X874263Y998937*
X874263D02*
X873354D01*
X877672D02*
Y992900D01*
X877672D02*
X880400D01*
X884036Y998937D02*
Y992900D01*
X882445Y998937D02*
X885627D01*
X889490D02*
X887672Y992900D01*
X889490Y998937D02*
X891309Y992900D01*
X888354Y994912D02*
X890627D01*
X896763Y997500D02*
X896536Y998075D01*
X896081Y998650*
X896081D02*
X895627Y998937D01*
X895627D02*
X894718D01*
X894718D02*
X894263Y998650D01*
X894263D02*
X893809Y998075D01*
X893581Y997500*
X893581D02*
X893354Y996637D01*
X893354D02*
Y995200D01*
X893354D02*
X893581Y994337D01*
X893581D02*
X893809Y993762D01*
X893809D02*
X894263Y993187D01*
X894263D02*
X894718Y992900D01*
X895627*
X896081Y993187*
X896081D02*
X896536Y993762D01*
X896536D02*
X896763Y994337D01*
X896763D02*
Y995200D01*
X895627D02*
X896763D01*
X898809Y998937D02*
Y992900D01*
Y998937D02*
X901763D01*
X898809Y996062D02*
X900627D01*
X898809Y992900D02*
X901763D01*
X847218Y986437D02*
X845400Y980400D01*
X847218Y986437D02*
X849036Y980400D01*
X846081Y982412D02*
X848354D01*
X851081Y986437D02*
Y980400D01*
Y986437D02*
X853127D01*
X853127D02*
X853809Y986150D01*
X854036Y985862*
X854036D02*
X854263Y985287D01*
X854263D02*
Y984712D01*
X854263D02*
X854036Y984137D01*
X854036D02*
X853809Y983850D01*
X853127Y983562*
X853127D02*
X851081D01*
X852672D02*
X854263Y980400D01*
X856309Y986437D02*
Y980400D01*
Y986437D02*
X858354D01*
X858354D02*
X859036Y986150D01*
X859263Y985862*
X859263D02*
X859490Y985287D01*
X859490D02*
Y984712D01*
X859490D02*
X859263Y984137D01*
X859263D02*
X859036Y983850D01*
X858354Y983562*
X858354D02*
X856309D01*
X857900D02*
X859490Y980400D01*
X863354Y986437D02*
X861536Y980400D01*
X863354Y986437D02*
X865172Y980400D01*
X862218Y982412D02*
X864490D01*
X867218Y986437D02*
X869036Y983562D01*
X869036D02*
Y980400D01*
X870854Y986437D02*
X869036Y983562D01*
X878127Y985287D02*
X878581Y985575D01*
X878581D02*
X879263Y986437D01*
X879263D02*
Y980400D01*
X887900Y986437D02*
X887445Y986150D01*
X886990Y985575*
X886990D02*
X886763Y985000D01*
X886763D02*
X886536Y984137D01*
X886536D02*
Y982700D01*
X886763Y981837*
X886763D02*
X886990Y981262D01*
X886990D02*
X887445Y980687D01*
X887445D02*
X887900Y980400D01*
X888809*
X889263Y980687*
X889263D02*
X889718Y981262D01*
X889718D02*
X889945Y981837D01*
X889945D02*
X890172Y982700D01*
X890172D02*
Y984137D01*
X890172D02*
X889945Y985000D01*
X889718Y985575*
X889263Y986150*
X889263D02*
X888809Y986437D01*
X888809D02*
X887900D01*
X892218D02*
Y982125D01*
X892445Y981262*
X892445D02*
X892900Y980687D01*
X892900D02*
X893581Y980400D01*
X893581D02*
X894036D01*
X894718Y980687*
X894718D02*
X895172Y981262D01*
X895172D02*
X895400Y982125D01*
Y986437*
X899036D02*
Y980400D01*
X897445Y986437D02*
X900627D01*
X842900Y938937D02*
Y932900D01*
Y938937D02*
X844945D01*
X844945D02*
X845627Y938650D01*
X845854Y938362*
X845854D02*
X846081Y937787D01*
X846081D02*
Y937212D01*
X846081D02*
X845854Y936637D01*
X845854D02*
X845627Y936350D01*
X844945Y936062*
X842900D02*
X844945D01*
X844945D02*
X845627Y935775D01*
X845854Y935487*
X845854D02*
X846081Y934912D01*
X846081D02*
Y934050D01*
X846081D02*
X845854Y933475D01*
X845854D02*
X845627Y933187D01*
X845627D02*
X844945Y932900D01*
X842900*
X848127Y938937D02*
Y932900D01*
X851990Y938937D02*
X850172Y932900D01*
X851990Y938937D02*
X853809Y932900D01*
X850854Y934912D02*
X853127D01*
X859036Y938075D02*
X858581Y938650D01*
X858581D02*
X857900Y938937D01*
X857900D02*
X856990D01*
X856990D02*
X856309Y938650D01*
X855854Y938075*
X855854D02*
Y937500D01*
X855854D02*
X856081Y936925D01*
X856081D02*
X856309Y936637D01*
X856309D02*
X856763Y936350D01*
X856763D02*
X858127Y935775D01*
X858581Y935487*
X858581D02*
X858809Y935200D01*
X859036Y934625*
Y933762*
X859036D02*
X858581Y933187D01*
X858581D02*
X857900Y932900D01*
X856990*
X856990D02*
X856309Y933187D01*
X856309D02*
X855854Y933762D01*
X866309Y938937D02*
X868127Y932900D01*
X869945Y938937D02*
X868127Y932900D01*
X873354Y938937D02*
X872900Y938650D01*
X872445Y938075*
X872218Y937500*
X871990Y936637*
X871990D02*
Y935200D01*
X871990D02*
X872218Y934337D01*
X872218D02*
X872445Y933762D01*
X872445D02*
X872900Y933187D01*
X872900D02*
X873354Y932900D01*
X873354D02*
X874263D01*
X874263D02*
X874718Y933187D01*
X874718D02*
X875172Y933762D01*
X875172D02*
X875400Y934337D01*
X875400D02*
X875627Y935200D01*
Y936637*
X875627D02*
X875400Y937500D01*
X875172Y938075*
X875172D02*
X874718Y938650D01*
X874263Y938937*
X874263D02*
X873354D01*
X877672D02*
Y932900D01*
X877672D02*
X880400D01*
X884036Y938937D02*
Y932900D01*
X882445Y938937D02*
X885627D01*
X889490D02*
X887672Y932900D01*
X889490Y938937D02*
X891309Y932900D01*
X888354Y934912D02*
X890627D01*
X896763Y937500D02*
X896536Y938075D01*
X896081Y938650*
X896081D02*
X895627Y938937D01*
X895627D02*
X894718D01*
X894718D02*
X894263Y938650D01*
X894263D02*
X893809Y938075D01*
X893581Y937500*
X893581D02*
X893354Y936637D01*
X893354D02*
Y935200D01*
X893354D02*
X893581Y934337D01*
X893581D02*
X893809Y933762D01*
X893809D02*
X894263Y933187D01*
X894263D02*
X894718Y932900D01*
X895627*
X896081Y933187*
X896081D02*
X896536Y933762D01*
X896536D02*
X896763Y934337D01*
X896763D02*
Y935200D01*
X895627D02*
X896763D01*
X898809Y938937D02*
Y932900D01*
Y938937D02*
X901763D01*
X898809Y936062D02*
X900627D01*
X898809Y932900D02*
X901763D01*
X847218Y926437D02*
X845400Y920400D01*
X847218Y926437D02*
X849036Y920400D01*
X846081Y922412D02*
X848354D01*
X851081Y926437D02*
Y920400D01*
Y926437D02*
X853127D01*
X853127D02*
X853809Y926150D01*
X854036Y925862*
X854036D02*
X854263Y925287D01*
X854263D02*
Y924712D01*
X854263D02*
X854036Y924137D01*
X854036D02*
X853809Y923850D01*
X853127Y923562*
X853127D02*
X851081D01*
X852672D02*
X854263Y920400D01*
X856309Y926437D02*
Y920400D01*
Y926437D02*
X858354D01*
X858354D02*
X859036Y926150D01*
X859263Y925862*
X859263D02*
X859490Y925287D01*
X859490D02*
Y924712D01*
X859490D02*
X859263Y924137D01*
X859263D02*
X859036Y923850D01*
X858354Y923562*
X858354D02*
X856309D01*
X857900D02*
X859490Y920400D01*
X863354Y926437D02*
X861536Y920400D01*
X863354Y926437D02*
X865172Y920400D01*
X862218Y922412D02*
X864490D01*
X867218Y926437D02*
X869036Y923562D01*
X869036D02*
Y920400D01*
X870854Y926437D02*
X869036Y923562D01*
X878354Y925000D02*
Y925287D01*
X878354D02*
X878581Y925862D01*
X878581D02*
X878809Y926150D01*
X879263Y926437*
X879263D02*
X880172D01*
X880172D02*
X880627Y926150D01*
X880854Y925862*
X880854D02*
X881081Y925287D01*
X881081D02*
Y924712D01*
X881081D02*
X880854Y924137D01*
X880854D02*
X880400Y923275D01*
X878127Y920400*
X881309*
X888581Y926437D02*
Y920400D01*
X890627Y926437D02*
Y920400D01*
Y926437D02*
X893809Y920400D01*
Y926437D02*
Y920400D01*
X842900Y878937D02*
Y872900D01*
Y878937D02*
X844945D01*
X844945D02*
X845627Y878650D01*
X845854Y878362*
X845854D02*
X846081Y877787D01*
X846081D02*
Y877212D01*
X846081D02*
X845854Y876637D01*
X845854D02*
X845627Y876350D01*
X844945Y876062*
X842900D02*
X844945D01*
X844945D02*
X845627Y875775D01*
X845854Y875487*
X845854D02*
X846081Y874912D01*
X846081D02*
Y874050D01*
X846081D02*
X845854Y873475D01*
X845854D02*
X845627Y873187D01*
X845627D02*
X844945Y872900D01*
X842900*
X848127Y878937D02*
Y872900D01*
X851990Y878937D02*
X850172Y872900D01*
X851990Y878937D02*
X853809Y872900D01*
X850854Y874912D02*
X853127D01*
X859036Y878075D02*
X858581Y878650D01*
X858581D02*
X857900Y878937D01*
X857900D02*
X856990D01*
X856990D02*
X856309Y878650D01*
X855854Y878075*
X855854D02*
Y877500D01*
X855854D02*
X856081Y876925D01*
X856081D02*
X856309Y876637D01*
X856309D02*
X856763Y876350D01*
X856763D02*
X858127Y875775D01*
X858581Y875487*
X858581D02*
X858809Y875200D01*
X859036Y874625*
Y873762*
X859036D02*
X858581Y873187D01*
X858581D02*
X857900Y872900D01*
X856990*
X856990D02*
X856309Y873187D01*
X856309D02*
X855854Y873762D01*
X866309Y878937D02*
X868127Y872900D01*
X869945Y878937D02*
X868127Y872900D01*
X873354Y878937D02*
X872900Y878650D01*
X872445Y878075*
X872218Y877500*
X871990Y876637*
X871990D02*
Y875200D01*
X871990D02*
X872218Y874337D01*
X872218D02*
X872445Y873762D01*
X872445D02*
X872900Y873187D01*
X872900D02*
X873354Y872900D01*
X873354D02*
X874263D01*
X874263D02*
X874718Y873187D01*
X874718D02*
X875172Y873762D01*
X875172D02*
X875400Y874337D01*
X875400D02*
X875627Y875200D01*
Y876637*
X875627D02*
X875400Y877500D01*
X875172Y878075*
X875172D02*
X874718Y878650D01*
X874263Y878937*
X874263D02*
X873354D01*
X877672D02*
Y872900D01*
X877672D02*
X880400D01*
X884036Y878937D02*
Y872900D01*
X882445Y878937D02*
X885627D01*
X889490D02*
X887672Y872900D01*
X889490Y878937D02*
X891309Y872900D01*
X888354Y874912D02*
X890627D01*
X896763Y877500D02*
X896536Y878075D01*
X896081Y878650*
X896081D02*
X895627Y878937D01*
X895627D02*
X894718D01*
X894718D02*
X894263Y878650D01*
X894263D02*
X893809Y878075D01*
X893581Y877500*
X893581D02*
X893354Y876637D01*
X893354D02*
Y875200D01*
X893354D02*
X893581Y874337D01*
X893581D02*
X893809Y873762D01*
X893809D02*
X894263Y873187D01*
X894263D02*
X894718Y872900D01*
X895627*
X896081Y873187*
X896081D02*
X896536Y873762D01*
X896536D02*
X896763Y874337D01*
X896763D02*
Y875200D01*
X895627D02*
X896763D01*
X898809Y878937D02*
Y872900D01*
Y878937D02*
X901763D01*
X898809Y876062D02*
X900627D01*
X898809Y872900D02*
X901763D01*
X847218Y866437D02*
X845400Y860400D01*
X847218Y866437D02*
X849036Y860400D01*
X846081Y862412D02*
X848354D01*
X851081Y866437D02*
Y860400D01*
Y866437D02*
X853127D01*
X853127D02*
X853809Y866150D01*
X854036Y865862*
X854036D02*
X854263Y865287D01*
X854263D02*
Y864712D01*
X854263D02*
X854036Y864137D01*
X854036D02*
X853809Y863850D01*
X853127Y863562*
X853127D02*
X851081D01*
X852672D02*
X854263Y860400D01*
X856309Y866437D02*
Y860400D01*
Y866437D02*
X858354D01*
X858354D02*
X859036Y866150D01*
X859263Y865862*
X859263D02*
X859490Y865287D01*
X859490D02*
Y864712D01*
X859490D02*
X859263Y864137D01*
X859263D02*
X859036Y863850D01*
X858354Y863562*
X858354D02*
X856309D01*
X857900D02*
X859490Y860400D01*
X863354Y866437D02*
X861536Y860400D01*
X863354Y866437D02*
X865172Y860400D01*
X862218Y862412D02*
X864490D01*
X867218Y866437D02*
X869036Y863562D01*
X869036D02*
Y860400D01*
X870854Y866437D02*
X869036Y863562D01*
X878354Y865000D02*
Y865287D01*
X878354D02*
X878581Y865862D01*
X878581D02*
X878809Y866150D01*
X879263Y866437*
X879263D02*
X880172D01*
X880172D02*
X880627Y866150D01*
X880854Y865862*
X880854D02*
X881081Y865287D01*
X881081D02*
Y864712D01*
X881081D02*
X880854Y864137D01*
X880854D02*
X880400Y863275D01*
X878127Y860400*
X881309*
X889945Y866437D02*
X889490Y866150D01*
X889490D02*
X889036Y865575D01*
X888809Y865000*
X888581Y864137*
X888581D02*
Y862700D01*
X888581D02*
X888809Y861837D01*
X888809D02*
X889036Y861262D01*
X889036D02*
X889490Y860687D01*
X889490D02*
X889945Y860400D01*
X890854*
X890854D02*
X891309Y860687D01*
X891309D02*
X891763Y861262D01*
X891763D02*
X891990Y861837D01*
X891990D02*
X892218Y862700D01*
Y864137*
X892218D02*
X891990Y865000D01*
X891990D02*
X891763Y865575D01*
X891763D02*
X891309Y866150D01*
X890854Y866437*
X890854D02*
X889945D01*
X894263D02*
Y862125D01*
X894263D02*
X894490Y861262D01*
X894490D02*
X894945Y860687D01*
X894945D02*
X895627Y860400D01*
X896081*
X896081D02*
X896763Y860687D01*
X896763D02*
X897218Y861262D01*
X897218D02*
X897445Y862125D01*
Y866437*
X901081D02*
Y860400D01*
X899490Y866437D02*
X902672D01*
X855400Y1118937D02*
Y1112900D01*
X858581Y1118937D02*
Y1112900D01*
X855400Y1116062D02*
X858581D01*
X860627Y1118937D02*
Y1112900D01*
Y1118937D02*
X863581D01*
X860627Y1116062D02*
X862445D01*
X860627Y1112900D02*
X863581D01*
X867445Y1118937D02*
X865627Y1112900D01*
X867445Y1118937D02*
X869263Y1112900D01*
X866309Y1114912D02*
X868581D01*
X872900Y1118937D02*
Y1112900D01*
X871309Y1118937D02*
X874490D01*
X876536D02*
Y1112900D01*
Y1118937D02*
X879490D01*
X876536Y1116062D02*
X878354D01*
X876536Y1112900D02*
X879490D01*
X881536Y1118937D02*
Y1112900D01*
Y1118937D02*
X883581D01*
X883581D02*
X884263Y1118650D01*
X884263D02*
X884490Y1118362D01*
X884490D02*
X884718Y1117787D01*
X884718D02*
Y1117212D01*
X884718D02*
X884490Y1116637D01*
X884490D02*
X884263Y1116350D01*
X884263D02*
X883581Y1116062D01*
X883581D02*
X881536D01*
X883127D02*
X884718Y1112900D01*
X891990Y1118937D02*
Y1112900D01*
X894036Y1118937D02*
Y1112900D01*
Y1118937D02*
X897218Y1112900D01*
Y1118937D02*
Y1112900D01*
X849490Y1178937D02*
Y1172900D01*
X847900Y1178937D02*
X851081D01*
X853127D02*
Y1172900D01*
X856309Y1178937D02*
Y1172900D01*
X853127Y1176062D02*
X856309D01*
X858354Y1178937D02*
Y1172900D01*
Y1178937D02*
X861309D01*
X858354Y1176062D02*
X860172D01*
X858354Y1172900D02*
X861309D01*
X863354Y1178937D02*
Y1172900D01*
Y1178937D02*
X865400D01*
X865400D02*
X866081Y1178650D01*
X866081D02*
X866309Y1178362D01*
X866309D02*
X866536Y1177787D01*
X866536D02*
Y1177212D01*
X866536D02*
X866309Y1176637D01*
X866309D02*
X866081Y1176350D01*
X866081D02*
X865400Y1176062D01*
X865400D02*
X863354D01*
X864945D02*
X866536Y1172900D01*
X868581Y1178937D02*
Y1172900D01*
Y1178937D02*
X870400Y1172900D01*
X872218Y1178937D02*
X870400Y1172900D01*
X872218Y1178937D02*
Y1172900D01*
X874263Y1178937D02*
Y1172900D01*
X879490Y1178075D02*
X879036Y1178650D01*
X878354Y1178937*
X878354D02*
X877445D01*
X877445D02*
X876763Y1178650D01*
X876763D02*
X876309Y1178075D01*
Y1177500*
X876536Y1176925*
X876763Y1176637*
X876763D02*
X877218Y1176350D01*
X878581Y1175775*
X878581D02*
X879036Y1175487D01*
X879036D02*
X879263Y1175200D01*
X879263D02*
X879490Y1174625D01*
X879490D02*
Y1173762D01*
X879490D02*
X879036Y1173187D01*
X879036D02*
X878354Y1172900D01*
X878354D02*
X877445D01*
X876763Y1173187*
X876763D02*
X876309Y1173762D01*
X883127Y1178937D02*
Y1172900D01*
X881536Y1178937D02*
X884718D01*
X888127D02*
X887672Y1178650D01*
X887672D02*
X887218Y1178075D01*
X886990Y1177500*
X886990D02*
X886763Y1176637D01*
X886763D02*
Y1175200D01*
X886763D02*
X886990Y1174337D01*
X886990D02*
X887218Y1173762D01*
X887218D02*
X887672Y1173187D01*
X887672D02*
X888127Y1172900D01*
X889036*
X889490Y1173187*
X889490D02*
X889945Y1173762D01*
X889945D02*
X890172Y1174337D01*
X890172D02*
X890400Y1175200D01*
Y1176637*
X890400D02*
X890172Y1177500D01*
X890172D02*
X889945Y1178075D01*
X889490Y1178650*
X889490D02*
X889036Y1178937D01*
X889036D02*
X888127D01*
X892445D02*
Y1172900D01*
Y1178937D02*
X894490D01*
X894490D02*
X895172Y1178650D01*
X895172D02*
X895400Y1178362D01*
X895400D02*
X895627Y1177787D01*
X895627D02*
Y1177212D01*
X895627D02*
X895400Y1176637D01*
X895400D02*
X895172Y1176350D01*
X895172D02*
X894490Y1176062D01*
X894490D02*
X892445D01*
X894036D02*
X895627Y1172900D01*
X902900Y1178937D02*
Y1172900D01*
X904945Y1178937D02*
Y1172900D01*
Y1178937D02*
X908127Y1172900D01*
Y1178937D02*
Y1172900D01*
X855400Y1258281D02*
Y1252900D01*
X858263Y1258281D02*
Y1252900D01*
X855400Y1255718D02*
X858263D01*
X861331Y1258281D02*
X860922Y1258025D01*
X860922D02*
X860513Y1257512D01*
X860513D02*
X860309Y1257000D01*
X860104Y1256231*
X860104D02*
Y1254950D01*
X860104D02*
X860309Y1254181D01*
X860513Y1253668*
X860513D02*
X860922Y1253156D01*
X860922D02*
X861331Y1252900D01*
X861331D02*
X862150D01*
X862559Y1253156*
X862968Y1253668*
X862968D02*
X863172Y1254181D01*
X863172D02*
X863377Y1254950D01*
Y1256231*
X863172Y1257000*
X863172D02*
X862968Y1257512D01*
X862968D02*
X862559Y1258025D01*
X862150Y1258281*
X861331*
X865218D02*
Y1252900D01*
Y1258281D02*
X866854Y1252900D01*
X868490Y1258281D02*
X866854Y1252900D01*
X868490Y1258281D02*
Y1252900D01*
X870331Y1258281D02*
Y1252900D01*
Y1258281D02*
X872990D01*
X870331Y1255718D02*
X871968D01*
X870331Y1252900D02*
X872990D01*
X879536Y1258281D02*
X882400Y1252900D01*
Y1258281D02*
X879536Y1252900D01*
X930400Y1260781D02*
Y1255400D01*
X933263Y1260781D02*
Y1255400D01*
X930400Y1258218D02*
X933263D01*
X936331Y1260781D02*
X935922Y1260525D01*
X935922D02*
X935513Y1260012D01*
X935513D02*
X935309Y1259500D01*
X935104Y1258731*
X935104D02*
Y1257450D01*
X935104D02*
X935309Y1256681D01*
X935513Y1256168*
X935513D02*
X935922Y1255656D01*
X935922D02*
X936331Y1255400D01*
X936331D02*
X937150D01*
X937559Y1255656*
X937968Y1256168*
X937968D02*
X938172Y1256681D01*
X938172D02*
X938377Y1257450D01*
Y1258731*
X938172Y1259500*
X938172D02*
X937968Y1260012D01*
X937968D02*
X937559Y1260525D01*
X937150Y1260781*
X936331*
X940218D02*
Y1255400D01*
Y1260781D02*
X941854Y1255400D01*
X943490Y1260781D02*
X941854Y1255400D01*
X943490Y1260781D02*
Y1255400D01*
X945331Y1260781D02*
Y1255400D01*
Y1260781D02*
X947990D01*
X945331Y1258218D02*
X946968D01*
X945331Y1255400D02*
X947990D01*
X954536Y1260781D02*
X956172Y1258218D01*
X956172D02*
Y1255400D01*
X957809Y1260781D02*
X956172Y1258218D01*
X997900Y1260125D02*
Y1255400D01*
X1000445Y1260125D02*
Y1255400D01*
X997900Y1257875D02*
X1000445D01*
X1003172Y1260125D02*
X1002809Y1259900D01*
X1002445Y1259450*
X1002263Y1259000*
X1002263D02*
X1002081Y1258325D01*
X1002081D02*
Y1257200D01*
X1002081D02*
X1002263Y1256525D01*
X1002263D02*
X1002445Y1256075D01*
X1002809Y1255625*
X1003172Y1255400*
X1003172D02*
X1003900D01*
X1004263Y1255625*
X1004263D02*
X1004627Y1256075D01*
X1004809Y1256525*
X1004990Y1257200*
X1004990D02*
Y1258325D01*
X1004990D02*
X1004809Y1259000D01*
X1004627Y1259450*
X1004263Y1259900*
X1004263D02*
X1003900Y1260125D01*
X1003172*
X1006627D02*
Y1255400D01*
Y1260125D02*
X1008081Y1255400D01*
X1009536Y1260125D02*
X1008081Y1255400D01*
X1009536Y1260125D02*
Y1255400D01*
X1011172Y1260125D02*
Y1255400D01*
Y1260125D02*
X1013536D01*
X1011172Y1257875D02*
X1012627D01*
X1011172Y1255400D02*
X1013536D01*
X1019354Y1260125D02*
X1020809Y1257875D01*
Y1255400*
X1022263Y1260125D02*
X1020809Y1257875D01*
X1025354Y1260125D02*
X1023900Y1255400D01*
X1025354Y1260125D02*
X1026809Y1255400D01*
X1024445Y1256975D02*
X1026263D01*
X1028445Y1260125D02*
X1029354Y1255400D01*
X1030263Y1260125D02*
X1029354Y1255400D01*
X1030263Y1260125D02*
X1031172Y1255400D01*
X1032081Y1260125D02*
X1031172Y1255400D01*
X887900Y1215125D02*
Y1210400D01*
X890445Y1215125D02*
Y1210400D01*
X887900Y1212875D02*
X890445D01*
X893172Y1215125D02*
X892809Y1214900D01*
X892445Y1214450*
X892263Y1214000*
X892263D02*
X892081Y1213325D01*
X892081D02*
Y1212200D01*
X892081D02*
X892263Y1211525D01*
X892263D02*
X892445Y1211075D01*
X892809Y1210625*
X893172Y1210400*
X893172D02*
X893900D01*
X894263Y1210625*
X894263D02*
X894627Y1211075D01*
X894809Y1211525*
X894990Y1212200*
X894990D02*
Y1213325D01*
X894990D02*
X894809Y1214000D01*
X894627Y1214450*
X894263Y1214900*
X894263D02*
X893900Y1215125D01*
X893172*
X896627D02*
Y1210400D01*
Y1215125D02*
X898081Y1210400D01*
X899536Y1215125D02*
X898081Y1210400D01*
X899536Y1215125D02*
Y1210400D01*
X901172Y1215125D02*
Y1210400D01*
Y1215125D02*
X903536D01*
X901172Y1212875D02*
X902627D01*
X901172Y1210400D02*
X903536D01*
X909354Y1215125D02*
Y1210400D01*
Y1215125D02*
X910990D01*
X910990D02*
X911536Y1214900D01*
X911718Y1214675*
X911900Y1214225*
Y1213550*
X911718Y1213100*
X911536Y1212875*
X910990Y1212650*
X910990D02*
X909354D01*
X913536Y1215125D02*
Y1210400D01*
X916445Y1215125D02*
Y1210400D01*
X915172Y1215125D02*
X917718D01*
X922081Y1214000D02*
X921900Y1214450D01*
X921536Y1214900*
X921172Y1215125*
X921172D02*
X920445D01*
X920081Y1214900*
X920081D02*
X919718Y1214450D01*
X919536Y1214000*
X919354Y1213325*
X919354D02*
Y1212200D01*
X919354D02*
X919536Y1211525D01*
X919718Y1211075*
X920081Y1210625*
X920081D02*
X920445Y1210400D01*
X921172*
X921172D02*
X921536Y1210625D01*
X921900Y1211075*
X922081Y1211525*
X923718Y1215125D02*
Y1210400D01*
X926263Y1215125D02*
Y1210400D01*
X923718Y1212875D02*
X926263D01*
X962900Y1215125D02*
Y1210400D01*
X965445Y1215125D02*
Y1210400D01*
X962900Y1212875D02*
X965445D01*
X968172Y1215125D02*
X967809Y1214900D01*
X967445Y1214450*
X967263Y1214000*
X967263D02*
X967081Y1213325D01*
X967081D02*
Y1212200D01*
X967081D02*
X967263Y1211525D01*
X967263D02*
X967445Y1211075D01*
X967809Y1210625*
X968172Y1210400*
X968172D02*
X968900D01*
X969263Y1210625*
X969263D02*
X969627Y1211075D01*
X969809Y1211525*
X969990Y1212200*
X969990D02*
Y1213325D01*
X969990D02*
X969809Y1214000D01*
X969627Y1214450*
X969263Y1214900*
X969263D02*
X968900Y1215125D01*
X968172*
X971627D02*
Y1210400D01*
Y1215125D02*
X973081Y1210400D01*
X974536Y1215125D02*
X973081Y1210400D01*
X974536Y1215125D02*
Y1210400D01*
X976172Y1215125D02*
Y1210400D01*
Y1215125D02*
X978536D01*
X976172Y1212875D02*
X977627D01*
X976172Y1210400D02*
X978536D01*
X984354Y1215125D02*
Y1210400D01*
Y1215125D02*
X985990D01*
X985990D02*
X986536Y1214900D01*
X986718Y1214675*
X986900Y1214225*
Y1213775*
X986718Y1213325*
X986536Y1213100*
X985990Y1212875*
X985990D02*
X984354D01*
X985627D02*
X986900Y1210400D01*
X989627Y1215125D02*
X989263Y1214900D01*
X989263D02*
X988900Y1214450D01*
X988718Y1214000*
X988536Y1213325*
Y1212200*
X988718Y1211525*
X988900Y1211075*
X989263Y1210625*
X989263D02*
X989627Y1210400D01*
X990354*
X990354D02*
X990718Y1210625D01*
X991081Y1211075*
X991081D02*
X991263Y1211525D01*
X991263D02*
X991445Y1212200D01*
Y1213325*
X991263Y1214000*
X991263D02*
X991081Y1214450D01*
X991081D02*
X990718Y1214900D01*
X990354Y1215125*
X990354D02*
X989627D01*
X993081D02*
Y1210400D01*
X993081D02*
X995263D01*
X996900Y1215125D02*
Y1210400D01*
X999081*
X1075400Y1258281D02*
X1078263Y1252900D01*
Y1258281D02*
X1075400Y1252900D01*
X1084809Y1258281D02*
Y1252900D01*
Y1258281D02*
X1086445Y1252900D01*
X1088081Y1258281D02*
X1086445Y1252900D01*
X1088081Y1258281D02*
Y1252900D01*
X1091150Y1258281D02*
X1090740Y1258025D01*
X1090740D02*
X1090331Y1257512D01*
X1090331D02*
X1090127Y1257000D01*
X1089922Y1256231*
X1089922D02*
Y1254950D01*
X1089922D02*
X1090127Y1254181D01*
X1090331Y1253668*
X1090331D02*
X1090740Y1253156D01*
X1090740D02*
X1091150Y1252900D01*
X1091968*
X1092377Y1253156*
X1092786Y1253668*
X1092786D02*
X1092990Y1254181D01*
X1092990D02*
X1093195Y1254950D01*
Y1256231*
X1092990Y1257000*
X1092990D02*
X1092786Y1257512D01*
X1092786D02*
X1092377Y1258025D01*
X1091968Y1258281*
X1091150*
X1096468D02*
Y1252900D01*
X1095036Y1258281D02*
X1097900D01*
X1100968D02*
X1100559Y1258025D01*
X1100150Y1257512*
X1100150D02*
X1099945Y1257000D01*
X1099740Y1256231*
X1099740D02*
Y1254950D01*
X1099740D02*
X1099945Y1254181D01*
X1100150Y1253668*
X1100150D02*
X1100559Y1253156D01*
X1100968Y1252900*
X1101786*
X1102195Y1253156*
X1102604Y1253668*
X1102604D02*
X1102809Y1254181D01*
X1103013Y1254950*
X1103013D02*
Y1256231D01*
X1103013D02*
X1102809Y1257000D01*
X1102604Y1257512*
X1102604D02*
X1102195Y1258025D01*
X1101786Y1258281*
X1100968*
X1104854D02*
Y1252900D01*
Y1258281D02*
X1106695D01*
X1107309Y1258025*
X1107513Y1257768*
X1107513D02*
X1107718Y1257256D01*
Y1256743*
X1107718D02*
X1107513Y1256231D01*
X1107513D02*
X1107309Y1255975D01*
X1106695Y1255718*
X1106695D02*
X1104854D01*
X1106286D02*
X1107718Y1252900D01*
X1170400Y1258281D02*
X1172036Y1255718D01*
X1172036D02*
Y1252900D01*
X1173672Y1258281D02*
X1172036Y1255718D01*
X1180218Y1258281D02*
Y1252900D01*
Y1258281D02*
X1181854Y1252900D01*
X1183490Y1258281D02*
X1181854Y1252900D01*
X1183490Y1258281D02*
Y1252900D01*
X1186559Y1258281D02*
X1186150Y1258025D01*
X1185740Y1257512*
X1185740D02*
X1185536Y1257000D01*
X1185331Y1256231*
X1185331D02*
Y1254950D01*
X1185331D02*
X1185536Y1254181D01*
X1185740Y1253668*
X1185740D02*
X1186150Y1253156D01*
X1186559Y1252900*
X1187377*
X1187786Y1253156*
X1188195Y1253668*
X1188195D02*
X1188400Y1254181D01*
X1188604Y1254950*
X1188604D02*
Y1256231D01*
X1188604D02*
X1188400Y1257000D01*
X1188195Y1257512*
X1188195D02*
X1187786Y1258025D01*
X1187377Y1258281*
X1186559*
X1191877D02*
Y1252900D01*
X1190445Y1258281D02*
X1193309D01*
X1196377D02*
X1195968Y1258025D01*
X1195559Y1257512*
X1195559D02*
X1195354Y1257000D01*
X1195354D02*
X1195150Y1256231D01*
Y1254950*
X1195354Y1254181*
X1195354D02*
X1195559Y1253668D01*
X1195559D02*
X1195968Y1253156D01*
X1196377Y1252900*
X1197195*
X1197604Y1253156*
X1197604D02*
X1198013Y1253668D01*
X1198013D02*
X1198218Y1254181D01*
X1198422Y1254950*
X1198422D02*
Y1256231D01*
X1198422D02*
X1198218Y1257000D01*
X1198013Y1257512*
X1198013D02*
X1197604Y1258025D01*
X1197604D02*
X1197195Y1258281D01*
X1196377*
X1200263D02*
Y1252900D01*
Y1258281D02*
X1202104D01*
X1202104D02*
X1202718Y1258025D01*
X1202922Y1257768*
X1202922D02*
X1203127Y1257256D01*
Y1256743*
X1203127D02*
X1202922Y1256231D01*
X1202922D02*
X1202718Y1255975D01*
X1202104Y1255718*
X1202104D02*
X1200263D01*
X1201695D02*
X1203127Y1252900D01*
X1262900Y1258281D02*
X1264536Y1255718D01*
X1264536D02*
Y1252900D01*
X1266172Y1258281D02*
X1264536Y1255718D01*
X1269650Y1258281D02*
X1268013Y1252900D01*
X1269650Y1258281D02*
X1271286Y1252900D01*
X1268627Y1254693D02*
X1270672D01*
X1273127Y1258281D02*
X1274150Y1252900D01*
X1275172Y1258281D02*
X1274150Y1252900D01*
X1275172Y1258281D02*
X1276195Y1252900D01*
X1277218Y1258281D02*
X1276195Y1252900D01*
X1283763Y1258281D02*
Y1252900D01*
Y1258281D02*
X1285400Y1252900D01*
X1287036Y1258281D02*
X1285400Y1252900D01*
X1287036Y1258281D02*
Y1252900D01*
X1290104Y1258281D02*
X1289695Y1258025D01*
X1289286Y1257512*
X1289286D02*
X1289081Y1257000D01*
X1289081D02*
X1288877Y1256231D01*
Y1254950*
X1289081Y1254181*
X1289081D02*
X1289286Y1253668D01*
X1289286D02*
X1289695Y1253156D01*
X1290104Y1252900*
X1290104D02*
X1290922D01*
X1290922D02*
X1291331Y1253156D01*
X1291331D02*
X1291740Y1253668D01*
X1291740D02*
X1291945Y1254181D01*
X1292150Y1254950*
Y1256231*
X1291945Y1257000*
X1291740Y1257512*
X1291740D02*
X1291331Y1258025D01*
X1291331D02*
X1290922Y1258281D01*
X1290922D02*
X1290104D01*
X1295422D02*
Y1252900D01*
X1293990Y1258281D02*
X1296854D01*
X1299922D02*
X1299513Y1258025D01*
X1299513D02*
X1299104Y1257512D01*
X1299104D02*
X1298900Y1257000D01*
X1298695Y1256231*
Y1254950*
X1298900Y1254181*
X1299104Y1253668*
X1299104D02*
X1299513Y1253156D01*
X1299513D02*
X1299922Y1252900D01*
X1299922D02*
X1300740D01*
X1300740D02*
X1301150Y1253156D01*
X1301559Y1253668*
X1301559D02*
X1301763Y1254181D01*
X1301763D02*
X1301968Y1254950D01*
Y1256231*
X1301763Y1257000*
X1301763D02*
X1301559Y1257512D01*
X1301559D02*
X1301150Y1258025D01*
X1300740Y1258281*
X1300740D02*
X1299922D01*
X1303809D02*
Y1252900D01*
Y1258281D02*
X1305650D01*
X1306263Y1258025*
X1306263D02*
X1306468Y1257768D01*
X1306468D02*
X1306672Y1257256D01*
X1306672D02*
Y1256743D01*
X1306672D02*
X1306468Y1256231D01*
X1306263Y1255975*
X1306263D02*
X1305650Y1255718D01*
X1305650D02*
X1303809D01*
X1305240D02*
X1306672Y1252900D01*
X1115400Y1213281D02*
Y1207900D01*
Y1213281D02*
X1117240D01*
X1117240D02*
X1117854Y1213025D01*
X1117854D02*
X1118059Y1212768D01*
X1118059D02*
X1118263Y1212256D01*
X1118263D02*
Y1211487D01*
X1118263D02*
X1118059Y1210975D01*
X1117854Y1210718*
X1117854D02*
X1117240Y1210462D01*
X1117240D02*
X1115400D01*
X1120104Y1213281D02*
Y1207900D01*
X1123377Y1213281D02*
Y1207900D01*
X1121945Y1213281D02*
X1124809D01*
X1129718Y1212000D02*
X1129513Y1212512D01*
X1129513D02*
X1129104Y1213025D01*
X1129104D02*
X1128695Y1213281D01*
X1127877*
X1127468Y1213025*
X1127059Y1212512*
X1127059D02*
X1126854Y1212000D01*
X1126854D02*
X1126650Y1211231D01*
Y1209950*
X1126854Y1209181*
X1126854D02*
X1127059Y1208668D01*
X1127059D02*
X1127468Y1208156D01*
X1127877Y1207900*
X1128695*
X1129104Y1208156*
X1129104D02*
X1129513Y1208668D01*
X1129513D02*
X1129718Y1209181D01*
X1131559Y1213281D02*
Y1207900D01*
X1134422Y1213281D02*
Y1207900D01*
X1131559Y1210718D02*
X1134422D01*
X1140968Y1213281D02*
Y1207900D01*
Y1213281D02*
X1142604Y1207900D01*
X1144240Y1213281D02*
X1142604Y1207900D01*
X1144240Y1213281D02*
Y1207900D01*
X1147309Y1213281D02*
X1146900Y1213025D01*
X1146490Y1212512*
X1146490D02*
X1146286Y1212000D01*
X1146081Y1211231*
X1146081D02*
Y1209950D01*
X1146081D02*
X1146286Y1209181D01*
X1146490Y1208668*
X1146490D02*
X1146900Y1208156D01*
X1147309Y1207900*
X1148127*
X1148536Y1208156*
X1148945Y1208668*
X1148945D02*
X1149150Y1209181D01*
X1149354Y1209950*
X1149354D02*
Y1211231D01*
X1149354D02*
X1149150Y1212000D01*
X1148945Y1212512*
X1148945D02*
X1148536Y1213025D01*
X1148127Y1213281*
X1147309*
X1152627D02*
Y1207900D01*
X1151195Y1213281D02*
X1154059D01*
X1157127D02*
X1156718Y1213025D01*
X1156309Y1212512*
X1156309D02*
X1156104Y1212000D01*
X1156104D02*
X1155900Y1211231D01*
Y1209950*
X1156104Y1209181*
X1156104D02*
X1156309Y1208668D01*
X1156309D02*
X1156718Y1208156D01*
X1157127Y1207900*
X1157945*
X1158354Y1208156*
X1158354D02*
X1158763Y1208668D01*
X1158763D02*
X1158968Y1209181D01*
X1159172Y1209950*
X1159172D02*
Y1211231D01*
X1159172D02*
X1158968Y1212000D01*
X1158763Y1212512*
X1158763D02*
X1158354Y1213025D01*
X1158354D02*
X1157945Y1213281D01*
X1157127*
X1161013D02*
Y1207900D01*
Y1213281D02*
X1162854D01*
X1162854D02*
X1163468Y1213025D01*
X1163672Y1212768*
X1163672D02*
X1163877Y1212256D01*
Y1211743*
X1163877D02*
X1163672Y1211231D01*
X1163672D02*
X1163468Y1210975D01*
X1162854Y1210718*
X1162854D02*
X1161013D01*
X1162445D02*
X1163877Y1207900D01*
X1212900Y1213281D02*
Y1207900D01*
Y1213281D02*
X1214740D01*
X1214740D02*
X1215354Y1213025D01*
X1215354D02*
X1215559Y1212768D01*
X1215559D02*
X1215763Y1212256D01*
X1215763D02*
Y1211743D01*
X1215763D02*
X1215559Y1211231D01*
X1215354Y1210975*
X1215354D02*
X1214740Y1210718D01*
X1214740D02*
X1212900D01*
X1214331D02*
X1215763Y1207900D01*
X1218831Y1213281D02*
X1218422Y1213025D01*
X1218422D02*
X1218013Y1212512D01*
X1218013D02*
X1217809Y1212000D01*
X1217604Y1211231*
X1217604D02*
Y1209950D01*
X1217604D02*
X1217809Y1209181D01*
X1218013Y1208668*
X1218013D02*
X1218422Y1208156D01*
X1218422D02*
X1218831Y1207900D01*
X1218831D02*
X1219650D01*
X1220059Y1208156*
X1220468Y1208668*
X1220468D02*
X1220672Y1209181D01*
X1220672D02*
X1220877Y1209950D01*
Y1211231*
X1220672Y1212000*
X1220672D02*
X1220468Y1212512D01*
X1220468D02*
X1220059Y1213025D01*
X1219650Y1213281*
X1218831*
X1222718D02*
Y1207900D01*
X1225172*
X1227013Y1213281D02*
Y1207900D01*
X1227013D02*
X1229468D01*
X1236013Y1213281D02*
Y1207900D01*
Y1213281D02*
X1237650Y1207900D01*
X1239286Y1213281D02*
X1237650Y1207900D01*
X1239286Y1213281D02*
Y1207900D01*
X1242354Y1213281D02*
X1241945Y1213025D01*
X1241536Y1212512*
X1241536D02*
X1241331Y1212000D01*
X1241331D02*
X1241127Y1211231D01*
Y1209950*
X1241331Y1209181*
X1241331D02*
X1241536Y1208668D01*
X1241536D02*
X1241945Y1208156D01*
X1242354Y1207900*
X1242354D02*
X1243172D01*
X1243172D02*
X1243581Y1208156D01*
X1243581D02*
X1243990Y1208668D01*
X1243990D02*
X1244195Y1209181D01*
X1244400Y1209950*
Y1211231*
X1244195Y1212000*
X1243990Y1212512*
X1243990D02*
X1243581Y1213025D01*
X1243581D02*
X1243172Y1213281D01*
X1243172D02*
X1242354D01*
X1247672D02*
Y1207900D01*
X1246240Y1213281D02*
X1249104D01*
X1252172D02*
X1251763Y1213025D01*
X1251763D02*
X1251354Y1212512D01*
X1251354D02*
X1251150Y1212000D01*
X1250945Y1211231*
Y1209950*
X1251150Y1209181*
X1251354Y1208668*
X1251354D02*
X1251763Y1208156D01*
X1251763D02*
X1252172Y1207900D01*
X1252172D02*
X1252990D01*
X1252990D02*
X1253400Y1208156D01*
X1253809Y1208668*
X1253809D02*
X1254013Y1209181D01*
X1254013D02*
X1254218Y1209950D01*
Y1211231*
X1254013Y1212000*
X1254013D02*
X1253809Y1212512D01*
X1253809D02*
X1253400Y1213025D01*
X1252990Y1213281*
X1252990D02*
X1252172D01*
X1256059D02*
Y1207900D01*
Y1213281D02*
X1257900D01*
X1258513Y1213025*
X1258513D02*
X1258718Y1212768D01*
X1258718D02*
X1258922Y1212256D01*
X1258922D02*
Y1211743D01*
X1258922D02*
X1258718Y1211231D01*
X1258513Y1210975*
X1258513D02*
X1257900Y1210718D01*
X1257900D02*
X1256059D01*
X1257490D02*
X1258922Y1207900D01*
X1271672Y1210125D02*
Y1205400D01*
X1270400Y1210125D02*
X1272945D01*
X1274581D02*
Y1205400D01*
X1277127Y1210125D02*
Y1205400D01*
X1274581Y1207875D02*
X1277127D01*
X1278763Y1210125D02*
Y1205400D01*
Y1210125D02*
X1281127D01*
X1278763Y1207875D02*
X1280218D01*
X1278763Y1205400D02*
X1281127D01*
X1282763Y1210125D02*
Y1205400D01*
Y1210125D02*
X1284400D01*
X1284945Y1209900*
X1285127Y1209675*
X1285309Y1209225*
Y1208775*
X1285127Y1208325*
X1284945Y1208100*
X1284400Y1207875*
X1282763*
X1284036D02*
X1285309Y1205400D01*
X1286945Y1210125D02*
Y1205400D01*
Y1210125D02*
X1288400Y1205400D01*
X1289854Y1210125D02*
X1288400Y1205400D01*
X1289854Y1210125D02*
Y1205400D01*
X1291490Y1210125D02*
Y1205400D01*
X1295672Y1209450D02*
X1295309Y1209900D01*
X1294763Y1210125*
X1294763D02*
X1294036D01*
X1293490Y1209900*
X1293490D02*
X1293127Y1209450D01*
Y1209000*
X1293309Y1208550*
X1293490Y1208325*
X1293490D02*
X1293854Y1208100D01*
X1293854D02*
X1294945Y1207650D01*
X1295309Y1207425*
X1295490Y1207200*
X1295490D02*
X1295672Y1206750D01*
X1295672D02*
Y1206075D01*
X1295672D02*
X1295309Y1205625D01*
X1294763Y1205400*
X1294763D02*
X1294036D01*
X1293490Y1205625*
X1293490D02*
X1293127Y1206075D01*
X1298581Y1210125D02*
Y1205400D01*
X1297309Y1210125D02*
X1299854D01*
X1302581D02*
X1302218Y1209900D01*
X1301854Y1209450*
X1301854D02*
X1301672Y1209000D01*
X1301672D02*
X1301490Y1208325D01*
X1301490D02*
Y1207200D01*
X1301490D02*
X1301672Y1206525D01*
X1301672D02*
X1301854Y1206075D01*
X1301854D02*
X1302218Y1205625D01*
X1302581Y1205400*
X1302581D02*
X1303309D01*
X1303672Y1205625*
X1303672D02*
X1304036Y1206075D01*
X1304218Y1206525*
X1304400Y1207200*
Y1208325*
X1304218Y1209000*
X1304036Y1209450*
X1303672Y1209900*
X1303672D02*
X1303309Y1210125D01*
X1302581*
X1306036D02*
Y1205400D01*
Y1210125D02*
X1307672D01*
X1307672D02*
X1308218Y1209900D01*
X1308400Y1209675*
X1308581Y1209225*
X1308581D02*
Y1208775D01*
X1308581D02*
X1308400Y1208325D01*
X1308218Y1208100*
X1307672Y1207875*
X1307672D02*
X1306036D01*
X1307309D02*
X1308581Y1205400D01*
X1286490Y1197625D02*
X1286127Y1197400D01*
X1285763Y1196950*
X1285763D02*
X1285581Y1196500D01*
X1285581D02*
X1285400Y1195825D01*
Y1194700*
X1285581Y1194025*
X1285581D02*
X1285763Y1193575D01*
X1285763D02*
X1286127Y1193125D01*
X1286490Y1192900*
X1286490D02*
X1287218D01*
X1287581Y1193125*
X1287581D02*
X1287945Y1193575D01*
X1288127Y1194025*
X1288309Y1194700*
Y1195825*
X1288127Y1196500*
X1287945Y1196950*
X1287581Y1197400*
X1287581D02*
X1287218Y1197625D01*
X1286490*
X1289945D02*
Y1194250D01*
X1290127Y1193575*
X1290490Y1193125*
X1290490D02*
X1291036Y1192900D01*
X1291400*
X1291945Y1193125*
X1292309Y1193575*
X1292490Y1194250*
X1292490D02*
Y1197625D01*
X1295400D02*
Y1192900D01*
X1294127Y1197625D02*
X1296672D01*
X1242900Y1118937D02*
Y1112900D01*
X1246081Y1118937D02*
Y1112900D01*
X1242900Y1116062D02*
X1246081D01*
X1248127Y1118937D02*
Y1112900D01*
Y1118937D02*
X1251081D01*
X1248127Y1116062D02*
X1249945D01*
X1248127Y1112900D02*
X1251081D01*
X1254945Y1118937D02*
X1253127Y1112900D01*
X1254945Y1118937D02*
X1256763Y1112900D01*
X1253809Y1114912D02*
X1256081D01*
X1260400Y1118937D02*
Y1112900D01*
X1258809Y1118937D02*
X1261990D01*
X1264036D02*
Y1112900D01*
Y1118937D02*
X1266990D01*
X1264036Y1116062D02*
X1265854D01*
X1264036Y1112900D02*
X1266990D01*
X1269036Y1118937D02*
Y1112900D01*
Y1118937D02*
X1271081D01*
X1271081D02*
X1271763Y1118650D01*
X1271763D02*
X1271990Y1118362D01*
X1271990D02*
X1272218Y1117787D01*
X1272218D02*
Y1117212D01*
X1272218D02*
X1271990Y1116637D01*
X1271990D02*
X1271763Y1116350D01*
X1271763D02*
X1271081Y1116062D01*
X1271081D02*
X1269036D01*
X1270627D02*
X1272218Y1112900D01*
X1280854Y1118937D02*
X1280400Y1118650D01*
X1279945Y1118075*
X1279718Y1117500*
X1279490Y1116637*
X1279490D02*
Y1115200D01*
X1279490D02*
X1279718Y1114337D01*
X1279718D02*
X1279945Y1113762D01*
X1279945D02*
X1280400Y1113187D01*
X1280400D02*
X1280854Y1112900D01*
X1280854D02*
X1281763D01*
X1281763D02*
X1282218Y1113187D01*
X1282218D02*
X1282672Y1113762D01*
X1282672D02*
X1282900Y1114337D01*
X1282900D02*
X1283127Y1115200D01*
Y1116637*
X1283127D02*
X1282900Y1117500D01*
X1282672Y1118075*
X1282672D02*
X1282218Y1118650D01*
X1281763Y1118937*
X1281763D02*
X1280854D01*
X1285172D02*
Y1114625D01*
X1285172D02*
X1285400Y1113762D01*
X1285400D02*
X1285854Y1113187D01*
X1285854D02*
X1286536Y1112900D01*
X1286990*
X1286990D02*
X1287672Y1113187D01*
X1287672D02*
X1288127Y1113762D01*
X1288127D02*
X1288354Y1114625D01*
X1288354D02*
Y1118937D01*
X1291990D02*
Y1112900D01*
X1290400Y1118937D02*
X1293581D01*
X1277218Y1053937D02*
X1275400Y1047900D01*
X1277218Y1053937D02*
X1279036Y1047900D01*
X1276081Y1049912D02*
X1278354D01*
X1281081Y1053937D02*
Y1047900D01*
X1283127Y1053937D02*
Y1047900D01*
Y1053937D02*
X1285172D01*
X1285172D02*
X1285854Y1053650D01*
X1285854D02*
X1286081Y1053362D01*
X1286081D02*
X1286309Y1052787D01*
X1286309D02*
Y1052212D01*
X1286309D02*
X1286081Y1051637D01*
X1286081D02*
X1285854Y1051350D01*
X1285854D02*
X1285172Y1051062D01*
X1285172D02*
X1283127D01*
X1284718D02*
X1286309Y1047900D01*
X1296990Y1052500D02*
X1296763Y1053075D01*
X1296763D02*
X1296309Y1053650D01*
X1295854Y1053937*
X1295854D02*
X1294945D01*
X1294945D02*
X1294490Y1053650D01*
X1294490D02*
X1294036Y1053075D01*
X1293809Y1052500*
X1293581Y1051637*
X1293581D02*
Y1050200D01*
X1293581D02*
X1293809Y1049337D01*
X1293809D02*
X1294036Y1048762D01*
X1294036D02*
X1294490Y1048187D01*
X1294490D02*
X1294945Y1047900D01*
X1295854*
X1295854D02*
X1296309Y1048187D01*
X1296309D02*
X1296763Y1048762D01*
X1296763D02*
X1296990Y1049337D01*
X1299036Y1053937D02*
X1300854Y1051062D01*
X1300854D02*
Y1047900D01*
X1302672Y1053937D02*
X1300854Y1051062D01*
X1304718Y1053937D02*
Y1047900D01*
X1307445*
X1277900Y1038937D02*
Y1032900D01*
X1280627*
X1282672Y1038937D02*
Y1032900D01*
X1284718Y1038937D02*
Y1032900D01*
Y1038937D02*
X1286536Y1032900D01*
X1288354Y1038937D02*
X1286536Y1032900D01*
X1288354Y1038937D02*
Y1032900D01*
X1290400Y1038937D02*
Y1032900D01*
X1294036Y1038937D02*
Y1032900D01*
X1292445Y1038937D02*
X1295627D01*
X1300854Y1038075D02*
X1300400Y1038650D01*
X1299718Y1038937*
X1299718D02*
X1298809D01*
X1298809D02*
X1298127Y1038650D01*
X1297672Y1038075*
X1297672D02*
Y1037500D01*
X1297672D02*
X1297900Y1036925D01*
X1298127Y1036637*
X1298127D02*
X1298581Y1036350D01*
X1298581D02*
X1299945Y1035775D01*
X1300400Y1035487*
X1300400D02*
X1300627Y1035200D01*
X1300854Y1034625*
X1300854D02*
Y1033762D01*
X1300854D02*
X1300400Y1033187D01*
X1300400D02*
X1299718Y1032900D01*
X1298809*
X1298127Y1033187*
X1298127D02*
X1297672Y1033762D01*
X1274718Y888937D02*
X1272900Y882900D01*
X1274718Y888937D02*
X1276536Y882900D01*
X1273581Y884912D02*
X1275854D01*
X1278581Y888937D02*
Y882900D01*
X1280627Y888937D02*
Y882900D01*
Y888937D02*
X1282672D01*
X1282672D02*
X1283354Y888650D01*
X1283354D02*
X1283581Y888362D01*
X1283581D02*
X1283809Y887787D01*
X1283809D02*
Y887212D01*
X1283809D02*
X1283581Y886637D01*
X1283581D02*
X1283354Y886350D01*
X1283354D02*
X1282672Y886062D01*
X1282672D02*
X1280627D01*
X1282218D02*
X1283809Y882900D01*
X1294490Y887500D02*
X1294263Y888075D01*
X1294263D02*
X1293809Y888650D01*
X1293354Y888937*
X1293354D02*
X1292445D01*
X1292445D02*
X1291990Y888650D01*
X1291990D02*
X1291536Y888075D01*
X1291309Y887500*
X1291081Y886637*
X1291081D02*
Y885200D01*
X1291081D02*
X1291309Y884337D01*
X1291309D02*
X1291536Y883762D01*
X1291536D02*
X1291990Y883187D01*
X1291990D02*
X1292445Y882900D01*
X1293354*
X1293354D02*
X1293809Y883187D01*
X1293809D02*
X1294263Y883762D01*
X1294263D02*
X1294490Y884337D01*
X1296536Y888937D02*
X1298354Y886062D01*
X1298354D02*
Y882900D01*
X1300172Y888937D02*
X1298354Y886062D01*
X1302218Y888937D02*
Y882900D01*
X1304945*
X1275400Y873937D02*
Y867900D01*
Y873937D02*
X1276990D01*
X1276990D02*
X1277672Y873650D01*
X1277672D02*
X1278127Y873075D01*
X1278354Y872500*
X1278354D02*
X1278581Y871637D01*
X1278581D02*
Y870200D01*
X1278581D02*
X1278354Y869337D01*
X1278354D02*
X1278127Y868762D01*
X1278127D02*
X1277672Y868187D01*
X1277672D02*
X1276990Y867900D01*
X1276990D02*
X1275400D01*
X1280627Y873937D02*
Y867900D01*
Y873937D02*
X1282672D01*
X1282672D02*
X1283354Y873650D01*
X1283354D02*
X1283581Y873362D01*
X1283581D02*
X1283809Y872787D01*
X1283809D02*
Y872212D01*
X1283809D02*
X1283581Y871637D01*
X1283581D02*
X1283354Y871350D01*
X1283354D02*
X1282672Y871062D01*
X1282672D02*
X1280627D01*
X1282218D02*
X1283809Y867900D01*
X1285854Y873937D02*
Y867900D01*
X1287900Y873937D02*
X1289718Y867900D01*
X1291536Y873937D02*
X1289718Y867900D01*
X1293581Y873937D02*
Y867900D01*
Y873937D02*
X1296536D01*
X1293581Y871062D02*
X1295400D01*
X1293581Y867900D02*
X1296536D01*
X1273809Y962500D02*
X1273581Y963075D01*
X1273581D02*
X1273127Y963650D01*
X1272672Y963937*
X1272672D02*
X1271763D01*
X1271763D02*
X1271309Y963650D01*
X1270854Y963075*
X1270854D02*
X1270627Y962500D01*
X1270400Y961637*
X1270400D02*
Y960200D01*
X1270627Y959337*
X1270627D02*
X1270854Y958762D01*
X1270854D02*
X1271309Y958187D01*
X1271309D02*
X1271763Y957900D01*
X1271763D02*
X1272672D01*
X1272672D02*
X1273127Y958187D01*
X1273127D02*
X1273581Y958762D01*
X1273581D02*
X1273809Y959337D01*
X1277672Y963937D02*
X1275854Y957900D01*
X1277672Y963937D02*
X1279490Y957900D01*
X1276536Y959912D02*
X1278809D01*
X1281536Y963937D02*
Y957900D01*
Y963937D02*
X1283581D01*
X1283581D02*
X1284263Y963650D01*
X1284263D02*
X1284490Y963362D01*
X1284490D02*
X1284718Y962787D01*
X1284718D02*
Y962212D01*
X1284718D02*
X1284490Y961637D01*
X1284490D02*
X1284263Y961350D01*
X1284263D02*
X1283581Y961062D01*
X1283581D02*
X1281536D01*
X1283127D02*
X1284718Y957900D01*
X1288354Y963937D02*
Y957900D01*
X1286763Y963937D02*
X1289945D01*
X1291990D02*
Y957900D01*
Y963937D02*
X1294036D01*
X1294036D02*
X1294718Y963650D01*
X1294945Y963362*
X1294945D02*
X1295172Y962787D01*
X1295172D02*
Y962212D01*
X1295172D02*
X1294945Y961637D01*
X1294945D02*
X1294718Y961350D01*
X1294036Y961062*
X1294036D02*
X1291990D01*
X1293581D02*
X1295172Y957900D01*
X1297218Y963937D02*
Y957900D01*
X1299263Y963937D02*
Y957900D01*
Y963937D02*
X1300854D01*
X1300854D02*
X1301536Y963650D01*
X1301990Y963075*
X1301990D02*
X1302218Y962500D01*
X1302445Y961637*
X1302445D02*
Y960200D01*
X1302218Y959337*
X1302218D02*
X1301990Y958762D01*
X1301990D02*
X1301536Y958187D01*
X1301536D02*
X1300854Y957900D01*
X1300854D02*
X1299263D01*
X1307900Y962500D02*
X1307672Y963075D01*
X1307672D02*
X1307218Y963650D01*
X1306763Y963937*
X1306763D02*
X1305854D01*
X1305854D02*
X1305400Y963650D01*
X1304945Y963075*
X1304718Y962500*
X1304490Y961637*
X1304490D02*
Y960200D01*
X1304490D02*
X1304718Y959337D01*
X1304718D02*
X1304945Y958762D01*
X1304945D02*
X1305400Y958187D01*
X1305400D02*
X1305854Y957900D01*
X1305854D02*
X1306763D01*
X1306763D02*
X1307218Y958187D01*
X1307218D02*
X1307672Y958762D01*
X1307672D02*
X1307900Y959337D01*
X1307900D02*
Y960200D01*
X1306763D02*
X1307900D01*
X1309945Y963937D02*
Y957900D01*
Y963937D02*
X1312900D01*
X1309945Y961062D02*
X1311763D01*
X1309945Y957900D02*
X1312900D01*
X1276081Y948075D02*
X1275627Y948650D01*
X1274945Y948937*
X1274945D02*
X1274036D01*
X1274036D02*
X1273354Y948650D01*
X1273354D02*
X1272900Y948075D01*
Y947500*
X1273127Y946925*
X1273354Y946637*
X1273354D02*
X1273809Y946350D01*
X1275172Y945775*
X1275172D02*
X1275627Y945487D01*
X1275627D02*
X1275854Y945200D01*
X1275854D02*
X1276081Y944625D01*
X1276081D02*
Y943762D01*
X1276081D02*
X1275627Y943187D01*
X1275627D02*
X1274945Y942900D01*
X1274036*
X1273354Y943187*
X1273354D02*
X1272900Y943762D01*
X1278127Y948937D02*
Y942900D01*
Y948937D02*
X1281081D01*
X1278127Y946062D02*
X1279945D01*
X1278127Y942900D02*
X1281081D01*
X1283127Y948937D02*
Y942900D01*
Y948937D02*
X1286309Y942900D01*
Y948937D02*
Y942900D01*
X1291536Y948075D02*
X1291081Y948650D01*
X1291081D02*
X1290400Y948937D01*
X1290400D02*
X1289490D01*
X1289490D02*
X1288809Y948650D01*
X1288354Y948075*
X1288354D02*
Y947500D01*
X1288354D02*
X1288581Y946925D01*
X1288581D02*
X1288809Y946637D01*
X1288809D02*
X1289263Y946350D01*
X1289263D02*
X1290627Y945775D01*
X1291081Y945487*
X1291081D02*
X1291309Y945200D01*
X1291536Y944625*
Y943762*
X1291536D02*
X1291081Y943187D01*
X1291081D02*
X1290400Y942900D01*
X1289490*
X1289490D02*
X1288809Y943187D01*
X1288809D02*
X1288354Y943762D01*
X1294945Y948937D02*
X1294490Y948650D01*
X1294490D02*
X1294036Y948075D01*
X1293809Y947500*
X1293581Y946637*
X1293581D02*
Y945200D01*
X1293581D02*
X1293809Y944337D01*
X1293809D02*
X1294036Y943762D01*
X1294036D02*
X1294490Y943187D01*
X1294490D02*
X1294945Y942900D01*
X1295854*
X1295854D02*
X1296309Y943187D01*
X1296309D02*
X1296763Y943762D01*
X1296763D02*
X1296990Y944337D01*
X1296990D02*
X1297218Y945200D01*
Y946637*
X1297218D02*
X1296990Y947500D01*
X1296990D02*
X1296763Y948075D01*
X1296763D02*
X1296309Y948650D01*
X1295854Y948937*
X1295854D02*
X1294945D01*
X1299263D02*
Y942900D01*
Y948937D02*
X1301309D01*
X1301309D02*
X1301990Y948650D01*
X1301990D02*
X1302218Y948362D01*
X1302218D02*
X1302445Y947787D01*
X1302445D02*
Y947212D01*
X1302445D02*
X1302218Y946637D01*
X1302218D02*
X1301990Y946350D01*
X1301990D02*
X1301309Y946062D01*
X1301309D02*
X1299263D01*
X1300854D02*
X1302445Y942900D01*
X966044Y803449D02*
G75*
G03X967544Y804949I0J1500D01*
G01X972544Y819549D02*
G03X967544Y814549I0J-4999D01*
G01X967544D02*
Y804949D01*
X971708Y798500D02*
G03X970208Y799999I-1499J0D01*
G01X1181780D02*
G03X1180280Y798499I0J-1499D01*
G01Y776999D02*
Y798499D01*
X1179280Y775999D02*
G03X1180280Y777000I0J1001D01*
G01X971708D02*
G03X972708Y775999I1000J0D01*
G01X971708Y798499D02*
Y776999D01*
X974444Y825469D02*
Y819549D01*
X1177544D02*
Y825469D01*
X1078944D02*
Y827969D01*
X1073444D02*
Y825469D01*
X1002644D02*
Y827969D01*
X997144D02*
Y825469D01*
X1144344D02*
Y827969D01*
X1138844D02*
Y825469D01*
X1057144D02*
Y827969D01*
X1051644D02*
Y825469D01*
X1100744D02*
Y827969D01*
X1095244D02*
Y825469D01*
X1046244D02*
Y827969D01*
X1040744D02*
Y825469D01*
X1166144D02*
Y827969D01*
X1160644D02*
Y825469D01*
X1122544D02*
Y827969D01*
X1117044D02*
Y825469D01*
X1013544D02*
Y827969D01*
X1008044D02*
Y825469D01*
X1024444D02*
Y827969D01*
X1018944D02*
Y825469D01*
X1111644D02*
Y827969D01*
X1106144D02*
Y825469D01*
X1035344D02*
Y827969D01*
X1029844D02*
Y825469D01*
X991744D02*
Y827969D01*
X986244D02*
Y825469D01*
X1068044D02*
Y827969D01*
X1062544D02*
Y825469D01*
X1133444D02*
Y827969D01*
X1127944D02*
Y825469D01*
X1089844D02*
Y827969D01*
X1084344D02*
Y825469D01*
X1155244D02*
Y827969D01*
X1149744D02*
Y825469D01*
X947594Y803449D02*
Y799999D01*
X947594D02*
X944094D01*
X944094D02*
Y803449D01*
X944094D02*
X947594D01*
X1204394Y799999D02*
Y803449D01*
Y799999D02*
X947594D01*
X1204394Y803449D02*
X947594D01*
X1207894D02*
Y799999D01*
X1207894D02*
X1204394D01*
Y803449D02*
X1207894D01*
X1176944Y804949D02*
X1184444D01*
X1176944D02*
Y803449D01*
X975044Y804949D02*
X1176944D01*
X975044D02*
Y803449D01*
X1184444Y814549D02*
X1176944D01*
X1184444D02*
Y804949D01*
X1176944Y814549D02*
Y804949D01*
Y819549D02*
X1179436D01*
X1176944D02*
Y814549D01*
X1176944D02*
X975044D01*
X975044D02*
Y804949D01*
X972544Y819549D02*
X975044D01*
X975044D02*
Y814549D01*
Y819549D02*
X1176944D01*
X1172580Y799999D02*
Y798499D01*
X1172580D02*
X979408D01*
Y799999D02*
Y798499D01*
Y776999D02*
X1172580D01*
X1172580D02*
Y775999D01*
X1172580D02*
X979408D01*
Y776999D02*
Y775999D01*
X1172580Y776999D02*
Y798499D01*
X1179280Y775999D02*
X1172580D01*
X979408D02*
X972708D01*
X979408Y776999D02*
Y798499D01*
X974444Y825469D02*
X976944D01*
X976944D02*
Y819549D01*
Y825469D02*
X1175044D01*
X1175044D02*
Y819549D01*
Y825469D02*
X1177544D01*
X988218Y775799D02*
Y775999D01*
X987386Y775799D02*
X988218D01*
X987386D02*
Y775999D01*
X987064Y775799D02*
X987386D01*
X987064D02*
Y775999D01*
X991179Y775799D02*
Y775999D01*
X989256Y775799D02*
Y775999D01*
Y775799D02*
X991179D01*
X1162717D02*
Y775999D01*
X1162396Y775799D02*
Y775999D01*
Y775799D02*
X1162717D01*
X1163549D02*
Y775999D01*
X1162717Y775799D02*
X1163549D01*
X1073444Y827969D02*
X1078944D01*
X997144D02*
X1002644D01*
X1138844D02*
X1144344D01*
X1051644D02*
X1057144D01*
X1095244D02*
X1100744D01*
X1040744D02*
X1046244D01*
X1160644D02*
X1166144D01*
X1117044D02*
X1122544D01*
X1008044D02*
X1013544D01*
X1018944D02*
X1024444D01*
X1106144D02*
X1111644D01*
X1029844D02*
X1035344D01*
X986244D02*
X991744D01*
X1062544D02*
X1068044D01*
X1127944D02*
X1133444D01*
X1084344D02*
X1089844D01*
X1149744D02*
X1155244D01*
X1013544D02*
X1018944D01*
X1035344D02*
X1040744D01*
X1068044D02*
X1073444D01*
X1057144D02*
X1062544D01*
X1100744D02*
X1106144D01*
X1002644D02*
X1008044D01*
X1024444D02*
X1029844D01*
X1089844D02*
X1095244D01*
X1078944D02*
X1084344D01*
X1155244D02*
X1160644D01*
X991744D02*
X997144D01*
X1111644D02*
X1117044D01*
X1144344D02*
X1149744D01*
X1046244D02*
X1051644D01*
X1122544D02*
X1127944D01*
X1133444D02*
X1138844D01*
X1164241Y775799D02*
Y775999D01*
X1165102Y775799D02*
Y775999D01*
X1161462Y775799D02*
X1162294D01*
X1161462D02*
Y775999D01*
X1162294Y775799D02*
Y775999D01*
X1161140Y775799D02*
X1161462D01*
X1161140D02*
Y775999D01*
X988577Y775799D02*
Y775999D01*
X988303Y775799D02*
X988577D01*
X991722D02*
Y775999D01*
X1165256Y775799D02*
Y775999D01*
X991876Y775799D02*
Y775999D01*
X1165272Y775799D02*
Y775999D01*
X1165541Y775799D02*
Y775999D01*
X1165272Y775799D02*
X1165541D01*
X986841D02*
Y775999D01*
Y775799D02*
X987064D01*
X967544Y804949D02*
X975044D01*
Y814549D02*
X967544D01*
X979408Y798499D02*
X971708D01*
X1180280D02*
X1172580D01*
Y776999D02*
X1180280D01*
X971708D02*
X979408D01*
X1184455Y814549D02*
G03X1179455Y819549I-4999J0D01*
G01X1184455Y804949D02*
G03X1185955Y803449I1500J0D01*
G74*
G01X0Y0D02*
M02*
