*
*
G04 PADS Layout (Build Number 2005.103.1) generated Gerber (RS-274-X) file*
G04 PC Version=2.1*
*
%IN "7748.pcb"*%
*
%MOIN*%
*
%FSLAX35Y35*%
*
*
*
*
G04 PC Standard Apertures*
*
*
G04 Thermal Relief Aperture macro.*
%AMTER*
1,1,$1,0,0*
1,0,$1-$2,0,0*
21,0,$3,$4,0,0,45*
21,0,$3,$4,0,0,135*
%
*
*
G04 Annular Aperture macro.*
%AMANN*
1,1,$1,0,0*
1,0,$2,0,0*
%
*
*
G04 Odd Aperture macro.*
%AMODD*
1,1,$1,0,0*
1,0,$1-0.005,0,0*
%
*
*
G04 PC Custom Aperture Macros*
*
*
*
*
*
*
G04 PC Aperture Table*
*
%ADD052C,0.01*%
%ADD053C,0.02*%
%ADD054C,0.015*%
%ADD055C,0.001*%
*
*
*
*
G04 PC Custom Flashes*
G04 Layer Name 7748.pcb - flashes*
%LPD*%
*
*
G04 PC Circuitry*
G04 Layer Name 7748.pcb - circuitry*
%LPD*%
*
G54D52*
G01X807800Y832600D02*
X815800D01*
X811800Y828600D02*
Y836600D01*
X815618Y841162D02*
X813800Y834600D01*
X815618Y841162D02*
X817436Y834600D01*
X814481Y836787D02*
X816754D01*
X847200Y832600D02*
X855200D01*
X851200Y828600D02*
Y836600D01*
X855018Y841162D02*
X853200Y834600D01*
X855018Y841162D02*
X856836Y834600D01*
X853881Y836787D02*
X856154D01*
X847200Y903400D02*
X855200D01*
X851200Y899400D02*
Y907400D01*
X855018Y911962D02*
X853200Y905400D01*
X855018Y911962D02*
X856836Y905400D01*
X853881Y907587D02*
X856154D01*
X807800Y903400D02*
X815800D01*
X811800Y899400D02*
Y907400D01*
X815618Y911962D02*
X813800Y905400D01*
X815618Y911962D02*
X817436Y905400D01*
X814481Y907587D02*
X816754D01*
X847200Y859000D02*
X855200Y867000D01*
X847200D02*
X855200Y859000D01*
X847200Y869000D02*
X855200Y877000D01*
X847200D02*
X855200Y869000D01*
X806000Y804000D02*
X814000D01*
X810000Y800000D02*
Y808000D01*
X826000Y804000D02*
X834000D01*
X830000Y800000D02*
Y808000D01*
X816000Y804000D02*
X824000D01*
X820000Y800000D02*
Y808000D01*
X846000Y804000D02*
X854000D01*
X850000Y800000D02*
Y808000D01*
X836000Y804000D02*
X844000D01*
X840000Y800000D02*
Y808000D01*
X854500Y804000D02*
X862500D01*
X858500Y800000D02*
Y808000D01*
X800000Y806500D02*
X808000D01*
X804000Y802500D02*
Y810500D01*
X800000Y818500D02*
X808000D01*
X804000Y814500D02*
Y822500D01*
X826000Y808000D02*
X834000D01*
X830000Y804000D02*
Y812000D01*
X819500Y816500D02*
X827500D01*
X823500Y812500D02*
Y820500D01*
X832500Y816500D02*
X840500D01*
X836500Y812500D02*
Y820500D01*
X857000Y814000D02*
X865000D01*
X861000Y810000D02*
Y818000D01*
X811000Y844500D02*
X819000D01*
X815000Y840500D02*
Y848500D01*
X805000Y844500D02*
X813000D01*
X809000Y840500D02*
Y848500D01*
X816000Y844500D02*
X824000D01*
X820000Y840500D02*
Y848500D01*
X831000Y844500D02*
X839000D01*
X835000Y840500D02*
Y848500D01*
X819500Y828500D02*
X827500D01*
X823500Y824500D02*
Y832500D01*
X826000D02*
X834000D01*
X830000Y828500D02*
Y836500D01*
X835000Y843000D02*
X843000D01*
X839000Y839000D02*
Y847000D01*
X835000Y832000D02*
X843000D01*
X839000Y828000D02*
Y836000D01*
X832500Y828500D02*
X840500D01*
X836500Y824500D02*
Y832500D01*
X799500Y850000D02*
X807500D01*
X803500Y846000D02*
Y854000D01*
X799500Y860000D02*
X807500D01*
X803500Y856000D02*
Y864000D01*
X805000Y855500D02*
X813000D01*
X809000Y851500D02*
Y859500D01*
X811000Y854500D02*
X819000D01*
X815000Y850500D02*
Y858500D01*
X824000Y860000D02*
X832000D01*
X828000Y856000D02*
Y864000D01*
X824000Y865000D02*
X832000D01*
X828000Y861000D02*
Y869000D01*
Y864000D02*
X836000D01*
X832000Y860000D02*
Y868000D01*
X831000Y855500D02*
X839000D01*
X835000Y851500D02*
Y859500D01*
X857000Y860000D02*
X865000D01*
X861000Y856000D02*
Y864000D01*
X857000Y850000D02*
X865000D01*
X861000Y846000D02*
Y854000D01*
X799500Y870000D02*
X807500D01*
X803500Y866000D02*
Y874000D01*
X799500Y880000D02*
X807500D01*
X803500Y876000D02*
Y884000D01*
X811000Y879000D02*
X819000D01*
X815000Y875000D02*
Y883000D01*
X804500Y878500D02*
X812500D01*
X808500Y874500D02*
Y882500D01*
X829000Y876000D02*
X837000D01*
X833000Y872000D02*
Y880000D01*
Y876000D02*
X841000D01*
X837000Y872000D02*
Y880000D01*
X857000Y877500D02*
X865000D01*
X861000Y873500D02*
Y881500D01*
X857000Y870000D02*
X865000D01*
X861000Y866000D02*
Y874000D01*
X799500Y892000D02*
X807500D01*
X803500Y888000D02*
Y896000D01*
X804500Y891500D02*
X812500D01*
X808500Y887500D02*
Y895500D01*
X819500Y891500D02*
X827500D01*
X823500Y887500D02*
Y895500D01*
X816000Y891500D02*
X824000D01*
X820000Y887500D02*
Y895500D01*
X831000Y898000D02*
X839000D01*
X835000Y894000D02*
Y902000D01*
X857000Y892000D02*
X865000D01*
X861000Y888000D02*
Y896000D01*
X800000Y912500D02*
X808000D01*
X804000Y908500D02*
Y916500D01*
X810000Y915000D02*
X818000D01*
X814000Y911000D02*
Y919000D01*
X824500Y911000D02*
X832500D01*
X828500Y907000D02*
Y915000D01*
Y911000D02*
X836500D01*
X832500Y907000D02*
Y915000D01*
X815500D02*
X823500D01*
X819500Y911000D02*
Y919000D01*
X836500Y921500D02*
X844500D01*
X840500Y917500D02*
Y925500D01*
X836500Y926000D02*
X844500D01*
X840500Y922000D02*
Y930000D01*
X836500Y917000D02*
X844500D01*
X840500Y913000D02*
Y921000D01*
X832500Y911000D02*
X840500D01*
X836500Y907000D02*
Y915000D01*
X857000Y920000D02*
X865000D01*
X861000Y916000D02*
Y924000D01*
X808000Y936500D02*
X816000D01*
X812000Y932500D02*
Y940500D01*
X808000Y929000D02*
X816000D01*
X812000Y925000D02*
Y933000D01*
X819000Y936500D02*
X827000D01*
X823000Y932500D02*
Y940500D01*
X817000Y930000D02*
X825000D01*
X821000Y926000D02*
Y934000D01*
X828500Y942500D02*
X836500D01*
X832500Y938500D02*
Y946500D01*
X836500Y930000D02*
X844500D01*
X840500Y926000D02*
Y934000D01*
X850500Y928500D02*
X858500D01*
X854500Y924500D02*
Y932500D01*
X841500Y928500D02*
X849500D01*
X845500Y924500D02*
Y932500D01*
X846000Y928500D02*
X854000D01*
X850000Y924500D02*
Y932500D01*
X850500Y936000D02*
X858500D01*
X854500Y932000D02*
Y940000D01*
X841500Y936000D02*
X849500D01*
X845500Y932000D02*
Y940000D01*
X846000Y936000D02*
X854000D01*
X850000Y932000D02*
Y940000D01*
X857000D02*
X865000D01*
X861000Y936000D02*
Y944000D01*
X857000Y930000D02*
X865000D01*
X861000Y926000D02*
Y934000D01*
X808500Y953500D02*
X816500D01*
X812500Y949500D02*
Y957500D01*
X828500Y953500D02*
X836500D01*
X832500Y949500D02*
Y957500D01*
X818500Y953500D02*
X826500D01*
X822500Y949500D02*
Y957500D01*
X821000Y949500D02*
X829000D01*
X825000Y945500D02*
Y953500D01*
X848500D02*
X856500D01*
X852500Y949500D02*
Y957500D01*
X838500Y953500D02*
X846500D01*
X842500Y949500D02*
Y957500D01*
X836000Y949500D02*
X844000D01*
X840000Y945500D02*
Y953500D01*
X857000Y950000D02*
X865000D01*
X861000Y946000D02*
Y954000D01*
X800000Y800000D02*
X865000D01*
Y957500*
X800000*
Y800000*
X747500D02*
Y879500D01*
Y800000D02*
X745000Y810000D01*
X750000*
X747500Y800000*
Y957500D02*
Y896750D01*
Y957500D02*
X750000Y947500D01*
X745000*
X747500Y957500*
X795000Y800000D02*
X742500D01*
X792500Y957500D02*
X742500D01*
X733000Y890437D02*
X733681Y890875D01*
X733681D02*
X734704Y892187D01*
X734704D02*
Y883000D01*
X738113Y883875D02*
X737772Y883437D01*
X737772D02*
X738113Y883000D01*
X738113D02*
X738454Y883437D01*
X738454D02*
X738113Y883875D01*
X745954Y892187D02*
X742545D01*
X742545D02*
X742204Y888250D01*
X742204D02*
X742545Y888687D01*
X742545D02*
X743568Y889125D01*
X744590*
X744590D02*
X745613Y888687D01*
X745613D02*
X746295Y887812D01*
X746295D02*
X746636Y886500D01*
X746295Y885625*
X745954Y884312*
X745954D02*
X745272Y883437D01*
X745272D02*
X744250Y883000D01*
X743227*
X742204Y883437*
X742204D02*
X741863Y883875D01*
X741863D02*
X741522Y884750D01*
X754477Y892187D02*
X751068Y883000D01*
X749704Y892187D02*
X754477D01*
X761977D02*
X758568D01*
X758568D02*
X758227Y888250D01*
X758568Y888687*
X758568D02*
X759590Y889125D01*
X759590D02*
X760613D01*
X760613D02*
X761636Y888687D01*
X761636D02*
X762318Y887812D01*
X762318D02*
X762659Y886500D01*
X762318Y885625*
X761977Y884312*
X761977D02*
X761295Y883437D01*
X761295D02*
X760272Y883000D01*
X760272D02*
X759250D01*
X758227Y883437*
X758227D02*
X757886Y883875D01*
X757545Y884750*
X800000Y977500D02*
X785000D01*
X800000D02*
X790000Y975000D01*
Y980000*
X800000Y977500*
X865000D02*
X880000D01*
X865000D02*
X875000Y980000D01*
Y975000*
X865000Y977500*
X800000Y962500D02*
Y982500D01*
X865000Y962500D02*
Y982500D01*
X815045Y982187D02*
X814022Y981750D01*
X814022D02*
X813340Y980437D01*
X813340D02*
X813000Y978250D01*
Y976937*
X813000D02*
X813340Y974750D01*
X813340D02*
X814022Y973437D01*
X814022D02*
X815045Y973000D01*
X815727*
X816750Y973437*
X816750D02*
X817431Y974750D01*
X817431D02*
X817772Y976937D01*
X817772D02*
Y978250D01*
X817772D02*
X817431Y980437D01*
X817431D02*
X816750Y981750D01*
X815727Y982187*
X815727D02*
X815045D01*
X821181Y973875D02*
X820840Y973437D01*
X820840D02*
X821181Y973000D01*
X821181D02*
X821522Y973437D01*
X821522D02*
X821181Y973875D01*
X828681Y980875D02*
X828340Y981750D01*
X828340D02*
X827318Y982187D01*
X827318D02*
X826636D01*
X826636D02*
X825613Y981750D01*
X825613D02*
X824931Y980437D01*
X824931D02*
X824590Y978250D01*
X824590D02*
Y976062D01*
X824590D02*
X824931Y974312D01*
X824931D02*
X825613Y973437D01*
X825613D02*
X826636Y973000D01*
X826977*
X828000Y973437*
X828000D02*
X828681Y974312D01*
X828681D02*
X829022Y975625D01*
X829022D02*
Y976062D01*
X829022D02*
X828681Y977375D01*
X828681D02*
X828000Y978250D01*
X826977Y978687*
X826977D02*
X826636D01*
X826636D02*
X825613Y978250D01*
X825613D02*
X824931Y977375D01*
X824931D02*
X824590Y976062D01*
X836522Y982187D02*
X833113D01*
X833113D02*
X832772Y978250D01*
X832772D02*
X833113Y978687D01*
X833113D02*
X834136Y979125D01*
X835159*
X836181Y978687*
X836181D02*
X836863Y977812D01*
X836863D02*
X837204Y976500D01*
X837204D02*
X836863Y975625D01*
X836863D02*
X836522Y974312D01*
X836522D02*
X835840Y973437D01*
X835840D02*
X834818Y973000D01*
X833795*
X832772Y973437*
X832772D02*
X832431Y973875D01*
X832431D02*
X832090Y974750D01*
X842318Y982187D02*
X841295Y981750D01*
X840613Y980437*
X840613D02*
X840272Y978250D01*
X840272D02*
Y976937D01*
X840272D02*
X840613Y974750D01*
X840613D02*
X841295Y973437D01*
X841295D02*
X842318Y973000D01*
X843000*
X844022Y973437*
X844022D02*
X844704Y974750D01*
X844704D02*
X845045Y976937D01*
X845045D02*
Y978250D01*
X844704Y980437*
X844704D02*
X844022Y981750D01*
X844022D02*
X843000Y982187D01*
X843000D02*
X842318D01*
X811800Y760000D02*
X826800D01*
X811800D02*
X821800Y762500D01*
Y757500*
X811800Y760000*
X800000D02*
X785000D01*
X800000D02*
X790000Y757500D01*
Y762500*
X800000Y760000*
X811800Y826000D02*
Y755000D01*
X800000Y795000D02*
Y755000D01*
X756345Y765687D02*
X755322Y765250D01*
X755322D02*
X754640Y763937D01*
X754640D02*
X754300Y761750D01*
Y760437*
X754300D02*
X754640Y758250D01*
X754640D02*
X755322Y756937D01*
X755322D02*
X756345Y756500D01*
X757027*
X758050Y756937*
X758050D02*
X758731Y758250D01*
X758731D02*
X759072Y760437D01*
X759072D02*
Y761750D01*
X759072D02*
X758731Y763937D01*
X758731D02*
X758050Y765250D01*
X757027Y765687*
X757027D02*
X756345D01*
X762481Y757375D02*
X762140Y756937D01*
X762140D02*
X762481Y756500D01*
X762481D02*
X762822Y756937D01*
X762822D02*
X762481Y757375D01*
X765890Y763937D02*
X766572Y764375D01*
X766572D02*
X767595Y765687D01*
X767595D02*
Y756500D01*
X770663Y763937D02*
X771345Y764375D01*
X772368Y765687*
X772368D02*
Y756500D01*
X777140Y765687D02*
X776118Y765250D01*
X775777Y764375*
Y763500*
X776118Y762625*
X776800Y762187*
X776800D02*
X778163Y761750D01*
X778163D02*
X779186Y761312D01*
X779186D02*
X779868Y760437D01*
X779868D02*
X780209Y759562D01*
X780209D02*
Y758250D01*
X779868Y757375*
X779527Y756937*
X779527D02*
X778504Y756500D01*
X778504D02*
X777140D01*
X777140D02*
X776118Y756937D01*
X776118D02*
X775777Y757375D01*
X775436Y758250*
Y759562*
X775436D02*
X775777Y760437D01*
X775777D02*
X776459Y761312D01*
X776459D02*
X777481Y761750D01*
X777481D02*
X778845Y762187D01*
X778845D02*
X779527Y762625D01*
X779868Y763500*
Y764375*
X779527Y765250*
X778504Y765687*
X778504D02*
X777140D01*
X772500Y800000D02*
Y785000D01*
Y800000D02*
X775000Y790000D01*
X770000*
X772500Y800000*
Y832600D02*
Y847600D01*
Y832600D02*
X770000Y842600D01*
X775000*
X772500Y832600*
X804500D02*
X767500D01*
X757145Y824087D02*
X756122Y823650D01*
X756122D02*
X755440Y822337D01*
X755440D02*
X755100Y820150D01*
Y818837*
X755100D02*
X755440Y816650D01*
X755440D02*
X756122Y815337D01*
X756122D02*
X757145Y814900D01*
X757827*
X758850Y815337*
X758850D02*
X759531Y816650D01*
X759531D02*
X759872Y818837D01*
X759872D02*
Y820150D01*
X759872D02*
X759531Y822337D01*
X759531D02*
X758850Y823650D01*
X757827Y824087*
X757827D02*
X757145D01*
X763281Y815775D02*
X762940Y815337D01*
X762940D02*
X763281Y814900D01*
X763281D02*
X763622Y815337D01*
X763622D02*
X763281Y815775D01*
X767372Y824087D02*
X771122D01*
X771122D02*
X769077Y820587D01*
X769077D02*
X770100D01*
X770100D02*
X770781Y820150D01*
X770781D02*
X771122Y819712D01*
X771122D02*
X771463Y818400D01*
X771463D02*
Y817525D01*
X771463D02*
X771122Y816212D01*
X771122D02*
X770440Y815337D01*
X770440D02*
X769418Y814900D01*
X768395*
X767372Y815337*
X767372D02*
X767031Y815775D01*
X767031D02*
X766690Y816650D01*
X774872Y821900D02*
Y822337D01*
X774872D02*
X775213Y823212D01*
X775213D02*
X775554Y823650D01*
X775554D02*
X776236Y824087D01*
X776236D02*
X777600D01*
X777600D02*
X778281Y823650D01*
X778281D02*
X778622Y823212D01*
X778622D02*
X778963Y822337D01*
X778963D02*
Y821462D01*
X778963D02*
X778622Y820587D01*
X778622D02*
X777940Y819275D01*
X777940D02*
X774531Y814900D01*
X774531D02*
X779304D01*
X786463Y822775D02*
X786122Y823650D01*
X786122D02*
X785100Y824087D01*
X785100D02*
X784418D01*
X784418D02*
X783395Y823650D01*
X782713Y822337*
X782713D02*
X782372Y820150D01*
X782372D02*
Y817962D01*
X782372D02*
X782713Y816212D01*
X782713D02*
X783395Y815337D01*
X783395D02*
X784418Y814900D01*
X784759*
X785781Y815337*
X785781D02*
X786463Y816212D01*
X786463D02*
X786804Y817525D01*
X786804D02*
Y817962D01*
X786804D02*
X786463Y819275D01*
X786463D02*
X785781Y820150D01*
X785781D02*
X784759Y820587D01*
X784759D02*
X784418D01*
X784418D02*
X783395Y820150D01*
X782713Y819275*
X782713D02*
X782372Y817962D01*
G54D53*
X821000Y792812D02*
Y781000D01*
Y792812D02*
X824181D01*
X824181D02*
X825545Y792250D01*
X826454Y791125*
X826454D02*
X826909Y790000D01*
X827363Y788312*
X827363D02*
Y785500D01*
X827363D02*
X826909Y783812D01*
X826909D02*
X826454Y782687D01*
X826454D02*
X825545Y781562D01*
X825545D02*
X824181Y781000D01*
X824181D02*
X821000D01*
X831454Y792812D02*
Y781000D01*
Y792812D02*
X835545D01*
X835545D02*
X836909Y792250D01*
X837363Y791687*
X837363D02*
X837818Y790562D01*
X837818D02*
Y789437D01*
X837818D02*
X837363Y788312D01*
X837363D02*
X836909Y787750D01*
X835545Y787187*
X835545D02*
X831454D01*
X834636D02*
X837818Y781000D01*
X841909Y792812D02*
Y781000D01*
X846000Y792812D02*
Y781000D01*
X851454*
X855545Y792812D02*
Y781000D01*
X861000*
X875545Y792812D02*
Y781000D01*
Y792812D02*
X878727D01*
X878727D02*
X880090Y792250D01*
X880090D02*
X881000Y791125D01*
X881454Y790000*
X881454D02*
X881909Y788312D01*
X881909D02*
Y785500D01*
X881454Y783812*
X881454D02*
X881000Y782687D01*
X881000D02*
X880090Y781562D01*
X880090D02*
X878727Y781000D01*
X875545*
X886000Y792812D02*
Y781000D01*
Y792812D02*
X890090D01*
X890090D02*
X891454Y792250D01*
X891454D02*
X891909Y791687D01*
X891909D02*
X892363Y790562D01*
X892363D02*
Y789437D01*
X892363D02*
X891909Y788312D01*
X891909D02*
X891454Y787750D01*
X891454D02*
X890090Y787187D01*
X890090D02*
X886000D01*
X889181D02*
X892363Y781000D01*
X900090Y792812D02*
X896454Y781000D01*
X900090Y792812D02*
X903727Y781000D01*
X897818Y784937D02*
X902363D01*
X907818Y792812D02*
X910090Y781000D01*
X912363Y792812D02*
X910090Y781000D01*
X912363Y792812D02*
X914636Y781000D01*
X916909Y792812D02*
X914636Y781000D01*
X921000Y792812D02*
Y781000D01*
X925090Y792812D02*
Y781000D01*
Y792812D02*
X931454Y781000D01*
Y792812D02*
Y781000D01*
X942363Y790000D02*
X941909Y791125D01*
X941000Y792250*
X940090Y792812*
X940090D02*
X938272D01*
X938272D02*
X937363Y792250D01*
X937363D02*
X936454Y791125D01*
X936454D02*
X936000Y790000D01*
X935545Y788312*
X935545D02*
Y785500D01*
X936000Y783812*
X936000D02*
X936454Y782687D01*
X936454D02*
X937363Y781562D01*
X937363D02*
X938272Y781000D01*
X938272D02*
X940090D01*
X940090D02*
X941000Y781562D01*
X941000D02*
X941909Y782687D01*
X941909D02*
X942363Y783812D01*
X942363D02*
Y785500D01*
X940090D02*
X942363D01*
X831909Y767812D02*
X836909D01*
X836909D02*
X834181Y763312D01*
X834181D02*
X835545D01*
X835545D02*
X836454Y762750D01*
X836454D02*
X836909Y762187D01*
X836909D02*
X837363Y760500D01*
X837363D02*
Y759375D01*
X837363D02*
X836909Y757687D01*
X836909D02*
X836000Y756562D01*
X836000D02*
X834636Y756000D01*
X833272*
X833272D02*
X831909Y756562D01*
X831909D02*
X831454Y757125D01*
X831454D02*
X831000Y758250D01*
X841454Y765562D02*
X842363Y766125D01*
X842363D02*
X843727Y767812D01*
X843727D02*
Y756000D01*
X847818Y761062D02*
X856000D01*
X862818Y767812D02*
X861454Y767250D01*
X861454D02*
X860545Y765562D01*
X860545D02*
X860090Y762750D01*
X860090D02*
Y761062D01*
X860090D02*
X860545Y758250D01*
X861454Y756562*
X861454D02*
X862818Y756000D01*
X863727*
X865090Y756562*
X865090D02*
X866000Y758250D01*
X866454Y761062*
X866454D02*
Y762750D01*
X866454D02*
X866000Y765562D01*
X866000D02*
X865090Y767250D01*
X865090D02*
X863727Y767812D01*
X863727D02*
X862818D01*
X873272D02*
X871909Y767250D01*
X871000Y765562*
X871000D02*
X870545Y762750D01*
Y761062*
X870545D02*
X871000Y758250D01*
X871909Y756562*
X871909D02*
X873272Y756000D01*
X873272D02*
X874181D01*
X874181D02*
X875545Y756562D01*
X875545D02*
X876454Y758250D01*
X876454D02*
X876909Y761062D01*
X876909D02*
Y762750D01*
X876454Y765562*
X876454D02*
X875545Y767250D01*
X874181Y767812*
X874181D02*
X873272D01*
X883727D02*
X882363Y767250D01*
X882363D02*
X881454Y765562D01*
X881454D02*
X881000Y762750D01*
Y761062*
X881000D02*
X881454Y758250D01*
X881454D02*
X882363Y756562D01*
X882363D02*
X883727Y756000D01*
X884636*
X886000Y756562*
X886000D02*
X886909Y758250D01*
X887363Y761062*
X887363D02*
Y762750D01*
X887363D02*
X886909Y765562D01*
X886909D02*
X886000Y767250D01*
X884636Y767812*
X884636D02*
X883727D01*
X891909Y765000D02*
Y765562D01*
X891909D02*
X892363Y766687D01*
X892363D02*
X892818Y767250D01*
X893727Y767812*
X893727D02*
X895545D01*
X895545D02*
X896454Y767250D01*
X896454D02*
X896909Y766687D01*
X896909D02*
X897363Y765562D01*
X897363D02*
Y764437D01*
X897363D02*
X896909Y763312D01*
X896909D02*
X896000Y761625D01*
X891454Y756000*
X891454D02*
X897818D01*
X912363Y767812D02*
Y756000D01*
Y767812D02*
X916454D01*
X916454D02*
X917818Y767250D01*
X918272Y766687*
X918272D02*
X918727Y765562D01*
X918727D02*
Y764437D01*
X918727D02*
X918272Y763312D01*
X918272D02*
X917818Y762750D01*
X916454Y762187*
X916454D02*
X912363D01*
X915545D02*
X918727Y756000D01*
X922818Y767812D02*
Y756000D01*
Y767812D02*
X928727D01*
X922818Y762187D02*
X926454D01*
X922818Y756000D02*
X928727D01*
X932818Y767812D02*
X936454Y756000D01*
X940090Y767812D02*
X936454Y756000D01*
X954636Y765562D02*
X955545Y766125D01*
X956909Y767812*
X956909D02*
Y756000D01*
G54D54*
X638477Y697109D02*
X635750Y688250D01*
X638477Y697109D02*
X641204Y688250D01*
X636772Y691203D02*
X640181D01*
X644272Y697109D02*
Y688250D01*
X644272D02*
X648363D01*
X651431Y697109D02*
Y688250D01*
X651431D02*
X655522D01*
X666431Y697109D02*
Y688250D01*
X671204Y697109D02*
Y688250D01*
X666431Y692890D02*
X671204D01*
X676318Y697109D02*
X675636Y696687D01*
X675636D02*
X674954Y695843D01*
X674954D02*
X674613Y695000D01*
X674613D02*
X674272Y693734D01*
X674272D02*
Y691625D01*
X674272D02*
X674613Y690359D01*
X674613D02*
X674954Y689515D01*
X674954D02*
X675636Y688671D01*
X675636D02*
X676318Y688250D01*
X677681*
X677681D02*
X678363Y688671D01*
X678363D02*
X679045Y689515D01*
X679045D02*
X679386Y690359D01*
X679727Y691625*
Y693734*
X679386Y695000*
X679045Y695843*
X679045D02*
X678363Y696687D01*
X678363D02*
X677681Y697109D01*
X677681D02*
X676318D01*
X682795D02*
Y688250D01*
X686886*
X689954Y697109D02*
Y688250D01*
Y697109D02*
X694386D01*
X689954Y692890D02*
X692681D01*
X689954Y688250D02*
X694386D01*
X702227Y695843D02*
X701545Y696687D01*
X701545D02*
X700522Y697109D01*
X700522D02*
X699159D01*
X698136Y696687*
X698136D02*
X697454Y695843D01*
X697454D02*
Y695000D01*
X697454D02*
X697795Y694156D01*
X698136Y693734*
X698818Y693312*
X698818D02*
X700863Y692468D01*
X700863D02*
X701545Y692046D01*
X701545D02*
X701886Y691625D01*
X702227Y690781*
Y689515*
X702227D02*
X701545Y688671D01*
X701545D02*
X700522Y688250D01*
X700522D02*
X699159D01*
X698136Y688671*
X698136D02*
X697454Y689515D01*
X715522Y697109D02*
Y688250D01*
X713136Y697109D02*
X717909D01*
X723022D02*
X722340Y696687D01*
X722340D02*
X721659Y695843D01*
X721659D02*
X721318Y695000D01*
X720977Y693734*
Y691625*
X721318Y690359*
X721659Y689515*
X721659D02*
X722340Y688671D01*
X722340D02*
X723022Y688250D01*
X723022D02*
X724386D01*
X725068Y688671*
X725068D02*
X725750Y689515D01*
X725750D02*
X726090Y690359D01*
X726090D02*
X726431Y691625D01*
X726431D02*
Y693734D01*
X726431D02*
X726090Y695000D01*
X726090D02*
X725750Y695843D01*
X725750D02*
X725068Y696687D01*
X725068D02*
X724386Y697109D01*
X723022*
X737340D02*
Y688250D01*
Y697109D02*
X740409D01*
X741431Y696687*
X741431D02*
X741772Y696265D01*
X741772D02*
X742113Y695421D01*
X742113D02*
Y694578D01*
X742113D02*
X741772Y693734D01*
X741772D02*
X741431Y693312D01*
X741431D02*
X740409Y692890D01*
X737340D02*
X740409D01*
X740409D02*
X741431Y692468D01*
X741431D02*
X741772Y692046D01*
X741772D02*
X742113Y691203D01*
X742113D02*
Y689937D01*
X742113D02*
X741772Y689093D01*
X741772D02*
X741431Y688671D01*
X741431D02*
X740409Y688250D01*
X737340*
X745181Y697109D02*
Y688250D01*
Y697109D02*
X749613D01*
X745181Y692890D02*
X747909D01*
X745181Y688250D02*
X749613D01*
X760522Y697109D02*
Y688250D01*
Y697109D02*
X763590D01*
X763590D02*
X764613Y696687D01*
X764613D02*
X764954Y696265D01*
X764954D02*
X765295Y695421D01*
X765295D02*
Y694156D01*
X764954Y693312*
X764954D02*
X764613Y692890D01*
X764613D02*
X763590Y692468D01*
X763590D02*
X760522D01*
X768363Y697109D02*
Y688250D01*
X768363D02*
X772454D01*
X778250Y697109D02*
X775522Y688250D01*
X778250Y697109D02*
X780977Y688250D01*
X776545Y691203D02*
X779954D01*
X786431Y697109D02*
Y688250D01*
X784045Y697109D02*
X788818D01*
X791886D02*
Y688250D01*
Y697109D02*
X796318D01*
X791886Y692890D02*
X794613D01*
X791886Y688250D02*
X796318D01*
X799386Y697109D02*
Y688250D01*
Y697109D02*
X801772D01*
X801772D02*
X802795Y696687D01*
X802795D02*
X803477Y695843D01*
X803477D02*
X803818Y695000D01*
X804159Y693734*
Y691625*
X803818Y690359*
X803477Y689515*
X803477D02*
X802795Y688671D01*
X802795D02*
X801772Y688250D01*
X801772D02*
X799386D01*
X817454Y697109D02*
Y688250D01*
X815068Y697109D02*
X819840D01*
X822909D02*
Y688250D01*
X827681Y697109D02*
Y688250D01*
X822909Y692890D02*
X827681D01*
X830750Y697109D02*
Y688250D01*
Y697109D02*
X833818D01*
X834840Y696687*
X834840D02*
X835181Y696265D01*
X835181D02*
X835522Y695421D01*
X835522D02*
Y694578D01*
X835522D02*
X835181Y693734D01*
X835181D02*
X834840Y693312D01*
X834840D02*
X833818Y692890D01*
X833818D02*
X830750D01*
X833136D02*
X835522Y688250D01*
X838590Y697109D02*
Y690781D01*
X838590D02*
X838931Y689515D01*
X838931D02*
X839613Y688671D01*
X839613D02*
X840636Y688250D01*
X841318*
X842340Y688671*
X842340D02*
X843022Y689515D01*
X843022D02*
X843363Y690781D01*
X843363D02*
Y697109D01*
X854272D02*
X855977Y688250D01*
X857681Y697109D02*
X855977Y688250D01*
X857681Y697109D02*
X859386Y688250D01*
X861090Y697109D02*
X859386Y688250D01*
X864159Y697109D02*
Y688250D01*
X869613Y697109D02*
Y688250D01*
X867227Y697109D02*
X872000D01*
X875068D02*
Y688250D01*
X879840Y697109D02*
Y688250D01*
X875068Y692890D02*
X879840D01*
X893477Y697109D02*
X890750Y688250D01*
X893477Y697109D02*
X896204Y688250D01*
X891772Y691203D02*
X895181D01*
X907113Y697109D02*
Y688250D01*
Y697109D02*
X909840Y688250D01*
X912568Y697109D02*
X909840Y688250D01*
X912568Y697109D02*
Y688250D01*
X915636Y697109D02*
Y688250D01*
X918704Y697109D02*
Y688250D01*
Y697109D02*
X923477Y688250D01*
Y697109D02*
Y688250D01*
X926545Y697109D02*
Y688250D01*
X929613Y697109D02*
Y688250D01*
Y697109D02*
X932340Y688250D01*
X935068Y697109D02*
X932340Y688250D01*
X935068Y697109D02*
Y688250D01*
X938136Y697109D02*
Y690781D01*
X938477Y689515*
X938477D02*
X939159Y688671D01*
X939159D02*
X940181Y688250D01*
X940181D02*
X940863D01*
X940863D02*
X941886Y688671D01*
X941886D02*
X942568Y689515D01*
X942568D02*
X942909Y690781D01*
Y697109*
X945977D02*
Y688250D01*
Y697109D02*
X948704Y688250D01*
X951431Y697109D02*
X948704Y688250D01*
X951431Y697109D02*
Y688250D01*
X962340Y697109D02*
X964045Y688250D01*
X965750Y697109D02*
X964045Y688250D01*
X965750Y697109D02*
X967454Y688250D01*
X969159Y697109D02*
X967454Y688250D01*
X974954Y697109D02*
X972227Y688250D01*
X974954Y697109D02*
X977681Y688250D01*
X973250Y691203D02*
X976659D01*
X980750Y697109D02*
Y688250D01*
X984840*
X987909Y697109D02*
Y688250D01*
X992000*
X1005295Y697109D02*
Y688250D01*
X1002909Y697109D02*
X1007681D01*
X1010750D02*
Y688250D01*
X1015522Y697109D02*
Y688250D01*
X1010750Y692890D02*
X1015522D01*
X1018590Y697109D02*
Y688250D01*
X1026772Y695000D02*
X1026431Y695843D01*
X1026431D02*
X1025750Y696687D01*
X1025750D02*
X1025068Y697109D01*
X1023704*
X1023704D02*
X1023022Y696687D01*
X1023022D02*
X1022340Y695843D01*
X1022340D02*
X1022000Y695000D01*
X1021659Y693734*
Y691625*
X1022000Y690359*
X1022340Y689515*
X1022340D02*
X1023022Y688671D01*
X1023022D02*
X1023704Y688250D01*
X1023704D02*
X1025068D01*
X1025750Y688671*
X1025750D02*
X1026431Y689515D01*
X1026431D02*
X1026772Y690359D01*
X1029840Y697109D02*
Y688250D01*
X1034613Y697109D02*
X1029840Y691203D01*
X1031545Y693312D02*
X1034613Y688250D01*
X1037681Y697109D02*
Y688250D01*
Y697109D02*
X1042454Y688250D01*
Y697109D02*
Y688250D01*
X1045522Y697109D02*
Y688250D01*
Y697109D02*
X1049954D01*
X1045522Y692890D02*
X1048250D01*
X1045522Y688250D02*
X1049954D01*
X1057795Y695843D02*
X1057113Y696687D01*
X1057113D02*
X1056090Y697109D01*
X1056090D02*
X1054727D01*
X1053704Y696687*
X1053704D02*
X1053022Y695843D01*
X1053022D02*
Y695000D01*
X1053022D02*
X1053363Y694156D01*
X1053363D02*
X1053704Y693734D01*
X1053704D02*
X1054386Y693312D01*
X1054386D02*
X1056431Y692468D01*
X1056431D02*
X1057113Y692046D01*
X1057113D02*
X1057454Y691625D01*
X1057454D02*
X1057795Y690781D01*
Y689515*
X1057795D02*
X1057113Y688671D01*
X1057113D02*
X1056090Y688250D01*
X1056090D02*
X1054727D01*
X1053704Y688671*
X1053704D02*
X1053022Y689515D01*
X1065636Y695843D02*
X1064954Y696687D01*
X1064954D02*
X1063931Y697109D01*
X1063931D02*
X1062568D01*
X1061545Y696687*
X1061545D02*
X1060863Y695843D01*
X1060863D02*
Y695000D01*
X1060863D02*
X1061204Y694156D01*
X1061204D02*
X1061545Y693734D01*
X1062227Y693312*
X1062227D02*
X1064272Y692468D01*
X1064272D02*
X1064954Y692046D01*
X1064954D02*
X1065295Y691625D01*
X1065636Y690781*
Y689515*
X1065636D02*
X1064954Y688671D01*
X1064954D02*
X1063931Y688250D01*
X1063931D02*
X1062568D01*
X1061545Y688671*
X1061545D02*
X1060863Y689515D01*
X1078590Y697109D02*
X1077909Y696687D01*
X1077909D02*
X1077227Y695843D01*
X1077227D02*
X1076886Y695000D01*
X1076545Y693734*
Y691625*
X1076886Y690359*
X1077227Y689515*
X1077227D02*
X1077909Y688671D01*
X1077909D02*
X1078590Y688250D01*
X1078590D02*
X1079954D01*
X1079954D02*
X1080636Y688671D01*
X1080636D02*
X1081318Y689515D01*
X1081318D02*
X1081659Y690359D01*
X1082000Y691625*
Y693734*
X1081659Y695000*
X1081318Y695843*
X1081318D02*
X1080636Y696687D01*
X1080636D02*
X1079954Y697109D01*
X1079954D02*
X1078590D01*
X1085068D02*
Y688250D01*
Y697109D02*
X1089500D01*
X1085068Y692890D02*
X1087795D01*
X1102454Y697109D02*
X1101431Y696687D01*
X1101431D02*
X1100750Y695421D01*
X1100750D02*
X1100409Y693312D01*
X1100409D02*
Y692046D01*
X1100409D02*
X1100750Y689937D01*
X1100750D02*
X1101431Y688671D01*
X1101431D02*
X1102454Y688250D01*
X1102454D02*
X1103136D01*
X1104159Y688671*
X1104159D02*
X1104840Y689937D01*
X1104840D02*
X1105181Y692046D01*
X1105181D02*
Y693312D01*
X1105181D02*
X1104840Y695421D01*
X1104840D02*
X1104159Y696687D01*
X1104159D02*
X1103136Y697109D01*
X1102454*
X1108590Y689093D02*
X1108250Y688671D01*
X1108250D02*
X1108590Y688250D01*
X1108590D02*
X1108931Y688671D01*
X1108931D02*
X1108590Y689093D01*
X1114045Y697109D02*
X1113022Y696687D01*
X1113022D02*
X1112340Y695421D01*
X1112340D02*
X1112000Y693312D01*
X1112000D02*
Y692046D01*
X1112000D02*
X1112340Y689937D01*
X1112340D02*
X1113022Y688671D01*
X1113022D02*
X1114045Y688250D01*
X1114727*
X1115750Y688671*
X1115750D02*
X1116431Y689937D01*
X1116431D02*
X1116772Y692046D01*
X1116772D02*
Y693312D01*
X1116772D02*
X1116431Y695421D01*
X1116431D02*
X1115750Y696687D01*
X1115750D02*
X1114727Y697109D01*
X1114045*
X1121886D02*
X1120863Y696687D01*
X1120863D02*
X1120181Y695421D01*
X1120181D02*
X1119840Y693312D01*
X1119840D02*
Y692046D01*
X1119840D02*
X1120181Y689937D01*
X1120181D02*
X1120863Y688671D01*
X1120863D02*
X1121886Y688250D01*
X1122568*
X1123590Y688671*
X1123590D02*
X1124272Y689937D01*
X1124272D02*
X1124613Y692046D01*
X1124613D02*
Y693312D01*
X1124613D02*
X1124272Y695421D01*
X1124272D02*
X1123590Y696687D01*
X1123590D02*
X1122568Y697109D01*
X1121886*
X1127681Y695421D02*
X1128363Y695843D01*
X1128363D02*
X1129386Y697109D01*
Y688250*
X1132795Y689093D02*
X1132454Y688671D01*
X1132454D02*
X1132795Y688250D01*
X1133136Y688671*
X1133136D02*
X1132795Y689093D01*
X635750Y602109D02*
X637454Y593250D01*
X639159Y602109D02*
X637454Y593250D01*
X639159Y602109D02*
X640863Y593250D01*
X642568Y602109D02*
X640863Y593250D01*
X645636Y602109D02*
Y593250D01*
X650409Y602109D02*
Y593250D01*
X645636Y597890D02*
X650409D01*
X653477Y602109D02*
Y593250D01*
X658931Y602109D02*
Y593250D01*
X656545Y602109D02*
X661318D01*
X664386D02*
Y593250D01*
Y602109D02*
X668818D01*
X664386Y597890D02*
X667113D01*
X664386Y593250D02*
X668818D01*
X679727Y602109D02*
Y593250D01*
Y602109D02*
X684159D01*
X679727Y597890D02*
X682454D01*
X679727Y593250D02*
X684159D01*
X687227Y602109D02*
Y593250D01*
Y602109D02*
X690295D01*
X691318Y601687*
X691318D02*
X691659Y601265D01*
X691659D02*
X692000Y600421D01*
X692000D02*
Y599156D01*
X691659Y598312*
X691659D02*
X691318Y597890D01*
X691318D02*
X690295Y597468D01*
X690295D02*
X687227D01*
X697113Y602109D02*
X696431Y601687D01*
X696431D02*
X695750Y600843D01*
X695750D02*
X695409Y600000D01*
X695068Y598734*
Y596625*
X695409Y595359*
X695750Y594515*
X695750D02*
X696431Y593671D01*
X696431D02*
X697113Y593250D01*
X697113D02*
X698477D01*
X699159Y593671*
X699159D02*
X699840Y594515D01*
X699840D02*
X700181Y595359D01*
X700181D02*
X700522Y596625D01*
X700522D02*
Y598734D01*
X700522D02*
X700181Y600000D01*
X700181D02*
X699840Y600843D01*
X699840D02*
X699159Y601687D01*
X699159D02*
X698477Y602109D01*
X697113*
X703590D02*
X708363Y593250D01*
Y602109D02*
X703590Y593250D01*
X711431Y602109D02*
X714159Y597890D01*
X714159D02*
Y593250D01*
X716886Y602109D02*
X714159Y597890D01*
X730181Y603796D02*
X729500Y602953D01*
X728818Y601687*
X728818D02*
X728136Y600000D01*
X727795Y597890*
X727795D02*
Y596203D01*
X728136Y594093*
X728136D02*
X728818Y592406D01*
X729500Y591140*
X729500D02*
X730181Y590296D01*
X738363Y600000D02*
X738022Y600843D01*
X738022D02*
X737340Y601687D01*
X737340D02*
X736659Y602109D01*
X735295*
X734613Y601687*
X734613D02*
X733931Y600843D01*
X733931D02*
X733590Y600000D01*
X733590D02*
X733250Y598734D01*
Y596625*
X733590Y595359*
X733590D02*
X733931Y594515D01*
X733931D02*
X734613Y593671D01*
X734613D02*
X735295Y593250D01*
X736659*
X737340Y593671*
X737340D02*
X738022Y594515D01*
X738022D02*
X738363Y595359D01*
X741431Y602109D02*
Y593250D01*
X746204Y602109D02*
Y593250D01*
X741431Y597890D02*
X746204D01*
X749272Y602109D02*
Y593250D01*
Y602109D02*
X753704D01*
X749272Y597890D02*
X752000D01*
X749272Y593250D02*
X753704D01*
X756772Y602109D02*
Y593250D01*
Y602109D02*
X759500Y593250D01*
X762227Y602109D02*
X759500Y593250D01*
X762227Y602109D02*
Y593250D01*
X765295Y602109D02*
Y593250D01*
X773477Y600000D02*
X773136Y600843D01*
X773136D02*
X772454Y601687D01*
X772454D02*
X771772Y602109D01*
X771772D02*
X770409D01*
X769727Y601687*
X769727D02*
X769045Y600843D01*
X769045D02*
X768704Y600000D01*
X768704D02*
X768363Y598734D01*
X768363D02*
Y596625D01*
X768363D02*
X768704Y595359D01*
X768704D02*
X769045Y594515D01*
X769045D02*
X769727Y593671D01*
X769727D02*
X770409Y593250D01*
X771772*
X771772D02*
X772454Y593671D01*
X772454D02*
X773136Y594515D01*
X773136D02*
X773477Y595359D01*
X779272Y602109D02*
X776545Y593250D01*
X779272Y602109D02*
X782000Y593250D01*
X777568Y596203D02*
X780977D01*
X785068Y602109D02*
Y593250D01*
X789159*
X802795Y602109D02*
X800068Y593250D01*
X802795Y602109D02*
X805522Y593250D01*
X801090Y596203D02*
X804500D01*
X808590Y602109D02*
Y593250D01*
Y602109D02*
X813363Y593250D01*
Y602109D02*
Y593250D01*
X816431Y602109D02*
Y593250D01*
Y602109D02*
X818818D01*
X819840Y601687*
X819840D02*
X820522Y600843D01*
X820522D02*
X820863Y600000D01*
X820863D02*
X821204Y598734D01*
X821204D02*
Y596625D01*
X821204D02*
X820863Y595359D01*
X820863D02*
X820522Y594515D01*
X820522D02*
X819840Y593671D01*
X819840D02*
X818818Y593250D01*
X816431*
X836886Y600843D02*
X836204Y601687D01*
X836204D02*
X835181Y602109D01*
X835181D02*
X833818D01*
X832795Y601687*
X832795D02*
X832113Y600843D01*
X832113D02*
Y600000D01*
X832113D02*
X832454Y599156D01*
X832454D02*
X832795Y598734D01*
X833477Y598312*
X833477D02*
X835522Y597468D01*
X835522D02*
X836204Y597046D01*
X836204D02*
X836545Y596625D01*
X836886Y595781*
Y594515*
X836886D02*
X836204Y593671D01*
X836204D02*
X835181Y593250D01*
X835181D02*
X833818D01*
X832795Y593671*
X832795D02*
X832113Y594515D01*
X845068Y600000D02*
X844727Y600843D01*
X844727D02*
X844045Y601687D01*
X844045D02*
X843363Y602109D01*
X843363D02*
X842000D01*
X841318Y601687*
X841318D02*
X840636Y600843D01*
X840636D02*
X840295Y600000D01*
X839954Y598734*
X839954D02*
Y596625D01*
X839954D02*
X840295Y595359D01*
X840636Y594515*
X840636D02*
X841318Y593671D01*
X841318D02*
X842000Y593250D01*
X843363*
X843363D02*
X844045Y593671D01*
X844045D02*
X844727Y594515D01*
X844727D02*
X845068Y595359D01*
X848136Y602109D02*
Y593250D01*
Y602109D02*
X851204D01*
X851204D02*
X852227Y601687D01*
X852227D02*
X852568Y601265D01*
X852568D02*
X852909Y600421D01*
X852909D02*
Y599578D01*
X852568Y598734*
X852227Y598312*
X852227D02*
X851204Y597890D01*
X851204D02*
X848136D01*
X850522D02*
X852909Y593250D01*
X858704Y602109D02*
X855977Y593250D01*
X858704Y602109D02*
X861431Y593250D01*
X857000Y596203D02*
X860409D01*
X866886Y602109D02*
Y593250D01*
X864500Y602109D02*
X869272D01*
X877454Y600000D02*
X877113Y600843D01*
X877113D02*
X876431Y601687D01*
X876431D02*
X875750Y602109D01*
X874386*
X873704Y601687*
X873704D02*
X873022Y600843D01*
X873022D02*
X872681Y600000D01*
X872681D02*
X872340Y598734D01*
X872340D02*
Y596625D01*
X872340D02*
X872681Y595359D01*
X872681D02*
X873022Y594515D01*
X873022D02*
X873704Y593671D01*
X873704D02*
X874386Y593250D01*
X875750*
X876431Y593671*
X876431D02*
X877113Y594515D01*
X877113D02*
X877454Y595359D01*
X880522Y602109D02*
Y593250D01*
X885295Y602109D02*
Y593250D01*
X880522Y597890D02*
X885295D01*
X896204Y602109D02*
Y593250D01*
Y602109D02*
X899272D01*
X899272D02*
X900295Y601687D01*
X900295D02*
X900636Y601265D01*
X900636D02*
X900977Y600421D01*
X900977D02*
Y599578D01*
X900636Y598734*
X900295Y598312*
X900295D02*
X899272Y597890D01*
X899272D02*
X896204D01*
X898590D02*
X900977Y593250D01*
X904045Y602109D02*
Y593250D01*
Y602109D02*
X908477D01*
X904045Y597890D02*
X906772D01*
X904045Y593250D02*
X908477D01*
X916318Y600843D02*
X915636Y601687D01*
X915636D02*
X914613Y602109D01*
X914613D02*
X913250D01*
X912227Y601687*
X912227D02*
X911545Y600843D01*
X911545D02*
Y600000D01*
X911886Y599156*
X912227Y598734*
X912909Y598312*
X912909D02*
X914954Y597468D01*
X914954D02*
X915636Y597046D01*
X915636D02*
X915977Y596625D01*
X916318Y595781*
Y594515*
X916318D02*
X915636Y593671D01*
X915636D02*
X914613Y593250D01*
X914613D02*
X913250D01*
X912227Y593671*
X912227D02*
X911545Y594515D01*
X919386Y602109D02*
Y593250D01*
X927227Y600843D02*
X926545Y601687D01*
X926545D02*
X925522Y602109D01*
X925522D02*
X924159D01*
X923136Y601687*
X923136D02*
X922454Y600843D01*
X922454D02*
Y600000D01*
X922454D02*
X922795Y599156D01*
X923136Y598734*
X923818Y598312*
X923818D02*
X925863Y597468D01*
X925863D02*
X926545Y597046D01*
X926545D02*
X926886Y596625D01*
X927227Y595781*
Y594515*
X927227D02*
X926545Y593671D01*
X926545D02*
X925522Y593250D01*
X925522D02*
X924159D01*
X923136Y593671*
X923136D02*
X922454Y594515D01*
X932681Y602109D02*
Y593250D01*
X930295Y602109D02*
X935068D01*
X940863D02*
X938136Y593250D01*
X940863Y602109D02*
X943590Y593250D01*
X939159Y596203D02*
X942568D01*
X946659Y602109D02*
Y593250D01*
Y602109D02*
X951431Y593250D01*
Y602109D02*
Y593250D01*
X956886Y602109D02*
Y593250D01*
X954500Y602109D02*
X959272D01*
X962340Y603796D02*
X963022Y602953D01*
X963022D02*
X963704Y601687D01*
X963704D02*
X964386Y600000D01*
X964727Y597890*
X964727D02*
Y596203D01*
X964386Y594093*
X964386D02*
X963704Y592406D01*
X963704D02*
X963022Y591140D01*
X963022D02*
X962340Y590296D01*
X968136Y594093D02*
X967795Y593671D01*
X967795D02*
X968136Y593250D01*
X968477Y593671*
X968477D02*
X968136Y594093D01*
X635750Y722109D02*
Y713250D01*
Y722109D02*
X638477Y713250D01*
X641204Y722109D02*
X638477Y713250D01*
X641204Y722109D02*
Y713250D01*
X647000Y722109D02*
X644272Y713250D01*
X647000Y722109D02*
X649727Y713250D01*
X645295Y716203D02*
X648704D01*
X655181Y722109D02*
Y713250D01*
X652795Y722109D02*
X657568D01*
X660636D02*
Y719156D01*
X664386Y722109D02*
Y713250D01*
X668477*
X671886Y719156D02*
X671545Y718734D01*
X671886Y718312*
X671886D02*
X672227Y718734D01*
X671886Y719156*
Y714093D02*
X671545Y713671D01*
X671545D02*
X671886Y713250D01*
X672227Y713671*
X672227D02*
X671886Y714093D01*
X685181Y722109D02*
X684159Y721687D01*
X684159D02*
X683477Y720421D01*
X683477D02*
X683136Y718312D01*
X683136D02*
Y717046D01*
X683136D02*
X683477Y714937D01*
X683477D02*
X684159Y713671D01*
X684159D02*
X685181Y713250D01*
X685181D02*
X685863D01*
X685863D02*
X686886Y713671D01*
X686886D02*
X687568Y714937D01*
X687568D02*
X687909Y717046D01*
X687909D02*
Y718312D01*
X687909D02*
X687568Y720421D01*
X687568D02*
X686886Y721687D01*
X686886D02*
X685863Y722109D01*
X685863D02*
X685181D01*
X691318Y714093D02*
X690977Y713671D01*
X690977D02*
X691318Y713250D01*
X691659Y713671*
X691659D02*
X691318Y714093D01*
X696772Y722109D02*
X695750Y721687D01*
X695750D02*
X695068Y720421D01*
X695068D02*
X694727Y718312D01*
X694727D02*
Y717046D01*
X694727D02*
X695068Y714937D01*
X695068D02*
X695750Y713671D01*
X695750D02*
X696772Y713250D01*
X696772D02*
X697454D01*
X697454D02*
X698477Y713671D01*
X698477D02*
X699159Y714937D01*
X699159D02*
X699500Y717046D01*
X699500D02*
Y718312D01*
X699500D02*
X699159Y720421D01*
X699159D02*
X698477Y721687D01*
X698477D02*
X697454Y722109D01*
X697454D02*
X696772D01*
X706659Y720843D02*
X706318Y721687D01*
X706318D02*
X705295Y722109D01*
X704613*
X704613D02*
X703590Y721687D01*
X703590D02*
X702909Y720421D01*
X702909D02*
X702568Y718312D01*
X702568D02*
Y716203D01*
X702909Y714515*
X702909D02*
X703590Y713671D01*
X703590D02*
X704613Y713250D01*
X704613D02*
X704954D01*
X704954D02*
X705977Y713671D01*
X705977D02*
X706659Y714515D01*
X706659D02*
X707000Y715781D01*
Y716203*
X706659Y717468*
X706659D02*
X705977Y718312D01*
X705977D02*
X704954Y718734D01*
X704954D02*
X704613D01*
X704613D02*
X703590Y718312D01*
X703590D02*
X702909Y717468D01*
X702909D02*
X702568Y716203D01*
X710409Y720000D02*
Y720421D01*
X710409D02*
X710750Y721265D01*
X710750D02*
X711090Y721687D01*
X711090D02*
X711772Y722109D01*
X711772D02*
X713136D01*
X713818Y721687*
X713818D02*
X714159Y721265D01*
X714159D02*
X714500Y720421D01*
X714500D02*
Y719578D01*
X714159Y718734*
X713477Y717468*
X713477D02*
X710068Y713250D01*
X714840*
X728136Y722109D02*
Y713250D01*
X725750Y722109D02*
X730522D01*
X733590D02*
Y713250D01*
X738363Y722109D02*
Y713250D01*
X733590Y717890D02*
X738363D01*
X741431Y722109D02*
Y713250D01*
X746204Y722109D02*
X741431Y716203D01*
X743136Y718312D02*
X746204Y713250D01*
X749613Y714093D02*
X749272Y713671D01*
X749272D02*
X749613Y713250D01*
X749613D02*
X749954Y713671D01*
X749954D02*
X749613Y714093D01*
X760863Y722109D02*
Y713250D01*
Y722109D02*
X765295D01*
X760863Y717890D02*
X763590D01*
X768363Y722109D02*
Y713250D01*
Y722109D02*
X771431D01*
X771431D02*
X772454Y721687D01*
X772454D02*
X772795Y721265D01*
X772795D02*
X773136Y720421D01*
X773136D02*
Y719578D01*
X772795Y718734*
X772454Y718312*
X772454D02*
X771431Y717890D01*
X771431D02*
X768363D01*
X770750D02*
X773136Y713250D01*
X779613Y722109D02*
X776204Y716203D01*
X776204D02*
X781318D01*
X779613Y722109D02*
Y713250D01*
X797340Y720000D02*
X797000Y720843D01*
X797000D02*
X796318Y721687D01*
X796318D02*
X795636Y722109D01*
X794272*
X794272D02*
X793590Y721687D01*
X793590D02*
X792909Y720843D01*
X792909D02*
X792568Y720000D01*
X792227Y718734*
Y716625*
X792568Y715359*
X792909Y714515*
X792909D02*
X793590Y713671D01*
X793590D02*
X794272Y713250D01*
X794272D02*
X795636D01*
X796318Y713671*
X796318D02*
X797000Y714515D01*
X797000D02*
X797340Y715359D01*
X802454Y722109D02*
X801772Y721687D01*
X801772D02*
X801090Y720843D01*
X801090D02*
X800750Y720000D01*
X800409Y718734*
Y716625*
X800750Y715359*
X801090Y714515*
X801090D02*
X801772Y713671D01*
X801772D02*
X802454Y713250D01*
X802454D02*
X803818D01*
X804500Y713671*
X804500D02*
X805181Y714515D01*
X805181D02*
X805522Y715359D01*
X805522D02*
X805863Y716625D01*
X805863D02*
Y718734D01*
X805863D02*
X805522Y720000D01*
X805522D02*
X805181Y720843D01*
X805181D02*
X804500Y721687D01*
X804500D02*
X803818Y722109D01*
X802454*
X808931D02*
Y713250D01*
Y722109D02*
X812000D01*
X813022Y721687*
X813022D02*
X813363Y721265D01*
X813363D02*
X813704Y720421D01*
X813704D02*
Y719156D01*
X813704D02*
X813363Y718312D01*
X813363D02*
X813022Y717890D01*
X813022D02*
X812000Y717468D01*
X812000D02*
X808931D01*
X816772Y722109D02*
Y713250D01*
Y722109D02*
X819840D01*
X819840D02*
X820863Y721687D01*
X820863D02*
X821204Y721265D01*
X821204D02*
X821545Y720421D01*
X821545D02*
Y719156D01*
X821204Y718312*
X821204D02*
X820863Y717890D01*
X820863D02*
X819840Y717468D01*
X819840D02*
X816772D01*
X824613Y722109D02*
Y713250D01*
Y722109D02*
X829045D01*
X824613Y717890D02*
X827340D01*
X824613Y713250D02*
X829045D01*
X832113Y722109D02*
Y713250D01*
Y722109D02*
X835181D01*
X835181D02*
X836204Y721687D01*
X836204D02*
X836545Y721265D01*
X836545D02*
X836886Y720421D01*
X836886D02*
Y719578D01*
X836545Y718734*
X836204Y718312*
X836204D02*
X835181Y717890D01*
X835181D02*
X832113D01*
X834500D02*
X836886Y713250D01*
X845068Y720000D02*
X844727Y720843D01*
X844727D02*
X844045Y721687D01*
X844045D02*
X843363Y722109D01*
X843363D02*
X842000D01*
X841318Y721687*
X841318D02*
X840636Y720843D01*
X840636D02*
X840295Y720000D01*
X839954Y718734*
X839954D02*
Y716625D01*
X839954D02*
X840295Y715359D01*
X840636Y714515*
X840636D02*
X841318Y713671D01*
X841318D02*
X842000Y713250D01*
X843363*
X843363D02*
X844045Y713671D01*
X844045D02*
X844727Y714515D01*
X844727D02*
X845068Y715359D01*
X848136Y722109D02*
Y713250D01*
X852227*
X858022Y722109D02*
X855295Y713250D01*
X858022Y722109D02*
X860750Y713250D01*
X856318Y716203D02*
X859727D01*
X863818Y722109D02*
Y713250D01*
Y722109D02*
X866204D01*
X866204D02*
X867227Y721687D01*
X867227D02*
X867909Y720843D01*
X867909D02*
X868250Y720000D01*
X868590Y718734*
X868590D02*
Y716625D01*
X868590D02*
X868250Y715359D01*
X867909Y714515*
X867909D02*
X867227Y713671D01*
X867227D02*
X866204Y713250D01*
X866204D02*
X863818D01*
X879500Y722109D02*
Y713250D01*
X883590*
X889386Y722109D02*
X886659Y713250D01*
X889386Y722109D02*
X892113Y713250D01*
X887681Y716203D02*
X891090D01*
X895181Y722109D02*
Y713250D01*
Y722109D02*
X897909Y713250D01*
X900636Y722109D02*
X897909Y713250D01*
X900636Y722109D02*
Y713250D01*
X903704Y722109D02*
Y713250D01*
X906772Y722109D02*
Y713250D01*
Y722109D02*
X911545Y713250D01*
Y722109D02*
Y713250D01*
X917340Y722109D02*
X914613Y713250D01*
X917340Y722109D02*
X920068Y713250D01*
X915636Y716203D02*
X919045D01*
X925522Y722109D02*
Y713250D01*
X923136Y722109D02*
X927909D01*
X930977D02*
Y713250D01*
Y722109D02*
X935409D01*
X930977Y717890D02*
X933704D01*
X930977Y713250D02*
X935409D01*
X938818Y714093D02*
X938477Y713671D01*
X938477D02*
X938818Y713250D01*
X939159Y713671*
X939159D02*
X938818Y714093D01*
X615750Y720421D02*
X616431Y720843D01*
X616431D02*
X617454Y722109D01*
X617454D02*
Y713250D01*
X620863Y714093D02*
X620522Y713671D01*
X620522D02*
X620863Y713250D01*
X620863D02*
X621204Y713671D01*
X621204D02*
X620863Y714093D01*
X616090Y695000D02*
Y695421D01*
X616090D02*
X616431Y696265D01*
X616431D02*
X616772Y696687D01*
X616772D02*
X617454Y697109D01*
X617454D02*
X618818D01*
X619500Y696687*
X619500D02*
X619840Y696265D01*
X619840D02*
X620181Y695421D01*
X620181D02*
Y694578D01*
X620181D02*
X619840Y693734D01*
X619840D02*
X619159Y692468D01*
X619159D02*
X615750Y688250D01*
X620522*
X623931Y689093D02*
X623590Y688671D01*
X623590D02*
X623931Y688250D01*
X623931D02*
X624272Y688671D01*
X624272D02*
X623931Y689093D01*
X616431Y672109D02*
X620181D01*
X620181D02*
X618136Y668734D01*
X619159*
X619840Y668312*
X619840D02*
X620181Y667890D01*
X620181D02*
X620522Y666625D01*
X620522D02*
Y665781D01*
X620522D02*
X620181Y664515D01*
X620181D02*
X619500Y663671D01*
X619500D02*
X618477Y663250D01*
X617454*
X617454D02*
X616431Y663671D01*
X616431D02*
X616090Y664093D01*
X616090D02*
X615750Y664937D01*
X623931Y664093D02*
X623590Y663671D01*
X623590D02*
X623931Y663250D01*
X623931D02*
X624272Y663671D01*
X624272D02*
X623931Y664093D01*
X619159Y647109D02*
X615750Y641203D01*
X620863*
X619159Y647109D02*
Y638250D01*
X624272Y639093D02*
X623931Y638671D01*
X623931D02*
X624272Y638250D01*
X624272D02*
X624613Y638671D01*
X624613D02*
X624272Y639093D01*
X620181Y622109D02*
X616772D01*
X616772D02*
X616431Y618312D01*
X616431D02*
X616772Y618734D01*
X616772D02*
X617795Y619156D01*
X618818*
X619840Y618734*
X619840D02*
X620522Y617890D01*
X620522D02*
X620863Y616625D01*
X620863D02*
X620522Y615781D01*
X620522D02*
X620181Y614515D01*
X620181D02*
X619500Y613671D01*
X619500D02*
X618477Y613250D01*
X617454*
X617454D02*
X616431Y613671D01*
X616431D02*
X616090Y614093D01*
X616090D02*
X615750Y614937D01*
X624272Y614093D02*
X623931Y613671D01*
X623931D02*
X624272Y613250D01*
X624272D02*
X624613Y613671D01*
X624613D02*
X624272Y614093D01*
X620522Y557109D02*
X617113Y548250D01*
X615750Y557109D02*
X620522D01*
X623931Y549093D02*
X623590Y548671D01*
X623590D02*
X623931Y548250D01*
X623931D02*
X624272Y548671D01*
X624272D02*
X623931Y549093D01*
X583250Y744609D02*
Y735750D01*
Y744609D02*
X588022Y735750D01*
Y744609D02*
Y735750D01*
X593136Y744609D02*
X592454Y744187D01*
X592454D02*
X591772Y743343D01*
X591772D02*
X591431Y742500D01*
X591431D02*
X591090Y741234D01*
X591090D02*
Y739125D01*
X591090D02*
X591431Y737859D01*
X591431D02*
X591772Y737015D01*
X591772D02*
X592454Y736171D01*
X592454D02*
X593136Y735750D01*
X594500*
X595181Y736171*
X595181D02*
X595863Y737015D01*
X595863D02*
X596204Y737859D01*
X596204D02*
X596545Y739125D01*
Y741234*
X596204Y742500*
X596204D02*
X595863Y743343D01*
X595863D02*
X595181Y744187D01*
X595181D02*
X594500Y744609D01*
X593136*
X602000D02*
Y735750D01*
X599613Y744609D02*
X604386D01*
X607454D02*
Y735750D01*
Y744609D02*
X611886D01*
X607454Y740390D02*
X610181D01*
X607454Y735750D02*
X611886D01*
X619727Y743343D02*
X619045Y744187D01*
X619045D02*
X618022Y744609D01*
X618022D02*
X616659D01*
X615636Y744187*
X615636D02*
X614954Y743343D01*
X614954D02*
Y742500D01*
X614954D02*
X615295Y741656D01*
X615636Y741234*
X616318Y740812*
X616318D02*
X618363Y739968D01*
X618363D02*
X619045Y739546D01*
X619045D02*
X619386Y739125D01*
X619727Y738281*
Y737015*
X619727D02*
X619045Y736171D01*
X619045D02*
X618022Y735750D01*
X618022D02*
X616659D01*
X615636Y736171*
X615636D02*
X614954Y737015D01*
X623136Y741656D02*
X622795Y741234D01*
X623136Y740812*
X623136D02*
X623477Y741234D01*
X623136Y741656*
Y736593D02*
X622795Y736171D01*
X622795D02*
X623136Y735750D01*
X623477Y736171*
X623477D02*
X623136Y736593D01*
X635750Y647109D02*
Y638250D01*
Y647109D02*
X638818D01*
X639840Y646687*
X639840D02*
X640181Y646265D01*
X640181D02*
X640522Y645421D01*
X640522D02*
Y644578D01*
X640522D02*
X640181Y643734D01*
X640181D02*
X639840Y643312D01*
X639840D02*
X638818Y642890D01*
X635750D02*
X638818D01*
X638818D02*
X639840Y642468D01*
X639840D02*
X640181Y642046D01*
X640181D02*
X640522Y641203D01*
X640522D02*
Y639937D01*
X640522D02*
X640181Y639093D01*
X640181D02*
X639840Y638671D01*
X639840D02*
X638818Y638250D01*
X635750*
X645636Y647109D02*
X644954Y646687D01*
X644954D02*
X644272Y645843D01*
X644272D02*
X643931Y645000D01*
X643931D02*
X643590Y643734D01*
X643590D02*
Y641625D01*
X643590D02*
X643931Y640359D01*
X643931D02*
X644272Y639515D01*
X644272D02*
X644954Y638671D01*
X644954D02*
X645636Y638250D01*
X647000*
X647681Y638671*
X647681D02*
X648363Y639515D01*
X648363D02*
X648704Y640359D01*
X648704D02*
X649045Y641625D01*
Y643734*
X648704Y645000*
X648704D02*
X648363Y645843D01*
X648363D02*
X647681Y646687D01*
X647681D02*
X647000Y647109D01*
X645636*
X654840D02*
X652113Y638250D01*
X654840Y647109D02*
X657568Y638250D01*
X653136Y641203D02*
X656545D01*
X660636Y647109D02*
Y638250D01*
Y647109D02*
X663704D01*
X663704D02*
X664727Y646687D01*
X664727D02*
X665068Y646265D01*
X665068D02*
X665409Y645421D01*
X665409D02*
Y644578D01*
X665068Y643734*
X664727Y643312*
X664727D02*
X663704Y642890D01*
X663704D02*
X660636D01*
X663022D02*
X665409Y638250D01*
X668477Y647109D02*
Y638250D01*
Y647109D02*
X670863D01*
X670863D02*
X671886Y646687D01*
X671886D02*
X672568Y645843D01*
X672568D02*
X672909Y645000D01*
X673250Y643734*
Y641625*
X672909Y640359*
X672568Y639515*
X672568D02*
X671886Y638671D01*
X671886D02*
X670863Y638250D01*
X670863D02*
X668477D01*
X681090Y645843D02*
X680409Y646687D01*
X680409D02*
X679386Y647109D01*
X678022*
X678022D02*
X677000Y646687D01*
X677000D02*
X676318Y645843D01*
X676318D02*
Y645000D01*
X676659Y644156*
X677000Y643734*
X677681Y643312*
X677681D02*
X679727Y642468D01*
X679727D02*
X680409Y642046D01*
X680409D02*
X680750Y641625D01*
X681090Y640781*
X681090D02*
Y639515D01*
X681090D02*
X680409Y638671D01*
X680409D02*
X679386Y638250D01*
X678022*
X678022D02*
X677000Y638671D01*
X677000D02*
X676318Y639515D01*
X694386Y647109D02*
Y638250D01*
X692000Y647109D02*
X696772D01*
X701886D02*
X701204Y646687D01*
X701204D02*
X700522Y645843D01*
X700522D02*
X700181Y645000D01*
X700181D02*
X699840Y643734D01*
X699840D02*
Y641625D01*
X699840D02*
X700181Y640359D01*
X700181D02*
X700522Y639515D01*
X700522D02*
X701204Y638671D01*
X701204D02*
X701886Y638250D01*
X703250*
X703931Y638671*
X703931D02*
X704613Y639515D01*
X704613D02*
X704954Y640359D01*
X704954D02*
X705295Y641625D01*
Y643734*
X704954Y645000*
X704954D02*
X704613Y645843D01*
X704613D02*
X703931Y646687D01*
X703931D02*
X703250Y647109D01*
X701886*
X716204D02*
Y638250D01*
Y647109D02*
X719272D01*
X719272D02*
X720295Y646687D01*
X720295D02*
X720636Y646265D01*
X720636D02*
X720977Y645421D01*
X720977D02*
Y644578D01*
X720636Y643734*
X720295Y643312*
X720295D02*
X719272Y642890D01*
X716204D02*
X719272D01*
X719272D02*
X720295Y642468D01*
X720295D02*
X720636Y642046D01*
X720636D02*
X720977Y641203D01*
Y639937*
X720977D02*
X720636Y639093D01*
X720636D02*
X720295Y638671D01*
X720295D02*
X719272Y638250D01*
X719272D02*
X716204D01*
X724045Y647109D02*
Y638250D01*
Y647109D02*
X728477D01*
X724045Y642890D02*
X726772D01*
X724045Y638250D02*
X728477D01*
X739386Y647109D02*
Y638250D01*
Y647109D02*
X743818D01*
X739386Y642890D02*
X742113D01*
X739386Y638250D02*
X743818D01*
X746886Y647109D02*
Y638250D01*
Y647109D02*
X751659Y638250D01*
Y647109D02*
Y638250D01*
X754727Y647109D02*
Y638250D01*
X762909Y645000D02*
X762568Y645843D01*
X762568D02*
X761886Y646687D01*
X761886D02*
X761204Y647109D01*
X761204D02*
X759840D01*
X759840D02*
X759159Y646687D01*
X759159D02*
X758477Y645843D01*
X758477D02*
X758136Y645000D01*
X757795Y643734*
Y641625*
X758136Y640359*
X758477Y639515*
X758477D02*
X759159Y638671D01*
X759159D02*
X759840Y638250D01*
X759840D02*
X761204D01*
X761204D02*
X761886Y638671D01*
X761886D02*
X762568Y639515D01*
X762568D02*
X762909Y640359D01*
Y641625*
X761204D02*
X762909D01*
X773818Y647109D02*
Y638250D01*
Y647109D02*
X778250D01*
X773818Y642890D02*
X776545D01*
X781318Y647109D02*
Y638250D01*
X784386Y647109D02*
Y638250D01*
Y647109D02*
X789159Y638250D01*
Y647109D02*
Y638250D01*
X792227Y647109D02*
Y638250D01*
X800068Y645843D02*
X799386Y646687D01*
X799386D02*
X798363Y647109D01*
X798363D02*
X797000D01*
X795977Y646687*
X795977D02*
X795295Y645843D01*
X795295D02*
Y645000D01*
X795636Y644156*
X795977Y643734*
X796659Y643312*
X796659D02*
X798704Y642468D01*
X798704D02*
X799386Y642046D01*
X799386D02*
X799727Y641625D01*
X800068Y640781*
Y639515*
X800068D02*
X799386Y638671D01*
X799386D02*
X798363Y638250D01*
X798363D02*
X797000D01*
X795977Y638671*
X795977D02*
X795295Y639515D01*
X803136Y647109D02*
Y638250D01*
X807909Y647109D02*
Y638250D01*
X803136Y642890D02*
X807909D01*
X821545Y647109D02*
X818818Y638250D01*
X821545Y647109D02*
X824272Y638250D01*
X819840Y641203D02*
X823250D01*
X827340Y647109D02*
Y638250D01*
Y647109D02*
X831772D01*
X827340Y642890D02*
X830068D01*
X837227Y647109D02*
Y638250D01*
X834840Y647109D02*
X839613D01*
X842681D02*
Y638250D01*
Y647109D02*
X847113D01*
X842681Y642890D02*
X845409D01*
X842681Y638250D02*
X847113D01*
X850181Y647109D02*
Y638250D01*
Y647109D02*
X853250D01*
X854272Y646687*
X854272D02*
X854613Y646265D01*
X854613D02*
X854954Y645421D01*
X854954D02*
Y644578D01*
X854954D02*
X854613Y643734D01*
X854613D02*
X854272Y643312D01*
X854272D02*
X853250Y642890D01*
X853250D02*
X850181D01*
X852568D02*
X854954Y638250D01*
X870636Y645843D02*
X869954Y646687D01*
X869954D02*
X868931Y647109D01*
X868931D02*
X867568D01*
X866545Y646687*
X866545D02*
X865863Y645843D01*
X865863D02*
Y645000D01*
X865863D02*
X866204Y644156D01*
X866204D02*
X866545Y643734D01*
X867227Y643312*
X867227D02*
X869272Y642468D01*
X869272D02*
X869954Y642046D01*
X869954D02*
X870295Y641625D01*
X870636Y640781*
Y639515*
X870636D02*
X869954Y638671D01*
X869954D02*
X868931Y638250D01*
X868931D02*
X867568D01*
X866545Y638671*
X866545D02*
X865863Y639515D01*
X875750Y647109D02*
X875068Y646687D01*
X875068D02*
X874386Y645843D01*
X874386D02*
X874045Y645000D01*
X873704Y643734*
X873704D02*
Y641625D01*
X873704D02*
X874045Y640359D01*
X874386Y639515*
X874386D02*
X875068Y638671D01*
X875068D02*
X875750Y638250D01*
X877113*
X877113D02*
X877795Y638671D01*
X877795D02*
X878477Y639515D01*
X878477D02*
X878818Y640359D01*
X879159Y641625*
Y643734*
X878818Y645000*
X878477Y645843*
X878477D02*
X877795Y646687D01*
X877795D02*
X877113Y647109D01*
X877113D02*
X875750D01*
X882227D02*
Y638250D01*
X886318*
X889386Y647109D02*
Y638250D01*
Y647109D02*
X891772D01*
X891772D02*
X892795Y646687D01*
X892795D02*
X893477Y645843D01*
X893477D02*
X893818Y645000D01*
X894159Y643734*
Y641625*
X893818Y640359*
X893477Y639515*
X893477D02*
X892795Y638671D01*
X892795D02*
X891772Y638250D01*
X891772D02*
X889386D01*
X897227Y647109D02*
Y638250D01*
Y647109D02*
X901659D01*
X897227Y642890D02*
X899954D01*
X897227Y638250D02*
X901659D01*
X904727Y647109D02*
Y638250D01*
Y647109D02*
X907795D01*
X908818Y646687*
X908818D02*
X909159Y646265D01*
X909159D02*
X909500Y645421D01*
X909500D02*
Y644578D01*
X909159Y643734*
X908818Y643312*
X908818D02*
X907795Y642890D01*
X907795D02*
X904727D01*
X907113D02*
X909500Y638250D01*
X912568Y647109D02*
Y638250D01*
Y647109D02*
X915295Y638250D01*
X918022Y647109D02*
X915295Y638250D01*
X918022Y647109D02*
Y638250D01*
X923818Y647109D02*
X921090Y638250D01*
X923818Y647109D02*
X926545Y638250D01*
X922113Y641203D02*
X925522D01*
X934386Y645843D02*
X933704Y646687D01*
X933704D02*
X932681Y647109D01*
X932681D02*
X931318D01*
X930295Y646687*
X930295D02*
X929613Y645843D01*
X929613D02*
Y645000D01*
X929613D02*
X929954Y644156D01*
X929954D02*
X930295Y643734D01*
X930977Y643312*
X930977D02*
X933022Y642468D01*
X933022D02*
X933704Y642046D01*
X933704D02*
X934045Y641625D01*
X934386Y640781*
Y639515*
X934386D02*
X933704Y638671D01*
X933704D02*
X932681Y638250D01*
X932681D02*
X931318D01*
X930295Y638671*
X930295D02*
X929613Y639515D01*
X937454Y647109D02*
Y638250D01*
X942227Y647109D02*
X937454Y641203D01*
X939159Y643312D02*
X942227Y638250D01*
X945636Y639093D02*
X945295Y638671D01*
X945295D02*
X945636Y638250D01*
X945977Y638671*
X945977D02*
X945636Y639093D01*
X635750Y622109D02*
Y613250D01*
Y622109D02*
X638818D01*
X639840Y621687*
X639840D02*
X640181Y621265D01*
X640181D02*
X640522Y620421D01*
X640522D02*
Y619578D01*
X640522D02*
X640181Y618734D01*
X640181D02*
X639840Y618312D01*
X639840D02*
X638818Y617890D01*
X635750D02*
X638818D01*
X638818D02*
X639840Y617468D01*
X639840D02*
X640181Y617046D01*
X640181D02*
X640522Y616203D01*
X640522D02*
Y614937D01*
X640522D02*
X640181Y614093D01*
X640181D02*
X639840Y613671D01*
X639840D02*
X638818Y613250D01*
X635750*
X645636Y622109D02*
X644954Y621687D01*
X644954D02*
X644272Y620843D01*
X644272D02*
X643931Y620000D01*
X643931D02*
X643590Y618734D01*
X643590D02*
Y616625D01*
X643590D02*
X643931Y615359D01*
X643931D02*
X644272Y614515D01*
X644272D02*
X644954Y613671D01*
X644954D02*
X645636Y613250D01*
X647000*
X647681Y613671*
X647681D02*
X648363Y614515D01*
X648363D02*
X648704Y615359D01*
X648704D02*
X649045Y616625D01*
Y618734*
X648704Y620000*
X648704D02*
X648363Y620843D01*
X648363D02*
X647681Y621687D01*
X647681D02*
X647000Y622109D01*
X645636*
X654840D02*
X652113Y613250D01*
X654840Y622109D02*
X657568Y613250D01*
X653136Y616203D02*
X656545D01*
X660636Y622109D02*
Y613250D01*
Y622109D02*
X663704D01*
X663704D02*
X664727Y621687D01*
X664727D02*
X665068Y621265D01*
X665068D02*
X665409Y620421D01*
X665409D02*
Y619578D01*
X665068Y618734*
X664727Y618312*
X664727D02*
X663704Y617890D01*
X663704D02*
X660636D01*
X663022D02*
X665409Y613250D01*
X668477Y622109D02*
Y613250D01*
Y622109D02*
X670863D01*
X670863D02*
X671886Y621687D01*
X671886D02*
X672568Y620843D01*
X672568D02*
X672909Y620000D01*
X673250Y618734*
Y616625*
X672909Y615359*
X672568Y614515*
X672568D02*
X671886Y613671D01*
X671886D02*
X670863Y613250D01*
X670863D02*
X668477D01*
X681090Y620843D02*
X680409Y621687D01*
X680409D02*
X679386Y622109D01*
X678022*
X678022D02*
X677000Y621687D01*
X677000D02*
X676318Y620843D01*
X676318D02*
Y620000D01*
X676659Y619156*
X677000Y618734*
X677681Y618312*
X677681D02*
X679727Y617468D01*
X679727D02*
X680409Y617046D01*
X680409D02*
X680750Y616625D01*
X681090Y615781*
X681090D02*
Y614515D01*
X681090D02*
X680409Y613671D01*
X680409D02*
X679386Y613250D01*
X678022*
X678022D02*
X677000Y613671D01*
X677000D02*
X676318Y614515D01*
X694386Y622109D02*
Y613250D01*
X692000Y622109D02*
X696772D01*
X701886D02*
X701204Y621687D01*
X701204D02*
X700522Y620843D01*
X700522D02*
X700181Y620000D01*
X700181D02*
X699840Y618734D01*
X699840D02*
Y616625D01*
X699840D02*
X700181Y615359D01*
X700181D02*
X700522Y614515D01*
X700522D02*
X701204Y613671D01*
X701204D02*
X701886Y613250D01*
X703250*
X703931Y613671*
X703931D02*
X704613Y614515D01*
X704613D02*
X704954Y615359D01*
X704954D02*
X705295Y616625D01*
Y618734*
X704954Y620000*
X704954D02*
X704613Y620843D01*
X704613D02*
X703931Y621687D01*
X703931D02*
X703250Y622109D01*
X701886*
X716204D02*
Y613250D01*
Y622109D02*
X719272D01*
X719272D02*
X720295Y621687D01*
X720295D02*
X720636Y621265D01*
X720636D02*
X720977Y620421D01*
X720977D02*
Y619578D01*
X720636Y618734*
X720295Y618312*
X720295D02*
X719272Y617890D01*
X716204D02*
X719272D01*
X719272D02*
X720295Y617468D01*
X720295D02*
X720636Y617046D01*
X720636D02*
X720977Y616203D01*
Y614937*
X720977D02*
X720636Y614093D01*
X720636D02*
X720295Y613671D01*
X720295D02*
X719272Y613250D01*
X719272D02*
X716204D01*
X724045Y622109D02*
Y613250D01*
Y622109D02*
X728477D01*
X724045Y617890D02*
X726772D01*
X724045Y613250D02*
X728477D01*
X744159Y620843D02*
X743477Y621687D01*
X743477D02*
X742454Y622109D01*
X742454D02*
X741090D01*
X741090D02*
X740068Y621687D01*
X740068D02*
X739386Y620843D01*
X739386D02*
Y620000D01*
X739727Y619156*
X740068Y618734*
X740750Y618312*
X740750D02*
X742795Y617468D01*
X742795D02*
X743477Y617046D01*
X743477D02*
X743818Y616625D01*
X744159Y615781*
Y614515*
X744159D02*
X743477Y613671D01*
X743477D02*
X742454Y613250D01*
X742454D02*
X741090D01*
X741090D02*
X740068Y613671D01*
X740068D02*
X739386Y614515D01*
X747227Y622109D02*
Y613250D01*
X750295Y622109D02*
Y613250D01*
X754386*
X757454Y622109D02*
Y613250D01*
X762227Y622109D02*
X757454Y616203D01*
X759159Y618312D02*
X762227Y613250D01*
X770068Y620843D02*
X769386Y621687D01*
X769386D02*
X768363Y622109D01*
X768363D02*
X767000D01*
X765977Y621687*
X765977D02*
X765295Y620843D01*
X765295D02*
Y620000D01*
X765636Y619156*
X765977Y618734*
X766659Y618312*
X766659D02*
X768704Y617468D01*
X768704D02*
X769386Y617046D01*
X769386D02*
X769727Y616625D01*
X770068Y615781*
Y614515*
X770068D02*
X769386Y613671D01*
X769386D02*
X768363Y613250D01*
X768363D02*
X767000D01*
X765977Y613671*
X765977D02*
X765295Y614515D01*
X778250Y620000D02*
X777909Y620843D01*
X777909D02*
X777227Y621687D01*
X777227D02*
X776545Y622109D01*
X775181*
X775181D02*
X774500Y621687D01*
X774500D02*
X773818Y620843D01*
X773818D02*
X773477Y620000D01*
X773136Y618734*
Y616625*
X773477Y615359*
X773818Y614515*
X773818D02*
X774500Y613671D01*
X774500D02*
X775181Y613250D01*
X775181D02*
X776545D01*
X777227Y613671*
X777227D02*
X777909Y614515D01*
X777909D02*
X778250Y615359D01*
X781318Y622109D02*
Y613250D01*
Y622109D02*
X784386D01*
X785409Y621687*
X785409D02*
X785750Y621265D01*
X785750D02*
X786090Y620421D01*
X786090D02*
Y619578D01*
X786090D02*
X785750Y618734D01*
X785409Y618312*
X785409D02*
X784386Y617890D01*
X784386D02*
X781318D01*
X783704D02*
X786090Y613250D01*
X789159Y622109D02*
Y613250D01*
Y622109D02*
X793590D01*
X789159Y617890D02*
X791886D01*
X789159Y613250D02*
X793590D01*
X796659Y622109D02*
Y613250D01*
Y622109D02*
X801090D01*
X796659Y617890D02*
X799386D01*
X796659Y613250D02*
X801090D01*
X804159Y622109D02*
Y613250D01*
Y622109D02*
X808931Y613250D01*
Y622109D02*
Y613250D01*
X812000Y622109D02*
Y613250D01*
Y622109D02*
X816431D01*
X812000Y617890D02*
X814727D01*
X812000Y613250D02*
X816431D01*
X819500Y622109D02*
Y613250D01*
Y622109D02*
X821886D01*
X822909Y621687*
X822909D02*
X823590Y620843D01*
X823590D02*
X823931Y620000D01*
X823931D02*
X824272Y618734D01*
X824272D02*
Y616625D01*
X824272D02*
X823931Y615359D01*
X823931D02*
X823590Y614515D01*
X823590D02*
X822909Y613671D01*
X822909D02*
X821886Y613250D01*
X819500*
X837227Y622109D02*
X836545Y621687D01*
X836545D02*
X835863Y620843D01*
X835863D02*
X835522Y620000D01*
X835522D02*
X835181Y618734D01*
X835181D02*
Y616625D01*
X835181D02*
X835522Y615359D01*
X835522D02*
X835863Y614515D01*
X835863D02*
X836545Y613671D01*
X836545D02*
X837227Y613250D01*
X838590*
X838590D02*
X839272Y613671D01*
X839272D02*
X839954Y614515D01*
X839954D02*
X840295Y615359D01*
X840636Y616625*
Y618734*
X840295Y620000*
X839954Y620843*
X839954D02*
X839272Y621687D01*
X839272D02*
X838590Y622109D01*
X838590D02*
X837227D01*
X843704D02*
Y613250D01*
Y622109D02*
X848477Y613250D01*
Y622109D02*
Y613250D01*
X859386Y622109D02*
Y613250D01*
Y622109D02*
X862454D01*
X862454D02*
X863477Y621687D01*
X863477D02*
X863818Y621265D01*
X863818D02*
X864159Y620421D01*
X864159D02*
Y619578D01*
X863818Y618734*
X863477Y618312*
X863477D02*
X862454Y617890D01*
X859386D02*
X862454D01*
X862454D02*
X863477Y617468D01*
X863477D02*
X863818Y617046D01*
X863818D02*
X864159Y616203D01*
Y614937*
X864159D02*
X863818Y614093D01*
X863818D02*
X863477Y613671D01*
X863477D02*
X862454Y613250D01*
X862454D02*
X859386D01*
X869272Y622109D02*
X868590Y621687D01*
X868590D02*
X867909Y620843D01*
X867909D02*
X867568Y620000D01*
X867227Y618734*
Y616625*
X867568Y615359*
X867909Y614515*
X867909D02*
X868590Y613671D01*
X868590D02*
X869272Y613250D01*
X869272D02*
X870636D01*
X871318Y613671*
X871318D02*
X872000Y614515D01*
X872000D02*
X872340Y615359D01*
X872340D02*
X872681Y616625D01*
X872681D02*
Y618734D01*
X872681D02*
X872340Y620000D01*
X872340D02*
X872000Y620843D01*
X872000D02*
X871318Y621687D01*
X871318D02*
X870636Y622109D01*
X869272*
X878136D02*
Y613250D01*
X875750Y622109D02*
X880522D01*
X883590D02*
Y613250D01*
X888363Y622109D02*
Y613250D01*
X883590Y617890D02*
X888363D01*
X904045Y620843D02*
X903363Y621687D01*
X903363D02*
X902340Y622109D01*
X902340D02*
X900977D01*
X899954Y621687*
X899954D02*
X899272Y620843D01*
X899272D02*
Y620000D01*
X899272D02*
X899613Y619156D01*
X899613D02*
X899954Y618734D01*
X899954D02*
X900636Y618312D01*
X900636D02*
X902681Y617468D01*
X902681D02*
X903363Y617046D01*
X903363D02*
X903704Y616625D01*
X903704D02*
X904045Y615781D01*
Y614515*
X904045D02*
X903363Y613671D01*
X903363D02*
X902340Y613250D01*
X902340D02*
X900977D01*
X899954Y613671*
X899954D02*
X899272Y614515D01*
X907113Y622109D02*
Y613250D01*
X910181Y622109D02*
Y613250D01*
Y622109D02*
X912568D01*
X913590Y621687*
X913590D02*
X914272Y620843D01*
X914272D02*
X914613Y620000D01*
X914613D02*
X914954Y618734D01*
X914954D02*
Y616625D01*
X914954D02*
X914613Y615359D01*
X914613D02*
X914272Y614515D01*
X914272D02*
X913590Y613671D01*
X913590D02*
X912568Y613250D01*
X910181*
X918022Y622109D02*
Y613250D01*
Y622109D02*
X922454D01*
X918022Y617890D02*
X920750D01*
X918022Y613250D02*
X922454D01*
X930295Y620843D02*
X929613Y621687D01*
X929613D02*
X928590Y622109D01*
X928590D02*
X927227D01*
X926204Y621687*
X926204D02*
X925522Y620843D01*
X925522D02*
Y620000D01*
X925522D02*
X925863Y619156D01*
X925863D02*
X926204Y618734D01*
X926204D02*
X926886Y618312D01*
X926886D02*
X928931Y617468D01*
X928931D02*
X929613Y617046D01*
X929613D02*
X929954Y616625D01*
X929954D02*
X930295Y615781D01*
Y614515*
X930295D02*
X929613Y613671D01*
X929613D02*
X928590Y613250D01*
X928590D02*
X927227D01*
X926204Y613671*
X926204D02*
X925522Y614515D01*
X941204Y622109D02*
X942909Y613250D01*
X944613Y622109D02*
X942909Y613250D01*
X944613Y622109D02*
X946318Y613250D01*
X948022Y622109D02*
X946318Y613250D01*
X951090Y622109D02*
Y613250D01*
X956545Y622109D02*
Y613250D01*
X954159Y622109D02*
X958931D01*
X962000D02*
Y613250D01*
X966772Y622109D02*
Y613250D01*
X962000Y617890D02*
X966772D01*
X977681Y622109D02*
Y613250D01*
Y622109D02*
X980750D01*
X981772Y621687*
X981772D02*
X982113Y621265D01*
X982113D02*
X982454Y620421D01*
X982454D02*
Y619156D01*
X982454D02*
X982113Y618312D01*
X982113D02*
X981772Y617890D01*
X981772D02*
X980750Y617468D01*
X980750D02*
X977681D01*
X985522Y622109D02*
Y613250D01*
Y622109D02*
X989954D01*
X985522Y617890D02*
X988250D01*
X985522Y613250D02*
X989954D01*
X993022Y622109D02*
Y613250D01*
Y622109D02*
X996090D01*
X996090D02*
X997113Y621687D01*
X997113D02*
X997454Y621265D01*
X997454D02*
X997795Y620421D01*
X997795D02*
Y619578D01*
X997454Y618734*
X997454D02*
X997113Y618312D01*
X997113D02*
X996090Y617890D01*
X996090D02*
X993022D01*
X995409D02*
X997795Y613250D01*
X1000863Y622109D02*
Y613250D01*
Y622109D02*
X1003590Y613250D01*
X1006318Y622109D02*
X1003590Y613250D01*
X1006318Y622109D02*
Y613250D01*
X1012113Y622109D02*
X1009386Y613250D01*
X1012113Y622109D02*
X1014840Y613250D01*
X1010409Y616203D02*
X1013818D01*
X1017909Y622109D02*
Y613250D01*
Y622109D02*
X1022681Y613250D01*
Y622109D02*
Y613250D01*
X1025750Y622109D02*
Y613250D01*
Y622109D02*
X1030181D01*
X1025750Y617890D02*
X1028477D01*
X1025750Y613250D02*
X1030181D01*
X1033250Y622109D02*
Y613250D01*
Y622109D02*
X1038022Y613250D01*
Y622109D02*
Y613250D01*
X1043477Y622109D02*
Y613250D01*
X1041090Y622109D02*
X1045863D01*
X1049613Y613671D02*
X1049272Y613250D01*
X1049272D02*
X1048931Y613671D01*
X1048931D02*
X1049272Y614093D01*
X1049272D02*
X1049613Y613671D01*
X1049613D02*
Y612828D01*
X1049613D02*
X1049272Y611984D01*
X1049272D02*
X1048931Y611562D01*
X635750Y672109D02*
Y663250D01*
Y672109D02*
X638818D01*
X639840Y671687*
X639840D02*
X640181Y671265D01*
X640181D02*
X640522Y670421D01*
X640522D02*
Y669578D01*
X640522D02*
X640181Y668734D01*
X640181D02*
X639840Y668312D01*
X639840D02*
X638818Y667890D01*
X635750D02*
X638818D01*
X638818D02*
X639840Y667468D01*
X639840D02*
X640181Y667046D01*
X640181D02*
X640522Y666203D01*
X640522D02*
Y664937D01*
X640522D02*
X640181Y664093D01*
X640181D02*
X639840Y663671D01*
X639840D02*
X638818Y663250D01*
X635750*
X645636Y672109D02*
X644954Y671687D01*
X644954D02*
X644272Y670843D01*
X644272D02*
X643931Y670000D01*
X643931D02*
X643590Y668734D01*
X643590D02*
Y666625D01*
X643590D02*
X643931Y665359D01*
X643931D02*
X644272Y664515D01*
X644272D02*
X644954Y663671D01*
X644954D02*
X645636Y663250D01*
X647000*
X647681Y663671*
X647681D02*
X648363Y664515D01*
X648363D02*
X648704Y665359D01*
X648704D02*
X649045Y666625D01*
Y668734*
X648704Y670000*
X648704D02*
X648363Y670843D01*
X648363D02*
X647681Y671687D01*
X647681D02*
X647000Y672109D01*
X645636*
X654840D02*
X652113Y663250D01*
X654840Y672109D02*
X657568Y663250D01*
X653136Y666203D02*
X656545D01*
X660636Y672109D02*
Y663250D01*
Y672109D02*
X663704D01*
X663704D02*
X664727Y671687D01*
X664727D02*
X665068Y671265D01*
X665068D02*
X665409Y670421D01*
X665409D02*
Y669578D01*
X665068Y668734*
X664727Y668312*
X664727D02*
X663704Y667890D01*
X663704D02*
X660636D01*
X663022D02*
X665409Y663250D01*
X668477Y672109D02*
Y663250D01*
Y672109D02*
X670863D01*
X670863D02*
X671886Y671687D01*
X671886D02*
X672568Y670843D01*
X672568D02*
X672909Y670000D01*
X673250Y668734*
Y666625*
X672909Y665359*
X672568Y664515*
X672568D02*
X671886Y663671D01*
X671886D02*
X670863Y663250D01*
X670863D02*
X668477D01*
X681090Y670843D02*
X680409Y671687D01*
X680409D02*
X679386Y672109D01*
X678022*
X678022D02*
X677000Y671687D01*
X677000D02*
X676318Y670843D01*
X676318D02*
Y670000D01*
X676659Y669156*
X677000Y668734*
X677681Y668312*
X677681D02*
X679727Y667468D01*
X679727D02*
X680409Y667046D01*
X680409D02*
X680750Y666625D01*
X681090Y665781*
X681090D02*
Y664515D01*
X681090D02*
X680409Y663671D01*
X680409D02*
X679386Y663250D01*
X678022*
X678022D02*
X677000Y663671D01*
X677000D02*
X676318Y664515D01*
X694386Y672109D02*
Y663250D01*
X692000Y672109D02*
X696772D01*
X701886D02*
X701204Y671687D01*
X701204D02*
X700522Y670843D01*
X700522D02*
X700181Y670000D01*
X700181D02*
X699840Y668734D01*
X699840D02*
Y666625D01*
X699840D02*
X700181Y665359D01*
X700181D02*
X700522Y664515D01*
X700522D02*
X701204Y663671D01*
X701204D02*
X701886Y663250D01*
X703250*
X703931Y663671*
X703931D02*
X704613Y664515D01*
X704613D02*
X704954Y665359D01*
X704954D02*
X705295Y666625D01*
Y668734*
X704954Y670000*
X704954D02*
X704613Y670843D01*
X704613D02*
X703931Y671687D01*
X703931D02*
X703250Y672109D01*
X701886*
X716204D02*
Y663250D01*
Y672109D02*
X719272D01*
X719272D02*
X720295Y671687D01*
X720295D02*
X720636Y671265D01*
X720636D02*
X720977Y670421D01*
X720977D02*
Y669578D01*
X720636Y668734*
X720295Y668312*
X720295D02*
X719272Y667890D01*
X716204D02*
X719272D01*
X719272D02*
X720295Y667468D01*
X720295D02*
X720636Y667046D01*
X720636D02*
X720977Y666203D01*
Y664937*
X720977D02*
X720636Y664093D01*
X720636D02*
X720295Y663671D01*
X720295D02*
X719272Y663250D01*
X719272D02*
X716204D01*
X724045Y672109D02*
Y663250D01*
Y672109D02*
X728477D01*
X724045Y667890D02*
X726772D01*
X724045Y663250D02*
X728477D01*
X739386Y672109D02*
Y663250D01*
X743477*
X746545Y672109D02*
Y663250D01*
Y672109D02*
X749613D01*
X749613D02*
X750636Y671687D01*
X750636D02*
X750977Y671265D01*
X750977D02*
X751318Y670421D01*
X751318D02*
Y669156D01*
X750977Y668312*
X750977D02*
X750636Y667890D01*
X750636D02*
X749613Y667468D01*
X749613D02*
X746545D01*
X754386Y672109D02*
Y663250D01*
X759500Y672109D02*
X758818Y671687D01*
X758818D02*
X758136Y670843D01*
X758136D02*
X757795Y670000D01*
X757454Y668734*
X757454D02*
Y666625D01*
X757454D02*
X757795Y665359D01*
X758136Y664515*
X758136D02*
X758818Y663671D01*
X758818D02*
X759500Y663250D01*
X760863*
X760863D02*
X761545Y663671D01*
X761545D02*
X762227Y664515D01*
X762227D02*
X762568Y665359D01*
X762909Y666625*
Y668734*
X762568Y670000*
X762227Y670843*
X762227D02*
X761545Y671687D01*
X761545D02*
X760863Y672109D01*
X760863D02*
X759500D01*
X765977D02*
Y663250D01*
Y672109D02*
X769045D01*
X770068Y671687*
X770068D02*
X770409Y671265D01*
X770409D02*
X770750Y670421D01*
X770750D02*
Y669578D01*
X770409Y668734*
X770068Y668312*
X770068D02*
X769045Y667890D01*
X765977D02*
X769045D01*
X769045D02*
X770068Y667468D01*
X770068D02*
X770409Y667046D01*
X770409D02*
X770750Y666203D01*
Y664937*
X770750D02*
X770409Y664093D01*
X770409D02*
X770068Y663671D01*
X770068D02*
X769045Y663250D01*
X765977*
X778931Y670000D02*
X778590Y670843D01*
X778590D02*
X777909Y671687D01*
X777909D02*
X777227Y672109D01*
X775863*
X775863D02*
X775181Y671687D01*
X775181D02*
X774500Y670843D01*
X774500D02*
X774159Y670000D01*
X773818Y668734*
Y666625*
X774159Y665359*
X774500Y664515*
X774500D02*
X775181Y663671D01*
X775181D02*
X775863Y663250D01*
X775863D02*
X777227D01*
X777909Y663671*
X777909D02*
X778590Y664515D01*
X778590D02*
X778931Y665359D01*
X791886Y672109D02*
X791204Y671687D01*
X791204D02*
X790522Y670843D01*
X790522D02*
X790181Y670000D01*
X790181D02*
X789840Y668734D01*
X789840D02*
Y666625D01*
X789840D02*
X790181Y665359D01*
X790181D02*
X790522Y664515D01*
X790522D02*
X791204Y663671D01*
X791204D02*
X791886Y663250D01*
X793250*
X793931Y663671*
X793931D02*
X794613Y664515D01*
X794613D02*
X794954Y665359D01*
X794954D02*
X795295Y666625D01*
Y668734*
X794954Y670000*
X794954D02*
X794613Y670843D01*
X794613D02*
X793931Y671687D01*
X793931D02*
X793250Y672109D01*
X791886*
X798363D02*
Y663250D01*
Y672109D02*
X803136Y663250D01*
Y672109D02*
Y663250D01*
X814045Y672109D02*
Y663250D01*
Y672109D02*
X817113D01*
X817113D02*
X818136Y671687D01*
X818136D02*
X818477Y671265D01*
X818477D02*
X818818Y670421D01*
X818818D02*
Y669578D01*
X818477Y668734*
X818136Y668312*
X818136D02*
X817113Y667890D01*
X814045D02*
X817113D01*
X817113D02*
X818136Y667468D01*
X818136D02*
X818477Y667046D01*
X818477D02*
X818818Y666203D01*
Y664937*
X818818D02*
X818477Y664093D01*
X818477D02*
X818136Y663671D01*
X818136D02*
X817113Y663250D01*
X817113D02*
X814045D01*
X823931Y672109D02*
X823250Y671687D01*
X823250D02*
X822568Y670843D01*
X822568D02*
X822227Y670000D01*
X821886Y668734*
Y666625*
X822227Y665359*
X822568Y664515*
X822568D02*
X823250Y663671D01*
X823250D02*
X823931Y663250D01*
X823931D02*
X825295D01*
X825977Y663671*
X825977D02*
X826659Y664515D01*
X826659D02*
X827000Y665359D01*
X827340Y666625*
X827340D02*
Y668734D01*
X827340D02*
X827000Y670000D01*
X826659Y670843*
X826659D02*
X825977Y671687D01*
X825977D02*
X825295Y672109D01*
X823931*
X832795D02*
Y663250D01*
X830409Y672109D02*
X835181D01*
X838250D02*
Y663250D01*
X843022Y672109D02*
Y663250D01*
X838250Y667890D02*
X843022D01*
X858704Y670843D02*
X858022Y671687D01*
X858022D02*
X857000Y672109D01*
X855636*
X854613Y671687*
X854613D02*
X853931Y670843D01*
X853931D02*
Y670000D01*
X853931D02*
X854272Y669156D01*
X854272D02*
X854613Y668734D01*
X854613D02*
X855295Y668312D01*
X855295D02*
X857340Y667468D01*
X857340D02*
X858022Y667046D01*
X858022D02*
X858363Y666625D01*
X858363D02*
X858704Y665781D01*
X858704D02*
Y664515D01*
X858704D02*
X858022Y663671D01*
X858022D02*
X857000Y663250D01*
X855636*
X854613Y663671*
X854613D02*
X853931Y664515D01*
X861772Y672109D02*
Y663250D01*
X864840Y672109D02*
Y663250D01*
Y672109D02*
X867227D01*
X868250Y671687*
X868250D02*
X868931Y670843D01*
X868931D02*
X869272Y670000D01*
X869272D02*
X869613Y668734D01*
X869613D02*
Y666625D01*
X869613D02*
X869272Y665359D01*
X869272D02*
X868931Y664515D01*
X868931D02*
X868250Y663671D01*
X868250D02*
X867227Y663250D01*
X864840*
X872681Y672109D02*
Y663250D01*
Y672109D02*
X877113D01*
X872681Y667890D02*
X875409D01*
X872681Y663250D02*
X877113D01*
X884954Y670843D02*
X884272Y671687D01*
X884272D02*
X883250Y672109D01*
X881886*
X880863Y671687*
X880863D02*
X880181Y670843D01*
X880181D02*
Y670000D01*
X880181D02*
X880522Y669156D01*
X880522D02*
X880863Y668734D01*
X880863D02*
X881545Y668312D01*
X881545D02*
X883590Y667468D01*
X883590D02*
X884272Y667046D01*
X884272D02*
X884613Y666625D01*
X884613D02*
X884954Y665781D01*
X884954D02*
Y664515D01*
X884954D02*
X884272Y663671D01*
X884272D02*
X883250Y663250D01*
X881886*
X880863Y663671*
X880863D02*
X880181Y664515D01*
X895863Y667046D02*
X902000D01*
X918022Y670000D02*
X917681Y670843D01*
X917681D02*
X917000Y671687D01*
X917000D02*
X916318Y672109D01*
X914954*
X914954D02*
X914272Y671687D01*
X914272D02*
X913590Y670843D01*
X913590D02*
X913250Y670000D01*
X912909Y668734*
Y666625*
X913250Y665359*
X913590Y664515*
X913590D02*
X914272Y663671D01*
X914272D02*
X914954Y663250D01*
X914954D02*
X916318D01*
X917000Y663671*
X917000D02*
X917681Y664515D01*
X917681D02*
X918022Y665359D01*
X918022D02*
Y666625D01*
X916318D02*
X918022D01*
X921090Y672109D02*
Y663250D01*
Y672109D02*
X924159D01*
X925181Y671687*
X925181D02*
X925522Y671265D01*
X925522D02*
X925863Y670421D01*
X925863D02*
Y669578D01*
X925863D02*
X925522Y668734D01*
X925522D02*
X925181Y668312D01*
X925181D02*
X924159Y667890D01*
X924159D02*
X921090D01*
X923477D02*
X925863Y663250D01*
X928931Y672109D02*
Y663250D01*
Y672109D02*
X933363D01*
X928931Y667890D02*
X931659D01*
X928931Y663250D02*
X933363D01*
X936431Y672109D02*
Y663250D01*
Y672109D02*
X940863D01*
X936431Y667890D02*
X939159D01*
X936431Y663250D02*
X940863D01*
X943931Y672109D02*
Y663250D01*
Y672109D02*
X948704Y663250D01*
Y672109D02*
Y663250D01*
X964727Y670000D02*
X964386Y670843D01*
X964386D02*
X963704Y671687D01*
X963704D02*
X963022Y672109D01*
X963022D02*
X961659D01*
X960977Y671687*
X960977D02*
X960295Y670843D01*
X960295D02*
X959954Y670000D01*
X959954D02*
X959613Y668734D01*
X959613D02*
Y666625D01*
X959613D02*
X959954Y665359D01*
X959954D02*
X960295Y664515D01*
X960295D02*
X960977Y663671D01*
X960977D02*
X961659Y663250D01*
X963022*
X963022D02*
X963704Y663671D01*
X963704D02*
X964386Y664515D01*
X964386D02*
X964727Y665359D01*
X969840Y672109D02*
X969159Y671687D01*
X969159D02*
X968477Y670843D01*
X968477D02*
X968136Y670000D01*
X967795Y668734*
Y666625*
X968136Y665359*
X968477Y664515*
X968477D02*
X969159Y663671D01*
X969159D02*
X969840Y663250D01*
X969840D02*
X971204D01*
X971204D02*
X971886Y663671D01*
X971886D02*
X972568Y664515D01*
X972568D02*
X972909Y665359D01*
X973250Y666625*
Y668734*
X972909Y670000*
X972568Y670843*
X972568D02*
X971886Y671687D01*
X971886D02*
X971204Y672109D01*
X971204D02*
X969840D01*
X976318D02*
Y663250D01*
X980409*
X985522Y672109D02*
X984840Y671687D01*
X984840D02*
X984159Y670843D01*
X984159D02*
X983818Y670000D01*
X983477Y668734*
Y666625*
X983818Y665359*
X984159Y664515*
X984159D02*
X984840Y663671D01*
X984840D02*
X985522Y663250D01*
X985522D02*
X986886D01*
X987568Y663671*
X987568D02*
X988250Y664515D01*
X988250D02*
X988590Y665359D01*
X988590D02*
X988931Y666625D01*
X988931D02*
Y668734D01*
X988931D02*
X988590Y670000D01*
X988590D02*
X988250Y670843D01*
X988250D02*
X987568Y671687D01*
X987568D02*
X986886Y672109D01*
X985522*
X992000D02*
Y663250D01*
Y672109D02*
X995068D01*
X996090Y671687*
X996090D02*
X996431Y671265D01*
X996431D02*
X996772Y670421D01*
X996772D02*
Y669578D01*
X996772D02*
X996431Y668734D01*
X996431D02*
X996090Y668312D01*
X996090D02*
X995068Y667890D01*
X995068D02*
X992000D01*
X994386D02*
X996772Y663250D01*
X1000181Y664093D02*
X999840Y663671D01*
X999840D02*
X1000181Y663250D01*
X1000181D02*
X1000522Y663671D01*
X1000522D02*
X1000181Y664093D01*
X635750Y557109D02*
Y548250D01*
Y557109D02*
X638818D01*
X639840Y556687*
X639840D02*
X640181Y556265D01*
X640181D02*
X640522Y555421D01*
X640522D02*
Y554578D01*
X640522D02*
X640181Y553734D01*
X640181D02*
X639840Y553312D01*
X639840D02*
X638818Y552890D01*
X635750D02*
X638818D01*
X638818D02*
X639840Y552468D01*
X639840D02*
X640181Y552046D01*
X640181D02*
X640522Y551203D01*
X640522D02*
Y549937D01*
X640522D02*
X640181Y549093D01*
X640181D02*
X639840Y548671D01*
X639840D02*
X638818Y548250D01*
X635750*
X645636Y557109D02*
X644954Y556687D01*
X644954D02*
X644272Y555843D01*
X644272D02*
X643931Y555000D01*
X643931D02*
X643590Y553734D01*
X643590D02*
Y551625D01*
X643590D02*
X643931Y550359D01*
X643931D02*
X644272Y549515D01*
X644272D02*
X644954Y548671D01*
X644954D02*
X645636Y548250D01*
X647000*
X647681Y548671*
X647681D02*
X648363Y549515D01*
X648363D02*
X648704Y550359D01*
X648704D02*
X649045Y551625D01*
Y553734*
X648704Y555000*
X648704D02*
X648363Y555843D01*
X648363D02*
X647681Y556687D01*
X647681D02*
X647000Y557109D01*
X645636*
X654840D02*
X652113Y548250D01*
X654840Y557109D02*
X657568Y548250D01*
X653136Y551203D02*
X656545D01*
X660636Y557109D02*
Y548250D01*
Y557109D02*
X663704D01*
X663704D02*
X664727Y556687D01*
X664727D02*
X665068Y556265D01*
X665068D02*
X665409Y555421D01*
X665409D02*
Y554578D01*
X665068Y553734*
X664727Y553312*
X664727D02*
X663704Y552890D01*
X663704D02*
X660636D01*
X663022D02*
X665409Y548250D01*
X668477Y557109D02*
Y548250D01*
Y557109D02*
X670863D01*
X670863D02*
X671886Y556687D01*
X671886D02*
X672568Y555843D01*
X672568D02*
X672909Y555000D01*
X673250Y553734*
Y551625*
X672909Y550359*
X672568Y549515*
X672568D02*
X671886Y548671D01*
X671886D02*
X670863Y548250D01*
X670863D02*
X668477D01*
X681090Y555843D02*
X680409Y556687D01*
X680409D02*
X679386Y557109D01*
X678022*
X678022D02*
X677000Y556687D01*
X677000D02*
X676318Y555843D01*
X676318D02*
Y555000D01*
X676659Y554156*
X677000Y553734*
X677681Y553312*
X677681D02*
X679727Y552468D01*
X679727D02*
X680409Y552046D01*
X680409D02*
X680750Y551625D01*
X681090Y550781*
X681090D02*
Y549515D01*
X681090D02*
X680409Y548671D01*
X680409D02*
X679386Y548250D01*
X678022*
X678022D02*
X677000Y548671D01*
X677000D02*
X676318Y549515D01*
X696772Y555843D02*
X696090Y556687D01*
X696090D02*
X695068Y557109D01*
X693704*
X693704D02*
X692681Y556687D01*
X692681D02*
X692000Y555843D01*
X692000D02*
Y555000D01*
X692340Y554156*
X692340D02*
X692681Y553734D01*
X692681D02*
X693363Y553312D01*
X693363D02*
X695409Y552468D01*
X695409D02*
X696090Y552046D01*
X696090D02*
X696431Y551625D01*
X696431D02*
X696772Y550781D01*
X696772D02*
Y549515D01*
X696772D02*
X696090Y548671D01*
X696090D02*
X695068Y548250D01*
X693704*
X693704D02*
X692681Y548671D01*
X692681D02*
X692000Y549515D01*
X699840Y557109D02*
Y548250D01*
X704613Y557109D02*
Y548250D01*
X699840Y552890D02*
X704613D01*
X710409Y557109D02*
X707681Y548250D01*
X710409Y557109D02*
X713136Y548250D01*
X708704Y551203D02*
X712113D01*
X716204Y557109D02*
Y548250D01*
X716204D02*
X720295D01*
X723363Y557109D02*
Y548250D01*
X723363D02*
X727454D01*
X738363Y557109D02*
Y548250D01*
Y557109D02*
X741431D01*
X741431D02*
X742454Y556687D01*
X742454D02*
X742795Y556265D01*
X742795D02*
X743136Y555421D01*
X743136D02*
Y554578D01*
X742795Y553734*
X742454Y553312*
X742454D02*
X741431Y552890D01*
X738363D02*
X741431D01*
X741431D02*
X742454Y552468D01*
X742454D02*
X742795Y552046D01*
X742795D02*
X743136Y551203D01*
Y549937*
X743136D02*
X742795Y549093D01*
X742795D02*
X742454Y548671D01*
X742454D02*
X741431Y548250D01*
X741431D02*
X738363D01*
X746204Y557109D02*
Y548250D01*
Y557109D02*
X750636D01*
X746204Y552890D02*
X748931D01*
X746204Y548250D02*
X750636D01*
X761545Y557109D02*
Y548250D01*
Y557109D02*
X764272Y548250D01*
X767000Y557109D02*
X764272Y548250D01*
X767000Y557109D02*
Y548250D01*
X772795Y557109D02*
X770068Y548250D01*
X772795Y557109D02*
X775522Y548250D01*
X771090Y551203D02*
X774500D01*
X778590Y557109D02*
Y548250D01*
Y557109D02*
X780977D01*
X782000Y556687*
X782000D02*
X782681Y555843D01*
X782681D02*
X783022Y555000D01*
X783022D02*
X783363Y553734D01*
X783363D02*
Y551625D01*
X783363D02*
X783022Y550359D01*
X783022D02*
X782681Y549515D01*
X782681D02*
X782000Y548671D01*
X782000D02*
X780977Y548250D01*
X778590*
X786431Y557109D02*
Y548250D01*
Y557109D02*
X790863D01*
X786431Y552890D02*
X789159D01*
X786431Y548250D02*
X790863D01*
X801772Y557109D02*
Y548250D01*
Y557109D02*
X806204D01*
X801772Y552890D02*
X804500D01*
X809272Y557109D02*
Y548250D01*
Y557109D02*
X812340D01*
X812340D02*
X813363Y556687D01*
X813363D02*
X813704Y556265D01*
X813704D02*
X814045Y555421D01*
X814045D02*
Y554578D01*
X813704Y553734*
X813704D02*
X813363Y553312D01*
X813363D02*
X812340Y552890D01*
X812340D02*
X809272D01*
X811659D02*
X814045Y548250D01*
X819159Y557109D02*
X818477Y556687D01*
X818477D02*
X817795Y555843D01*
X817795D02*
X817454Y555000D01*
X817454D02*
X817113Y553734D01*
X817113D02*
Y551625D01*
X817113D02*
X817454Y550359D01*
X817454D02*
X817795Y549515D01*
X817795D02*
X818477Y548671D01*
X818477D02*
X819159Y548250D01*
X820522*
X820522D02*
X821204Y548671D01*
X821204D02*
X821886Y549515D01*
X821886D02*
X822227Y550359D01*
X822568Y551625*
Y553734*
X822227Y555000*
X821886Y555843*
X821886D02*
X821204Y556687D01*
X821204D02*
X820522Y557109D01*
X820522D02*
X819159D01*
X825636D02*
Y548250D01*
Y557109D02*
X828363Y548250D01*
X831090Y557109D02*
X828363Y548250D01*
X831090Y557109D02*
Y548250D01*
X842000Y557109D02*
Y550781D01*
X842340Y549515*
X842340D02*
X843022Y548671D01*
X843022D02*
X844045Y548250D01*
X844727*
X845750Y548671*
X845750D02*
X846431Y549515D01*
X846431D02*
X846772Y550781D01*
X846772D02*
Y557109D01*
X849840D02*
Y548250D01*
Y557109D02*
X854613Y548250D01*
Y557109D02*
Y548250D01*
X857681Y557109D02*
Y548250D01*
Y557109D02*
X860068D01*
X861090Y556687*
X861090D02*
X861772Y555843D01*
X861772D02*
X862113Y555000D01*
X862113D02*
X862454Y553734D01*
X862454D02*
Y551625D01*
X862454D02*
X862113Y550359D01*
X862113D02*
X861772Y549515D01*
X861772D02*
X861090Y548671D01*
X861090D02*
X860068Y548250D01*
X857681*
X865522Y557109D02*
Y548250D01*
Y557109D02*
X869954D01*
X865522Y552890D02*
X868250D01*
X865522Y548250D02*
X869954D01*
X873022Y557109D02*
Y548250D01*
Y557109D02*
X876090D01*
X876090D02*
X877113Y556687D01*
X877113D02*
X877454Y556265D01*
X877454D02*
X877795Y555421D01*
X877795D02*
Y554578D01*
X877454Y553734*
X877454D02*
X877113Y553312D01*
X877113D02*
X876090Y552890D01*
X876090D02*
X873022D01*
X875409D02*
X877795Y548250D01*
X880863Y557109D02*
X882568Y548250D01*
X884272Y557109D02*
X882568Y548250D01*
X884272Y557109D02*
X885977Y548250D01*
X887681Y557109D02*
X885977Y548250D01*
X890750Y557109D02*
Y548250D01*
Y557109D02*
X893818D01*
X894840Y556687*
X894840D02*
X895181Y556265D01*
X895181D02*
X895522Y555421D01*
X895522D02*
Y554578D01*
X895522D02*
X895181Y553734D01*
X895181D02*
X894840Y553312D01*
X894840D02*
X893818Y552890D01*
X893818D02*
X890750D01*
X893136D02*
X895522Y548250D01*
X898590Y557109D02*
Y548250D01*
X904045Y557109D02*
Y548250D01*
X901659Y557109D02*
X906431D01*
X909500D02*
Y548250D01*
Y557109D02*
X913931D01*
X909500Y552890D02*
X912227D01*
X909500Y548250D02*
X913931D01*
X917000Y557109D02*
Y548250D01*
Y557109D02*
X920068D01*
X921090Y556687*
X921090D02*
X921431Y556265D01*
X921431D02*
X921772Y555421D01*
X921772D02*
Y554578D01*
X921772D02*
X921431Y553734D01*
X921431D02*
X921090Y553312D01*
X921090D02*
X920068Y552890D01*
X920068D02*
X917000D01*
X919386D02*
X921772Y548250D01*
X932681Y557109D02*
Y548250D01*
X932681D02*
X936772D01*
X942568Y557109D02*
X939840Y548250D01*
X942568Y557109D02*
X945295Y548250D01*
X940863Y551203D02*
X944272D01*
X948363Y557109D02*
Y548250D01*
Y557109D02*
X951431D01*
X951431D02*
X952454Y556687D01*
X952454D02*
X952795Y556265D01*
X952795D02*
X953136Y555421D01*
X953136D02*
Y554578D01*
X952795Y553734*
X952454Y553312*
X952454D02*
X951431Y552890D01*
X948363D02*
X951431D01*
X951431D02*
X952454Y552468D01*
X952454D02*
X952795Y552046D01*
X952795D02*
X953136Y551203D01*
Y549937*
X953136D02*
X952795Y549093D01*
X952795D02*
X952454Y548671D01*
X952454D02*
X951431Y548250D01*
X951431D02*
X948363D01*
X958250Y557109D02*
X957568Y556687D01*
X957568D02*
X956886Y555843D01*
X956886D02*
X956545Y555000D01*
X956204Y553734*
X956204D02*
Y551625D01*
X956204D02*
X956545Y550359D01*
X956886Y549515*
X956886D02*
X957568Y548671D01*
X957568D02*
X958250Y548250D01*
X959613*
X959613D02*
X960295Y548671D01*
X960295D02*
X960977Y549515D01*
X960977D02*
X961318Y550359D01*
X961659Y551625*
Y553734*
X961318Y555000*
X960977Y555843*
X960977D02*
X960295Y556687D01*
X960295D02*
X959613Y557109D01*
X959613D02*
X958250D01*
X964727D02*
Y548250D01*
Y557109D02*
X967795D01*
X968818Y556687*
X968818D02*
X969159Y556265D01*
X969159D02*
X969500Y555421D01*
X969500D02*
Y554578D01*
X969159Y553734*
X968818Y553312*
X968818D02*
X967795Y552890D01*
X967795D02*
X964727D01*
X967113D02*
X969500Y548250D01*
X975295Y557109D02*
X972568Y548250D01*
X975295Y557109D02*
X978022Y548250D01*
X973590Y551203D02*
X977000D01*
X983477Y557109D02*
Y548250D01*
X981090Y557109D02*
X985863D01*
X990977D02*
X990295Y556687D01*
X990295D02*
X989613Y555843D01*
X989613D02*
X989272Y555000D01*
X989272D02*
X988931Y553734D01*
X988931D02*
Y551625D01*
X988931D02*
X989272Y550359D01*
X989272D02*
X989613Y549515D01*
X989613D02*
X990295Y548671D01*
X990295D02*
X990977Y548250D01*
X992340*
X992340D02*
X993022Y548671D01*
X993022D02*
X993704Y549515D01*
X993704D02*
X994045Y550359D01*
X994386Y551625*
Y553734*
X994045Y555000*
X993704Y555843*
X993704D02*
X993022Y556687D01*
X993022D02*
X992340Y557109D01*
X992340D02*
X990977D01*
X997454D02*
Y548250D01*
Y557109D02*
X1000522D01*
X1000522D02*
X1001545Y556687D01*
X1001545D02*
X1001886Y556265D01*
X1001886D02*
X1002227Y555421D01*
X1002227D02*
Y554578D01*
X1001886Y553734*
X1001545Y553312*
X1001545D02*
X1000522Y552890D01*
X1000522D02*
X997454D01*
X999840D02*
X1002227Y548250D01*
X1005295Y557109D02*
X1008022Y552890D01*
X1008022D02*
Y548250D01*
X1010750Y557109D02*
X1008022Y552890D01*
X1021659Y557109D02*
Y548250D01*
Y557109D02*
X1024727D01*
X1025750Y556687*
X1025750D02*
X1026090Y556265D01*
X1026090D02*
X1026431Y555421D01*
X1026431D02*
Y554578D01*
X1026431D02*
X1026090Y553734D01*
X1026090D02*
X1025750Y553312D01*
X1025750D02*
X1024727Y552890D01*
X1024727D02*
X1021659D01*
X1024045D02*
X1026431Y548250D01*
X1029500Y557109D02*
Y548250D01*
Y557109D02*
X1033931D01*
X1029500Y552890D02*
X1032227D01*
X1029500Y548250D02*
X1033931D01*
X1042113Y555000D02*
X1041772Y555843D01*
X1041772D02*
X1041090Y556687D01*
X1041090D02*
X1040409Y557109D01*
X1039045*
X1038363Y556687*
X1038363D02*
X1037681Y555843D01*
X1037681D02*
X1037340Y555000D01*
X1037340D02*
X1037000Y553734D01*
Y551625*
X1037340Y550359*
X1037340D02*
X1037681Y549515D01*
X1037681D02*
X1038363Y548671D01*
X1038363D02*
X1039045Y548250D01*
X1040409*
X1041090Y548671*
X1041090D02*
X1041772Y549515D01*
X1041772D02*
X1042113Y550359D01*
X1047227Y557109D02*
X1046545Y556687D01*
X1046545D02*
X1045863Y555843D01*
X1045863D02*
X1045522Y555000D01*
X1045522D02*
X1045181Y553734D01*
X1045181D02*
Y551625D01*
X1045181D02*
X1045522Y550359D01*
X1045522D02*
X1045863Y549515D01*
X1045863D02*
X1046545Y548671D01*
X1046545D02*
X1047227Y548250D01*
X1048590*
X1048590D02*
X1049272Y548671D01*
X1049272D02*
X1049954Y549515D01*
X1049954D02*
X1050295Y550359D01*
X1050636Y551625*
Y553734*
X1050295Y555000*
X1049954Y555843*
X1049954D02*
X1049272Y556687D01*
X1049272D02*
X1048590Y557109D01*
X1048590D02*
X1047227D01*
X1058818Y555000D02*
X1058477Y555843D01*
X1058477D02*
X1057795Y556687D01*
X1057795D02*
X1057113Y557109D01*
X1057113D02*
X1055750D01*
X1055068Y556687*
X1055068D02*
X1054386Y555843D01*
X1054386D02*
X1054045Y555000D01*
X1053704Y553734*
X1053704D02*
Y551625D01*
X1053704D02*
X1054045Y550359D01*
X1054386Y549515*
X1054386D02*
X1055068Y548671D01*
X1055068D02*
X1055750Y548250D01*
X1057113*
X1057113D02*
X1057795Y548671D01*
X1057795D02*
X1058477Y549515D01*
X1058477D02*
X1058818Y550359D01*
Y551625*
X1057113D02*
X1058818D01*
X1061886Y557109D02*
Y548250D01*
Y557109D02*
X1066659Y548250D01*
Y557109D02*
Y548250D01*
X1069727Y557109D02*
Y548250D01*
X1077568Y557109D02*
X1072795Y548250D01*
Y557109D02*
X1077568D01*
X1072795Y548250D02*
X1077568D01*
X1080636Y557109D02*
Y548250D01*
Y557109D02*
X1085068D01*
X1080636Y552890D02*
X1083363D01*
X1080636Y548250D02*
X1085068D01*
X1088136Y557109D02*
Y548250D01*
Y557109D02*
X1090522D01*
X1090522D02*
X1091545Y556687D01*
X1091545D02*
X1092227Y555843D01*
X1092227D02*
X1092568Y555000D01*
X1092909Y553734*
Y551625*
X1092568Y550359*
X1092227Y549515*
X1092227D02*
X1091545Y548671D01*
X1091545D02*
X1090522Y548250D01*
X1090522D02*
X1088136D01*
X635750Y537109D02*
Y528250D01*
Y537109D02*
X638477Y528250D01*
X641204Y537109D02*
X638477Y528250D01*
X641204Y537109D02*
Y528250D01*
X647000Y537109D02*
X644272Y528250D01*
X647000Y537109D02*
X649727Y528250D01*
X645295Y531203D02*
X648704D01*
X655181Y537109D02*
Y528250D01*
X652795Y537109D02*
X657568D01*
X660636D02*
Y528250D01*
Y537109D02*
X665068D01*
X660636Y532890D02*
X663363D01*
X660636Y528250D02*
X665068D01*
X668136Y537109D02*
Y528250D01*
Y537109D02*
X671204D01*
X671204D02*
X672227Y536687D01*
X672227D02*
X672568Y536265D01*
X672568D02*
X672909Y535421D01*
X672909D02*
Y534578D01*
X672568Y533734*
X672227Y533312*
X672227D02*
X671204Y532890D01*
X671204D02*
X668136D01*
X670522D02*
X672909Y528250D01*
X675977Y537109D02*
Y528250D01*
X681772Y537109D02*
X679045Y528250D01*
X681772Y537109D02*
X684500Y528250D01*
X680068Y531203D02*
X683477D01*
X687568Y537109D02*
Y528250D01*
X691659*
X705295Y537109D02*
X702568Y528250D01*
X705295Y537109D02*
X708022Y528250D01*
X703590Y531203D02*
X707000D01*
X711090Y537109D02*
Y528250D01*
Y537109D02*
X715863Y528250D01*
Y537109D02*
Y528250D01*
X718931Y537109D02*
Y528250D01*
Y537109D02*
X721318D01*
X722340Y536687*
X722340D02*
X723022Y535843D01*
X723022D02*
X723363Y535000D01*
X723363D02*
X723704Y533734D01*
X723704D02*
Y531625D01*
X723704D02*
X723363Y530359D01*
X723363D02*
X723022Y529515D01*
X723022D02*
X722340Y528671D01*
X722340D02*
X721318Y528250D01*
X718931*
X737000Y537109D02*
Y528250D01*
X734613Y537109D02*
X739386D01*
X742454D02*
Y528250D01*
X747227Y537109D02*
Y528250D01*
X742454Y532890D02*
X747227D01*
X750295Y537109D02*
Y528250D01*
Y537109D02*
X754727D01*
X750295Y532890D02*
X753022D01*
X750295Y528250D02*
X754727D01*
X765636Y537109D02*
Y528250D01*
Y537109D02*
X770068D01*
X765636Y532890D02*
X768363D01*
X773136Y537109D02*
Y528250D01*
X776204Y537109D02*
Y528250D01*
Y537109D02*
X780977Y528250D01*
Y537109D02*
Y528250D01*
X784045Y537109D02*
Y528250D01*
X791886Y535843D02*
X791204Y536687D01*
X791204D02*
X790181Y537109D01*
X790181D02*
X788818D01*
X787795Y536687*
X787795D02*
X787113Y535843D01*
X787113D02*
Y535000D01*
X787113D02*
X787454Y534156D01*
X787454D02*
X787795Y533734D01*
X788477Y533312*
X788477D02*
X790522Y532468D01*
X790522D02*
X791204Y532046D01*
X791204D02*
X791545Y531625D01*
X791886Y530781*
Y529515*
X791886D02*
X791204Y528671D01*
X791204D02*
X790181Y528250D01*
X790181D02*
X788818D01*
X787795Y528671*
X787795D02*
X787113Y529515D01*
X794954Y537109D02*
Y528250D01*
X799727Y537109D02*
Y528250D01*
X794954Y532890D02*
X799727D01*
X802795Y537109D02*
Y528250D01*
Y537109D02*
X807227D01*
X802795Y532890D02*
X805522D01*
X802795Y528250D02*
X807227D01*
X810295Y537109D02*
Y528250D01*
Y537109D02*
X812681D01*
X812681D02*
X813704Y536687D01*
X813704D02*
X814386Y535843D01*
X814386D02*
X814727Y535000D01*
X815068Y533734*
Y531625*
X814727Y530359*
X814386Y529515*
X814386D02*
X813704Y528671D01*
X813704D02*
X812681Y528250D01*
X812681D02*
X810295D01*
X825977Y537109D02*
Y528250D01*
Y537109D02*
X829045D01*
X830068Y536687*
X830068D02*
X830409Y536265D01*
X830409D02*
X830750Y535421D01*
X830750D02*
Y534578D01*
X830409Y533734*
X830068Y533312*
X830068D02*
X829045Y532890D01*
X825977D02*
X829045D01*
X829045D02*
X830068Y532468D01*
X830068D02*
X830409Y532046D01*
X830409D02*
X830750Y531203D01*
Y529937*
X830750D02*
X830409Y529093D01*
X830409D02*
X830068Y528671D01*
X830068D02*
X829045Y528250D01*
X825977*
X835863Y537109D02*
X835181Y536687D01*
X835181D02*
X834500Y535843D01*
X834500D02*
X834159Y535000D01*
X833818Y533734*
Y531625*
X834159Y530359*
X834500Y529515*
X834500D02*
X835181Y528671D01*
X835181D02*
X835863Y528250D01*
X835863D02*
X837227D01*
X837909Y528671*
X837909D02*
X838590Y529515D01*
X838590D02*
X838931Y530359D01*
X838931D02*
X839272Y531625D01*
X839272D02*
Y533734D01*
X839272D02*
X838931Y535000D01*
X838931D02*
X838590Y535843D01*
X838590D02*
X837909Y536687D01*
X837909D02*
X837227Y537109D01*
X835863*
X845068D02*
X842340Y528250D01*
X845068Y537109D02*
X847795Y528250D01*
X843363Y531203D02*
X846772D01*
X850863Y537109D02*
Y528250D01*
Y537109D02*
X853931D01*
X853931D02*
X854954Y536687D01*
X854954D02*
X855295Y536265D01*
X855295D02*
X855636Y535421D01*
X855636D02*
Y534578D01*
X855295Y533734*
X854954Y533312*
X854954D02*
X853931Y532890D01*
X853931D02*
X850863D01*
X853250D02*
X855636Y528250D01*
X858704Y537109D02*
Y528250D01*
Y537109D02*
X861090D01*
X861090D02*
X862113Y536687D01*
X862113D02*
X862795Y535843D01*
X862795D02*
X863136Y535000D01*
X863477Y533734*
Y531625*
X863136Y530359*
X862795Y529515*
X862795D02*
X862113Y528671D01*
X862113D02*
X861090Y528250D01*
X861090D02*
X858704D01*
X874386Y537109D02*
Y528250D01*
Y537109D02*
X877113Y528250D01*
X879840Y537109D02*
X877113Y528250D01*
X879840Y537109D02*
Y528250D01*
X882909Y537109D02*
Y530781D01*
X883250Y529515*
X883250D02*
X883931Y528671D01*
X883931D02*
X884954Y528250D01*
X884954D02*
X885636D01*
X886659Y528671*
X886659D02*
X887340Y529515D01*
X887340D02*
X887681Y530781D01*
X887681D02*
Y537109D01*
X895522Y535843D02*
X894840Y536687D01*
X894840D02*
X893818Y537109D01*
X892454*
X892454D02*
X891431Y536687D01*
X891431D02*
X890750Y535843D01*
X890750D02*
Y535000D01*
X891090Y534156*
X891090D02*
X891431Y533734D01*
X891431D02*
X892113Y533312D01*
X892113D02*
X894159Y532468D01*
X894159D02*
X894840Y532046D01*
X894840D02*
X895181Y531625D01*
X895181D02*
X895522Y530781D01*
X895522D02*
Y529515D01*
X895522D02*
X894840Y528671D01*
X894840D02*
X893818Y528250D01*
X892454*
X892454D02*
X891431Y528671D01*
X891431D02*
X890750Y529515D01*
X900977Y537109D02*
Y528250D01*
X898590Y537109D02*
X903363D01*
X919386Y535000D02*
X919045Y535843D01*
X919045D02*
X918363Y536687D01*
X918363D02*
X917681Y537109D01*
X917681D02*
X916318D01*
X915636Y536687*
X915636D02*
X914954Y535843D01*
X914954D02*
X914613Y535000D01*
X914613D02*
X914272Y533734D01*
X914272D02*
Y531625D01*
X914272D02*
X914613Y530359D01*
X914613D02*
X914954Y529515D01*
X914954D02*
X915636Y528671D01*
X915636D02*
X916318Y528250D01*
X917681*
X917681D02*
X918363Y528671D01*
X918363D02*
X919045Y529515D01*
X919045D02*
X919386Y530359D01*
X925181Y537109D02*
X922454Y528250D01*
X925181Y537109D02*
X927909Y528250D01*
X923477Y531203D02*
X926886D01*
X930977Y537109D02*
Y528250D01*
Y537109D02*
X934045D01*
X935068Y536687*
X935068D02*
X935409Y536265D01*
X935409D02*
X935750Y535421D01*
X935750D02*
Y534578D01*
X935409Y533734*
X935068Y533312*
X935068D02*
X934045Y532890D01*
X934045D02*
X930977D01*
X933363D02*
X935750Y528250D01*
X938818Y537109D02*
Y528250D01*
Y537109D02*
X941886D01*
X942909Y536687*
X942909D02*
X943250Y536265D01*
X943250D02*
X943590Y535421D01*
X943590D02*
Y534578D01*
X943590D02*
X943250Y533734D01*
X942909Y533312*
X942909D02*
X941886Y532890D01*
X941886D02*
X938818D01*
X941204D02*
X943590Y528250D01*
X946659Y537109D02*
X949386Y532890D01*
X949386D02*
Y528250D01*
X952113Y537109D02*
X949386Y532890D01*
X965409Y537109D02*
Y528250D01*
X963022Y537109D02*
X967795D01*
X970863D02*
Y528250D01*
X975636Y537109D02*
Y528250D01*
X970863Y532890D02*
X975636D01*
X978704Y537109D02*
Y528250D01*
Y537109D02*
X983136D01*
X978704Y532890D02*
X981431D01*
X978704Y528250D02*
X983136D01*
X994045Y537109D02*
X996772Y528250D01*
X999500Y537109D02*
X996772Y528250D01*
X1002568Y537109D02*
Y528250D01*
Y537109D02*
X1007000D01*
X1002568Y532890D02*
X1005295D01*
X1002568Y528250D02*
X1007000D01*
X1010068Y537109D02*
Y528250D01*
Y537109D02*
X1014840Y528250D01*
Y537109D02*
Y528250D01*
X1017909Y537109D02*
Y528250D01*
Y537109D02*
X1020295D01*
X1021318Y536687*
X1021318D02*
X1022000Y535843D01*
X1022000D02*
X1022340Y535000D01*
X1022340D02*
X1022681Y533734D01*
X1022681D02*
Y531625D01*
X1022681D02*
X1022340Y530359D01*
X1022340D02*
X1022000Y529515D01*
X1022000D02*
X1021318Y528671D01*
X1021318D02*
X1020295Y528250D01*
X1017909*
X1027795Y537109D02*
X1027113Y536687D01*
X1027113D02*
X1026431Y535843D01*
X1026431D02*
X1026090Y535000D01*
X1026090D02*
X1025750Y533734D01*
Y531625*
X1026090Y530359*
X1026090D02*
X1026431Y529515D01*
X1026431D02*
X1027113Y528671D01*
X1027113D02*
X1027795Y528250D01*
X1029159*
X1029840Y528671*
X1029840D02*
X1030522Y529515D01*
X1030522D02*
X1030863Y530359D01*
X1030863D02*
X1031204Y531625D01*
X1031204D02*
Y533734D01*
X1031204D02*
X1030863Y535000D01*
X1030863D02*
X1030522Y535843D01*
X1030522D02*
X1029840Y536687D01*
X1029840D02*
X1029159Y537109D01*
X1027795*
X1034272D02*
Y528250D01*
Y537109D02*
X1037340D01*
X1037340D02*
X1038363Y536687D01*
X1038363D02*
X1038704Y536265D01*
X1038704D02*
X1039045Y535421D01*
X1039045D02*
Y534578D01*
X1038704Y533734*
X1038704D02*
X1038363Y533312D01*
X1038363D02*
X1037340Y532890D01*
X1037340D02*
X1034272D01*
X1036659D02*
X1039045Y528250D01*
X1042113Y537109D02*
Y534156D01*
X1050636Y535843D02*
X1049954Y536687D01*
X1049954D02*
X1048931Y537109D01*
X1048931D02*
X1047568D01*
X1046545Y536687*
X1046545D02*
X1045863Y535843D01*
X1045863D02*
Y535000D01*
X1045863D02*
X1046204Y534156D01*
X1046204D02*
X1046545Y533734D01*
X1047227Y533312*
X1047227D02*
X1049272Y532468D01*
X1049272D02*
X1049954Y532046D01*
X1049954D02*
X1050295Y531625D01*
X1050636Y530781*
Y529515*
X1050636D02*
X1049954Y528671D01*
X1049954D02*
X1048931Y528250D01*
X1048931D02*
X1047568D01*
X1046545Y528671*
X1046545D02*
X1045863Y529515D01*
X635750Y517109D02*
Y510781D01*
X636090Y509515*
X636090D02*
X636772Y508671D01*
X636772D02*
X637795Y508250D01*
X638477*
X639500Y508671*
X639500D02*
X640181Y509515D01*
X640181D02*
X640522Y510781D01*
X640522D02*
Y517109D01*
X643931Y509093D02*
X643590Y508671D01*
X643590D02*
X643931Y508250D01*
X643931D02*
X644272Y508671D01*
X644272D02*
X643931Y509093D01*
X647340Y517109D02*
Y508250D01*
X647340D02*
X651431D01*
X654840Y509093D02*
X654500Y508671D01*
X654500D02*
X654840Y508250D01*
X654840D02*
X655181Y508671D01*
X655181D02*
X654840Y509093D01*
X666090Y517109D02*
Y508250D01*
X666090D02*
X670181D01*
X675295Y517109D02*
X674613Y516687D01*
X674613D02*
X673931Y515843D01*
X673931D02*
X673590Y515000D01*
X673590D02*
X673250Y513734D01*
Y511625*
X673590Y510359*
X673590D02*
X673931Y509515D01*
X673931D02*
X674613Y508671D01*
X674613D02*
X675295Y508250D01*
X676659*
X677340Y508671*
X677340D02*
X678022Y509515D01*
X678022D02*
X678363Y510359D01*
X678363D02*
X678704Y511625D01*
X678704D02*
Y513734D01*
X678704D02*
X678363Y515000D01*
X678363D02*
X678022Y515843D01*
X678022D02*
X677340Y516687D01*
X677340D02*
X676659Y517109D01*
X675295*
X686886Y515000D02*
X686545Y515843D01*
X686545D02*
X685863Y516687D01*
X685863D02*
X685181Y517109D01*
X685181D02*
X683818D01*
X683136Y516687*
X683136D02*
X682454Y515843D01*
X682454D02*
X682113Y515000D01*
X682113D02*
X681772Y513734D01*
X681772D02*
Y511625D01*
X681772D02*
X682113Y510359D01*
X682113D02*
X682454Y509515D01*
X682454D02*
X683136Y508671D01*
X683136D02*
X683818Y508250D01*
X685181*
X685181D02*
X685863Y508671D01*
X685863D02*
X686545Y509515D01*
X686545D02*
X686886Y510359D01*
Y511625*
X685181D02*
X686886D01*
X692000Y517109D02*
X691318Y516687D01*
X691318D02*
X690636Y515843D01*
X690636D02*
X690295Y515000D01*
X689954Y513734*
X689954D02*
Y511625D01*
X689954D02*
X690295Y510359D01*
X690636Y509515*
X690636D02*
X691318Y508671D01*
X691318D02*
X692000Y508250D01*
X693363*
X693363D02*
X694045Y508671D01*
X694045D02*
X694727Y509515D01*
X694727D02*
X695068Y510359D01*
X695409Y511625*
Y513734*
X695068Y515000*
X694727Y515843*
X694727D02*
X694045Y516687D01*
X694045D02*
X693363Y517109D01*
X693363D02*
X692000D01*
X709045D02*
X706318Y508250D01*
X709045Y517109D02*
X711772Y508250D01*
X707340Y511203D02*
X710750D01*
X714840Y517109D02*
Y508250D01*
Y517109D02*
X719613Y508250D01*
Y517109D02*
Y508250D01*
X722681Y517109D02*
Y508250D01*
Y517109D02*
X725068D01*
X726090Y516687*
X726090D02*
X726772Y515843D01*
X726772D02*
X727113Y515000D01*
X727113D02*
X727454Y513734D01*
X727454D02*
Y511625D01*
X727454D02*
X727113Y510359D01*
X727113D02*
X726772Y509515D01*
X726772D02*
X726090Y508671D01*
X726090D02*
X725068Y508250D01*
X722681*
X738363Y517109D02*
Y508250D01*
Y517109D02*
X740750D01*
X741772Y516687*
X741772D02*
X742454Y515843D01*
X742454D02*
X742795Y515000D01*
X743136Y513734*
Y511625*
X742795Y510359*
X742454Y509515*
X742454D02*
X741772Y508671D01*
X741772D02*
X740750Y508250D01*
X738363*
X748931Y517109D02*
X746204Y508250D01*
X748931Y517109D02*
X751659Y508250D01*
X747227Y511203D02*
X750636D01*
X757113Y517109D02*
Y508250D01*
X754727Y517109D02*
X759500D01*
X762568D02*
Y508250D01*
Y517109D02*
X767000D01*
X762568Y512890D02*
X765295D01*
X762568Y508250D02*
X767000D01*
X783022Y515000D02*
X782681Y515843D01*
X782681D02*
X782000Y516687D01*
X782000D02*
X781318Y517109D01*
X779954*
X779954D02*
X779272Y516687D01*
X779272D02*
X778590Y515843D01*
X778590D02*
X778250Y515000D01*
X777909Y513734*
Y511625*
X778250Y510359*
X778590Y509515*
X778590D02*
X779272Y508671D01*
X779272D02*
X779954Y508250D01*
X779954D02*
X781318D01*
X782000Y508671*
X782000D02*
X782681Y509515D01*
X782681D02*
X783022Y510359D01*
X788136Y517109D02*
X787454Y516687D01*
X787454D02*
X786772Y515843D01*
X786772D02*
X786431Y515000D01*
X786431D02*
X786090Y513734D01*
X786090D02*
Y511625D01*
X786090D02*
X786431Y510359D01*
X786431D02*
X786772Y509515D01*
X786772D02*
X787454Y508671D01*
X787454D02*
X788136Y508250D01*
X789500*
X790181Y508671*
X790181D02*
X790863Y509515D01*
X790863D02*
X791204Y510359D01*
X791204D02*
X791545Y511625D01*
Y513734*
X791204Y515000*
X791204D02*
X790863Y515843D01*
X790863D02*
X790181Y516687D01*
X790181D02*
X789500Y517109D01*
X788136*
X794613D02*
Y508250D01*
Y517109D02*
X797000D01*
X798022Y516687*
X798022D02*
X798704Y515843D01*
X798704D02*
X799045Y515000D01*
X799386Y513734*
Y511625*
X799045Y510359*
X798704Y509515*
X798704D02*
X798022Y508671D01*
X798022D02*
X797000Y508250D01*
X794613*
X802454Y517109D02*
Y508250D01*
Y517109D02*
X806886D01*
X802454Y512890D02*
X805181D01*
X802454Y508250D02*
X806886D01*
X810295Y509093D02*
X809954Y508671D01*
X809954D02*
X810295Y508250D01*
X810636Y508671*
X810636D02*
X810295Y509093D01*
X638477Y492109D02*
X635750Y483250D01*
X638477Y492109D02*
X641204Y483250D01*
X636772Y486203D02*
X640181D01*
X644272Y492109D02*
Y483250D01*
X644272D02*
X648363D01*
X651431Y492109D02*
Y483250D01*
X651431D02*
X655522D01*
X666431Y492109D02*
Y483250D01*
Y492109D02*
X668818D01*
X669840Y491687*
X669840D02*
X670522Y490843D01*
X670522D02*
X670863Y490000D01*
X670863D02*
X671204Y488734D01*
X671204D02*
Y486625D01*
X671204D02*
X670863Y485359D01*
X670863D02*
X670522Y484515D01*
X670522D02*
X669840Y483671D01*
X669840D02*
X668818Y483250D01*
X666431*
X674272Y492109D02*
Y483250D01*
Y492109D02*
X677340D01*
X677340D02*
X678363Y491687D01*
X678363D02*
X678704Y491265D01*
X678704D02*
X679045Y490421D01*
X679045D02*
Y489578D01*
X678704Y488734*
X678704D02*
X678363Y488312D01*
X678363D02*
X677340Y487890D01*
X677340D02*
X674272D01*
X676659D02*
X679045Y483250D01*
X684840Y492109D02*
X682113Y483250D01*
X684840Y492109D02*
X687568Y483250D01*
X683136Y486203D02*
X686545D01*
X690636Y492109D02*
X692340Y483250D01*
X694045Y492109D02*
X692340Y483250D01*
X694045Y492109D02*
X695750Y483250D01*
X697454Y492109D02*
X695750Y483250D01*
X700522Y492109D02*
Y483250D01*
X703590Y492109D02*
Y483250D01*
Y492109D02*
X708363Y483250D01*
Y492109D02*
Y483250D01*
X716545Y490000D02*
X716204Y490843D01*
X716204D02*
X715522Y491687D01*
X715522D02*
X714840Y492109D01*
X714840D02*
X713477D01*
X712795Y491687*
X712795D02*
X712113Y490843D01*
X712113D02*
X711772Y490000D01*
X711772D02*
X711431Y488734D01*
X711431D02*
Y486625D01*
X711431D02*
X711772Y485359D01*
X711772D02*
X712113Y484515D01*
X712113D02*
X712795Y483671D01*
X712795D02*
X713477Y483250D01*
X714840*
X714840D02*
X715522Y483671D01*
X715522D02*
X716204Y484515D01*
X716204D02*
X716545Y485359D01*
Y486625*
X714840D02*
X716545D01*
X724386Y490843D02*
X723704Y491687D01*
X723704D02*
X722681Y492109D01*
X722681D02*
X721318D01*
X720295Y491687*
X720295D02*
X719613Y490843D01*
X719613D02*
Y490000D01*
X719613D02*
X719954Y489156D01*
X719954D02*
X720295Y488734D01*
X720977Y488312*
X720977D02*
X723022Y487468D01*
X723022D02*
X723704Y487046D01*
X723704D02*
X724045Y486625D01*
X724386Y485781*
Y484515*
X724386D02*
X723704Y483671D01*
X723704D02*
X722681Y483250D01*
X722681D02*
X721318D01*
X720295Y483671*
X720295D02*
X719613Y484515D01*
X738022Y492109D02*
X735295Y483250D01*
X738022Y492109D02*
X740750Y483250D01*
X736318Y486203D02*
X739727D01*
X743818Y492109D02*
Y483250D01*
Y492109D02*
X748590Y483250D01*
Y492109D02*
Y483250D01*
X751659Y492109D02*
Y483250D01*
Y492109D02*
X754045D01*
X755068Y491687*
X755068D02*
X755750Y490843D01*
X755750D02*
X756090Y490000D01*
X756090D02*
X756431Y488734D01*
X756431D02*
Y486625D01*
X756431D02*
X756090Y485359D01*
X756090D02*
X755750Y484515D01*
X755750D02*
X755068Y483671D01*
X755068D02*
X754045Y483250D01*
X751659*
X767340Y492109D02*
Y483250D01*
Y492109D02*
X771772D01*
X767340Y487890D02*
X770068D01*
X774840Y492109D02*
Y483250D01*
X777909Y492109D02*
Y483250D01*
X782000*
X785068Y492109D02*
Y483250D01*
Y492109D02*
X787795Y483250D01*
X790522Y492109D02*
X787795Y483250D01*
X790522Y492109D02*
Y483250D01*
X798363Y490843D02*
X797681Y491687D01*
X797681D02*
X796659Y492109D01*
X795295*
X794272Y491687*
X794272D02*
X793590Y490843D01*
X793590D02*
Y490000D01*
X793590D02*
X793931Y489156D01*
X793931D02*
X794272Y488734D01*
X794272D02*
X794954Y488312D01*
X794954D02*
X797000Y487468D01*
X797000D02*
X797681Y487046D01*
X797681D02*
X798022Y486625D01*
X798022D02*
X798363Y485781D01*
X798363D02*
Y484515D01*
X798363D02*
X797681Y483671D01*
X797681D02*
X796659Y483250D01*
X795295*
X794272Y483671*
X794272D02*
X793590Y484515D01*
X809272Y492109D02*
X812000Y483250D01*
X814727Y492109D02*
X812000Y483250D01*
X817795Y492109D02*
Y483250D01*
X820863Y492109D02*
Y483250D01*
Y492109D02*
X825295D01*
X820863Y487890D02*
X823590D01*
X820863Y483250D02*
X825295D01*
X828363Y492109D02*
X830068Y483250D01*
X831772Y492109D02*
X830068Y483250D01*
X831772Y492109D02*
X833477Y483250D01*
X835181Y492109D02*
X833477Y483250D01*
X838250Y492109D02*
Y483250D01*
Y492109D02*
X842681D01*
X838250Y487890D02*
X840977D01*
X838250Y483250D02*
X842681D01*
X845750Y492109D02*
Y483250D01*
Y492109D02*
X848136D01*
X849159Y491687*
X849159D02*
X849840Y490843D01*
X849840D02*
X850181Y490000D01*
X850181D02*
X850522Y488734D01*
X850522D02*
Y486625D01*
X850522D02*
X850181Y485359D01*
X850181D02*
X849840Y484515D01*
X849840D02*
X849159Y483671D01*
X849159D02*
X848136Y483250D01*
X845750*
X861431Y492109D02*
Y483250D01*
Y492109D02*
X865863D01*
X861431Y487890D02*
X864159D01*
X868931Y492109D02*
Y483250D01*
Y492109D02*
X872000D01*
X873022Y491687*
X873022D02*
X873363Y491265D01*
X873363D02*
X873704Y490421D01*
X873704D02*
Y489578D01*
X873704D02*
X873363Y488734D01*
X873363D02*
X873022Y488312D01*
X873022D02*
X872000Y487890D01*
X872000D02*
X868931D01*
X871318D02*
X873704Y483250D01*
X878818Y492109D02*
X878136Y491687D01*
X878136D02*
X877454Y490843D01*
X877454D02*
X877113Y490000D01*
X877113D02*
X876772Y488734D01*
X876772D02*
Y486625D01*
X876772D02*
X877113Y485359D01*
X877113D02*
X877454Y484515D01*
X877454D02*
X878136Y483671D01*
X878136D02*
X878818Y483250D01*
X880181*
X880181D02*
X880863Y483671D01*
X880863D02*
X881545Y484515D01*
X881545D02*
X881886Y485359D01*
X882227Y486625*
Y488734*
X881886Y490000*
X881545Y490843*
X881545D02*
X880863Y491687D01*
X880863D02*
X880181Y492109D01*
X880181D02*
X878818D01*
X885295D02*
Y483250D01*
Y492109D02*
X888022Y483250D01*
X890750Y492109D02*
X888022Y483250D01*
X890750Y492109D02*
Y483250D01*
X904045Y492109D02*
Y483250D01*
X901659Y492109D02*
X906431D01*
X911545D02*
X910863Y491687D01*
X910863D02*
X910181Y490843D01*
X910181D02*
X909840Y490000D01*
X909840D02*
X909500Y488734D01*
Y486625*
X909840Y485359*
X909840D02*
X910181Y484515D01*
X910181D02*
X910863Y483671D01*
X910863D02*
X911545Y483250D01*
X912909*
X913590Y483671*
X913590D02*
X914272Y484515D01*
X914272D02*
X914613Y485359D01*
X914613D02*
X914954Y486625D01*
X914954D02*
Y488734D01*
X914954D02*
X914613Y490000D01*
X914613D02*
X914272Y490843D01*
X914272D02*
X913590Y491687D01*
X913590D02*
X912909Y492109D01*
X911545*
X918022D02*
Y483250D01*
Y492109D02*
X921090D01*
X921090D02*
X922113Y491687D01*
X922113D02*
X922454Y491265D01*
X922454D02*
X922795Y490421D01*
X922795D02*
Y489156D01*
X922454Y488312*
X922454D02*
X922113Y487890D01*
X922113D02*
X921090Y487468D01*
X921090D02*
X918022D01*
X938477Y490843D02*
X937795Y491687D01*
X937795D02*
X936772Y492109D01*
X936772D02*
X935409D01*
X934386Y491687*
X934386D02*
X933704Y490843D01*
X933704D02*
Y490000D01*
X933704D02*
X934045Y489156D01*
X934386Y488734*
X935068Y488312*
X935068D02*
X937113Y487468D01*
X937113D02*
X937795Y487046D01*
X937795D02*
X938136Y486625D01*
X938477Y485781*
Y484515*
X938477D02*
X937795Y483671D01*
X937795D02*
X936772Y483250D01*
X936772D02*
X935409D01*
X934386Y483671*
X934386D02*
X933704Y484515D01*
X941545Y492109D02*
Y483250D01*
X944613Y492109D02*
Y483250D01*
Y492109D02*
X947000D01*
X948022Y491687*
X948022D02*
X948704Y490843D01*
X948704D02*
X949045Y490000D01*
X949386Y488734*
Y486625*
X949045Y485359*
X948704Y484515*
X948704D02*
X948022Y483671D01*
X948022D02*
X947000Y483250D01*
X944613*
X952454Y492109D02*
Y483250D01*
Y492109D02*
X956886D01*
X952454Y487890D02*
X955181D01*
X952454Y483250D02*
X956886D01*
X960295Y484093D02*
X959954Y483671D01*
X959954D02*
X960295Y483250D01*
X960636Y483671*
X960636D02*
X960295Y484093D01*
X619840Y578343D02*
X619500Y579187D01*
X619500D02*
X618477Y579609D01*
X617795*
X616772Y579187*
X616772D02*
X616090Y577921D01*
X616090D02*
X615750Y575812D01*
X615750D02*
Y573703D01*
X616090Y572015*
X616090D02*
X616772Y571171D01*
X616772D02*
X617795Y570750D01*
X618136*
X619159Y571171*
X619159D02*
X619840Y572015D01*
X619840D02*
X620181Y573281D01*
X620181D02*
Y573703D01*
X620181D02*
X619840Y574968D01*
X619840D02*
X619159Y575812D01*
X619159D02*
X618136Y576234D01*
X617795*
X616772Y575812*
X616772D02*
X616090Y574968D01*
X616090D02*
X615750Y573703D01*
X623590Y571593D02*
X623250Y571171D01*
X623250D02*
X623590Y570750D01*
X623590D02*
X623931Y571171D01*
X623931D02*
X623590Y571593D01*
X635750Y579609D02*
Y570750D01*
Y579609D02*
X638818D01*
X639840Y579187*
X639840D02*
X640181Y578765D01*
X640181D02*
X640522Y577921D01*
X640522D02*
Y577078D01*
X640522D02*
X640181Y576234D01*
X640181D02*
X639840Y575812D01*
X639840D02*
X638818Y575390D01*
X635750D02*
X638818D01*
X638818D02*
X639840Y574968D01*
X639840D02*
X640181Y574546D01*
X640181D02*
X640522Y573703D01*
X640522D02*
Y572437D01*
X640522D02*
X640181Y571593D01*
X640181D02*
X639840Y571171D01*
X639840D02*
X638818Y570750D01*
X635750*
X645636Y579609D02*
X644954Y579187D01*
X644954D02*
X644272Y578343D01*
X644272D02*
X643931Y577500D01*
X643931D02*
X643590Y576234D01*
X643590D02*
Y574125D01*
X643590D02*
X643931Y572859D01*
X643931D02*
X644272Y572015D01*
X644272D02*
X644954Y571171D01*
X644954D02*
X645636Y570750D01*
X647000*
X647681Y571171*
X647681D02*
X648363Y572015D01*
X648363D02*
X648704Y572859D01*
X648704D02*
X649045Y574125D01*
Y576234*
X648704Y577500*
X648704D02*
X648363Y578343D01*
X648363D02*
X647681Y579187D01*
X647681D02*
X647000Y579609D01*
X645636*
X654840D02*
X652113Y570750D01*
X654840Y579609D02*
X657568Y570750D01*
X653136Y573703D02*
X656545D01*
X660636Y579609D02*
Y570750D01*
Y579609D02*
X663704D01*
X663704D02*
X664727Y579187D01*
X664727D02*
X665068Y578765D01*
X665068D02*
X665409Y577921D01*
X665409D02*
Y577078D01*
X665068Y576234*
X664727Y575812*
X664727D02*
X663704Y575390D01*
X663704D02*
X660636D01*
X663022D02*
X665409Y570750D01*
X668477Y579609D02*
Y570750D01*
Y579609D02*
X670863D01*
X670863D02*
X671886Y579187D01*
X671886D02*
X672568Y578343D01*
X672568D02*
X672909Y577500D01*
X673250Y576234*
Y574125*
X672909Y572859*
X672568Y572015*
X672568D02*
X671886Y571171D01*
X671886D02*
X670863Y570750D01*
X670863D02*
X668477D01*
X681090Y578343D02*
X680409Y579187D01*
X680409D02*
X679386Y579609D01*
X678022*
X678022D02*
X677000Y579187D01*
X677000D02*
X676318Y578343D01*
X676318D02*
Y577500D01*
X676659Y576656*
X677000Y576234*
X677681Y575812*
X677681D02*
X679727Y574968D01*
X679727D02*
X680409Y574546D01*
X680409D02*
X680750Y574125D01*
X681090Y573281*
X681090D02*
Y572015D01*
X681090D02*
X680409Y571171D01*
X680409D02*
X679386Y570750D01*
X678022*
X678022D02*
X677000Y571171D01*
X677000D02*
X676318Y572015D01*
X694386Y579609D02*
Y570750D01*
X692000Y579609D02*
X696772D01*
X701886D02*
X701204Y579187D01*
X701204D02*
X700522Y578343D01*
X700522D02*
X700181Y577500D01*
X700181D02*
X699840Y576234D01*
X699840D02*
Y574125D01*
X699840D02*
X700181Y572859D01*
X700181D02*
X700522Y572015D01*
X700522D02*
X701204Y571171D01*
X701204D02*
X701886Y570750D01*
X703250*
X703931Y571171*
X703931D02*
X704613Y572015D01*
X704613D02*
X704954Y572859D01*
X704954D02*
X705295Y574125D01*
Y576234*
X704954Y577500*
X704954D02*
X704613Y578343D01*
X704613D02*
X703931Y579187D01*
X703931D02*
X703250Y579609D01*
X701886*
X716204D02*
Y570750D01*
Y579609D02*
X719272D01*
X719272D02*
X720295Y579187D01*
X720295D02*
X720636Y578765D01*
X720636D02*
X720977Y577921D01*
X720977D02*
Y577078D01*
X720636Y576234*
X720295Y575812*
X720295D02*
X719272Y575390D01*
X716204D02*
X719272D01*
X719272D02*
X720295Y574968D01*
X720295D02*
X720636Y574546D01*
X720636D02*
X720977Y573703D01*
Y572437*
X720977D02*
X720636Y571593D01*
X720636D02*
X720295Y571171D01*
X720295D02*
X719272Y570750D01*
X719272D02*
X716204D01*
X724045Y579609D02*
Y570750D01*
Y579609D02*
X728477D01*
X724045Y575390D02*
X726772D01*
X724045Y570750D02*
X728477D01*
X739386Y579609D02*
Y570750D01*
Y579609D02*
X743818D01*
X739386Y575390D02*
X742113D01*
X739386Y570750D02*
X743818D01*
X746886Y579609D02*
Y570750D01*
X750977*
X754045Y579609D02*
Y570750D01*
Y579609D02*
X758477D01*
X754045Y575390D02*
X756772D01*
X754045Y570750D02*
X758477D01*
X766659Y577500D02*
X766318Y578343D01*
X766318D02*
X765636Y579187D01*
X765636D02*
X764954Y579609D01*
X764954D02*
X763590D01*
X763590D02*
X762909Y579187D01*
X762909D02*
X762227Y578343D01*
X762227D02*
X761886Y577500D01*
X761545Y576234*
Y574125*
X761886Y572859*
X762227Y572015*
X762227D02*
X762909Y571171D01*
X762909D02*
X763590Y570750D01*
X763590D02*
X764954D01*
X764954D02*
X765636Y571171D01*
X765636D02*
X766318Y572015D01*
X766318D02*
X766659Y572859D01*
X772113Y579609D02*
Y570750D01*
X769727Y579609D02*
X774500D01*
X777568D02*
Y570750D01*
Y579609D02*
X780636D01*
X781659Y579187*
X781659D02*
X782000Y578765D01*
X782000D02*
X782340Y577921D01*
X782340D02*
Y577078D01*
X782340D02*
X782000Y576234D01*
X781659Y575812*
X781659D02*
X780636Y575390D01*
X780636D02*
X777568D01*
X779954D02*
X782340Y570750D01*
X785409Y579609D02*
Y570750D01*
X793590Y577500D02*
X793250Y578343D01*
X793250D02*
X792568Y579187D01*
X792568D02*
X791886Y579609D01*
X790522*
X790522D02*
X789840Y579187D01*
X789840D02*
X789159Y578343D01*
X789159D02*
X788818Y577500D01*
X788477Y576234*
Y574125*
X788818Y572859*
X789159Y572015*
X789159D02*
X789840Y571171D01*
X789840D02*
X790522Y570750D01*
X790522D02*
X791886D01*
X792568Y571171*
X792568D02*
X793250Y572015D01*
X793250D02*
X793590Y572859D01*
X799386Y579609D02*
X796659Y570750D01*
X799386Y579609D02*
X802113Y570750D01*
X797681Y573703D02*
X801090D01*
X805181Y579609D02*
Y570750D01*
X805181D02*
X809272D01*
X812340Y579609D02*
Y570750D01*
X812340D02*
X816431D01*
X819500Y579609D02*
X822227Y575390D01*
X822227D02*
Y570750D01*
X824954Y579609D02*
X822227Y575390D01*
X838250Y579609D02*
Y570750D01*
X835863Y579609D02*
X840636D01*
X843704D02*
Y570750D01*
Y579609D02*
X848136D01*
X843704Y575390D02*
X846431D01*
X843704Y570750D02*
X848136D01*
X855977Y578343D02*
X855295Y579187D01*
X855295D02*
X854272Y579609D01*
X854272D02*
X852909D01*
X851886Y579187*
X851886D02*
X851204Y578343D01*
X851204D02*
Y577500D01*
X851204D02*
X851545Y576656D01*
X851886Y576234*
X852568Y575812*
X852568D02*
X854613Y574968D01*
X854613D02*
X855295Y574546D01*
X855295D02*
X855636Y574125D01*
X855977Y573281*
Y572015*
X855977D02*
X855295Y571171D01*
X855295D02*
X854272Y570750D01*
X854272D02*
X852909D01*
X851886Y571171*
X851886D02*
X851204Y572015D01*
X861431Y579609D02*
Y570750D01*
X859045Y579609D02*
X863818D01*
X866886D02*
Y570750D01*
Y579609D02*
X871318D01*
X866886Y575390D02*
X869613D01*
X866886Y570750D02*
X871318D01*
X874386Y579609D02*
Y570750D01*
Y579609D02*
X876772D01*
X876772D02*
X877795Y579187D01*
X877795D02*
X878477Y578343D01*
X878477D02*
X878818Y577500D01*
X879159Y576234*
Y574125*
X878818Y572859*
X878477Y572015*
X878477D02*
X877795Y571171D01*
X877795D02*
X876772Y570750D01*
X876772D02*
X874386D01*
X890068Y579609D02*
Y570750D01*
Y579609D02*
X894500D01*
X890068Y575390D02*
X892795D01*
X899613Y579609D02*
X898931Y579187D01*
X898931D02*
X898250Y578343D01*
X898250D02*
X897909Y577500D01*
X897568Y576234*
Y574125*
X897909Y572859*
X898250Y572015*
X898250D02*
X898931Y571171D01*
X898931D02*
X899613Y570750D01*
X899613D02*
X900977D01*
X901659Y571171*
X901659D02*
X902340Y572015D01*
X902340D02*
X902681Y572859D01*
X902681D02*
X903022Y574125D01*
X903022D02*
Y576234D01*
X903022D02*
X902681Y577500D01*
X902681D02*
X902340Y578343D01*
X902340D02*
X901659Y579187D01*
X901659D02*
X900977Y579609D01*
X899613*
X906090D02*
Y570750D01*
Y579609D02*
X909159D01*
X910181Y579187*
X910181D02*
X910522Y578765D01*
X910522D02*
X910863Y577921D01*
X910863D02*
Y577078D01*
X910863D02*
X910522Y576234D01*
X910522D02*
X910181Y575812D01*
X910181D02*
X909159Y575390D01*
X909159D02*
X906090D01*
X908477D02*
X910863Y570750D01*
X926545Y578343D02*
X925863Y579187D01*
X925863D02*
X924840Y579609D01*
X924840D02*
X923477D01*
X922454Y579187*
X922454D02*
X921772Y578343D01*
X921772D02*
Y577500D01*
X921772D02*
X922113Y576656D01*
X922113D02*
X922454Y576234D01*
X922454D02*
X923136Y575812D01*
X923136D02*
X925181Y574968D01*
X925181D02*
X925863Y574546D01*
X925863D02*
X926204Y574125D01*
X926204D02*
X926545Y573281D01*
Y572015*
X926545D02*
X925863Y571171D01*
X925863D02*
X924840Y570750D01*
X924840D02*
X923477D01*
X922454Y571171*
X922454D02*
X921772Y572015D01*
X929613Y579609D02*
Y570750D01*
X934386Y579609D02*
Y570750D01*
X929613Y575390D02*
X934386D01*
X939500Y579609D02*
X938818Y579187D01*
X938818D02*
X938136Y578343D01*
X938136D02*
X937795Y577500D01*
X937454Y576234*
X937454D02*
Y574125D01*
X937454D02*
X937795Y572859D01*
X938136Y572015*
X938136D02*
X938818Y571171D01*
X938818D02*
X939500Y570750D01*
X940863*
X940863D02*
X941545Y571171D01*
X941545D02*
X942227Y572015D01*
X942227D02*
X942568Y572859D01*
X942909Y574125*
Y576234*
X942568Y577500*
X942227Y578343*
X942227D02*
X941545Y579187D01*
X941545D02*
X940863Y579609D01*
X940863D02*
X939500D01*
X945977D02*
Y570750D01*
Y579609D02*
X949045D01*
X950068Y579187*
X950068D02*
X950409Y578765D01*
X950409D02*
X950750Y577921D01*
X950750D02*
Y577078D01*
X950409Y576234*
X950068Y575812*
X950068D02*
X949045Y575390D01*
X949045D02*
X945977D01*
X948363D02*
X950750Y570750D01*
X956204Y579609D02*
Y570750D01*
X953818Y579609D02*
X958590D01*
X966431Y578343D02*
X965750Y579187D01*
X965750D02*
X964727Y579609D01*
X963363*
X963363D02*
X962340Y579187D01*
X962340D02*
X961659Y578343D01*
X961659D02*
Y577500D01*
X962000Y576656*
X962340Y576234*
X962340D02*
X963022Y575812D01*
X963022D02*
X965068Y574968D01*
X965068D02*
X965750Y574546D01*
X965750D02*
X966090Y574125D01*
X966090D02*
X966431Y573281D01*
X966431D02*
Y572015D01*
X966431D02*
X965750Y571171D01*
X965750D02*
X964727Y570750D01*
X963363*
X963363D02*
X962340Y571171D01*
X962340D02*
X961659Y572015D01*
X980068Y579609D02*
X977340Y570750D01*
X980068Y579609D02*
X982795Y570750D01*
X978363Y573703D02*
X981772D01*
X985863Y579609D02*
Y570750D01*
Y579609D02*
X990636Y570750D01*
Y579609D02*
Y570750D01*
X993704Y579609D02*
Y570750D01*
Y579609D02*
X996090D01*
X996090D02*
X997113Y579187D01*
X997113D02*
X997795Y578343D01*
X997795D02*
X998136Y577500D01*
X998477Y576234*
Y574125*
X998136Y572859*
X997795Y572015*
X997795D02*
X997113Y571171D01*
X997113D02*
X996090Y570750D01*
X996090D02*
X993704D01*
X1011431Y579609D02*
X1010750Y579187D01*
X1010750D02*
X1010068Y578343D01*
X1010068D02*
X1009727Y577500D01*
X1009386Y576234*
Y574125*
X1009727Y572859*
X1010068Y572015*
X1010068D02*
X1010750Y571171D01*
X1010750D02*
X1011431Y570750D01*
X1011431D02*
X1012795D01*
X1013477Y571171*
X1013477D02*
X1014159Y572015D01*
X1014159D02*
X1014500Y572859D01*
X1014840Y574125*
X1014840D02*
Y576234D01*
X1014840D02*
X1014500Y577500D01*
X1014159Y578343*
X1014159D02*
X1013477Y579187D01*
X1013477D02*
X1012795Y579609D01*
X1011431*
X1017909D02*
Y570750D01*
Y579609D02*
X1020977D01*
X1022000Y579187*
X1022000D02*
X1022340Y578765D01*
X1022340D02*
X1022681Y577921D01*
X1022681D02*
Y576656D01*
X1022681D02*
X1022340Y575812D01*
X1022340D02*
X1022000Y575390D01*
X1022000D02*
X1020977Y574968D01*
X1020977D02*
X1017909D01*
X1025750Y579609D02*
Y570750D01*
Y579609D02*
X1030181D01*
X1025750Y575390D02*
X1028477D01*
X1025750Y570750D02*
X1030181D01*
X1033250Y579609D02*
Y570750D01*
Y579609D02*
X1038022Y570750D01*
Y579609D02*
Y570750D01*
X1045863Y578343D02*
X1045181Y579187D01*
X1045181D02*
X1044159Y579609D01*
X1042795*
X1041772Y579187*
X1041772D02*
X1041090Y578343D01*
X1041090D02*
Y577500D01*
X1041090D02*
X1041431Y576656D01*
X1041431D02*
X1041772Y576234D01*
X1041772D02*
X1042454Y575812D01*
X1042454D02*
X1044500Y574968D01*
X1044500D02*
X1045181Y574546D01*
X1045181D02*
X1045522Y574125D01*
X1045522D02*
X1045863Y573281D01*
X1045863D02*
Y572015D01*
X1045863D02*
X1045181Y571171D01*
X1045181D02*
X1044159Y570750D01*
X1042795*
X1041772Y571171*
X1041772D02*
X1041090Y572015D01*
X1049272Y571593D02*
X1048931Y571171D01*
X1048931D02*
X1049272Y570750D01*
X1049272D02*
X1049613Y571171D01*
X1049613D02*
X1049272Y571593D01*
X617454Y492109D02*
X616431Y491687D01*
X616431D02*
X616090Y490843D01*
X616090D02*
Y490000D01*
X616090D02*
X616431Y489156D01*
X616431D02*
X617113Y488734D01*
X617113D02*
X618477Y488312D01*
X618477D02*
X619500Y487890D01*
X619500D02*
X620181Y487046D01*
X620181D02*
X620522Y486203D01*
X620522D02*
Y484937D01*
X620522D02*
X620181Y484093D01*
X620181D02*
X619840Y483671D01*
X619840D02*
X618818Y483250D01*
X617454*
X617454D02*
X616431Y483671D01*
X616431D02*
X616090Y484093D01*
X616090D02*
X615750Y484937D01*
X615750D02*
Y486203D01*
X616090Y487046*
X616090D02*
X616772Y487890D01*
X616772D02*
X617795Y488312D01*
X617795D02*
X619159Y488734D01*
X619840Y489156*
X619840D02*
X620181Y490000D01*
X620181D02*
Y490843D01*
X620181D02*
X619840Y491687D01*
X619840D02*
X618818Y492109D01*
X617454*
X623931Y484093D02*
X623590Y483671D01*
X623590D02*
X623931Y483250D01*
X623931D02*
X624272Y483671D01*
X624272D02*
X623931Y484093D01*
X1335000Y595000D02*
Y577500D01*
X1320000Y595000D02*
Y577500D01*
X1335000Y655000D02*
X1330000Y647500D01*
X1337500Y652500*
X1340000Y615000D02*
X1335000Y607500D01*
X1342500Y612500*
X1320000Y617500D02*
X1325000Y610000D01*
X1317500Y615000*
X1375000Y670000D02*
X1352500D01*
X1330000Y647500*
X1280000Y670000D02*
X1300000D01*
X1320000Y650000*
X1315000Y657500D02*
X1320000Y650000D01*
X1312500Y655000*
X1345000Y577500D02*
X1335000Y580000D01*
X1345000Y582500*
X1335000Y580000D02*
X1360000D01*
X1320000Y600000D02*
Y691500D01*
X1325000Y695000*
X1330000Y692500*
X1335000Y694500*
Y600000*
X1320000*
Y580000D02*
X1300000D01*
X1310000Y582500D02*
X1320000Y580000D01*
X1310000Y577500*
X1325000Y695000D02*
Y600000D01*
X1330000Y692500D02*
Y600000D01*
X1335000Y607500D02*
X1352500Y625000D01*
X1375000*
X1325000Y610000D02*
X1310000Y625000D01*
X1280000*
X1180863Y627500D02*
X1180522Y628343D01*
X1180522D02*
X1179840Y629187D01*
X1179840D02*
X1179159Y629609D01*
X1177795*
X1177113Y629187*
X1177113D02*
X1176431Y628343D01*
X1176431D02*
X1176090Y627500D01*
X1176090D02*
X1175750Y626234D01*
Y624125*
X1176090Y622859*
X1176090D02*
X1176431Y622015D01*
X1176431D02*
X1177113Y621171D01*
X1177113D02*
X1177795Y620750D01*
X1179159*
X1179840Y621171*
X1179840D02*
X1180522Y622015D01*
X1180522D02*
X1180863Y622859D01*
X1180863D02*
Y624125D01*
X1179159D02*
X1180863D01*
X1183931Y629609D02*
Y620750D01*
Y629609D02*
X1187000D01*
X1188022Y629187*
X1188022D02*
X1188363Y628765D01*
X1188363D02*
X1188704Y627921D01*
X1188704D02*
Y627078D01*
X1188704D02*
X1188363Y626234D01*
X1188363D02*
X1188022Y625812D01*
X1188022D02*
X1187000Y625390D01*
X1187000D02*
X1183931D01*
X1186318D02*
X1188704Y620750D01*
X1193818Y629609D02*
X1193136Y629187D01*
X1193136D02*
X1192454Y628343D01*
X1192454D02*
X1192113Y627500D01*
X1192113D02*
X1191772Y626234D01*
X1191772D02*
Y624125D01*
X1191772D02*
X1192113Y622859D01*
X1192113D02*
X1192454Y622015D01*
X1192454D02*
X1193136Y621171D01*
X1193136D02*
X1193818Y620750D01*
X1195181*
X1195181D02*
X1195863Y621171D01*
X1195863D02*
X1196545Y622015D01*
X1196545D02*
X1196886Y622859D01*
X1197227Y624125*
Y626234*
X1196886Y627500*
X1196545Y628343*
X1196545D02*
X1195863Y629187D01*
X1195863D02*
X1195181Y629609D01*
X1195181D02*
X1193818D01*
X1200295D02*
Y623281D01*
X1200636Y622015*
X1200636D02*
X1201318Y621171D01*
X1201318D02*
X1202340Y620750D01*
X1202340D02*
X1203022D01*
X1203022D02*
X1204045Y621171D01*
X1204045D02*
X1204727Y622015D01*
X1204727D02*
X1205068Y623281D01*
Y629609*
X1208136D02*
Y620750D01*
Y629609D02*
X1212909Y620750D01*
Y629609D02*
Y620750D01*
X1215977Y629609D02*
Y620750D01*
Y629609D02*
X1218363D01*
X1218363D02*
X1219386Y629187D01*
X1219386D02*
X1220068Y628343D01*
X1220068D02*
X1220409Y627500D01*
X1220750Y626234*
Y624125*
X1220409Y622859*
X1220068Y622015*
X1220068D02*
X1219386Y621171D01*
X1219386D02*
X1218363Y620750D01*
X1218363D02*
X1215977D01*
X1231659Y629609D02*
Y620750D01*
X1235750*
X1241545Y629609D02*
X1238818Y620750D01*
X1241545Y629609D02*
X1244272Y620750D01*
X1239840Y623703D02*
X1243250D01*
X1247340Y629609D02*
X1250068Y625390D01*
X1250068D02*
Y620750D01*
X1252795Y629609D02*
X1250068Y625390D01*
X1255863Y629609D02*
Y620750D01*
Y629609D02*
X1260295D01*
X1255863Y625390D02*
X1258590D01*
X1255863Y620750D02*
X1260295D01*
X1263363Y629609D02*
Y620750D01*
Y629609D02*
X1266431D01*
X1266431D02*
X1267454Y629187D01*
X1267454D02*
X1267795Y628765D01*
X1267795D02*
X1268136Y627921D01*
X1268136D02*
Y627078D01*
X1267795Y626234*
X1267454Y625812*
X1267454D02*
X1266431Y625390D01*
X1266431D02*
X1263363D01*
X1265750D02*
X1268136Y620750D01*
X1225750Y545421D02*
X1226431Y545843D01*
X1226431D02*
X1227454Y547109D01*
X1227454D02*
Y538250D01*
X1240409Y547109D02*
X1239727Y546687D01*
X1239727D02*
X1239045Y545843D01*
X1239045D02*
X1238704Y545000D01*
X1238704D02*
X1238363Y543734D01*
X1238363D02*
Y541625D01*
X1238363D02*
X1238704Y540359D01*
X1238704D02*
X1239045Y539515D01*
X1239045D02*
X1239727Y538671D01*
X1239727D02*
X1240409Y538250D01*
X1241772*
X1241772D02*
X1242454Y538671D01*
X1242454D02*
X1243136Y539515D01*
X1243136D02*
X1243477Y540359D01*
X1243818Y541625*
Y543734*
X1243477Y545000*
X1243136Y545843*
X1243136D02*
X1242454Y546687D01*
X1242454D02*
X1241772Y547109D01*
X1241772D02*
X1240409D01*
X1251659D02*
X1246886Y538250D01*
Y547109D02*
X1251659D01*
X1246886Y538250D02*
X1251659D01*
X1255068Y539093D02*
X1254727Y538671D01*
X1254727D02*
X1255068Y538250D01*
X1255409Y538671*
X1255409D02*
X1255068Y539093D01*
X1271431Y545000D02*
X1271090Y545843D01*
X1271090D02*
X1270409Y546687D01*
X1270409D02*
X1269727Y547109D01*
X1268363*
X1268363D02*
X1267681Y546687D01*
X1267681D02*
X1267000Y545843D01*
X1267000D02*
X1266659Y545000D01*
X1266318Y543734*
Y541625*
X1266659Y540359*
X1267000Y539515*
X1267000D02*
X1267681Y538671D01*
X1267681D02*
X1268363Y538250D01*
X1268363D02*
X1269727D01*
X1270409Y538671*
X1270409D02*
X1271090Y539515D01*
X1271090D02*
X1271431Y540359D01*
X1274500Y547109D02*
Y540781D01*
X1274840Y539515*
X1274840D02*
X1275522Y538671D01*
X1275522D02*
X1276545Y538250D01*
X1277227*
X1278250Y538671*
X1278250D02*
X1278931Y539515D01*
X1278931D02*
X1279272Y540781D01*
X1279272D02*
Y547109D01*
X1282681Y539093D02*
X1282340Y538671D01*
X1282340D02*
X1282681Y538250D01*
X1282681D02*
X1283022Y538671D01*
X1283022D02*
X1282681Y539093D01*
X1293931Y547109D02*
Y538250D01*
X1297000Y547109D02*
Y538250D01*
Y547109D02*
X1301772Y538250D01*
Y547109D02*
Y538250D01*
X1304840Y547109D02*
Y538250D01*
Y547109D02*
X1309613Y538250D01*
Y547109D02*
Y538250D01*
X1312681Y547109D02*
Y538250D01*
Y547109D02*
X1317113D01*
X1312681Y542890D02*
X1315409D01*
X1312681Y538250D02*
X1317113D01*
X1320181Y547109D02*
Y538250D01*
Y547109D02*
X1323250D01*
X1324272Y546687*
X1324272D02*
X1324613Y546265D01*
X1324613D02*
X1324954Y545421D01*
X1324954D02*
Y544578D01*
X1324954D02*
X1324613Y543734D01*
X1324613D02*
X1324272Y543312D01*
X1324272D02*
X1323250Y542890D01*
X1323250D02*
X1320181D01*
X1322568D02*
X1324954Y538250D01*
X1335863Y547109D02*
Y538250D01*
X1335863D02*
X1339954D01*
X1345750Y547109D02*
X1343022Y538250D01*
X1345750Y547109D02*
X1348477Y538250D01*
X1344045Y541203D02*
X1347454D01*
X1351545Y547109D02*
X1354272Y542890D01*
X1354272D02*
Y538250D01*
X1357000Y547109D02*
X1354272Y542890D01*
X1360068Y547109D02*
Y538250D01*
Y547109D02*
X1364500D01*
X1360068Y542890D02*
X1362795D01*
X1360068Y538250D02*
X1364500D01*
X1367568Y547109D02*
Y538250D01*
Y547109D02*
X1370636D01*
X1371659Y546687*
X1371659D02*
X1372000Y546265D01*
X1372000D02*
X1372340Y545421D01*
X1372340D02*
Y544578D01*
X1372340D02*
X1372000Y543734D01*
X1371659Y543312*
X1371659D02*
X1370636Y542890D01*
X1370636D02*
X1367568D01*
X1369954D02*
X1372340Y538250D01*
X1380181Y545843D02*
X1379500Y546687D01*
X1379500D02*
X1378477Y547109D01*
X1377113*
X1377113D02*
X1376090Y546687D01*
X1376090D02*
X1375409Y545843D01*
X1375409D02*
Y545000D01*
X1375750Y544156*
X1376090Y543734*
X1376090D02*
X1376772Y543312D01*
X1376772D02*
X1378818Y542468D01*
X1378818D02*
X1379500Y542046D01*
X1379500D02*
X1379840Y541625D01*
X1379840D02*
X1380181Y540781D01*
X1380181D02*
Y539515D01*
X1380181D02*
X1379500Y538671D01*
X1379500D02*
X1378477Y538250D01*
X1377113*
X1377113D02*
X1376090Y538671D01*
X1376090D02*
X1375409Y539515D01*
X1385750Y572109D02*
Y563250D01*
Y572109D02*
X1388818D01*
X1389840Y571687*
X1389840D02*
X1390181Y571265D01*
X1390181D02*
X1390522Y570421D01*
X1390522D02*
Y569156D01*
X1390522D02*
X1390181Y568312D01*
X1390181D02*
X1389840Y567890D01*
X1389840D02*
X1388818Y567468D01*
X1388818D02*
X1385750D01*
X1393590Y572109D02*
Y563250D01*
Y572109D02*
X1396659D01*
X1397681Y571687*
X1397681D02*
X1398022Y571265D01*
X1398022D02*
X1398363Y570421D01*
X1398363D02*
Y569578D01*
X1398363D02*
X1398022Y568734D01*
X1398022D02*
X1397681Y568312D01*
X1397681D02*
X1396659Y567890D01*
X1396659D02*
X1393590D01*
X1395977D02*
X1398363Y563250D01*
X1401431Y572109D02*
Y563250D01*
X1406545Y572109D02*
X1405863Y571687D01*
X1405863D02*
X1405181Y570843D01*
X1405181D02*
X1404840Y570000D01*
X1404840D02*
X1404500Y568734D01*
Y566625*
X1404840Y565359*
X1404840D02*
X1405181Y564515D01*
X1405181D02*
X1405863Y563671D01*
X1405863D02*
X1406545Y563250D01*
X1407909*
X1408590Y563671*
X1408590D02*
X1409272Y564515D01*
X1409272D02*
X1409613Y565359D01*
X1409613D02*
X1409954Y566625D01*
X1409954D02*
Y568734D01*
X1409954D02*
X1409613Y570000D01*
X1409613D02*
X1409272Y570843D01*
X1409272D02*
X1408590Y571687D01*
X1408590D02*
X1407909Y572109D01*
X1406545*
X1413022D02*
Y563250D01*
Y572109D02*
X1416090D01*
X1416090D02*
X1417113Y571687D01*
X1417113D02*
X1417454Y571265D01*
X1417454D02*
X1417795Y570421D01*
X1417795D02*
Y569578D01*
X1417454Y568734*
X1417454D02*
X1417113Y568312D01*
X1417113D02*
X1416090Y567890D01*
X1416090D02*
X1413022D01*
X1415409D02*
X1417795Y563250D01*
X1431090Y572109D02*
Y563250D01*
X1428704Y572109D02*
X1433477D01*
X1438590D02*
X1437909Y571687D01*
X1437909D02*
X1437227Y570843D01*
X1437227D02*
X1436886Y570000D01*
X1436545Y568734*
Y566625*
X1436886Y565359*
X1437227Y564515*
X1437227D02*
X1437909Y563671D01*
X1437909D02*
X1438590Y563250D01*
X1438590D02*
X1439954D01*
X1439954D02*
X1440636Y563671D01*
X1440636D02*
X1441318Y564515D01*
X1441318D02*
X1441659Y565359D01*
X1442000Y566625*
Y568734*
X1441659Y570000*
X1441318Y570843*
X1441318D02*
X1440636Y571687D01*
X1440636D02*
X1439954Y572109D01*
X1439954D02*
X1438590D01*
X1452909D02*
Y563250D01*
Y572109D02*
X1455977D01*
X1457000Y571687*
X1457000D02*
X1457340Y571265D01*
X1457340D02*
X1457681Y570421D01*
X1457681D02*
Y569156D01*
X1457681D02*
X1457340Y568312D01*
X1457340D02*
X1457000Y567890D01*
X1457000D02*
X1455977Y567468D01*
X1455977D02*
X1452909D01*
X1460750Y572109D02*
Y563250D01*
X1464840*
X1470636Y572109D02*
X1467909Y563250D01*
X1470636Y572109D02*
X1473363Y563250D01*
X1468931Y566203D02*
X1472340D01*
X1478818Y572109D02*
Y563250D01*
X1476431Y572109D02*
X1481204D01*
X1484272D02*
Y563250D01*
X1487340Y572109D02*
Y563250D01*
Y572109D02*
X1492113Y563250D01*
Y572109D02*
Y563250D01*
X1500295Y570000D02*
X1499954Y570843D01*
X1499954D02*
X1499272Y571687D01*
X1499272D02*
X1498590Y572109D01*
X1498590D02*
X1497227D01*
X1496545Y571687*
X1496545D02*
X1495863Y570843D01*
X1495863D02*
X1495522Y570000D01*
X1495522D02*
X1495181Y568734D01*
X1495181D02*
Y566625D01*
X1495181D02*
X1495522Y565359D01*
X1495522D02*
X1495863Y564515D01*
X1495863D02*
X1496545Y563671D01*
X1496545D02*
X1497227Y563250D01*
X1498590*
X1498590D02*
X1499272Y563671D01*
X1499272D02*
X1499954Y564515D01*
X1499954D02*
X1500295Y565359D01*
Y566625*
X1498590D02*
X1500295D01*
X1380750Y592921D02*
X1381431Y593343D01*
X1381431D02*
X1382454Y594609D01*
X1382454D02*
Y585750D01*
X1395409Y594609D02*
X1394727Y594187D01*
X1394727D02*
X1394045Y593343D01*
X1394045D02*
X1393704Y592500D01*
X1393704D02*
X1393363Y591234D01*
X1393363D02*
Y589125D01*
X1393363D02*
X1393704Y587859D01*
X1393704D02*
X1394045Y587015D01*
X1394045D02*
X1394727Y586171D01*
X1394727D02*
X1395409Y585750D01*
X1396772*
X1396772D02*
X1397454Y586171D01*
X1397454D02*
X1398136Y587015D01*
X1398136D02*
X1398477Y587859D01*
X1398818Y589125*
Y591234*
X1398477Y592500*
X1398136Y593343*
X1398136D02*
X1397454Y594187D01*
X1397454D02*
X1396772Y594609D01*
X1396772D02*
X1395409D01*
X1406659D02*
X1401886Y585750D01*
Y594609D02*
X1406659D01*
X1401886Y585750D02*
X1406659D01*
X1410068Y586593D02*
X1409727Y586171D01*
X1409727D02*
X1410068Y585750D01*
X1410409Y586171*
X1410409D02*
X1410068Y586593D01*
X1426431Y592500D02*
X1426090Y593343D01*
X1426090D02*
X1425409Y594187D01*
X1425409D02*
X1424727Y594609D01*
X1423363*
X1423363D02*
X1422681Y594187D01*
X1422681D02*
X1422000Y593343D01*
X1422000D02*
X1421659Y592500D01*
X1421318Y591234*
Y589125*
X1421659Y587859*
X1422000Y587015*
X1422000D02*
X1422681Y586171D01*
X1422681D02*
X1423363Y585750D01*
X1423363D02*
X1424727D01*
X1425409Y586171*
X1425409D02*
X1426090Y587015D01*
X1426090D02*
X1426431Y587859D01*
X1431545Y594609D02*
X1430863Y594187D01*
X1430863D02*
X1430181Y593343D01*
X1430181D02*
X1429840Y592500D01*
X1429840D02*
X1429500Y591234D01*
Y589125*
X1429840Y587859*
X1429840D02*
X1430181Y587015D01*
X1430181D02*
X1430863Y586171D01*
X1430863D02*
X1431545Y585750D01*
X1432909*
X1433590Y586171*
X1433590D02*
X1434272Y587015D01*
X1434272D02*
X1434613Y587859D01*
X1434613D02*
X1434954Y589125D01*
X1434954D02*
Y591234D01*
X1434954D02*
X1434613Y592500D01*
X1434613D02*
X1434272Y593343D01*
X1434272D02*
X1433590Y594187D01*
X1433590D02*
X1432909Y594609D01*
X1431545*
X1438022D02*
Y585750D01*
Y594609D02*
X1441090D01*
X1441090D02*
X1442113Y594187D01*
X1442113D02*
X1442454Y593765D01*
X1442454D02*
X1442795Y592921D01*
X1442795D02*
Y591656D01*
X1442454Y590812*
X1442454D02*
X1442113Y590390D01*
X1442113D02*
X1441090Y589968D01*
X1441090D02*
X1438022D01*
X1445863Y594609D02*
Y585750D01*
Y594609D02*
X1448931D01*
X1448931D02*
X1449954Y594187D01*
X1449954D02*
X1450295Y593765D01*
X1450295D02*
X1450636Y592921D01*
X1450636D02*
Y591656D01*
X1450295Y590812*
X1450295D02*
X1449954Y590390D01*
X1449954D02*
X1448931Y589968D01*
X1448931D02*
X1445863D01*
X1453704Y594609D02*
Y585750D01*
Y594609D02*
X1458136D01*
X1453704Y590390D02*
X1456431D01*
X1453704Y585750D02*
X1458136D01*
X1461204Y594609D02*
Y585750D01*
Y594609D02*
X1464272D01*
X1464272D02*
X1465295Y594187D01*
X1465295D02*
X1465636Y593765D01*
X1465636D02*
X1465977Y592921D01*
X1465977D02*
Y592078D01*
X1465636Y591234*
X1465295Y590812*
X1465295D02*
X1464272Y590390D01*
X1464272D02*
X1461204D01*
X1463590D02*
X1465977Y585750D01*
X1474159Y592500D02*
X1473818Y593343D01*
X1473818D02*
X1473136Y594187D01*
X1473136D02*
X1472454Y594609D01*
X1472454D02*
X1471090D01*
X1471090D02*
X1470409Y594187D01*
X1470409D02*
X1469727Y593343D01*
X1469727D02*
X1469386Y592500D01*
X1469045Y591234*
Y589125*
X1469386Y587859*
X1469727Y587015*
X1469727D02*
X1470409Y586171D01*
X1470409D02*
X1471090Y585750D01*
X1471090D02*
X1472454D01*
X1472454D02*
X1473136Y586171D01*
X1473136D02*
X1473818Y587015D01*
X1473818D02*
X1474159Y587859D01*
X1477227Y594609D02*
Y585750D01*
X1481318*
X1487113Y594609D02*
X1484386Y585750D01*
X1487113Y594609D02*
X1489840Y585750D01*
X1485409Y588703D02*
X1488818D01*
X1492909Y594609D02*
Y585750D01*
Y594609D02*
X1495295D01*
X1496318Y594187*
X1496318D02*
X1497000Y593343D01*
X1497000D02*
X1497340Y592500D01*
X1497340D02*
X1497681Y591234D01*
X1497681D02*
Y589125D01*
X1497681D02*
X1497340Y587859D01*
X1497340D02*
X1497000Y587015D01*
X1497000D02*
X1496318Y586171D01*
X1496318D02*
X1495295Y585750D01*
X1492909*
X1153250Y657109D02*
Y648250D01*
Y657109D02*
X1156318D01*
X1157340Y656687*
X1157340D02*
X1157681Y656265D01*
X1157681D02*
X1158022Y655421D01*
X1158022D02*
Y654156D01*
X1158022D02*
X1157681Y653312D01*
X1157681D02*
X1157340Y652890D01*
X1157340D02*
X1156318Y652468D01*
X1156318D02*
X1153250D01*
X1161090Y657109D02*
Y648250D01*
Y657109D02*
X1164159D01*
X1165181Y656687*
X1165181D02*
X1165522Y656265D01*
X1165522D02*
X1165863Y655421D01*
X1165863D02*
Y654578D01*
X1165863D02*
X1165522Y653734D01*
X1165522D02*
X1165181Y653312D01*
X1165181D02*
X1164159Y652890D01*
X1164159D02*
X1161090D01*
X1163477D02*
X1165863Y648250D01*
X1168931Y657109D02*
Y648250D01*
X1174045Y657109D02*
X1173363Y656687D01*
X1173363D02*
X1172681Y655843D01*
X1172681D02*
X1172340Y655000D01*
X1172340D02*
X1172000Y653734D01*
Y651625*
X1172340Y650359*
X1172340D02*
X1172681Y649515D01*
X1172681D02*
X1173363Y648671D01*
X1173363D02*
X1174045Y648250D01*
X1175409*
X1176090Y648671*
X1176090D02*
X1176772Y649515D01*
X1176772D02*
X1177113Y650359D01*
X1177113D02*
X1177454Y651625D01*
X1177454D02*
Y653734D01*
X1177454D02*
X1177113Y655000D01*
X1177113D02*
X1176772Y655843D01*
X1176772D02*
X1176090Y656687D01*
X1176090D02*
X1175409Y657109D01*
X1174045*
X1180522D02*
Y648250D01*
Y657109D02*
X1183590D01*
X1183590D02*
X1184613Y656687D01*
X1184613D02*
X1184954Y656265D01*
X1184954D02*
X1185295Y655421D01*
X1185295D02*
Y654578D01*
X1184954Y653734*
X1184954D02*
X1184613Y653312D01*
X1184613D02*
X1183590Y652890D01*
X1183590D02*
X1180522D01*
X1182909D02*
X1185295Y648250D01*
X1198590Y657109D02*
Y648250D01*
X1196204Y657109D02*
X1200977D01*
X1206090D02*
X1205409Y656687D01*
X1205409D02*
X1204727Y655843D01*
X1204727D02*
X1204386Y655000D01*
X1204045Y653734*
Y651625*
X1204386Y650359*
X1204727Y649515*
X1204727D02*
X1205409Y648671D01*
X1205409D02*
X1206090Y648250D01*
X1206090D02*
X1207454D01*
X1207454D02*
X1208136Y648671D01*
X1208136D02*
X1208818Y649515D01*
X1208818D02*
X1209159Y650359D01*
X1209500Y651625*
Y653734*
X1209159Y655000*
X1208818Y655843*
X1208818D02*
X1208136Y656687D01*
X1208136D02*
X1207454Y657109D01*
X1207454D02*
X1206090D01*
X1220409D02*
Y648250D01*
Y657109D02*
X1223477D01*
X1224500Y656687*
X1224500D02*
X1224840Y656265D01*
X1224840D02*
X1225181Y655421D01*
X1225181D02*
Y654156D01*
X1225181D02*
X1224840Y653312D01*
X1224840D02*
X1224500Y652890D01*
X1224500D02*
X1223477Y652468D01*
X1223477D02*
X1220409D01*
X1228250Y657109D02*
Y648250D01*
X1232340*
X1238136Y657109D02*
X1235409Y648250D01*
X1238136Y657109D02*
X1240863Y648250D01*
X1236431Y651203D02*
X1239840D01*
X1246318Y657109D02*
Y648250D01*
X1243931Y657109D02*
X1248704D01*
X1251772D02*
Y648250D01*
X1254840Y657109D02*
Y648250D01*
Y657109D02*
X1259613Y648250D01*
Y657109D02*
Y648250D01*
X1267795Y655000D02*
X1267454Y655843D01*
X1267454D02*
X1266772Y656687D01*
X1266772D02*
X1266090Y657109D01*
X1266090D02*
X1264727D01*
X1264045Y656687*
X1264045D02*
X1263363Y655843D01*
X1263363D02*
X1263022Y655000D01*
X1263022D02*
X1262681Y653734D01*
X1262681D02*
Y651625D01*
X1262681D02*
X1263022Y650359D01*
X1263022D02*
X1263363Y649515D01*
X1263363D02*
X1264045Y648671D01*
X1264045D02*
X1264727Y648250D01*
X1266090*
X1266090D02*
X1266772Y648671D01*
X1266772D02*
X1267454Y649515D01*
X1267454D02*
X1267795Y650359D01*
Y651625*
X1266090D02*
X1267795D01*
X1153250Y675421D02*
X1153931Y675843D01*
X1153931D02*
X1154954Y677109D01*
X1154954D02*
Y668250D01*
X1167909Y677109D02*
X1167227Y676687D01*
X1167227D02*
X1166545Y675843D01*
X1166545D02*
X1166204Y675000D01*
X1166204D02*
X1165863Y673734D01*
X1165863D02*
Y671625D01*
X1165863D02*
X1166204Y670359D01*
X1166204D02*
X1166545Y669515D01*
X1166545D02*
X1167227Y668671D01*
X1167227D02*
X1167909Y668250D01*
X1169272*
X1169272D02*
X1169954Y668671D01*
X1169954D02*
X1170636Y669515D01*
X1170636D02*
X1170977Y670359D01*
X1171318Y671625*
Y673734*
X1170977Y675000*
X1170636Y675843*
X1170636D02*
X1169954Y676687D01*
X1169954D02*
X1169272Y677109D01*
X1169272D02*
X1167909D01*
X1179159D02*
X1174386Y668250D01*
Y677109D02*
X1179159D01*
X1174386Y668250D02*
X1179159D01*
X1182568Y669093D02*
X1182227Y668671D01*
X1182227D02*
X1182568Y668250D01*
X1182909Y668671*
X1182909D02*
X1182568Y669093D01*
X1198931Y675000D02*
X1198590Y675843D01*
X1198590D02*
X1197909Y676687D01*
X1197909D02*
X1197227Y677109D01*
X1195863*
X1195863D02*
X1195181Y676687D01*
X1195181D02*
X1194500Y675843D01*
X1194500D02*
X1194159Y675000D01*
X1193818Y673734*
Y671625*
X1194159Y670359*
X1194500Y669515*
X1194500D02*
X1195181Y668671D01*
X1195181D02*
X1195863Y668250D01*
X1195863D02*
X1197227D01*
X1197909Y668671*
X1197909D02*
X1198590Y669515D01*
X1198590D02*
X1198931Y670359D01*
X1204045Y677109D02*
X1203363Y676687D01*
X1203363D02*
X1202681Y675843D01*
X1202681D02*
X1202340Y675000D01*
X1202340D02*
X1202000Y673734D01*
Y671625*
X1202340Y670359*
X1202340D02*
X1202681Y669515D01*
X1202681D02*
X1203363Y668671D01*
X1203363D02*
X1204045Y668250D01*
X1205409*
X1206090Y668671*
X1206090D02*
X1206772Y669515D01*
X1206772D02*
X1207113Y670359D01*
X1207113D02*
X1207454Y671625D01*
X1207454D02*
Y673734D01*
X1207454D02*
X1207113Y675000D01*
X1207113D02*
X1206772Y675843D01*
X1206772D02*
X1206090Y676687D01*
X1206090D02*
X1205409Y677109D01*
X1204045*
X1210522D02*
Y668250D01*
Y677109D02*
X1213590D01*
X1213590D02*
X1214613Y676687D01*
X1214613D02*
X1214954Y676265D01*
X1214954D02*
X1215295Y675421D01*
X1215295D02*
Y674156D01*
X1214954Y673312*
X1214954D02*
X1214613Y672890D01*
X1214613D02*
X1213590Y672468D01*
X1213590D02*
X1210522D01*
X1218363Y677109D02*
Y668250D01*
Y677109D02*
X1221431D01*
X1221431D02*
X1222454Y676687D01*
X1222454D02*
X1222795Y676265D01*
X1222795D02*
X1223136Y675421D01*
X1223136D02*
Y674156D01*
X1222795Y673312*
X1222795D02*
X1222454Y672890D01*
X1222454D02*
X1221431Y672468D01*
X1221431D02*
X1218363D01*
X1226204Y677109D02*
Y668250D01*
Y677109D02*
X1230636D01*
X1226204Y672890D02*
X1228931D01*
X1226204Y668250D02*
X1230636D01*
X1233704Y677109D02*
Y668250D01*
Y677109D02*
X1236772D01*
X1236772D02*
X1237795Y676687D01*
X1237795D02*
X1238136Y676265D01*
X1238136D02*
X1238477Y675421D01*
X1238477D02*
Y674578D01*
X1238136Y673734*
X1237795Y673312*
X1237795D02*
X1236772Y672890D01*
X1236772D02*
X1233704D01*
X1236090D02*
X1238477Y668250D01*
X1246659Y675000D02*
X1246318Y675843D01*
X1246318D02*
X1245636Y676687D01*
X1245636D02*
X1244954Y677109D01*
X1244954D02*
X1243590D01*
X1243590D02*
X1242909Y676687D01*
X1242909D02*
X1242227Y675843D01*
X1242227D02*
X1241886Y675000D01*
X1241545Y673734*
Y671625*
X1241886Y670359*
X1242227Y669515*
X1242227D02*
X1242909Y668671D01*
X1242909D02*
X1243590Y668250D01*
X1243590D02*
X1244954D01*
X1244954D02*
X1245636Y668671D01*
X1245636D02*
X1246318Y669515D01*
X1246318D02*
X1246659Y670359D01*
X1249727Y677109D02*
Y668250D01*
X1253818*
X1259613Y677109D02*
X1256886Y668250D01*
X1259613Y677109D02*
X1262340Y668250D01*
X1257909Y671203D02*
X1261318D01*
X1265409Y677109D02*
Y668250D01*
Y677109D02*
X1267795D01*
X1268818Y676687*
X1268818D02*
X1269500Y675843D01*
X1269500D02*
X1269840Y675000D01*
X1269840D02*
X1270181Y673734D01*
X1270181D02*
Y671625D01*
X1270181D02*
X1269840Y670359D01*
X1269840D02*
X1269500Y669515D01*
X1269500D02*
X1268818Y668671D01*
X1268818D02*
X1267795Y668250D01*
X1265409*
X1193136Y722109D02*
Y713250D01*
X1190750Y722109D02*
X1195522D01*
X1200636D02*
X1199954Y721687D01*
X1199954D02*
X1199272Y720843D01*
X1199272D02*
X1198931Y720000D01*
X1198931D02*
X1198590Y718734D01*
X1198590D02*
Y716625D01*
X1198590D02*
X1198931Y715359D01*
X1198931D02*
X1199272Y714515D01*
X1199272D02*
X1199954Y713671D01*
X1199954D02*
X1200636Y713250D01*
X1202000*
X1202681Y713671*
X1202681D02*
X1203363Y714515D01*
X1203363D02*
X1203704Y715359D01*
X1203704D02*
X1204045Y716625D01*
Y718734*
X1203704Y720000*
X1203704D02*
X1203363Y720843D01*
X1203363D02*
X1202681Y721687D01*
X1202681D02*
X1202000Y722109D01*
X1200636*
X1207113D02*
Y713250D01*
Y722109D02*
X1210181D01*
X1210181D02*
X1211204Y721687D01*
X1211204D02*
X1211545Y721265D01*
X1211545D02*
X1211886Y720421D01*
X1211886D02*
Y719156D01*
X1211545Y718312*
X1211545D02*
X1211204Y717890D01*
X1211204D02*
X1210181Y717468D01*
X1210181D02*
X1207113D01*
X1227568Y720843D02*
X1226886Y721687D01*
X1226886D02*
X1225863Y722109D01*
X1225863D02*
X1224500D01*
X1223477Y721687*
X1223477D02*
X1222795Y720843D01*
X1222795D02*
Y720000D01*
X1223136Y719156*
X1223477Y718734*
X1224159Y718312*
X1224159D02*
X1226204Y717468D01*
X1226204D02*
X1226886Y717046D01*
X1226886D02*
X1227227Y716625D01*
X1227568Y715781*
Y714515*
X1227568D02*
X1226886Y713671D01*
X1226886D02*
X1225863Y713250D01*
X1225863D02*
X1224500D01*
X1223477Y713671*
X1223477D02*
X1222795Y714515D01*
X1230636Y722109D02*
Y713250D01*
X1233704Y722109D02*
Y713250D01*
Y722109D02*
X1236090D01*
X1236090D02*
X1237113Y721687D01*
X1237113D02*
X1237795Y720843D01*
X1237795D02*
X1238136Y720000D01*
X1238477Y718734*
Y716625*
X1238136Y715359*
X1237795Y714515*
X1237795D02*
X1237113Y713671D01*
X1237113D02*
X1236090Y713250D01*
X1236090D02*
X1233704D01*
X1241545Y722109D02*
Y713250D01*
Y722109D02*
X1245977D01*
X1241545Y717890D02*
X1244272D01*
X1241545Y713250D02*
X1245977D01*
X1193250Y699609D02*
Y690750D01*
X1197340*
X1203136Y699609D02*
X1200409Y690750D01*
X1203136Y699609D02*
X1205863Y690750D01*
X1201431Y693703D02*
X1204840D01*
X1208931Y699609D02*
X1211659Y695390D01*
X1211659D02*
Y690750D01*
X1214386Y699609D02*
X1211659Y695390D01*
X1217454Y699609D02*
Y690750D01*
Y699609D02*
X1221886D01*
X1217454Y695390D02*
X1220181D01*
X1217454Y690750D02*
X1221886D01*
X1224954Y699609D02*
Y690750D01*
Y699609D02*
X1228022D01*
X1228022D02*
X1229045Y699187D01*
X1229045D02*
X1229386Y698765D01*
X1229386D02*
X1229727Y697921D01*
X1229727D02*
Y697078D01*
X1229386Y696234*
X1229045Y695812*
X1229045D02*
X1228022Y695390D01*
X1228022D02*
X1224954D01*
X1227340D02*
X1229727Y690750D01*
X1240636Y697921D02*
X1241318Y698343D01*
X1241318D02*
X1242340Y699609D01*
X1242340D02*
Y690750D01*
X1210295Y579609D02*
X1209272Y579187D01*
X1209272D02*
X1208590Y577921D01*
X1208590D02*
X1208250Y575812D01*
X1208250D02*
Y574546D01*
X1208250D02*
X1208590Y572437D01*
X1208590D02*
X1209272Y571171D01*
X1209272D02*
X1210295Y570750D01*
X1210977*
X1212000Y571171*
X1212000D02*
X1212681Y572437D01*
X1212681D02*
X1213022Y574546D01*
X1213022D02*
Y575812D01*
X1213022D02*
X1212681Y577921D01*
X1212681D02*
X1212000Y579187D01*
X1212000D02*
X1210977Y579609D01*
X1210295*
X1216431Y571593D02*
X1216090Y571171D01*
X1216090D02*
X1216431Y570750D01*
X1216431D02*
X1216772Y571171D01*
X1216772D02*
X1216431Y571593D01*
X1221886Y579609D02*
X1220863Y579187D01*
X1220863D02*
X1220181Y577921D01*
X1220181D02*
X1219840Y575812D01*
X1219840D02*
Y574546D01*
X1219840D02*
X1220181Y572437D01*
X1220181D02*
X1220863Y571171D01*
X1220863D02*
X1221886Y570750D01*
X1222568*
X1223590Y571171*
X1223590D02*
X1224272Y572437D01*
X1224272D02*
X1224613Y574546D01*
X1224613D02*
Y575812D01*
X1224613D02*
X1224272Y577921D01*
X1224272D02*
X1223590Y579187D01*
X1223590D02*
X1222568Y579609D01*
X1221886*
X1231772Y578343D02*
X1231431Y579187D01*
X1231431D02*
X1230409Y579609D01*
X1229727*
X1228704Y579187*
X1228704D02*
X1228022Y577921D01*
X1228022D02*
X1227681Y575812D01*
X1227681D02*
Y573703D01*
X1227681D02*
X1228022Y572015D01*
X1228022D02*
X1228704Y571171D01*
X1228704D02*
X1229727Y570750D01*
X1230068*
X1231090Y571171*
X1231090D02*
X1231772Y572015D01*
X1231772D02*
X1232113Y573281D01*
X1232113D02*
Y573703D01*
X1232113D02*
X1231772Y574968D01*
X1231772D02*
X1231090Y575812D01*
X1231090D02*
X1230068Y576234D01*
X1229727*
X1228704Y575812*
X1228704D02*
X1228022Y574968D01*
X1228022D02*
X1227681Y573703D01*
X1235522Y577500D02*
Y577921D01*
X1235522D02*
X1235863Y578765D01*
X1235863D02*
X1236204Y579187D01*
X1236204D02*
X1236886Y579609D01*
X1238250*
X1238931Y579187*
X1238931D02*
X1239272Y578765D01*
X1239272D02*
X1239613Y577921D01*
X1239613D02*
Y577078D01*
X1239613D02*
X1239272Y576234D01*
X1239272D02*
X1238590Y574968D01*
X1238590D02*
X1235181Y570750D01*
X1235181D02*
X1239954D01*
X1253931Y578343D02*
Y570750D01*
X1250863Y574546D02*
X1257000D01*
X1266204Y581296D02*
X1260068Y567796D01*
X1269272Y574546D02*
X1275409D01*
X1278477Y577921D02*
X1279159Y578343D01*
X1279159D02*
X1280181Y579609D01*
X1280181D02*
Y570750D01*
X1285295Y579609D02*
X1284272Y579187D01*
X1284272D02*
X1283590Y577921D01*
X1283590D02*
X1283250Y575812D01*
X1283250D02*
Y574546D01*
X1283250D02*
X1283590Y572437D01*
X1283590D02*
X1284272Y571171D01*
X1284272D02*
X1285295Y570750D01*
X1285977*
X1287000Y571171*
X1287000D02*
X1287681Y572437D01*
X1287681D02*
X1288022Y574546D01*
X1288022D02*
Y575812D01*
X1288022D02*
X1287681Y577921D01*
X1287681D02*
X1287000Y579187D01*
X1287000D02*
X1285977Y579609D01*
X1285295*
X1291772Y577078D02*
X1292113Y576656D01*
X1292113D02*
X1293136D01*
X1293477Y577078*
Y577921*
X1293477D02*
X1293136Y578343D01*
X1293136D02*
X1292113D01*
X1292113D02*
X1291772Y577921D01*
X1291772D02*
Y577078D01*
X1295181Y572015D02*
X1296204D01*
X1296204D02*
X1296545Y572437D01*
X1296545D02*
Y573281D01*
X1296204Y573703*
X1296204D02*
X1295181D01*
X1295181D02*
X1294840Y573281D01*
X1294840D02*
Y572437D01*
X1294840D02*
X1295181Y572015D01*
X1296886Y578765D02*
X1291090Y571171D01*
X1395750Y637109D02*
Y628250D01*
Y637109D02*
X1398818D01*
X1399840Y636687*
X1399840D02*
X1400181Y636265D01*
X1400181D02*
X1400522Y635421D01*
X1400522D02*
Y634578D01*
X1400522D02*
X1400181Y633734D01*
X1400181D02*
X1399840Y633312D01*
X1399840D02*
X1398818Y632890D01*
X1395750D02*
X1398818D01*
X1398818D02*
X1399840Y632468D01*
X1399840D02*
X1400181Y632046D01*
X1400181D02*
X1400522Y631203D01*
X1400522D02*
Y629937D01*
X1400522D02*
X1400181Y629093D01*
X1400181D02*
X1399840Y628671D01*
X1399840D02*
X1398818Y628250D01*
X1395750*
X1405636Y637109D02*
X1404954Y636687D01*
X1404954D02*
X1404272Y635843D01*
X1404272D02*
X1403931Y635000D01*
X1403931D02*
X1403590Y633734D01*
X1403590D02*
Y631625D01*
X1403590D02*
X1403931Y630359D01*
X1403931D02*
X1404272Y629515D01*
X1404272D02*
X1404954Y628671D01*
X1404954D02*
X1405636Y628250D01*
X1407000*
X1407681Y628671*
X1407681D02*
X1408363Y629515D01*
X1408363D02*
X1408704Y630359D01*
X1408704D02*
X1409045Y631625D01*
Y633734*
X1408704Y635000*
X1408704D02*
X1408363Y635843D01*
X1408363D02*
X1407681Y636687D01*
X1407681D02*
X1407000Y637109D01*
X1405636*
X1414500D02*
Y628250D01*
X1412113Y637109D02*
X1416886D01*
X1422340D02*
Y628250D01*
X1419954Y637109D02*
X1424727D01*
X1429840D02*
X1429159Y636687D01*
X1429159D02*
X1428477Y635843D01*
X1428477D02*
X1428136Y635000D01*
X1427795Y633734*
Y631625*
X1428136Y630359*
X1428477Y629515*
X1428477D02*
X1429159Y628671D01*
X1429159D02*
X1429840Y628250D01*
X1429840D02*
X1431204D01*
X1431204D02*
X1431886Y628671D01*
X1431886D02*
X1432568Y629515D01*
X1432568D02*
X1432909Y630359D01*
X1433250Y631625*
Y633734*
X1432909Y635000*
X1432568Y635843*
X1432568D02*
X1431886Y636687D01*
X1431886D02*
X1431204Y637109D01*
X1431204D02*
X1429840D01*
X1436318D02*
Y628250D01*
Y637109D02*
X1439045Y628250D01*
X1441772Y637109D02*
X1439045Y628250D01*
X1441772Y637109D02*
Y628250D01*
X1457454Y635843D02*
X1456772Y636687D01*
X1456772D02*
X1455750Y637109D01*
X1454386*
X1453363Y636687*
X1453363D02*
X1452681Y635843D01*
X1452681D02*
Y635000D01*
X1452681D02*
X1453022Y634156D01*
X1453022D02*
X1453363Y633734D01*
X1453363D02*
X1454045Y633312D01*
X1454045D02*
X1456090Y632468D01*
X1456090D02*
X1456772Y632046D01*
X1456772D02*
X1457113Y631625D01*
X1457113D02*
X1457454Y630781D01*
X1457454D02*
Y629515D01*
X1457454D02*
X1456772Y628671D01*
X1456772D02*
X1455750Y628250D01*
X1454386*
X1453363Y628671*
X1453363D02*
X1452681Y629515D01*
X1460522Y637109D02*
Y628250D01*
X1463590Y637109D02*
Y628250D01*
Y637109D02*
X1465977D01*
X1467000Y636687*
X1467000D02*
X1467681Y635843D01*
X1467681D02*
X1468022Y635000D01*
X1468022D02*
X1468363Y633734D01*
X1468363D02*
Y631625D01*
X1468363D02*
X1468022Y630359D01*
X1468022D02*
X1467681Y629515D01*
X1467681D02*
X1467000Y628671D01*
X1467000D02*
X1465977Y628250D01*
X1463590*
X1471431Y637109D02*
Y628250D01*
Y637109D02*
X1475863D01*
X1471431Y632890D02*
X1474159D01*
X1471431Y628250D02*
X1475863D01*
X1383250Y684609D02*
Y675750D01*
Y684609D02*
X1386318D01*
X1387340Y684187*
X1387340D02*
X1387681Y683765D01*
X1387681D02*
X1388022Y682921D01*
X1388022D02*
Y681656D01*
X1388022D02*
X1387681Y680812D01*
X1387681D02*
X1387340Y680390D01*
X1387340D02*
X1386318Y679968D01*
X1386318D02*
X1383250D01*
X1393136Y684609D02*
X1392454Y684187D01*
X1392454D02*
X1391772Y683343D01*
X1391772D02*
X1391431Y682500D01*
X1391431D02*
X1391090Y681234D01*
X1391090D02*
Y679125D01*
X1391090D02*
X1391431Y677859D01*
X1391431D02*
X1391772Y677015D01*
X1391772D02*
X1392454Y676171D01*
X1392454D02*
X1393136Y675750D01*
X1394500*
X1395181Y676171*
X1395181D02*
X1395863Y677015D01*
X1395863D02*
X1396204Y677859D01*
X1396204D02*
X1396545Y679125D01*
Y681234*
X1396204Y682500*
X1396204D02*
X1395863Y683343D01*
X1395863D02*
X1395181Y684187D01*
X1395181D02*
X1394500Y684609D01*
X1393136*
X1399613D02*
X1401318Y675750D01*
X1403022Y684609D02*
X1401318Y675750D01*
X1403022Y684609D02*
X1404727Y675750D01*
X1406431Y684609D02*
X1404727Y675750D01*
X1409500Y684609D02*
Y675750D01*
Y684609D02*
X1413931D01*
X1409500Y680390D02*
X1412227D01*
X1409500Y675750D02*
X1413931D01*
X1417000Y684609D02*
Y675750D01*
Y684609D02*
X1420068D01*
X1421090Y684187*
X1421090D02*
X1421431Y683765D01*
X1421431D02*
X1421772Y682921D01*
X1421772D02*
Y682078D01*
X1421772D02*
X1421431Y681234D01*
X1421431D02*
X1421090Y680812D01*
X1421090D02*
X1420068Y680390D01*
X1420068D02*
X1417000D01*
X1419386D02*
X1421772Y675750D01*
X1432681Y684609D02*
Y675750D01*
X1432681D02*
X1436772D01*
X1442568Y684609D02*
X1439840Y675750D01*
X1442568Y684609D02*
X1445295Y675750D01*
X1440863Y678703D02*
X1444272D01*
X1448363Y684609D02*
X1451090Y680390D01*
X1451090D02*
Y675750D01*
X1453818Y684609D02*
X1451090Y680390D01*
X1456886Y684609D02*
Y675750D01*
Y684609D02*
X1461318D01*
X1456886Y680390D02*
X1459613D01*
X1456886Y675750D02*
X1461318D01*
X1464386Y684609D02*
Y675750D01*
Y684609D02*
X1467454D01*
X1467454D02*
X1468477Y684187D01*
X1468477D02*
X1468818Y683765D01*
X1468818D02*
X1469159Y682921D01*
X1469159D02*
Y682078D01*
X1468818Y681234*
X1468477Y680812*
X1468477D02*
X1467454Y680390D01*
X1467454D02*
X1464386D01*
X1466772D02*
X1469159Y675750D01*
X1195750Y607109D02*
Y598250D01*
X1199840*
X1205636Y607109D02*
X1202909Y598250D01*
X1205636Y607109D02*
X1208363Y598250D01*
X1203931Y601203D02*
X1207340D01*
X1211431Y607109D02*
X1214159Y602890D01*
X1214159D02*
Y598250D01*
X1216886Y607109D02*
X1214159Y602890D01*
X1219954Y607109D02*
Y598250D01*
Y607109D02*
X1224386D01*
X1219954Y602890D02*
X1222681D01*
X1219954Y598250D02*
X1224386D01*
X1227454Y607109D02*
Y598250D01*
Y607109D02*
X1230522D01*
X1230522D02*
X1231545Y606687D01*
X1231545D02*
X1231886Y606265D01*
X1231886D02*
X1232227Y605421D01*
X1232227D02*
Y604578D01*
X1231886Y603734*
X1231545Y603312*
X1231545D02*
X1230522Y602890D01*
X1230522D02*
X1227454D01*
X1229840D02*
X1232227Y598250D01*
X1243477Y605000D02*
Y605421D01*
X1243477D02*
X1243818Y606265D01*
X1243818D02*
X1244159Y606687D01*
X1244159D02*
X1244840Y607109D01*
X1244840D02*
X1246204D01*
X1246204D02*
X1246886Y606687D01*
X1246886D02*
X1247227Y606265D01*
X1247227D02*
X1247568Y605421D01*
X1247568D02*
Y604578D01*
X1247227Y603734*
X1246545Y602468*
X1246545D02*
X1243136Y598250D01*
X1247909*
X1408250Y617109D02*
Y608250D01*
X1412340*
X1418136Y617109D02*
X1415409Y608250D01*
X1418136Y617109D02*
X1420863Y608250D01*
X1416431Y611203D02*
X1419840D01*
X1423931Y617109D02*
X1426659Y612890D01*
X1426659D02*
Y608250D01*
X1429386Y617109D02*
X1426659Y612890D01*
X1432454Y617109D02*
Y608250D01*
Y617109D02*
X1436886D01*
X1432454Y612890D02*
X1435181D01*
X1432454Y608250D02*
X1436886D01*
X1439954Y617109D02*
Y608250D01*
Y617109D02*
X1443022D01*
X1443022D02*
X1444045Y616687D01*
X1444045D02*
X1444386Y616265D01*
X1444386D02*
X1444727Y615421D01*
X1444727D02*
Y614578D01*
X1444386Y613734*
X1444045Y613312*
X1444045D02*
X1443022Y612890D01*
X1443022D02*
X1439954D01*
X1442340D02*
X1444727Y608250D01*
X1459045Y617109D02*
X1455636Y611203D01*
X1460750*
X1459045Y617109D02*
Y608250D01*
X1405750Y664609D02*
Y655750D01*
X1409840*
X1415636Y664609D02*
X1412909Y655750D01*
X1415636Y664609D02*
X1418363Y655750D01*
X1413931Y658703D02*
X1417340D01*
X1421431Y664609D02*
X1424159Y660390D01*
X1424159D02*
Y655750D01*
X1426886Y664609D02*
X1424159Y660390D01*
X1429954Y664609D02*
Y655750D01*
Y664609D02*
X1434386D01*
X1429954Y660390D02*
X1432681D01*
X1429954Y655750D02*
X1434386D01*
X1437454Y664609D02*
Y655750D01*
Y664609D02*
X1440522D01*
X1440522D02*
X1441545Y664187D01*
X1441545D02*
X1441886Y663765D01*
X1441886D02*
X1442227Y662921D01*
X1442227D02*
Y662078D01*
X1441886Y661234*
X1441545Y660812*
X1441545D02*
X1440522Y660390D01*
X1440522D02*
X1437454D01*
X1439840D02*
X1442227Y655750D01*
X1453818Y664609D02*
X1457568D01*
X1455522Y661234*
X1455522D02*
X1456545D01*
X1457227Y660812*
X1457227D02*
X1457568Y660390D01*
X1457568D02*
X1457909Y659125D01*
Y658281*
X1457568Y657015*
X1457568D02*
X1456886Y656171D01*
X1456886D02*
X1455863Y655750D01*
X1455863D02*
X1454840D01*
X1454840D02*
X1453818Y656171D01*
X1453818D02*
X1453477Y656593D01*
X1453477D02*
X1453136Y657437D01*
X1360000Y902500D02*
X995000D01*
Y930000D02*
X1360000D01*
X1027500Y895000D02*
Y885000D01*
X1022500Y890000D02*
X1032500D01*
X1022500Y870000D02*
X1032500Y860000D01*
Y870000D02*
X1022500Y860000D01*
X995000Y877500D02*
X1360000D01*
X995000Y852500D02*
X1360000D01*
X995000Y960000D02*
Y827500D01*
X1360000*
Y960000*
X995000*
X1060000Y930000D02*
Y827500D01*
X1202500Y930000D02*
Y827500D01*
X1252500Y930000D02*
Y827500D01*
X1010090Y921406D02*
X1009363Y922312D01*
X1009363D02*
X1008272Y922765D01*
X1008272D02*
X1006818D01*
X1006818D02*
X1005727Y922312D01*
X1005727D02*
X1005000Y921406D01*
Y920500*
X1005363Y919593*
X1005363D02*
X1005727Y919140D01*
X1005727D02*
X1006454Y918687D01*
X1006454D02*
X1008636Y917781D01*
X1009363Y917328*
X1009363D02*
X1009727Y916875D01*
X1010090Y915968*
X1010090D02*
Y914609D01*
X1010090D02*
X1009363Y913703D01*
X1009363D02*
X1008272Y913250D01*
X1008272D02*
X1006818D01*
X1005727Y913703*
X1005000Y914609*
X1013363Y922765D02*
X1016272Y918234D01*
X1016272D02*
Y913250D01*
X1019181Y922765D02*
X1016272Y918234D01*
X1022454Y922765D02*
Y913250D01*
Y922765D02*
X1025363Y913250D01*
X1028272Y922765D02*
X1025363Y913250D01*
X1028272Y922765D02*
Y913250D01*
X1031545Y922765D02*
Y913250D01*
Y922765D02*
X1034818D01*
X1034818D02*
X1035909Y922312D01*
X1035909D02*
X1036272Y921859D01*
X1036272D02*
X1036636Y920953D01*
Y920046*
X1036636D02*
X1036272Y919140D01*
X1036272D02*
X1035909Y918687D01*
X1035909D02*
X1034818Y918234D01*
X1031545D02*
X1034818D01*
X1035909Y917781*
X1036272Y917328*
X1036272D02*
X1036636Y916421D01*
X1036636D02*
Y915062D01*
X1036636D02*
X1036272Y914156D01*
X1036272D02*
X1035909Y913703D01*
X1034818Y913250*
X1031545*
X1042090Y922765D02*
X1041363Y922312D01*
X1041363D02*
X1040636Y921406D01*
X1040272Y920500*
X1040272D02*
X1039909Y919140D01*
X1039909D02*
Y916875D01*
X1040272Y915515*
X1040272D02*
X1040636Y914609D01*
X1041363Y913703*
X1041363D02*
X1042090Y913250D01*
X1042090D02*
X1043545D01*
X1044272Y913703*
X1044272D02*
X1045000Y914609D01*
X1045363Y915515*
X1045363D02*
X1045727Y916875D01*
Y919140*
X1045727D02*
X1045363Y920500D01*
X1045363D02*
X1045000Y921406D01*
X1044272Y922312*
X1044272D02*
X1043545Y922765D01*
X1043545D02*
X1042090D01*
X1049000D02*
Y913250D01*
X1053363*
X1225522Y894609D02*
X1222113Y885750D01*
X1220750Y894609D02*
X1225522D01*
X1233363D02*
X1229954Y885750D01*
X1228590Y894609D02*
X1233363D01*
X1229159Y844609D02*
X1225750Y838703D01*
X1230863*
X1229159Y844609D02*
Y835750D01*
X1077795Y844609D02*
X1076772Y844187D01*
X1076772D02*
X1076090Y842921D01*
X1076090D02*
X1075750Y840812D01*
X1075750D02*
Y839546D01*
X1075750D02*
X1076090Y837437D01*
X1076090D02*
X1076772Y836171D01*
X1076772D02*
X1077795Y835750D01*
X1078477*
X1079500Y836171*
X1079500D02*
X1080181Y837437D01*
X1080181D02*
X1080522Y839546D01*
X1080522D02*
Y840812D01*
X1080522D02*
X1080181Y842921D01*
X1080181D02*
X1079500Y844187D01*
X1079500D02*
X1078477Y844609D01*
X1077795*
X1083931Y836593D02*
X1083590Y836171D01*
X1083590D02*
X1083931Y835750D01*
X1083931D02*
X1084272Y836171D01*
X1084272D02*
X1083931Y836593D01*
X1089386Y844609D02*
X1088363Y844187D01*
X1088363D02*
X1087681Y842921D01*
X1087681D02*
X1087340Y840812D01*
X1087340D02*
Y839546D01*
X1087340D02*
X1087681Y837437D01*
X1087681D02*
X1088363Y836171D01*
X1088363D02*
X1089386Y835750D01*
X1090068*
X1091090Y836171*
X1091090D02*
X1091772Y837437D01*
X1091772D02*
X1092113Y839546D01*
X1092113D02*
Y840812D01*
X1092113D02*
X1091772Y842921D01*
X1091772D02*
X1091090Y844187D01*
X1091090D02*
X1090068Y844609D01*
X1089386*
X1099613Y841656D02*
X1099272Y840390D01*
X1099272D02*
X1098590Y839546D01*
X1098590D02*
X1097568Y839125D01*
X1097227*
X1096204Y839546*
X1096204D02*
X1095522Y840390D01*
X1095522D02*
X1095181Y841656D01*
X1095181D02*
Y842078D01*
X1095181D02*
X1095522Y843343D01*
X1095522D02*
X1096204Y844187D01*
X1096204D02*
X1097227Y844609D01*
X1097568*
X1098590Y844187*
X1098590D02*
X1099272Y843343D01*
X1099272D02*
X1099613Y841656D01*
X1099613D02*
Y839546D01*
X1099613D02*
X1099272Y837437D01*
X1099272D02*
X1098590Y836171D01*
X1098590D02*
X1097568Y835750D01*
X1096886*
X1095863Y836171*
X1095863D02*
X1095522Y837015D01*
X1106772Y843343D02*
X1106431Y844187D01*
X1106431D02*
X1105409Y844609D01*
X1104727*
X1103704Y844187*
X1103704D02*
X1103022Y842921D01*
X1103022D02*
X1102681Y840812D01*
X1102681D02*
Y838703D01*
X1102681D02*
X1103022Y837015D01*
X1103022D02*
X1103704Y836171D01*
X1103704D02*
X1104727Y835750D01*
X1105068*
X1106090Y836171*
X1106090D02*
X1106772Y837015D01*
X1106772D02*
X1107113Y838281D01*
X1107113D02*
Y838703D01*
X1107113D02*
X1106772Y839968D01*
X1106772D02*
X1106090Y840812D01*
X1106090D02*
X1105068Y841234D01*
X1104727*
X1103704Y840812*
X1103704D02*
X1103022Y839968D01*
X1103022D02*
X1102681Y838703D01*
X1121090Y843343D02*
Y835750D01*
X1118022Y839546D02*
X1124159D01*
X1133363Y846296D02*
X1127227Y832796D01*
X1136431Y839546D02*
X1142568D01*
X1147681Y844609D02*
X1146659Y844187D01*
X1146659D02*
X1145977Y842921D01*
X1145977D02*
X1145636Y840812D01*
X1145636D02*
Y839546D01*
X1145636D02*
X1145977Y837437D01*
X1145977D02*
X1146659Y836171D01*
X1146659D02*
X1147681Y835750D01*
X1147681D02*
X1148363D01*
X1148363D02*
X1149386Y836171D01*
X1149386D02*
X1150068Y837437D01*
X1150068D02*
X1150409Y839546D01*
X1150409D02*
Y840812D01*
X1150409D02*
X1150068Y842921D01*
X1150068D02*
X1149386Y844187D01*
X1149386D02*
X1148363Y844609D01*
X1148363D02*
X1147681D01*
X1153818Y836593D02*
X1153477Y836171D01*
X1153477D02*
X1153818Y835750D01*
X1154159Y836171*
X1154159D02*
X1153818Y836593D01*
X1159272Y844609D02*
X1158250Y844187D01*
X1158250D02*
X1157568Y842921D01*
X1157568D02*
X1157227Y840812D01*
X1157227D02*
Y839546D01*
X1157227D02*
X1157568Y837437D01*
X1157568D02*
X1158250Y836171D01*
X1158250D02*
X1159272Y835750D01*
X1159272D02*
X1159954D01*
X1159954D02*
X1160977Y836171D01*
X1160977D02*
X1161659Y837437D01*
X1161659D02*
X1162000Y839546D01*
X1162000D02*
Y840812D01*
X1162000D02*
X1161659Y842921D01*
X1161659D02*
X1160977Y844187D01*
X1160977D02*
X1159954Y844609D01*
X1159954D02*
X1159272D01*
X1167113D02*
X1166090Y844187D01*
X1166090D02*
X1165409Y842921D01*
X1165409D02*
X1165068Y840812D01*
X1165068D02*
Y839546D01*
X1165068D02*
X1165409Y837437D01*
X1165409D02*
X1166090Y836171D01*
X1166090D02*
X1167113Y835750D01*
X1167113D02*
X1167795D01*
X1168818Y836171*
X1168818D02*
X1169500Y837437D01*
X1169500D02*
X1169840Y839546D01*
X1169840D02*
Y840812D01*
X1169840D02*
X1169500Y842921D01*
X1169500D02*
X1168818Y844187D01*
X1168818D02*
X1167795Y844609D01*
X1167113*
X1173590D02*
X1177340D01*
X1177340D02*
X1175295Y841234D01*
X1176318*
X1177000Y840812*
X1177000D02*
X1177340Y840390D01*
X1177340D02*
X1177681Y839125D01*
X1177681D02*
Y838281D01*
X1177681D02*
X1177340Y837015D01*
X1177340D02*
X1176659Y836171D01*
X1176659D02*
X1175636Y835750D01*
X1174613*
X1174613D02*
X1173590Y836171D01*
X1173590D02*
X1173250Y836593D01*
X1173250D02*
X1172909Y837437D01*
X1025977Y844609D02*
X1023250Y835750D01*
X1025977Y844609D02*
X1028704Y835750D01*
X1024272Y838703D02*
X1027681D01*
X1077795Y894609D02*
X1076772Y894187D01*
X1076772D02*
X1076090Y892921D01*
X1076090D02*
X1075750Y890812D01*
X1075750D02*
Y889546D01*
X1075750D02*
X1076090Y887437D01*
X1076090D02*
X1076772Y886171D01*
X1076772D02*
X1077795Y885750D01*
X1078477*
X1079500Y886171*
X1079500D02*
X1080181Y887437D01*
X1080181D02*
X1080522Y889546D01*
X1080522D02*
Y890812D01*
X1080522D02*
X1080181Y892921D01*
X1080181D02*
X1079500Y894187D01*
X1079500D02*
X1078477Y894609D01*
X1077795*
X1083931Y886593D02*
X1083590Y886171D01*
X1083590D02*
X1083931Y885750D01*
X1083931D02*
X1084272Y886171D01*
X1084272D02*
X1083931Y886593D01*
X1089386Y894609D02*
X1088363Y894187D01*
X1088363D02*
X1087681Y892921D01*
X1087681D02*
X1087340Y890812D01*
X1087340D02*
Y889546D01*
X1087340D02*
X1087681Y887437D01*
X1087681D02*
X1088363Y886171D01*
X1088363D02*
X1089386Y885750D01*
X1090068*
X1091090Y886171*
X1091090D02*
X1091772Y887437D01*
X1091772D02*
X1092113Y889546D01*
X1092113D02*
Y890812D01*
X1092113D02*
X1091772Y892921D01*
X1091772D02*
X1091090Y894187D01*
X1091090D02*
X1090068Y894609D01*
X1089386*
X1095181Y892921D02*
X1095863Y893343D01*
X1095863D02*
X1096886Y894609D01*
Y885750*
X1102000Y894609D02*
X1100977Y894187D01*
X1100977D02*
X1100295Y892921D01*
X1100295D02*
X1099954Y890812D01*
X1099954D02*
Y889546D01*
X1099954D02*
X1100295Y887437D01*
X1100295D02*
X1100977Y886171D01*
X1100977D02*
X1102000Y885750D01*
X1102681*
X1102681D02*
X1103704Y886171D01*
X1103704D02*
X1104386Y887437D01*
X1104386D02*
X1104727Y889546D01*
X1104727D02*
Y890812D01*
X1104727D02*
X1104386Y892921D01*
X1104386D02*
X1103704Y894187D01*
X1103704D02*
X1102681Y894609D01*
X1102681D02*
X1102000D01*
X1118704Y893343D02*
Y885750D01*
X1115636Y889546D02*
X1121772D01*
X1126886Y894609D02*
X1125863Y894187D01*
X1125863D02*
X1125181Y892921D01*
X1125181D02*
X1124840Y890812D01*
X1124840D02*
Y889546D01*
X1124840D02*
X1125181Y887437D01*
X1125181D02*
X1125863Y886171D01*
X1125863D02*
X1126886Y885750D01*
X1127568*
X1128590Y886171*
X1128590D02*
X1129272Y887437D01*
X1129272D02*
X1129613Y889546D01*
X1129613D02*
Y890812D01*
X1129613D02*
X1129272Y892921D01*
X1129272D02*
X1128590Y894187D01*
X1128590D02*
X1127568Y894609D01*
X1126886*
X1138818Y896296D02*
X1132681Y882796D01*
X1141886Y889546D02*
X1148022D01*
X1153136Y894609D02*
X1152113Y894187D01*
X1152113D02*
X1151431Y892921D01*
X1151431D02*
X1151090Y890812D01*
X1151090D02*
Y889546D01*
X1151090D02*
X1151431Y887437D01*
X1151431D02*
X1152113Y886171D01*
X1152113D02*
X1153136Y885750D01*
X1153818*
X1154840Y886171*
X1154840D02*
X1155522Y887437D01*
X1155522D02*
X1155863Y889546D01*
X1155863D02*
Y890812D01*
X1155863D02*
X1155522Y892921D01*
X1155522D02*
X1154840Y894187D01*
X1154840D02*
X1153818Y894609D01*
X1153136*
X1159272Y886593D02*
X1158931Y886171D01*
X1158931D02*
X1159272Y885750D01*
X1159272D02*
X1159613Y886171D01*
X1159613D02*
X1159272Y886593D01*
X1164727Y894609D02*
X1163704Y894187D01*
X1163704D02*
X1163022Y892921D01*
X1163022D02*
X1162681Y890812D01*
X1162681D02*
Y889546D01*
X1162681D02*
X1163022Y887437D01*
X1163022D02*
X1163704Y886171D01*
X1163704D02*
X1164727Y885750D01*
X1165409*
X1166431Y886171*
X1166431D02*
X1167113Y887437D01*
X1167113D02*
X1167454Y889546D01*
X1167454D02*
Y890812D01*
X1167454D02*
X1167113Y892921D01*
X1167113D02*
X1166431Y894187D01*
X1166431D02*
X1165409Y894609D01*
X1164727*
X1172568D02*
X1171545Y894187D01*
X1171545D02*
X1170863Y892921D01*
X1170863D02*
X1170522Y890812D01*
X1170522D02*
Y889546D01*
X1170522D02*
X1170863Y887437D01*
X1170863D02*
X1171545Y886171D01*
X1171545D02*
X1172568Y885750D01*
X1173250*
X1174272Y886171*
X1174272D02*
X1174954Y887437D01*
X1174954D02*
X1175295Y889546D01*
X1175295D02*
Y890812D01*
X1175295D02*
X1174954Y892921D01*
X1174954D02*
X1174272Y894187D01*
X1174272D02*
X1173250Y894609D01*
X1172568*
X1182795D02*
X1179386D01*
X1179045Y890812*
X1179045D02*
X1179386Y891234D01*
X1180409Y891656*
X1181431*
X1181431D02*
X1182454Y891234D01*
X1182454D02*
X1183136Y890390D01*
X1183136D02*
X1183477Y889125D01*
X1183136Y888281*
X1182795Y887015*
X1182795D02*
X1182113Y886171D01*
X1182113D02*
X1181090Y885750D01*
X1181090D02*
X1180068D01*
X1179045Y886171*
X1179045D02*
X1178704Y886593D01*
X1178704D02*
X1178363Y887437D01*
X1077795Y869609D02*
X1076772Y869187D01*
X1076772D02*
X1076090Y867921D01*
X1076090D02*
X1075750Y865812D01*
X1075750D02*
Y864546D01*
X1075750D02*
X1076090Y862437D01*
X1076090D02*
X1076772Y861171D01*
X1076772D02*
X1077795Y860750D01*
X1078477*
X1079500Y861171*
X1079500D02*
X1080181Y862437D01*
X1080181D02*
X1080522Y864546D01*
X1080522D02*
Y865812D01*
X1080522D02*
X1080181Y867921D01*
X1080181D02*
X1079500Y869187D01*
X1079500D02*
X1078477Y869609D01*
X1077795*
X1083931Y861593D02*
X1083590Y861171D01*
X1083590D02*
X1083931Y860750D01*
X1083931D02*
X1084272Y861171D01*
X1084272D02*
X1083931Y861593D01*
X1089386Y869609D02*
X1088363Y869187D01*
X1088363D02*
X1087681Y867921D01*
X1087681D02*
X1087340Y865812D01*
X1087340D02*
Y864546D01*
X1087340D02*
X1087681Y862437D01*
X1087681D02*
X1088363Y861171D01*
X1088363D02*
X1089386Y860750D01*
X1090068*
X1091090Y861171*
X1091090D02*
X1091772Y862437D01*
X1091772D02*
X1092113Y864546D01*
X1092113D02*
Y865812D01*
X1092113D02*
X1091772Y867921D01*
X1091772D02*
X1091090Y869187D01*
X1091090D02*
X1090068Y869609D01*
X1089386*
X1095863D02*
X1099613D01*
X1099613D02*
X1097568Y866234D01*
X1098590*
X1098590D02*
X1099272Y865812D01*
X1099272D02*
X1099613Y865390D01*
X1099613D02*
X1099954Y864125D01*
X1099954D02*
Y863281D01*
X1099954D02*
X1099613Y862015D01*
X1099613D02*
X1098931Y861171D01*
X1098931D02*
X1097909Y860750D01*
X1096886*
X1095863Y861171*
X1095863D02*
X1095522Y861593D01*
X1095522D02*
X1095181Y862437D01*
X1107454Y869609D02*
X1104045D01*
X1103704Y865812*
X1103704D02*
X1104045Y866234D01*
X1105068Y866656*
X1106090*
X1106090D02*
X1107113Y866234D01*
X1107113D02*
X1107795Y865390D01*
X1107795D02*
X1108136Y864125D01*
X1107795Y863281*
X1107454Y862015*
X1107454D02*
X1106772Y861171D01*
X1106772D02*
X1105750Y860750D01*
X1104727*
X1103704Y861171*
X1103704D02*
X1103363Y861593D01*
X1103363D02*
X1103022Y862437D01*
X1122113Y868343D02*
Y860750D01*
X1119045Y864546D02*
X1125181D01*
X1134386Y871296D02*
X1128250Y857796D01*
X1137454Y864546D02*
X1143590D01*
X1148704Y869609D02*
X1147681Y869187D01*
X1147681D02*
X1147000Y867921D01*
X1147000D02*
X1146659Y865812D01*
X1146659D02*
Y864546D01*
X1146659D02*
X1147000Y862437D01*
X1147000D02*
X1147681Y861171D01*
X1147681D02*
X1148704Y860750D01*
X1148704D02*
X1149386D01*
X1150409Y861171*
X1150409D02*
X1151090Y862437D01*
X1151090D02*
X1151431Y864546D01*
X1151431D02*
Y865812D01*
X1151431D02*
X1151090Y867921D01*
X1151090D02*
X1150409Y869187D01*
X1150409D02*
X1149386Y869609D01*
X1148704*
X1154840Y861593D02*
X1154500Y861171D01*
X1154500D02*
X1154840Y860750D01*
X1154840D02*
X1155181Y861171D01*
X1155181D02*
X1154840Y861593D01*
X1160295Y869609D02*
X1159272Y869187D01*
X1159272D02*
X1158590Y867921D01*
X1158590D02*
X1158250Y865812D01*
X1158250D02*
Y864546D01*
X1158250D02*
X1158590Y862437D01*
X1158590D02*
X1159272Y861171D01*
X1159272D02*
X1160295Y860750D01*
X1160977*
X1162000Y861171*
X1162000D02*
X1162681Y862437D01*
X1162681D02*
X1163022Y864546D01*
X1163022D02*
Y865812D01*
X1163022D02*
X1162681Y867921D01*
X1162681D02*
X1162000Y869187D01*
X1162000D02*
X1160977Y869609D01*
X1160295*
X1168136D02*
X1167113Y869187D01*
X1167113D02*
X1166431Y867921D01*
X1166431D02*
X1166090Y865812D01*
X1166090D02*
Y864546D01*
X1166090D02*
X1166431Y862437D01*
X1166431D02*
X1167113Y861171D01*
X1167113D02*
X1168136Y860750D01*
X1168818*
X1169840Y861171*
X1169840D02*
X1170522Y862437D01*
X1170522D02*
X1170863Y864546D01*
X1170863D02*
Y865812D01*
X1170863D02*
X1170522Y867921D01*
X1170522D02*
X1169840Y869187D01*
X1169840D02*
X1168818Y869609D01*
X1168136*
X1174613D02*
X1178363D01*
X1178363D02*
X1176318Y866234D01*
X1177340*
X1177340D02*
X1178022Y865812D01*
X1178022D02*
X1178363Y865390D01*
X1178363D02*
X1178704Y864125D01*
X1178704D02*
Y863281D01*
X1178704D02*
X1178363Y862015D01*
X1178363D02*
X1177681Y861171D01*
X1177681D02*
X1176659Y860750D01*
X1175636*
X1174613Y861171*
X1174613D02*
X1174272Y861593D01*
X1174272D02*
X1173931Y862437D01*
X1217181Y922765D02*
X1216454Y922312D01*
X1216454D02*
X1215727Y921406D01*
X1215363Y920500*
X1215363D02*
X1215000Y919140D01*
X1215000D02*
Y916875D01*
X1215363Y915515*
X1215363D02*
X1215727Y914609D01*
X1216454Y913703*
X1216454D02*
X1217181Y913250D01*
X1217181D02*
X1218636D01*
X1219363Y913703*
X1219363D02*
X1220090Y914609D01*
X1220090D02*
X1220454Y915515D01*
X1220454D02*
X1220818Y916875D01*
Y919140*
X1220818D02*
X1220454Y920500D01*
X1220454D02*
X1220090Y921406D01*
X1220090D02*
X1219363Y922312D01*
X1219363D02*
X1218636Y922765D01*
X1218636D02*
X1217181D01*
X1218272Y915062D02*
X1220454Y912343D01*
X1226636Y922765D02*
Y913250D01*
X1224090Y922765D02*
X1229181D01*
X1232454D02*
X1235363Y918234D01*
X1235363D02*
Y913250D01*
X1238272Y922765D02*
X1235363Y918234D01*
X1265000Y922765D02*
Y913250D01*
Y922765D02*
X1268272D01*
X1268272D02*
X1269363Y922312D01*
X1269363D02*
X1269727Y921859D01*
X1270090Y920953*
X1270090D02*
Y919593D01*
X1270090D02*
X1269727Y918687D01*
X1269727D02*
X1269363Y918234D01*
X1269363D02*
X1268272Y917781D01*
X1268272D02*
X1265000D01*
X1273363Y922765D02*
Y913250D01*
X1273363D02*
X1277727D01*
X1283909Y922765D02*
X1281000Y913250D01*
X1283909Y922765D02*
X1286818Y913250D01*
X1282090Y916421D02*
X1285727D01*
X1292636Y922765D02*
Y913250D01*
X1290090Y922765D02*
X1295181D01*
X1298454D02*
Y913250D01*
Y922765D02*
X1303181D01*
X1298454Y918234D02*
X1301363D01*
X1298454Y913250D02*
X1303181D01*
X1306454Y922765D02*
Y913250D01*
Y922765D02*
X1309000D01*
X1309000D02*
X1310090Y922312D01*
X1310090D02*
X1310818Y921406D01*
X1311181Y920500*
X1311181D02*
X1311545Y919140D01*
X1311545D02*
Y916875D01*
X1311181Y915515*
X1311181D02*
X1310818Y914609D01*
X1310090Y913703*
X1310090D02*
X1309000Y913250D01*
X1306454*
X1325727Y922765D02*
Y913250D01*
X1323181Y922765D02*
X1328272D01*
X1331545D02*
X1334454Y918234D01*
X1334454D02*
Y913250D01*
X1337363Y922765D02*
X1334454Y918234D01*
X1340636Y922765D02*
Y913250D01*
Y922765D02*
X1343909D01*
X1343909D02*
X1345000Y922312D01*
X1345000D02*
X1345363Y921859D01*
X1345363D02*
X1345727Y920953D01*
Y919593*
X1345727D02*
X1345363Y918687D01*
X1345363D02*
X1345000Y918234D01*
X1343909Y917781*
X1340636*
X1349000Y922765D02*
Y913250D01*
Y922765D02*
X1353727D01*
X1349000Y918234D02*
X1351909D01*
X1349000Y913250D02*
X1353727D01*
X1122590Y921406D02*
X1121863Y922312D01*
X1121863D02*
X1120772Y922765D01*
X1120772D02*
X1119318D01*
X1119318D02*
X1118227Y922312D01*
X1118227D02*
X1117500Y921406D01*
Y920500*
X1117863Y919593*
X1117863D02*
X1118227Y919140D01*
X1118227D02*
X1118954Y918687D01*
X1118954D02*
X1121136Y917781D01*
X1121863Y917328*
X1121863D02*
X1122227Y916875D01*
X1122590Y915968*
X1122590D02*
Y914609D01*
X1122590D02*
X1121863Y913703D01*
X1121863D02*
X1120772Y913250D01*
X1120772D02*
X1119318D01*
X1118227Y913703*
X1117500Y914609*
X1125863Y922765D02*
Y913250D01*
X1134227Y922765D02*
X1129136Y913250D01*
Y922765D02*
X1134227D01*
X1129136Y913250D02*
X1134227D01*
X1137500Y922765D02*
Y913250D01*
Y922765D02*
X1142227D01*
X1137500Y918234D02*
X1140409D01*
X1137500Y913250D02*
X1142227D01*
X1130000Y950921D02*
Y940750D01*
Y950921D02*
X1132704D01*
X1132704D02*
X1133863Y950437D01*
X1133863D02*
X1134636Y949468D01*
X1134636D02*
X1135022Y948500D01*
X1135022D02*
X1135409Y947046D01*
X1135409D02*
Y944625D01*
X1135022Y943171*
X1135022D02*
X1134636Y942203D01*
X1133863Y941234*
X1133863D02*
X1132704Y940750D01*
X1132704D02*
X1130000D01*
X1138886Y950921D02*
Y940750D01*
Y950921D02*
X1142363D01*
X1142363D02*
X1143522Y950437D01*
X1143522D02*
X1143909Y949953D01*
X1144295Y948984*
Y948015*
X1144295D02*
X1143909Y947046D01*
X1143909D02*
X1143522Y946562D01*
X1143522D02*
X1142363Y946078D01*
X1142363D02*
X1138886D01*
X1141590D02*
X1144295Y940750D01*
X1147772Y950921D02*
Y940750D01*
X1151250Y950921D02*
Y940750D01*
X1155886*
X1159363Y950921D02*
Y940750D01*
X1159363D02*
X1164000D01*
X1182159Y948500D02*
X1181772Y949468D01*
X1181772D02*
X1181000Y950437D01*
X1181000D02*
X1180227Y950921D01*
X1180227D02*
X1178681D01*
X1178681D02*
X1177909Y950437D01*
X1177909D02*
X1177136Y949468D01*
X1177136D02*
X1176750Y948500D01*
X1176363Y947046*
X1176363D02*
Y944625D01*
X1176363D02*
X1176750Y943171D01*
X1176750D02*
X1177136Y942203D01*
X1177909Y941234*
X1178681Y940750*
X1178681D02*
X1180227D01*
X1181000Y941234*
X1181772Y942203*
X1181772D02*
X1182159Y943171D01*
X1185636Y950921D02*
Y940750D01*
X1191045Y950921D02*
Y940750D01*
X1185636Y946078D02*
X1191045D01*
X1197613Y950921D02*
X1194522Y940750D01*
X1197613Y950921D02*
X1200704Y940750D01*
X1195681Y944140D02*
X1199545D01*
X1204181Y950921D02*
Y940750D01*
Y950921D02*
X1207659D01*
X1207659D02*
X1208818Y950437D01*
X1208818D02*
X1209204Y949953D01*
X1209204D02*
X1209590Y948984D01*
X1209590D02*
Y948015D01*
X1209590D02*
X1209204Y947046D01*
X1209204D02*
X1208818Y946562D01*
X1208818D02*
X1207659Y946078D01*
X1204181*
X1206886D02*
X1209590Y940750D01*
X1215772Y950921D02*
Y940750D01*
X1213068Y950921D02*
X1218477D01*
X1280750Y844609D02*
Y835750D01*
Y844609D02*
X1283818D01*
X1284840Y844187*
X1284840D02*
X1285181Y843765D01*
X1285181D02*
X1285522Y842921D01*
X1285522D02*
Y841656D01*
X1285522D02*
X1285181Y840812D01*
X1285181D02*
X1284840Y840390D01*
X1284840D02*
X1283818Y839968D01*
X1283818D02*
X1280750D01*
X1288590Y844609D02*
Y835750D01*
X1288590D02*
X1292681D01*
X1298477Y844609D02*
X1295750Y835750D01*
X1298477Y844609D02*
X1301204Y835750D01*
X1296772Y838703D02*
X1300181D01*
X1306659Y844609D02*
Y835750D01*
X1304272Y844609D02*
X1309045D01*
X1312113D02*
Y835750D01*
Y844609D02*
X1316545D01*
X1312113Y840390D02*
X1314840D01*
X1312113Y835750D02*
X1316545D01*
X1319613Y844609D02*
Y835750D01*
Y844609D02*
X1322000D01*
X1323022Y844187*
X1323022D02*
X1323704Y843343D01*
X1323704D02*
X1324045Y842500D01*
X1324386Y841234*
Y839125*
X1324045Y837859*
X1323704Y837015*
X1323704D02*
X1323022Y836171D01*
X1323022D02*
X1322000Y835750D01*
X1319613*
X1280750Y869609D02*
Y860750D01*
Y869609D02*
X1283818D01*
X1284840Y869187*
X1284840D02*
X1285181Y868765D01*
X1285181D02*
X1285522Y867921D01*
X1285522D02*
Y866656D01*
X1285522D02*
X1285181Y865812D01*
X1285181D02*
X1284840Y865390D01*
X1284840D02*
X1283818Y864968D01*
X1283818D02*
X1280750D01*
X1288590Y869609D02*
Y860750D01*
X1288590D02*
X1292681D01*
X1298477Y869609D02*
X1295750Y860750D01*
X1298477Y869609D02*
X1301204Y860750D01*
X1296772Y863703D02*
X1300181D01*
X1306659Y869609D02*
Y860750D01*
X1304272Y869609D02*
X1309045D01*
X1312113D02*
Y860750D01*
Y869609D02*
X1316545D01*
X1312113Y865390D02*
X1314840D01*
X1312113Y860750D02*
X1316545D01*
X1319613Y869609D02*
Y860750D01*
Y869609D02*
X1322000D01*
X1323022Y869187*
X1323022D02*
X1323704Y868343D01*
X1323704D02*
X1324045Y867500D01*
X1324386Y866234*
Y864125*
X1324045Y862859*
X1323704Y862015*
X1323704D02*
X1323022Y861171D01*
X1323022D02*
X1322000Y860750D01*
X1319613*
X1280750Y894609D02*
Y885750D01*
Y894609D02*
X1283818D01*
X1284840Y894187*
X1284840D02*
X1285181Y893765D01*
X1285181D02*
X1285522Y892921D01*
X1285522D02*
Y891656D01*
X1285522D02*
X1285181Y890812D01*
X1285181D02*
X1284840Y890390D01*
X1284840D02*
X1283818Y889968D01*
X1283818D02*
X1280750D01*
X1288590Y894609D02*
Y885750D01*
X1288590D02*
X1292681D01*
X1298477Y894609D02*
X1295750Y885750D01*
X1298477Y894609D02*
X1301204Y885750D01*
X1296772Y888703D02*
X1300181D01*
X1306659Y894609D02*
Y885750D01*
X1304272Y894609D02*
X1309045D01*
X1312113D02*
Y885750D01*
Y894609D02*
X1316545D01*
X1312113Y890390D02*
X1314840D01*
X1312113Y885750D02*
X1316545D01*
X1319613Y894609D02*
Y885750D01*
Y894609D02*
X1322000D01*
X1323022Y894187*
X1323022D02*
X1323704Y893343D01*
X1323704D02*
X1324045Y892500D01*
X1324386Y891234*
Y889125*
X1324045Y887859*
X1323704Y887015*
X1323704D02*
X1323022Y886171D01*
X1323022D02*
X1322000Y885750D01*
X1319613*
X1226090Y867500D02*
Y867921D01*
X1226090D02*
X1226431Y868765D01*
X1226431D02*
X1226772Y869187D01*
X1226772D02*
X1227454Y869609D01*
X1227454D02*
X1228818D01*
X1229500Y869187*
X1229500D02*
X1229840Y868765D01*
X1229840D02*
X1230181Y867921D01*
X1230181D02*
Y867078D01*
X1230181D02*
X1229840Y866234D01*
X1229840D02*
X1229159Y864968D01*
X1229159D02*
X1225750Y860750D01*
X1230522*
G54D55*
X800000Y800000D02*
X800002D01*
X797500Y957500D02*
X797502D01*
X800000D02*
X800002D01*
X865000D02*
X865002D01*
X811800Y831000D02*
X811802D01*
X800000Y800000D02*
X800002D01*
X800000D02*
X800002D01*
X809500Y832600D02*
X809502D01*
X0Y0D02*
M02*
