M48
%
T1C.01
X021Y0404
X022Y0404
X0204Y04065
X02235Y04165
X0204Y04185
X02235Y04285
X0209Y04445
X022Y04445
X0215Y04445
X02035Y045
X0215Y04545
X0209Y04555
X02035Y046
X0228Y046
X0228Y0465
X02035Y047
X02085Y04785
X0215Y0479
X02035Y048
X02085Y04915
X02235Y04915
X022Y04915
X02035Y0492
X0204Y05125
X0214Y0515
X02195Y0515
X0212Y0529
X0221Y053
X0223Y05365
X0212Y05365
X0225Y05495
X02225Y05535
X02125Y05535
X02325Y05535
X02525Y05535
X02425Y05535
X024Y05495
X02325Y05425
X02455Y0536
X025Y0536
X02405Y053
X02455Y05285
X025Y05285
X02405Y0526
X02405Y05215
X02405Y0517
X02325Y0511
X02365Y0511
X02285Y0511
X0235Y0498
X0233Y0476
X0237Y0476
X0232Y0464
X0235Y04555
X0235Y04445
X0239Y0443
X023Y04325
X0239Y0432
X02365Y04285
X02365Y04165
X023Y0408
X023Y0404
X024Y0404
X025Y0404
X02585Y0404
X0261Y0414
X0261Y045
X0261Y046
X0261Y047
X0261Y04775
X0261Y0492
X0261Y052
X02545Y05285
X0261Y053
X02545Y0536
X0261Y054
X0261Y055
T2C.035
X02512Y0463
X02512Y0473
T3C.096
X02118Y04326
X02512Y04326
X02512Y05034
X02118Y05034
M30
