*
*
G04 PADS Layout (Build Number 2005.103.1) generated Gerber (RS-274-X) file*
G04 PC Version=2.1*
*
%IN "7748.pcb"*%
*
%MOIN*%
*
%FSLAX35Y35*%
*
*
*
*
G04 PC Standard Apertures*
*
*
G04 Thermal Relief Aperture macro.*
%AMTER*
1,1,$1,0,0*
1,0,$1-$2,0,0*
21,0,$3,$4,0,0,45*
21,0,$3,$4,0,0,135*
%
*
*
G04 Annular Aperture macro.*
%AMANN*
1,1,$1,0,0*
1,0,$2,0,0*
%
*
*
G04 Odd Aperture macro.*
%AMODD*
1,1,$1,0,0*
1,0,$1-0.005,0,0*
%
*
*
G04 PC Custom Aperture Macros*
*
*
*
*
*
*
G04 PC Aperture Table*
*
%ADD032C,0.02*%
%ADD052C,0.01*%
%ADD053C,0.02*%
%ADD064C,0.006*%
*
*
*
*
G04 PC Custom Flashes*
G04 Layer Name 7748.pcb - flashes*
%LPD*%
*
*
G04 PC Circuitry*
G04 Layer Name 7748.pcb - circuitry*
%LPD*%
*
G54D32*
G01X823500Y828500D03*
X830000Y832500D03*
X836500Y828500D03*
X815000Y879000D03*
X823500Y891500D03*
X820000D03*
X835000Y898000D03*
X828500Y911000D03*
X832500D03*
X840500Y921500D03*
Y917000D03*
X836500Y911000D03*
G54D52*
X800000Y800000D02*
X865000D01*
Y957500*
X800000*
Y800000*
G54D53*
X831909Y767812D02*
X836909D01*
X836909D02*
X834181Y763312D01*
X834181D02*
X835545D01*
X835545D02*
X836454Y762750D01*
X836454D02*
X836909Y762187D01*
X836909D02*
X837363Y760500D01*
X837363D02*
Y759375D01*
X837363D02*
X836909Y757687D01*
X836909D02*
X836000Y756562D01*
X836000D02*
X834636Y756000D01*
X833272*
X833272D02*
X831909Y756562D01*
X831909D02*
X831454Y757125D01*
X831454D02*
X831000Y758250D01*
X841454Y765562D02*
X842363Y766125D01*
X842363D02*
X843727Y767812D01*
X843727D02*
Y756000D01*
X847818Y761062D02*
X856000D01*
X862818Y767812D02*
X861454Y767250D01*
X861454D02*
X860545Y765562D01*
X860545D02*
X860090Y762750D01*
X860090D02*
Y761062D01*
X860090D02*
X860545Y758250D01*
X861454Y756562*
X861454D02*
X862818Y756000D01*
X863727*
X865090Y756562*
X865090D02*
X866000Y758250D01*
X866454Y761062*
X866454D02*
Y762750D01*
X866454D02*
X866000Y765562D01*
X866000D02*
X865090Y767250D01*
X865090D02*
X863727Y767812D01*
X863727D02*
X862818D01*
X873272D02*
X871909Y767250D01*
X871000Y765562*
X871000D02*
X870545Y762750D01*
Y761062*
X870545D02*
X871000Y758250D01*
X871909Y756562*
X871909D02*
X873272Y756000D01*
X873272D02*
X874181D01*
X874181D02*
X875545Y756562D01*
X875545D02*
X876454Y758250D01*
X876454D02*
X876909Y761062D01*
X876909D02*
Y762750D01*
X876454Y765562*
X876454D02*
X875545Y767250D01*
X874181Y767812*
X874181D02*
X873272D01*
X883727D02*
X882363Y767250D01*
X882363D02*
X881454Y765562D01*
X881454D02*
X881000Y762750D01*
Y761062*
X881000D02*
X881454Y758250D01*
X881454D02*
X882363Y756562D01*
X882363D02*
X883727Y756000D01*
X884636*
X886000Y756562*
X886000D02*
X886909Y758250D01*
X887363Y761062*
X887363D02*
Y762750D01*
X887363D02*
X886909Y765562D01*
X886909D02*
X886000Y767250D01*
X884636Y767812*
X884636D02*
X883727D01*
X891909Y765000D02*
Y765562D01*
X891909D02*
X892363Y766687D01*
X892363D02*
X892818Y767250D01*
X893727Y767812*
X893727D02*
X895545D01*
X895545D02*
X896454Y767250D01*
X896454D02*
X896909Y766687D01*
X896909D02*
X897363Y765562D01*
X897363D02*
Y764437D01*
X897363D02*
X896909Y763312D01*
X896909D02*
X896000Y761625D01*
X891454Y756000*
X891454D02*
X897818D01*
X912363Y767812D02*
Y756000D01*
Y767812D02*
X916454D01*
X916454D02*
X917818Y767250D01*
X918272Y766687*
X918272D02*
X918727Y765562D01*
X918727D02*
Y764437D01*
X918727D02*
X918272Y763312D01*
X918272D02*
X917818Y762750D01*
X916454Y762187*
X916454D02*
X912363D01*
X915545D02*
X918727Y756000D01*
X922818Y767812D02*
Y756000D01*
Y767812D02*
X928727D01*
X922818Y762187D02*
X926454D01*
X922818Y756000D02*
X928727D01*
X932818Y767812D02*
X936454Y756000D01*
X940090Y767812D02*
X936454Y756000D01*
X954636Y765562D02*
X955545Y766125D01*
X956909Y767812*
X956909D02*
Y756000D01*
X761000Y792812D02*
Y781000D01*
X766454*
X774181Y792812D02*
X770545Y781000D01*
X774181Y792812D02*
X777818Y781000D01*
X771909Y784937D02*
X776454D01*
X781909Y792812D02*
X785545Y787187D01*
X785545D02*
Y781000D01*
X789181Y792812D02*
X785545Y787187D01*
X793272Y792812D02*
Y781000D01*
Y792812D02*
X799181D01*
X793272Y787187D02*
X796909D01*
X793272Y781000D02*
X799181D01*
X803272Y792812D02*
Y781000D01*
Y792812D02*
X807363D01*
X807363D02*
X808727Y792250D01*
X809181Y791687*
X809181D02*
X809636Y790562D01*
X809636D02*
Y789437D01*
X809636D02*
X809181Y788312D01*
X809181D02*
X808727Y787750D01*
X807363Y787187*
X807363D02*
X803272D01*
X806454D02*
X809636Y781000D01*
X825090Y792812D02*
X830090D01*
X830090D02*
X827363Y788312D01*
X827363D02*
X828727D01*
X828727D02*
X829636Y787750D01*
X830090Y787187*
X830090D02*
X830545Y785500D01*
Y784375*
X830090Y782687*
X830090D02*
X829181Y781562D01*
X829181D02*
X827818Y781000D01*
X826454*
X826454D02*
X825090Y781562D01*
X825090D02*
X824636Y782125D01*
X824181Y783250*
X845090Y792812D02*
Y781000D01*
Y792812D02*
X849181D01*
X849181D02*
X850545Y792250D01*
X851000Y791687*
X851000D02*
X851454Y790562D01*
X851454D02*
Y788875D01*
X851454D02*
X851000Y787750D01*
X850545Y787187*
X850545D02*
X849181Y786625D01*
X849181D02*
X845090D01*
X858272Y792812D02*
X857363Y792250D01*
X857363D02*
X856454Y791125D01*
X856454D02*
X856000Y790000D01*
X855545Y788312*
X855545D02*
Y785500D01*
X856000Y783812*
X856000D02*
X856454Y782687D01*
X856454D02*
X857363Y781562D01*
X857363D02*
X858272Y781000D01*
X858272D02*
X860090D01*
X860090D02*
X861000Y781562D01*
X861000D02*
X861909Y782687D01*
X861909D02*
X862363Y783812D01*
X862363D02*
X862818Y785500D01*
Y788312*
X862818D02*
X862363Y790000D01*
X862363D02*
X861909Y791125D01*
X861000Y792250*
X860090Y792812*
X860090D02*
X858272D01*
X866909D02*
X869181Y781000D01*
X871454Y792812D02*
X869181Y781000D01*
X871454Y792812D02*
X873727Y781000D01*
X876000Y792812D02*
X873727Y781000D01*
X880090Y792812D02*
Y781000D01*
Y792812D02*
X886000D01*
X880090Y787187D02*
X883727D01*
X880090Y781000D02*
X886000D01*
X890090Y792812D02*
Y781000D01*
Y792812D02*
X894181D01*
X894181D02*
X895545Y792250D01*
X896000Y791687*
X896000D02*
X896454Y790562D01*
X896454D02*
Y789437D01*
X896454D02*
X896000Y788312D01*
X896000D02*
X895545Y787750D01*
X894181Y787187*
X894181D02*
X890090D01*
X893272D02*
X896454Y781000D01*
G54D64*
X860500Y832600D02*
G75*
G03X860500I-9300J0D01*
G01X854750Y863000D02*
G03X854750I-3550J0D01*
G01Y873000D02*
G03X854750I-3550J0D01*
G01X860500Y903400D02*
G03X860500I-9300J0D01*
G01X856550Y928500D02*
G03X856550I-2050J0D01*
G01Y936000D02*
G03X856550I-2050J0D01*
G01X852050Y928500D02*
G03X852050I-2050J0D01*
G01Y936000D02*
G03X852050I-2050J0D01*
G01X847550Y928500D02*
G03X847550I-2050J0D01*
G01Y936000D02*
G03X847550I-2050J0D01*
G01X838550Y816500D02*
G03X838550I-2050J0D01*
G01X841050Y832000D02*
G03X841050I-2050J0D01*
G01Y843000D02*
G03X841050I-2050J0D01*
G01X837050Y844500D02*
G03X837050I-2050J0D01*
G01Y855500D02*
G03X837050I-2050J0D01*
G01X830050Y860000D02*
G03X830050I-2050J0D01*
G01X834050Y864000D02*
G03X834050I-2050J0D01*
G01X842050Y949500D02*
G03X842050I-2050J0D01*
G01X834550Y942500D02*
G03X834550I-2050J0D01*
G01X830050Y865000D02*
G03X830050I-2050J0D01*
G01X825550Y816500D02*
G03X825550I-2050J0D01*
G01X822050Y844500D02*
G03X822050I-2050J0D01*
G01X817050D02*
G03X817050I-2050J0D01*
G01Y854500D02*
G03X817050I-2050J0D01*
G01X811050Y844500D02*
G03X811050I-2050J0D01*
G01Y855500D02*
G03X811050I-2050J0D01*
G01X810550Y878500D02*
G03X810550I-2050J0D01*
G01Y891500D02*
G03X810550I-2050J0D01*
G01X821550Y915000D02*
G03X821550I-2050J0D01*
G01X823050Y930000D02*
G03X823050I-2050J0D01*
G01X825050Y936500D02*
G03X825050I-2050J0D01*
G01X827050Y949500D02*
G03X827050I-2050J0D01*
G01X816050Y915000D02*
G03X816050I-2050J0D01*
G01X814050Y929000D02*
G03X814050I-2050J0D01*
G01Y936500D02*
G03X814050I-2050J0D01*
G01X862199Y951662D02*
Y954699D01*
X862199D02*
X854162D01*
X850837D02*
G03X854162I1663J-1199D01*
G01X850837D02*
X844162D01*
X840837D02*
G03X844162I1663J-1199D01*
G01X840837D02*
X834162D01*
X830837D02*
G03X834162I1663J-1199D01*
G01X830837D02*
X824162D01*
X820837D02*
G03X824162I1663J-1199D01*
G01X820837D02*
X814162D01*
X810837D02*
G03X814162I1663J-1199D01*
G01X810837D02*
X802800D01*
X802800D02*
Y914162D01*
Y910837D02*
G03Y914162I1200J1663D01*
G01Y910837D02*
Y905743D01*
Y901056D02*
G03Y905743I9000J2344D01*
G01Y901056D02*
Y893926D01*
Y890073D02*
G03Y893926I700J1927D01*
G01Y890073D02*
Y881926D01*
Y878073D02*
G03Y881926I700J1927D01*
G01Y878073D02*
Y871926D01*
Y868073D02*
G03Y871926I700J1927D01*
G01Y868073D02*
Y861926D01*
Y858073D02*
G03Y861926I700J1927D01*
G01Y858073D02*
Y851926D01*
Y848073D02*
G03Y851926I700J1927D01*
G01Y848073D02*
Y834943D01*
Y830256D02*
G03Y834943I9000J2344D01*
G01Y830256D02*
Y820162D01*
Y816837D02*
G03Y820162I1200J1663D01*
G01Y816837D02*
Y808162D01*
Y804837D02*
G03Y808162I1200J1663D01*
G01Y804837D02*
Y802800D01*
X808337*
X811662D02*
G03X808337I-1662J1200D01*
G01X811662D02*
X818337D01*
X821662D02*
G03X818337I-1662J1200D01*
G01X821662D02*
X828337D01*
X829549Y806000D02*
G03X828337Y802800I451J-2000D01*
G01X830450Y806000D02*
G03X829549I-450J2000D01*
G01X831662Y802800D02*
G03X830450Y805999I-1662J1200D01*
G01X831662Y802800D02*
X838337D01*
X841662D02*
G03X838337I-1662J1200D01*
G01X841662D02*
X848337D01*
X851662D02*
G03X848337I-1662J1200D01*
G01X851662D02*
X856837D01*
X860162D02*
G03X856837I-1662J1200D01*
G01X860162D02*
X862199D01*
X862199D02*
Y812337D01*
Y815662D02*
G03Y812337I-1199J-1662D01*
G01Y815662D02*
Y848337D01*
Y851662D02*
G03Y848337I-1199J-1662D01*
G01Y851662D02*
Y858337D01*
Y861662D02*
G03Y858337I-1199J-1662D01*
G01Y861662D02*
Y868337D01*
Y871662D02*
G03Y868337I-1199J-1662D01*
G01Y871662D02*
Y875837D01*
Y879162D02*
G03Y875837I-1199J-1662D01*
G01Y879162D02*
Y890337D01*
Y893662D02*
G03Y890337I-1199J-1662D01*
G01Y893662D02*
Y918337D01*
Y921662D02*
G03Y918337I-1199J-1662D01*
G01Y921662D02*
Y928337D01*
Y931662D02*
G03Y928337I-1199J-1662D01*
G01Y931662D02*
Y938337D01*
Y941662D02*
G03Y938337I-1199J-1662D01*
G01Y941662D02*
Y948337D01*
Y951662D02*
G03Y948337I-1199J-1662D01*
G01X860500Y832600D02*
G03X860500I-9300J0D01*
G01X854750Y863000D02*
G03X854750I-3550J0D01*
G01Y873000D02*
G03X854750I-3550J0D01*
G01X860500Y903400D02*
G03X860500I-9300J0D01*
G01X856550Y928500D02*
G03X856550I-2050J0D01*
G01Y936000D02*
G03X856550I-2050J0D01*
G01X852050Y928500D02*
G03X852050I-2050J0D01*
G01Y936000D02*
G03X852050I-2050J0D01*
G01X847550Y928500D02*
G03X847550I-2050J0D01*
G01Y936000D02*
G03X847550I-2050J0D01*
G01X838550Y816500D02*
G03X838550I-2050J0D01*
G01X841050Y832000D02*
G03X841050I-2050J0D01*
G01Y843000D02*
G03X841050I-2050J0D01*
G01X837050Y844500D02*
G03X837050I-2050J0D01*
G01Y855500D02*
G03X837050I-2050J0D01*
G01X830050Y860000D02*
G03X830050I-2050J0D01*
G01X834050Y864000D02*
G03X834050I-2050J0D01*
G01X835000Y875549D02*
G03Y876450I2000J451D01*
X834999Y875549I-2000J-450*
G01X840950Y928000D02*
G03X840049I-450J2000D01*
G01Y927999D02*
G03X840950I451J-1999D01*
G01X842050Y949500D02*
G03X842050I-2050J0D01*
G01X834550Y942500D02*
G03X834550I-2050J0D01*
G01X830050Y865000D02*
G03X830050I-2050J0D01*
G01X825550Y816500D02*
G03X825550I-2050J0D01*
G01X822050Y844500D02*
G03X822050I-2050J0D01*
G01X817050D02*
G03X817050I-2050J0D01*
G01Y854500D02*
G03X817050I-2050J0D01*
G01X811050Y844500D02*
G03X811050I-2050J0D01*
G01Y855500D02*
G03X811050I-2050J0D01*
G01X810550Y878500D02*
G03X810550I-2050J0D01*
G01Y891500D02*
G03X810550I-2050J0D01*
G01X821550Y915000D02*
G03X821550I-2050J0D01*
G01X823050Y930000D02*
G03X823050I-2050J0D01*
G01X825050Y936500D02*
G03X825050I-2050J0D01*
G01X827050Y949500D02*
G03X827050I-2050J0D01*
G01X816050Y915000D02*
G03X816050I-2050J0D01*
G01X814050Y929000D02*
G03X814050I-2050J0D01*
G01Y936500D02*
G03X814050I-2050J0D01*
G01X854267Y954538D02*
X862199D01*
X854488Y953998D02*
X862199D01*
X854549Y953458D02*
X862199D01*
X854465Y952918D02*
X862199D01*
X854216Y952378D02*
X862199D01*
X861906Y951838D02*
X862199D01*
X861658Y948058D02*
X862199D01*
X840526Y947518D02*
X862199D01*
X802800Y946978D02*
X862199D01*
X802800Y946438D02*
X862199D01*
X802800Y945898D02*
X862199D01*
X802800Y945358D02*
X862199D01*
X802800Y944818D02*
X862199D01*
X833519Y944278D02*
X862199D01*
X834133Y943738D02*
X862199D01*
X834427Y943198D02*
X862199D01*
X834543Y942658D02*
X862199D01*
X834514Y942118D02*
X862199D01*
X855483Y937798D02*
X862199D01*
X856118Y937258D02*
X862199D01*
X856419Y936718D02*
X862199D01*
X856542Y936178D02*
X862199D01*
X856517Y935638D02*
X862199D01*
X856341Y935098D02*
X862199D01*
X855957Y934558D02*
X862199D01*
X855026Y934018D02*
X862199D01*
X802800Y933478D02*
X862199D01*
X802800Y932938D02*
X862199D01*
X802800Y932398D02*
X862199D01*
X861864Y931858D02*
X862199D01*
X861715Y928078D02*
X862199D01*
X856310Y927538D02*
X862199D01*
X855895Y926998D02*
X862199D01*
X854688Y926458D02*
X862199D01*
X842548Y925918D02*
X862199D01*
X842453Y925378D02*
X862199D01*
X842189Y924838D02*
X862199D01*
X841643Y924298D02*
X862199D01*
X802800Y923758D02*
X862199D01*
X802800Y923218D02*
X862199D01*
X802800Y922678D02*
X862199D01*
X802800Y922138D02*
X862199D01*
X802800Y917818D02*
X862199D01*
X802800Y917278D02*
X862199D01*
X820586Y916738D02*
X862199D01*
X821163Y916198D02*
X862199D01*
X821441Y915658D02*
X862199D01*
X821546Y915118D02*
X862199D01*
X821506Y914578D02*
X862199D01*
X821310Y914038D02*
X862199D01*
X820895Y913498D02*
X862199D01*
X819688Y912958D02*
X862199D01*
X853470Y912418D02*
X862199D01*
X855021Y911878D02*
X862199D01*
X856044Y911338D02*
X862199D01*
X856834Y910798D02*
X862199D01*
X857480Y910258D02*
X862199D01*
X858023Y909718D02*
X862199D01*
X858486Y909178D02*
X862199D01*
X858884Y908638D02*
X862199D01*
X859225Y908098D02*
X862199D01*
X859518Y907558D02*
X862199D01*
X859767Y907018D02*
X862199D01*
X859975Y906478D02*
X862199D01*
X860146Y905938D02*
X862199D01*
X860282Y905398D02*
X862199D01*
X860384Y904858D02*
X862199D01*
X860454Y904318D02*
X862199D01*
X860492Y903778D02*
X862199D01*
X860498Y903238D02*
X862199D01*
X860473Y902698D02*
X862199D01*
X860416Y902158D02*
X862199D01*
X860327Y901618D02*
X862199D01*
X860205Y901078D02*
X862199D01*
X860048Y900538D02*
X862199D01*
X859855Y899998D02*
X862199D01*
X859623Y899458D02*
X862199D01*
X859349Y898918D02*
X862199D01*
X859027Y898378D02*
X862199D01*
X858654Y897838D02*
X862199D01*
X858218Y897298D02*
X862199D01*
X857710Y896758D02*
X862199D01*
X857109Y896218D02*
X862199D01*
X856383Y895678D02*
X862199D01*
X855471Y895138D02*
X862199D01*
X854204Y894598D02*
X862199D01*
X802800Y894058D02*
X862199D01*
X862113Y890278D02*
X862199D01*
X809549Y889738D02*
X862199D01*
X802800Y889198D02*
X862199D01*
X802800Y888658D02*
X862199D01*
X802800Y888118D02*
X862199D01*
X802800Y887578D02*
X862199D01*
X802800Y887038D02*
X862199D01*
X802800Y886498D02*
X862199D01*
X802800Y885958D02*
X862199D01*
X802800Y885418D02*
X862199D01*
X802800Y884878D02*
X862199D01*
X802800Y884338D02*
X862199D01*
X802800Y883798D02*
X862199D01*
X802800Y883258D02*
X862199D01*
X802800Y882718D02*
X862199D01*
X802800Y882178D02*
X862199D01*
X804731Y881638D02*
X862199D01*
X805230Y881098D02*
X862199D01*
X805472Y880558D02*
X862199D01*
X809876Y880018D02*
X862199D01*
X861536Y879478D02*
X862199D01*
X861978Y875698D02*
X862199D01*
X854018Y875158D02*
X862199D01*
X854359Y874618D02*
X862199D01*
X854582Y874078D02*
X862199D01*
X854708Y873538D02*
X862199D01*
X854750Y872998D02*
X862199D01*
X854708Y872458D02*
X862199D01*
X861721Y871918D02*
X862199D01*
X861859Y868138D02*
X862199D01*
X802800Y867598D02*
X862199D01*
X802800Y867058D02*
X862199D01*
X851670Y866518D02*
X862199D01*
X853131Y865978D02*
X862199D01*
X853779Y865438D02*
X862199D01*
X854199Y864898D02*
X862199D01*
X854479Y864358D02*
X862199D01*
X854654Y863818D02*
X862199D01*
X854739Y863278D02*
X862199D01*
X854740Y862738D02*
X862199D01*
X854658Y862198D02*
X862199D01*
X802800Y857878D02*
X862199D01*
X835906Y857338D02*
X862199D01*
X836586Y856798D02*
X862199D01*
X836904Y856258D02*
X862199D01*
X837038Y855718D02*
X862199D01*
X837024Y855178D02*
X862199D01*
X836860Y854638D02*
X862199D01*
X836496Y854098D02*
X862199D01*
X835658Y853558D02*
X862199D01*
X816417Y853018D02*
X862199D01*
X815342Y852478D02*
X862199D01*
X861666Y851938D02*
X862199D01*
X861901Y848158D02*
X862199D01*
X802800Y847618D02*
X862199D01*
X802800Y847078D02*
X862199D01*
X835215Y846538D02*
X862199D01*
X836398Y845998D02*
X862199D01*
X836812Y845458D02*
X862199D01*
X839721Y844918D02*
X862199D01*
X840517Y844378D02*
X862199D01*
X840870Y843838D02*
X862199D01*
X841028Y843298D02*
X862199D01*
X841035Y842758D02*
X862199D01*
X840895Y842218D02*
X862199D01*
X853216Y841678D02*
X862199D01*
X854885Y841138D02*
X862199D01*
X855944Y840598D02*
X862199D01*
X856755Y840058D02*
X862199D01*
X857414Y839518D02*
X862199D01*
X857967Y838978D02*
X862199D01*
X858438Y838438D02*
X862199D01*
X858842Y837898D02*
X862199D01*
X859190Y837358D02*
X862199D01*
X859488Y836818D02*
X862199D01*
X859741Y836278D02*
X862199D01*
X859954Y835738D02*
X862199D01*
X860129Y835198D02*
X862199D01*
X860269Y834658D02*
X862199D01*
X860375Y834118D02*
X862199D01*
X860448Y833578D02*
X862199D01*
X860489Y833038D02*
X862199D01*
X860499Y832498D02*
X862199D01*
X860477Y831958D02*
X862199D01*
X860424Y831418D02*
X862199D01*
X860339Y830878D02*
X862199D01*
X860220Y830338D02*
X862199D01*
X860068Y829798D02*
X862199D01*
X859879Y829258D02*
X862199D01*
X859651Y828718D02*
X862199D01*
X859381Y828178D02*
X862199D01*
X859066Y827638D02*
X862199D01*
X858698Y827098D02*
X862199D01*
X858270Y826558D02*
X862199D01*
X857770Y826018D02*
X862199D01*
X857181Y825478D02*
X862199D01*
X856472Y824938D02*
X862199D01*
X855585Y824398D02*
X862199D01*
X854374Y823858D02*
X862199D01*
X851789Y823318D02*
X862199D01*
X802800Y822778D02*
X862199D01*
X802800Y822238D02*
X862199D01*
X802800Y821698D02*
X862199D01*
X802800Y821158D02*
X862199D01*
X802800Y820618D02*
X862199D01*
X805307Y820078D02*
X862199D01*
X805767Y819538D02*
X862199D01*
X805988Y818998D02*
X862199D01*
X837105Y818458D02*
X862199D01*
X837979Y817918D02*
X862199D01*
X838352Y817378D02*
X862199D01*
X838521Y816838D02*
X862199D01*
X838540Y816298D02*
X862199D01*
X862053Y815758D02*
X862199D01*
X861342Y811978D02*
X862199D01*
X802800Y811438D02*
X862199D01*
X802800Y810898D02*
X862199D01*
X802800Y810358D02*
X862199D01*
X830945Y809818D02*
X862199D01*
X831602Y809278D02*
X862199D01*
X831912Y808738D02*
X862199D01*
X832040Y808198D02*
X862199D01*
X832021Y807658D02*
X862199D01*
X831850Y807118D02*
X862199D01*
X831477Y806578D02*
X862199D01*
X858715Y806038D02*
X862199D01*
X859898Y805498D02*
X862199D01*
X860312Y804958D02*
X862199D01*
X860506Y804418D02*
X862199D01*
X860546Y803878D02*
X862199D01*
X860440Y803338D02*
X862199D01*
X802800Y811978D02*
X860657D01*
X810301Y879478D02*
X860463D01*
X841457Y948058D02*
X860341D01*
X804166Y851938D02*
X860333D01*
X856506Y928078D02*
X860285D01*
X854581Y871918D02*
X860278D01*
X804359Y868138D02*
X860140D01*
X841364Y931858D02*
X860135D01*
X804401Y848158D02*
X860098D01*
X853701Y951838D02*
X860093D01*
X853506Y875698D02*
X860021D01*
X838411Y815758D02*
X859946D01*
X810146Y890278D02*
X859886D01*
X823906Y938338D02*
X859798D01*
X854486Y861658D02*
X859795D01*
X802800Y918358D02*
X859771D01*
X802800Y921598D02*
X859716D01*
X829304Y858418D02*
X859695D01*
X834331Y941578D02*
X859692D01*
X808856Y893518D02*
X859623D01*
X802800Y812518D02*
X859582D01*
X810502Y878938D02*
X859539D01*
X841841Y948598D02*
X859503D01*
X804998Y851398D02*
X859501D01*
X856546Y928618D02*
X859485D01*
X854358Y871378D02*
X859482D01*
X805067Y868678D02*
X859432D01*
X842069Y931318D02*
X859430D01*
X805084Y848698D02*
X859415D01*
X840983Y951298D02*
X859413D01*
X852653Y876238D02*
X859383D01*
X838100Y815218D02*
X859351D01*
X810433Y890818D02*
X859324D01*
X802800Y938878D02*
X859283D01*
X854210Y861118D02*
X859282D01*
X802800Y918898D02*
X859270D01*
X802800Y921058D02*
X859244D01*
X829765Y858958D02*
X859234D01*
X833937Y941038D02*
X859232D01*
X809919Y892978D02*
X859198D01*
X802800Y813058D02*
X859178D01*
X810547Y878398D02*
X859157D01*
X842017Y949138D02*
X859139D01*
X805361Y850858D02*
X859138D01*
X856441Y929158D02*
X859130D01*
X854016Y870838D02*
X859129D01*
X805395Y869218D02*
X859104D01*
X842396Y930778D02*
X859103D01*
X805403Y849238D02*
X859096D01*
X841618Y950758D02*
X859095D01*
X838896Y876778D02*
X859081D01*
X837441Y814678D02*
X859065D01*
X810545Y891358D02*
X859052D01*
X802800Y939418D02*
X859034D01*
X853796Y860578D02*
X859033D01*
X802800Y919438D02*
X859028D01*
X802800Y920518D02*
X859016D01*
X851786Y859498D02*
X859012D01*
X832944Y940498D02*
X859011D01*
X810322Y892438D02*
X858997D01*
X802800Y813598D02*
X858989D01*
X837864Y877858D02*
X858981D01*
X842042Y949678D02*
X858975D01*
X805525Y850318D02*
X858974D01*
X856163Y929698D02*
X858972D01*
X853503Y870298D02*
X858971D01*
X852647Y869758D02*
X858964D01*
X855586Y930238D02*
X858963D01*
X805538Y849778D02*
X858961D01*
X841919Y950218D02*
X858961D01*
X838569Y877318D02*
X858958D01*
X802800Y814138D02*
X858954D01*
X810510Y891898D02*
X858952D01*
X802800Y939958D02*
X858950D01*
X853157Y860038D02*
X858950D01*
X802800Y919978D02*
X858950D01*
X850215Y806038D02*
X858284D01*
X851398Y805498D02*
X857101D01*
X851812Y804958D02*
X856687D01*
X851940Y803338D02*
X856559D01*
X852006Y804418D02*
X856493D01*
X852046Y803878D02*
X856453D01*
X850188Y926458D02*
X854311D01*
X850526Y934018D02*
X853973D01*
X850983Y937798D02*
X853516D01*
X851086Y930238D02*
X853413D01*
X851395Y926998D02*
X853104D01*
X851457Y934558D02*
X853042D01*
X851618Y937258D02*
X852881D01*
X851663Y929698D02*
X852836D01*
X851810Y927538D02*
X852689D01*
X851841Y935098D02*
X852658D01*
X851919Y936718D02*
X852580D01*
X851941Y929158D02*
X852558D01*
X852006Y928078D02*
X852493D01*
X852017Y935638D02*
X852482D01*
X852042Y936178D02*
X852457D01*
X852046Y928618D02*
X852453D01*
X843701Y951838D02*
X851298D01*
X844216Y952378D02*
X850783D01*
X844267Y954538D02*
X850732D01*
X829376Y866518D02*
X850729D01*
X829987Y859498D02*
X850613D01*
X812389Y823318D02*
X850610D01*
X844465Y952918D02*
X850534D01*
X844488Y953998D02*
X850511D01*
X844549Y953458D02*
X850450D01*
X845688Y926458D02*
X849811D01*
X840215Y806038D02*
X849784D01*
X805535Y869758D02*
X849752D01*
X839036Y876238D02*
X849746D01*
X846026Y934018D02*
X849473D01*
X832536Y865978D02*
X849268D01*
X830049Y860038D02*
X849242D01*
X840567Y841678D02*
X849183D01*
X846483Y937798D02*
X849016D01*
X814070Y912418D02*
X848929D01*
X846586Y930238D02*
X848913D01*
X805528Y870298D02*
X848896D01*
X839027Y875698D02*
X848893D01*
X833460Y865438D02*
X848620D01*
X846895Y926998D02*
X848604D01*
X829966Y860578D02*
X848603D01*
X841398Y805498D02*
X848601D01*
X846957Y934558D02*
X848542D01*
X805370Y870838D02*
X848383D01*
X847118Y937258D02*
X848381D01*
X838869Y875158D02*
X848381D01*
X847163Y929698D02*
X848336D01*
X833842Y864898D02*
X848200D01*
X814804Y894598D02*
X848195D01*
X829717Y861118D02*
X848189D01*
X847310Y927538D02*
X848189D01*
X841812Y804958D02*
X848187D01*
X847341Y935098D02*
X848158D01*
X847419Y936718D02*
X848080D01*
X841940Y803338D02*
X848059D01*
X847441Y929158D02*
X848058D01*
X805017Y871378D02*
X848041D01*
X838514Y874618D02*
X848040D01*
X814974Y823858D02*
X848025D01*
X847506Y928078D02*
X847993D01*
X842006Y804418D02*
X847993D01*
X847517Y935638D02*
X847982D01*
X847542Y936178D02*
X847957D01*
X842046Y803878D02*
X847953D01*
X847546Y928618D02*
X847953D01*
X834018Y864358D02*
X847920D01*
X829204Y861658D02*
X847913D01*
X804221Y871918D02*
X847818D01*
X837715Y874078D02*
X847817D01*
X834041Y863818D02*
X847745D01*
X832978Y862198D02*
X847741D01*
X802800Y872458D02*
X847691D01*
X802800Y873538D02*
X847691D01*
X833918Y863278D02*
X847660D01*
X833616Y862738D02*
X847659D01*
X802800Y872998D02*
X847649D01*
X839859Y841138D02*
X847514D01*
X815621Y911878D02*
X847378D01*
X816071Y895138D02*
X846928D01*
X816185Y824398D02*
X846814D01*
X816544Y840598D02*
X846455D01*
X816644Y911338D02*
X846355D01*
X816983Y895678D02*
X846016D01*
X817072Y824938D02*
X845927D01*
X817355Y840058D02*
X845644D01*
X817434Y910798D02*
X845565D01*
X842498Y926458D02*
X845311D01*
X817709Y896218D02*
X845290D01*
X817781Y825478D02*
X845218D01*
X818014Y839518D02*
X844985D01*
X802800Y934018D02*
X844973D01*
X818080Y910258D02*
X844919D01*
X818310Y896758D02*
X844689D01*
X818370Y826018D02*
X844629D01*
X824586Y937798D02*
X844516D01*
X818567Y838978D02*
X844432D01*
X842536Y930238D02*
X844413D01*
X818623Y909718D02*
X844376D01*
X818818Y897298D02*
X844181D01*
X818870Y826558D02*
X844129D01*
X842290Y926998D02*
X844104D01*
X823658Y934558D02*
X844042D01*
X819038Y838438D02*
X843961D01*
X819086Y909178D02*
X843913D01*
X824904Y937258D02*
X843881D01*
X842527Y929698D02*
X843836D01*
X819254Y897838D02*
X843745D01*
X819298Y827098D02*
X843701D01*
X841854Y927538D02*
X843689D01*
X824496Y935098D02*
X843658D01*
X825038Y936718D02*
X843580D01*
X842369Y929158D02*
X843558D01*
X819442Y837898D02*
X843557D01*
X819484Y908638D02*
X843515D01*
X841215Y928078D02*
X843493D01*
X824860Y935638D02*
X843482D01*
X825024Y936178D02*
X843457D01*
X842014Y928618D02*
X843453D01*
X819627Y898378D02*
X843372D01*
X819666Y827638D02*
X843333D01*
X819790Y837358D02*
X843209D01*
X819825Y908098D02*
X843174D01*
X819949Y898918D02*
X843050D01*
X819981Y828178D02*
X843018D01*
X820088Y836818D02*
X842911D01*
X820118Y907558D02*
X842881D01*
X820223Y899458D02*
X842776D01*
X820251Y828718D02*
X842748D01*
X820341Y836278D02*
X842658D01*
X820367Y907018D02*
X842632D01*
X820455Y899998D02*
X842544D01*
X820479Y829258D02*
X842520D01*
X820554Y835738D02*
X842445D01*
X820575Y906478D02*
X842424D01*
X820648Y900538D02*
X842351D01*
X820668Y829798D02*
X842331D01*
X820729Y835198D02*
X842270D01*
X820746Y905938D02*
X842253D01*
X820805Y901078D02*
X842194D01*
X840201Y830338D02*
X842179D01*
X820869Y834658D02*
X842130D01*
X820882Y905398D02*
X842117D01*
X820927Y901618D02*
X842072D01*
X840716Y830878D02*
X842060D01*
X820975Y834118D02*
X842024D01*
X820984Y904858D02*
X842015D01*
X821016Y902158D02*
X841983D01*
X840965Y831418D02*
X841975D01*
X840307Y833578D02*
X841951D01*
X821054Y904318D02*
X841945D01*
X821073Y902698D02*
X841926D01*
X841049Y831958D02*
X841922D01*
X840767Y833038D02*
X841910D01*
X821092Y903778D02*
X841907D01*
X821098Y903238D02*
X841901D01*
X840988Y832498D02*
X841900D01*
X833701Y951838D02*
X841298D01*
X834216Y952378D02*
X840783D01*
X834267Y954538D02*
X840732D01*
X834465Y952918D02*
X840534D01*
X834488Y953998D02*
X840511D01*
X834549Y953458D02*
X840450D01*
X821715Y928078D02*
X839785D01*
X830596Y806038D02*
X839784D01*
X821864Y931858D02*
X839635D01*
X825526Y947518D02*
X839473D01*
X802800Y924298D02*
X839356D01*
X813437Y927538D02*
X839145D01*
X825983Y951298D02*
X839016D01*
X822514Y928618D02*
X838985D01*
X822569Y931318D02*
X838930D01*
X802800Y924838D02*
X838810D01*
X812444Y926998D02*
X838709D01*
X822869Y929158D02*
X838630D01*
X822896Y930778D02*
X838603D01*
X831398Y805498D02*
X838601D01*
X802800Y925378D02*
X838546D01*
X826457Y948058D02*
X838542D01*
X802800Y926458D02*
X838501D01*
X823027Y929698D02*
X838472D01*
X823036Y930238D02*
X838463D01*
X802800Y925918D02*
X838451D01*
X826618Y950758D02*
X838381D01*
X837006Y844918D02*
X838278D01*
X831812Y804958D02*
X838187D01*
X826841Y948598D02*
X838158D01*
X815485Y841138D02*
X838140D01*
X826919Y950218D02*
X838080D01*
X831940Y803338D02*
X838059D01*
X832006Y804418D02*
X837993D01*
X827017Y949138D02*
X837982D01*
X827042Y949678D02*
X837957D01*
X832046Y803878D02*
X837953D01*
X820820Y830338D02*
X837798D01*
X821048Y833578D02*
X837692D01*
X837046Y844378D02*
X837482D01*
X813816Y841678D02*
X837432D01*
X820939Y830878D02*
X837283D01*
X821089Y833038D02*
X837232D01*
X836940Y843838D02*
X837129D01*
X802800Y842218D02*
X837104D01*
X821024Y831418D02*
X837034D01*
X821099Y832498D02*
X837011D01*
X836661Y843298D02*
X836971D01*
X836081Y842758D02*
X836964D01*
X821077Y831958D02*
X836950D01*
X833715Y874078D02*
X836285D01*
X833864Y877858D02*
X836135D01*
X824105Y818458D02*
X835894D01*
X824441Y814678D02*
X835558D01*
X834514Y874618D02*
X835485D01*
X834569Y877318D02*
X835430D01*
X834869Y875158D02*
X835130D01*
X834896Y876778D02*
X835103D01*
X824979Y817918D02*
X835020D01*
X825100Y815218D02*
X834899D01*
X820215Y846538D02*
X834784D01*
X825352Y817378D02*
X834647D01*
X825411Y815758D02*
X834588D01*
X825521Y816838D02*
X834478D01*
X825540Y816298D02*
X834459D01*
X816821Y853558D02*
X834341D01*
X809906Y857338D02*
X834093D01*
X821081Y842758D02*
X833918D01*
X821398Y845998D02*
X833601D01*
X817010Y854098D02*
X833503D01*
X810586Y856798D02*
X833413D01*
X821661Y843298D02*
X833338D01*
X821812Y845458D02*
X833187D01*
X817045Y854638D02*
X833139D01*
X816053Y856258D02*
X833095D01*
X821940Y843838D02*
X833059D01*
X822006Y844918D02*
X832993D01*
X816934Y855178D02*
X832975D01*
X816648Y855718D02*
X832961D01*
X822046Y844378D02*
X832953D01*
X802800Y874078D02*
X832285D01*
X810447Y877858D02*
X832135D01*
X802800Y940498D02*
X832055D01*
X802800Y874618D02*
X831485D01*
X802800Y944278D02*
X831480D01*
X829801Y865978D02*
X831463D01*
X810175Y877318D02*
X831430D01*
X823701Y951838D02*
X831298D01*
X802800Y875158D02*
X831130D01*
X809613Y876778D02*
X831103D01*
X802800Y941038D02*
X831062D01*
X802800Y862198D02*
X831021D01*
X802800Y875698D02*
X830972D01*
X802800Y876238D02*
X830963D01*
X802800Y943738D02*
X830866D01*
X824216Y952378D02*
X830783D01*
X824267Y954538D02*
X830732D01*
X802800Y941578D02*
X830668D01*
X802800Y943198D02*
X830572D01*
X830002Y865438D02*
X830539D01*
X824465Y952918D02*
X830534D01*
X824488Y953998D02*
X830511D01*
X802800Y942118D02*
X830485D01*
X802800Y942658D02*
X830456D01*
X824549Y953458D02*
X830450D01*
X802800Y862738D02*
X830383D01*
X830047Y864898D02*
X830157D01*
X829113Y863278D02*
X830081D01*
X829947Y864358D02*
X829981D01*
X829675Y863818D02*
X829958D01*
X820215Y806038D02*
X829403D01*
X802800Y809818D02*
X829054D01*
X821398Y805498D02*
X828601D01*
X806048Y806578D02*
X828522D01*
X802800Y809278D02*
X828397D01*
X821812Y804958D02*
X828187D01*
X805954Y807118D02*
X828149D01*
X802800Y808738D02*
X828087D01*
X821940Y803338D02*
X828059D01*
X822006Y804418D02*
X827993D01*
X805691Y807658D02*
X827978D01*
X805147Y808198D02*
X827959D01*
X822046Y803878D02*
X827953D01*
X802800Y863278D02*
X826886D01*
X804704Y861658D02*
X826795D01*
X804804Y858418D02*
X826695D01*
X802800Y866518D02*
X826623D01*
X802800Y863818D02*
X826324D01*
X805217Y861118D02*
X826282D01*
X805265Y858958D02*
X826234D01*
X802800Y865978D02*
X826198D01*
X802800Y864358D02*
X826052D01*
X805466Y860578D02*
X826033D01*
X805487Y859498D02*
X826012D01*
X802800Y865438D02*
X825997D01*
X802800Y864898D02*
X825952D01*
X805549Y860038D02*
X825950D01*
X802800Y947518D02*
X824473D01*
X802800Y951298D02*
X824016D01*
X802800Y948058D02*
X823542D01*
X802800Y950758D02*
X823381D01*
X802800Y948598D02*
X823158D01*
X802800Y950218D02*
X823080D01*
X802800Y949138D02*
X822982D01*
X802800Y949678D02*
X822957D01*
X806049Y818458D02*
X822894D01*
X802800Y814678D02*
X822558D01*
X812658Y934558D02*
X822341D01*
X812906Y938338D02*
X822093D01*
X805965Y817918D02*
X822020D01*
X802800Y815218D02*
X821899D01*
X805716Y817378D02*
X821647D01*
X802800Y815758D02*
X821588D01*
X813496Y935098D02*
X821503D01*
X805201Y816838D02*
X821478D01*
X802800Y816298D02*
X821459D01*
X813586Y937798D02*
X821413D01*
X813701Y951838D02*
X821298D01*
X813860Y935638D02*
X821139D01*
X813904Y937258D02*
X821095D01*
X814024Y936178D02*
X820975D01*
X814038Y936718D02*
X820961D01*
X814216Y952378D02*
X820783D01*
X814267Y954538D02*
X820732D01*
X814465Y952918D02*
X820534D01*
X814488Y953998D02*
X820511D01*
X814549Y953458D02*
X820450D01*
X813831Y928078D02*
X820285D01*
X802800Y931858D02*
X820135D01*
X815215Y846538D02*
X819784D01*
X810215Y806038D02*
X819784D01*
X814014Y928618D02*
X819485D01*
X802800Y931318D02*
X819430D01*
X814188Y912958D02*
X819311D01*
X814043Y929158D02*
X819130D01*
X813019Y930778D02*
X819103D01*
X813927Y929698D02*
X818972D01*
X813633Y930238D02*
X818963D01*
X816081Y842758D02*
X818918D01*
X816398Y845998D02*
X818601D01*
X811398Y805498D02*
X818601D01*
X815086Y916738D02*
X818413D01*
X816661Y843298D02*
X818338D01*
X816812Y845458D02*
X818187D01*
X811812Y804958D02*
X818187D01*
X815395Y913498D02*
X818104D01*
X816940Y843838D02*
X818059D01*
X811940Y803338D02*
X818059D01*
X817006Y844918D02*
X817993D01*
X812006Y804418D02*
X817993D01*
X817046Y844378D02*
X817953D01*
X812046Y803878D02*
X817953D01*
X815663Y916198D02*
X817836D01*
X815810Y914038D02*
X817689D01*
X815941Y915658D02*
X817558D01*
X816006Y914578D02*
X817493D01*
X816046Y915118D02*
X817453D01*
X809215Y846538D02*
X814784D01*
X802800Y852478D02*
X814657D01*
X810904Y856258D02*
X813946D01*
X810081Y842758D02*
X813918D01*
X805998Y912958D02*
X813811D01*
X810398Y845998D02*
X813601D01*
X802800Y853018D02*
X813582D01*
X811038Y855718D02*
X813351D01*
X810661Y843298D02*
X813338D01*
X810812Y845458D02*
X813187D01*
X809658Y853558D02*
X813178D01*
X811024Y855178D02*
X813065D01*
X810940Y843838D02*
X813059D01*
X811006Y844918D02*
X812993D01*
X810496Y854098D02*
X812989D01*
X810860Y854638D02*
X812954D01*
X811046Y844378D02*
X812953D01*
X802800Y916738D02*
X812913D01*
X805790Y913498D02*
X812604D01*
X802800Y916198D02*
X812336D01*
X805354Y914038D02*
X812189D01*
X802800Y915658D02*
X812058D01*
X802800Y914578D02*
X811993D01*
X802800Y915118D02*
X811953D01*
X802800Y926998D02*
X811555D01*
X802800Y934558D02*
X811341D01*
X802800Y951838D02*
X811298D01*
X802800Y823318D02*
X811210D01*
X802800Y938338D02*
X811093D01*
X802800Y930778D02*
X810980D01*
X802800Y952378D02*
X810783D01*
X802800Y954538D02*
X810732D01*
X802800Y927538D02*
X810562D01*
X802800Y952918D02*
X810534D01*
X802800Y953998D02*
X810511D01*
X802800Y935098D02*
X810503D01*
X802800Y953458D02*
X810450D01*
X802800Y937798D02*
X810413D01*
X802800Y930238D02*
X810366D01*
X802800Y928078D02*
X810168D01*
X802800Y935638D02*
X810139D01*
X802800Y937258D02*
X810095D01*
X802800Y929698D02*
X810072D01*
X802800Y928618D02*
X809985D01*
X802800Y936178D02*
X809975D01*
X802800Y936718D02*
X809961D01*
X802800Y929158D02*
X809956D01*
X805997Y806038D02*
X809784D01*
X802800Y841678D02*
X809783D01*
X806048Y912418D02*
X809529D01*
X802800Y894598D02*
X808795D01*
X802800Y846538D02*
X808784D01*
X802800Y823858D02*
X808625D01*
X805788Y805498D02*
X808601D01*
X802800Y853558D02*
X808341D01*
X805351Y804958D02*
X808187D01*
X804876Y893518D02*
X808143D01*
X802800Y841138D02*
X808114D01*
X802800Y857338D02*
X808093D01*
X802800Y803338D02*
X808059D01*
X802800Y804418D02*
X807993D01*
X805953Y911878D02*
X807978D01*
X802800Y803878D02*
X807953D01*
X802800Y842758D02*
X807918D01*
X802800Y845998D02*
X807601D01*
X802800Y895138D02*
X807528D01*
X802800Y854098D02*
X807503D01*
X802800Y889738D02*
X807450D01*
X802800Y824398D02*
X807414D01*
X802800Y856798D02*
X807413D01*
X802800Y876778D02*
X807386D01*
X802800Y843298D02*
X807338D01*
X802800Y845458D02*
X807187D01*
X802800Y854638D02*
X807139D01*
X805549Y880018D02*
X807123D01*
X802800Y856258D02*
X807095D01*
X805301Y892978D02*
X807080D01*
X802800Y843838D02*
X807059D01*
X802800Y840598D02*
X807055D01*
X802800Y844918D02*
X806993D01*
X802800Y855178D02*
X806975D01*
X802800Y855718D02*
X806961D01*
X805689Y911338D02*
X806955D01*
X802800Y844378D02*
X806953D01*
X804613Y890278D02*
X806853D01*
X802800Y877318D02*
X806824D01*
X805482Y879478D02*
X806698D01*
X805502Y892438D02*
X806677D01*
X802800Y895678D02*
X806616D01*
X805175Y890818D02*
X806566D01*
X802800Y877858D02*
X806552D01*
X802800Y824938D02*
X806527D01*
X805253Y878938D02*
X806497D01*
X805547Y891898D02*
X806489D01*
X805447Y891358D02*
X806454D01*
X804780Y878398D02*
X806452D01*
X802800Y840058D02*
X806244D01*
X805143Y910798D02*
X806165D01*
X802800Y896218D02*
X805890D01*
X802800Y825478D02*
X805818D01*
X802800Y839518D02*
X805585D01*
X802800Y910258D02*
X805519D01*
X802800Y896758D02*
X805289D01*
X802800Y826018D02*
X805229D01*
X802800Y838978D02*
X805032D01*
X802800Y909718D02*
X804976D01*
X802800Y897298D02*
X804781D01*
X802800Y826558D02*
X804729D01*
X802800Y838438D02*
X804561D01*
X802800Y909178D02*
X804513D01*
X802800Y897838D02*
X804345D01*
X802800Y827098D02*
X804301D01*
X802800Y837898D02*
X804157D01*
X802800Y908638D02*
X804115D01*
X802800Y898378D02*
X803972D01*
X802800Y827638D02*
X803933D01*
X802800Y837358D02*
X803809D01*
X802800Y908098D02*
X803774D01*
X802800Y898918D02*
X803650D01*
X802800Y828178D02*
X803618D01*
X802800Y836818D02*
X803511D01*
X802800Y907558D02*
X803481D01*
X802800Y899458D02*
X803376D01*
X802800Y828718D02*
X803348D01*
X802800Y836278D02*
X803258D01*
X802800Y907018D02*
X803232D01*
X802800Y899998D02*
X803144D01*
X802800Y829258D02*
X803120D01*
X802800Y835738D02*
X803045D01*
X802800Y906478D02*
X803024D01*
X802800Y900538D02*
X802951D01*
X802800Y829798D02*
X802931D01*
X802800Y835198D02*
X802870D01*
X802800Y910798D02*
X802856D01*
X802800Y905938D02*
X802853D01*
X802800Y808198D02*
X802852D01*
X802800Y851938D02*
X802833D01*
G74*
X0Y0D02*
M02*
