*
*
G04 PADS Layout (Build Number 2005.103.1) generated Gerber (RS-274-X) file*
G04 PC Version=2.1*
*
%IN "7748.pcb"*%
*
%MOIN*%
*
%FSLAX35Y35*%
*
*
*
*
G04 PC Standard Apertures*
*
*
G04 Thermal Relief Aperture macro.*
%AMTER*
1,1,$1,0,0*
1,0,$1-$2,0,0*
21,0,$3,$4,0,0,45*
21,0,$3,$4,0,0,135*
%
*
*
G04 Annular Aperture macro.*
%AMANN*
1,1,$1,0,0*
1,0,$2,0,0*
%
*
*
G04 Odd Aperture macro.*
%AMODD*
1,1,$1,0,0*
1,0,$1-0.005,0,0*
%
*
*
G04 PC Custom Aperture Macros*
*
*
*
*
*
*
G04 PC Aperture Table*
*
%ADD015C,0.06*%
%ADD030C,0.04*%
%ADD032C,0.02*%
%ADD052C,0.01*%
%ADD053C,0.02*%
%ADD058C,0.025*%
%ADD074R,0.045X0.071*%
%ADD146R,0.135X0.1*%
%ADD147R,0.036X0.038*%
%ADD171C,0.16*%
%ADD172R,0.11X0.064*%
%ADD173R,0.08X0.09*%
%ADD180R,0.064X0.11*%
*
*
*
*
G04 PC Custom Flashes*
G04 Layer Name 7748.pcb - flashes*
%LPD*%
*
*
G04 PC Circuitry*
G04 Layer Name 7748.pcb - circuitry*
%LPD*%
*
G54D15*
G01X851200Y863000D03*
Y873000D03*
G54D30*
X810000Y810000D03*
X850000Y815000D03*
G54D32*
X810000Y804000D03*
X830000D03*
X820000D03*
X850000D03*
X840000D03*
X858500D03*
X804000Y806500D03*
Y818500D03*
X830000Y808000D03*
X823500Y816500D03*
X836500D03*
X861000Y814000D03*
X815000Y844500D03*
X809000D03*
X820000D03*
X835000D03*
X823500Y828500D03*
X830000Y832500D03*
X839000Y843000D03*
Y832000D03*
X836500Y828500D03*
X803500Y850000D03*
Y860000D03*
X809000Y855500D03*
X815000Y854500D03*
X828000Y860000D03*
Y865000D03*
X832000Y864000D03*
X835000Y855500D03*
X861000Y860000D03*
Y850000D03*
X803500Y870000D03*
Y880000D03*
X815000Y879000D03*
X808500Y878500D03*
X833000Y876000D03*
X837000D03*
X861000Y877500D03*
Y870000D03*
X803500Y892000D03*
X808500Y891500D03*
X823500D03*
X820000D03*
X835000Y898000D03*
X861000Y892000D03*
X804000Y912500D03*
X814000Y915000D03*
X828500Y911000D03*
X832500D03*
X819500Y915000D03*
X840500Y921500D03*
Y926000D03*
Y917000D03*
X836500Y911000D03*
X861000Y920000D03*
X812000Y936500D03*
Y929000D03*
X823000Y936500D03*
X821000Y930000D03*
X832500Y942500D03*
X840500Y930000D03*
X854500Y928500D03*
X845500D03*
X850000D03*
X854500Y936000D03*
X845500D03*
X850000D03*
X861000Y940000D03*
Y930000D03*
X812500Y953500D03*
X832500D03*
X822500D03*
X825000Y949500D03*
X852500Y953500D03*
X842500D03*
X840000Y949500D03*
X861000Y950000D03*
G54D52*
X800000Y800000D02*
X865000D01*
Y957500*
X800000*
Y800000*
G54D53*
X884000Y792812D02*
Y781000D01*
Y792812D02*
X879909D01*
X879909D02*
X878545Y792250D01*
X878090Y791687*
X878090D02*
X877636Y790562D01*
X877636D02*
Y789437D01*
X877636D02*
X878090Y788312D01*
X878090D02*
X878545Y787750D01*
X879909Y787187*
X884000D02*
X879909D01*
X879909D02*
X878545Y786625D01*
X878090Y786062*
X878090D02*
X877636Y784937D01*
X877636D02*
Y783250D01*
X878090Y782125*
X878090D02*
X878545Y781562D01*
X878545D02*
X879909Y781000D01*
X884000*
X870818Y792812D02*
X871727Y792250D01*
X872636Y791125*
X873090Y790000*
X873090D02*
X873545Y788312D01*
X873545D02*
Y785500D01*
X873090Y783812*
X873090D02*
X872636Y782687D01*
X872636D02*
X871727Y781562D01*
X871727D02*
X870818Y781000D01*
X869000*
X868090Y781562*
X868090D02*
X867181Y782687D01*
X867181D02*
X866727Y783812D01*
X866727D02*
X866272Y785500D01*
X866272D02*
Y788312D01*
X866272D02*
X866727Y790000D01*
X867181Y791125*
X867181D02*
X868090Y792250D01*
X868090D02*
X869000Y792812D01*
X869000D02*
X870818D01*
X859000D02*
Y781000D01*
X862181Y792812D02*
X855818D01*
X848545D02*
Y781000D01*
X851727Y792812D02*
X845363D01*
X838545D02*
X839454Y792250D01*
X839454D02*
X840363Y791125D01*
X840363D02*
X840818Y790000D01*
X841272Y788312*
X841272D02*
Y785500D01*
X841272D02*
X840818Y783812D01*
X840818D02*
X840363Y782687D01*
X840363D02*
X839454Y781562D01*
X839454D02*
X838545Y781000D01*
X836727*
X835818Y781562*
X835818D02*
X834909Y782687D01*
X834909D02*
X834454Y783812D01*
X834454D02*
X834000Y785500D01*
Y788312*
X834000D02*
X834454Y790000D01*
X834454D02*
X834909Y791125D01*
X835818Y792250*
X836727Y792812*
X836727D02*
X838545D01*
X829909D02*
Y781000D01*
Y792812D02*
X826272Y781000D01*
X822636Y792812D02*
X826272Y781000D01*
X822636Y792812D02*
Y781000D01*
X801727Y791125D02*
X802636Y792250D01*
X804000Y792812*
X804000D02*
X805818D01*
X805818D02*
X807181Y792250D01*
X807181D02*
X808090Y791125D01*
X808090D02*
Y790000D01*
X808090D02*
X807636Y788875D01*
X807181Y788312*
X807181D02*
X806272Y787750D01*
X806272D02*
X803545Y786625D01*
X802636Y786062*
X802636D02*
X802181Y785500D01*
X802181D02*
X801727Y784375D01*
Y782687*
X801727D02*
X802636Y781562D01*
X802636D02*
X804000Y781000D01*
X805818*
X807181Y781562*
X807181D02*
X808090Y782687D01*
X797636Y792812D02*
Y781000D01*
X793545Y792812D02*
Y781000D01*
Y792812D02*
X790363D01*
X790363D02*
X789000Y792250D01*
X788090Y791125*
X788090D02*
X787636Y790000D01*
X787181Y788312*
X787181D02*
Y785500D01*
X787181D02*
X787636Y783812D01*
X787636D02*
X788090Y782687D01*
X788090D02*
X789000Y781562D01*
X789000D02*
X790363Y781000D01*
X790363D02*
X793545D01*
X783090Y792812D02*
Y781000D01*
Y792812D02*
X777181D01*
X783090Y787187D02*
X779454D01*
X783090Y781000D02*
X777181D01*
X831909Y767812D02*
X836909D01*
X836909D02*
X834181Y763312D01*
X834181D02*
X835545D01*
X835545D02*
X836454Y762750D01*
X836454D02*
X836909Y762187D01*
X836909D02*
X837363Y760500D01*
X837363D02*
Y759375D01*
X837363D02*
X836909Y757687D01*
X836909D02*
X836000Y756562D01*
X836000D02*
X834636Y756000D01*
X833272*
X833272D02*
X831909Y756562D01*
X831909D02*
X831454Y757125D01*
X831454D02*
X831000Y758250D01*
X841454Y765562D02*
X842363Y766125D01*
X842363D02*
X843727Y767812D01*
X843727D02*
Y756000D01*
X847818Y761062D02*
X856000D01*
X862818Y767812D02*
X861454Y767250D01*
X861454D02*
X860545Y765562D01*
X860545D02*
X860090Y762750D01*
X860090D02*
Y761062D01*
X860090D02*
X860545Y758250D01*
X861454Y756562*
X861454D02*
X862818Y756000D01*
X863727*
X865090Y756562*
X865090D02*
X866000Y758250D01*
X866454Y761062*
X866454D02*
Y762750D01*
X866454D02*
X866000Y765562D01*
X866000D02*
X865090Y767250D01*
X865090D02*
X863727Y767812D01*
X863727D02*
X862818D01*
X873272D02*
X871909Y767250D01*
X871000Y765562*
X871000D02*
X870545Y762750D01*
Y761062*
X870545D02*
X871000Y758250D01*
X871909Y756562*
X871909D02*
X873272Y756000D01*
X873272D02*
X874181D01*
X874181D02*
X875545Y756562D01*
X875545D02*
X876454Y758250D01*
X876454D02*
X876909Y761062D01*
X876909D02*
Y762750D01*
X876454Y765562*
X876454D02*
X875545Y767250D01*
X874181Y767812*
X874181D02*
X873272D01*
X883727D02*
X882363Y767250D01*
X882363D02*
X881454Y765562D01*
X881454D02*
X881000Y762750D01*
Y761062*
X881000D02*
X881454Y758250D01*
X881454D02*
X882363Y756562D01*
X882363D02*
X883727Y756000D01*
X884636*
X886000Y756562*
X886000D02*
X886909Y758250D01*
X887363Y761062*
X887363D02*
Y762750D01*
X887363D02*
X886909Y765562D01*
X886909D02*
X886000Y767250D01*
X884636Y767812*
X884636D02*
X883727D01*
X891909Y765000D02*
Y765562D01*
X891909D02*
X892363Y766687D01*
X892363D02*
X892818Y767250D01*
X893727Y767812*
X893727D02*
X895545D01*
X895545D02*
X896454Y767250D01*
X896454D02*
X896909Y766687D01*
X896909D02*
X897363Y765562D01*
X897363D02*
Y764437D01*
X897363D02*
X896909Y763312D01*
X896909D02*
X896000Y761625D01*
X891454Y756000*
X891454D02*
X897818D01*
X912363Y767812D02*
Y756000D01*
Y767812D02*
X916454D01*
X916454D02*
X917818Y767250D01*
X918272Y766687*
X918272D02*
X918727Y765562D01*
X918727D02*
Y764437D01*
X918727D02*
X918272Y763312D01*
X918272D02*
X917818Y762750D01*
X916454Y762187*
X916454D02*
X912363D01*
X915545D02*
X918727Y756000D01*
X922818Y767812D02*
Y756000D01*
Y767812D02*
X928727D01*
X922818Y762187D02*
X926454D01*
X922818Y756000D02*
X928727D01*
X932818Y767812D02*
X936454Y756000D01*
X940090Y767812D02*
X936454Y756000D01*
X954636Y765562D02*
X955545Y766125D01*
X956909Y767812*
X956909D02*
Y756000D01*
X803500Y850000D02*
Y843500D01*
X811800Y832600*
X803500Y860000D02*
Y850000D01*
Y880000D02*
Y870000D01*
Y860000*
Y880000D02*
Y892000D01*
X811800Y903400*
G54D58*
X810000Y804000D02*
X820000D01*
X840000D02*
X830000D01*
X820000*
X858500D02*
X850000D01*
X840000*
X858500D02*
X861000Y806500D01*
Y814000*
X804000Y818500D02*
Y806500D01*
X806500Y804000*
X810000*
X804000Y818500D02*
Y823500D01*
X811800Y832600*
X861000Y814000D02*
Y821500D01*
X815000Y850000D02*
Y844500D01*
X820000*
X809000Y855500D02*
Y844500D01*
X809192Y850000*
X820000Y844500D02*
Y850000D01*
X820807*
X851200Y832600D02*
X861000Y843000D01*
Y850000*
X851200Y832600D02*
X861000Y821500D01*
X815000Y854500D02*
Y850000D01*
X820807*
X809000Y855500D02*
Y868000D01*
X828000Y865000D02*
X820905D01*
X820905D02*
X821905Y862500D01*
X828000Y860000D02*
X820905D01*
X820905D02*
X821905Y862500D01*
X861000Y870000D02*
Y860000D01*
Y850000*
X809000Y868000D02*
Y862500D01*
X810094*
X809000Y868000D02*
Y872500D01*
X809448*
X815000Y879000D02*
Y872500D01*
X815551*
X808500Y878500D02*
Y885000D01*
X810094*
X821905D02*
X823500D01*
Y891500*
X861000Y892000D02*
Y877500D01*
Y870000*
X808500Y891500D02*
Y885000D01*
X820000Y891500D02*
Y885000D01*
X821905*
X861000Y893600D02*
X851200Y903400D01*
X861000Y913200*
Y920000*
Y892000D02*
Y893600D01*
X804000Y912500D02*
X811800Y903400D01*
X804000Y950000D02*
Y923000D01*
Y922500*
X806988*
X804000Y923000D02*
Y912500D01*
X814000Y915000D02*
X816500Y919000D01*
X819500*
X828500Y926000D02*
Y928011D01*
X828500D02*
X832500D01*
X828500Y926000D02*
X840500D01*
X828500Y911000D02*
Y916988D01*
X832500*
X819500Y919000D02*
Y915000D01*
X818011Y922500D02*
X819500D01*
Y919000*
X832500Y911000D02*
Y916988D01*
X835500*
X840500Y921500D02*
X850000D01*
Y919901*
X835500Y916988D02*
X836500D01*
Y911000*
X835500Y916988D02*
X835511Y917000D01*
X835511D02*
X840500D01*
X850000*
Y919901*
X840500Y917000D02*
Y921500D01*
X861000Y920000D02*
Y930000D01*
X812000Y936500D02*
X816500D01*
X812000Y929000D02*
X816500Y933500D01*
Y936500*
X828500Y930000D02*
Y928011D01*
X828500D02*
X832500D01*
X828500Y930000D02*
X840500D01*
X823000Y936500D02*
X821000D01*
Y930000*
X816500Y936500D02*
Y938000D01*
X818011*
X818011D02*
Y937500D01*
X818011D02*
Y936500D01*
X818011D02*
X821000D01*
X845500Y936000D02*
Y945098D01*
X850000*
Y936000D02*
Y945098D01*
X854500*
Y936000*
X861000Y930000D02*
Y940000D01*
X812500Y953500D02*
X822500D01*
X804000Y950000D02*
Y937500D01*
X806988*
X804000Y950000D02*
X807500Y953500D01*
X812500*
X842500D02*
X832500D01*
X822500*
X852500D02*
X857500D01*
X861000Y950000*
X842500Y953500D02*
X852500D01*
X861000Y950000D02*
Y940000D01*
G54D74*
X820807Y850000D03*
X809192D03*
G54D146*
X850000Y919901D03*
Y945098D03*
G54D147*
X815551Y872500D03*
X809448D03*
G54D171*
X811800Y832600D03*
X851200D03*
Y903400D03*
X811800D03*
G54D172*
X832500Y928011D03*
Y916988D03*
G54D173*
X821905Y885000D03*
X810094D03*
Y862500D03*
X821905D03*
G54D180*
X806988Y922500D03*
X818011D03*
Y937500D03*
X806988D03*
X0Y0D02*
M02*
