*
*
G04 PADS Layout (Build Number 2005.103.1) generated Gerber (RS-274-X) file*
G04 PC Version=2.1*
*
%IN "7748.pcb"*%
*
%MOIN*%
*
%FSLAX35Y35*%
*
*
*
*
G04 PC Standard Apertures*
*
*
G04 Thermal Relief Aperture macro.*
%AMTER*
1,1,$1,0,0*
1,0,$1-$2,0,0*
21,0,$3,$4,0,0,45*
21,0,$3,$4,0,0,135*
%
*
*
G04 Annular Aperture macro.*
%AMANN*
1,1,$1,0,0*
1,0,$2,0,0*
%
*
*
G04 Odd Aperture macro.*
%AMODD*
1,1,$1,0,0*
1,0,$1-0.005,0,0*
%
*
*
G04 PC Custom Aperture Macros*
*
*
*
*
*
*
G04 PC Aperture Table*
*
%ADD030C,0.04*%
%ADD052C,0.01*%
%ADD053C,0.02*%
%ADD074R,0.045X0.071*%
%ADD146R,0.135X0.1*%
%ADD147R,0.036X0.038*%
%ADD172R,0.11X0.064*%
%ADD173R,0.08X0.09*%
%ADD180R,0.064X0.11*%
*
*
*
*
G04 PC Custom Flashes*
G04 Layer Name 7748.pcb - flashes*
%LPD*%
*
*
G04 PC Circuitry*
G04 Layer Name 7748.pcb - circuitry*
%LPD*%
*
G54D30*
G01X810000Y810000D03*
X850000Y815000D03*
G54D52*
X800000Y800000D02*
X865000D01*
Y957500*
X800000*
Y800000*
G54D53*
X831909Y767812D02*
X836909D01*
X836909D02*
X834181Y763312D01*
X834181D02*
X835545D01*
X835545D02*
X836454Y762750D01*
X836454D02*
X836909Y762187D01*
X836909D02*
X837363Y760500D01*
X837363D02*
Y759375D01*
X837363D02*
X836909Y757687D01*
X836909D02*
X836000Y756562D01*
X836000D02*
X834636Y756000D01*
X833272*
X833272D02*
X831909Y756562D01*
X831909D02*
X831454Y757125D01*
X831454D02*
X831000Y758250D01*
X841454Y765562D02*
X842363Y766125D01*
X842363D02*
X843727Y767812D01*
X843727D02*
Y756000D01*
X847818Y761062D02*
X856000D01*
X862818Y767812D02*
X861454Y767250D01*
X861454D02*
X860545Y765562D01*
X860545D02*
X860090Y762750D01*
X860090D02*
Y761062D01*
X860090D02*
X860545Y758250D01*
X861454Y756562*
X861454D02*
X862818Y756000D01*
X863727*
X865090Y756562*
X865090D02*
X866000Y758250D01*
X866454Y761062*
X866454D02*
Y762750D01*
X866454D02*
X866000Y765562D01*
X866000D02*
X865090Y767250D01*
X865090D02*
X863727Y767812D01*
X863727D02*
X862818D01*
X873272D02*
X871909Y767250D01*
X871000Y765562*
X871000D02*
X870545Y762750D01*
Y761062*
X870545D02*
X871000Y758250D01*
X871909Y756562*
X871909D02*
X873272Y756000D01*
X873272D02*
X874181D01*
X874181D02*
X875545Y756562D01*
X875545D02*
X876454Y758250D01*
X876454D02*
X876909Y761062D01*
X876909D02*
Y762750D01*
X876454Y765562*
X876454D02*
X875545Y767250D01*
X874181Y767812*
X874181D02*
X873272D01*
X883727D02*
X882363Y767250D01*
X882363D02*
X881454Y765562D01*
X881454D02*
X881000Y762750D01*
Y761062*
X881000D02*
X881454Y758250D01*
X881454D02*
X882363Y756562D01*
X882363D02*
X883727Y756000D01*
X884636*
X886000Y756562*
X886000D02*
X886909Y758250D01*
X887363Y761062*
X887363D02*
Y762750D01*
X887363D02*
X886909Y765562D01*
X886909D02*
X886000Y767250D01*
X884636Y767812*
X884636D02*
X883727D01*
X891909Y765000D02*
Y765562D01*
X891909D02*
X892363Y766687D01*
X892363D02*
X892818Y767250D01*
X893727Y767812*
X893727D02*
X895545D01*
X895545D02*
X896454Y767250D01*
X896454D02*
X896909Y766687D01*
X896909D02*
X897363Y765562D01*
X897363D02*
Y764437D01*
X897363D02*
X896909Y763312D01*
X896909D02*
X896000Y761625D01*
X891454Y756000*
X891454D02*
X897818D01*
X912363Y767812D02*
Y756000D01*
Y767812D02*
X916454D01*
X916454D02*
X917818Y767250D01*
X918272Y766687*
X918272D02*
X918727Y765562D01*
X918727D02*
Y764437D01*
X918727D02*
X918272Y763312D01*
X918272D02*
X917818Y762750D01*
X916454Y762187*
X916454D02*
X912363D01*
X915545D02*
X918727Y756000D01*
X922818Y767812D02*
Y756000D01*
Y767812D02*
X928727D01*
X922818Y762187D02*
X926454D01*
X922818Y756000D02*
X928727D01*
X932818Y767812D02*
X936454Y756000D01*
X940090Y767812D02*
X936454Y756000D01*
X954636Y765562D02*
X955545Y766125D01*
X956909Y767812*
X956909D02*
Y756000D01*
X952636Y791125D02*
X953545Y792250D01*
X954909Y792812*
X954909D02*
X956727D01*
X956727D02*
X958090Y792250D01*
X958090D02*
X959000Y791125D01*
Y790000*
X958545Y788875*
X958090Y788312*
X958090D02*
X957181Y787750D01*
X957181D02*
X954454Y786625D01*
X954454D02*
X953545Y786062D01*
X953545D02*
X953090Y785500D01*
X953090D02*
X952636Y784375D01*
Y782687*
X952636D02*
X953545Y781562D01*
X953545D02*
X954909Y781000D01*
X956727*
X958090Y781562*
X958090D02*
X959000Y782687D01*
X945818Y792812D02*
X946727Y792250D01*
X947636Y791125*
X948090Y790000*
X948090D02*
X948545Y788312D01*
X948545D02*
Y785500D01*
X948090Y783812*
X948090D02*
X947636Y782687D01*
X947636D02*
X946727Y781562D01*
X946727D02*
X945818Y781000D01*
X944000*
X943090Y781562*
X943090D02*
X942181Y782687D01*
X942181D02*
X941727Y783812D01*
X941727D02*
X941272Y785500D01*
X941272D02*
Y788312D01*
X941272D02*
X941727Y790000D01*
X942181Y791125*
X942181D02*
X943090Y792250D01*
X943090D02*
X944000Y792812D01*
X944000D02*
X945818D01*
X937181D02*
Y781000D01*
X937181D02*
X931727D01*
X927636Y792812D02*
Y781000D01*
Y792812D02*
X924454D01*
X924454D02*
X923090Y792250D01*
X923090D02*
X922181Y791125D01*
X922181D02*
X921727Y790000D01*
X921272Y788312*
X921272D02*
Y785500D01*
X921272D02*
X921727Y783812D01*
X921727D02*
X922181Y782687D01*
X922181D02*
X923090Y781562D01*
X923090D02*
X924454Y781000D01*
X924454D02*
X927636D01*
X917181Y792812D02*
Y781000D01*
Y792812D02*
X911272D01*
X917181Y787187D02*
X913545D01*
X917181Y781000D02*
X911272D01*
X907181Y792812D02*
Y781000D01*
Y792812D02*
X903090D01*
X903090D02*
X901727Y792250D01*
X901272Y791687*
X901272D02*
X900818Y790562D01*
X900818D02*
Y789437D01*
X900818D02*
X901272Y788312D01*
X901272D02*
X901727Y787750D01*
X903090Y787187*
X903090D02*
X907181D01*
X904000D02*
X900818Y781000D01*
X896727Y792812D02*
Y781000D01*
Y792812D02*
X892636D01*
X892636D02*
X891272Y792250D01*
X891272D02*
X890818Y791687D01*
X890818D02*
X890363Y790562D01*
X890363D02*
Y788875D01*
X890363D02*
X890818Y787750D01*
X891272Y787187*
X891272D02*
X892636Y786625D01*
X896727*
X882636Y792812D02*
X886272Y781000D01*
X882636Y792812D02*
X879000Y781000D01*
X884909Y784937D02*
X880363D01*
X868545Y791125D02*
X869454Y792250D01*
X869454D02*
X870818Y792812D01*
X870818D02*
X872636D01*
X872636D02*
X874000Y792250D01*
X874909Y791125*
Y790000*
X874454Y788875*
X874454D02*
X874000Y788312D01*
X874000D02*
X873090Y787750D01*
X873090D02*
X870363Y786625D01*
X870363D02*
X869454Y786062D01*
X869454D02*
X869000Y785500D01*
X868545Y784375*
Y782687*
X868545D02*
X869454Y781562D01*
X869454D02*
X870818Y781000D01*
X872636*
X874000Y781562*
X874000D02*
X874909Y782687D01*
X861272Y792812D02*
Y781000D01*
X864454Y792812D02*
X858090D01*
X854000D02*
Y781000D01*
Y792812D02*
X848090D01*
X854000Y787187D02*
X850363D01*
X854000Y781000D02*
X848090D01*
X833545Y792812D02*
Y781000D01*
Y792812D02*
X829454D01*
X829454D02*
X828090Y792250D01*
X828090D02*
X827636Y791687D01*
X827636D02*
X827181Y790562D01*
X827181D02*
Y789437D01*
X827181D02*
X827636Y788312D01*
X827636D02*
X828090Y787750D01*
X828090D02*
X829454Y787187D01*
X833545D02*
X829454D01*
X829454D02*
X828090Y786625D01*
X828090D02*
X827636Y786062D01*
X827636D02*
X827181Y784937D01*
X827181D02*
Y783250D01*
X827181D02*
X827636Y782125D01*
X828090Y781562*
X828090D02*
X829454Y781000D01*
X829454D02*
X833545D01*
X820363Y792812D02*
X821272Y792250D01*
X821272D02*
X822181Y791125D01*
X822181D02*
X822636Y790000D01*
X823090Y788312*
X823090D02*
Y785500D01*
X823090D02*
X822636Y783812D01*
X822636D02*
X822181Y782687D01*
X822181D02*
X821272Y781562D01*
X821272D02*
X820363Y781000D01*
X820363D02*
X818545D01*
X817636Y781562*
X817636D02*
X816727Y782687D01*
X816727D02*
X816272Y783812D01*
X816272D02*
X815818Y785500D01*
Y788312*
X815818D02*
X816272Y790000D01*
X816272D02*
X816727Y791125D01*
X817636Y792250*
X818545Y792812*
X818545D02*
X820363D01*
X808545D02*
Y781000D01*
X811727Y792812D02*
X805363D01*
X798090D02*
Y781000D01*
X801272Y792812D02*
X794909D01*
X788090D02*
X789000Y792250D01*
X789909Y791125*
X790363Y790000*
X790363D02*
X790818Y788312D01*
X790818D02*
Y785500D01*
X790363Y783812*
X790363D02*
X789909Y782687D01*
X789909D02*
X789000Y781562D01*
X789000D02*
X788090Y781000D01*
X788090D02*
X786272D01*
X786272D02*
X785363Y781562D01*
X785363D02*
X784454Y782687D01*
X784454D02*
X784000Y783812D01*
X784000D02*
X783545Y785500D01*
Y788312*
X783545D02*
X784000Y790000D01*
X784454Y791125*
X784454D02*
X785363Y792250D01*
X785363D02*
X786272Y792812D01*
X786272D02*
X788090D01*
X779454D02*
Y781000D01*
Y792812D02*
X775818Y781000D01*
X772181Y792812D02*
X775818Y781000D01*
X772181Y792812D02*
Y781000D01*
X751272Y791125D02*
X752181Y792250D01*
X752181D02*
X753545Y792812D01*
X753545D02*
X755363D01*
X755363D02*
X756727Y792250D01*
X757636Y791125*
Y790000*
X757181Y788875*
X757181D02*
X756727Y788312D01*
X756727D02*
X755818Y787750D01*
X753090Y786625*
X753090D02*
X752181Y786062D01*
X752181D02*
X751727Y785500D01*
X751272Y784375*
X751272D02*
Y782687D01*
X751272D02*
X752181Y781562D01*
X752181D02*
X753545Y781000D01*
X755363*
X755363D02*
X756727Y781562D01*
X756727D02*
X757636Y782687D01*
X747181Y792812D02*
Y781000D01*
X743090Y792812D02*
Y781000D01*
Y792812D02*
X739909D01*
X739909D02*
X738545Y792250D01*
X737636Y791125*
X737181Y790000*
X737181D02*
X736727Y788312D01*
X736727D02*
Y785500D01*
X737181Y783812*
X737181D02*
X737636Y782687D01*
X737636D02*
X738545Y781562D01*
X738545D02*
X739909Y781000D01*
X743090*
X732636Y792812D02*
Y781000D01*
Y792812D02*
X726727D01*
X732636Y787187D02*
X729000D01*
X732636Y781000D02*
X726727D01*
G54D74*
X820807Y850000D03*
X809192D03*
G54D146*
X850000Y919901D03*
Y945098D03*
G54D147*
X815551Y872500D03*
X809448D03*
G54D172*
X832500Y928011D03*
Y916988D03*
G54D173*
X821905Y885000D03*
X810094D03*
Y862500D03*
X821905D03*
G54D180*
X806988Y922500D03*
X818011D03*
Y937500D03*
X806988D03*
X0Y0D02*
M02*
