*
*
G04 PADS Layout (Build Number 2005.103.1) generated Gerber (RS-274-X) file*
G04 PC Version=2.1*
*
%IN "7748.pcb"*%
*
%MOIN*%
*
%FSLAX35Y35*%
*
*
*
*
G04 PC Standard Apertures*
*
*
G04 Thermal Relief Aperture macro.*
%AMTER*
1,1,$1,0,0*
1,0,$1-$2,0,0*
21,0,$3,$4,0,0,45*
21,0,$3,$4,0,0,135*
%
*
*
G04 Annular Aperture macro.*
%AMANN*
1,1,$1,0,0*
1,0,$2,0,0*
%
*
*
G04 Odd Aperture macro.*
%AMODD*
1,1,$1,0,0*
1,0,$1-0.005,0,0*
%
*
*
G04 PC Custom Aperture Macros*
*
*
*
*
*
*
G04 PC Aperture Table*
*
%ADD052C,0.01*%
%ADD053C,0.02*%
%ADD063C,0.008*%
%ADD064C,0.006*%
*
*
*
*
G04 PC Custom Flashes*
G04 Layer Name 7748.pcb - flashes*
%LPD*%
*
*
G04 PC Circuitry*
G04 Layer Name 7748.pcb - circuitry*
%LPD*%
*
G54D52*
G01X815500Y850000D02*
G75*
G03X815500I-500J0D01*
G01X800000Y800000D02*
X865000D01*
Y957500*
X800000*
Y800000*
G54D53*
X831909Y767812D02*
X836909D01*
X836909D02*
X834181Y763312D01*
X834181D02*
X835545D01*
X835545D02*
X836454Y762750D01*
X836454D02*
X836909Y762187D01*
X836909D02*
X837363Y760500D01*
X837363D02*
Y759375D01*
X837363D02*
X836909Y757687D01*
X836909D02*
X836000Y756562D01*
X836000D02*
X834636Y756000D01*
X833272*
X833272D02*
X831909Y756562D01*
X831909D02*
X831454Y757125D01*
X831454D02*
X831000Y758250D01*
X841454Y765562D02*
X842363Y766125D01*
X842363D02*
X843727Y767812D01*
X843727D02*
Y756000D01*
X847818Y761062D02*
X856000D01*
X862818Y767812D02*
X861454Y767250D01*
X861454D02*
X860545Y765562D01*
X860545D02*
X860090Y762750D01*
X860090D02*
Y761062D01*
X860090D02*
X860545Y758250D01*
X861454Y756562*
X861454D02*
X862818Y756000D01*
X863727*
X865090Y756562*
X865090D02*
X866000Y758250D01*
X866454Y761062*
X866454D02*
Y762750D01*
X866454D02*
X866000Y765562D01*
X866000D02*
X865090Y767250D01*
X865090D02*
X863727Y767812D01*
X863727D02*
X862818D01*
X873272D02*
X871909Y767250D01*
X871000Y765562*
X871000D02*
X870545Y762750D01*
Y761062*
X870545D02*
X871000Y758250D01*
X871909Y756562*
X871909D02*
X873272Y756000D01*
X873272D02*
X874181D01*
X874181D02*
X875545Y756562D01*
X875545D02*
X876454Y758250D01*
X876454D02*
X876909Y761062D01*
X876909D02*
Y762750D01*
X876454Y765562*
X876454D02*
X875545Y767250D01*
X874181Y767812*
X874181D02*
X873272D01*
X883727D02*
X882363Y767250D01*
X882363D02*
X881454Y765562D01*
X881454D02*
X881000Y762750D01*
Y761062*
X881000D02*
X881454Y758250D01*
X881454D02*
X882363Y756562D01*
X882363D02*
X883727Y756000D01*
X884636*
X886000Y756562*
X886000D02*
X886909Y758250D01*
X887363Y761062*
X887363D02*
Y762750D01*
X887363D02*
X886909Y765562D01*
X886909D02*
X886000Y767250D01*
X884636Y767812*
X884636D02*
X883727D01*
X891909Y765000D02*
Y765562D01*
X891909D02*
X892363Y766687D01*
X892363D02*
X892818Y767250D01*
X893727Y767812*
X893727D02*
X895545D01*
X895545D02*
X896454Y767250D01*
X896454D02*
X896909Y766687D01*
X896909D02*
X897363Y765562D01*
X897363D02*
Y764437D01*
X897363D02*
X896909Y763312D01*
X896909D02*
X896000Y761625D01*
X891454Y756000*
X891454D02*
X897818D01*
X912363Y767812D02*
Y756000D01*
Y767812D02*
X916454D01*
X916454D02*
X917818Y767250D01*
X918272Y766687*
X918272D02*
X918727Y765562D01*
X918727D02*
Y764437D01*
X918727D02*
X918272Y763312D01*
X918272D02*
X917818Y762750D01*
X916454Y762187*
X916454D02*
X912363D01*
X915545D02*
X918727Y756000D01*
X922818Y767812D02*
Y756000D01*
Y767812D02*
X928727D01*
X922818Y762187D02*
X926454D01*
X922818Y756000D02*
X928727D01*
X932818Y767812D02*
X936454Y756000D01*
X940090Y767812D02*
X936454Y756000D01*
X954636Y765562D02*
X955545Y766125D01*
X956909Y767812*
X956909D02*
Y756000D01*
X952636Y791125D02*
X953545Y792250D01*
X954909Y792812*
X954909D02*
X956727D01*
X956727D02*
X958090Y792250D01*
X958090D02*
X959000Y791125D01*
Y790000*
X958545Y788875*
X958090Y788312*
X958090D02*
X957181Y787750D01*
X957181D02*
X954454Y786625D01*
X954454D02*
X953545Y786062D01*
X953545D02*
X953090Y785500D01*
X953090D02*
X952636Y784375D01*
Y782687*
X952636D02*
X953545Y781562D01*
X953545D02*
X954909Y781000D01*
X956727*
X958090Y781562*
X958090D02*
X959000Y782687D01*
X948545Y792812D02*
Y781000D01*
X944454Y792812D02*
Y781000D01*
X944454D02*
X939000D01*
X934909Y792812D02*
Y781000D01*
X928545Y792812D02*
X934909Y784937D01*
X932636Y787750D02*
X928545Y781000D01*
X918090Y791125D02*
X919000Y792250D01*
X920363Y792812*
X920363D02*
X922181D01*
X922181D02*
X923545Y792250D01*
X924454Y791125*
X924454D02*
Y790000D01*
X924454D02*
X924000Y788875D01*
X923545Y788312*
X923545D02*
X922636Y787750D01*
X919909Y786625*
X919000Y786062*
X919000D02*
X918545Y785500D01*
X918090Y784375*
X918090D02*
Y782687D01*
X918090D02*
X919000Y781562D01*
X919000D02*
X920363Y781000D01*
X920363D02*
X922181D01*
X922181D02*
X923545Y781562D01*
X923545D02*
X924454Y782687D01*
X907181Y790000D02*
X907636Y791125D01*
X908545Y792250*
X909454Y792812*
X909454D02*
X911272D01*
X911272D02*
X912181Y792250D01*
X912181D02*
X913090Y791125D01*
X913090D02*
X913545Y790000D01*
X914000Y788312*
X914000D02*
Y785500D01*
X913545Y783812*
X913545D02*
X913090Y782687D01*
X913090D02*
X912181Y781562D01*
X912181D02*
X911272Y781000D01*
X911272D02*
X909454D01*
X909454D02*
X908545Y781562D01*
X908545D02*
X907636Y782687D01*
X907636D02*
X907181Y783812D01*
X903090Y792812D02*
Y781000D01*
Y792812D02*
X899000D01*
X899000D02*
X897636Y792250D01*
X897181Y791687*
X897181D02*
X896727Y790562D01*
X896727D02*
Y789437D01*
X896727D02*
X897181Y788312D01*
X897181D02*
X897636Y787750D01*
X899000Y787187*
X899000D02*
X903090D01*
X899909D02*
X896727Y781000D01*
X892636Y792812D02*
Y781000D01*
Y792812D02*
X886727D01*
X892636Y787187D02*
X889000D01*
X892636Y781000D02*
X886727D01*
X882636Y792812D02*
Y781000D01*
Y792812D02*
X876727D01*
X882636Y787187D02*
X879000D01*
X882636Y781000D02*
X876727D01*
X872636Y792812D02*
Y781000D01*
Y792812D02*
X866272Y781000D01*
Y792812D02*
Y781000D01*
X851727Y792812D02*
Y781000D01*
Y792812D02*
X847636D01*
X847636D02*
X846272Y792250D01*
X846272D02*
X845818Y791687D01*
X845818D02*
X845363Y790562D01*
X845363D02*
Y789437D01*
X845363D02*
X845818Y788312D01*
X845818D02*
X846272Y787750D01*
X846272D02*
X847636Y787187D01*
X851727D02*
X847636D01*
X847636D02*
X846272Y786625D01*
X846272D02*
X845818Y786062D01*
X845818D02*
X845363Y784937D01*
X845363D02*
Y783250D01*
X845363D02*
X845818Y782125D01*
X846272Y781562*
X846272D02*
X847636Y781000D01*
X851727*
X838545Y792812D02*
X839454Y792250D01*
X839454D02*
X840363Y791125D01*
X840363D02*
X840818Y790000D01*
X841272Y788312*
X841272D02*
Y785500D01*
X841272D02*
X840818Y783812D01*
X840818D02*
X840363Y782687D01*
X840363D02*
X839454Y781562D01*
X839454D02*
X838545Y781000D01*
X836727*
X835818Y781562*
X835818D02*
X834909Y782687D01*
X834909D02*
X834454Y783812D01*
X834454D02*
X834000Y785500D01*
Y788312*
X834000D02*
X834454Y790000D01*
X834454D02*
X834909Y791125D01*
X835818Y792250*
X836727Y792812*
X836727D02*
X838545D01*
X826727D02*
Y781000D01*
X829909Y792812D02*
X823545D01*
X816272D02*
Y781000D01*
X819454Y792812D02*
X813090D01*
X806272D02*
X807181Y792250D01*
X807181D02*
X808090Y791125D01*
X808090D02*
X808545Y790000D01*
X809000Y788312*
X809000D02*
Y785500D01*
X808545Y783812*
X808545D02*
X808090Y782687D01*
X808090D02*
X807181Y781562D01*
X807181D02*
X806272Y781000D01*
X806272D02*
X804454D01*
X804454D02*
X803545Y781562D01*
X803545D02*
X802636Y782687D01*
X802636D02*
X802181Y783812D01*
X802181D02*
X801727Y785500D01*
Y788312*
X801727D02*
X802181Y790000D01*
X802181D02*
X802636Y791125D01*
X803545Y792250*
X804454Y792812*
X804454D02*
X806272D01*
X797636D02*
Y781000D01*
Y792812D02*
X794000Y781000D01*
X790363Y792812D02*
X794000Y781000D01*
X790363Y792812D02*
Y781000D01*
X769454Y791125D02*
X770363Y792250D01*
X770363D02*
X771727Y792812D01*
X771727D02*
X773545D01*
X773545D02*
X774909Y792250D01*
X775818Y791125*
Y790000*
X775363Y788875*
X775363D02*
X774909Y788312D01*
X774909D02*
X774000Y787750D01*
X771272Y786625*
X771272D02*
X770363Y786062D01*
X770363D02*
X769909Y785500D01*
X769454Y784375*
X769454D02*
Y782687D01*
X769454D02*
X770363Y781562D01*
X770363D02*
X771727Y781000D01*
X773545*
X774909Y781562*
X774909D02*
X775818Y782687D01*
X765363Y792812D02*
Y781000D01*
X761272Y792812D02*
Y781000D01*
Y792812D02*
X758090D01*
X758090D02*
X756727Y792250D01*
X755818Y791125*
X755363Y790000*
X755363D02*
X754909Y788312D01*
X754909D02*
Y785500D01*
X755363Y783812*
X755363D02*
X755818Y782687D01*
X755818D02*
X756727Y781562D01*
X756727D02*
X758090Y781000D01*
X758090D02*
X761272D01*
X750818Y792812D02*
Y781000D01*
Y792812D02*
X744909D01*
X750818Y787187D02*
X747181D01*
X750818Y781000D02*
X744909D01*
G54D63*
X827578Y929192D02*
Y915807D01*
X827578D02*
X837421D01*
Y929192*
X837421D02*
X827578D01*
X859055Y917539D02*
Y947460D01*
X859055D02*
X840944D01*
X840944D02*
Y917539D01*
X840944D02*
X859055D01*
X823283Y890905D02*
X808716D01*
X808716D02*
Y879094D01*
X808716D02*
X823283D01*
Y890905*
X808716Y856594D02*
X823283D01*
Y868405*
X823283D02*
X808716D01*
X808716D02*
Y856594D01*
X805807Y917578D02*
X819192D01*
X819192D02*
Y927421D01*
X819192D02*
X805807D01*
Y917578*
X819192Y942421D02*
X805807D01*
Y932578*
X805807D02*
X819192D01*
X819192D02*
Y942421D01*
X812795Y872500D02*
G03X812795I-295J0D01*
G01X859700Y860500D02*
X862200Y858000D01*
X859200Y855000*
X856200Y858000*
X862200Y868000D02*
G03X862200I-11000J0D01*
G01X852599Y853968D02*
Y849900D01*
Y853968D02*
X851486D01*
X851486D02*
X851009Y853775D01*
X850690Y853387*
X850690D02*
X850531Y853000D01*
X850531D02*
X850372Y852418D01*
X850372D02*
Y851450D01*
X850372D02*
X850531Y850868D01*
X850531D02*
X850690Y850481D01*
X850690D02*
X851009Y850093D01*
X851009D02*
X851486Y849900D01*
X852599*
X848940Y853193D02*
X848622Y853387D01*
X848622D02*
X848145Y853968D01*
X848145D02*
Y849900D01*
X825187Y855600D02*
X828600D01*
X825187D02*
Y854372D01*
X825187D02*
X825350Y853963D01*
X825350D02*
X825512Y853827D01*
X825512D02*
X825837Y853690D01*
X825837D02*
X826325D01*
X826325D02*
X826650Y853827D01*
X826812Y853963*
X826812D02*
X826975Y854372D01*
X826975D02*
Y855600D01*
X826000Y850418D02*
X825675Y850554D01*
X825675D02*
X825350Y850827D01*
X825187Y851100*
X825187D02*
Y851645D01*
X825187D02*
X825350Y851918D01*
X825675Y852190*
X825675D02*
X826000Y852327D01*
X826487Y852463*
X826487D02*
X827300D01*
X827300D02*
X827787Y852327D01*
X827787D02*
X828112Y852190D01*
X828112D02*
X828437Y851918D01*
X828437D02*
X828600Y851645D01*
Y851100*
X828437Y850827*
X828437D02*
X828112Y850554D01*
X828112D02*
X827787Y850418D01*
X825187Y849190D02*
X828600D01*
X825187D02*
Y847963D01*
X825187D02*
X825350Y847554D01*
X825350D02*
X825512Y847418D01*
X825512D02*
X825837Y847281D01*
X825837D02*
X826162D01*
X826162D02*
X826487Y847418D01*
X826487D02*
X826650Y847554D01*
X826650D02*
X826812Y847963D01*
Y849190D02*
Y847963D01*
X826812D02*
X826975Y847554D01*
X826975D02*
X827137Y847418D01*
X827137D02*
X827462Y847281D01*
X827462D02*
X827950D01*
X827950D02*
X828275Y847418D01*
X828437Y847554*
X828437D02*
X828600Y847963D01*
X828600D02*
Y849190D01*
X826325Y845918D02*
X826487Y846054D01*
X826487D02*
X826650Y845918D01*
X826487Y845781*
X826487D02*
X826325Y845918D01*
X828275D02*
X828437Y846054D01*
X828437D02*
X828600Y845918D01*
X828437Y845781*
X828437D02*
X828275Y845918D01*
X825187Y841145D02*
Y839645D01*
X825187D02*
X826487Y840463D01*
X826487D02*
Y840054D01*
X826487D02*
X826650Y839781D01*
X826650D02*
X826812Y839645D01*
X826812D02*
X827300Y839509D01*
X827625*
X828112Y839645*
X828112D02*
X828437Y839918D01*
X828437D02*
X828600Y840327D01*
Y840736*
X828437Y841145*
X828437D02*
X828275Y841281D01*
X828275D02*
X827950Y841418D01*
X825837Y838281D02*
X825675Y838009D01*
X825187Y837600*
X825187D02*
X828600D01*
X827137Y836372D02*
Y833918D01*
X825187Y831872D02*
X825350Y832281D01*
X825350D02*
X825837Y832554D01*
X825837D02*
X826650Y832690D01*
X826650D02*
X827137D01*
X827137D02*
X827950Y832554D01*
X827950D02*
X828437Y832281D01*
X828437D02*
X828600Y831872D01*
X828600D02*
Y831600D01*
X828437Y831190*
X828437D02*
X827950Y830918D01*
X827137Y830781*
X827137D02*
X826650D01*
X826650D02*
X825837Y830918D01*
X825837D02*
X825350Y831190D01*
X825350D02*
X825187Y831600D01*
X825187D02*
Y831872D01*
Y828736D02*
X825350Y829145D01*
X825837Y829418*
X825837D02*
X826650Y829554D01*
X826650D02*
X827137D01*
X827137D02*
X827950Y829418D01*
X828437Y829145*
X828437D02*
X828600Y828736D01*
Y828463*
X828600D02*
X828437Y828054D01*
X828437D02*
X827950Y827781D01*
X827950D02*
X827137Y827645D01*
X827137D02*
X826650D01*
X825837Y827781*
X825837D02*
X825350Y828054D01*
X825350D02*
X825187Y828463D01*
X825187D02*
Y828736D01*
Y825600D02*
X825350Y826009D01*
X825837Y826281*
X825837D02*
X826650Y826418D01*
X827137*
X827137D02*
X827950Y826281D01*
X827950D02*
X828437Y826009D01*
X828437D02*
X828600Y825600D01*
Y825327*
X828437Y824918*
X828437D02*
X827950Y824645D01*
X827137Y824509*
X827137D02*
X826650D01*
X825837Y824645*
X825837D02*
X825350Y824918D01*
X825187Y825327*
X825187D02*
Y825600D01*
X826000Y823145D02*
X825837D01*
X825837D02*
X825512Y823009D01*
X825512D02*
X825350Y822872D01*
X825350D02*
X825187Y822600D01*
X825187D02*
Y822054D01*
X825187D02*
X825350Y821781D01*
X825350D02*
X825512Y821645D01*
X825512D02*
X825837Y821509D01*
X825837D02*
X826162D01*
X826162D02*
X826487Y821645D01*
X826487D02*
X826975Y821918D01*
X828600Y823281*
X828600D02*
Y821372D01*
X825187Y817009D02*
X828600D01*
X825187D02*
Y815781D01*
X825187D02*
X825350Y815372D01*
X825350D02*
X825512Y815236D01*
X825512D02*
X825837Y815100D01*
X825837D02*
X826162D01*
X826162D02*
X826487Y815236D01*
X826487D02*
X826650Y815372D01*
X826650D02*
X826812Y815781D01*
X826812D02*
Y817009D01*
Y816054D02*
X828600Y815100D01*
X825187Y813872D02*
X828600D01*
X825187D02*
Y812100D01*
X826812Y813872D02*
Y812781D01*
X828600Y813872D02*
Y812100D01*
X825187Y810872D02*
X828600Y809781D01*
X825187Y808690D02*
X828600Y809781D01*
X825837Y804327D02*
X825675Y804054D01*
X825675D02*
X825187Y803645D01*
X825187D02*
X828600D01*
X828187Y906509D02*
X831600Y907600D01*
X828187Y906509D02*
X831600Y905418D01*
X830462Y907190D02*
Y905827D01*
X828675Y902281D02*
X828350Y902554D01*
X828350D02*
X828187Y902963D01*
X828187D02*
Y903509D01*
X828187D02*
X828350Y903918D01*
X828675Y904190*
X828675D02*
X829000D01*
X829000D02*
X829325Y904054D01*
X829325D02*
X829487Y903918D01*
X829487D02*
X829650Y903645D01*
X829975Y902827*
X830137Y902554*
X830137D02*
X830300Y902418D01*
X830625Y902281*
X830625D02*
X831112D01*
X831112D02*
X831437Y902554D01*
X831437D02*
X831600Y902963D01*
X831600D02*
Y903509D01*
X831437Y903918*
X831437D02*
X831112Y904190D01*
X828675Y899145D02*
X828350Y899418D01*
X828187Y899827*
X828187D02*
Y900372D01*
X828187D02*
X828350Y900781D01*
X828350D02*
X828675Y901054D01*
X828675D02*
X829000D01*
X829000D02*
X829325Y900918D01*
X829487Y900781*
X829487D02*
X829650Y900509D01*
X829975Y899690*
X829975D02*
X830137Y899418D01*
X830137D02*
X830300Y899281D01*
X830300D02*
X830625Y899145D01*
X831112*
X831112D02*
X831437Y899418D01*
X831437D02*
X831600Y899827D01*
Y900372*
X831600D02*
X831437Y900781D01*
X831437D02*
X831112Y901054D01*
X828187Y897918D02*
X829812Y896827D01*
X829812D02*
X831600D01*
X828187Y895736D02*
X829812Y896827D01*
X829325Y894372D02*
X829487Y894509D01*
X829487D02*
X829650Y894372D01*
X829650D02*
X829487Y894236D01*
X829487D02*
X829325Y894372D01*
X831275D02*
X831437Y894509D01*
X831437D02*
X831600Y894372D01*
X831600D02*
X831437Y894236D01*
X831437D02*
X831275Y894372D01*
X828187Y889600D02*
Y888100D01*
X828187D02*
X829487Y888918D01*
X829487D02*
Y888509D01*
X829487D02*
X829650Y888236D01*
X829812Y888100*
X829812D02*
X830300Y887963D01*
X830300D02*
X830625D01*
X830625D02*
X831112Y888100D01*
X831112D02*
X831437Y888372D01*
X831437D02*
X831600Y888781D01*
X831600D02*
Y889190D01*
X831600D02*
X831437Y889600D01*
X831437D02*
X831275Y889736D01*
X830950Y889872*
X828187Y885918D02*
X828350Y886327D01*
X828837Y886600*
X828837D02*
X829650Y886736D01*
X830137*
X830137D02*
X830950Y886600D01*
X831437Y886327*
X831437D02*
X831600Y885918D01*
Y885645*
X831437Y885236*
X831437D02*
X830950Y884963D01*
X830950D02*
X830137Y884827D01*
X830137D02*
X829650D01*
X828837Y884963*
X828837D02*
X828350Y885236D01*
X828187Y885645*
X828187D02*
Y885918D01*
X830137Y883600D02*
Y881145D01*
X828187Y879100D02*
X828350Y879509D01*
X828837Y879781*
X828837D02*
X829650Y879918D01*
X830137*
X830137D02*
X830950Y879781D01*
X830950D02*
X831437Y879509D01*
X831437D02*
X831600Y879100D01*
Y878827*
X831437Y878418*
X831437D02*
X830950Y878145D01*
X830137Y878009*
X830137D02*
X829650D01*
X828837Y878145*
X828837D02*
X828350Y878418D01*
X828187Y878827*
X828187D02*
Y879100D01*
Y875963D02*
X828350Y876372D01*
X828350D02*
X828837Y876645D01*
X828837D02*
X829650Y876781D01*
X829650D02*
X830137D01*
X830137D02*
X830950Y876645D01*
X831437Y876372*
X831437D02*
X831600Y875963D01*
X831600D02*
Y875690D01*
X831600D02*
X831437Y875281D01*
X831437D02*
X830950Y875009D01*
X830137Y874872*
X830137D02*
X829650D01*
X829650D02*
X828837Y875009D01*
X828837D02*
X828350Y875281D01*
X828350D02*
X828187Y875690D01*
X828187D02*
Y875963D01*
Y872827D02*
X828350Y873236D01*
X828837Y873509*
X828837D02*
X829650Y873645D01*
X830137*
X830137D02*
X830950Y873509D01*
X831437Y873236*
X831437D02*
X831600Y872827D01*
Y872554*
X831600D02*
X831437Y872145D01*
X831437D02*
X830950Y871872D01*
X830950D02*
X830137Y871736D01*
X830137D02*
X829650D01*
X828837Y871872*
X828837D02*
X828350Y872145D01*
X828187Y872554*
X828187D02*
Y872827D01*
X829000Y870372D02*
X828837D01*
X828837D02*
X828512Y870236D01*
X828512D02*
X828350Y870100D01*
X828187Y869827*
X828187D02*
Y869281D01*
X828187D02*
X828350Y869009D01*
X828512Y868872*
X828512D02*
X828837Y868736D01*
X828837D02*
X829162D01*
X829162D02*
X829487Y868872D01*
X829487D02*
X829975Y869145D01*
X831600Y870509*
Y868600*
X835187Y907600D02*
X838600D01*
X835187D02*
Y906372D01*
X835187D02*
X835350Y905963D01*
X835350D02*
X835512Y905827D01*
X835512D02*
X835837Y905690D01*
X835837D02*
X836162D01*
X836162D02*
X836487Y905827D01*
X836487D02*
X836650Y905963D01*
X836650D02*
X836812Y906372D01*
X836812D02*
Y907600D01*
Y906645D02*
X838600Y905690D01*
X835187Y904463D02*
X838600D01*
X835187D02*
Y902690D01*
X836812Y904463D02*
Y903372D01*
X838600Y904463D02*
Y902690D01*
X835187Y901463D02*
X838600Y900372D01*
X835187Y899281D02*
X838600Y900372D01*
X839250Y898054D02*
Y895190D01*
Y894372D02*
Y891509D01*
Y890690D02*
Y887827D01*
Y887009D02*
Y884145D01*
G54D64*
X832995Y936000D02*
X833109Y936275D01*
X833336Y936550*
X833563Y936687*
X833563D02*
X834018D01*
X834018D02*
X834245Y936550D01*
X834472Y936275*
X834472D02*
X834586Y936000D01*
X834700Y935587*
X834700D02*
Y934900D01*
X834586Y934487*
X834586D02*
X834472Y934212D01*
X834472D02*
X834245Y933937D01*
X834245D02*
X834018Y933800D01*
X833563*
X833563D02*
X833336Y933937D01*
X833336D02*
X833109Y934212D01*
X833109D02*
X832995Y934487D01*
X830836Y936687D02*
X831972Y934762D01*
X831972D02*
X830268D01*
X830836Y936687D02*
Y933800D01*
X838000Y943004D02*
X838275Y942890D01*
X838275D02*
X838550Y942663D01*
X838550D02*
X838687Y942436D01*
X838687D02*
Y941981D01*
X838687D02*
X838550Y941754D01*
X838550D02*
X838275Y941527D01*
X838000Y941413*
X838000D02*
X837587Y941300D01*
X837587D02*
X836900D01*
X836487Y941413*
X836487D02*
X836212Y941527D01*
X836212D02*
X835937Y941754D01*
X835937D02*
X835800Y941981D01*
X835800D02*
Y942436D01*
X835937Y942663*
X835937D02*
X836212Y942890D01*
X836212D02*
X836487Y943004D01*
X838687Y944254D02*
Y945504D01*
X838687D02*
X837587Y944822D01*
X837587D02*
Y945163D01*
X837587D02*
X837450Y945390D01*
X837450D02*
X837312Y945504D01*
X837312D02*
X836900Y945618D01*
X836625*
X836212Y945504*
X836212D02*
X835937Y945277D01*
X835937D02*
X835800Y944936D01*
Y944595*
X835937Y944254*
X835937D02*
X836075Y944140D01*
X836075D02*
X836350Y944027D01*
X804000Y885004D02*
X804275Y884890D01*
X804275D02*
X804550Y884663D01*
X804550D02*
X804687Y884436D01*
X804687D02*
Y883981D01*
X804687D02*
X804550Y883754D01*
X804550D02*
X804275Y883527D01*
X804000Y883413*
X804000D02*
X803587Y883300D01*
X803587D02*
X802900D01*
X802487Y883413*
X802487D02*
X802212Y883527D01*
X802212D02*
X801937Y883754D01*
X801937D02*
X801800Y883981D01*
X801800D02*
Y884436D01*
X801937Y884663*
X801937D02*
X802212Y884890D01*
X802212D02*
X802487Y885004D01*
X804137Y886027D02*
X804275Y886254D01*
X804275D02*
X804687Y886595D01*
X804687D02*
X801800D01*
X804687Y888300D02*
X804550Y887959D01*
X804137Y887731*
X804137D02*
X803450Y887618D01*
X803037*
X803037D02*
X802350Y887731D01*
X802350D02*
X801937Y887959D01*
X801937D02*
X801800Y888300D01*
Y888527*
X801937Y888868*
X801937D02*
X802350Y889095D01*
X803037Y889209*
X803037D02*
X803450D01*
X804137Y889095*
X804137D02*
X804550Y888868D01*
X804687Y888527*
X804687D02*
Y888300D01*
X822495Y872499D02*
X822609Y872774D01*
X822609D02*
X822836Y873049D01*
X822836D02*
X823063Y873187D01*
X823063D02*
X823518D01*
X823745Y873049*
X823745D02*
X823972Y872774D01*
X823972D02*
X824086Y872499D01*
X824086D02*
X824200Y872087D01*
Y871399*
X824200D02*
X824086Y870987D01*
X823972Y870712*
X823972D02*
X823745Y870437D01*
X823518Y870299*
X823518D02*
X823063D01*
X823063D02*
X822836Y870437D01*
X822609Y870712*
X822495Y870987*
X821472Y872637D02*
X821245Y872774D01*
X821245D02*
X820904Y873187D01*
X820904D02*
Y870299D01*
X819768Y872499D02*
Y872637D01*
X819654Y872912*
X819654D02*
X819540Y873049D01*
X819540D02*
X819313Y873187D01*
X819313D02*
X818859D01*
X818631Y873049*
X818631D02*
X818518Y872912D01*
X818404Y872637*
X818404D02*
Y872362D01*
X818404D02*
X818518Y872087D01*
X818745Y871674*
X818745D02*
X819881Y870299D01*
X819881D02*
X818290D01*
X805000Y844504D02*
X805275Y844390D01*
X805275D02*
X805550Y844163D01*
X805550D02*
X805687Y843936D01*
X805687D02*
Y843481D01*
X805687D02*
X805550Y843254D01*
X805550D02*
X805275Y843027D01*
X805000Y842913*
X805000D02*
X804587Y842800D01*
X804587D02*
X803900D01*
X803487Y842913*
X803487D02*
X803212Y843027D01*
X803212D02*
X802937Y843254D01*
X802937D02*
X802800Y843481D01*
X802800D02*
Y843936D01*
X802937Y844163*
X802937D02*
X803212Y844390D01*
X803212D02*
X803487Y844504D01*
X805137Y845527D02*
X805275Y845754D01*
X805275D02*
X805687Y846095D01*
X805687D02*
X802800D01*
X805687Y847345D02*
Y848595D01*
X805687D02*
X804587Y847913D01*
X804587D02*
Y848254D01*
X804587D02*
X804450Y848481D01*
X804450D02*
X804312Y848595D01*
X804312D02*
X803900Y848709D01*
X803625*
X803212Y848595*
X803212D02*
X802937Y848368D01*
X802937D02*
X802800Y848027D01*
Y847686*
X802937Y847345*
X802937D02*
X803075Y847231D01*
X803075D02*
X803350Y847118D01*
X825187Y915300D02*
X822299D01*
X825187D02*
Y916322D01*
X825187D02*
X825049Y916663D01*
X825049D02*
X824912Y916777D01*
X824637Y916890*
X824637D02*
X824362D01*
X824362D02*
X824087Y916777D01*
X823949Y916663*
X823949D02*
X823812Y916322D01*
X823812D02*
Y915300D01*
Y916095D02*
X822299Y916890D01*
X824637Y917913D02*
X824774Y918140D01*
X824774D02*
X825187Y918481D01*
X825187D02*
X822299D01*
X826200Y941687D02*
Y938800D01*
Y941687D02*
X825177D01*
X825177D02*
X824836Y941550D01*
X824722Y941412*
X824722D02*
X824609Y941137D01*
X824609D02*
Y940862D01*
X824609D02*
X824722Y940587D01*
X824722D02*
X824836Y940450D01*
X825177Y940312*
X825177D02*
X826200D01*
X825404D02*
X824609Y938800D01*
X823472Y941000D02*
Y941137D01*
X823472D02*
X823359Y941412D01*
X823359D02*
X823245Y941550D01*
X823018Y941687*
X823018D02*
X822563D01*
X822563D02*
X822336Y941550D01*
X822222Y941412*
X822222D02*
X822109Y941137D01*
X822109D02*
Y940862D01*
X822109D02*
X822222Y940587D01*
X822222D02*
X822450Y940175D01*
X823586Y938800*
X821995*
X806187Y872300D02*
X803300D01*
X806187D02*
Y873322D01*
X806187D02*
X806050Y873663D01*
X806050D02*
X805912Y873777D01*
X805912D02*
X805637Y873890D01*
X805637D02*
X805362D01*
X805362D02*
X805087Y873777D01*
X805087D02*
X804950Y873663D01*
X804950D02*
X804812Y873322D01*
X804812D02*
Y872300D01*
Y873095D02*
X803300Y873890D01*
X805225Y876390D02*
X804812Y876277D01*
X804812D02*
X804537Y876050D01*
X804537D02*
X804400Y875709D01*
Y875595*
X804537Y875254*
X804537D02*
X804812Y875027D01*
X804812D02*
X805225Y874913D01*
X805225D02*
X805362D01*
X805362D02*
X805775Y875027D01*
X806050Y875254*
X806050D02*
X806187Y875595D01*
X806187D02*
Y875709D01*
X806187D02*
X806050Y876050D01*
X805775Y876277*
X805225Y876390*
X805225D02*
X804537D01*
X804537D02*
X803850Y876277D01*
X803437Y876050*
X803437D02*
X803300Y875709D01*
Y875481*
X803300D02*
X803437Y875140D01*
X803437D02*
X803712Y875027D01*
X828995Y947500D02*
X829109Y947775D01*
X829336Y948050*
X829563Y948187*
X829563D02*
X830018D01*
X830018D02*
X830245Y948050D01*
X830472Y947775*
X830472D02*
X830586Y947500D01*
X830700Y947087*
X830700D02*
Y946400D01*
X830586Y945987*
X830586D02*
X830472Y945712D01*
X830472D02*
X830245Y945437D01*
X830245D02*
X830018Y945300D01*
X829563*
X829563D02*
X829336Y945437D01*
X829336D02*
X829109Y945712D01*
X829109D02*
X828995Y945987D01*
X828995D02*
Y946400D01*
X829563D02*
X828995D01*
X827972Y948187D02*
Y945300D01*
Y948187D02*
X826495D01*
X827972Y946812D02*
X827063D01*
X827972Y945300D02*
X826495D01*
X825472Y948187D02*
Y945300D01*
Y948187D02*
X823881Y945300D01*
Y948187D02*
Y945300D01*
X822063Y948187D02*
Y945300D01*
X822859Y948187D02*
X821268D01*
X820245D02*
Y946125D01*
X820131Y945712*
X820131D02*
X819904Y945437D01*
X819904D02*
X819563Y945300D01*
X819563D02*
X819336D01*
X818995Y945437*
X818995D02*
X818768Y945712D01*
X818768D02*
X818654Y946125D01*
X818654D02*
Y948187D01*
X817631D02*
Y945300D01*
Y948187D02*
X816609D01*
X816609D02*
X816268Y948050D01*
X816154Y947912*
X816154D02*
X816040Y947637D01*
X816040D02*
Y947362D01*
X816040D02*
X816154Y947087D01*
X816154D02*
X816268Y946950D01*
X816609Y946812*
X816609D02*
X817631D01*
X816836D02*
X816040Y945300D01*
X815018Y948187D02*
Y945300D01*
X811381Y948187D02*
Y945300D01*
X810359Y948187D02*
Y945300D01*
Y948187D02*
X808768Y945300D01*
Y948187D02*
Y945300D01*
X806040Y947500D02*
X806154Y947775D01*
X806154D02*
X806381Y948050D01*
X806381D02*
X806609Y948187D01*
X806609D02*
X807063D01*
X807063D02*
X807290Y948050D01*
X807290D02*
X807518Y947775D01*
X807631Y947500*
X807631D02*
X807745Y947087D01*
X807745D02*
Y946400D01*
X807631Y945987*
X807631D02*
X807518Y945712D01*
X807518D02*
X807290Y945437D01*
X807290D02*
X807063Y945300D01*
X807063D02*
X806609D01*
X806381Y945437*
X806381D02*
X806154Y945712D01*
X806154D02*
X806040Y945987D01*
X861177Y916275D02*
Y913800D01*
X862200Y915037D02*
X860154D01*
X824677Y878275D02*
Y875800D01*
X825700Y877037D02*
X823654D01*
X803677Y856275D02*
Y853800D01*
X804700Y855037D02*
X802654D01*
G74*
X0Y0D02*
M02*
