M48
%
T1C.015
X0249Y0469
X0239Y0469
X0249Y0481
X0239Y0481
X02835Y0486
X0261Y0481
X0271Y0481
X0279Y048
X0271Y0469
X0261Y0469
X0279Y0435
X02835Y0429
X02965Y0429
X0301Y0435
X0301Y048
X02965Y0486
X03075Y0488
X0323Y0473
X03595Y0473
X03595Y0457
X0323Y0457
X0376Y0429
X03715Y0435
X038Y04415
X03835Y0452
X03765Y0452
X03835Y0463
X03765Y0463
X038Y04735
X03715Y048
X0376Y0486
X0389Y0486
X03935Y048
X0387Y04735
X0389Y0463
X0389Y0452
X0387Y04415
X03935Y0435
X0389Y0429
X0424Y04415
X0414Y04415
X0424Y04535
X0414Y04535
X0424Y0469
X0414Y0469
X0424Y0481
X0414Y0481
X0446Y0481
X0436Y0481
X0446Y0469
X0436Y0469
X0446Y04535
X0436Y04535
X0436Y04415
X0446Y04415
T2C.035
X0231Y04115
X0221Y04115
X0211Y04115
X0251Y04115
X0241Y04115
X0271Y04115
X0261Y04115
X0281Y04115
X0291Y04115
X0301Y04115
T3C.043
X0244Y05025
X0253Y05025
X02395Y05125
X02485Y05125
X02575Y05125
X0244Y05225
X0253Y05225
X0262Y05225
X0271Y05225
X028Y05225
X02665Y05125
X02755Y05125
X028Y05025
X0262Y05025
X0271Y05025
X04025Y04115
X0405Y05025
X04095Y05125
X0405Y05225
X0432Y05225
X0423Y05225
X0414Y05225
X04275Y05125
X04185Y05125
X0414Y05025
X0432Y05025
X0423Y05025
X04325Y04115
X04225Y04115
X04125Y04115
X04525Y04115
X04425Y04115
X0441Y05025
X04455Y05125
X04365Y05125
X0441Y05225
X04625Y04115
X04725Y04115
T4C.126
X02118Y05125
X03102Y05125
X03728Y05125
X04712Y05125
T5C.134
X02197Y04591
X03417Y05339
X03417Y04157
X04638Y04591
M30
