*
*
G04 PADS Layout (Build Number 2005.103.1) generated Gerber (RS-274-X) file*
G04 PC Version=2.1*
*
%IN "7758.pcb"*%
*
%MOIN*%
*
%FSLAX35Y35*%
*
*
*
*
G04 PC Standard Apertures*
*
*
G04 Thermal Relief Aperture macro.*
%AMTER*
1,1,$1,0,0*
1,0,$1-$2,0,0*
21,0,$3,$4,0,0,45*
21,0,$3,$4,0,0,135*
%
*
*
G04 Annular Aperture macro.*
%AMANN*
1,1,$1,0,0*
1,0,$2,0,0*
%
*
*
G04 Odd Aperture macro.*
%AMODD*
1,1,$1,0,0*
1,0,$1-0.005,0,0*
%
*
*
G04 PC Custom Aperture Macros*
*
*
*
*
*
*
G04 PC Aperture Table*
*
%ADD014C,0.065*%
%ADD018R,0.065X0.065*%
%ADD024C,0.2*%
%ADD030C,0.04*%
%ADD052C,0.01*%
%ADD053C,0.02*%
%ADD054C,0.015*%
%ADD056C,0.05*%
%ADD058C,0.025*%
%ADD074R,0.045X0.071*%
%ADD081R,0.071X0.045*%
%ADD097R,0.038X0.036*%
%ADD138C,0.03*%
%ADD180R,0.064X0.11*%
%ADD193C,0.25*%
%ADD208R,0.138X0.063*%
%ADD209R,0.016X0.05*%
*
*
*
*
G04 PC Custom Flashes*
G04 Layer Name 7758.pcb - flashes*
%LPD*%
*
*
G04 PC Circuitry*
G04 Layer Name 7758.pcb - circuitry*
%LPD*%
*
G54D14*
G01X844000Y902500D03*
X853000D03*
X862000D03*
X871000D03*
X880000D03*
X839500Y912500D03*
X848500D03*
X857500D03*
X866500D03*
X875500D03*
X844000Y922500D03*
X853000D03*
X862000D03*
X871000D03*
X880000D03*
X891000Y811500D03*
X881000D03*
X871000D03*
X861000D03*
X851000D03*
X841000D03*
X831000D03*
X821000D03*
X811000D03*
X1062500D03*
X1052500D03*
X1042500D03*
X1032500D03*
X1022500D03*
X1012500D03*
X1002500D03*
X1041000Y902500D03*
X1032000D03*
X1023000D03*
X1014000D03*
X1005000D03*
X1045500Y912500D03*
X1036500D03*
X1027500D03*
X1018500D03*
X1009500D03*
X1041000Y922500D03*
X1032000D03*
X1023000D03*
X1014000D03*
X1005000D03*
G54D18*
X901000Y811500D03*
X1072500D03*
G54D24*
X910200Y912500D03*
X811800D03*
X1071200D03*
X972800D03*
G54D30*
X832500Y830000D03*
X930000Y950000D03*
X1075000Y875000D03*
G54D52*
X800000Y800000D02*
X1083500D01*
Y957500*
X800000*
Y800000*
G54D53*
X899181Y792812D02*
Y781000D01*
X896000Y792812D02*
X902363D01*
X909181D02*
X908272Y792250D01*
X908272D02*
X907363Y791125D01*
X907363D02*
X906909Y790000D01*
X906454Y788312*
X906454D02*
Y785500D01*
X906454D02*
X906909Y783812D01*
X906909D02*
X907363Y782687D01*
X907363D02*
X908272Y781562D01*
X908272D02*
X909181Y781000D01*
X909181D02*
X911000D01*
X911909Y781562*
X911909D02*
X912818Y782687D01*
X912818D02*
X913272Y783812D01*
X913272D02*
X913727Y785500D01*
Y788312*
X913727D02*
X913272Y790000D01*
X913272D02*
X912818Y791125D01*
X911909Y792250*
X911000Y792812*
X911000D02*
X909181D01*
X917818D02*
Y781000D01*
Y792812D02*
X921909D01*
X921909D02*
X923272Y792250D01*
X923272D02*
X923727Y791687D01*
X923727D02*
X924181Y790562D01*
X924181D02*
Y788875D01*
X924181D02*
X923727Y787750D01*
X923272Y787187*
X923272D02*
X921909Y786625D01*
X917818*
X945090Y791125D02*
X944181Y792250D01*
X944181D02*
X942818Y792812D01*
X942818D02*
X941000D01*
X941000D02*
X939636Y792250D01*
X938727Y791125*
Y790000*
X939181Y788875*
X939181D02*
X939636Y788312D01*
X939636D02*
X940545Y787750D01*
X943272Y786625*
X943272D02*
X944181Y786062D01*
X944181D02*
X944636Y785500D01*
X945090Y784375*
X945090D02*
Y782687D01*
X945090D02*
X944181Y781562D01*
X944181D02*
X942818Y781000D01*
X941000*
X939636Y781562*
X939636D02*
X938727Y782687D01*
X949181Y792812D02*
Y781000D01*
X953272Y792812D02*
Y781000D01*
Y792812D02*
X956454D01*
X956454D02*
X957818Y792250D01*
X958727Y791125*
X959181Y790000*
X959181D02*
X959636Y788312D01*
X959636D02*
Y785500D01*
X959181Y783812*
X959181D02*
X958727Y782687D01*
X958727D02*
X957818Y781562D01*
X957818D02*
X956454Y781000D01*
X956454D02*
X953272D01*
X963727Y792812D02*
Y781000D01*
Y792812D02*
X969636D01*
X963727Y787187D02*
X967363D01*
X963727Y781000D02*
X969636D01*
X871909Y767812D02*
X876909D01*
X876909D02*
X874181Y763312D01*
X874181D02*
X875545D01*
X875545D02*
X876454Y762750D01*
X876454D02*
X876909Y762187D01*
X876909D02*
X877363Y760500D01*
X877363D02*
Y759375D01*
X877363D02*
X876909Y757687D01*
X876909D02*
X876000Y756562D01*
X876000D02*
X874636Y756000D01*
X873272*
X873272D02*
X871909Y756562D01*
X871909D02*
X871454Y757125D01*
X871454D02*
X871000Y758250D01*
X881454Y765562D02*
X882363Y766125D01*
X882363D02*
X883727Y767812D01*
X883727D02*
Y756000D01*
X887818Y761062D02*
X896000D01*
X902818Y767812D02*
X901454Y767250D01*
X901454D02*
X900545Y765562D01*
X900545D02*
X900090Y762750D01*
X900090D02*
Y761062D01*
X900090D02*
X900545Y758250D01*
X901454Y756562*
X901454D02*
X902818Y756000D01*
X903727*
X905090Y756562*
X905090D02*
X906000Y758250D01*
X906454Y761062*
X906454D02*
Y762750D01*
X906454D02*
X906000Y765562D01*
X906000D02*
X905090Y767250D01*
X905090D02*
X903727Y767812D01*
X903727D02*
X902818D01*
X913272D02*
X911909Y767250D01*
X911000Y765562*
X911000D02*
X910545Y762750D01*
Y761062*
X910545D02*
X911000Y758250D01*
X911909Y756562*
X911909D02*
X913272Y756000D01*
X913272D02*
X914181D01*
X914181D02*
X915545Y756562D01*
X915545D02*
X916454Y758250D01*
X916454D02*
X916909Y761062D01*
X916909D02*
Y762750D01*
X916454Y765562*
X916454D02*
X915545Y767250D01*
X914181Y767812*
X914181D02*
X913272D01*
X923727D02*
X922363Y767250D01*
X922363D02*
X921454Y765562D01*
X921454D02*
X921000Y762750D01*
Y761062*
X921000D02*
X921454Y758250D01*
X921454D02*
X922363Y756562D01*
X922363D02*
X923727Y756000D01*
X924636*
X926000Y756562*
X926000D02*
X926909Y758250D01*
X927363Y761062*
X927363D02*
Y762750D01*
X927363D02*
X926909Y765562D01*
X926909D02*
X926000Y767250D01*
X924636Y767812*
X924636D02*
X923727D01*
X937818D02*
X933272Y756000D01*
X931454Y767812D02*
X937818D01*
X952363D02*
Y756000D01*
Y767812D02*
X956454D01*
X956454D02*
X957818Y767250D01*
X958272Y766687*
X958272D02*
X958727Y765562D01*
X958727D02*
Y764437D01*
X958727D02*
X958272Y763312D01*
X958272D02*
X957818Y762750D01*
X956454Y762187*
X956454D02*
X952363D01*
X955545D02*
X958727Y756000D01*
X962818Y767812D02*
Y756000D01*
Y767812D02*
X968727D01*
X962818Y762187D02*
X966454D01*
X962818Y756000D02*
X968727D01*
X972818Y767812D02*
X976454Y756000D01*
X980090Y767812D02*
X976454Y756000D01*
X994636Y765562D02*
X995545Y766125D01*
X996909Y767812*
X996909D02*
Y756000D01*
G54D54*
X901000Y811500D02*
Y819000D01*
X907500Y825500*
Y846948*
X881250Y846500D02*
Y839250D01*
X883000Y837500*
Y835000*
X884192*
X897000D02*
Y837500D01*
X898750Y839250*
Y846500*
X905000Y858500D02*
X907500D01*
Y859448*
X905000Y858500D02*
X912500D01*
X915000Y861000*
Y889500*
X896250Y846500D02*
Y851250D01*
X899000Y854000*
X907500*
Y853051*
X980000Y841500D02*
X981250Y843500D01*
Y846500*
X983500Y852000D02*
X983750D01*
Y846500*
X989500Y835000D02*
Y837500D01*
X991250Y839250*
Y846500*
X988750D02*
Y852000D01*
X989000*
X986250Y846500D02*
Y843500D01*
X987000Y841500*
X976250Y846500D02*
Y852000D01*
X976500*
X973750Y846500D02*
Y839250D01*
X975500Y837500*
Y835000*
X976692*
X881250Y868500D02*
Y875750D01*
X883000Y877500*
Y880000*
X896250Y868500D02*
Y861250D01*
X899000Y858500*
X905000*
X907500Y871692D02*
Y865551D01*
X895807Y880000D02*
X897000D01*
Y877500*
X898750Y875750*
Y868500*
X983500Y863000D02*
X983750D01*
Y868500*
X980000Y873500D02*
X981250Y871500D01*
Y868500*
X973750D02*
Y875750D01*
X975500Y877500*
Y880000*
X976250Y868500D02*
Y863000D01*
X976500*
X986250Y868500D02*
Y871500D01*
X987000Y873500*
X988750Y868500D02*
Y863000D01*
X989000*
X988307Y880000D02*
X989500D01*
Y877500*
X991250Y875750*
Y868500*
X862000Y922500D02*
X868500Y929000D01*
X884500*
X887500Y926000*
Y897000*
X891500Y893000*
X911500*
X915000Y889500*
G54D56*
X946988Y865000D02*
X935511D01*
X935511D02*
Y882500D01*
X946988Y865000D02*
Y882500D01*
X958011D02*
Y897711D01*
X958011D02*
X972800Y912500D01*
X935511Y882500D02*
X946988D01*
X811800Y912500D02*
Y928000D01*
X819300Y935500*
X902700*
X910200Y928000*
Y912500*
X924488Y898211*
X924488D02*
Y882500D01*
X972800Y912500D02*
Y928000D01*
X980300Y935500*
X1063700*
X1071200Y928000*
Y912500*
G54D58*
X879000Y835000D02*
X884192D01*
X883500Y829000D02*
Y835000D01*
X884192*
X897000D02*
X901000D01*
X923000Y857000D02*
Y873000D01*
X895807Y835000D02*
X896500D01*
Y829000*
X895807Y835000D02*
X897000D01*
X959500Y857000D02*
Y873000D01*
X989500Y835000D02*
X993500D01*
X971500D02*
X976692D01*
X976000Y829000D02*
Y835000D01*
X976692*
X988307D02*
X989000D01*
Y829000*
X988307Y835000D02*
X989500D01*
X1046000Y841500D02*
Y853500D01*
X1036000Y841500D02*
Y847500D01*
X1041023*
X1036000Y841500D02*
Y853500D01*
X1024000Y841500D02*
Y853500D01*
X1014000Y841500D02*
Y853500D01*
Y847500*
X1018976*
X1024000*
Y853500*
X1041023Y847500D02*
X1046000D01*
Y841500*
X849000Y869000D02*
Y881000D01*
X839000D02*
Y875000D01*
X843976*
X839000Y869000D02*
Y881000D01*
X843976Y875000D02*
X849000D01*
Y881000*
X861000Y869000D02*
Y875000D01*
X866023*
X861000Y869000D02*
Y881000D01*
X871000Y869000D02*
Y881000D01*
X883000Y880000D02*
X884192D01*
X883500Y886000D02*
Y880000D01*
X884192*
X879000D02*
X883000D01*
X866023Y875000D02*
X871000D01*
Y869000*
X923000Y873000D02*
Y865000D01*
X924488*
X907500Y888000D02*
Y883307D01*
X895807Y880000D02*
X896500D01*
Y886000*
X895807Y880000D02*
X901000D01*
X958011Y865000D02*
X959500D01*
Y873000*
X975500Y880000D02*
X976692D01*
X976000Y886000D02*
Y880000D01*
X976692*
X971500D02*
X975500D01*
X993500D02*
X988307D01*
X989000*
Y886000*
X1046000Y869000D02*
Y881000D01*
X1036000Y869000D02*
Y875000D01*
X1041023*
X1036000Y869000D02*
Y881000D01*
X1024000Y869000D02*
Y881000D01*
X1014000Y869000D02*
Y881000D01*
Y875000*
X1018976*
X1024000*
Y881000*
X1041023Y875000D02*
X1046000D01*
Y869000*
G54D74*
X884192Y880000D03*
X895807D03*
X884192Y835000D03*
X895807D03*
X976692Y880000D03*
X988307D03*
X976692Y835000D03*
X988307D03*
G54D81*
X907500Y883307D03*
Y871692D03*
G54D97*
Y859448D03*
Y865551D03*
Y853051D03*
Y846948D03*
G54D138*
X879000Y835000D03*
X883500Y829000D03*
X896500D03*
X901000Y835000D03*
X923000Y857000D03*
X959500D03*
X987000Y841500D03*
X976500Y852000D03*
X989000D03*
X980000Y841500D03*
X983500Y852000D03*
X971500Y835000D03*
X976000Y829000D03*
X993500Y835000D03*
X989000Y829000D03*
X1046000Y853500D03*
Y841500D03*
X1036000Y853500D03*
Y841500D03*
X1024000D03*
Y853500D03*
X1014000Y841500D03*
Y853500D03*
X849000Y869000D03*
X839000Y881000D03*
X849000D03*
X839000Y869000D03*
X861000Y881000D03*
Y869000D03*
X871000D03*
Y881000D03*
X883500Y886000D03*
X879000Y880000D03*
X923000Y873000D03*
X896500Y886000D03*
X907500Y888000D03*
X901000Y880000D03*
X959500Y873000D03*
X987000Y873500D03*
X989000Y863000D03*
X983500D03*
X976500D03*
X980000Y873500D03*
X993500Y880000D03*
X989000Y886000D03*
X976000D03*
X971500Y880000D03*
X1046000Y869000D03*
Y881000D03*
X1036000D03*
Y869000D03*
X1024000D03*
Y881000D03*
X1014000Y869000D03*
Y881000D03*
G54D180*
X935511Y882500D03*
X924488D03*
X946988D03*
X958011D03*
X946988Y865000D03*
X958011D03*
X935511D03*
X924488D03*
G54D193*
X819700Y859100D03*
X941700Y815700D03*
X1063800Y859100D03*
X941700Y933900D03*
G54D208*
X1041023Y847500D03*
X1018976D03*
X843976Y875000D03*
X866023D03*
X1041023D03*
X1018976D03*
G54D209*
X898750Y868500D03*
X896250D03*
X893750D03*
X891250D03*
X888750D03*
X886250D03*
X883750D03*
X881250D03*
Y846500D03*
X883750D03*
X886250D03*
X888750D03*
X891250D03*
X893750D03*
X896250D03*
X898750D03*
X991250Y868500D03*
X988750D03*
X986250D03*
X983750D03*
X981250D03*
X978750D03*
X976250D03*
X973750D03*
Y846500D03*
X976250D03*
X978750D03*
X981250D03*
X983750D03*
X986250D03*
X988750D03*
X991250D03*
X0Y0D02*
M02*
