*
*
G04 PADS Layout (Build Number 2005.103.1) generated Gerber (RS-274-X) file*
G04 PC Version=2.1*
*
%IN "7758.pcb"*%
*
%MOIN*%
*
%FSLAX35Y35*%
*
*
*
*
G04 PC Standard Apertures*
*
*
G04 Thermal Relief Aperture macro.*
%AMTER*
1,1,$1,0,0*
1,0,$1-$2,0,0*
21,0,$3,$4,0,0,45*
21,0,$3,$4,0,0,135*
%
*
*
G04 Annular Aperture macro.*
%AMANN*
1,1,$1,0,0*
1,0,$2,0,0*
%
*
*
G04 Odd Aperture macro.*
%AMODD*
1,1,$1,0,0*
1,0,$1-0.005,0,0*
%
*
*
G04 PC Custom Aperture Macros*
*
*
*
*
*
*
G04 PC Aperture Table*
*
%ADD014C,0.065*%
%ADD052C,0.01*%
%ADD053C,0.02*%
%ADD064C,0.006*%
%ADD138C,0.03*%
*
*
*
*
G04 PC Custom Flashes*
G04 Layer Name 7758.pcb - flashes*
%LPD*%
*
*
G04 PC Circuitry*
G04 Layer Name 7758.pcb - circuitry*
%LPD*%
*
G54D14*
G01X844000Y922500D03*
X853000D03*
X1072500Y811500D03*
X1045500Y912500D03*
X1032000Y922500D03*
G54D52*
X800000Y800000D02*
X1083500D01*
Y957500*
X800000*
Y800000*
G54D53*
X871909Y767812D02*
X876909D01*
X876909D02*
X874181Y763312D01*
X874181D02*
X875545D01*
X875545D02*
X876454Y762750D01*
X876454D02*
X876909Y762187D01*
X876909D02*
X877363Y760500D01*
X877363D02*
Y759375D01*
X877363D02*
X876909Y757687D01*
X876909D02*
X876000Y756562D01*
X876000D02*
X874636Y756000D01*
X873272*
X873272D02*
X871909Y756562D01*
X871909D02*
X871454Y757125D01*
X871454D02*
X871000Y758250D01*
X881454Y765562D02*
X882363Y766125D01*
X882363D02*
X883727Y767812D01*
X883727D02*
Y756000D01*
X887818Y761062D02*
X896000D01*
X902818Y767812D02*
X901454Y767250D01*
X901454D02*
X900545Y765562D01*
X900545D02*
X900090Y762750D01*
X900090D02*
Y761062D01*
X900090D02*
X900545Y758250D01*
X901454Y756562*
X901454D02*
X902818Y756000D01*
X903727*
X905090Y756562*
X905090D02*
X906000Y758250D01*
X906454Y761062*
X906454D02*
Y762750D01*
X906454D02*
X906000Y765562D01*
X906000D02*
X905090Y767250D01*
X905090D02*
X903727Y767812D01*
X903727D02*
X902818D01*
X913272D02*
X911909Y767250D01*
X911000Y765562*
X911000D02*
X910545Y762750D01*
Y761062*
X910545D02*
X911000Y758250D01*
X911909Y756562*
X911909D02*
X913272Y756000D01*
X913272D02*
X914181D01*
X914181D02*
X915545Y756562D01*
X915545D02*
X916454Y758250D01*
X916454D02*
X916909Y761062D01*
X916909D02*
Y762750D01*
X916454Y765562*
X916454D02*
X915545Y767250D01*
X914181Y767812*
X914181D02*
X913272D01*
X923727D02*
X922363Y767250D01*
X922363D02*
X921454Y765562D01*
X921454D02*
X921000Y762750D01*
Y761062*
X921000D02*
X921454Y758250D01*
X921454D02*
X922363Y756562D01*
X922363D02*
X923727Y756000D01*
X924636*
X926000Y756562*
X926000D02*
X926909Y758250D01*
X927363Y761062*
X927363D02*
Y762750D01*
X927363D02*
X926909Y765562D01*
X926909D02*
X926000Y767250D01*
X924636Y767812*
X924636D02*
X923727D01*
X937818D02*
X933272Y756000D01*
X931454Y767812D02*
X937818D01*
X952363D02*
Y756000D01*
Y767812D02*
X956454D01*
X956454D02*
X957818Y767250D01*
X958272Y766687*
X958272D02*
X958727Y765562D01*
X958727D02*
Y764437D01*
X958727D02*
X958272Y763312D01*
X958272D02*
X957818Y762750D01*
X956454Y762187*
X956454D02*
X952363D01*
X955545D02*
X958727Y756000D01*
X962818Y767812D02*
Y756000D01*
Y767812D02*
X968727D01*
X962818Y762187D02*
X966454D01*
X962818Y756000D02*
X968727D01*
X972818Y767812D02*
X976454Y756000D01*
X980090Y767812D02*
X976454Y756000D01*
X994636Y765562D02*
X995545Y766125D01*
X996909Y767812*
X996909D02*
Y756000D01*
X866000Y792812D02*
Y781000D01*
X871454*
X879181Y792812D02*
X875545Y781000D01*
X879181Y792812D02*
X882818Y781000D01*
X876909Y784937D02*
X881454D01*
X886909Y792812D02*
X890545Y787187D01*
X890545D02*
Y781000D01*
X894181Y792812D02*
X890545Y787187D01*
X898272Y792812D02*
Y781000D01*
Y792812D02*
X904181D01*
X898272Y787187D02*
X901909D01*
X898272Y781000D02*
X904181D01*
X908272Y792812D02*
Y781000D01*
Y792812D02*
X912363D01*
X912363D02*
X913727Y792250D01*
X914181Y791687*
X914181D02*
X914636Y790562D01*
X914636D02*
Y789437D01*
X914636D02*
X914181Y788312D01*
X914181D02*
X913727Y787750D01*
X912363Y787187*
X912363D02*
X908272D01*
X911454D02*
X914636Y781000D01*
X930090Y792812D02*
X935090D01*
X935090D02*
X932363Y788312D01*
X932363D02*
X933727D01*
X933727D02*
X934636Y787750D01*
X935090Y787187*
X935090D02*
X935545Y785500D01*
Y784375*
X935090Y782687*
X935090D02*
X934181Y781562D01*
X934181D02*
X932818Y781000D01*
X931454*
X931454D02*
X930090Y781562D01*
X930090D02*
X929636Y782125D01*
X929181Y783250*
X950090Y792812D02*
Y781000D01*
Y792812D02*
X954181D01*
X954181D02*
X955545Y792250D01*
X956000Y791687*
X956000D02*
X956454Y790562D01*
X956454D02*
Y788875D01*
X956454D02*
X956000Y787750D01*
X955545Y787187*
X955545D02*
X954181Y786625D01*
X954181D02*
X950090D01*
X963272Y792812D02*
X962363Y792250D01*
X962363D02*
X961454Y791125D01*
X961454D02*
X961000Y790000D01*
X960545Y788312*
X960545D02*
Y785500D01*
X961000Y783812*
X961000D02*
X961454Y782687D01*
X961454D02*
X962363Y781562D01*
X962363D02*
X963272Y781000D01*
X963272D02*
X965090D01*
X965090D02*
X966000Y781562D01*
X966000D02*
X966909Y782687D01*
X966909D02*
X967363Y783812D01*
X967363D02*
X967818Y785500D01*
Y788312*
X967818D02*
X967363Y790000D01*
X967363D02*
X966909Y791125D01*
X966000Y792250*
X965090Y792812*
X965090D02*
X963272D01*
X971909D02*
X974181Y781000D01*
X976454Y792812D02*
X974181Y781000D01*
X976454Y792812D02*
X978727Y781000D01*
X981000Y792812D02*
X978727Y781000D01*
X985090Y792812D02*
Y781000D01*
Y792812D02*
X991000D01*
X985090Y787187D02*
X988727D01*
X985090Y781000D02*
X991000D01*
X995090Y792812D02*
Y781000D01*
Y792812D02*
X999181D01*
X999181D02*
X1000545Y792250D01*
X1001000Y791687*
X1001000D02*
X1001454Y790562D01*
X1001454D02*
Y789437D01*
X1001454D02*
X1001000Y788312D01*
X1001000D02*
X1000545Y787750D01*
X999181Y787187*
X999181D02*
X995090D01*
X998272D02*
X1001454Y781000D01*
X1075540Y814540D02*
X1074798Y813798D01*
X1069459Y814540D02*
X1070201Y813798D01*
X1069459Y808459D02*
X1070201Y809201D01*
X1075540Y808459D02*
X1074798Y809201D01*
X856040Y925540D02*
X855298Y924798D01*
X849959Y925540D02*
X850701Y924798D01*
X849959Y919459D02*
X850701Y920201D01*
X856040Y919459D02*
X855298Y920201D01*
X847040Y925540D02*
X846298Y924798D01*
X840959Y925540D02*
X841701Y924798D01*
X840959Y919459D02*
X841701Y920201D01*
X847040Y919459D02*
X846298Y920201D01*
X1035040Y925540D02*
X1034298Y924798D01*
X1028959Y925540D02*
X1029701Y924798D01*
X1028959Y919459D02*
X1029701Y920201D01*
X1035040Y919459D02*
X1034298Y920201D01*
X1048540Y915540D02*
X1047798Y914798D01*
X1042459Y915540D02*
X1043201Y914798D01*
X1042459Y909459D02*
X1043201Y910201D01*
X1048540Y909459D02*
X1047798Y910201D01*
G54D64*
X1076800Y811500D02*
G75*
G03X1076800I-4300J0D01*
G01X1066550D02*
G03X1066550I-4050J0D01*
G01X1056550D02*
G03X1056550I-4050J0D01*
G01X1046550D02*
G03X1046550I-4050J0D01*
G01X1036550D02*
G03X1036550I-4050J0D01*
G01X1026550D02*
G03X1026550I-4050J0D01*
G01X1026300Y841500D02*
G03X1026300I-2300J0D01*
G01Y853500D02*
G03X1026300I-2300J0D01*
G01X1016550Y811500D02*
G03X1016550I-4050J0D01*
G01X1016300Y841500D02*
G03X1016300I-2300J0D01*
G01Y853500D02*
G03X1016300I-2300J0D01*
G01X1006550Y811500D02*
G03X1006550I-4050J0D01*
G01X989300Y841500D02*
G03X989300I-2300J0D01*
G01X991300Y852000D02*
G03X991300I-2300J0D01*
G01X978300Y829000D02*
G03X978300I-2300J0D01*
G01X982300Y841500D02*
G03X982300I-2300J0D01*
G01X985800Y852000D02*
G03X985800I-2300J0D01*
G01X978800D02*
G03X978800I-2300J0D01*
G01X973800Y835000D02*
G03X973800I-2300J0D01*
G01X954500Y815700D02*
G03X954500I-12800J0D01*
G01X885800Y829000D02*
G03X885800I-2300J0D01*
G01X881300Y835000D02*
G03X881300I-2300J0D01*
G01X925300Y873000D02*
G03X925300I-2300J0D01*
G01X909800Y888000D02*
G03X909800I-2300J0D01*
G01X923000Y912500D02*
G03X923000I-12800J0D01*
G01X881300Y880000D02*
G03X881300I-2300J0D01*
G01X885800Y886000D02*
G03X885800I-2300J0D01*
G01X884050Y902500D02*
G03X884050I-4050J0D01*
G01X873300Y869000D02*
G03X873300I-2300J0D01*
G01Y881000D02*
G03X873300I-2300J0D01*
G01X875050Y902500D02*
G03X875050I-4050J0D01*
G01X879550Y912500D02*
G03X879550I-4050J0D01*
G01X884050Y922500D02*
G03X884050I-4050J0D01*
G01X863300Y869000D02*
G03X863300I-2300J0D01*
G01Y881000D02*
G03X863300I-2300J0D01*
G01X866050Y902500D02*
G03X866050I-4050J0D01*
G01X870550Y912500D02*
G03X870550I-4050J0D01*
G01X875050Y922500D02*
G03X875050I-4050J0D01*
G01X857050Y902500D02*
G03X857050I-4050J0D01*
G01X861550Y912500D02*
G03X861550I-4050J0D01*
G01X866050Y922500D02*
G03X866050I-4050J0D01*
G01X848050Y902500D02*
G03X848050I-4050J0D01*
G01X852550Y912500D02*
G03X852550I-4050J0D01*
G01X857300Y922500D02*
G03X857300I-4300J0D01*
G01X843550Y912500D02*
G03X843550I-4050J0D01*
G01X848300Y922500D02*
G03X848300I-4300J0D01*
G01X1045050Y902500D02*
G03X1045050I-4050J0D01*
G01X1049800Y912500D02*
G03X1049800I-4300J0D01*
G01X1036050Y902500D02*
G03X1036050I-4050J0D01*
G01X1040550Y912500D02*
G03X1040550I-4050J0D01*
G01X1045050Y922500D02*
G03X1045050I-4050J0D01*
G01X1026300Y869000D02*
G03X1026300I-2300J0D01*
G01Y881000D02*
G03X1026300I-2300J0D01*
G01X1027050Y902500D02*
G03X1027050I-4050J0D01*
G01X1031550Y912500D02*
G03X1031550I-4050J0D01*
G01X1036300Y922500D02*
G03X1036300I-4300J0D01*
G01X1016300Y869000D02*
G03X1016300I-2300J0D01*
G01Y881000D02*
G03X1016300I-2300J0D01*
G01X1018050Y902500D02*
G03X1018050I-4050J0D01*
G01X1022550Y912500D02*
G03X1022550I-4050J0D01*
G01X1027050Y922500D02*
G03X1027050I-4050J0D01*
G01X1009050Y902500D02*
G03X1009050I-4050J0D01*
G01X1013550Y912500D02*
G03X1013550I-4050J0D01*
G01X1018050Y922500D02*
G03X1018050I-4050J0D01*
G01X1009050D02*
G03X1009050I-4050J0D01*
G01X989300Y873500D02*
G03X989300I-2300J0D01*
G01X982300D02*
G03X982300I-2300J0D01*
G01X973800Y880000D02*
G03X973800I-2300J0D01*
G01X978300Y886000D02*
G03X978300I-2300J0D01*
G01X961800Y873000D02*
G03X961800I-2300J0D01*
G01X985600Y912500D02*
G03X985600I-12800J0D01*
G01X1080699Y802800D02*
Y862200D01*
X1080699D02*
X1076218D01*
X1051381Y862199D02*
G03X1076218I12419J-3099D01*
G01X1051381Y862200D02*
X991156D01*
X986843D02*
G03X991156I2157J800D01*
G01X986843D02*
X985656D01*
X981343D02*
G03X985656I2157J800D01*
G01X981343D02*
X978656D01*
X974343D02*
G03X978656I2157J800D01*
G01X974343D02*
X967800D01*
Y852200*
X892200*
Y862200*
X832118*
X807281Y862199D02*
G03X832118I12419J-3099D01*
G01X807281Y862200D02*
X802800D01*
Y802800*
X1080699*
X939700Y946542D02*
Y954699D01*
X939700D02*
X802800D01*
X802800D02*
Y921601D01*
Y903398D02*
G03Y921601I9000J9102D01*
G01Y903398D02*
Y865300D01*
X808501*
X830898Y865299D02*
G03X808501I-11198J-6199D01*
G01X830898Y865300D02*
X895300D01*
Y855300*
X921450*
X924549D02*
G03X921450I-1549J1700D01*
G01X924549D02*
X939700D01*
Y921257*
Y946542D02*
G03Y921257I2000J-12642D01*
G01X1080699Y921078D02*
Y954699D01*
X1080699D02*
X942800D01*
X942800D02*
Y946652D01*
X942799Y921147D02*
G03Y946652I-1099J12753D01*
G01X942800Y921147D02*
Y855300D01*
X957950*
X961049D02*
G03X957950I-1549J1700D01*
G01X961049D02*
X964700D01*
Y865300*
X976490*
X976509Y865299D02*
G03X976490I-9J-2299D01*
G01X976509Y865300D02*
X983490D01*
X983509Y865299D02*
G03X983490I-9J-2299D01*
G01X983509Y865300D02*
X988990D01*
X989009Y865299D02*
G03X988990I-9J-2299D01*
G01X989009Y865300D02*
X1052601D01*
X1074998Y865299D02*
G03X1052601I-11198J-6199D01*
G01X1074998Y865300D02*
X1080699D01*
X1080699D02*
Y903921D01*
Y921078D02*
G03Y903921I-9499J-8578D01*
G01X1076800Y811500D02*
G03X1076800I-4300J0D01*
G01X1066550D02*
G03X1066550I-4050J0D01*
G01X1056550D02*
G03X1056550I-4050J0D01*
G01X1046550D02*
G03X1046550I-4050J0D01*
G01X1036550D02*
G03X1036550I-4050J0D01*
G01X1026550D02*
G03X1026550I-4050J0D01*
G01X1026300Y841500D02*
G03X1026300I-2300J0D01*
G01Y853500D02*
G03X1026300I-2300J0D01*
G01X1016550Y811500D02*
G03X1016550I-4050J0D01*
G01X1016300Y841500D02*
G03X1016300I-2300J0D01*
G01Y853500D02*
G03X1016300I-2300J0D01*
G01X1006550Y811500D02*
G03X1006550I-4050J0D01*
G01X989300Y841500D02*
G03X989300I-2300J0D01*
G01X991300Y852000D02*
G03X991300I-2300J0D01*
G01X978300Y829000D02*
G03X978300I-2300J0D01*
G01X982300Y841500D02*
G03X982300I-2300J0D01*
G01X985800Y852000D02*
G03X985800I-2300J0D01*
G01X978800D02*
G03X978800I-2300J0D01*
G01X973800Y835000D02*
G03X973800I-2300J0D01*
G01X954500Y815700D02*
G03X954500I-12800J0D01*
G01X896000Y810790D02*
G03Y812209I5000J710D01*
G01X886000Y810790D02*
G03X895999I5000J710D01*
G01X876000D02*
G03X885999I5000J710D01*
G01X866000D02*
G03X875999I5000J710D01*
G01X856000D02*
G03X865999I5000J710D01*
G01X846000D02*
G03X855999I5000J710D01*
G01X836000D02*
G03X845999I5000J710D01*
G01X826000D02*
G03X835999I5000J710D01*
G01X816000D02*
G03X825999I5000J710D01*
G01X815999Y812209D02*
G03Y810790I-4999J-709D01*
G01X825999Y812209D02*
G03X816000I-4999J-709D01*
G01X835999D02*
G03X826000I-4999J-709D01*
G01X845999D02*
G03X836000I-4999J-709D01*
G01X855999D02*
G03X846000I-4999J-709D01*
G01X865999D02*
G03X856000I-4999J-709D01*
G01X875999D02*
G03X866000I-4999J-709D01*
G01X885999D02*
G03X876000I-4999J-709D01*
G01X895999D02*
G03X886000I-4999J-709D01*
G01X885800Y829000D02*
G03X885800I-2300J0D01*
G01X881300Y835000D02*
G03X881300I-2300J0D01*
G01X925300Y873000D02*
G03X925300I-2300J0D01*
G01X909800Y888000D02*
G03X909800I-2300J0D01*
G01X923000Y912500D02*
G03X923000I-12800J0D01*
G01X881300Y880000D02*
G03X881300I-2300J0D01*
G01X885800Y886000D02*
G03X885800I-2300J0D01*
G01X884050Y902500D02*
G03X884050I-4050J0D01*
G01X873300Y869000D02*
G03X873300I-2300J0D01*
G01Y881000D02*
G03X873300I-2300J0D01*
G01X875050Y902500D02*
G03X875050I-4050J0D01*
G01X879550Y912500D02*
G03X879550I-4050J0D01*
G01X884050Y922500D02*
G03X884050I-4050J0D01*
G01X863300Y869000D02*
G03X863300I-2300J0D01*
G01Y881000D02*
G03X863300I-2300J0D01*
G01X866050Y902500D02*
G03X866050I-4050J0D01*
G01X870550Y912500D02*
G03X870550I-4050J0D01*
G01X875050Y922500D02*
G03X875050I-4050J0D01*
G01X857050Y902500D02*
G03X857050I-4050J0D01*
G01X861550Y912500D02*
G03X861550I-4050J0D01*
G01X866050Y922500D02*
G03X866050I-4050J0D01*
G01X848050Y902500D02*
G03X848050I-4050J0D01*
G01X852550Y912500D02*
G03X852550I-4050J0D01*
G01X857300Y922500D02*
G03X857300I-4300J0D01*
G01X843550Y912500D02*
G03X843550I-4050J0D01*
G01X848300Y922500D02*
G03X848300I-4300J0D01*
G01X1045050Y902500D02*
G03X1045050I-4050J0D01*
G01X1049800Y912500D02*
G03X1049800I-4300J0D01*
G01X1036050Y902500D02*
G03X1036050I-4050J0D01*
G01X1040550Y912500D02*
G03X1040550I-4050J0D01*
G01X1045050Y922500D02*
G03X1045050I-4050J0D01*
G01X1026300Y869000D02*
G03X1026300I-2300J0D01*
G01Y881000D02*
G03X1026300I-2300J0D01*
G01X1027050Y902500D02*
G03X1027050I-4050J0D01*
G01X1031550Y912500D02*
G03X1031550I-4050J0D01*
G01X1036300Y922500D02*
G03X1036300I-4300J0D01*
G01X1016300Y869000D02*
G03X1016300I-2300J0D01*
G01Y881000D02*
G03X1016300I-2300J0D01*
G01X1018050Y902500D02*
G03X1018050I-4050J0D01*
G01X1022550Y912500D02*
G03X1022550I-4050J0D01*
G01X1027050Y922500D02*
G03X1027050I-4050J0D01*
G01X1009050Y902500D02*
G03X1009050I-4050J0D01*
G01X1013550Y912500D02*
G03X1013550I-4050J0D01*
G01X1018050Y922500D02*
G03X1018050I-4050J0D01*
G01X1009050D02*
G03X1009050I-4050J0D01*
G01X989300Y873500D02*
G03X989300I-2300J0D01*
G01X982300D02*
G03X982300I-2300J0D01*
G01X973800Y880000D02*
G03X973800I-2300J0D01*
G01X978300Y886000D02*
G03X978300I-2300J0D01*
G01X961800Y873000D02*
G03X961800I-2300J0D01*
G01X985600Y912500D02*
G03X985600I-12800J0D01*
G01X1076219Y862198D02*
X1080699D01*
X1076341Y861658D02*
X1080699D01*
X1076439Y861118D02*
X1080699D01*
X1076514Y860578D02*
X1080699D01*
X1076565Y860038D02*
X1080699D01*
X1076593Y859498D02*
X1080699D01*
X1076599Y858958D02*
X1080699D01*
X1076581Y858418D02*
X1080699D01*
X1076541Y857878D02*
X1080699D01*
X1076478Y857338D02*
X1080699D01*
X1076391Y856798D02*
X1080699D01*
X1076280Y856258D02*
X1080699D01*
X1076145Y855718D02*
X1080699D01*
X1075984Y855178D02*
X1080699D01*
X1075797Y854638D02*
X1080699D01*
X1075582Y854098D02*
X1080699D01*
X1075338Y853558D02*
X1080699D01*
X1075063Y853018D02*
X1080699D01*
X1074754Y852478D02*
X1080699D01*
X1074409Y851938D02*
X1080699D01*
X1074024Y851398D02*
X1080699D01*
X1073593Y850858D02*
X1080699D01*
X1073112Y850318D02*
X1080699D01*
X1072572Y849778D02*
X1080699D01*
X1071960Y849238D02*
X1080699D01*
X1071260Y848698D02*
X1080699D01*
X1070442Y848158D02*
X1080699D01*
X1069458Y847618D02*
X1080699D01*
X1068196Y847078D02*
X1080699D01*
X1066260Y846538D02*
X1080699D01*
X802800Y845998D02*
X1080699D01*
X802800Y845458D02*
X1080699D01*
X802800Y844918D02*
X1080699D01*
X802800Y844378D02*
X1080699D01*
X802800Y843838D02*
X1080699D01*
X1025433Y843298D02*
X1080699D01*
X1025925Y842758D02*
X1080699D01*
X1026184Y842218D02*
X1080699D01*
X1026293Y841678D02*
X1080699D01*
X1026271Y841138D02*
X1080699D01*
X1026116Y840598D02*
X1080699D01*
X1025792Y840058D02*
X1080699D01*
X1025168Y839518D02*
X1080699D01*
X802800Y838978D02*
X1080699D01*
X802800Y838438D02*
X1080699D01*
X802800Y837898D02*
X1080699D01*
X802800Y837358D02*
X1080699D01*
X972907Y836818D02*
X1080699D01*
X973411Y836278D02*
X1080699D01*
X973678Y835738D02*
X1080699D01*
X973791Y835198D02*
X1080699D01*
X973774Y834658D02*
X1080699D01*
X973624Y834118D02*
X1080699D01*
X973308Y833578D02*
X1080699D01*
X972701Y833038D02*
X1080699D01*
X802800Y832498D02*
X1080699D01*
X802800Y831958D02*
X1080699D01*
X802800Y831418D02*
X1080699D01*
X977326Y830878D02*
X1080699D01*
X977870Y830338D02*
X1080699D01*
X978156Y829798D02*
X1080699D01*
X978285Y829258D02*
X1080699D01*
X978282Y828718D02*
X1080699D01*
X978148Y828178D02*
X1080699D01*
X977853Y827638D02*
X1080699D01*
X977294Y827098D02*
X1080699D01*
X948477Y826558D02*
X1080699D01*
X949273Y826018D02*
X1080699D01*
X949959Y825478D02*
X1080699D01*
X950559Y824938D02*
X1080699D01*
X951090Y824398D02*
X1080699D01*
X951562Y823858D02*
X1080699D01*
X951985Y823318D02*
X1080699D01*
X952364Y822778D02*
X1080699D01*
X952703Y822238D02*
X1080699D01*
X953007Y821698D02*
X1080699D01*
X953277Y821158D02*
X1080699D01*
X953517Y820618D02*
X1080699D01*
X953727Y820078D02*
X1080699D01*
X953910Y819538D02*
X1080699D01*
X954067Y818998D02*
X1080699D01*
X954199Y818458D02*
X1080699D01*
X954306Y817918D02*
X1080699D01*
X954389Y817378D02*
X1080699D01*
X954449Y816838D02*
X1080699D01*
X954486Y816298D02*
X1080699D01*
X1073094Y815758D02*
X1080699D01*
X1074659Y815218D02*
X1080699D01*
X1075395Y814678D02*
X1080699D01*
X1075895Y814138D02*
X1080699D01*
X1076253Y813598D02*
X1080699D01*
X1076507Y813058D02*
X1080699D01*
X1076677Y812518D02*
X1080699D01*
X1076773Y811978D02*
X1080699D01*
X1076799Y811438D02*
X1080699D01*
X1076757Y810898D02*
X1080699D01*
X1076645Y810358D02*
X1080699D01*
X1076457Y809818D02*
X1080699D01*
X1076181Y809278D02*
X1080699D01*
X1075796Y808738D02*
X1080699D01*
X1075255Y808198D02*
X1080699D01*
X1074432Y807658D02*
X1080699D01*
X951197Y807118D02*
X1080699D01*
X950680Y806578D02*
X1080699D01*
X950096Y806038D02*
X1080699D01*
X949431Y805498D02*
X1080699D01*
X948661Y804958D02*
X1080699D01*
X947747Y804418D02*
X1080699D01*
X946608Y803878D02*
X1080699D01*
X945022Y803338D02*
X1080699D01*
X954499Y815758D02*
X1071905D01*
X1063783Y807658D02*
X1070567D01*
X1064104Y815218D02*
X1070340D01*
X1064846Y808198D02*
X1069744D01*
X1065009Y814678D02*
X1069604D01*
X1065462Y808738D02*
X1069203D01*
X1065572Y814138D02*
X1069104D01*
X1065886Y809278D02*
X1068818D01*
X1065963Y813598D02*
X1068746D01*
X1066184Y809818D02*
X1068542D01*
X1066238Y813058D02*
X1068492D01*
X1066385Y810358D02*
X1068354D01*
X1066419Y812518D02*
X1068322D01*
X1066505Y810898D02*
X1068242D01*
X1066521Y811978D02*
X1068226D01*
X1066549Y811438D02*
X1068200D01*
X822160Y846538D02*
X1061339D01*
X1053783Y807658D02*
X1061216D01*
X1054104Y815218D02*
X1060895D01*
X1054846Y808198D02*
X1060153D01*
X1055009Y814678D02*
X1059990D01*
X1055462Y808738D02*
X1059537D01*
X1055572Y814138D02*
X1059427D01*
X824096Y847078D02*
X1059403D01*
X1055886Y809278D02*
X1059113D01*
X1055963Y813598D02*
X1059036D01*
X1056184Y809818D02*
X1058815D01*
X1056238Y813058D02*
X1058761D01*
X1056385Y810358D02*
X1058614D01*
X1056419Y812518D02*
X1058580D01*
X1056505Y810898D02*
X1058494D01*
X1056521Y811978D02*
X1058478D01*
X1056549Y811438D02*
X1058450D01*
X825358Y847618D02*
X1058141D01*
X826342Y848158D02*
X1057157D01*
X827160Y848698D02*
X1056339D01*
X827860Y849238D02*
X1055639D01*
X989596Y849778D02*
X1055027D01*
X990569Y850318D02*
X1054487D01*
X990996Y850858D02*
X1054006D01*
X1024935Y851398D02*
X1053575D01*
X1025688Y851938D02*
X1053190D01*
X1026060Y852478D02*
X1052845D01*
X1026249Y853018D02*
X1052536D01*
X1026299Y853558D02*
X1052261D01*
X1026220Y854098D02*
X1052017D01*
X1025998Y854638D02*
X1051802D01*
X1025572Y855178D02*
X1051615D01*
X1024606Y855718D02*
X1051454D01*
X991155Y862198D02*
X1051380D01*
X967800Y856258D02*
X1051319D01*
X990868Y861658D02*
X1051258D01*
X1043783Y807658D02*
X1051216D01*
X967800Y856798D02*
X1051208D01*
X990323Y861118D02*
X1051160D01*
X967800Y857338D02*
X1051121D01*
X967800Y860578D02*
X1051085D01*
X967800Y857878D02*
X1051058D01*
X967800Y860038D02*
X1051034D01*
X967800Y858418D02*
X1051018D01*
X967800Y859498D02*
X1051006D01*
X967800Y858958D02*
X1051000D01*
X1044104Y815218D02*
X1050895D01*
X1044846Y808198D02*
X1050153D01*
X1045009Y814678D02*
X1049990D01*
X1045462Y808738D02*
X1049537D01*
X1045572Y814138D02*
X1049427D01*
X1045886Y809278D02*
X1049113D01*
X1045963Y813598D02*
X1049036D01*
X1046184Y809818D02*
X1048815D01*
X1046238Y813058D02*
X1048761D01*
X1046385Y810358D02*
X1048614D01*
X1046419Y812518D02*
X1048580D01*
X1046505Y810898D02*
X1048494D01*
X1046521Y811978D02*
X1048478D01*
X1046549Y811438D02*
X1048450D01*
X1033783Y807658D02*
X1041216D01*
X1034104Y815218D02*
X1040895D01*
X1034846Y808198D02*
X1040153D01*
X1035009Y814678D02*
X1039990D01*
X1035462Y808738D02*
X1039537D01*
X1035572Y814138D02*
X1039427D01*
X1035886Y809278D02*
X1039113D01*
X1035963Y813598D02*
X1039036D01*
X1036184Y809818D02*
X1038815D01*
X1036238Y813058D02*
X1038761D01*
X1036385Y810358D02*
X1038614D01*
X1036419Y812518D02*
X1038580D01*
X1036505Y810898D02*
X1038494D01*
X1036521Y811978D02*
X1038478D01*
X1036549Y811438D02*
X1038450D01*
X1023783Y807658D02*
X1031216D01*
X1024104Y815218D02*
X1030895D01*
X1024846Y808198D02*
X1030153D01*
X1025009Y814678D02*
X1029990D01*
X1025462Y808738D02*
X1029537D01*
X1025572Y814138D02*
X1029427D01*
X1025886Y809278D02*
X1029113D01*
X1025963Y813598D02*
X1029036D01*
X1026184Y809818D02*
X1028815D01*
X1026238Y813058D02*
X1028761D01*
X1026385Y810358D02*
X1028614D01*
X1026419Y812518D02*
X1028580D01*
X1026505Y810898D02*
X1028494D01*
X1026521Y811978D02*
X1028478D01*
X1026549Y811438D02*
X1028450D01*
X1014606Y855718D02*
X1023393D01*
X1014935Y851398D02*
X1023064D01*
X1015168Y839518D02*
X1022831D01*
X1015433Y843298D02*
X1022566D01*
X1015572Y855178D02*
X1022427D01*
X1015688Y851938D02*
X1022311D01*
X1015792Y840058D02*
X1022207D01*
X1015925Y842758D02*
X1022074D01*
X1015998Y854638D02*
X1022001D01*
X1016060Y852478D02*
X1021939D01*
X1016116Y840598D02*
X1021883D01*
X1016184Y842218D02*
X1021815D01*
X1016220Y854098D02*
X1021779D01*
X1016249Y853018D02*
X1021750D01*
X1016271Y841138D02*
X1021728D01*
X1016293Y841678D02*
X1021706D01*
X1016299Y853558D02*
X1021700D01*
X1013783Y807658D02*
X1021216D01*
X1014104Y815218D02*
X1020895D01*
X1014846Y808198D02*
X1020153D01*
X1015009Y814678D02*
X1019990D01*
X1015462Y808738D02*
X1019537D01*
X1015572Y814138D02*
X1019427D01*
X1015886Y809278D02*
X1019113D01*
X1015963Y813598D02*
X1019036D01*
X1016184Y809818D02*
X1018815D01*
X1016238Y813058D02*
X1018761D01*
X1016385Y810358D02*
X1018614D01*
X1016419Y812518D02*
X1018580D01*
X1016505Y810898D02*
X1018494D01*
X1016521Y811978D02*
X1018478D01*
X1016549Y811438D02*
X1018450D01*
X967800Y855718D02*
X1013393D01*
X991220Y851398D02*
X1013064D01*
X988168Y839518D02*
X1012831D01*
X988433Y843298D02*
X1012566D01*
X967800Y855178D02*
X1012427D01*
X991299Y851938D02*
X1012311D01*
X988792Y840058D02*
X1012207D01*
X988925Y842758D02*
X1012074D01*
X967800Y854638D02*
X1012001D01*
X991249Y852478D02*
X1011939D01*
X989116Y840598D02*
X1011883D01*
X989184Y842218D02*
X1011815D01*
X989941Y854098D02*
X1011779D01*
X991062Y853018D02*
X1011750D01*
X989271Y841138D02*
X1011728D01*
X989293Y841678D02*
X1011706D01*
X990691Y853558D02*
X1011700D01*
X1003783Y807658D02*
X1011216D01*
X1004104Y815218D02*
X1010895D01*
X1004846Y808198D02*
X1010153D01*
X1005009Y814678D02*
X1009990D01*
X1005462Y808738D02*
X1009537D01*
X1005572Y814138D02*
X1009427D01*
X1005886Y809278D02*
X1009113D01*
X1005963Y813598D02*
X1009036D01*
X1006184Y809818D02*
X1008815D01*
X1006238Y813058D02*
X1008761D01*
X1006385Y810358D02*
X1008614D01*
X1006419Y812518D02*
X1008580D01*
X1006505Y810898D02*
X1008494D01*
X1006521Y811978D02*
X1008478D01*
X1006549Y811438D02*
X1008450D01*
X951658Y807658D02*
X1001216D01*
X954490Y815218D02*
X1000895D01*
X952071Y808198D02*
X1000153D01*
X954459Y814678D02*
X999990D01*
X952441Y808738D02*
X999537D01*
X954404Y814138D02*
X999427D01*
X952772Y809278D02*
X999113D01*
X954326Y813598D02*
X999036D01*
X953068Y809818D02*
X998815D01*
X954224Y813058D02*
X998761D01*
X953332Y810358D02*
X998614D01*
X954098Y812518D02*
X998580D01*
X953565Y810898D02*
X998494D01*
X953947Y811978D02*
X998478D01*
X953769Y811438D02*
X998450D01*
X984096Y849778D02*
X988403D01*
X984441Y854098D02*
X988058D01*
X984823Y861118D02*
X987676D01*
X985069Y850318D02*
X987430D01*
X985191Y853558D02*
X987308D01*
X985368Y861658D02*
X987131D01*
X985496Y850858D02*
X987003D01*
X985562Y853018D02*
X986937D01*
X985655Y862198D02*
X986844D01*
X985720Y851398D02*
X986779D01*
X985749Y852478D02*
X986750D01*
X985799Y851938D02*
X986700D01*
X981168Y839518D02*
X985831D01*
X981433Y843298D02*
X985566D01*
X981792Y840058D02*
X985207D01*
X981925Y842758D02*
X985074D01*
X982116Y840598D02*
X984883D01*
X982184Y842218D02*
X984815D01*
X982271Y841138D02*
X984728D01*
X982293Y841678D02*
X984706D01*
X977096Y849778D02*
X982903D01*
X977441Y854098D02*
X982558D01*
X977823Y861118D02*
X982176D01*
X978069Y850318D02*
X981930D01*
X978191Y853558D02*
X981808D01*
X978368Y861658D02*
X981631D01*
X978496Y850858D02*
X981503D01*
X978562Y853018D02*
X981437D01*
X978655Y862198D02*
X981344D01*
X978720Y851398D02*
X981279D01*
X978749Y852478D02*
X981250D01*
X978799Y851938D02*
X981200D01*
X802800Y839518D02*
X978831D01*
X802800Y843298D02*
X978566D01*
X802800Y840058D02*
X978207D01*
X802800Y842758D02*
X978074D01*
X802800Y840598D02*
X977883D01*
X802800Y842218D02*
X977815D01*
X802800Y841138D02*
X977728D01*
X802800Y841678D02*
X977706D01*
X828472Y849778D02*
X975903D01*
X967800Y854098D02*
X975558D01*
X967800Y861118D02*
X975176D01*
X829012Y850318D02*
X974930D01*
X967800Y853558D02*
X974808D01*
X947523Y827098D02*
X974705D01*
X884826Y830878D02*
X974673D01*
X967800Y861658D02*
X974631D01*
X829493Y850858D02*
X974503D01*
X967800Y853018D02*
X974437D01*
X967800Y862198D02*
X974344D01*
X829924Y851398D02*
X974279D01*
X967800Y852478D02*
X974250D01*
X830309Y851938D02*
X974200D01*
X946316Y827638D02*
X974146D01*
X885370Y830338D02*
X974129D01*
X944549Y828178D02*
X973851D01*
X885656Y829798D02*
X973843D01*
X885782Y828718D02*
X973717D01*
X885785Y829258D02*
X973714D01*
X880201Y833038D02*
X970298D01*
X880407Y836818D02*
X970092D01*
X880808Y833578D02*
X969691D01*
X880911Y836278D02*
X969588D01*
X881124Y834118D02*
X969375D01*
X881178Y835738D02*
X969321D01*
X881274Y834658D02*
X969225D01*
X881291Y835198D02*
X969208D01*
X885648Y828178D02*
X938850D01*
X802800Y803338D02*
X938377D01*
X885353Y827638D02*
X937083D01*
X802800Y803878D02*
X936791D01*
X884794Y827098D02*
X935876D01*
X802800Y804418D02*
X935652D01*
X802800Y826558D02*
X934922D01*
X802800Y804958D02*
X934738D01*
X802800Y826018D02*
X934126D01*
X802800Y805498D02*
X933968D01*
X802800Y825478D02*
X933440D01*
X802800Y806038D02*
X933303D01*
X802800Y824938D02*
X932840D01*
X902132Y806578D02*
X932719D01*
X802800Y824398D02*
X932309D01*
X903511Y807118D02*
X932202D01*
X802800Y823858D02*
X931837D01*
X904278Y807658D02*
X931741D01*
X802800Y823318D02*
X931414D01*
X904821Y808198D02*
X931328D01*
X802800Y822778D02*
X931035D01*
X905228Y808738D02*
X930958D01*
X802800Y822238D02*
X930696D01*
X905535Y809278D02*
X930627D01*
X802800Y821698D02*
X930392D01*
X905761Y809818D02*
X930331D01*
X802800Y821158D02*
X930122D01*
X905919Y810358D02*
X930067D01*
X802800Y820618D02*
X929882D01*
X906014Y810898D02*
X929834D01*
X802800Y820078D02*
X929672D01*
X906049Y811438D02*
X929630D01*
X802800Y819538D02*
X929489D01*
X906027Y811978D02*
X929452D01*
X802800Y818998D02*
X929332D01*
X905946Y812518D02*
X929301D01*
X802800Y818458D02*
X929200D01*
X905803Y813058D02*
X929175D01*
X802800Y817918D02*
X929093D01*
X905593Y813598D02*
X929073D01*
X802800Y817378D02*
X929010D01*
X905305Y814138D02*
X928995D01*
X802800Y816838D02*
X928950D01*
X904924Y814678D02*
X928940D01*
X902573Y816298D02*
X928913D01*
X904416Y815218D02*
X928909D01*
X903714Y815758D02*
X928900D01*
X892132Y806578D02*
X899867D01*
X892573Y816298D02*
X899426D01*
X893511Y807118D02*
X898488D01*
X893714Y815758D02*
X898285D01*
X894278Y807658D02*
X897721D01*
X894416Y815218D02*
X897583D01*
X894821Y808198D02*
X897178D01*
X894924Y814678D02*
X897075D01*
X895228Y808738D02*
X896771D01*
X895305Y814138D02*
X896694D01*
X895535Y809278D02*
X896464D01*
X895593Y813598D02*
X896406D01*
X895761Y809818D02*
X896238D01*
X895803Y813058D02*
X896196D01*
X895919Y810358D02*
X896080D01*
X895946Y812518D02*
X896053D01*
X832119Y862198D02*
X892200D01*
X832241Y861658D02*
X892200D01*
X832339Y861118D02*
X892200D01*
X832414Y860578D02*
X892200D01*
X832465Y860038D02*
X892200D01*
X832493Y859498D02*
X892200D01*
X832499Y858958D02*
X892200D01*
X832481Y858418D02*
X892200D01*
X832441Y857878D02*
X892200D01*
X832378Y857338D02*
X892200D01*
X832291Y856798D02*
X892200D01*
X832180Y856258D02*
X892200D01*
X832045Y855718D02*
X892200D01*
X831884Y855178D02*
X892200D01*
X831697Y854638D02*
X892200D01*
X831482Y854098D02*
X892200D01*
X831238Y853558D02*
X892200D01*
X830963Y853018D02*
X892200D01*
X830654Y852478D02*
X892200D01*
X882132Y806578D02*
X889867D01*
X882573Y816298D02*
X889426D01*
X883511Y807118D02*
X888488D01*
X883714Y815758D02*
X888285D01*
X884278Y807658D02*
X887721D01*
X884416Y815218D02*
X887583D01*
X884821Y808198D02*
X887178D01*
X884924Y814678D02*
X887075D01*
X885228Y808738D02*
X886771D01*
X885305Y814138D02*
X886694D01*
X885535Y809278D02*
X886464D01*
X885593Y813598D02*
X886406D01*
X885761Y809818D02*
X886238D01*
X885803Y813058D02*
X886196D01*
X885919Y810358D02*
X886080D01*
X885946Y812518D02*
X886053D01*
X802800Y827098D02*
X882205D01*
X802800Y830878D02*
X882173D01*
X802800Y827638D02*
X881646D01*
X802800Y830338D02*
X881629D01*
X802800Y828178D02*
X881351D01*
X802800Y829798D02*
X881343D01*
X802800Y828718D02*
X881217D01*
X802800Y829258D02*
X881214D01*
X872132Y806578D02*
X879867D01*
X872573Y816298D02*
X879426D01*
X873511Y807118D02*
X878488D01*
X873714Y815758D02*
X878285D01*
X802800Y833038D02*
X877798D01*
X874278Y807658D02*
X877721D01*
X802800Y836818D02*
X877592D01*
X874416Y815218D02*
X877583D01*
X802800Y833578D02*
X877191D01*
X874821Y808198D02*
X877178D01*
X802800Y836278D02*
X877088D01*
X874924Y814678D02*
X877075D01*
X802800Y834118D02*
X876875D01*
X802800Y835738D02*
X876821D01*
X875228Y808738D02*
X876771D01*
X802800Y834658D02*
X876725D01*
X802800Y835198D02*
X876708D01*
X875305Y814138D02*
X876694D01*
X875535Y809278D02*
X876464D01*
X875593Y813598D02*
X876406D01*
X875761Y809818D02*
X876238D01*
X875803Y813058D02*
X876196D01*
X875919Y810358D02*
X876080D01*
X875946Y812518D02*
X876053D01*
X862132Y806578D02*
X869867D01*
X862573Y816298D02*
X869426D01*
X863511Y807118D02*
X868488D01*
X863714Y815758D02*
X868285D01*
X864278Y807658D02*
X867721D01*
X864416Y815218D02*
X867583D01*
X864821Y808198D02*
X867178D01*
X864924Y814678D02*
X867075D01*
X865228Y808738D02*
X866771D01*
X865305Y814138D02*
X866694D01*
X865535Y809278D02*
X866464D01*
X865593Y813598D02*
X866406D01*
X865761Y809818D02*
X866238D01*
X865803Y813058D02*
X866196D01*
X865919Y810358D02*
X866080D01*
X865946Y812518D02*
X866053D01*
X852132Y806578D02*
X859867D01*
X852573Y816298D02*
X859426D01*
X853511Y807118D02*
X858488D01*
X853714Y815758D02*
X858285D01*
X854278Y807658D02*
X857721D01*
X854416Y815218D02*
X857583D01*
X854821Y808198D02*
X857178D01*
X854924Y814678D02*
X857075D01*
X855228Y808738D02*
X856771D01*
X855305Y814138D02*
X856694D01*
X855535Y809278D02*
X856464D01*
X855593Y813598D02*
X856406D01*
X855761Y809818D02*
X856238D01*
X855803Y813058D02*
X856196D01*
X855919Y810358D02*
X856080D01*
X855946Y812518D02*
X856053D01*
X842132Y806578D02*
X849867D01*
X842573Y816298D02*
X849426D01*
X843511Y807118D02*
X848488D01*
X843714Y815758D02*
X848285D01*
X844278Y807658D02*
X847721D01*
X844416Y815218D02*
X847583D01*
X844821Y808198D02*
X847178D01*
X844924Y814678D02*
X847075D01*
X845228Y808738D02*
X846771D01*
X845305Y814138D02*
X846694D01*
X845535Y809278D02*
X846464D01*
X845593Y813598D02*
X846406D01*
X845761Y809818D02*
X846238D01*
X845803Y813058D02*
X846196D01*
X845919Y810358D02*
X846080D01*
X845946Y812518D02*
X846053D01*
X832132Y806578D02*
X839867D01*
X832573Y816298D02*
X839426D01*
X833511Y807118D02*
X838488D01*
X833714Y815758D02*
X838285D01*
X834278Y807658D02*
X837721D01*
X834416Y815218D02*
X837583D01*
X834821Y808198D02*
X837178D01*
X834924Y814678D02*
X837075D01*
X835228Y808738D02*
X836771D01*
X835305Y814138D02*
X836694D01*
X835535Y809278D02*
X836464D01*
X835593Y813598D02*
X836406D01*
X835761Y809818D02*
X836238D01*
X835803Y813058D02*
X836196D01*
X835919Y810358D02*
X836080D01*
X835946Y812518D02*
X836053D01*
X822132Y806578D02*
X829867D01*
X822573Y816298D02*
X829426D01*
X823511Y807118D02*
X828488D01*
X823714Y815758D02*
X828285D01*
X824278Y807658D02*
X827721D01*
X824416Y815218D02*
X827583D01*
X824821Y808198D02*
X827178D01*
X824924Y814678D02*
X827075D01*
X825228Y808738D02*
X826771D01*
X825305Y814138D02*
X826694D01*
X825535Y809278D02*
X826464D01*
X825593Y813598D02*
X826406D01*
X825761Y809818D02*
X826238D01*
X825803Y813058D02*
X826196D01*
X825919Y810358D02*
X826080D01*
X825946Y812518D02*
X826053D01*
X812132Y806578D02*
X819867D01*
X812573Y816298D02*
X819426D01*
X813511Y807118D02*
X818488D01*
X813714Y815758D02*
X818285D01*
X814278Y807658D02*
X817721D01*
X814416Y815218D02*
X817583D01*
X802800Y846538D02*
X817239D01*
X814821Y808198D02*
X817178D01*
X814924Y814678D02*
X817075D01*
X815228Y808738D02*
X816771D01*
X815305Y814138D02*
X816694D01*
X815535Y809278D02*
X816464D01*
X815593Y813598D02*
X816406D01*
X815761Y809818D02*
X816238D01*
X815803Y813058D02*
X816196D01*
X815919Y810358D02*
X816080D01*
X815946Y812518D02*
X816053D01*
X802800Y847078D02*
X815303D01*
X802800Y847618D02*
X814041D01*
X802800Y848158D02*
X813057D01*
X802800Y848698D02*
X812239D01*
X802800Y849238D02*
X811539D01*
X802800Y849778D02*
X810927D01*
X802800Y850318D02*
X810387D01*
X802800Y850858D02*
X809906D01*
X802800Y806578D02*
X809867D01*
X802800Y851398D02*
X809475D01*
X802800Y816298D02*
X809426D01*
X802800Y851938D02*
X809090D01*
X802800Y852478D02*
X808745D01*
X802800Y807118D02*
X808488D01*
X802800Y853018D02*
X808436D01*
X802800Y815758D02*
X808285D01*
X802800Y853558D02*
X808161D01*
X802800Y854098D02*
X807917D01*
X802800Y807658D02*
X807721D01*
X802800Y854638D02*
X807702D01*
X802800Y815218D02*
X807583D01*
X802800Y855178D02*
X807515D01*
X802800Y855718D02*
X807354D01*
X802800Y862198D02*
X807280D01*
X802800Y856258D02*
X807219D01*
X802800Y808198D02*
X807178D01*
X802800Y861658D02*
X807158D01*
X802800Y856798D02*
X807108D01*
X802800Y814678D02*
X807075D01*
X802800Y861118D02*
X807060D01*
X802800Y857338D02*
X807021D01*
X802800Y860578D02*
X806985D01*
X802800Y857878D02*
X806958D01*
X802800Y860038D02*
X806934D01*
X802800Y858418D02*
X806918D01*
X802800Y859498D02*
X806906D01*
X802800Y858958D02*
X806900D01*
X802800Y808738D02*
X806771D01*
X802800Y814138D02*
X806694D01*
X802800Y809278D02*
X806464D01*
X802800Y813598D02*
X806406D01*
X802800Y809818D02*
X806238D01*
X802800Y813058D02*
X806196D01*
X802800Y810358D02*
X806080D01*
X802800Y812518D02*
X806053D01*
X802800Y810898D02*
X805985D01*
X802800Y811978D02*
X805972D01*
X802800Y811438D02*
X805950D01*
X802800Y954658D02*
X939700D01*
X802800Y954118D02*
X939700D01*
X802800Y953578D02*
X939700D01*
X802800Y953038D02*
X939700D01*
X802800Y952498D02*
X939700D01*
X802800Y951958D02*
X939700D01*
X802800Y951418D02*
X939700D01*
X802800Y950878D02*
X939700D01*
X802800Y950338D02*
X939700D01*
X802800Y949798D02*
X939700D01*
X802800Y949258D02*
X939700D01*
X802800Y948718D02*
X939700D01*
X802800Y948178D02*
X939700D01*
X802800Y947638D02*
X939700D01*
X802800Y947098D02*
X939700D01*
X802800Y946558D02*
X939700D01*
X919608Y921178D02*
X939700D01*
X920079Y920638D02*
X939700D01*
X920500Y920098D02*
X939700D01*
X920877Y919558D02*
X939700D01*
X921215Y919018D02*
X939700D01*
X921517Y918478D02*
X939700D01*
X921787Y917938D02*
X939700D01*
X922025Y917398D02*
X939700D01*
X922235Y916858D02*
X939700D01*
X922417Y916318D02*
X939700D01*
X922572Y915778D02*
X939700D01*
X922703Y915238D02*
X939700D01*
X922809Y914698D02*
X939700D01*
X922892Y914158D02*
X939700D01*
X922951Y913618D02*
X939700D01*
X922986Y913078D02*
X939700D01*
X922999Y912538D02*
X939700D01*
X922990Y911998D02*
X939700D01*
X922957Y911458D02*
X939700D01*
X922901Y910918D02*
X939700D01*
X922823Y910378D02*
X939700D01*
X922720Y909838D02*
X939700D01*
X922593Y909298D02*
X939700D01*
X922441Y908758D02*
X939700D01*
X922262Y908218D02*
X939700D01*
X922057Y907678D02*
X939700D01*
X921823Y907138D02*
X939700D01*
X921558Y906598D02*
X939700D01*
X921261Y906058D02*
X939700D01*
X920928Y905518D02*
X939700D01*
X920557Y904978D02*
X939700D01*
X920142Y904438D02*
X939700D01*
X919679Y903898D02*
X939700D01*
X919159Y903358D02*
X939700D01*
X918573Y902818D02*
X939700D01*
X917904Y902278D02*
X939700D01*
X917130Y901738D02*
X939700D01*
X916210Y901198D02*
X939700D01*
X915060Y900658D02*
X939700D01*
X913447Y900118D02*
X939700D01*
X882805Y899578D02*
X939700D01*
X882102Y899038D02*
X939700D01*
X880626Y898498D02*
X939700D01*
X802800Y897958D02*
X939700D01*
X802800Y897418D02*
X939700D01*
X802800Y896878D02*
X939700D01*
X802800Y896338D02*
X939700D01*
X802800Y895798D02*
X939700D01*
X802800Y895258D02*
X939700D01*
X802800Y894718D02*
X939700D01*
X802800Y894178D02*
X939700D01*
X802800Y893638D02*
X939700D01*
X802800Y893098D02*
X939700D01*
X802800Y892558D02*
X939700D01*
X802800Y892018D02*
X939700D01*
X802800Y891478D02*
X939700D01*
X802800Y890938D02*
X939700D01*
X802800Y890398D02*
X939700D01*
X908854Y889858D02*
X939700D01*
X909384Y889318D02*
X939700D01*
X909664Y888778D02*
X939700D01*
X909787Y888238D02*
X939700D01*
X909780Y887698D02*
X939700D01*
X909640Y887158D02*
X939700D01*
X909339Y886618D02*
X939700D01*
X908764Y886078D02*
X939700D01*
X885753Y885538D02*
X939700D01*
X885570Y884998D02*
X939700D01*
X885207Y884458D02*
X939700D01*
X884478Y883918D02*
X939700D01*
X802800Y883378D02*
X939700D01*
X872381Y882838D02*
X939700D01*
X879078Y882298D02*
X939700D01*
X880482Y881758D02*
X939700D01*
X880950Y881218D02*
X939700D01*
X881197Y880678D02*
X939700D01*
X881295Y880138D02*
X939700D01*
X881264Y879598D02*
X939700D01*
X881098Y879058D02*
X939700D01*
X880759Y878518D02*
X939700D01*
X880097Y877978D02*
X939700D01*
X802800Y877438D02*
X939700D01*
X802800Y876898D02*
X939700D01*
X802800Y876358D02*
X939700D01*
X802800Y875818D02*
X939700D01*
X923312Y875278D02*
X939700D01*
X924505Y874738D02*
X939700D01*
X924962Y874198D02*
X939700D01*
X925203Y873658D02*
X939700D01*
X925296Y873118D02*
X939700D01*
X925261Y872578D02*
X939700D01*
X925089Y872038D02*
X939700D01*
X924742Y871498D02*
X939700D01*
X924059Y870958D02*
X939700D01*
X872810Y870418D02*
X939700D01*
X873125Y869878D02*
X939700D01*
X873274Y869338D02*
X939700D01*
X873291Y868798D02*
X939700D01*
X873177Y868258D02*
X939700D01*
X872910Y867718D02*
X939700D01*
X872404Y867178D02*
X939700D01*
X830044Y866638D02*
X939700D01*
X830417Y866098D02*
X939700D01*
X830751Y865558D02*
X939700D01*
X895300Y865018D02*
X939700D01*
X895300Y864478D02*
X939700D01*
X895300Y863938D02*
X939700D01*
X895300Y863398D02*
X939700D01*
X895300Y862858D02*
X939700D01*
X895300Y862318D02*
X939700D01*
X895300Y861778D02*
X939700D01*
X895300Y861238D02*
X939700D01*
X895300Y860698D02*
X939700D01*
X895300Y860158D02*
X939700D01*
X895300Y859618D02*
X939700D01*
X923984Y859078D02*
X939700D01*
X924709Y858538D02*
X939700D01*
X925071Y857998D02*
X939700D01*
X925253Y857458D02*
X939700D01*
X925298Y856918D02*
X939700D01*
X925214Y856378D02*
X939700D01*
X924985Y855838D02*
X939700D01*
X919080Y921718D02*
X937768D01*
X802800Y946018D02*
X937579D01*
X918483Y922258D02*
X936378D01*
X802800Y945478D02*
X936243D01*
X917801Y922798D02*
X935328D01*
X802800Y944938D02*
X935220D01*
X917009Y923338D02*
X934468D01*
X802800Y944398D02*
X934377D01*
X916062Y923878D02*
X933736D01*
X802800Y943858D02*
X933658D01*
X914867Y924418D02*
X933100D01*
X802800Y943318D02*
X933032D01*
X913136Y924958D02*
X932540D01*
X802800Y942778D02*
X932479D01*
X882722Y925498D02*
X932042D01*
X802800Y942238D02*
X931988D01*
X881969Y926038D02*
X931598D01*
X802800Y941698D02*
X931550D01*
X854361Y926578D02*
X931200D01*
X802800Y941158D02*
X931157D01*
X802800Y927118D02*
X930843D01*
X802800Y940618D02*
X930805D01*
X802800Y927658D02*
X930524D01*
X802800Y940078D02*
X930489D01*
X802800Y928198D02*
X930239D01*
X802800Y939538D02*
X930208D01*
X802800Y928738D02*
X929986D01*
X802800Y938998D02*
X929959D01*
X802800Y929278D02*
X929763D01*
X802800Y938458D02*
X929739D01*
X802800Y929818D02*
X929568D01*
X802800Y937918D02*
X929547D01*
X802800Y930358D02*
X929399D01*
X802800Y937378D02*
X929381D01*
X802800Y930898D02*
X929256D01*
X802800Y936838D02*
X929241D01*
X802800Y931438D02*
X929138D01*
X802800Y936298D02*
X929126D01*
X802800Y931978D02*
X929044D01*
X802800Y935758D02*
X929035D01*
X802800Y932518D02*
X928974D01*
X802800Y935218D02*
X928968D01*
X802800Y933058D02*
X928927D01*
X802800Y934678D02*
X928923D01*
X802800Y933598D02*
X928903D01*
X802800Y934138D02*
X928902D01*
X802800Y875278D02*
X922687D01*
X895300Y859078D02*
X922015D01*
X872205Y870958D02*
X921940D01*
X802800Y874738D02*
X921494D01*
X895300Y858538D02*
X921290D01*
X822880Y871498D02*
X921257D01*
X802800Y874198D02*
X921037D01*
X895300Y855838D02*
X921014D01*
X895300Y857998D02*
X920928D01*
X802800Y872038D02*
X920910D01*
X802800Y873658D02*
X920796D01*
X895300Y856378D02*
X920785D01*
X895300Y857458D02*
X920746D01*
X802800Y872578D02*
X920738D01*
X802800Y873118D02*
X920703D01*
X895300Y856918D02*
X920701D01*
X883218Y924958D02*
X907263D01*
X883275Y900118D02*
X906952D01*
X885798Y886078D02*
X906235D01*
X802800Y889858D02*
X906145D01*
X885715Y886618D02*
X905660D01*
X802800Y889318D02*
X905615D01*
X883566Y924418D02*
X905532D01*
X885486Y887158D02*
X905359D01*
X883607Y900658D02*
X905339D01*
X802800Y888778D02*
X905335D01*
X885050Y887698D02*
X905219D01*
X884027Y888238D02*
X905212D01*
X883808Y923878D02*
X904337D01*
X883835Y901198D02*
X904189D01*
X883962Y923338D02*
X903390D01*
X883977Y901738D02*
X903269D01*
X884038Y922798D02*
X902598D01*
X884043Y902278D02*
X902495D01*
X884042Y922258D02*
X901916D01*
X884037Y902818D02*
X901826D01*
X883973Y921718D02*
X901319D01*
X883957Y903358D02*
X901240D01*
X883828Y921178D02*
X900791D01*
X883800Y903898D02*
X900720D01*
X883596Y920638D02*
X900320D01*
X883555Y904438D02*
X900257D01*
X883261Y920098D02*
X899899D01*
X883202Y904978D02*
X899842D01*
X882784Y919558D02*
X899522D01*
X882700Y905518D02*
X899471D01*
X882069Y919018D02*
X899184D01*
X881933Y906058D02*
X899138D01*
X880481Y918478D02*
X898882D01*
X823158Y906598D02*
X898841D01*
X823387Y917938D02*
X898612D01*
X823423Y907138D02*
X898576D01*
X823625Y917398D02*
X898374D01*
X823657Y907678D02*
X898342D01*
X823835Y916858D02*
X898164D01*
X823862Y908218D02*
X898137D01*
X876849Y916318D02*
X897982D01*
X877050Y908758D02*
X897958D01*
X877877Y915778D02*
X897827D01*
X877980Y909298D02*
X897806D01*
X878483Y915238D02*
X897696D01*
X878552Y909838D02*
X897679D01*
X878901Y914698D02*
X897590D01*
X878950Y910378D02*
X897576D01*
X879194Y914158D02*
X897507D01*
X879228Y910918D02*
X897498D01*
X879392Y913618D02*
X897448D01*
X879413Y911458D02*
X897442D01*
X879508Y913078D02*
X897413D01*
X879518Y911998D02*
X897409D01*
X879549Y912538D02*
X897400D01*
X802800Y888238D02*
X882972D01*
X802800Y883918D02*
X882521D01*
X802800Y887698D02*
X881949D01*
X802800Y884458D02*
X881792D01*
X802800Y887158D02*
X881513D01*
X802800Y884998D02*
X881429D01*
X802800Y886618D02*
X881284D01*
X802800Y885538D02*
X881246D01*
X802800Y886078D02*
X881201D01*
X871481Y918478D02*
X879518D01*
X871626Y898498D02*
X879373D01*
X872898Y882298D02*
X878921D01*
X872933Y906058D02*
X878066D01*
X872969Y926038D02*
X878030D01*
X873069Y919018D02*
X877930D01*
X802800Y877978D02*
X877902D01*
X873102Y899038D02*
X877897D01*
X873171Y881758D02*
X877517D01*
X873700Y905518D02*
X877299D01*
X873722Y925498D02*
X877277D01*
X802800Y878518D02*
X877240D01*
X873784Y919558D02*
X877215D01*
X873805Y899578D02*
X877194D01*
X873289Y881218D02*
X877049D01*
X872233Y879058D02*
X876901D01*
X873277Y880678D02*
X876802D01*
X874202Y904978D02*
X876797D01*
X874218Y924958D02*
X876781D01*
X874261Y920098D02*
X876738D01*
X872823Y879598D02*
X876735D01*
X874275Y900118D02*
X876724D01*
X873132Y880138D02*
X876704D01*
X874555Y904438D02*
X876444D01*
X874566Y924418D02*
X876433D01*
X874596Y920638D02*
X876403D01*
X874607Y900658D02*
X876392D01*
X874800Y903898D02*
X876199D01*
X874808Y923878D02*
X876191D01*
X874828Y921178D02*
X876171D01*
X874835Y901198D02*
X876164D01*
X874957Y903358D02*
X876042D01*
X874962Y923338D02*
X876037D01*
X874973Y921718D02*
X876026D01*
X874977Y901738D02*
X876022D01*
X875037Y902818D02*
X875962D01*
X875038Y922798D02*
X875961D01*
X875042Y922258D02*
X875957D01*
X875043Y902278D02*
X875956D01*
X867849Y916318D02*
X874150D01*
X868050Y908758D02*
X873949D01*
X868877Y915778D02*
X873122D01*
X868980Y909298D02*
X873019D01*
X869483Y915238D02*
X872516D01*
X869552Y909838D02*
X872447D01*
X869901Y914698D02*
X872098D01*
X869950Y910378D02*
X872049D01*
X870194Y914158D02*
X871805D01*
X870228Y910918D02*
X871771D01*
X870392Y913618D02*
X871607D01*
X870413Y911458D02*
X871586D01*
X870508Y913078D02*
X871491D01*
X870518Y911998D02*
X871481D01*
X870549Y912538D02*
X871450D01*
X862481Y918478D02*
X870518D01*
X862626Y898498D02*
X870373D01*
X862205Y870958D02*
X869794D01*
X862233Y879058D02*
X869766D01*
X862381Y882838D02*
X869618D01*
X862404Y867178D02*
X869595D01*
X862810Y870418D02*
X869189D01*
X862823Y879598D02*
X869176D01*
X862898Y882298D02*
X869101D01*
X862910Y867718D02*
X869089D01*
X863933Y906058D02*
X869066D01*
X863969Y926038D02*
X869030D01*
X864069Y919018D02*
X868930D01*
X864102Y899038D02*
X868897D01*
X863125Y869878D02*
X868874D01*
X863132Y880138D02*
X868867D01*
X863171Y881758D02*
X868828D01*
X863177Y868258D02*
X868822D01*
X863274Y869338D02*
X868725D01*
X863277Y880678D02*
X868722D01*
X863289Y881218D02*
X868710D01*
X863291Y868798D02*
X868708D01*
X864700Y905518D02*
X868299D01*
X864722Y925498D02*
X868277D01*
X864784Y919558D02*
X868215D01*
X864805Y899578D02*
X868194D01*
X865202Y904978D02*
X867797D01*
X865218Y924958D02*
X867781D01*
X865261Y920098D02*
X867738D01*
X865275Y900118D02*
X867724D01*
X865555Y904438D02*
X867444D01*
X865566Y924418D02*
X867433D01*
X865596Y920638D02*
X867403D01*
X865607Y900658D02*
X867392D01*
X865800Y903898D02*
X867199D01*
X865808Y923878D02*
X867191D01*
X865828Y921178D02*
X867171D01*
X865835Y901198D02*
X867164D01*
X865957Y903358D02*
X867042D01*
X865962Y923338D02*
X867037D01*
X865973Y921718D02*
X867026D01*
X865977Y901738D02*
X867022D01*
X866037Y902818D02*
X866962D01*
X866038Y922798D02*
X866961D01*
X866042Y922258D02*
X866957D01*
X866043Y902278D02*
X866956D01*
X858849Y916318D02*
X865150D01*
X859050Y908758D02*
X864949D01*
X859877Y915778D02*
X864122D01*
X859980Y909298D02*
X864019D01*
X860483Y915238D02*
X863516D01*
X860552Y909838D02*
X863447D01*
X860901Y914698D02*
X863098D01*
X860950Y910378D02*
X863049D01*
X861194Y914158D02*
X862805D01*
X861228Y910918D02*
X862771D01*
X861392Y913618D02*
X862607D01*
X861413Y911458D02*
X862586D01*
X861508Y913078D02*
X862491D01*
X861518Y911998D02*
X862481D01*
X861549Y912538D02*
X862450D01*
X854522Y918478D02*
X861518D01*
X853626Y898498D02*
X861373D01*
X854933Y906058D02*
X860066D01*
X855442Y926038D02*
X860030D01*
X855524Y919018D02*
X859930D01*
X855102Y899038D02*
X859897D01*
X824517Y870958D02*
X859794D01*
X802800Y879058D02*
X859766D01*
X802800Y882838D02*
X859618D01*
X829628Y867178D02*
X859595D01*
X855700Y905518D02*
X859299D01*
X856081Y925498D02*
X859277D01*
X856136Y919558D02*
X859215D01*
X855805Y899578D02*
X859194D01*
X825677Y870418D02*
X859189D01*
X802800Y879598D02*
X859176D01*
X802800Y882298D02*
X859101D01*
X829163Y867718D02*
X859089D01*
X826603Y869878D02*
X858874D01*
X802800Y880138D02*
X858867D01*
X802800Y881758D02*
X858828D01*
X828641Y868258D02*
X858822D01*
X856202Y904978D02*
X858797D01*
X856527Y924958D02*
X858781D01*
X856567Y920098D02*
X858738D01*
X827381Y869338D02*
X858725D01*
X856275Y900118D02*
X858724D01*
X802800Y880678D02*
X858722D01*
X802800Y881218D02*
X858710D01*
X828053Y868798D02*
X858708D01*
X856555Y904438D02*
X858444D01*
X856848Y924418D02*
X858433D01*
X856876Y920638D02*
X858403D01*
X856607Y900658D02*
X858392D01*
X856800Y903898D02*
X858199D01*
X857073Y923878D02*
X858191D01*
X857091Y921178D02*
X858171D01*
X856835Y901198D02*
X858164D01*
X856957Y903358D02*
X858042D01*
X857217Y923338D02*
X858037D01*
X857228Y921718D02*
X858026D01*
X856977Y901738D02*
X858022D01*
X857037Y902818D02*
X857962D01*
X857289Y922798D02*
X857961D01*
X857293Y922258D02*
X857957D01*
X857043Y902278D02*
X857956D01*
X849849Y916318D02*
X856150D01*
X850050Y908758D02*
X855949D01*
X850877Y915778D02*
X855122D01*
X850980Y909298D02*
X855019D01*
X851483Y915238D02*
X854516D01*
X851552Y909838D02*
X854447D01*
X851901Y914698D02*
X854098D01*
X851950Y910378D02*
X854049D01*
X852194Y914158D02*
X853805D01*
X852228Y910918D02*
X853771D01*
X852392Y913618D02*
X853607D01*
X852413Y911458D02*
X853586D01*
X852508Y913078D02*
X853491D01*
X852518Y911998D02*
X853481D01*
X852549Y912538D02*
X853450D01*
X844626Y898498D02*
X852373D01*
X845361Y926578D02*
X851638D01*
X845522Y918478D02*
X851477D01*
X845933Y906058D02*
X851066D01*
X846102Y899038D02*
X850897D01*
X846442Y926038D02*
X850557D01*
X846524Y919018D02*
X850475D01*
X846700Y905518D02*
X850299D01*
X846805Y899578D02*
X850194D01*
X847081Y925498D02*
X849918D01*
X847136Y919558D02*
X849863D01*
X847202Y904978D02*
X849797D01*
X847275Y900118D02*
X849724D01*
X847527Y924958D02*
X849472D01*
X847555Y904438D02*
X849444D01*
X847567Y920098D02*
X849432D01*
X847607Y900658D02*
X849392D01*
X847800Y903898D02*
X849199D01*
X847835Y901198D02*
X849164D01*
X847848Y924418D02*
X849151D01*
X847876Y920638D02*
X849123D01*
X847957Y903358D02*
X849042D01*
X847977Y901738D02*
X849022D01*
X848037Y902818D02*
X848962D01*
X848043Y902278D02*
X848956D01*
X848073Y923878D02*
X848926D01*
X848091Y921178D02*
X848908D01*
X848217Y923338D02*
X848782D01*
X848228Y921718D02*
X848771D01*
X848289Y922798D02*
X848710D01*
X848293Y922258D02*
X848706D01*
X840849Y916318D02*
X847150D01*
X841050Y908758D02*
X846949D01*
X841877Y915778D02*
X846122D01*
X841980Y909298D02*
X846019D01*
X842483Y915238D02*
X845516D01*
X842552Y909838D02*
X845447D01*
X842901Y914698D02*
X845098D01*
X842950Y910378D02*
X845049D01*
X843194Y914158D02*
X844805D01*
X843228Y910918D02*
X844771D01*
X843392Y913618D02*
X844607D01*
X843413Y911458D02*
X844586D01*
X843508Y913078D02*
X844491D01*
X843518Y911998D02*
X844481D01*
X843549Y912538D02*
X844450D01*
X802800Y898498D02*
X843373D01*
X802800Y926578D02*
X842638D01*
X823117Y918478D02*
X842477D01*
X822861Y906058D02*
X842066D01*
X802800Y899038D02*
X841897D01*
X802800Y926038D02*
X841557D01*
X822815Y919018D02*
X841475D01*
X822528Y905518D02*
X841299D01*
X802800Y899578D02*
X841194D01*
X802800Y925498D02*
X840918D01*
X822477Y919558D02*
X840863D01*
X822157Y904978D02*
X840797D01*
X815047Y900118D02*
X840724D01*
X814736Y924958D02*
X840472D01*
X821742Y904438D02*
X840444D01*
X822100Y920098D02*
X840432D01*
X816660Y900658D02*
X840392D01*
X821279Y903898D02*
X840199D01*
X817810Y901198D02*
X840164D01*
X816467Y924418D02*
X840151D01*
X821679Y920638D02*
X840123D01*
X820759Y903358D02*
X840042D01*
X818730Y901738D02*
X840022D01*
X820173Y902818D02*
X839962D01*
X819504Y902278D02*
X839956D01*
X817662Y923878D02*
X839926D01*
X821208Y921178D02*
X839908D01*
X818609Y923338D02*
X839782D01*
X820680Y921718D02*
X839771D01*
X819401Y922798D02*
X839710D01*
X820083Y922258D02*
X839706D01*
X824017Y916318D02*
X838150D01*
X824041Y908758D02*
X837949D01*
X824172Y915778D02*
X837122D01*
X824193Y909298D02*
X837019D01*
X824303Y915238D02*
X836516D01*
X824320Y909838D02*
X836447D01*
X824409Y914698D02*
X836098D01*
X824423Y910378D02*
X836049D01*
X824492Y914158D02*
X835805D01*
X824501Y910918D02*
X835771D01*
X824551Y913618D02*
X835607D01*
X824557Y911458D02*
X835586D01*
X824586Y913078D02*
X835491D01*
X824590Y911998D02*
X835481D01*
X824599Y912538D02*
X835450D01*
X802800Y871498D02*
X816519D01*
X802800Y870958D02*
X814882D01*
X802800Y870418D02*
X813722D01*
X802800Y869878D02*
X812796D01*
X802800Y869338D02*
X812018D01*
X802800Y868798D02*
X811346D01*
X802800Y868258D02*
X810758D01*
X802800Y867718D02*
X810236D01*
X802800Y867178D02*
X809771D01*
X802800Y866638D02*
X809355D01*
X802800Y866098D02*
X808982D01*
X802800Y924958D02*
X808863D01*
X802800Y865558D02*
X808648D01*
X802800Y900118D02*
X808552D01*
X802800Y924418D02*
X807132D01*
X802800Y900658D02*
X806939D01*
X802800Y923878D02*
X805937D01*
X802800Y901198D02*
X805789D01*
X802800Y923338D02*
X804990D01*
X802800Y901738D02*
X804869D01*
X802800Y922798D02*
X804198D01*
X802800Y902278D02*
X804095D01*
X802800Y922258D02*
X803516D01*
X802800Y902818D02*
X803426D01*
X802800Y921718D02*
X802919D01*
X802800Y903358D02*
X802840D01*
X942800Y954658D02*
X1080699D01*
X942800Y954118D02*
X1080699D01*
X942800Y953578D02*
X1080699D01*
X942800Y953038D02*
X1080699D01*
X942800Y952498D02*
X1080699D01*
X942800Y951958D02*
X1080699D01*
X942800Y951418D02*
X1080699D01*
X942800Y950878D02*
X1080699D01*
X942800Y950338D02*
X1080699D01*
X942800Y949798D02*
X1080699D01*
X942800Y949258D02*
X1080699D01*
X942800Y948718D02*
X1080699D01*
X942800Y948178D02*
X1080699D01*
X942800Y947638D02*
X1080699D01*
X942800Y947098D02*
X1080699D01*
X943596Y946558D02*
X1080699D01*
X945820Y946018D02*
X1080699D01*
X947156Y945478D02*
X1080699D01*
X948179Y944938D02*
X1080699D01*
X949022Y944398D02*
X1080699D01*
X949741Y943858D02*
X1080699D01*
X950367Y943318D02*
X1080699D01*
X950920Y942778D02*
X1080699D01*
X951411Y942238D02*
X1080699D01*
X951849Y941698D02*
X1080699D01*
X952242Y941158D02*
X1080699D01*
X952594Y940618D02*
X1080699D01*
X952910Y940078D02*
X1080699D01*
X953191Y939538D02*
X1080699D01*
X953440Y938998D02*
X1080699D01*
X953660Y938458D02*
X1080699D01*
X953852Y937918D02*
X1080699D01*
X954018Y937378D02*
X1080699D01*
X954158Y936838D02*
X1080699D01*
X954273Y936298D02*
X1080699D01*
X954364Y935758D02*
X1080699D01*
X954431Y935218D02*
X1080699D01*
X954476Y934678D02*
X1080699D01*
X954497Y934138D02*
X1080699D01*
X954496Y933598D02*
X1080699D01*
X954472Y933058D02*
X1080699D01*
X954425Y932518D02*
X1080699D01*
X954355Y931978D02*
X1080699D01*
X954261Y931438D02*
X1080699D01*
X954143Y930898D02*
X1080699D01*
X954000Y930358D02*
X1080699D01*
X953831Y929818D02*
X1080699D01*
X953636Y929278D02*
X1080699D01*
X953413Y928738D02*
X1080699D01*
X953160Y928198D02*
X1080699D01*
X952875Y927658D02*
X1080699D01*
X952556Y927118D02*
X1080699D01*
X1033361Y926578D02*
X1080699D01*
X1042969Y926038D02*
X1080699D01*
X1043722Y925498D02*
X1080699D01*
X1074136Y924958D02*
X1080699D01*
X1075867Y924418D02*
X1080699D01*
X1077062Y923878D02*
X1080699D01*
X1078009Y923338D02*
X1080699D01*
X1078801Y922798D02*
X1080699D01*
X1079483Y922258D02*
X1080699D01*
X1080080Y921718D02*
X1080699D01*
X1080608Y921178D02*
X1080699D01*
X1080679Y903898D02*
X1080699D01*
X1080159Y903358D02*
X1080699D01*
X1079573Y902818D02*
X1080699D01*
X1078904Y902278D02*
X1080699D01*
X1078130Y901738D02*
X1080699D01*
X1077210Y901198D02*
X1080699D01*
X1076060Y900658D02*
X1080699D01*
X1074447Y900118D02*
X1080699D01*
X1043805Y899578D02*
X1080699D01*
X1043102Y899038D02*
X1080699D01*
X1041626Y898498D02*
X1080699D01*
X942800Y897958D02*
X1080699D01*
X942800Y897418D02*
X1080699D01*
X942800Y896878D02*
X1080699D01*
X942800Y896338D02*
X1080699D01*
X942800Y895798D02*
X1080699D01*
X942800Y895258D02*
X1080699D01*
X942800Y894718D02*
X1080699D01*
X942800Y894178D02*
X1080699D01*
X942800Y893638D02*
X1080699D01*
X942800Y893098D02*
X1080699D01*
X942800Y892558D02*
X1080699D01*
X942800Y892018D02*
X1080699D01*
X942800Y891478D02*
X1080699D01*
X942800Y890938D02*
X1080699D01*
X942800Y890398D02*
X1080699D01*
X942800Y889858D02*
X1080699D01*
X942800Y889318D02*
X1080699D01*
X942800Y888778D02*
X1080699D01*
X976527Y888238D02*
X1080699D01*
X977550Y887698D02*
X1080699D01*
X977986Y887158D02*
X1080699D01*
X978215Y886618D02*
X1080699D01*
X978298Y886078D02*
X1080699D01*
X978253Y885538D02*
X1080699D01*
X978070Y884998D02*
X1080699D01*
X977707Y884458D02*
X1080699D01*
X976978Y883918D02*
X1080699D01*
X942800Y883378D02*
X1080699D01*
X1025381Y882838D02*
X1080699D01*
X1025898Y882298D02*
X1080699D01*
X1026171Y881758D02*
X1080699D01*
X1026289Y881218D02*
X1080699D01*
X1026277Y880678D02*
X1080699D01*
X1026132Y880138D02*
X1080699D01*
X1025823Y879598D02*
X1080699D01*
X1025233Y879058D02*
X1080699D01*
X973259Y878518D02*
X1080699D01*
X972597Y877978D02*
X1080699D01*
X942800Y877438D02*
X1080699D01*
X942800Y876898D02*
X1080699D01*
X942800Y876358D02*
X1080699D01*
X942800Y875818D02*
X1080699D01*
X988458Y875278D02*
X1080699D01*
X988937Y874738D02*
X1080699D01*
X989191Y874198D02*
X1080699D01*
X989294Y873658D02*
X1080699D01*
X989268Y873118D02*
X1080699D01*
X989107Y872578D02*
X1080699D01*
X988776Y872038D02*
X1080699D01*
X1066980Y871498D02*
X1080699D01*
X1068617Y870958D02*
X1080699D01*
X1069777Y870418D02*
X1080699D01*
X1070703Y869878D02*
X1080699D01*
X1071481Y869338D02*
X1080699D01*
X1072153Y868798D02*
X1080699D01*
X1072741Y868258D02*
X1080699D01*
X1073263Y867718D02*
X1080699D01*
X1073728Y867178D02*
X1080699D01*
X1074144Y866638D02*
X1080699D01*
X1074517Y866098D02*
X1080699D01*
X1074851Y865558D02*
X1080699D01*
X1044218Y924958D02*
X1068263D01*
X1044275Y900118D02*
X1067952D01*
X1044566Y924418D02*
X1066532D01*
X1044607Y900658D02*
X1066339D01*
X1044808Y923878D02*
X1065337D01*
X1044835Y901198D02*
X1065189D01*
X1044962Y923338D02*
X1064390D01*
X1044977Y901738D02*
X1064269D01*
X1045038Y922798D02*
X1063598D01*
X1045043Y902278D02*
X1063495D01*
X1045042Y922258D02*
X1062916D01*
X1045037Y902818D02*
X1062826D01*
X1044973Y921718D02*
X1062319D01*
X1044957Y903358D02*
X1062240D01*
X1044828Y921178D02*
X1061791D01*
X1044800Y903898D02*
X1061720D01*
X1044596Y920638D02*
X1061320D01*
X1044555Y904438D02*
X1061257D01*
X1044261Y920098D02*
X1060899D01*
X1044202Y904978D02*
X1060842D01*
X988133Y871498D02*
X1060619D01*
X1043784Y919558D02*
X1060522D01*
X1043700Y905518D02*
X1060471D01*
X1043069Y919018D02*
X1060184D01*
X1042933Y906058D02*
X1060138D01*
X1041481Y918478D02*
X1059882D01*
X984158Y906598D02*
X1059841D01*
X984387Y917938D02*
X1059612D01*
X984423Y907138D02*
X1059576D01*
X984625Y917398D02*
X1059374D01*
X984657Y907678D02*
X1059342D01*
X984835Y916858D02*
X1059164D01*
X1045900Y908218D02*
X1059137D01*
X1047476Y916318D02*
X1058982D01*
X1025205Y870958D02*
X1058982D01*
X1047619Y908758D02*
X1058958D01*
X1048282Y915778D02*
X1058827D01*
X1048370Y909298D02*
X1058806D01*
X1048815Y915238D02*
X1058696D01*
X1048877Y909838D02*
X1058679D01*
X1049195Y914698D02*
X1058590D01*
X1049240Y910378D02*
X1058576D01*
X1049467Y914158D02*
X1058507D01*
X1049498Y910918D02*
X1058498D01*
X1049651Y913618D02*
X1058448D01*
X1049672Y911458D02*
X1058442D01*
X1049760Y913078D02*
X1058413D01*
X1049770Y911998D02*
X1058409D01*
X1049799Y912538D02*
X1058400D01*
X1025810Y870418D02*
X1057822D01*
X1026125Y869878D02*
X1056896D01*
X1026274Y869338D02*
X1056118D01*
X1026291Y868798D02*
X1055446D01*
X1026177Y868258D02*
X1054858D01*
X1025910Y867718D02*
X1054336D01*
X1025404Y867178D02*
X1053871D01*
X942800Y866638D02*
X1053455D01*
X942800Y866098D02*
X1053082D01*
X942800Y865558D02*
X1052748D01*
X984862Y908218D02*
X1045099D01*
X1037849Y916318D02*
X1043523D01*
X1038050Y908758D02*
X1043380D01*
X1038877Y915778D02*
X1042717D01*
X1038980Y909298D02*
X1042629D01*
X1039483Y915238D02*
X1042184D01*
X1039552Y909838D02*
X1042122D01*
X1039901Y914698D02*
X1041804D01*
X1039950Y910378D02*
X1041759D01*
X1040194Y914158D02*
X1041532D01*
X1040228Y910918D02*
X1041501D01*
X1040392Y913618D02*
X1041348D01*
X1040413Y911458D02*
X1041327D01*
X1040508Y913078D02*
X1041239D01*
X1040518Y911998D02*
X1041229D01*
X1040549Y912538D02*
X1041200D01*
X1033522Y918478D02*
X1040518D01*
X1032626Y898498D02*
X1040373D01*
X1033933Y906058D02*
X1039066D01*
X1034442Y926038D02*
X1039030D01*
X1034524Y919018D02*
X1038930D01*
X1034102Y899038D02*
X1038897D01*
X1034700Y905518D02*
X1038299D01*
X1035081Y925498D02*
X1038277D01*
X1035136Y919558D02*
X1038215D01*
X1034805Y899578D02*
X1038194D01*
X1035202Y904978D02*
X1037797D01*
X1035527Y924958D02*
X1037781D01*
X1035567Y920098D02*
X1037738D01*
X1035275Y900118D02*
X1037724D01*
X1035555Y904438D02*
X1037444D01*
X1035848Y924418D02*
X1037433D01*
X1035876Y920638D02*
X1037403D01*
X1035607Y900658D02*
X1037392D01*
X1035800Y903898D02*
X1037199D01*
X1036073Y923878D02*
X1037191D01*
X1036091Y921178D02*
X1037171D01*
X1035835Y901198D02*
X1037164D01*
X1035957Y903358D02*
X1037042D01*
X1036217Y923338D02*
X1037037D01*
X1036228Y921718D02*
X1037026D01*
X1035977Y901738D02*
X1037022D01*
X1036037Y902818D02*
X1036962D01*
X1036289Y922798D02*
X1036961D01*
X1036293Y922258D02*
X1036957D01*
X1036043Y902278D02*
X1036956D01*
X1028849Y916318D02*
X1035150D01*
X1029050Y908758D02*
X1034949D01*
X1029877Y915778D02*
X1034122D01*
X1029980Y909298D02*
X1034019D01*
X1030483Y915238D02*
X1033516D01*
X1030552Y909838D02*
X1033447D01*
X1030901Y914698D02*
X1033098D01*
X1030950Y910378D02*
X1033049D01*
X1031194Y914158D02*
X1032805D01*
X1031228Y910918D02*
X1032771D01*
X1031392Y913618D02*
X1032607D01*
X1031413Y911458D02*
X1032586D01*
X1031508Y913078D02*
X1032491D01*
X1031518Y911998D02*
X1032481D01*
X1031549Y912538D02*
X1032450D01*
X1023626Y898498D02*
X1031373D01*
X952199Y926578D02*
X1030638D01*
X1023481Y918478D02*
X1030477D01*
X1024933Y906058D02*
X1030066D01*
X1025102Y899038D02*
X1029897D01*
X1024969Y926038D02*
X1029557D01*
X1025069Y919018D02*
X1029475D01*
X1025700Y905518D02*
X1029299D01*
X1025805Y899578D02*
X1029194D01*
X1025722Y925498D02*
X1028918D01*
X1025784Y919558D02*
X1028863D01*
X1026202Y904978D02*
X1028797D01*
X1026275Y900118D02*
X1028724D01*
X1026218Y924958D02*
X1028472D01*
X1026555Y904438D02*
X1028444D01*
X1026261Y920098D02*
X1028432D01*
X1026607Y900658D02*
X1028392D01*
X1026800Y903898D02*
X1028199D01*
X1026835Y901198D02*
X1028164D01*
X1026566Y924418D02*
X1028151D01*
X1026596Y920638D02*
X1028123D01*
X1026957Y903358D02*
X1028042D01*
X1026977Y901738D02*
X1028022D01*
X1027037Y902818D02*
X1027962D01*
X1027043Y902278D02*
X1027956D01*
X1026808Y923878D02*
X1027926D01*
X1026828Y921178D02*
X1027908D01*
X1026962Y923338D02*
X1027782D01*
X1026973Y921718D02*
X1027771D01*
X1027038Y922798D02*
X1027710D01*
X1027042Y922258D02*
X1027706D01*
X1019849Y916318D02*
X1026150D01*
X1020050Y908758D02*
X1025949D01*
X1020877Y915778D02*
X1025122D01*
X1020980Y909298D02*
X1025019D01*
X1021483Y915238D02*
X1024516D01*
X1021552Y909838D02*
X1024447D01*
X1021901Y914698D02*
X1024098D01*
X1021950Y910378D02*
X1024049D01*
X1022194Y914158D02*
X1023805D01*
X1022228Y910918D02*
X1023771D01*
X1022392Y913618D02*
X1023607D01*
X1022413Y911458D02*
X1023586D01*
X1022508Y913078D02*
X1023491D01*
X1022518Y911998D02*
X1023481D01*
X1022549Y912538D02*
X1023450D01*
X1015205Y870958D02*
X1022794D01*
X1015233Y879058D02*
X1022766D01*
X1015381Y882838D02*
X1022618D01*
X1015404Y867178D02*
X1022595D01*
X1014481Y918478D02*
X1022518D01*
X1014626Y898498D02*
X1022373D01*
X1015810Y870418D02*
X1022189D01*
X1015823Y879598D02*
X1022176D01*
X1015898Y882298D02*
X1022101D01*
X1015910Y867718D02*
X1022089D01*
X1016125Y869878D02*
X1021874D01*
X1016132Y880138D02*
X1021867D01*
X1016171Y881758D02*
X1021828D01*
X1016177Y868258D02*
X1021822D01*
X1016274Y869338D02*
X1021725D01*
X1016277Y880678D02*
X1021722D01*
X1016289Y881218D02*
X1021710D01*
X1016291Y868798D02*
X1021708D01*
X1015933Y906058D02*
X1021066D01*
X1015969Y926038D02*
X1021030D01*
X1016069Y919018D02*
X1020930D01*
X1016102Y899038D02*
X1020897D01*
X1016700Y905518D02*
X1020299D01*
X1016722Y925498D02*
X1020277D01*
X1016784Y919558D02*
X1020215D01*
X1016805Y899578D02*
X1020194D01*
X1017202Y904978D02*
X1019797D01*
X1017218Y924958D02*
X1019781D01*
X1017261Y920098D02*
X1019738D01*
X1017275Y900118D02*
X1019724D01*
X1017555Y904438D02*
X1019444D01*
X1017566Y924418D02*
X1019433D01*
X1017596Y920638D02*
X1019403D01*
X1017607Y900658D02*
X1019392D01*
X1017800Y903898D02*
X1019199D01*
X1017808Y923878D02*
X1019191D01*
X1017828Y921178D02*
X1019171D01*
X1017835Y901198D02*
X1019164D01*
X1017957Y903358D02*
X1019042D01*
X1017962Y923338D02*
X1019037D01*
X1017973Y921718D02*
X1019026D01*
X1017977Y901738D02*
X1019022D01*
X1018037Y902818D02*
X1018962D01*
X1018038Y922798D02*
X1018961D01*
X1018042Y922258D02*
X1018957D01*
X1018043Y902278D02*
X1018956D01*
X1010849Y916318D02*
X1017150D01*
X1011050Y908758D02*
X1016949D01*
X1011877Y915778D02*
X1016122D01*
X1011980Y909298D02*
X1016019D01*
X1012483Y915238D02*
X1015516D01*
X1012552Y909838D02*
X1015447D01*
X1012901Y914698D02*
X1015098D01*
X1012950Y910378D02*
X1015049D01*
X1013194Y914158D02*
X1014805D01*
X1013228Y910918D02*
X1014771D01*
X1013392Y913618D02*
X1014607D01*
X1013413Y911458D02*
X1014586D01*
X1013508Y913078D02*
X1014491D01*
X1013518Y911998D02*
X1014481D01*
X1013549Y912538D02*
X1014450D01*
X1005481Y918478D02*
X1013518D01*
X1005626Y898498D02*
X1013373D01*
X960559Y870958D02*
X1012794D01*
X973598Y879058D02*
X1012766D01*
X942800Y882838D02*
X1012618D01*
X942800Y867178D02*
X1012595D01*
X942800Y870418D02*
X1012189D01*
X973764Y879598D02*
X1012176D01*
X971578Y882298D02*
X1012101D01*
X942800Y867718D02*
X1012089D01*
X1006933Y906058D02*
X1012066D01*
X1006969Y926038D02*
X1012030D01*
X1007069Y919018D02*
X1011930D01*
X1007102Y899038D02*
X1011897D01*
X942800Y869878D02*
X1011874D01*
X973795Y880138D02*
X1011867D01*
X972982Y881758D02*
X1011828D01*
X942800Y868258D02*
X1011822D01*
X942800Y869338D02*
X1011725D01*
X973697Y880678D02*
X1011722D01*
X973450Y881218D02*
X1011710D01*
X942800Y868798D02*
X1011708D01*
X1007700Y905518D02*
X1011299D01*
X1007722Y925498D02*
X1011277D01*
X1007784Y919558D02*
X1011215D01*
X1007805Y899578D02*
X1011194D01*
X1008202Y904978D02*
X1010797D01*
X1008218Y924958D02*
X1010781D01*
X1008261Y920098D02*
X1010738D01*
X1008275Y900118D02*
X1010724D01*
X1008555Y904438D02*
X1010444D01*
X1008566Y924418D02*
X1010433D01*
X1008596Y920638D02*
X1010403D01*
X1008607Y900658D02*
X1010392D01*
X1008800Y903898D02*
X1010199D01*
X1008808Y923878D02*
X1010191D01*
X1008828Y921178D02*
X1010171D01*
X1008835Y901198D02*
X1010164D01*
X1008957Y903358D02*
X1010042D01*
X1008962Y923338D02*
X1010037D01*
X1008973Y921718D02*
X1010026D01*
X1008977Y901738D02*
X1010022D01*
X1009037Y902818D02*
X1009962D01*
X1009038Y922798D02*
X1009961D01*
X1009042Y922258D02*
X1009957D01*
X1009043Y902278D02*
X1009956D01*
X985017Y916318D02*
X1008150D01*
X985041Y908758D02*
X1007949D01*
X985172Y915778D02*
X1007122D01*
X985193Y909298D02*
X1007019D01*
X985303Y915238D02*
X1006516D01*
X985320Y909838D02*
X1006447D01*
X985409Y914698D02*
X1006098D01*
X985423Y910378D02*
X1006049D01*
X985492Y914158D02*
X1005805D01*
X985501Y910918D02*
X1005771D01*
X985551Y913618D02*
X1005607D01*
X985557Y911458D02*
X1005586D01*
X985586Y913078D02*
X1005491D01*
X985590Y911998D02*
X1005481D01*
X985599Y912538D02*
X1005450D01*
X984117Y918478D02*
X1004518D01*
X942800Y898498D02*
X1004373D01*
X983861Y906058D02*
X1003066D01*
X951801Y926038D02*
X1003030D01*
X983815Y919018D02*
X1002930D01*
X942800Y899038D02*
X1002897D01*
X983528Y905518D02*
X1002299D01*
X951357Y925498D02*
X1002277D01*
X983477Y919558D02*
X1002215D01*
X942800Y899578D02*
X1002194D01*
X983157Y904978D02*
X1001797D01*
X975736Y924958D02*
X1001781D01*
X983100Y920098D02*
X1001738D01*
X976047Y900118D02*
X1001724D01*
X982742Y904438D02*
X1001444D01*
X977467Y924418D02*
X1001433D01*
X982679Y920638D02*
X1001403D01*
X977660Y900658D02*
X1001392D01*
X982279Y903898D02*
X1001199D01*
X978662Y923878D02*
X1001191D01*
X982208Y921178D02*
X1001171D01*
X978810Y901198D02*
X1001164D01*
X981759Y903358D02*
X1001042D01*
X979609Y923338D02*
X1001037D01*
X981680Y921718D02*
X1001026D01*
X979730Y901738D02*
X1001022D01*
X981173Y902818D02*
X1000962D01*
X980401Y922798D02*
X1000961D01*
X981083Y922258D02*
X1000957D01*
X980504Y902278D02*
X1000956D01*
X981133Y871498D02*
X985866D01*
X981458Y875278D02*
X985541D01*
X981776Y872038D02*
X985223D01*
X981937Y874738D02*
X985062D01*
X982107Y872578D02*
X984892D01*
X982191Y874198D02*
X984808D01*
X982268Y873118D02*
X984731D01*
X982294Y873658D02*
X984705D01*
X961242Y871498D02*
X978866D01*
X959812Y875278D02*
X978541D01*
X961589Y872038D02*
X978223D01*
X961005Y874738D02*
X978062D01*
X961761Y872578D02*
X977892D01*
X961462Y874198D02*
X977808D01*
X961796Y873118D02*
X977731D01*
X961703Y873658D02*
X977705D01*
X942800Y888238D02*
X975472D01*
X942800Y883918D02*
X975021D01*
X942800Y887698D02*
X974449D01*
X942800Y884458D02*
X974292D01*
X942800Y887158D02*
X974013D01*
X942800Y884998D02*
X973929D01*
X942800Y886618D02*
X973784D01*
X942800Y885538D02*
X973746D01*
X942800Y886078D02*
X973701D01*
X942800Y882298D02*
X971421D01*
X942800Y877978D02*
X970402D01*
X942800Y881758D02*
X970017D01*
X950859Y924958D02*
X969863D01*
X942800Y878518D02*
X969740D01*
X942800Y900118D02*
X969552D01*
X942800Y881218D02*
X969549D01*
X942800Y879058D02*
X969401D01*
X942800Y880678D02*
X969302D01*
X942800Y879598D02*
X969235D01*
X942800Y880138D02*
X969204D01*
X950299Y924418D02*
X968132D01*
X942800Y900658D02*
X967939D01*
X949663Y923878D02*
X966937D01*
X942800Y901198D02*
X966789D01*
X948931Y923338D02*
X965990D01*
X942800Y901738D02*
X965869D01*
X948071Y922798D02*
X965198D01*
X942800Y902278D02*
X965095D01*
X942800Y865018D02*
X964700D01*
X942800Y864478D02*
X964700D01*
X942800Y863938D02*
X964700D01*
X942800Y863398D02*
X964700D01*
X942800Y862858D02*
X964700D01*
X942800Y862318D02*
X964700D01*
X942800Y861778D02*
X964700D01*
X942800Y861238D02*
X964700D01*
X942800Y860698D02*
X964700D01*
X942800Y860158D02*
X964700D01*
X942800Y859618D02*
X964700D01*
X960484Y859078D02*
X964700D01*
X961209Y858538D02*
X964700D01*
X961571Y857998D02*
X964700D01*
X961753Y857458D02*
X964700D01*
X961798Y856918D02*
X964700D01*
X961714Y856378D02*
X964700D01*
X961485Y855838D02*
X964700D01*
X947021Y922258D02*
X964516D01*
X942800Y902818D02*
X964426D01*
X945631Y921718D02*
X963919D01*
X942800Y903358D02*
X963840D01*
X943117Y921178D02*
X963391D01*
X942800Y903898D02*
X963320D01*
X942800Y920638D02*
X962920D01*
X942800Y904438D02*
X962857D01*
X942800Y920098D02*
X962499D01*
X942800Y904978D02*
X962442D01*
X942800Y919558D02*
X962122D01*
X942800Y905518D02*
X962071D01*
X942800Y919018D02*
X961784D01*
X942800Y906058D02*
X961738D01*
X942800Y918478D02*
X961482D01*
X942800Y906598D02*
X961441D01*
X942800Y917938D02*
X961212D01*
X942800Y907138D02*
X961176D01*
X942800Y917398D02*
X960974D01*
X942800Y907678D02*
X960942D01*
X942800Y916858D02*
X960764D01*
X942800Y908218D02*
X960737D01*
X942800Y916318D02*
X960582D01*
X942800Y908758D02*
X960558D01*
X942800Y915778D02*
X960427D01*
X942800Y909298D02*
X960406D01*
X942800Y915238D02*
X960296D01*
X942800Y909838D02*
X960279D01*
X942800Y914698D02*
X960190D01*
X942800Y910378D02*
X960176D01*
X942800Y914158D02*
X960107D01*
X942800Y910918D02*
X960098D01*
X942800Y913618D02*
X960048D01*
X942800Y911458D02*
X960042D01*
X942800Y913078D02*
X960013D01*
X942800Y911998D02*
X960009D01*
X942800Y912538D02*
X960000D01*
X942800Y875278D02*
X959187D01*
X942800Y859078D02*
X958515D01*
X942800Y870958D02*
X958440D01*
X942800Y874738D02*
X957994D01*
X942800Y858538D02*
X957790D01*
X942800Y871498D02*
X957757D01*
X942800Y874198D02*
X957537D01*
X942800Y855838D02*
X957514D01*
X942800Y857998D02*
X957428D01*
X942800Y872038D02*
X957410D01*
X942800Y873658D02*
X957296D01*
X942800Y856378D02*
X957285D01*
X942800Y857458D02*
X957246D01*
X942800Y872578D02*
X957238D01*
X942800Y873118D02*
X957203D01*
X942800Y856918D02*
X957201D01*
G54D138*
X896500Y829000D03*
X901000Y835000D03*
X993500D03*
X989000Y829000D03*
X1046000Y853500D03*
Y841500D03*
X1036000Y853500D03*
Y841500D03*
X849000Y869000D03*
X839000Y881000D03*
X849000D03*
X839000Y869000D03*
X896500Y886000D03*
X901000Y880000D03*
X993500D03*
X989000Y886000D03*
X1046000Y869000D03*
Y881000D03*
X1036000D03*
Y869000D03*
G74*
X0Y0D02*
M02*
