*
*
G04 PADS Layout (Build Number 2005.103.1) generated Gerber (RS-274-X) file*
G04 PC Version=2.1*
*
%IN "7758.pcb"*%
*
%MOIN*%
*
%FSLAX35Y35*%
*
*
*
*
G04 PC Standard Apertures*
*
*
G04 Thermal Relief Aperture macro.*
%AMTER*
1,1,$1,0,0*
1,0,$1-$2,0,0*
21,0,$3,$4,0,0,45*
21,0,$3,$4,0,0,135*
%
*
*
G04 Annular Aperture macro.*
%AMANN*
1,1,$1,0,0*
1,0,$2,0,0*
%
*
*
G04 Odd Aperture macro.*
%AMODD*
1,1,$1,0,0*
1,0,$1-0.005,0,0*
%
*
*
G04 PC Custom Aperture Macros*
*
*
*
*
*
*
G04 PC Aperture Table*
*
%ADD014C,0.065*%
%ADD018R,0.065X0.065*%
%ADD024C,0.2*%
%ADD052C,0.01*%
%ADD053C,0.02*%
%ADD138C,0.03*%
%ADD193C,0.25*%
*
*
*
*
G04 PC Custom Flashes*
G04 Layer Name 7758.pcb - flashes*
%LPD*%
*
*
G04 PC Circuitry*
G04 Layer Name 7758.pcb - circuitry*
%LPD*%
*
G54D14*
G01X844000Y902500D03*
X853000D03*
X862000D03*
X871000D03*
X880000D03*
X839500Y912500D03*
X848500D03*
X857500D03*
X866500D03*
X875500D03*
X844000Y922500D03*
X853000D03*
X862000D03*
X871000D03*
X880000D03*
X891000Y811500D03*
X881000D03*
X871000D03*
X861000D03*
X851000D03*
X841000D03*
X831000D03*
X821000D03*
X811000D03*
X1062500D03*
X1052500D03*
X1042500D03*
X1032500D03*
X1022500D03*
X1012500D03*
X1002500D03*
X1041000Y902500D03*
X1032000D03*
X1023000D03*
X1014000D03*
X1005000D03*
X1045500Y912500D03*
X1036500D03*
X1027500D03*
X1018500D03*
X1009500D03*
X1041000Y922500D03*
X1032000D03*
X1023000D03*
X1014000D03*
X1005000D03*
G54D18*
X901000Y811500D03*
X1072500D03*
G54D24*
X910200Y912500D03*
X811800D03*
X1071200D03*
X972800D03*
G54D52*
X831000Y811500D02*
X871500Y852000D01*
X976500*
X851000Y811500D02*
Y819500D01*
X879000Y847500*
X979000*
X983500Y852000*
X861000Y811500D02*
Y822500D01*
X883500Y845000*
X983500*
X987000Y841500*
X871000Y811500D02*
Y821500D01*
X891000Y841500*
X980000*
X881000Y811500D02*
Y820000D01*
X899500Y838500*
X975500*
X976000Y838000*
X988500*
X990000Y839500*
Y845500*
X989000Y852000D02*
Y846500D01*
X990000Y845500*
X987000Y873500D02*
X996000D01*
X1000000Y877500*
Y884500*
X1011500Y896000*
X1025000*
X1027500Y898500*
Y912500*
X989000Y863000D02*
X1002500Y876500D01*
Y883000*
X1013000Y893500*
X1028000*
X1032000Y897500*
Y902500*
X983500Y863000D02*
Y875000D01*
X985000Y876500*
X995500*
X997500Y878500*
Y886000*
X1014000Y902500*
X976500Y863000D02*
Y877000D01*
X982500Y883000*
Y887500*
X996000Y901000*
Y910000*
X1003500Y917500*
X1009000*
X1014000Y922500*
X980000Y873500D02*
Y876500D01*
X985000Y881500*
Y886500*
X998500Y900000*
Y908000*
X1003000Y912500*
X1009500*
X800000Y800000D02*
X1083500D01*
Y957500*
X800000*
Y800000*
G54D53*
X989000Y792812D02*
Y781000D01*
Y792812D02*
X984909D01*
X984909D02*
X983545Y792250D01*
X983090Y791687*
X983090D02*
X982636Y790562D01*
X982636D02*
Y789437D01*
X982636D02*
X983090Y788312D01*
X983090D02*
X983545Y787750D01*
X984909Y787187*
X989000D02*
X984909D01*
X984909D02*
X983545Y786625D01*
X983090Y786062*
X983090D02*
X982636Y784937D01*
X982636D02*
Y783250D01*
X983090Y782125*
X983090D02*
X983545Y781562D01*
X983545D02*
X984909Y781000D01*
X989000*
X975818Y792812D02*
X976727Y792250D01*
X977636Y791125*
X978090Y790000*
X978090D02*
X978545Y788312D01*
X978545D02*
Y785500D01*
X978090Y783812*
X978090D02*
X977636Y782687D01*
X977636D02*
X976727Y781562D01*
X976727D02*
X975818Y781000D01*
X974000*
X973090Y781562*
X973090D02*
X972181Y782687D01*
X972181D02*
X971727Y783812D01*
X971727D02*
X971272Y785500D01*
X971272D02*
Y788312D01*
X971272D02*
X971727Y790000D01*
X972181Y791125*
X972181D02*
X973090Y792250D01*
X973090D02*
X974000Y792812D01*
X974000D02*
X975818D01*
X964000D02*
Y781000D01*
X967181Y792812D02*
X960818D01*
X953545D02*
Y781000D01*
X956727Y792812D02*
X950363D01*
X943545D02*
X944454Y792250D01*
X944454D02*
X945363Y791125D01*
X945363D02*
X945818Y790000D01*
X946272Y788312*
X946272D02*
Y785500D01*
X946272D02*
X945818Y783812D01*
X945818D02*
X945363Y782687D01*
X945363D02*
X944454Y781562D01*
X944454D02*
X943545Y781000D01*
X941727*
X940818Y781562*
X940818D02*
X939909Y782687D01*
X939909D02*
X939454Y783812D01*
X939454D02*
X939000Y785500D01*
Y788312*
X939000D02*
X939454Y790000D01*
X939454D02*
X939909Y791125D01*
X940818Y792250*
X941727Y792812*
X941727D02*
X943545D01*
X934909D02*
Y781000D01*
Y792812D02*
X931272Y781000D01*
X927636Y792812D02*
X931272Y781000D01*
X927636Y792812D02*
Y781000D01*
X906727Y791125D02*
X907636Y792250D01*
X909000Y792812*
X909000D02*
X910818D01*
X910818D02*
X912181Y792250D01*
X912181D02*
X913090Y791125D01*
X913090D02*
Y790000D01*
X913090D02*
X912636Y788875D01*
X912181Y788312*
X912181D02*
X911272Y787750D01*
X911272D02*
X908545Y786625D01*
X907636Y786062*
X907636D02*
X907181Y785500D01*
X907181D02*
X906727Y784375D01*
Y782687*
X906727D02*
X907636Y781562D01*
X907636D02*
X909000Y781000D01*
X910818*
X912181Y781562*
X912181D02*
X913090Y782687D01*
X902636Y792812D02*
Y781000D01*
X898545Y792812D02*
Y781000D01*
Y792812D02*
X895363D01*
X895363D02*
X894000Y792250D01*
X893090Y791125*
X893090D02*
X892636Y790000D01*
X892181Y788312*
X892181D02*
Y785500D01*
X892181D02*
X892636Y783812D01*
X892636D02*
X893090Y782687D01*
X893090D02*
X894000Y781562D01*
X894000D02*
X895363Y781000D01*
X895363D02*
X898545D01*
X888090Y792812D02*
Y781000D01*
Y792812D02*
X882181D01*
X888090Y787187D02*
X884454D01*
X888090Y781000D02*
X882181D01*
X871909Y767812D02*
X876909D01*
X876909D02*
X874181Y763312D01*
X874181D02*
X875545D01*
X875545D02*
X876454Y762750D01*
X876454D02*
X876909Y762187D01*
X876909D02*
X877363Y760500D01*
X877363D02*
Y759375D01*
X877363D02*
X876909Y757687D01*
X876909D02*
X876000Y756562D01*
X876000D02*
X874636Y756000D01*
X873272*
X873272D02*
X871909Y756562D01*
X871909D02*
X871454Y757125D01*
X871454D02*
X871000Y758250D01*
X881454Y765562D02*
X882363Y766125D01*
X882363D02*
X883727Y767812D01*
X883727D02*
Y756000D01*
X887818Y761062D02*
X896000D01*
X902818Y767812D02*
X901454Y767250D01*
X901454D02*
X900545Y765562D01*
X900545D02*
X900090Y762750D01*
X900090D02*
Y761062D01*
X900090D02*
X900545Y758250D01*
X901454Y756562*
X901454D02*
X902818Y756000D01*
X903727*
X905090Y756562*
X905090D02*
X906000Y758250D01*
X906454Y761062*
X906454D02*
Y762750D01*
X906454D02*
X906000Y765562D01*
X906000D02*
X905090Y767250D01*
X905090D02*
X903727Y767812D01*
X903727D02*
X902818D01*
X913272D02*
X911909Y767250D01*
X911000Y765562*
X911000D02*
X910545Y762750D01*
Y761062*
X910545D02*
X911000Y758250D01*
X911909Y756562*
X911909D02*
X913272Y756000D01*
X913272D02*
X914181D01*
X914181D02*
X915545Y756562D01*
X915545D02*
X916454Y758250D01*
X916454D02*
X916909Y761062D01*
X916909D02*
Y762750D01*
X916454Y765562*
X916454D02*
X915545Y767250D01*
X914181Y767812*
X914181D02*
X913272D01*
X923727D02*
X922363Y767250D01*
X922363D02*
X921454Y765562D01*
X921454D02*
X921000Y762750D01*
Y761062*
X921000D02*
X921454Y758250D01*
X921454D02*
X922363Y756562D01*
X922363D02*
X923727Y756000D01*
X924636*
X926000Y756562*
X926000D02*
X926909Y758250D01*
X927363Y761062*
X927363D02*
Y762750D01*
X927363D02*
X926909Y765562D01*
X926909D02*
X926000Y767250D01*
X924636Y767812*
X924636D02*
X923727D01*
X937818D02*
X933272Y756000D01*
X931454Y767812D02*
X937818D01*
X952363D02*
Y756000D01*
Y767812D02*
X956454D01*
X956454D02*
X957818Y767250D01*
X958272Y766687*
X958272D02*
X958727Y765562D01*
X958727D02*
Y764437D01*
X958727D02*
X958272Y763312D01*
X958272D02*
X957818Y762750D01*
X956454Y762187*
X956454D02*
X952363D01*
X955545D02*
X958727Y756000D01*
X962818Y767812D02*
Y756000D01*
Y767812D02*
X968727D01*
X962818Y762187D02*
X966454D01*
X962818Y756000D02*
X968727D01*
X972818Y767812D02*
X976454Y756000D01*
X980090Y767812D02*
X976454Y756000D01*
X994636Y765562D02*
X995545Y766125D01*
X996909Y767812*
X996909D02*
Y756000D01*
G54D138*
X879000Y835000D03*
X883500Y829000D03*
X896500D03*
X901000Y835000D03*
X923000Y857000D03*
X959500D03*
X987000Y841500D03*
X976500Y852000D03*
X989000D03*
X980000Y841500D03*
X983500Y852000D03*
X971500Y835000D03*
X976000Y829000D03*
X993500Y835000D03*
X989000Y829000D03*
X1046000Y853500D03*
Y841500D03*
X1036000Y853500D03*
Y841500D03*
X1024000D03*
Y853500D03*
X1014000Y841500D03*
Y853500D03*
X849000Y869000D03*
X839000Y881000D03*
X849000D03*
X839000Y869000D03*
X861000Y881000D03*
Y869000D03*
X871000D03*
Y881000D03*
X883500Y886000D03*
X879000Y880000D03*
X923000Y873000D03*
X896500Y886000D03*
X907500Y888000D03*
X901000Y880000D03*
X959500Y873000D03*
X987000Y873500D03*
X989000Y863000D03*
X983500D03*
X976500D03*
X980000Y873500D03*
X993500Y880000D03*
X989000Y886000D03*
X976000D03*
X971500Y880000D03*
X1046000Y869000D03*
Y881000D03*
X1036000D03*
Y869000D03*
X1024000D03*
Y881000D03*
X1014000Y869000D03*
Y881000D03*
G54D193*
X819700Y859100D03*
X941700Y815700D03*
X1063800Y859100D03*
X941700Y933900D03*
X0Y0D02*
M02*
