*
*
G04 PADS Layout (Build Number 2005.103.1) generated Gerber (RS-274-X) file*
G04 PC Version=2.1*
*
%IN "7758.pcb"*%
*
%MOIN*%
*
%FSLAX35Y35*%
*
*
*
*
G04 PC Standard Apertures*
*
*
G04 Thermal Relief Aperture macro.*
%AMTER*
1,1,$1,0,0*
1,0,$1-$2,0,0*
21,0,$3,$4,0,0,45*
21,0,$3,$4,0,0,135*
%
*
*
G04 Annular Aperture macro.*
%AMANN*
1,1,$1,0,0*
1,0,$2,0,0*
%
*
*
G04 Odd Aperture macro.*
%AMODD*
1,1,$1,0,0*
1,0,$1-0.005,0,0*
%
*
*
G04 PC Custom Aperture Macros*
*
*
*
*
*
*
G04 PC Aperture Table*
*
%ADD030C,0.04*%
%ADD052C,0.01*%
%ADD053C,0.02*%
%ADD074R,0.045X0.071*%
%ADD081R,0.071X0.045*%
%ADD097R,0.038X0.036*%
%ADD180R,0.064X0.11*%
%ADD208R,0.138X0.063*%
%ADD209R,0.016X0.05*%
*
*
*
*
G04 PC Custom Flashes*
G04 Layer Name 7758.pcb - flashes*
%LPD*%
*
*
G04 PC Circuitry*
G04 Layer Name 7758.pcb - circuitry*
%LPD*%
*
G54D30*
G01X832500Y830000D03*
X930000Y950000D03*
X1075000Y875000D03*
G54D52*
X800000Y800000D02*
X1083500D01*
Y957500*
X800000*
Y800000*
G54D53*
X871909Y767812D02*
X876909D01*
X876909D02*
X874181Y763312D01*
X874181D02*
X875545D01*
X875545D02*
X876454Y762750D01*
X876454D02*
X876909Y762187D01*
X876909D02*
X877363Y760500D01*
X877363D02*
Y759375D01*
X877363D02*
X876909Y757687D01*
X876909D02*
X876000Y756562D01*
X876000D02*
X874636Y756000D01*
X873272*
X873272D02*
X871909Y756562D01*
X871909D02*
X871454Y757125D01*
X871454D02*
X871000Y758250D01*
X881454Y765562D02*
X882363Y766125D01*
X882363D02*
X883727Y767812D01*
X883727D02*
Y756000D01*
X887818Y761062D02*
X896000D01*
X902818Y767812D02*
X901454Y767250D01*
X901454D02*
X900545Y765562D01*
X900545D02*
X900090Y762750D01*
X900090D02*
Y761062D01*
X900090D02*
X900545Y758250D01*
X901454Y756562*
X901454D02*
X902818Y756000D01*
X903727*
X905090Y756562*
X905090D02*
X906000Y758250D01*
X906454Y761062*
X906454D02*
Y762750D01*
X906454D02*
X906000Y765562D01*
X906000D02*
X905090Y767250D01*
X905090D02*
X903727Y767812D01*
X903727D02*
X902818D01*
X913272D02*
X911909Y767250D01*
X911000Y765562*
X911000D02*
X910545Y762750D01*
Y761062*
X910545D02*
X911000Y758250D01*
X911909Y756562*
X911909D02*
X913272Y756000D01*
X913272D02*
X914181D01*
X914181D02*
X915545Y756562D01*
X915545D02*
X916454Y758250D01*
X916454D02*
X916909Y761062D01*
X916909D02*
Y762750D01*
X916454Y765562*
X916454D02*
X915545Y767250D01*
X914181Y767812*
X914181D02*
X913272D01*
X923727D02*
X922363Y767250D01*
X922363D02*
X921454Y765562D01*
X921454D02*
X921000Y762750D01*
Y761062*
X921000D02*
X921454Y758250D01*
X921454D02*
X922363Y756562D01*
X922363D02*
X923727Y756000D01*
X924636*
X926000Y756562*
X926000D02*
X926909Y758250D01*
X927363Y761062*
X927363D02*
Y762750D01*
X927363D02*
X926909Y765562D01*
X926909D02*
X926000Y767250D01*
X924636Y767812*
X924636D02*
X923727D01*
X937818D02*
X933272Y756000D01*
X931454Y767812D02*
X937818D01*
X952363D02*
Y756000D01*
Y767812D02*
X956454D01*
X956454D02*
X957818Y767250D01*
X958272Y766687*
X958272D02*
X958727Y765562D01*
X958727D02*
Y764437D01*
X958727D02*
X958272Y763312D01*
X958272D02*
X957818Y762750D01*
X956454Y762187*
X956454D02*
X952363D01*
X955545D02*
X958727Y756000D01*
X962818Y767812D02*
Y756000D01*
Y767812D02*
X968727D01*
X962818Y762187D02*
X966454D01*
X962818Y756000D02*
X968727D01*
X972818Y767812D02*
X976454Y756000D01*
X980090Y767812D02*
X976454Y756000D01*
X994636Y765562D02*
X995545Y766125D01*
X996909Y767812*
X996909D02*
Y756000D01*
X882363Y791125D02*
X881454Y792250D01*
X881454D02*
X880090Y792812D01*
X880090D02*
X878272D01*
X878272D02*
X876909Y792250D01*
X876000Y791125*
Y790000*
X876454Y788875*
X876454D02*
X876909Y788312D01*
X876909D02*
X877818Y787750D01*
X880545Y786625*
X881454Y786062*
X881454D02*
X881909Y785500D01*
X882363Y784375*
X882363D02*
Y782687D01*
X882363D02*
X881454Y781562D01*
X881454D02*
X880090Y781000D01*
X880090D02*
X878272D01*
X878272D02*
X876909Y781562D01*
X876909D02*
X876000Y782687D01*
X889181Y792812D02*
X888272Y792250D01*
X888272D02*
X887363Y791125D01*
X887363D02*
X886909Y790000D01*
X886454Y788312*
X886454D02*
Y785500D01*
X886454D02*
X886909Y783812D01*
X886909D02*
X887363Y782687D01*
X887363D02*
X888272Y781562D01*
X888272D02*
X889181Y781000D01*
X889181D02*
X891000D01*
X891909Y781562*
X891909D02*
X892818Y782687D01*
X892818D02*
X893272Y783812D01*
X893272D02*
X893727Y785500D01*
Y788312*
X893727D02*
X893272Y790000D01*
X893272D02*
X892818Y791125D01*
X891909Y792250*
X891000Y792812*
X891000D02*
X889181D01*
X897818D02*
Y781000D01*
X903272*
X907363Y792812D02*
Y781000D01*
Y792812D02*
X910545D01*
X910545D02*
X911909Y792250D01*
X912818Y791125*
X913272Y790000*
X913272D02*
X913727Y788312D01*
X913727D02*
Y785500D01*
X913272Y783812*
X913272D02*
X912818Y782687D01*
X912818D02*
X911909Y781562D01*
X911909D02*
X910545Y781000D01*
X907363*
X917818Y792812D02*
Y781000D01*
Y792812D02*
X923727D01*
X917818Y787187D02*
X921454D01*
X917818Y781000D02*
X923727D01*
X927818Y792812D02*
Y781000D01*
Y792812D02*
X931909D01*
X931909D02*
X933272Y792250D01*
X933272D02*
X933727Y791687D01*
X933727D02*
X934181Y790562D01*
X934181D02*
Y789437D01*
X934181D02*
X933727Y788312D01*
X933727D02*
X933272Y787750D01*
X933272D02*
X931909Y787187D01*
X931909D02*
X927818D01*
X931000D02*
X934181Y781000D01*
X938272Y792812D02*
Y781000D01*
Y792812D02*
X942363D01*
X942363D02*
X943727Y792250D01*
X944181Y791687*
X944181D02*
X944636Y790562D01*
X944636D02*
Y788875D01*
X944181Y787750*
X944181D02*
X943727Y787187D01*
X943727D02*
X942363Y786625D01*
X942363D02*
X938272D01*
X952363Y792812D02*
X948727Y781000D01*
X952363Y792812D02*
X956000Y781000D01*
X950090Y784937D02*
X954636D01*
X966454Y791125D02*
X965545Y792250D01*
X964181Y792812*
X964181D02*
X962363D01*
X962363D02*
X961000Y792250D01*
X960090Y791125*
X960090D02*
Y790000D01*
X960090D02*
X960545Y788875D01*
X961000Y788312*
X961000D02*
X961909Y787750D01*
X964636Y786625*
X965545Y786062*
X965545D02*
X966000Y785500D01*
X966454Y784375*
X966454D02*
Y782687D01*
X966454D02*
X965545Y781562D01*
X965545D02*
X964181Y781000D01*
X964181D02*
X962363D01*
X962363D02*
X961000Y781562D01*
X961000D02*
X960090Y782687D01*
X973727Y792812D02*
Y781000D01*
X970545Y792812D02*
X976909D01*
X981000D02*
Y781000D01*
Y792812D02*
X986909D01*
X981000Y787187D02*
X984636D01*
X981000Y781000D02*
X986909D01*
G54D74*
X884192Y880000D03*
X895807D03*
X884192Y835000D03*
X895807D03*
X976692Y880000D03*
X988307D03*
X976692Y835000D03*
X988307D03*
G54D81*
X907500Y883307D03*
Y871692D03*
G54D97*
Y859448D03*
Y865551D03*
Y853051D03*
Y846948D03*
G54D180*
X935511Y882500D03*
X924488D03*
X946988D03*
X958011D03*
X946988Y865000D03*
X958011D03*
X935511D03*
X924488D03*
G54D208*
X1041023Y847500D03*
X1018976D03*
X843976Y875000D03*
X866023D03*
X1041023D03*
X1018976D03*
G54D209*
X898750Y868500D03*
X896250D03*
X893750D03*
X891250D03*
X888750D03*
X886250D03*
X883750D03*
X881250D03*
Y846500D03*
X883750D03*
X886250D03*
X888750D03*
X891250D03*
X893750D03*
X896250D03*
X898750D03*
X991250Y868500D03*
X988750D03*
X986250D03*
X983750D03*
X981250D03*
X978750D03*
X976250D03*
X973750D03*
Y846500D03*
X976250D03*
X978750D03*
X981250D03*
X983750D03*
X986250D03*
X988750D03*
X991250D03*
X0Y0D02*
M02*
