*
*
G04 PADS Layout (Build Number 2005.103.1) generated Gerber (RS-274-X) file*
G04 PC Version=2.1*
*
%IN "7758.pcb"*%
*
%MOIN*%
*
%FSLAX35Y35*%
*
*
*
*
G04 PC Standard Apertures*
*
*
G04 Thermal Relief Aperture macro.*
%AMTER*
1,1,$1,0,0*
1,0,$1-$2,0,0*
21,0,$3,$4,0,0,45*
21,0,$3,$4,0,0,135*
%
*
*
G04 Annular Aperture macro.*
%AMANN*
1,1,$1,0,0*
1,0,$2,0,0*
%
*
*
G04 Odd Aperture macro.*
%AMODD*
1,1,$1,0,0*
1,0,$1-0.005,0,0*
%
*
*
G04 PC Custom Aperture Macros*
*
*
*
*
*
*
G04 PC Aperture Table*
*
%ADD052C,0.01*%
%ADD053C,0.02*%
%ADD063C,0.008*%
*
*
*
*
G04 PC Custom Flashes*
G04 Layer Name 7758.pcb - flashes*
%LPD*%
*
*
G04 PC Circuitry*
G04 Layer Name 7758.pcb - circuitry*
%LPD*%
*
G54D52*
G01X890500Y880000D02*
G75*
G03X890500I-500J0D01*
G01Y835000D02*
G03X890500I-500J0D01*
G01X983000Y880000D02*
G03X983000I-500J0D01*
G01Y835000D02*
G03X983000I-500J0D01*
G01X908000Y877500D02*
G03X908000I-500J0D01*
G01X800000Y800000D02*
X1083500D01*
Y957500*
X800000*
Y800000*
G54D53*
X892363Y791125D02*
X891454Y792250D01*
X891454D02*
X890090Y792812D01*
X890090D02*
X888272D01*
X888272D02*
X886909Y792250D01*
X886000Y791125*
Y790000*
X886454Y788875*
X886454D02*
X886909Y788312D01*
X886909D02*
X887818Y787750D01*
X890545Y786625*
X891454Y786062*
X891454D02*
X891909Y785500D01*
X892363Y784375*
X892363D02*
Y782687D01*
X892363D02*
X891454Y781562D01*
X891454D02*
X890090Y781000D01*
X890090D02*
X888272D01*
X888272D02*
X886909Y781562D01*
X886909D02*
X886000Y782687D01*
X896454Y792812D02*
Y781000D01*
X900545Y792812D02*
Y781000D01*
X906000*
X910090Y792812D02*
Y781000D01*
X916454Y792812D02*
X910090Y784937D01*
X912363Y787750D02*
X916454Y781000D01*
X926909Y791125D02*
X926000Y792250D01*
X924636Y792812*
X924636D02*
X922818D01*
X922818D02*
X921454Y792250D01*
X921454D02*
X920545Y791125D01*
Y790000*
X921000Y788875*
X921454Y788312*
X921454D02*
X922363Y787750D01*
X922363D02*
X925090Y786625D01*
X925090D02*
X926000Y786062D01*
X926000D02*
X926454Y785500D01*
X926454D02*
X926909Y784375D01*
Y782687*
X926909D02*
X926000Y781562D01*
X926000D02*
X924636Y781000D01*
X922818*
X921454Y781562*
X921454D02*
X920545Y782687D01*
X937818Y790000D02*
X937363Y791125D01*
X937363D02*
X936454Y792250D01*
X936454D02*
X935545Y792812D01*
X935545D02*
X933727D01*
X933727D02*
X932818Y792250D01*
X931909Y791125*
X931454Y790000*
X931454D02*
X931000Y788312D01*
X931000D02*
Y785500D01*
X931454Y783812*
X931454D02*
X931909Y782687D01*
X931909D02*
X932818Y781562D01*
X932818D02*
X933727Y781000D01*
X935545*
X936454Y781562*
X936454D02*
X937363Y782687D01*
X937363D02*
X937818Y783812D01*
X941909Y792812D02*
Y781000D01*
Y792812D02*
X946000D01*
X946000D02*
X947363Y792250D01*
X947363D02*
X947818Y791687D01*
X947818D02*
X948272Y790562D01*
X948272D02*
Y789437D01*
X948272D02*
X947818Y788312D01*
X947818D02*
X947363Y787750D01*
X947363D02*
X946000Y787187D01*
X946000D02*
X941909D01*
X945090D02*
X948272Y781000D01*
X952363Y792812D02*
Y781000D01*
Y792812D02*
X958272D01*
X952363Y787187D02*
X956000D01*
X952363Y781000D02*
X958272D01*
X962363Y792812D02*
Y781000D01*
Y792812D02*
X968272D01*
X962363Y787187D02*
X966000D01*
X962363Y781000D02*
X968272D01*
X972363Y792812D02*
Y781000D01*
Y792812D02*
X978727Y781000D01*
Y792812D02*
Y781000D01*
X871909Y767812D02*
X876909D01*
X876909D02*
X874181Y763312D01*
X874181D02*
X875545D01*
X875545D02*
X876454Y762750D01*
X876454D02*
X876909Y762187D01*
X876909D02*
X877363Y760500D01*
X877363D02*
Y759375D01*
X877363D02*
X876909Y757687D01*
X876909D02*
X876000Y756562D01*
X876000D02*
X874636Y756000D01*
X873272*
X873272D02*
X871909Y756562D01*
X871909D02*
X871454Y757125D01*
X871454D02*
X871000Y758250D01*
X881454Y765562D02*
X882363Y766125D01*
X882363D02*
X883727Y767812D01*
X883727D02*
Y756000D01*
X887818Y761062D02*
X896000D01*
X902818Y767812D02*
X901454Y767250D01*
X901454D02*
X900545Y765562D01*
X900545D02*
X900090Y762750D01*
X900090D02*
Y761062D01*
X900090D02*
X900545Y758250D01*
X901454Y756562*
X901454D02*
X902818Y756000D01*
X903727*
X905090Y756562*
X905090D02*
X906000Y758250D01*
X906454Y761062*
X906454D02*
Y762750D01*
X906454D02*
X906000Y765562D01*
X906000D02*
X905090Y767250D01*
X905090D02*
X903727Y767812D01*
X903727D02*
X902818D01*
X913272D02*
X911909Y767250D01*
X911000Y765562*
X911000D02*
X910545Y762750D01*
Y761062*
X910545D02*
X911000Y758250D01*
X911909Y756562*
X911909D02*
X913272Y756000D01*
X913272D02*
X914181D01*
X914181D02*
X915545Y756562D01*
X915545D02*
X916454Y758250D01*
X916454D02*
X916909Y761062D01*
X916909D02*
Y762750D01*
X916454Y765562*
X916454D02*
X915545Y767250D01*
X914181Y767812*
X914181D02*
X913272D01*
X923727D02*
X922363Y767250D01*
X922363D02*
X921454Y765562D01*
X921454D02*
X921000Y762750D01*
Y761062*
X921000D02*
X921454Y758250D01*
X921454D02*
X922363Y756562D01*
X922363D02*
X923727Y756000D01*
X924636*
X926000Y756562*
X926000D02*
X926909Y758250D01*
X927363Y761062*
X927363D02*
Y762750D01*
X927363D02*
X926909Y765562D01*
X926909D02*
X926000Y767250D01*
X924636Y767812*
X924636D02*
X923727D01*
X937818D02*
X933272Y756000D01*
X931454Y767812D02*
X937818D01*
X952363D02*
Y756000D01*
Y767812D02*
X956454D01*
X956454D02*
X957818Y767250D01*
X958272Y766687*
X958272D02*
X958727Y765562D01*
X958727D02*
Y764437D01*
X958727D02*
X958272Y763312D01*
X958272D02*
X957818Y762750D01*
X956454Y762187*
X956454D02*
X952363D01*
X955545D02*
X958727Y756000D01*
X962818Y767812D02*
Y756000D01*
Y767812D02*
X968727D01*
X962818Y762187D02*
X966454D01*
X962818Y756000D02*
X968727D01*
X972818Y767812D02*
X976454Y756000D01*
X980090Y767812D02*
X976454Y756000D01*
X994636Y765562D02*
X995545Y766125D01*
X996909Y767812*
X996909D02*
Y756000D01*
G54D63*
X936692Y877578D02*
X923307D01*
X923307D02*
Y887421D01*
X936692*
X936692D02*
Y877578D01*
X907795Y862500D02*
G03X907795I-295J0D01*
G01Y850000D02*
G03X907795I-295J0D01*
G01X800300Y894000D02*
Y957500D01*
X921700*
Y894000*
X800300*
X827600Y957500D02*
X894400D01*
Y981500*
X827600*
Y957500*
X805500D02*
X818000D01*
Y981500*
X805500*
Y957500*
X904000D02*
X916500D01*
Y981500*
X904000*
Y957500*
X945807Y887421D02*
X959192D01*
X959192D02*
Y877578D01*
X959192D02*
X945807D01*
X945807D02*
Y887421D01*
Y869921D02*
X959192D01*
X959192D02*
Y860078D01*
X959192D02*
X945807D01*
X945807D02*
Y869921D01*
X936692Y860078D02*
X923307D01*
X923307D02*
Y869921D01*
X936692*
X936692D02*
Y860078D01*
X1042992Y843000D02*
Y839500D01*
X1038000Y834507*
X1038000D02*
X1017007D01*
X1017007D02*
Y843000D01*
Y852000D02*
Y860492D01*
X1017007D02*
X1038992D01*
X1042992Y856492*
Y852000*
X842007Y879500D02*
Y883000D01*
X842007D02*
X847000Y887992D01*
X867992*
Y879500*
Y870500D02*
Y862007D01*
X867992D02*
X846007D01*
X846007D02*
X842007Y866007D01*
X842007D02*
Y870500D01*
X1042992D02*
Y867000D01*
X1038000Y862007*
X1038000D02*
X1017007D01*
X1017007D02*
Y870500D01*
Y879500D02*
Y887992D01*
X1017007D02*
X1038992D01*
X1042992Y883992*
Y879500*
X911000Y821500D02*
Y801500D01*
X801000*
Y821500*
X841000*
Y829000*
X871000*
Y821500*
X911000*
X992500D02*
X1022500D01*
Y829000*
X1052500*
Y821500*
X1082500*
Y801500*
X992500*
Y821500*
X961300Y894000D02*
Y957500D01*
X1082700*
Y894000*
X961300*
X988600Y957500D02*
X1055400D01*
Y981500*
X988600*
Y957500*
X966500D02*
X979000D01*
Y981500*
X966500*
Y957500*
X1065000D02*
X1077500D01*
Y981500*
X1065000*
Y957500*
X900000Y865000D02*
X880000D01*
Y850000*
X900000*
Y865000*
X903000Y867000D02*
G03X903000I-1000J0D01*
G01X992500Y865000D02*
X972500D01*
Y850000*
X992500*
Y865000*
X995500Y867000D02*
G03X995500I-1000J0D01*
G01X915031Y877900D02*
X919100D01*
X915031D02*
Y879331D01*
X915031D02*
X915225Y879809D01*
X915418Y879968*
X915418D02*
X915806Y880127D01*
X916193*
X916193D02*
X916581Y879968D01*
X916775Y879809*
X916968Y879331*
X916968D02*
Y877900D01*
Y879013D02*
X919100Y880127D01*
X915806Y881559D02*
X915612Y881877D01*
X915612D02*
X915031Y882354D01*
X915031D02*
X919100D01*
X890286Y889500D02*
X890127Y889887D01*
X890127D02*
X889809Y890275D01*
X889490Y890468*
X889490D02*
X888854D01*
X888854D02*
X888536Y890275D01*
X888218Y889887*
X888218D02*
X888059Y889500D01*
X887900Y888918*
X887900D02*
Y887950D01*
X888059Y887368*
X888059D02*
X888218Y886981D01*
X888536Y886593*
X888536D02*
X888854Y886400D01*
X888854D02*
X889490D01*
X889490D02*
X889809Y886593D01*
X889809D02*
X890127Y886981D01*
X890286Y887368*
X893309Y890468D02*
X891718Y887756D01*
X894104*
X893309Y890468D02*
Y886400D01*
X911531Y857400D02*
X915600D01*
X911531D02*
Y858831D01*
X911531D02*
X911725Y859309D01*
X911918Y859468*
X911918D02*
X912306Y859627D01*
X912693*
X912693D02*
X913081Y859468D01*
X913275Y859309*
X913468Y858831*
X913468D02*
Y857400D01*
Y858513D02*
X915600Y859627D01*
X911531Y863127D02*
Y861536D01*
X913275Y861377*
X913081Y861536*
X912887Y862013*
X912887D02*
Y862490D01*
X912887D02*
X913081Y862968D01*
X913468Y863286*
X913468D02*
X914050Y863445D01*
X914437Y863286*
X914437D02*
X915018Y863127D01*
X915018D02*
X915406Y862809D01*
X915600Y862331*
X915600D02*
Y861854D01*
X915600D02*
X915406Y861377D01*
X915212Y861218*
X915212D02*
X914825Y861059D01*
X903400Y843968D02*
Y839900D01*
Y843968D02*
X904831D01*
X904831D02*
X905309Y843775D01*
X905468Y843581*
X905627Y843193*
X905627D02*
Y842806D01*
X905468Y842418*
X905468D02*
X905309Y842225D01*
X904831Y842031*
X904831D02*
X903400D01*
X904513D02*
X905627Y839900D01*
X908968Y843387D02*
X908809Y843775D01*
X908331Y843968*
X908331D02*
X908013D01*
X908013D02*
X907536Y843775D01*
X907218Y843193*
X907218D02*
X907059Y842225D01*
Y841256*
X907218Y840481*
X907536Y840093*
X907536D02*
X908013Y839900D01*
X908013D02*
X908172D01*
X908172D02*
X908650Y840093D01*
X908650D02*
X908968Y840481D01*
X909127Y841062*
X909127D02*
Y841256D01*
X908968Y841837*
X908968D02*
X908650Y842225D01*
X908172Y842418*
X908172D02*
X908013D01*
X908013D02*
X907536Y842225D01*
X907218Y841837*
X907218D02*
X907059Y841256D01*
X806672Y891437D02*
Y886837D01*
X806672D02*
X806445Y885975D01*
X806218Y885687*
X806218D02*
X805763Y885400D01*
X805763D02*
X805309D01*
X804854Y885687*
X804854D02*
X804627Y885975D01*
X804400Y886837*
X804400D02*
Y887412D01*
X808945Y890000D02*
Y890287D01*
X808945D02*
X809172Y890862D01*
X809172D02*
X809400Y891150D01*
X809854Y891437*
X809854D02*
X810763D01*
X810763D02*
X811218Y891150D01*
X811445Y890862*
X811445D02*
X811672Y890287D01*
X811672D02*
Y889712D01*
X811672D02*
X811445Y889137D01*
X811445D02*
X810990Y888275D01*
X810990D02*
X808718Y885400D01*
X811900*
X963031Y879400D02*
X967100D01*
X963031D02*
Y880831D01*
X963031D02*
X963225Y881309D01*
X963418Y881468*
X963418D02*
X963806Y881627D01*
X964193*
X964193D02*
X964581Y881468D01*
X964775Y881309*
X964968Y880831*
X964968D02*
Y879400D01*
Y880513D02*
X967100Y881627D01*
X964000Y883218D02*
X963806D01*
X963418Y883377*
X963418D02*
X963225Y883536D01*
X963031Y883854*
X963031D02*
Y884490D01*
X963031D02*
X963225Y884809D01*
X963418Y884968*
X963418D02*
X963806Y885127D01*
X964193*
X964193D02*
X964581Y884968D01*
X965162Y884650*
X965162D02*
X967100Y883059D01*
Y885286*
X964031Y862900D02*
X968100D01*
X964031D02*
Y864331D01*
X964031D02*
X964225Y864809D01*
X964418Y864968*
X964418D02*
X964806Y865127D01*
X965193*
X965193D02*
X965581Y864968D01*
X965775Y864809*
X965968Y864331*
X965968D02*
Y862900D01*
Y864013D02*
X968100Y865127D01*
X964031Y866877D02*
Y868627D01*
X965581Y867672*
X965581D02*
Y868150D01*
X965775Y868468*
X965968Y868627*
X965968D02*
X966550Y868786D01*
X966937*
X966937D02*
X967518Y868627D01*
X967518D02*
X967906Y868309D01*
X968100Y867831*
X968100D02*
Y867354D01*
X968100D02*
X967906Y866877D01*
X967712Y866718*
X967712D02*
X967325Y866559D01*
X915031Y867399D02*
X919100D01*
X915031D02*
Y868831D01*
X915031D02*
X915225Y869309D01*
X915418Y869468*
X915418D02*
X915806Y869627D01*
X916193*
X916193D02*
X916581Y869468D01*
X916775Y869309*
X916968Y868831*
X916968D02*
Y867399D01*
Y868513D02*
X919100Y869627D01*
X915031Y872649D02*
X917743Y871059D01*
X917743D02*
Y873445D01*
X915031Y872649D02*
X919100D01*
X888786Y828500D02*
X888627Y828887D01*
X888627D02*
X888309Y829275D01*
X887990Y829468*
X887990D02*
X887354D01*
X887354D02*
X887036Y829275D01*
X886718Y828887*
X886718D02*
X886559Y828500D01*
X886400Y827918*
X886400D02*
Y826950D01*
X886559Y826368*
X886559D02*
X886718Y825981D01*
X887036Y825593*
X887036D02*
X887354Y825400D01*
X887354D02*
X887990D01*
X887990D02*
X888309Y825593D01*
X888309D02*
X888627Y825981D01*
X888786Y826368*
X892286Y829468D02*
X890695D01*
X890695D02*
X890536Y827725D01*
X890695Y827918*
X890695D02*
X891172Y828112D01*
X891172D02*
X891650D01*
X891650D02*
X892127Y827918D01*
X892127D02*
X892445Y827531D01*
X892604Y826950*
X892604D02*
X892445Y826562D01*
X892445D02*
X892286Y825981D01*
X891968Y825593*
X891968D02*
X891490Y825400D01*
X891490D02*
X891013D01*
X891013D02*
X890536Y825593D01*
X890536D02*
X890377Y825787D01*
X890377D02*
X890218Y826175D01*
X982286Y888000D02*
X982127Y888387D01*
X982127D02*
X981809Y888775D01*
X981490Y888968*
X981490D02*
X980854D01*
X980854D02*
X980536Y888775D01*
X980218Y888387*
X980218D02*
X980059Y888000D01*
X979900Y887418*
X979900D02*
Y886450D01*
X980059Y885868*
X980059D02*
X980218Y885481D01*
X980536Y885093*
X980536D02*
X980854Y884900D01*
X980854D02*
X981490D01*
X981490D02*
X981809Y885093D01*
X981809D02*
X982127Y885481D01*
X982286Y885868*
X985627Y888387D02*
X985468Y888775D01*
X984990Y888968*
X984990D02*
X984672D01*
X984672D02*
X984195Y888775D01*
X983877Y888193*
X983877D02*
X983718Y887225D01*
Y886256*
X983877Y885481*
X984195Y885093*
X984195D02*
X984672Y884900D01*
X984672D02*
X984831D01*
X984831D02*
X985309Y885093D01*
X985309D02*
X985627Y885481D01*
X985786Y886062*
X985786D02*
Y886256D01*
X985627Y886837*
X985627D02*
X985309Y887225D01*
X984831Y887418*
X984831D02*
X984672D01*
X984672D02*
X984195Y887225D01*
X983877Y886837*
X983877D02*
X983718Y886256D01*
X994786Y831000D02*
X994627Y831387D01*
X994627D02*
X994309Y831775D01*
X993990Y831968*
X993990D02*
X993354D01*
X993354D02*
X993036Y831775D01*
X992718Y831387*
X992718D02*
X992559Y831000D01*
X992400Y830418*
X992400D02*
Y829450D01*
X992559Y828868*
X992559D02*
X992718Y828481D01*
X993036Y828093*
X993036D02*
X993354Y827900D01*
X993354D02*
X993990D01*
X993990D02*
X994309Y828093D01*
X994309D02*
X994627Y828481D01*
X994786Y828868*
X998445Y831968D02*
X996854Y827900D01*
X996218Y831968D02*
X998445D01*
X912999Y887786D02*
X912612Y887627D01*
X912224Y887309*
X912224D02*
X912031Y886990D01*
X912031D02*
Y886354D01*
X912031D02*
X912224Y886036D01*
X912224D02*
X912612Y885718D01*
X912999Y885559*
X912999D02*
X913581Y885400D01*
X914549*
X914549D02*
X915131Y885559D01*
X915518Y885718*
X915518D02*
X915906Y886036D01*
X916099Y886354*
X916099D02*
Y886990D01*
X916099D02*
X915906Y887309D01*
X915518Y887627*
X915518D02*
X915131Y887786D01*
X912031Y890013D02*
X912224Y889536D01*
X912224D02*
X912612Y889377D01*
X912999*
X912999D02*
X913387Y889536D01*
X913581Y889854*
X913581D02*
X913774Y890490D01*
X913774D02*
X913968Y890968D01*
X913968D02*
X914356Y891286D01*
X914743Y891445*
X914743D02*
X915324D01*
X915324D02*
X915712Y891286D01*
X915906Y891127*
X916099Y890650*
X916099D02*
Y890013D01*
X916099D02*
X915906Y889536D01*
X915712Y889377*
X915324Y889218*
X915324D02*
X914743D01*
X914743D02*
X914356Y889377D01*
X913968Y889695*
X913968D02*
X913774Y890172D01*
X913774D02*
X913581Y890809D01*
X913387Y891127*
X912999Y891286*
X912999D02*
X912612D01*
X912224Y891127*
X912224D02*
X912031Y890650D01*
Y890013*
X1058786Y842000D02*
X1058627Y842387D01*
X1058627D02*
X1058309Y842775D01*
X1057990Y842968*
X1057990D02*
X1057354D01*
X1057354D02*
X1057036Y842775D01*
X1056718Y842387*
X1056718D02*
X1056559Y842000D01*
X1056400Y841418*
X1056400D02*
Y840450D01*
X1056559Y839868*
X1056559D02*
X1056718Y839481D01*
X1057036Y839093*
X1057036D02*
X1057354Y838900D01*
X1057354D02*
X1057990D01*
X1057990D02*
X1058309Y839093D01*
X1058309D02*
X1058627Y839481D01*
X1058786Y839868*
X1060218Y842193D02*
X1060536Y842387D01*
X1060536D02*
X1061013Y842968D01*
X1061013D02*
Y838900D01*
X848786Y858500D02*
X848627Y858887D01*
X848627D02*
X848309Y859275D01*
X847990Y859468*
X847990D02*
X847354D01*
X847354D02*
X847036Y859275D01*
X846718Y858887*
X846718D02*
X846559Y858500D01*
X846400Y857918*
X846400D02*
Y856950D01*
X846559Y856368*
X846559D02*
X846718Y855981D01*
X847036Y855593*
X847036D02*
X847354Y855400D01*
X847354D02*
X847990D01*
X847990D02*
X848309Y855593D01*
X848309D02*
X848627Y855981D01*
X848786Y856368*
X850377Y858500D02*
Y858693D01*
X850377D02*
X850536Y859081D01*
X850695Y859275*
X851013Y859468*
X851013D02*
X851650D01*
X851650D02*
X851968Y859275D01*
X852127Y859081*
X852286Y858693*
X852286D02*
Y858306D01*
X852127Y857918*
X852127D02*
X851809Y857337D01*
X851809D02*
X850218Y855400D01*
X852445*
X1053786Y876000D02*
X1053627Y876387D01*
X1053627D02*
X1053309Y876775D01*
X1052990Y876968*
X1052990D02*
X1052354D01*
X1052354D02*
X1052036Y876775D01*
X1051718Y876387*
X1051718D02*
X1051559Y876000D01*
X1051400Y875418*
X1051400D02*
Y874450D01*
X1051559Y873868*
X1051559D02*
X1051718Y873481D01*
X1052036Y873093*
X1052036D02*
X1052354Y872900D01*
X1052354D02*
X1052990D01*
X1052990D02*
X1053309Y873093D01*
X1053309D02*
X1053627Y873481D01*
X1053786Y873868*
X1055536Y876968D02*
X1057286D01*
X1057286D02*
X1056331Y875418D01*
X1056331D02*
X1056809D01*
X1056809D02*
X1057127Y875225D01*
X1057286Y875031*
X1057445Y874450*
Y874062*
X1057445D02*
X1057286Y873481D01*
X1056968Y873093*
X1056968D02*
X1056490Y872900D01*
X1056490D02*
X1056013D01*
X1056013D02*
X1055536Y873093D01*
X1055536D02*
X1055377Y873287D01*
X1055377D02*
X1055218Y873675D01*
X916672Y819437D02*
Y814837D01*
X916672D02*
X916445Y813975D01*
X916218Y813687*
X916218D02*
X915763Y813400D01*
X915763D02*
X915309D01*
X914854Y813687*
X914854D02*
X914627Y813975D01*
X914400Y814837*
X914400D02*
Y815412D01*
X918718Y818287D02*
X919172Y818575D01*
X919172D02*
X919854Y819437D01*
X919854D02*
Y813400D01*
X1065172Y835443D02*
Y830843D01*
X1065172D02*
X1064945Y829981D01*
X1064718Y829693*
X1064718D02*
X1064263Y829406D01*
X1064263D02*
X1063809D01*
X1063354Y829693*
X1063354D02*
X1063127Y829981D01*
X1062900Y830843*
X1062900D02*
Y831418D01*
X1069490Y835443D02*
X1067218Y831418D01*
X1067218D02*
X1070627D01*
X1069490Y835443D02*
Y829406D01*
X1070672Y889937D02*
Y885337D01*
X1070672D02*
X1070445Y884475D01*
X1070218Y884187*
X1070218D02*
X1069763Y883900D01*
X1069763D02*
X1069309D01*
X1068854Y884187*
X1068854D02*
X1068627Y884475D01*
X1068400Y885337*
X1068400D02*
Y885912D01*
X1073172Y889937D02*
X1075672D01*
X1075672D02*
X1074309Y887637D01*
X1074309D02*
X1074990D01*
X1074990D02*
X1075445Y887350D01*
X1075672Y887062*
X1075672D02*
X1075900Y886200D01*
Y885625*
X1075672Y884762*
X1075672D02*
X1075218Y884187D01*
X1075218D02*
X1074536Y883900D01*
X1073854*
X1073854D02*
X1073172Y884187D01*
X1073172D02*
X1072945Y884475D01*
X1072718Y885050*
X872400Y858968D02*
Y856062D01*
X872400D02*
X872559Y855481D01*
X872877Y855093*
X872877D02*
X873354Y854900D01*
X873354D02*
X873672D01*
X873672D02*
X874150Y855093D01*
X874150D02*
X874468Y855481D01*
X874627Y856062*
X874627D02*
Y858968D01*
X876059Y858193D02*
X876377Y858387D01*
X876377D02*
X876854Y858968D01*
X876854D02*
Y854900D01*
X996400Y859468D02*
Y856562D01*
X996400D02*
X996559Y855981D01*
X996877Y855593*
X996877D02*
X997354Y855400D01*
X997354D02*
X997672D01*
X997672D02*
X998150Y855593D01*
X998150D02*
X998468Y855981D01*
X998627Y856562*
X998627D02*
Y859468D01*
X1000218Y858500D02*
Y858693D01*
X1000218D02*
X1000377Y859081D01*
X1000536Y859275*
X1000854Y859468*
X1000854D02*
X1001490D01*
X1001490D02*
X1001809Y859275D01*
X1001968Y859081*
X1002127Y858693*
X1002127D02*
Y858306D01*
X1001968Y857918*
X1001968D02*
X1001650Y857337D01*
X1001650D02*
X1000059Y855400D01*
X1002286*
X901400Y835125D02*
Y830400D01*
Y835125D02*
X903036D01*
X903581Y834900*
X903581D02*
X903763Y834675D01*
X903763D02*
X903945Y834225D01*
Y833550*
X903763Y833100*
X903763D02*
X903581Y832875D01*
X903581D02*
X903036Y832650D01*
X901400*
X908309Y834000D02*
X908127Y834450D01*
X907763Y834900*
X907763D02*
X907400Y835125D01*
X906672*
X906672D02*
X906309Y834900D01*
X905945Y834450*
X905763Y834000*
X905763D02*
X905581Y833325D01*
X905581D02*
Y832200D01*
X905581D02*
X905763Y831525D01*
X905763D02*
X905945Y831075D01*
X906309Y830625*
X906672Y830400*
X906672D02*
X907400D01*
X907763Y830625*
X907763D02*
X908127Y831075D01*
X908309Y831525*
X909945Y835125D02*
Y830400D01*
Y835125D02*
X911581D01*
X911581D02*
X912127Y834900D01*
X912309Y834675*
X912490Y834225*
X912490D02*
Y833775D01*
X912490D02*
X912309Y833325D01*
X912127Y833100*
X911581Y832875*
X909945D02*
X911581D01*
X911581D02*
X912127Y832650D01*
X912309Y832425*
X912490Y831975*
X912490D02*
Y831300D01*
X912490D02*
X912309Y830850D01*
X912127Y830625*
X911581Y830400*
X911581D02*
X909945D01*
X914309Y833550D02*
X914127Y833325D01*
X914309Y833100*
X914490Y833325*
X914490D02*
X914309Y833550D01*
Y830850D02*
X914127Y830625D01*
X914309Y830400*
X914490Y830625*
X914490D02*
X914309Y830850D01*
X920672Y835125D02*
X922672D01*
X922672D02*
X921581Y833325D01*
X921581D02*
X922127D01*
X922490Y833100*
X922490D02*
X922672Y832875D01*
X922672D02*
X922854Y832200D01*
X922854D02*
Y831750D01*
X922854D02*
X922672Y831075D01*
X922672D02*
X922309Y830625D01*
X921763Y830400*
X921763D02*
X921218D01*
X920672Y830625*
X920672D02*
X920490Y830850D01*
X920490D02*
X920309Y831300D01*
X924490Y834225D02*
X924854Y834450D01*
X924854D02*
X925400Y835125D01*
Y830400*
X927036Y832425D02*
X930309D01*
X933036Y835125D02*
X932490Y834900D01*
X932490D02*
X932127Y834225D01*
X931945Y833100*
Y832425*
X932127Y831300*
X932490Y830625*
X932490D02*
X933036Y830400D01*
X933400*
X933945Y830625*
X934309Y831300*
X934490Y832425*
X934490D02*
Y833100D01*
X934490D02*
X934309Y834225D01*
X933945Y834900*
X933400Y835125*
X933036*
X937218D02*
X936672Y834900D01*
X936672D02*
X936309Y834225D01*
X936127Y833100*
Y832425*
X936309Y831300*
X936672Y830625*
X936672D02*
X937218Y830400D01*
X937581*
X937581D02*
X938127Y830625D01*
X938490Y831300*
X938490D02*
X938672Y832425D01*
X938672D02*
Y833100D01*
X938672D02*
X938490Y834225D01*
X938490D02*
X938127Y834900D01*
X937581Y835125*
X937581D02*
X937218D01*
X941400D02*
X940854Y834900D01*
X940854D02*
X940490Y834225D01*
X940490D02*
X940309Y833100D01*
Y832425*
X940490Y831300*
X940490D02*
X940854Y830625D01*
X940854D02*
X941400Y830400D01*
X941763*
X941763D02*
X942309Y830625D01*
X942672Y831300*
X942672D02*
X942854Y832425D01*
X942854D02*
Y833100D01*
X942854D02*
X942672Y834225D01*
X942672D02*
X942309Y834900D01*
X941763Y835125*
X941763D02*
X941400D01*
X947036D02*
X945218Y830400D01*
X944490Y835125D02*
X947036D01*
X952854D02*
Y830400D01*
Y835125D02*
X954490D01*
X954490D02*
X955036Y834900D01*
X955218Y834675*
X955400Y834225*
Y833775*
X955218Y833325*
X955036Y833100*
X954490Y832875*
X954490D02*
X952854D01*
X954127D02*
X955400Y830400D01*
X957036Y835125D02*
Y830400D01*
Y835125D02*
X959400D01*
X957036Y832875D02*
X958490D01*
X957036Y830400D02*
X959400D01*
X961036Y835125D02*
X962490Y830400D01*
X963945Y835125D02*
X962490Y830400D01*
X969763Y834225D02*
X970127Y834450D01*
X970672Y835125*
X970672D02*
Y830400D01*
X834127Y845500D02*
X833945Y845950D01*
X833581Y846400*
X833581D02*
X833218Y846625D01*
X832490*
X832490D02*
X832127Y846400D01*
X831763Y845950*
X831763D02*
X831581Y845500D01*
X831581D02*
X831400Y844825D01*
Y843700*
X831581Y843025*
X831581D02*
X831763Y842575D01*
X831763D02*
X832127Y842125D01*
X832490Y841900*
X832490D02*
X833218D01*
X833581Y842125*
X833581D02*
X833945Y842575D01*
X834127Y843025*
Y843700*
X833218D02*
X834127D01*
X835763Y846625D02*
Y841900D01*
Y846625D02*
X838127D01*
X835763Y844375D02*
X837218D01*
X835763Y841900D02*
X838127D01*
X839763Y846625D02*
Y841900D01*
Y846625D02*
X842309Y841900D01*
Y846625D02*
Y841900D01*
X845218Y846625D02*
Y841900D01*
X843945Y846625D02*
X846490D01*
X848127D02*
Y843250D01*
X848309Y842575*
X848672Y842125*
X848672D02*
X849218Y841900D01*
X849581*
X849581D02*
X850127Y842125D01*
X850490Y842575*
X850490D02*
X850672Y843250D01*
X850672D02*
Y846625D01*
X852309D02*
Y841900D01*
Y846625D02*
X853945D01*
X854490Y846400*
X854490D02*
X854672Y846175D01*
X854672D02*
X854854Y845725D01*
X854854D02*
Y845275D01*
X854854D02*
X854672Y844825D01*
X854672D02*
X854490Y844600D01*
X854490D02*
X853945Y844375D01*
X852309*
X853581D02*
X854854Y841900D01*
X856490Y846625D02*
Y841900D01*
X862309Y846625D02*
Y841900D01*
X863945Y846625D02*
Y841900D01*
Y846625D02*
X866490Y841900D01*
Y846625D02*
Y841900D01*
X870854Y845500D02*
X870672Y845950D01*
X870672D02*
X870309Y846400D01*
X869945Y846625*
X869218*
X868854Y846400*
X868854D02*
X868490Y845950D01*
X868490D02*
X868309Y845500D01*
X868127Y844825*
Y843700*
X868309Y843025*
X868490Y842575*
X868490D02*
X868854Y842125D01*
X868854D02*
X869218Y841900D01*
X869945*
X870309Y842125*
X870672Y842575*
X870672D02*
X870854Y843025D01*
X918854Y854625D02*
X917400Y849900D01*
X918854Y854625D02*
X920309Y849900D01*
X917945Y851475D02*
X919763D01*
X924490Y853950D02*
X924127Y854400D01*
X923581Y854625*
X923581D02*
X922854D01*
X922854D02*
X922309Y854400D01*
X921945Y853950*
Y853500*
X922127Y853050*
X922309Y852825*
X922672Y852600*
X922672D02*
X923763Y852150D01*
X923763D02*
X924127Y851925D01*
X924309Y851700*
X924490Y851250*
X924490D02*
Y850575D01*
X924490D02*
X924127Y850125D01*
X923581Y849900*
X923581D02*
X922854D01*
X922854D02*
X922309Y850125D01*
X921945Y850575*
X928672Y853950D02*
X928309Y854400D01*
X927763Y854625*
X927763D02*
X927036D01*
X926490Y854400*
X926490D02*
X926127Y853950D01*
Y853500*
X926309Y853050*
X926490Y852825*
X926490D02*
X926854Y852600D01*
X926854D02*
X927945Y852150D01*
X928309Y851925*
X928490Y851700*
X928490D02*
X928672Y851250D01*
X928672D02*
Y850575D01*
X928672D02*
X928309Y850125D01*
X927763Y849900*
X927763D02*
X927036D01*
X926490Y850125*
X926490D02*
X926127Y850575D01*
X930309Y854625D02*
X931763Y852375D01*
X931763D02*
Y849900D01*
X933218Y854625D02*
X931763Y852375D01*
X935036Y853050D02*
X934854Y852825D01*
X934854D02*
X935036Y852600D01*
X935218Y852825*
X935036Y853050*
Y850350D02*
X934854Y850125D01*
X934854D02*
X935036Y849900D01*
X935218Y850125*
X935036Y850350*
X941400Y854625D02*
X943400D01*
X942309Y852825*
X942854*
X942854D02*
X943218Y852600D01*
X943400Y852375*
X943581Y851700*
X943581D02*
Y851250D01*
X943581D02*
X943400Y850575D01*
X943036Y850125*
X942490Y849900*
X942490D02*
X941945D01*
X941400Y850125*
X941218Y850350*
X941036Y850800*
X946309Y854625D02*
X945763Y854400D01*
X945763D02*
X945400Y853725D01*
X945218Y852600*
Y851925*
X945400Y850800*
X945763Y850125*
X945763D02*
X946309Y849900D01*
X946672*
X946672D02*
X947218Y850125D01*
X947581Y850800*
X947581D02*
X947763Y851925D01*
X947763D02*
Y852600D01*
X947763D02*
X947581Y853725D01*
X947581D02*
X947218Y854400D01*
X946672Y854625*
X946672D02*
X946309D01*
X949400Y851925D02*
X952672D01*
X955400Y854625D02*
X954854Y854400D01*
X954854D02*
X954490Y853725D01*
X954490D02*
X954309Y852600D01*
Y851925*
X954490Y850800*
X954490D02*
X954854Y850125D01*
X954854D02*
X955400Y849900D01*
X955763*
X955763D02*
X956309Y850125D01*
X956672Y850800*
X956672D02*
X956854Y851925D01*
X956854D02*
Y852600D01*
X956854D02*
X956672Y853725D01*
X956672D02*
X956309Y854400D01*
X955763Y854625*
X955763D02*
X955400D01*
X959581D02*
X959036Y854400D01*
X958672Y853725*
X958672D02*
X958490Y852600D01*
X958490D02*
Y851925D01*
X958490D02*
X958672Y850800D01*
X958672D02*
X959036Y850125D01*
X959581Y849900*
X959581D02*
X959945D01*
X960490Y850125*
X960490D02*
X960854Y850800D01*
X960854D02*
X961036Y851925D01*
Y852600*
X960854Y853725*
X960854D02*
X960490Y854400D01*
X960490D02*
X959945Y854625D01*
X959581*
X963763D02*
X963218Y854400D01*
X962854Y853725*
X962854D02*
X962672Y852600D01*
X962672D02*
Y851925D01*
X962672D02*
X962854Y850800D01*
X962854D02*
X963218Y850125D01*
X963763Y849900*
X963763D02*
X964127D01*
X964672Y850125*
X964672D02*
X965036Y850800D01*
X965218Y851925*
Y852600*
X965036Y853725*
X964672Y854400*
X964672D02*
X964127Y854625D01*
X963763*
X969400D02*
X967581Y849900D01*
X966854Y854625D02*
X969400D01*
X917400Y846125D02*
Y841400D01*
Y846125D02*
X919036D01*
X919581Y845900*
X919581D02*
X919763Y845675D01*
X919763D02*
X919945Y845225D01*
Y844775*
X919763Y844325*
X919763D02*
X919581Y844100D01*
X919581D02*
X919036Y843875D01*
X917400*
X918672D02*
X919945Y841400D01*
X921581Y846125D02*
Y841400D01*
Y846125D02*
X923945D01*
X921581Y843875D02*
X923036D01*
X921581Y841400D02*
X923945D01*
X925581Y846125D02*
X927036Y841400D01*
X928490Y846125D02*
X927036Y841400D01*
X930127Y840500D02*
X933945D01*
X935036D02*
X938854D01*
X939945D02*
X943763D01*
X944854D02*
X948672D01*
X915400Y806725D02*
X915763Y806950D01*
X915763D02*
X916309Y807625D01*
Y802900*
X1048445Y841075D02*
Y835900D01*
X1046400Y838487D02*
X1050490D01*
X1075400Y830225D02*
X1075763Y830450D01*
X1075763D02*
X1076309Y831125D01*
Y826400*
X822400Y890225D02*
X822763Y890450D01*
X822763D02*
X823309Y891125D01*
Y886400*
X1059900Y890225D02*
X1060263Y890450D01*
X1060263D02*
X1060809Y891125D01*
Y886400*
X925875Y891672D02*
X930600D01*
X925875Y890400D02*
Y892945D01*
Y895672D02*
X926100Y895309D01*
X926550Y894945*
X927000Y894763*
X927000D02*
X927675Y894581D01*
X927675D02*
X928800D01*
X928800D02*
X929475Y894763D01*
X929475D02*
X929925Y894945D01*
X930375Y895309*
X930600Y895672*
X930600D02*
Y896400D01*
X930375Y896763*
X930375D02*
X929925Y897127D01*
X929475Y897309*
X928800Y897490*
X928800D02*
X927675D01*
X927675D02*
X927000Y897309D01*
X926550Y897127*
X926100Y896763*
X926100D02*
X925875Y896400D01*
Y895672*
Y903309D02*
X930600D01*
X925875D02*
X930600Y904763D01*
X925875Y906218D02*
X930600Y904763D01*
X925875Y906218D02*
X930600D01*
X925875Y909309D02*
X930600Y907854D01*
X925875Y909309D02*
X930600Y910763D01*
X929025Y908400D02*
Y910218D01*
X925875Y912400D02*
X930600D01*
X925875D02*
Y914036D01*
X926100Y914581*
X926100D02*
X926325Y914763D01*
X926325D02*
X926775Y914945D01*
X927225*
X927675Y914763*
X927675D02*
X927900Y914581D01*
X927900D02*
X928125Y914036D01*
Y912400*
Y913672D02*
X930600Y914945D01*
X927000Y919309D02*
X926550Y919127D01*
X926100Y918763*
X926100D02*
X925875Y918400D01*
Y917672*
X925875D02*
X926100Y917309D01*
X926550Y916945*
X927000Y916763*
X927000D02*
X927675Y916581D01*
X927675D02*
X928800D01*
X928800D02*
X929475Y916763D01*
X929475D02*
X929925Y916945D01*
X930375Y917309*
X930600Y917672*
X930600D02*
Y918400D01*
X930375Y918763*
X930375D02*
X929925Y919127D01*
X929475Y919309*
X925875Y922036D02*
X926100Y921672D01*
X926100D02*
X926550Y921309D01*
X927000Y921127*
X927675Y920945*
X928800*
X929475Y921127*
X929925Y921309*
X930375Y921672*
X930375D02*
X930600Y922036D01*
Y922763*
X930600D02*
X930375Y923127D01*
X929925Y923490*
X929925D02*
X929475Y923672D01*
X929475D02*
X928800Y923854D01*
X928800D02*
X927675D01*
X927675D02*
X927000Y923672D01*
X927000D02*
X926550Y923490D01*
X926550D02*
X926100Y923127D01*
X925875Y922763*
X925875D02*
Y922036D01*
X952875Y891672D02*
X957600D01*
X952875Y890400D02*
Y892945D01*
Y895672D02*
X953100Y895309D01*
X953550Y894945*
X954000Y894763*
X954000D02*
X954675Y894581D01*
X954675D02*
X955800D01*
X955800D02*
X956475Y894763D01*
X956475D02*
X956925Y894945D01*
X957375Y895309*
X957600Y895672*
X957600D02*
Y896400D01*
X957375Y896763*
X957375D02*
X956925Y897127D01*
X956475Y897309*
X955800Y897490*
X955800D02*
X954675D01*
X954675D02*
X954000Y897309D01*
X953550Y897127*
X953100Y896763*
X953100D02*
X952875Y896400D01*
Y895672*
Y903309D02*
X957600D01*
X952875D02*
Y905672D01*
X955125Y903309D02*
Y904763D01*
X957600Y903309D02*
Y905672D01*
X952875Y907309D02*
X957600D01*
X952875D02*
X957600Y908763D01*
X952875Y910218D02*
X957600Y908763D01*
X952875Y910218D02*
X957600D01*
X952875Y911854D02*
X957600D01*
X952875D02*
Y913490D01*
X952875D02*
X953100Y914036D01*
X953325Y914218*
X953775Y914400*
X954450*
X954900Y914218*
X955125Y914036*
X955350Y913490*
X955350D02*
Y911854D01*
X952875Y916036D02*
X957600D01*
X952875D02*
Y917672D01*
X952875D02*
X953100Y918218D01*
X953325Y918400*
X953775Y918581*
X953775D02*
X954450D01*
X954450D02*
X954900Y918400D01*
X955125Y918218*
X955350Y917672*
X955350D02*
Y916036D01*
X952875Y920218D02*
X956250D01*
X956925Y920400*
X957375Y920763*
X957375D02*
X957600Y921309D01*
Y921672*
X957600D02*
X957375Y922218D01*
X956925Y922581*
X956925D02*
X956250Y922763D01*
X956250D02*
X952875D01*
X803400Y837125D02*
Y832400D01*
Y837125D02*
X805036D01*
X805581Y836900*
X805581D02*
X805763Y836675D01*
X805763D02*
X805945Y836225D01*
Y835775*
X805763Y835325*
X805763D02*
X805581Y835100D01*
X805581D02*
X805036Y834875D01*
X803400D02*
X805036D01*
X805581Y834650*
X805581D02*
X805763Y834425D01*
X805763D02*
X805945Y833975D01*
Y833300*
X805763Y832850*
X805763D02*
X805581Y832625D01*
X805581D02*
X805036Y832400D01*
X803400*
X807581Y837125D02*
Y832400D01*
Y837125D02*
X809036Y832400D01*
X810490Y837125D02*
X809036Y832400D01*
X810490Y837125D02*
Y832400D01*
X814854Y836000D02*
X814672Y836450D01*
X814672D02*
X814309Y836900D01*
X813945Y837125*
X813218*
X812854Y836900*
X812854D02*
X812490Y836450D01*
X812490D02*
X812309Y836000D01*
X812127Y835325*
Y834200*
X812309Y833525*
X812490Y833075*
X812490D02*
X812854Y832625D01*
X812854D02*
X813218Y832400D01*
X813945*
X814309Y832625*
X814672Y833075*
X814672D02*
X814854Y833525D01*
X816490Y834425D02*
X819763D01*
X823945Y837125D02*
X822127Y832400D01*
X821400Y837125D02*
X823945D01*
X967400Y817125D02*
Y812400D01*
Y817125D02*
X969036D01*
X969581Y816900*
X969581D02*
X969763Y816675D01*
X969763D02*
X969945Y816225D01*
Y815775*
X969763Y815325*
X969763D02*
X969581Y815100D01*
X969581D02*
X969036Y814875D01*
X967400D02*
X969036D01*
X969581Y814650*
X969581D02*
X969763Y814425D01*
X969763D02*
X969945Y813975D01*
Y813300*
X969763Y812850*
X969763D02*
X969581Y812625D01*
X969581D02*
X969036Y812400D01*
X967400*
X971581Y817125D02*
Y812400D01*
Y817125D02*
X973036Y812400D01*
X974490Y817125D02*
X973036Y812400D01*
X974490Y817125D02*
Y812400D01*
X978854Y816000D02*
X978672Y816450D01*
X978672D02*
X978309Y816900D01*
X977945Y817125*
X977218*
X976854Y816900*
X976854D02*
X976490Y816450D01*
X976490D02*
X976309Y816000D01*
X976127Y815325*
Y814200*
X976309Y813525*
X976490Y813075*
X976490D02*
X976854Y812625D01*
X976854D02*
X977218Y812400D01*
X977945*
X978309Y812625*
X978672Y813075*
X978672D02*
X978854Y813525D01*
X980490Y814425D02*
X983763D01*
X987945Y817125D02*
X986127Y812400D01*
X985400Y817125D02*
X987945D01*
X1048445Y888575D02*
Y883400D01*
X1046400Y885987D02*
X1050490D01*
X834945Y887075D02*
Y881900D01*
X832900Y884487D02*
X836990D01*
X975718Y808125D02*
Y804525D01*
X975536Y803850*
X975354Y803625*
X975354D02*
X974990Y803400D01*
X974990D02*
X974627D01*
X974263Y803625*
X974263D02*
X974081Y803850D01*
X974081D02*
X973900Y804525D01*
Y804975*
X977718Y808125D02*
X979718D01*
X978627Y806325*
X979172*
X979172D02*
X979536Y806100D01*
X979718Y805875*
X979900Y805200*
Y804750*
X979718Y804075*
X979354Y803625*
X979354D02*
X978809Y803400D01*
X978263*
X978263D02*
X977718Y803625D01*
X977536Y803850*
X977354Y804300*
X975172Y826125D02*
Y821400D01*
X973900Y826125D02*
X976445D01*
X979172D02*
X978809Y825900D01*
X978445Y825450*
X978263Y825000*
X978263D02*
X978081Y824325D01*
X978081D02*
Y823200D01*
X978081D02*
X978263Y822525D01*
X978263D02*
X978445Y822075D01*
X978809Y821625*
X979172Y821400*
X979172D02*
X979900D01*
X980263Y821625*
X980263D02*
X980627Y822075D01*
X980809Y822525*
X980990Y823200*
X980990D02*
Y824325D01*
X980990D02*
X980809Y825000D01*
X980627Y825450*
X980263Y825900*
X980263D02*
X979900Y826125D01*
X979172*
X809218Y828625D02*
Y825025D01*
X809036Y824350*
X808854Y824125*
X808854D02*
X808490Y823900D01*
X808490D02*
X808127D01*
X807763Y824125*
X807763D02*
X807581Y824350D01*
X807581D02*
X807400Y825025D01*
Y825475*
X813218Y828625D02*
X811400D01*
X811218Y826600*
X811400Y826825*
X811945Y827050*
X812490*
X812490D02*
X813036Y826825D01*
X813400Y826375*
X813581Y825700*
X813581D02*
X813400Y825250D01*
X813218Y824575*
X812854Y824125*
X812854D02*
X812309Y823900D01*
X811763*
X811763D02*
X811218Y824125D01*
X811036Y824350*
X810854Y824800*
X808172Y845125D02*
Y840400D01*
X806900Y845125D02*
X809445D01*
X812172D02*
X811809Y844900D01*
X811445Y844450*
X811263Y844000*
X811263D02*
X811081Y843325D01*
X811081D02*
Y842200D01*
X811081D02*
X811263Y841525D01*
X811263D02*
X811445Y841075D01*
X811809Y840625*
X812172Y840400*
X812172D02*
X812900D01*
X813263Y840625*
X813263D02*
X813627Y841075D01*
X813809Y841525*
X813990Y842200*
X813990D02*
Y843325D01*
X813990D02*
X813809Y844000D01*
X813627Y844450*
X813263Y844900*
X813263D02*
X812900Y845125D01*
X812172*
G74*
X0Y0D02*
M02*
