  0
SECTION
  2
HEADER
  9
$EXTMIN
 10
7.0250
 20
5.0250
 30
0.0000
  9
$EXTMAX
 10
14.88545
 20
10.2800
 30
0.0000
  0
ENDSEC
  0
SECTION
  2
TABLES
  0
TABLE
  2
LTYPE
 70
3
  0
LTYPE
  2
BYBLOCK
 70
0
  3

 72
65
 73
0
 40
0.0000
  0
LTYPE
  2
BYLAYER
 70
0
  3

 72
65
 73
0
 40
0.0000
  0
LTYPE
  2
CONTINUOUS
 70
0
  3
Solid line
 72
65
 73
0
 40
0.0000
  0
ENDTAB
  0
TABLE
  2
LAYER
 70
2
  0
LAYER
  2
0
 70
0
 62
7
  6
CONTINUOUS
  0
LAYER
  2
ASSEMBLY_PHO
 70
0
 62
7
  6
CONTINUOUS
  0
LAYER
  2
DD_PHO
 70
0
 62
6
  6
CONTINUOUS
  0
ENDTAB
  0
TABLE
  2
STYLE
 70
0
  0
ENDTAB
  0
ENDSEC
  0
SECTION
  2
BLOCKS
  0
BLOCK
  2
ROUND_2
  3
ROUND_2
 70
64
 10
0.0000
 20
0.0000
 30
0.0000
  0
POLYLINE
  8
0
 66
1
 10
0.0000
 20
0.0000
 30
0.0000
 70
1
 40
0.0500
 41
0.0500
  0
VERTEX
  8
0
 10
-0.0250
 20
0.0000
 30
0.0000
 42
1
  0
VERTEX
  8
0
 10
0.0250
 20
0.0000
 30
0.0000
 42
1
  0
SEQEND
  0
ENDBLK
  0
BLOCK
  2
ROUND_6
  3
ROUND_6
 70
64
 10
0.0000
 20
0.0000
 30
0.0000
  0
POLYLINE
  8
0
 66
1
 10
0.0000
 20
0.0000
 30
0.0000
 70
1
 40
0.0300
 41
0.0300
  0
VERTEX
  8
0
 10
-0.0150
 20
0.0000
 30
0.0000
 42
1
  0
VERTEX
  8
0
 10
0.0150
 20
0.0000
 30
0.0000
 42
1
  0
SEQEND
  0
ENDBLK
  0
BLOCK
  2
ROUND_47
  3
ROUND_47
 70
64
 10
0.0000
 20
0.0000
 30
0.0000
  0
POLYLINE
  8
0
 66
1
 10
0.0000
 20
0.0000
 30
0.0000
 70
1
 40
0.0050
 41
0.0050
  0
VERTEX
  8
0
 10
-0.0025
 20
0.0000
 30
0.0000
 42
1
  0
VERTEX
  8
0
 10
0.0025
 20
0.0000
 30
0.0000
 42
1
  0
SEQEND
  0
ENDBLK
  0
BLOCK
  2
ROUND_48
  3
ROUND_48
 70
64
 10
0.0000
 20
0.0000
 30
0.0000
  0
POLYLINE
  8
0
 66
1
 10
0.0000
 20
0.0000
 30
0.0000
 70
1
 40
0.0100
 41
0.0100
  0
VERTEX
  8
0
 10
-0.0050
 20
0.0000
 30
0.0000
 42
1
  0
VERTEX
  8
0
 10
0.0050
 20
0.0000
 30
0.0000
 42
1
  0
SEQEND
  0
ENDBLK
  0
BLOCK
  2
ROUND_49
  3
ROUND_49
 70
64
 10
0.0000
 20
0.0000
 30
0.0000
  0
POLYLINE
  8
0
 66
1
 10
0.0000
 20
0.0000
 30
0.0000
 70
1
 40
0.0075
 41
0.0075
  0
VERTEX
  8
0
 10
-0.00375
 20
0.0000
 30
0.0000
 42
1
  0
VERTEX
  8
0
 10
0.00375
 20
0.0000
 30
0.0000
 42
1
  0
SEQEND
  0
ENDBLK
  0
BLOCK
  2
ROUND_50
  3
ROUND_50
 70
64
 10
0.0000
 20
0.0000
 30
0.0000
  0
POLYLINE
  8
0
 66
1
 10
0.0000
 20
0.0000
 30
0.0000
 70
1
 40
0.0005
 41
0.0005
  0
VERTEX
  8
0
 10
-0.00025
 20
0.0000
 30
0.0000
 42
1
  0
VERTEX
  8
0
 10
0.00025
 20
0.0000
 30
0.0000
 42
1
  0
SEQEND
  0
ENDBLK
  0
BLOCK
  2
ROUND_58
  3
ROUND_58
 70
64
 10
0.0000
 20
0.0000
 30
0.0000
  0
POLYLINE
  8
0
 66
1
 10
0.0000
 20
0.0000
 30
0.0000
 70
1
 40
0.0040
 41
0.0040
  0
VERTEX
  8
0
 10
-0.0020
 20
0.0000
 30
0.0000
 42
1
  0
VERTEX
  8
0
 10
0.0020
 20
0.0000
 30
0.0000
 42
1
  0
SEQEND
  0
ENDBLK
  0
ENDSEC
  0
SECTION
  2
ENTITIES
  0
INSERT
  2
ROUND_2
  8
ASSEMBLY_PHO
 10
8.1600
 20
9.8400
 30
0.0000
 41
1.0000
 42
1.0000
 50
0.0000
  0
INSERT
  2
ROUND_2
  8
ASSEMBLY_PHO
 10
8.0600
 20
9.7400
 30
0.0000
 41
1.0000
 42
1.0000
 50
0.0000
  0
INSERT
  2
ROUND_2
  8
ASSEMBLY_PHO
 10
8.0600
 20
9.9400
 30
0.0000
 41
1.0000
 42
1.0000
 50
0.0000
  0
INSERT
  2
ROUND_2
  8
ASSEMBLY_PHO
 10
8.2600
 20
9.9400
 30
0.0000
 41
1.0000
 42
1.0000
 50
0.0000
  0
INSERT
  2
ROUND_2
  8
ASSEMBLY_PHO
 10
8.2600
 20
9.7400
 30
0.0000
 41
1.0000
 42
1.0000
 50
0.0000
  0
INSERT
  2
ROUND_2
  8
ASSEMBLY_PHO
 10
8.8400
 20
9.8400
 30
0.0000
 41
1.0000
 42
1.0000
 50
0.0000
  0
INSERT
  2
ROUND_2
  8
ASSEMBLY_PHO
 10
8.7400
 20
9.7400
 30
0.0000
 41
1.0000
 42
1.0000
 50
0.0000
  0
INSERT
  2
ROUND_2
  8
ASSEMBLY_PHO
 10
8.7400
 20
9.9400
 30
0.0000
 41
1.0000
 42
1.0000
 50
0.0000
  0
INSERT
  2
ROUND_2
  8
ASSEMBLY_PHO
 10
8.9400
 20
9.9400
 30
0.0000
 41
1.0000
 42
1.0000
 50
0.0000
  0
INSERT
  2
ROUND_2
  8
ASSEMBLY_PHO
 10
8.9400
 20
9.7400
 30
0.0000
 41
1.0000
 42
1.0000
 50
0.0000
  0
INSERT
  2
ROUND_6
  8
ASSEMBLY_PHO
 10
8.1250
 20
8.1250
 30
0.0000
 41
1.0000
 42
1.0000
 50
0.0000
  0
INSERT
  2
ROUND_6
  8
ASSEMBLY_PHO
 10
8.8750
 20
8.1250
 30
0.0000
 41
1.0000
 42
1.0000
 50
0.0000
  0
INSERT
  2
ROUND_6
  8
ASSEMBLY_PHO
 10
8.8750
 20
9.1250
 30
0.0000
 41
1.0000
 42
1.0000
 50
0.0000
  0
INSERT
  2
ROUND_6
  8
ASSEMBLY_PHO
 10
8.1250
 20
9.1250
 30
0.0000
 41
1.0000
 42
1.0000
 50
0.0000
  0
INSERT
  2
ROUND_6
  8
ASSEMBLY_PHO
 10
8.5000
 20
9.5000
 30
0.0000
 41
1.0000
 42
1.0000
 50
0.0000
  0
INSERT
  2
ROUND_6
  8
ASSEMBLY_PHO
 10
8.3430
 20
8.1190
 30
0.0000
 41
1.0000
 42
1.0000
 50
0.0000
  0
INSERT
  2
ROUND_6
  8
ASSEMBLY_PHO
 10
8.3430
 20
8.8810
 30
0.0000
 41
1.0000
 42
1.0000
 50
0.0000
  0
INSERT
  2
ROUND_6
  8
ASSEMBLY_PHO
 10
8.6580
 20
8.1190
 30
0.0000
 41
1.0000
 42
1.0000
 50
0.0000
  0
INSERT
  2
ROUND_6
  8
ASSEMBLY_PHO
 10
8.6580
 20
8.8810
 30
0.0000
 41
1.0000
 42
1.0000
 50
0.0000
  0
INSERT
  2
ROUND_6
  8
ASSEMBLY_PHO
 10
8.8810
 20
8.3430
 30
0.0000
 41
1.0000
 42
1.0000
 50
0.0000
  0
INSERT
  2
ROUND_6
  8
ASSEMBLY_PHO
 10
8.8810
 20
8.6580
 30
0.0000
 41
1.0000
 42
1.0000
 50
0.0000
  0
INSERT
  2
ROUND_6
  8
ASSEMBLY_PHO
 10
8.1190
 20
8.3430
 30
0.0000
 41
1.0000
 42
1.0000
 50
0.0000
  0
INSERT
  2
ROUND_6
  8
ASSEMBLY_PHO
 10
8.1190
 20
8.6580
 30
0.0000
 41
1.0000
 42
1.0000
 50
0.0000
  0
POLYLINE
  8
ASSEMBLY_PHO
 66
1
 10
0.0000
 20
0.0000
 30
0.0000
 40
0.0100
 41
0.0100
  0
VERTEX
  8
ASSEMBLY_PHO
 10
8.0000
 20
8.0000
 30
0.0000
  0
VERTEX
  8
ASSEMBLY_PHO
 10
9.0000
 20
8.0000
 30
0.0000
  0
VERTEX
  8
ASSEMBLY_PHO
 10
9.0000
 20
10.0000
 30
0.0000
  0
VERTEX
  8
ASSEMBLY_PHO
 10
8.0000
 20
10.0000
 30
0.0000
  0
VERTEX
  8
ASSEMBLY_PHO
 10
8.0000
 20
8.0000
 30
0.0000
  0
SEQEND
  0
POLYLINE
  8
ASSEMBLY_PHO
 66
1
 10
0.0000
 20
0.0000
 30
0.0000
 70
1
 40
0.0100
 41
0.0100
  0
VERTEX
  8
ASSEMBLY_PHO
 10
8.1875
 20
8.5000
 30
0.0000
 42
1
  0
VERTEX
  8
ASSEMBLY_PHO
 10
8.8125
 20
8.5000
 30
0.0000
 42
1
  0
SEQEND
  0
POLYLINE
  8
ASSEMBLY_PHO
 66
1
 10
0.0000
 20
0.0000
 30
0.0000
 40
0.0200
 41
0.0200
  0
VERTEX
  8
ASSEMBLY_PHO
 10
7.67363
 20
7.91125
 30
0.0000
  0
VERTEX
  8
ASSEMBLY_PHO
 10
7.66454
 20
7.9225
 30
0.0000
  0
SEQEND
  0
POLYLINE
  8
ASSEMBLY_PHO
 66
1
 10
0.0000
 20
0.0000
 30
0.0000
 40
0.0200
 41
0.0200
  0
VERTEX
  8
ASSEMBLY_PHO
 10
7.66454
 20
7.9225
 30
0.0000
  0
VERTEX
  8
ASSEMBLY_PHO
 10
7.6509
 20
7.92812
 30
0.0000
  0
SEQEND
  0
POLYLINE
  8
ASSEMBLY_PHO
 66
1
 10
0.0000
 20
0.0000
 30
0.0000
 40
0.0200
 41
0.0200
  0
VERTEX
  8
ASSEMBLY_PHO
 10
7.6509
 20
7.92812
 30
0.0000
  0
VERTEX
  8
ASSEMBLY_PHO
 10
7.63272
 20
7.92812
 30
0.0000
  0
SEQEND
  0
POLYLINE
  8
ASSEMBLY_PHO
 66
1
 10
0.0000
 20
0.0000
 30
0.0000
 40
0.0200
 41
0.0200
  0
VERTEX
  8
ASSEMBLY_PHO
 10
7.63272
 20
7.92812
 30
0.0000
  0
VERTEX
  8
ASSEMBLY_PHO
 10
7.61909
 20
7.9225
 30
0.0000
  0
VERTEX
  8
ASSEMBLY_PHO
 10
7.6100
 20
7.91125
 30
0.0000
  0
VERTEX
  8
ASSEMBLY_PHO
 10
7.6100
 20
7.9000
 30
0.0000
  0
VERTEX
  8
ASSEMBLY_PHO
 10
7.61454
 20
7.88875
 30
0.0000
  0
SEQEND
  0
POLYLINE
  8
ASSEMBLY_PHO
 66
1
 10
0.0000
 20
0.0000
 30
0.0000
 40
0.0200
 41
0.0200
  0
VERTEX
  8
ASSEMBLY_PHO
 10
7.61454
 20
7.88875
 30
0.0000
  0
VERTEX
  8
ASSEMBLY_PHO
 10
7.61909
 20
7.88312
 30
0.0000
  0
SEQEND
  0
POLYLINE
  8
ASSEMBLY_PHO
 66
1
 10
0.0000
 20
0.0000
 30
0.0000
 40
0.0200
 41
0.0200
  0
VERTEX
  8
ASSEMBLY_PHO
 10
7.61909
 20
7.88312
 30
0.0000
  0
VERTEX
  8
ASSEMBLY_PHO
 10
7.62818
 20
7.8775
 30
0.0000
  0
VERTEX
  8
ASSEMBLY_PHO
 10
7.65545
 20
7.86625
 30
0.0000
  0
VERTEX
  8
ASSEMBLY_PHO
 10
7.66454
 20
7.86062
 30
0.0000
  0
SEQEND
  0
POLYLINE
  8
ASSEMBLY_PHO
 66
1
 10
0.0000
 20
0.0000
 30
0.0000
 40
0.0200
 41
0.0200
  0
VERTEX
  8
ASSEMBLY_PHO
 10
7.66454
 20
7.86062
 30
0.0000
  0
VERTEX
  8
ASSEMBLY_PHO
 10
7.66909
 20
7.8550
 30
0.0000
  0
VERTEX
  8
ASSEMBLY_PHO
 10
7.67363
 20
7.84375
 30
0.0000
  0
SEQEND
  0
POLYLINE
  8
ASSEMBLY_PHO
 66
1
 10
0.0000
 20
0.0000
 30
0.0000
 40
0.0200
 41
0.0200
  0
VERTEX
  8
ASSEMBLY_PHO
 10
7.67363
 20
7.84375
 30
0.0000
  0
VERTEX
  8
ASSEMBLY_PHO
 10
7.67363
 20
7.82687
 30
0.0000
  0
SEQEND
  0
POLYLINE
  8
ASSEMBLY_PHO
 66
1
 10
0.0000
 20
0.0000
 30
0.0000
 40
0.0200
 41
0.0200
  0
VERTEX
  8
ASSEMBLY_PHO
 10
7.67363
 20
7.82687
 30
0.0000
  0
VERTEX
  8
ASSEMBLY_PHO
 10
7.66454
 20
7.81562
 30
0.0000
  0
SEQEND
  0
POLYLINE
  8
ASSEMBLY_PHO
 66
1
 10
0.0000
 20
0.0000
 30
0.0000
 40
0.0200
 41
0.0200
  0
VERTEX
  8
ASSEMBLY_PHO
 10
7.66454
 20
7.81562
 30
0.0000
  0
VERTEX
  8
ASSEMBLY_PHO
 10
7.6509
 20
7.8100
 30
0.0000
  0
SEQEND
  0
POLYLINE
  8
ASSEMBLY_PHO
 66
1
 10
0.0000
 20
0.0000
 30
0.0000
 40
0.0200
 41
0.0200
  0
VERTEX
  8
ASSEMBLY_PHO
 10
7.6509
 20
7.8100
 30
0.0000
  0
VERTEX
  8
ASSEMBLY_PHO
 10
7.63272
 20
7.8100
 30
0.0000
  0
SEQEND
  0
POLYLINE
  8
ASSEMBLY_PHO
 66
1
 10
0.0000
 20
0.0000
 30
0.0000
 40
0.0200
 41
0.0200
  0
VERTEX
  8
ASSEMBLY_PHO
 10
7.63272
 20
7.8100
 30
0.0000
  0
VERTEX
  8
ASSEMBLY_PHO
 10
7.61909
 20
7.81562
 30
0.0000
  0
SEQEND
  0
POLYLINE
  8
ASSEMBLY_PHO
 66
1
 10
0.0000
 20
0.0000
 30
0.0000
 40
0.0200
 41
0.0200
  0
VERTEX
  8
ASSEMBLY_PHO
 10
7.61909
 20
7.81562
 30
0.0000
  0
VERTEX
  8
ASSEMBLY_PHO
 10
7.6100
 20
7.82687
 30
0.0000
  0
SEQEND
  0
POLYLINE
  8
ASSEMBLY_PHO
 66
1
 10
0.0000
 20
0.0000
 30
0.0000
 40
0.0200
 41
0.0200
  0
VERTEX
  8
ASSEMBLY_PHO
 10
7.71454
 20
7.92812
 30
0.0000
  0
VERTEX
  8
ASSEMBLY_PHO
 10
7.71454
 20
7.8100
 30
0.0000
  0
SEQEND
  0
POLYLINE
  8
ASSEMBLY_PHO
 66
1
 10
0.0000
 20
0.0000
 30
0.0000
 40
0.0200
 41
0.0200
  0
VERTEX
  8
ASSEMBLY_PHO
 10
7.75545
 20
7.92812
 30
0.0000
  0
VERTEX
  8
ASSEMBLY_PHO
 10
7.75545
 20
7.8100
 30
0.0000
  0
VERTEX
  8
ASSEMBLY_PHO
 10
7.8100
 20
7.8100
 30
0.0000
  0
SEQEND
  0
POLYLINE
  8
ASSEMBLY_PHO
 66
1
 10
0.0000
 20
0.0000
 30
0.0000
 40
0.0200
 41
0.0200
  0
VERTEX
  8
ASSEMBLY_PHO
 10
7.8509
 20
7.92812
 30
0.0000
  0
VERTEX
  8
ASSEMBLY_PHO
 10
7.8509
 20
7.8100
 30
0.0000
  0
SEQEND
  0
POLYLINE
  8
ASSEMBLY_PHO
 66
1
 10
0.0000
 20
0.0000
 30
0.0000
 40
0.0200
 41
0.0200
  0
VERTEX
  8
ASSEMBLY_PHO
 10
7.91454
 20
7.92812
 30
0.0000
  0
VERTEX
  8
ASSEMBLY_PHO
 10
7.8509
 20
7.84937
 30
0.0000
  0
SEQEND
  0
POLYLINE
  8
ASSEMBLY_PHO
 66
1
 10
0.0000
 20
0.0000
 30
0.0000
 40
0.0200
 41
0.0200
  0
VERTEX
  8
ASSEMBLY_PHO
 10
7.87363
 20
7.8775
 30
0.0000
  0
VERTEX
  8
ASSEMBLY_PHO
 10
7.91454
 20
7.8100
 30
0.0000
  0
SEQEND
  0
POLYLINE
  8
ASSEMBLY_PHO
 66
1
 10
0.0000
 20
0.0000
 30
0.0000
 40
0.0200
 41
0.0200
  0
VERTEX
  8
ASSEMBLY_PHO
 10
8.01909
 20
7.91125
 30
0.0000
  0
VERTEX
  8
ASSEMBLY_PHO
 10
8.0100
 20
7.9225
 30
0.0000
  0
VERTEX
  8
ASSEMBLY_PHO
 10
7.99636
 20
7.92812
 30
0.0000
  0
SEQEND
  0
POLYLINE
  8
ASSEMBLY_PHO
 66
1
 10
0.0000
 20
0.0000
 30
0.0000
 40
0.0200
 41
0.0200
  0
VERTEX
  8
ASSEMBLY_PHO
 10
7.99636
 20
7.92812
 30
0.0000
  0
VERTEX
  8
ASSEMBLY_PHO
 10
7.97818
 20
7.92812
 30
0.0000
  0
SEQEND
  0
POLYLINE
  8
ASSEMBLY_PHO
 66
1
 10
0.0000
 20
0.0000
 30
0.0000
 40
0.0200
 41
0.0200
  0
VERTEX
  8
ASSEMBLY_PHO
 10
7.97818
 20
7.92812
 30
0.0000
  0
VERTEX
  8
ASSEMBLY_PHO
 10
7.96454
 20
7.9225
 30
0.0000
  0
SEQEND
  0
POLYLINE
  8
ASSEMBLY_PHO
 66
1
 10
0.0000
 20
0.0000
 30
0.0000
 40
0.0200
 41
0.0200
  0
VERTEX
  8
ASSEMBLY_PHO
 10
7.96454
 20
7.9225
 30
0.0000
  0
VERTEX
  8
ASSEMBLY_PHO
 10
7.95545
 20
7.91125
 30
0.0000
  0
VERTEX
  8
ASSEMBLY_PHO
 10
7.95545
 20
7.9000
 30
0.0000
  0
VERTEX
  8
ASSEMBLY_PHO
 10
7.9600
 20
7.88875
 30
0.0000
  0
VERTEX
  8
ASSEMBLY_PHO
 10
7.96454
 20
7.88312
 30
0.0000
  0
SEQEND
  0
POLYLINE
  8
ASSEMBLY_PHO
 66
1
 10
0.0000
 20
0.0000
 30
0.0000
 40
0.0200
 41
0.0200
  0
VERTEX
  8
ASSEMBLY_PHO
 10
7.96454
 20
7.88312
 30
0.0000
  0
VERTEX
  8
ASSEMBLY_PHO
 10
7.97363
 20
7.8775
 30
0.0000
  0
SEQEND
  0
POLYLINE
  8
ASSEMBLY_PHO
 66
1
 10
0.0000
 20
0.0000
 30
0.0000
 40
0.0200
 41
0.0200
  0
VERTEX
  8
ASSEMBLY_PHO
 10
7.97363
 20
7.8775
 30
0.0000
  0
VERTEX
  8
ASSEMBLY_PHO
 10
8.0009
 20
7.86625
 30
0.0000
  0
SEQEND
  0
POLYLINE
  8
ASSEMBLY_PHO
 66
1
 10
0.0000
 20
0.0000
 30
0.0000
 40
0.0200
 41
0.0200
  0
VERTEX
  8
ASSEMBLY_PHO
 10
8.0009
 20
7.86625
 30
0.0000
  0
VERTEX
  8
ASSEMBLY_PHO
 10
8.0100
 20
7.86062
 30
0.0000
  0
SEQEND
  0
POLYLINE
  8
ASSEMBLY_PHO
 66
1
 10
0.0000
 20
0.0000
 30
0.0000
 40
0.0200
 41
0.0200
  0
VERTEX
  8
ASSEMBLY_PHO
 10
8.0100
 20
7.86062
 30
0.0000
  0
VERTEX
  8
ASSEMBLY_PHO
 10
8.01454
 20
7.8550
 30
0.0000
  0
SEQEND
  0
POLYLINE
  8
ASSEMBLY_PHO
 66
1
 10
0.0000
 20
0.0000
 30
0.0000
 40
0.0200
 41
0.0200
  0
VERTEX
  8
ASSEMBLY_PHO
 10
8.01454
 20
7.8550
 30
0.0000
  0
VERTEX
  8
ASSEMBLY_PHO
 10
8.01909
 20
7.84375
 30
0.0000
  0
VERTEX
  8
ASSEMBLY_PHO
 10
8.01909
 20
7.82687
 30
0.0000
  0
SEQEND
  0
POLYLINE
  8
ASSEMBLY_PHO
 66
1
 10
0.0000
 20
0.0000
 30
0.0000
 40
0.0200
 41
0.0200
  0
VERTEX
  8
ASSEMBLY_PHO
 10
8.01909
 20
7.82687
 30
0.0000
  0
VERTEX
  8
ASSEMBLY_PHO
 10
8.0100
 20
7.81562
 30
0.0000
  0
SEQEND
  0
POLYLINE
  8
ASSEMBLY_PHO
 66
1
 10
0.0000
 20
0.0000
 30
0.0000
 40
0.0200
 41
0.0200
  0
VERTEX
  8
ASSEMBLY_PHO
 10
8.0100
 20
7.81562
 30
0.0000
  0
VERTEX
  8
ASSEMBLY_PHO
 10
7.99636
 20
7.8100
 30
0.0000
  0
VERTEX
  8
ASSEMBLY_PHO
 10
7.97818
 20
7.8100
 30
0.0000
  0
VERTEX
  8
ASSEMBLY_PHO
 10
7.96454
 20
7.81562
 30
0.0000
  0
SEQEND
  0
POLYLINE
  8
ASSEMBLY_PHO
 66
1
 10
0.0000
 20
0.0000
 30
0.0000
 40
0.0200
 41
0.0200
  0
VERTEX
  8
ASSEMBLY_PHO
 10
7.96454
 20
7.81562
 30
0.0000
  0
VERTEX
  8
ASSEMBLY_PHO
 10
7.95545
 20
7.82687
 30
0.0000
  0
SEQEND
  0
POLYLINE
  8
ASSEMBLY_PHO
 66
1
 10
0.0000
 20
0.0000
 30
0.0000
 40
0.0200
 41
0.0200
  0
VERTEX
  8
ASSEMBLY_PHO
 10
8.12818
 20
7.9000
 30
0.0000
  0
VERTEX
  8
ASSEMBLY_PHO
 10
8.12363
 20
7.91125
 30
0.0000
  0
SEQEND
  0
POLYLINE
  8
ASSEMBLY_PHO
 66
1
 10
0.0000
 20
0.0000
 30
0.0000
 40
0.0200
 41
0.0200
  0
VERTEX
  8
ASSEMBLY_PHO
 10
8.12363
 20
7.91125
 30
0.0000
  0
VERTEX
  8
ASSEMBLY_PHO
 10
8.11454
 20
7.9225
 30
0.0000
  0
SEQEND
  0
POLYLINE
  8
ASSEMBLY_PHO
 66
1
 10
0.0000
 20
0.0000
 30
0.0000
 40
0.0200
 41
0.0200
  0
VERTEX
  8
ASSEMBLY_PHO
 10
8.11454
 20
7.9225
 30
0.0000
  0
VERTEX
  8
ASSEMBLY_PHO
 10
8.10545
 20
7.92812
 30
0.0000
  0
SEQEND
  0
POLYLINE
  8
ASSEMBLY_PHO
 66
1
 10
0.0000
 20
0.0000
 30
0.0000
 40
0.0200
 41
0.0200
  0
VERTEX
  8
ASSEMBLY_PHO
 10
8.10545
 20
7.92812
 30
0.0000
  0
VERTEX
  8
ASSEMBLY_PHO
 10
8.08727
 20
7.92812
 30
0.0000
  0
SEQEND
  0
POLYLINE
  8
ASSEMBLY_PHO
 66
1
 10
0.0000
 20
0.0000
 30
0.0000
 40
0.0200
 41
0.0200
  0
VERTEX
  8
ASSEMBLY_PHO
 10
8.08727
 20
7.92812
 30
0.0000
  0
VERTEX
  8
ASSEMBLY_PHO
 10
8.07818
 20
7.9225
 30
0.0000
  0
VERTEX
  8
ASSEMBLY_PHO
 10
8.06909
 20
7.91125
 30
0.0000
  0
VERTEX
  8
ASSEMBLY_PHO
 10
8.06454
 20
7.9000
 30
0.0000
  0
SEQEND
  0
POLYLINE
  8
ASSEMBLY_PHO
 66
1
 10
0.0000
 20
0.0000
 30
0.0000
 40
0.0200
 41
0.0200
  0
VERTEX
  8
ASSEMBLY_PHO
 10
8.06454
 20
7.9000
 30
0.0000
  0
VERTEX
  8
ASSEMBLY_PHO
 10
8.0600
 20
7.88312
 30
0.0000
  0
SEQEND
  0
POLYLINE
  8
ASSEMBLY_PHO
 66
1
 10
0.0000
 20
0.0000
 30
0.0000
 40
0.0200
 41
0.0200
  0
VERTEX
  8
ASSEMBLY_PHO
 10
8.0600
 20
7.88312
 30
0.0000
  0
VERTEX
  8
ASSEMBLY_PHO
 10
8.0600
 20
7.8550
 30
0.0000
  0
VERTEX
  8
ASSEMBLY_PHO
 10
8.06454
 20
7.83812
 30
0.0000
  0
SEQEND
  0
POLYLINE
  8
ASSEMBLY_PHO
 66
1
 10
0.0000
 20
0.0000
 30
0.0000
 40
0.0200
 41
0.0200
  0
VERTEX
  8
ASSEMBLY_PHO
 10
8.06454
 20
7.83812
 30
0.0000
  0
VERTEX
  8
ASSEMBLY_PHO
 10
8.06909
 20
7.82687
 30
0.0000
  0
SEQEND
  0
POLYLINE
  8
ASSEMBLY_PHO
 66
1
 10
0.0000
 20
0.0000
 30
0.0000
 40
0.0200
 41
0.0200
  0
VERTEX
  8
ASSEMBLY_PHO
 10
8.06909
 20
7.82687
 30
0.0000
  0
VERTEX
  8
ASSEMBLY_PHO
 10
8.07818
 20
7.81562
 30
0.0000
  0
SEQEND
  0
POLYLINE
  8
ASSEMBLY_PHO
 66
1
 10
0.0000
 20
0.0000
 30
0.0000
 40
0.0200
 41
0.0200
  0
VERTEX
  8
ASSEMBLY_PHO
 10
8.07818
 20
7.81562
 30
0.0000
  0
VERTEX
  8
ASSEMBLY_PHO
 10
8.08727
 20
7.8100
 30
0.0000
  0
VERTEX
  8
ASSEMBLY_PHO
 10
8.10545
 20
7.8100
 30
0.0000
  0
VERTEX
  8
ASSEMBLY_PHO
 10
8.11454
 20
7.81562
 30
0.0000
  0
SEQEND
  0
POLYLINE
  8
ASSEMBLY_PHO
 66
1
 10
0.0000
 20
0.0000
 30
0.0000
 40
0.0200
 41
0.0200
  0
VERTEX
  8
ASSEMBLY_PHO
 10
8.11454
 20
7.81562
 30
0.0000
  0
VERTEX
  8
ASSEMBLY_PHO
 10
8.12363
 20
7.82687
 30
0.0000
  0
SEQEND
  0
POLYLINE
  8
ASSEMBLY_PHO
 66
1
 10
0.0000
 20
0.0000
 30
0.0000
 40
0.0200
 41
0.0200
  0
VERTEX
  8
ASSEMBLY_PHO
 10
8.12363
 20
7.82687
 30
0.0000
  0
VERTEX
  8
ASSEMBLY_PHO
 10
8.12818
 20
7.83812
 30
0.0000
  0
SEQEND
  0
POLYLINE
  8
ASSEMBLY_PHO
 66
1
 10
0.0000
 20
0.0000
 30
0.0000
 40
0.0200
 41
0.0200
  0
VERTEX
  8
ASSEMBLY_PHO
 10
8.16909
 20
7.92812
 30
0.0000
  0
VERTEX
  8
ASSEMBLY_PHO
 10
8.16909
 20
7.8100
 30
0.0000
  0
SEQEND
  0
POLYLINE
  8
ASSEMBLY_PHO
 66
1
 10
0.0000
 20
0.0000
 30
0.0000
 40
0.0200
 41
0.0200
  0
VERTEX
  8
ASSEMBLY_PHO
 10
8.16909
 20
7.92812
 30
0.0000
  0
VERTEX
  8
ASSEMBLY_PHO
 10
8.2100
 20
7.92812
 30
0.0000
  0
SEQEND
  0
POLYLINE
  8
ASSEMBLY_PHO
 66
1
 10
0.0000
 20
0.0000
 30
0.0000
 40
0.0200
 41
0.0200
  0
VERTEX
  8
ASSEMBLY_PHO
 10
8.2100
 20
7.92812
 30
0.0000
  0
VERTEX
  8
ASSEMBLY_PHO
 10
8.22363
 20
7.9225
 30
0.0000
  0
SEQEND
  0
POLYLINE
  8
ASSEMBLY_PHO
 66
1
 10
0.0000
 20
0.0000
 30
0.0000
 40
0.0200
 41
0.0200
  0
VERTEX
  8
ASSEMBLY_PHO
 10
8.22363
 20
7.9225
 30
0.0000
  0
VERTEX
  8
ASSEMBLY_PHO
 10
8.22818
 20
7.91687
 30
0.0000
  0
SEQEND
  0
POLYLINE
  8
ASSEMBLY_PHO
 66
1
 10
0.0000
 20
0.0000
 30
0.0000
 40
0.0200
 41
0.0200
  0
VERTEX
  8
ASSEMBLY_PHO
 10
8.22818
 20
7.91687
 30
0.0000
  0
VERTEX
  8
ASSEMBLY_PHO
 10
8.23272
 20
7.90562
 30
0.0000
  0
SEQEND
  0
POLYLINE
  8
ASSEMBLY_PHO
 66
1
 10
0.0000
 20
0.0000
 30
0.0000
 40
0.0200
 41
0.0200
  0
VERTEX
  8
ASSEMBLY_PHO
 10
8.23272
 20
7.90562
 30
0.0000
  0
VERTEX
  8
ASSEMBLY_PHO
 10
8.23272
 20
7.89437
 30
0.0000
  0
SEQEND
  0
POLYLINE
  8
ASSEMBLY_PHO
 66
1
 10
0.0000
 20
0.0000
 30
0.0000
 40
0.0200
 41
0.0200
  0
VERTEX
  8
ASSEMBLY_PHO
 10
8.23272
 20
7.89437
 30
0.0000
  0
VERTEX
  8
ASSEMBLY_PHO
 10
8.22818
 20
7.88312
 30
0.0000
  0
SEQEND
  0
POLYLINE
  8
ASSEMBLY_PHO
 66
1
 10
0.0000
 20
0.0000
 30
0.0000
 40
0.0200
 41
0.0200
  0
VERTEX
  8
ASSEMBLY_PHO
 10
8.22818
 20
7.88312
 30
0.0000
  0
VERTEX
  8
ASSEMBLY_PHO
 10
8.22363
 20
7.8775
 30
0.0000
  0
SEQEND
  0
POLYLINE
  8
ASSEMBLY_PHO
 66
1
 10
0.0000
 20
0.0000
 30
0.0000
 40
0.0200
 41
0.0200
  0
VERTEX
  8
ASSEMBLY_PHO
 10
8.22363
 20
7.8775
 30
0.0000
  0
VERTEX
  8
ASSEMBLY_PHO
 10
8.2100
 20
7.87187
 30
0.0000
  0
SEQEND
  0
POLYLINE
  8
ASSEMBLY_PHO
 66
1
 10
0.0000
 20
0.0000
 30
0.0000
 40
0.0200
 41
0.0200
  0
VERTEX
  8
ASSEMBLY_PHO
 10
8.2100
 20
7.87187
 30
0.0000
  0
VERTEX
  8
ASSEMBLY_PHO
 10
8.16909
 20
7.87187
 30
0.0000
  0
SEQEND
  0
POLYLINE
  8
ASSEMBLY_PHO
 66
1
 10
0.0000
 20
0.0000
 30
0.0000
 40
0.0200
 41
0.0200
  0
VERTEX
  8
ASSEMBLY_PHO
 10
8.2009
 20
7.87187
 30
0.0000
  0
VERTEX
  8
ASSEMBLY_PHO
 10
8.23272
 20
7.8100
 30
0.0000
  0
SEQEND
  0
POLYLINE
  8
ASSEMBLY_PHO
 66
1
 10
0.0000
 20
0.0000
 30
0.0000
 40
0.0200
 41
0.0200
  0
VERTEX
  8
ASSEMBLY_PHO
 10
8.27363
 20
7.92812
 30
0.0000
  0
VERTEX
  8
ASSEMBLY_PHO
 10
8.27363
 20
7.8100
 30
0.0000
  0
SEQEND
  0
POLYLINE
  8
ASSEMBLY_PHO
 66
1
 10
0.0000
 20
0.0000
 30
0.0000
 40
0.0200
 41
0.0200
  0
VERTEX
  8
ASSEMBLY_PHO
 10
8.27363
 20
7.92812
 30
0.0000
  0
VERTEX
  8
ASSEMBLY_PHO
 10
8.33272
 20
7.92812
 30
0.0000
  0
SEQEND
  0
POLYLINE
  8
ASSEMBLY_PHO
 66
1
 10
0.0000
 20
0.0000
 30
0.0000
 40
0.0200
 41
0.0200
  0
VERTEX
  8
ASSEMBLY_PHO
 10
8.27363
 20
7.87187
 30
0.0000
  0
VERTEX
  8
ASSEMBLY_PHO
 10
8.3100
 20
7.87187
 30
0.0000
  0
SEQEND
  0
POLYLINE
  8
ASSEMBLY_PHO
 66
1
 10
0.0000
 20
0.0000
 30
0.0000
 40
0.0200
 41
0.0200
  0
VERTEX
  8
ASSEMBLY_PHO
 10
8.27363
 20
7.8100
 30
0.0000
  0
VERTEX
  8
ASSEMBLY_PHO
 10
8.33272
 20
7.8100
 30
0.0000
  0
SEQEND
  0
POLYLINE
  8
ASSEMBLY_PHO
 66
1
 10
0.0000
 20
0.0000
 30
0.0000
 40
0.0200
 41
0.0200
  0
VERTEX
  8
ASSEMBLY_PHO
 10
8.37363
 20
7.92812
 30
0.0000
  0
VERTEX
  8
ASSEMBLY_PHO
 10
8.37363
 20
7.8100
 30
0.0000
  0
SEQEND
  0
POLYLINE
  8
ASSEMBLY_PHO
 66
1
 10
0.0000
 20
0.0000
 30
0.0000
 40
0.0200
 41
0.0200
  0
VERTEX
  8
ASSEMBLY_PHO
 10
8.37363
 20
7.92812
 30
0.0000
  0
VERTEX
  8
ASSEMBLY_PHO
 10
8.43272
 20
7.92812
 30
0.0000
  0
SEQEND
  0
POLYLINE
  8
ASSEMBLY_PHO
 66
1
 10
0.0000
 20
0.0000
 30
0.0000
 40
0.0200
 41
0.0200
  0
VERTEX
  8
ASSEMBLY_PHO
 10
8.37363
 20
7.87187
 30
0.0000
  0
VERTEX
  8
ASSEMBLY_PHO
 10
8.4100
 20
7.87187
 30
0.0000
  0
SEQEND
  0
POLYLINE
  8
ASSEMBLY_PHO
 66
1
 10
0.0000
 20
0.0000
 30
0.0000
 40
0.0200
 41
0.0200
  0
VERTEX
  8
ASSEMBLY_PHO
 10
8.37363
 20
7.8100
 30
0.0000
  0
VERTEX
  8
ASSEMBLY_PHO
 10
8.43272
 20
7.8100
 30
0.0000
  0
SEQEND
  0
POLYLINE
  8
ASSEMBLY_PHO
 66
1
 10
0.0000
 20
0.0000
 30
0.0000
 40
0.0200
 41
0.0200
  0
VERTEX
  8
ASSEMBLY_PHO
 10
8.47363
 20
7.92812
 30
0.0000
  0
VERTEX
  8
ASSEMBLY_PHO
 10
8.47363
 20
7.8100
 30
0.0000
  0
SEQEND
  0
POLYLINE
  8
ASSEMBLY_PHO
 66
1
 10
0.0000
 20
0.0000
 30
0.0000
 40
0.0200
 41
0.0200
  0
VERTEX
  8
ASSEMBLY_PHO
 10
8.47363
 20
7.92812
 30
0.0000
  0
VERTEX
  8
ASSEMBLY_PHO
 10
8.53727
 20
7.8100
 30
0.0000
  0
SEQEND
  0
POLYLINE
  8
ASSEMBLY_PHO
 66
1
 10
0.0000
 20
0.0000
 30
0.0000
 40
0.0200
 41
0.0200
  0
VERTEX
  8
ASSEMBLY_PHO
 10
8.53727
 20
7.92812
 30
0.0000
  0
VERTEX
  8
ASSEMBLY_PHO
 10
8.53727
 20
7.8100
 30
0.0000
  0
SEQEND
  0
POLYLINE
  8
ASSEMBLY_PHO
 66
1
 10
0.0000
 20
0.0000
 30
0.0000
 40
0.0200
 41
0.0200
  0
VERTEX
  8
ASSEMBLY_PHO
 10
8.71454
 20
7.92812
 30
0.0000
  0
VERTEX
  8
ASSEMBLY_PHO
 10
8.71454
 20
7.8100
 30
0.0000
  0
SEQEND
  0
POLYLINE
  8
ASSEMBLY_PHO
 66
1
 10
0.0000
 20
0.0000
 30
0.0000
 40
0.0200
 41
0.0200
  0
VERTEX
  8
ASSEMBLY_PHO
 10
8.68272
 20
7.92812
 30
0.0000
  0
VERTEX
  8
ASSEMBLY_PHO
 10
8.74636
 20
7.92812
 30
0.0000
  0
SEQEND
  0
POLYLINE
  8
ASSEMBLY_PHO
 66
1
 10
0.0000
 20
0.0000
 30
0.0000
 40
0.0200
 41
0.0200
  0
VERTEX
  8
ASSEMBLY_PHO
 10
8.81454
 20
7.92812
 30
0.0000
  0
VERTEX
  8
ASSEMBLY_PHO
 10
8.80545
 20
7.9225
 30
0.0000
  0
VERTEX
  8
ASSEMBLY_PHO
 10
8.79636
 20
7.91125
 30
0.0000
  0
VERTEX
  8
ASSEMBLY_PHO
 10
8.79181
 20
7.9000
 30
0.0000
  0
SEQEND
  0
POLYLINE
  8
ASSEMBLY_PHO
 66
1
 10
0.0000
 20
0.0000
 30
0.0000
 40
0.0200
 41
0.0200
  0
VERTEX
  8
ASSEMBLY_PHO
 10
8.79181
 20
7.9000
 30
0.0000
  0
VERTEX
  8
ASSEMBLY_PHO
 10
8.78727
 20
7.88312
 30
0.0000
  0
SEQEND
  0
POLYLINE
  8
ASSEMBLY_PHO
 66
1
 10
0.0000
 20
0.0000
 30
0.0000
 40
0.0200
 41
0.0200
  0
VERTEX
  8
ASSEMBLY_PHO
 10
8.78727
 20
7.88312
 30
0.0000
  0
VERTEX
  8
ASSEMBLY_PHO
 10
8.78727
 20
7.8550
 30
0.0000
  0
VERTEX
  8
ASSEMBLY_PHO
 10
8.79181
 20
7.83812
 30
0.0000
  0
SEQEND
  0
POLYLINE
  8
ASSEMBLY_PHO
 66
1
 10
0.0000
 20
0.0000
 30
0.0000
 40
0.0200
 41
0.0200
  0
VERTEX
  8
ASSEMBLY_PHO
 10
8.79181
 20
7.83812
 30
0.0000
  0
VERTEX
  8
ASSEMBLY_PHO
 10
8.79636
 20
7.82687
 30
0.0000
  0
SEQEND
  0
POLYLINE
  8
ASSEMBLY_PHO
 66
1
 10
0.0000
 20
0.0000
 30
0.0000
 40
0.0200
 41
0.0200
  0
VERTEX
  8
ASSEMBLY_PHO
 10
8.79636
 20
7.82687
 30
0.0000
  0
VERTEX
  8
ASSEMBLY_PHO
 10
8.80545
 20
7.81562
 30
0.0000
  0
SEQEND
  0
POLYLINE
  8
ASSEMBLY_PHO
 66
1
 10
0.0000
 20
0.0000
 30
0.0000
 40
0.0200
 41
0.0200
  0
VERTEX
  8
ASSEMBLY_PHO
 10
8.80545
 20
7.81562
 30
0.0000
  0
VERTEX
  8
ASSEMBLY_PHO
 10
8.81454
 20
7.8100
 30
0.0000
  0
SEQEND
  0
POLYLINE
  8
ASSEMBLY_PHO
 66
1
 10
0.0000
 20
0.0000
 30
0.0000
 40
0.0200
 41
0.0200
  0
VERTEX
  8
ASSEMBLY_PHO
 10
8.81454
 20
7.8100
 30
0.0000
  0
VERTEX
  8
ASSEMBLY_PHO
 10
8.83272
 20
7.8100
 30
0.0000
  0
SEQEND
  0
POLYLINE
  8
ASSEMBLY_PHO
 66
1
 10
0.0000
 20
0.0000
 30
0.0000
 40
0.0200
 41
0.0200
  0
VERTEX
  8
ASSEMBLY_PHO
 10
8.83272
 20
7.8100
 30
0.0000
  0
VERTEX
  8
ASSEMBLY_PHO
 10
8.84181
 20
7.81562
 30
0.0000
  0
SEQEND
  0
POLYLINE
  8
ASSEMBLY_PHO
 66
1
 10
0.0000
 20
0.0000
 30
0.0000
 40
0.0200
 41
0.0200
  0
VERTEX
  8
ASSEMBLY_PHO
 10
8.84181
 20
7.81562
 30
0.0000
  0
VERTEX
  8
ASSEMBLY_PHO
 10
8.8509
 20
7.82687
 30
0.0000
  0
SEQEND
  0
POLYLINE
  8
ASSEMBLY_PHO
 66
1
 10
0.0000
 20
0.0000
 30
0.0000
 40
0.0200
 41
0.0200
  0
VERTEX
  8
ASSEMBLY_PHO
 10
8.8509
 20
7.82687
 30
0.0000
  0
VERTEX
  8
ASSEMBLY_PHO
 10
8.85545
 20
7.83812
 30
0.0000
  0
SEQEND
  0
POLYLINE
  8
ASSEMBLY_PHO
 66
1
 10
0.0000
 20
0.0000
 30
0.0000
 40
0.0200
 41
0.0200
  0
VERTEX
  8
ASSEMBLY_PHO
 10
8.85545
 20
7.83812
 30
0.0000
  0
VERTEX
  8
ASSEMBLY_PHO
 10
8.8600
 20
7.8550
 30
0.0000
  0
VERTEX
  8
ASSEMBLY_PHO
 10
8.8600
 20
7.88312
 30
0.0000
  0
SEQEND
  0
POLYLINE
  8
ASSEMBLY_PHO
 66
1
 10
0.0000
 20
0.0000
 30
0.0000
 40
0.0200
 41
0.0200
  0
VERTEX
  8
ASSEMBLY_PHO
 10
8.8600
 20
7.88312
 30
0.0000
  0
VERTEX
  8
ASSEMBLY_PHO
 10
8.85545
 20
7.9000
 30
0.0000
  0
VERTEX
  8
ASSEMBLY_PHO
 10
8.8509
 20
7.91125
 30
0.0000
  0
SEQEND
  0
POLYLINE
  8
ASSEMBLY_PHO
 66
1
 10
0.0000
 20
0.0000
 30
0.0000
 40
0.0200
 41
0.0200
  0
VERTEX
  8
ASSEMBLY_PHO
 10
8.8509
 20
7.91125
 30
0.0000
  0
VERTEX
  8
ASSEMBLY_PHO
 10
8.84181
 20
7.9225
 30
0.0000
  0
SEQEND
  0
POLYLINE
  8
ASSEMBLY_PHO
 66
1
 10
0.0000
 20
0.0000
 30
0.0000
 40
0.0200
 41
0.0200
  0
VERTEX
  8
ASSEMBLY_PHO
 10
8.84181
 20
7.9225
 30
0.0000
  0
VERTEX
  8
ASSEMBLY_PHO
 10
8.83272
 20
7.92812
 30
0.0000
  0
SEQEND
  0
POLYLINE
  8
ASSEMBLY_PHO
 66
1
 10
0.0000
 20
0.0000
 30
0.0000
 40
0.0200
 41
0.0200
  0
VERTEX
  8
ASSEMBLY_PHO
 10
8.83272
 20
7.92812
 30
0.0000
  0
VERTEX
  8
ASSEMBLY_PHO
 10
8.81454
 20
7.92812
 30
0.0000
  0
SEQEND
  0
POLYLINE
  8
ASSEMBLY_PHO
 66
1
 10
0.0000
 20
0.0000
 30
0.0000
 40
0.0200
 41
0.0200
  0
VERTEX
  8
ASSEMBLY_PHO
 10
8.9009
 20
7.92812
 30
0.0000
  0
VERTEX
  8
ASSEMBLY_PHO
 10
8.9009
 20
7.8100
 30
0.0000
  0
SEQEND
  0
POLYLINE
  8
ASSEMBLY_PHO
 66
1
 10
0.0000
 20
0.0000
 30
0.0000
 40
0.0200
 41
0.0200
  0
VERTEX
  8
ASSEMBLY_PHO
 10
8.9009
 20
7.92812
 30
0.0000
  0
VERTEX
  8
ASSEMBLY_PHO
 10
8.94181
 20
7.92812
 30
0.0000
  0
SEQEND
  0
POLYLINE
  8
ASSEMBLY_PHO
 66
1
 10
0.0000
 20
0.0000
 30
0.0000
 40
0.0200
 41
0.0200
  0
VERTEX
  8
ASSEMBLY_PHO
 10
8.94181
 20
7.92812
 30
0.0000
  0
VERTEX
  8
ASSEMBLY_PHO
 10
8.95545
 20
7.9225
 30
0.0000
  0
VERTEX
  8
ASSEMBLY_PHO
 10
8.9600
 20
7.91687
 30
0.0000
  0
SEQEND
  0
POLYLINE
  8
ASSEMBLY_PHO
 66
1
 10
0.0000
 20
0.0000
 30
0.0000
 40
0.0200
 41
0.0200
  0
VERTEX
  8
ASSEMBLY_PHO
 10
8.9600
 20
7.91687
 30
0.0000
  0
VERTEX
  8
ASSEMBLY_PHO
 10
8.96454
 20
7.90562
 30
0.0000
  0
SEQEND
  0
POLYLINE
  8
ASSEMBLY_PHO
 66
1
 10
0.0000
 20
0.0000
 30
0.0000
 40
0.0200
 41
0.0200
  0
VERTEX
  8
ASSEMBLY_PHO
 10
8.96454
 20
7.90562
 30
0.0000
  0
VERTEX
  8
ASSEMBLY_PHO
 10
8.96454
 20
7.88875
 30
0.0000
  0
SEQEND
  0
POLYLINE
  8
ASSEMBLY_PHO
 66
1
 10
0.0000
 20
0.0000
 30
0.0000
 40
0.0200
 41
0.0200
  0
VERTEX
  8
ASSEMBLY_PHO
 10
8.96454
 20
7.88875
 30
0.0000
  0
VERTEX
  8
ASSEMBLY_PHO
 10
8.9600
 20
7.8775
 30
0.0000
  0
VERTEX
  8
ASSEMBLY_PHO
 10
8.95545
 20
7.87187
 30
0.0000
  0
SEQEND
  0
POLYLINE
  8
ASSEMBLY_PHO
 66
1
 10
0.0000
 20
0.0000
 30
0.0000
 40
0.0200
 41
0.0200
  0
VERTEX
  8
ASSEMBLY_PHO
 10
8.95545
 20
7.87187
 30
0.0000
  0
VERTEX
  8
ASSEMBLY_PHO
 10
8.94181
 20
7.86625
 30
0.0000
  0
SEQEND
  0
POLYLINE
  8
ASSEMBLY_PHO
 66
1
 10
0.0000
 20
0.0000
 30
0.0000
 40
0.0200
 41
0.0200
  0
VERTEX
  8
ASSEMBLY_PHO
 10
8.94181
 20
7.86625
 30
0.0000
  0
VERTEX
  8
ASSEMBLY_PHO
 10
8.9009
 20
7.86625
 30
0.0000
  0
SEQEND
  0
POLYLINE
  8
ASSEMBLY_PHO
 66
1
 10
0.0000
 20
0.0000
 30
0.0000
 40
0.0200
 41
0.0200
  0
VERTEX
  8
ASSEMBLY_PHO
 10
9.17363
 20
7.91125
 30
0.0000
  0
VERTEX
  8
ASSEMBLY_PHO
 10
9.16454
 20
7.9225
 30
0.0000
  0
SEQEND
  0
POLYLINE
  8
ASSEMBLY_PHO
 66
1
 10
0.0000
 20
0.0000
 30
0.0000
 40
0.0200
 41
0.0200
  0
VERTEX
  8
ASSEMBLY_PHO
 10
9.16454
 20
7.9225
 30
0.0000
  0
VERTEX
  8
ASSEMBLY_PHO
 10
9.1509
 20
7.92812
 30
0.0000
  0
SEQEND
  0
POLYLINE
  8
ASSEMBLY_PHO
 66
1
 10
0.0000
 20
0.0000
 30
0.0000
 40
0.0200
 41
0.0200
  0
VERTEX
  8
ASSEMBLY_PHO
 10
9.1509
 20
7.92812
 30
0.0000
  0
VERTEX
  8
ASSEMBLY_PHO
 10
9.13272
 20
7.92812
 30
0.0000
  0
SEQEND
  0
POLYLINE
  8
ASSEMBLY_PHO
 66
1
 10
0.0000
 20
0.0000
 30
0.0000
 40
0.0200
 41
0.0200
  0
VERTEX
  8
ASSEMBLY_PHO
 10
9.13272
 20
7.92812
 30
0.0000
  0
VERTEX
  8
ASSEMBLY_PHO
 10
9.11909
 20
7.9225
 30
0.0000
  0
VERTEX
  8
ASSEMBLY_PHO
 10
9.1100
 20
7.91125
 30
0.0000
  0
VERTEX
  8
ASSEMBLY_PHO
 10
9.1100
 20
7.9000
 30
0.0000
  0
VERTEX
  8
ASSEMBLY_PHO
 10
9.11454
 20
7.88875
 30
0.0000
  0
SEQEND
  0
POLYLINE
  8
ASSEMBLY_PHO
 66
1
 10
0.0000
 20
0.0000
 30
0.0000
 40
0.0200
 41
0.0200
  0
VERTEX
  8
ASSEMBLY_PHO
 10
9.11454
 20
7.88875
 30
0.0000
  0
VERTEX
  8
ASSEMBLY_PHO
 10
9.11909
 20
7.88312
 30
0.0000
  0
SEQEND
  0
POLYLINE
  8
ASSEMBLY_PHO
 66
1
 10
0.0000
 20
0.0000
 30
0.0000
 40
0.0200
 41
0.0200
  0
VERTEX
  8
ASSEMBLY_PHO
 10
9.11909
 20
7.88312
 30
0.0000
  0
VERTEX
  8
ASSEMBLY_PHO
 10
9.12818
 20
7.8775
 30
0.0000
  0
VERTEX
  8
ASSEMBLY_PHO
 10
9.15545
 20
7.86625
 30
0.0000
  0
VERTEX
  8
ASSEMBLY_PHO
 10
9.16454
 20
7.86062
 30
0.0000
  0
SEQEND
  0
POLYLINE
  8
ASSEMBLY_PHO
 66
1
 10
0.0000
 20
0.0000
 30
0.0000
 40
0.0200
 41
0.0200
  0
VERTEX
  8
ASSEMBLY_PHO
 10
9.16454
 20
7.86062
 30
0.0000
  0
VERTEX
  8
ASSEMBLY_PHO
 10
9.16909
 20
7.8550
 30
0.0000
  0
VERTEX
  8
ASSEMBLY_PHO
 10
9.17363
 20
7.84375
 30
0.0000
  0
SEQEND
  0
POLYLINE
  8
ASSEMBLY_PHO
 66
1
 10
0.0000
 20
0.0000
 30
0.0000
 40
0.0200
 41
0.0200
  0
VERTEX
  8
ASSEMBLY_PHO
 10
9.17363
 20
7.84375
 30
0.0000
  0
VERTEX
  8
ASSEMBLY_PHO
 10
9.17363
 20
7.82687
 30
0.0000
  0
SEQEND
  0
POLYLINE
  8
ASSEMBLY_PHO
 66
1
 10
0.0000
 20
0.0000
 30
0.0000
 40
0.0200
 41
0.0200
  0
VERTEX
  8
ASSEMBLY_PHO
 10
9.17363
 20
7.82687
 30
0.0000
  0
VERTEX
  8
ASSEMBLY_PHO
 10
9.16454
 20
7.81562
 30
0.0000
  0
SEQEND
  0
POLYLINE
  8
ASSEMBLY_PHO
 66
1
 10
0.0000
 20
0.0000
 30
0.0000
 40
0.0200
 41
0.0200
  0
VERTEX
  8
ASSEMBLY_PHO
 10
9.16454
 20
7.81562
 30
0.0000
  0
VERTEX
  8
ASSEMBLY_PHO
 10
9.1509
 20
7.8100
 30
0.0000
  0
SEQEND
  0
POLYLINE
  8
ASSEMBLY_PHO
 66
1
 10
0.0000
 20
0.0000
 30
0.0000
 40
0.0200
 41
0.0200
  0
VERTEX
  8
ASSEMBLY_PHO
 10
9.1509
 20
7.8100
 30
0.0000
  0
VERTEX
  8
ASSEMBLY_PHO
 10
9.13272
 20
7.8100
 30
0.0000
  0
SEQEND
  0
POLYLINE
  8
ASSEMBLY_PHO
 66
1
 10
0.0000
 20
0.0000
 30
0.0000
 40
0.0200
 41
0.0200
  0
VERTEX
  8
ASSEMBLY_PHO
 10
9.13272
 20
7.8100
 30
0.0000
  0
VERTEX
  8
ASSEMBLY_PHO
 10
9.11909
 20
7.81562
 30
0.0000
  0
SEQEND
  0
POLYLINE
  8
ASSEMBLY_PHO
 66
1
 10
0.0000
 20
0.0000
 30
0.0000
 40
0.0200
 41
0.0200
  0
VERTEX
  8
ASSEMBLY_PHO
 10
9.11909
 20
7.81562
 30
0.0000
  0
VERTEX
  8
ASSEMBLY_PHO
 10
9.1100
 20
7.82687
 30
0.0000
  0
SEQEND
  0
POLYLINE
  8
ASSEMBLY_PHO
 66
1
 10
0.0000
 20
0.0000
 30
0.0000
 40
0.0200
 41
0.0200
  0
VERTEX
  8
ASSEMBLY_PHO
 10
9.21454
 20
7.92812
 30
0.0000
  0
VERTEX
  8
ASSEMBLY_PHO
 10
9.21454
 20
7.8100
 30
0.0000
  0
SEQEND
  0
POLYLINE
  8
ASSEMBLY_PHO
 66
1
 10
0.0000
 20
0.0000
 30
0.0000
 40
0.0200
 41
0.0200
  0
VERTEX
  8
ASSEMBLY_PHO
 10
9.25545
 20
7.92812
 30
0.0000
  0
VERTEX
  8
ASSEMBLY_PHO
 10
9.25545
 20
7.8100
 30
0.0000
  0
SEQEND
  0
POLYLINE
  8
ASSEMBLY_PHO
 66
1
 10
0.0000
 20
0.0000
 30
0.0000
 40
0.0200
 41
0.0200
  0
VERTEX
  8
ASSEMBLY_PHO
 10
9.25545
 20
7.92812
 30
0.0000
  0
VERTEX
  8
ASSEMBLY_PHO
 10
9.28727
 20
7.92812
 30
0.0000
  0
SEQEND
  0
POLYLINE
  8
ASSEMBLY_PHO
 66
1
 10
0.0000
 20
0.0000
 30
0.0000
 40
0.0200
 41
0.0200
  0
VERTEX
  8
ASSEMBLY_PHO
 10
9.28727
 20
7.92812
 30
0.0000
  0
VERTEX
  8
ASSEMBLY_PHO
 10
9.3009
 20
7.9225
 30
0.0000
  0
SEQEND
  0
POLYLINE
  8
ASSEMBLY_PHO
 66
1
 10
0.0000
 20
0.0000
 30
0.0000
 40
0.0200
 41
0.0200
  0
VERTEX
  8
ASSEMBLY_PHO
 10
9.3009
 20
7.9225
 30
0.0000
  0
VERTEX
  8
ASSEMBLY_PHO
 10
9.3100
 20
7.91125
 30
0.0000
  0
VERTEX
  8
ASSEMBLY_PHO
 10
9.31454
 20
7.9000
 30
0.0000
  0
SEQEND
  0
POLYLINE
  8
ASSEMBLY_PHO
 66
1
 10
0.0000
 20
0.0000
 30
0.0000
 40
0.0200
 41
0.0200
  0
VERTEX
  8
ASSEMBLY_PHO
 10
9.31454
 20
7.9000
 30
0.0000
  0
VERTEX
  8
ASSEMBLY_PHO
 10
9.31909
 20
7.88312
 30
0.0000
  0
SEQEND
  0
POLYLINE
  8
ASSEMBLY_PHO
 66
1
 10
0.0000
 20
0.0000
 30
0.0000
 40
0.0200
 41
0.0200
  0
VERTEX
  8
ASSEMBLY_PHO
 10
9.31909
 20
7.88312
 30
0.0000
  0
VERTEX
  8
ASSEMBLY_PHO
 10
9.31909
 20
7.8550
 30
0.0000
  0
VERTEX
  8
ASSEMBLY_PHO
 10
9.31454
 20
7.83812
 30
0.0000
  0
SEQEND
  0
POLYLINE
  8
ASSEMBLY_PHO
 66
1
 10
0.0000
 20
0.0000
 30
0.0000
 40
0.0200
 41
0.0200
  0
VERTEX
  8
ASSEMBLY_PHO
 10
9.31454
 20
7.83812
 30
0.0000
  0
VERTEX
  8
ASSEMBLY_PHO
 10
9.3100
 20
7.82687
 30
0.0000
  0
SEQEND
  0
POLYLINE
  8
ASSEMBLY_PHO
 66
1
 10
0.0000
 20
0.0000
 30
0.0000
 40
0.0200
 41
0.0200
  0
VERTEX
  8
ASSEMBLY_PHO
 10
9.3100
 20
7.82687
 30
0.0000
  0
VERTEX
  8
ASSEMBLY_PHO
 10
9.3009
 20
7.81562
 30
0.0000
  0
SEQEND
  0
POLYLINE
  8
ASSEMBLY_PHO
 66
1
 10
0.0000
 20
0.0000
 30
0.0000
 40
0.0200
 41
0.0200
  0
VERTEX
  8
ASSEMBLY_PHO
 10
9.3009
 20
7.81562
 30
0.0000
  0
VERTEX
  8
ASSEMBLY_PHO
 10
9.28727
 20
7.8100
 30
0.0000
  0
VERTEX
  8
ASSEMBLY_PHO
 10
9.25545
 20
7.8100
 30
0.0000
  0
SEQEND
  0
POLYLINE
  8
ASSEMBLY_PHO
 66
1
 10
0.0000
 20
0.0000
 30
0.0000
 40
0.0200
 41
0.0200
  0
VERTEX
  8
ASSEMBLY_PHO
 10
9.3600
 20
7.92812
 30
0.0000
  0
VERTEX
  8
ASSEMBLY_PHO
 10
9.3600
 20
7.8100
 30
0.0000
  0
SEQEND
  0
POLYLINE
  8
ASSEMBLY_PHO
 66
1
 10
0.0000
 20
0.0000
 30
0.0000
 40
0.0200
 41
0.0200
  0
VERTEX
  8
ASSEMBLY_PHO
 10
9.3600
 20
7.92812
 30
0.0000
  0
VERTEX
  8
ASSEMBLY_PHO
 10
9.41909
 20
7.92812
 30
0.0000
  0
SEQEND
  0
POLYLINE
  8
ASSEMBLY_PHO
 66
1
 10
0.0000
 20
0.0000
 30
0.0000
 40
0.0200
 41
0.0200
  0
VERTEX
  8
ASSEMBLY_PHO
 10
9.3600
 20
7.87187
 30
0.0000
  0
VERTEX
  8
ASSEMBLY_PHO
 10
9.39636
 20
7.87187
 30
0.0000
  0
SEQEND
  0
POLYLINE
  8
ASSEMBLY_PHO
 66
1
 10
0.0000
 20
0.0000
 30
0.0000
 40
0.0200
 41
0.0200
  0
VERTEX
  8
ASSEMBLY_PHO
 10
9.3600
 20
7.8100
 30
0.0000
  0
VERTEX
  8
ASSEMBLY_PHO
 10
9.41909
 20
7.8100
 30
0.0000
  0
SEQEND
  0
POLYLINE
  8
ASSEMBLY_PHO
 66
1
 10
0.0000
 20
0.0000
 30
0.0000
 40
0.0200
 41
0.0200
  0
VERTEX
  8
ASSEMBLY_PHO
 10
8.31909
 20
7.67812
 30
0.0000
  0
VERTEX
  8
ASSEMBLY_PHO
 10
8.36909
 20
7.67812
 30
0.0000
  0
SEQEND
  0
POLYLINE
  8
ASSEMBLY_PHO
 66
1
 10
0.0000
 20
0.0000
 30
0.0000
 40
0.0200
 41
0.0200
  0
VERTEX
  8
ASSEMBLY_PHO
 10
8.36909
 20
7.67812
 30
0.0000
  0
VERTEX
  8
ASSEMBLY_PHO
 10
8.34181
 20
7.63312
 30
0.0000
  0
SEQEND
  0
POLYLINE
  8
ASSEMBLY_PHO
 66
1
 10
0.0000
 20
0.0000
 30
0.0000
 40
0.0200
 41
0.0200
  0
VERTEX
  8
ASSEMBLY_PHO
 10
8.34181
 20
7.63312
 30
0.0000
  0
VERTEX
  8
ASSEMBLY_PHO
 10
8.35545
 20
7.63312
 30
0.0000
  0
SEQEND
  0
POLYLINE
  8
ASSEMBLY_PHO
 66
1
 10
0.0000
 20
0.0000
 30
0.0000
 40
0.0200
 41
0.0200
  0
VERTEX
  8
ASSEMBLY_PHO
 10
8.35545
 20
7.63312
 30
0.0000
  0
VERTEX
  8
ASSEMBLY_PHO
 10
8.36454
 20
7.6275
 30
0.0000
  0
SEQEND
  0
POLYLINE
  8
ASSEMBLY_PHO
 66
1
 10
0.0000
 20
0.0000
 30
0.0000
 40
0.0200
 41
0.0200
  0
VERTEX
  8
ASSEMBLY_PHO
 10
8.36454
 20
7.6275
 30
0.0000
  0
VERTEX
  8
ASSEMBLY_PHO
 10
8.36909
 20
7.62187
 30
0.0000
  0
SEQEND
  0
POLYLINE
  8
ASSEMBLY_PHO
 66
1
 10
0.0000
 20
0.0000
 30
0.0000
 40
0.0200
 41
0.0200
  0
VERTEX
  8
ASSEMBLY_PHO
 10
8.36909
 20
7.62187
 30
0.0000
  0
VERTEX
  8
ASSEMBLY_PHO
 10
8.37363
 20
7.6050
 30
0.0000
  0
SEQEND
  0
POLYLINE
  8
ASSEMBLY_PHO
 66
1
 10
0.0000
 20
0.0000
 30
0.0000
 40
0.0200
 41
0.0200
  0
VERTEX
  8
ASSEMBLY_PHO
 10
8.37363
 20
7.6050
 30
0.0000
  0
VERTEX
  8
ASSEMBLY_PHO
 10
8.37363
 20
7.59375
 30
0.0000
  0
SEQEND
  0
POLYLINE
  8
ASSEMBLY_PHO
 66
1
 10
0.0000
 20
0.0000
 30
0.0000
 40
0.0200
 41
0.0200
  0
VERTEX
  8
ASSEMBLY_PHO
 10
8.37363
 20
7.59375
 30
0.0000
  0
VERTEX
  8
ASSEMBLY_PHO
 10
8.36909
 20
7.57687
 30
0.0000
  0
SEQEND
  0
POLYLINE
  8
ASSEMBLY_PHO
 66
1
 10
0.0000
 20
0.0000
 30
0.0000
 40
0.0200
 41
0.0200
  0
VERTEX
  8
ASSEMBLY_PHO
 10
8.36909
 20
7.57687
 30
0.0000
  0
VERTEX
  8
ASSEMBLY_PHO
 10
8.3600
 20
7.56562
 30
0.0000
  0
SEQEND
  0
POLYLINE
  8
ASSEMBLY_PHO
 66
1
 10
0.0000
 20
0.0000
 30
0.0000
 40
0.0200
 41
0.0200
  0
VERTEX
  8
ASSEMBLY_PHO
 10
8.3600
 20
7.56562
 30
0.0000
  0
VERTEX
  8
ASSEMBLY_PHO
 10
8.34636
 20
7.5600
 30
0.0000
  0
VERTEX
  8
ASSEMBLY_PHO
 10
8.33272
 20
7.5600
 30
0.0000
  0
SEQEND
  0
POLYLINE
  8
ASSEMBLY_PHO
 66
1
 10
0.0000
 20
0.0000
 30
0.0000
 40
0.0200
 41
0.0200
  0
VERTEX
  8
ASSEMBLY_PHO
 10
8.33272
 20
7.5600
 30
0.0000
  0
VERTEX
  8
ASSEMBLY_PHO
 10
8.31909
 20
7.56562
 30
0.0000
  0
SEQEND
  0
POLYLINE
  8
ASSEMBLY_PHO
 66
1
 10
0.0000
 20
0.0000
 30
0.0000
 40
0.0200
 41
0.0200
  0
VERTEX
  8
ASSEMBLY_PHO
 10
8.31909
 20
7.56562
 30
0.0000
  0
VERTEX
  8
ASSEMBLY_PHO
 10
8.31454
 20
7.57125
 30
0.0000
  0
SEQEND
  0
POLYLINE
  8
ASSEMBLY_PHO
 66
1
 10
0.0000
 20
0.0000
 30
0.0000
 40
0.0200
 41
0.0200
  0
VERTEX
  8
ASSEMBLY_PHO
 10
8.31454
 20
7.57125
 30
0.0000
  0
VERTEX
  8
ASSEMBLY_PHO
 10
8.3100
 20
7.5825
 30
0.0000
  0
SEQEND
  0
POLYLINE
  8
ASSEMBLY_PHO
 66
1
 10
0.0000
 20
0.0000
 30
0.0000
 40
0.0200
 41
0.0200
  0
VERTEX
  8
ASSEMBLY_PHO
 10
8.41454
 20
7.65562
 30
0.0000
  0
VERTEX
  8
ASSEMBLY_PHO
 10
8.42363
 20
7.66125
 30
0.0000
  0
SEQEND
  0
POLYLINE
  8
ASSEMBLY_PHO
 66
1
 10
0.0000
 20
0.0000
 30
0.0000
 40
0.0200
 41
0.0200
  0
VERTEX
  8
ASSEMBLY_PHO
 10
8.42363
 20
7.66125
 30
0.0000
  0
VERTEX
  8
ASSEMBLY_PHO
 10
8.43727
 20
7.67812
 30
0.0000
  0
SEQEND
  0
POLYLINE
  8
ASSEMBLY_PHO
 66
1
 10
0.0000
 20
0.0000
 30
0.0000
 40
0.0200
 41
0.0200
  0
VERTEX
  8
ASSEMBLY_PHO
 10
8.43727
 20
7.67812
 30
0.0000
  0
VERTEX
  8
ASSEMBLY_PHO
 10
8.43727
 20
7.5600
 30
0.0000
  0
SEQEND
  0
POLYLINE
  8
ASSEMBLY_PHO
 66
1
 10
0.0000
 20
0.0000
 30
0.0000
 40
0.0200
 41
0.0200
  0
VERTEX
  8
ASSEMBLY_PHO
 10
8.47818
 20
7.61062
 30
0.0000
  0
VERTEX
  8
ASSEMBLY_PHO
 10
8.5600
 20
7.61062
 30
0.0000
  0
SEQEND
  0
POLYLINE
  8
ASSEMBLY_PHO
 66
1
 10
0.0000
 20
0.0000
 30
0.0000
 40
0.0200
 41
0.0200
  0
VERTEX
  8
ASSEMBLY_PHO
 10
8.62818
 20
7.67812
 30
0.0000
  0
VERTEX
  8
ASSEMBLY_PHO
 10
8.61454
 20
7.6725
 30
0.0000
  0
SEQEND
  0
POLYLINE
  8
ASSEMBLY_PHO
 66
1
 10
0.0000
 20
0.0000
 30
0.0000
 40
0.0200
 41
0.0200
  0
VERTEX
  8
ASSEMBLY_PHO
 10
8.61454
 20
7.6725
 30
0.0000
  0
VERTEX
  8
ASSEMBLY_PHO
 10
8.60545
 20
7.65562
 30
0.0000
  0
SEQEND
  0
POLYLINE
  8
ASSEMBLY_PHO
 66
1
 10
0.0000
 20
0.0000
 30
0.0000
 40
0.0200
 41
0.0200
  0
VERTEX
  8
ASSEMBLY_PHO
 10
8.60545
 20
7.65562
 30
0.0000
  0
VERTEX
  8
ASSEMBLY_PHO
 10
8.6009
 20
7.6275
 30
0.0000
  0
SEQEND
  0
POLYLINE
  8
ASSEMBLY_PHO
 66
1
 10
0.0000
 20
0.0000
 30
0.0000
 40
0.0200
 41
0.0200
  0
VERTEX
  8
ASSEMBLY_PHO
 10
8.6009
 20
7.6275
 30
0.0000
  0
VERTEX
  8
ASSEMBLY_PHO
 10
8.6009
 20
7.61062
 30
0.0000
  0
SEQEND
  0
POLYLINE
  8
ASSEMBLY_PHO
 66
1
 10
0.0000
 20
0.0000
 30
0.0000
 40
0.0200
 41
0.0200
  0
VERTEX
  8
ASSEMBLY_PHO
 10
8.6009
 20
7.61062
 30
0.0000
  0
VERTEX
  8
ASSEMBLY_PHO
 10
8.60545
 20
7.5825
 30
0.0000
  0
VERTEX
  8
ASSEMBLY_PHO
 10
8.61454
 20
7.56562
 30
0.0000
  0
SEQEND
  0
POLYLINE
  8
ASSEMBLY_PHO
 66
1
 10
0.0000
 20
0.0000
 30
0.0000
 40
0.0200
 41
0.0200
  0
VERTEX
  8
ASSEMBLY_PHO
 10
8.61454
 20
7.56562
 30
0.0000
  0
VERTEX
  8
ASSEMBLY_PHO
 10
8.62818
 20
7.5600
 30
0.0000
  0
VERTEX
  8
ASSEMBLY_PHO
 10
8.63727
 20
7.5600
 30
0.0000
  0
VERTEX
  8
ASSEMBLY_PHO
 10
8.6509
 20
7.56562
 30
0.0000
  0
SEQEND
  0
POLYLINE
  8
ASSEMBLY_PHO
 66
1
 10
0.0000
 20
0.0000
 30
0.0000
 40
0.0200
 41
0.0200
  0
VERTEX
  8
ASSEMBLY_PHO
 10
8.6509
 20
7.56562
 30
0.0000
  0
VERTEX
  8
ASSEMBLY_PHO
 10
8.6600
 20
7.5825
 30
0.0000
  0
VERTEX
  8
ASSEMBLY_PHO
 10
8.66454
 20
7.61062
 30
0.0000
  0
SEQEND
  0
POLYLINE
  8
ASSEMBLY_PHO
 66
1
 10
0.0000
 20
0.0000
 30
0.0000
 40
0.0200
 41
0.0200
  0
VERTEX
  8
ASSEMBLY_PHO
 10
8.66454
 20
7.61062
 30
0.0000
  0
VERTEX
  8
ASSEMBLY_PHO
 10
8.66454
 20
7.6275
 30
0.0000
  0
SEQEND
  0
POLYLINE
  8
ASSEMBLY_PHO
 66
1
 10
0.0000
 20
0.0000
 30
0.0000
 40
0.0200
 41
0.0200
  0
VERTEX
  8
ASSEMBLY_PHO
 10
8.66454
 20
7.6275
 30
0.0000
  0
VERTEX
  8
ASSEMBLY_PHO
 10
8.6600
 20
7.65562
 30
0.0000
  0
SEQEND
  0
POLYLINE
  8
ASSEMBLY_PHO
 66
1
 10
0.0000
 20
0.0000
 30
0.0000
 40
0.0200
 41
0.0200
  0
VERTEX
  8
ASSEMBLY_PHO
 10
8.6600
 20
7.65562
 30
0.0000
  0
VERTEX
  8
ASSEMBLY_PHO
 10
8.6509
 20
7.6725
 30
0.0000
  0
SEQEND
  0
POLYLINE
  8
ASSEMBLY_PHO
 66
1
 10
0.0000
 20
0.0000
 30
0.0000
 40
0.0200
 41
0.0200
  0
VERTEX
  8
ASSEMBLY_PHO
 10
8.6509
 20
7.6725
 30
0.0000
  0
VERTEX
  8
ASSEMBLY_PHO
 10
8.63727
 20
7.67812
 30
0.0000
  0
SEQEND
  0
POLYLINE
  8
ASSEMBLY_PHO
 66
1
 10
0.0000
 20
0.0000
 30
0.0000
 40
0.0200
 41
0.0200
  0
VERTEX
  8
ASSEMBLY_PHO
 10
8.63727
 20
7.67812
 30
0.0000
  0
VERTEX
  8
ASSEMBLY_PHO
 10
8.62818
 20
7.67812
 30
0.0000
  0
SEQEND
  0
POLYLINE
  8
ASSEMBLY_PHO
 66
1
 10
0.0000
 20
0.0000
 30
0.0000
 40
0.0200
 41
0.0200
  0
VERTEX
  8
ASSEMBLY_PHO
 10
8.73272
 20
7.67812
 30
0.0000
  0
VERTEX
  8
ASSEMBLY_PHO
 10
8.71909
 20
7.6725
 30
0.0000
  0
VERTEX
  8
ASSEMBLY_PHO
 10
8.7100
 20
7.65562
 30
0.0000
  0
SEQEND
  0
POLYLINE
  8
ASSEMBLY_PHO
 66
1
 10
0.0000
 20
0.0000
 30
0.0000
 40
0.0200
 41
0.0200
  0
VERTEX
  8
ASSEMBLY_PHO
 10
8.7100
 20
7.65562
 30
0.0000
  0
VERTEX
  8
ASSEMBLY_PHO
 10
8.70545
 20
7.6275
 30
0.0000
  0
VERTEX
  8
ASSEMBLY_PHO
 10
8.70545
 20
7.61062
 30
0.0000
  0
SEQEND
  0
POLYLINE
  8
ASSEMBLY_PHO
 66
1
 10
0.0000
 20
0.0000
 30
0.0000
 40
0.0200
 41
0.0200
  0
VERTEX
  8
ASSEMBLY_PHO
 10
8.70545
 20
7.61062
 30
0.0000
  0
VERTEX
  8
ASSEMBLY_PHO
 10
8.7100
 20
7.5825
 30
0.0000
  0
VERTEX
  8
ASSEMBLY_PHO
 10
8.71909
 20
7.56562
 30
0.0000
  0
SEQEND
  0
POLYLINE
  8
ASSEMBLY_PHO
 66
1
 10
0.0000
 20
0.0000
 30
0.0000
 40
0.0200
 41
0.0200
  0
VERTEX
  8
ASSEMBLY_PHO
 10
8.71909
 20
7.56562
 30
0.0000
  0
VERTEX
  8
ASSEMBLY_PHO
 10
8.73272
 20
7.5600
 30
0.0000
  0
SEQEND
  0
POLYLINE
  8
ASSEMBLY_PHO
 66
1
 10
0.0000
 20
0.0000
 30
0.0000
 40
0.0200
 41
0.0200
  0
VERTEX
  8
ASSEMBLY_PHO
 10
8.73272
 20
7.5600
 30
0.0000
  0
VERTEX
  8
ASSEMBLY_PHO
 10
8.74181
 20
7.5600
 30
0.0000
  0
SEQEND
  0
POLYLINE
  8
ASSEMBLY_PHO
 66
1
 10
0.0000
 20
0.0000
 30
0.0000
 40
0.0200
 41
0.0200
  0
VERTEX
  8
ASSEMBLY_PHO
 10
8.74181
 20
7.5600
 30
0.0000
  0
VERTEX
  8
ASSEMBLY_PHO
 10
8.75545
 20
7.56562
 30
0.0000
  0
SEQEND
  0
POLYLINE
  8
ASSEMBLY_PHO
 66
1
 10
0.0000
 20
0.0000
 30
0.0000
 40
0.0200
 41
0.0200
  0
VERTEX
  8
ASSEMBLY_PHO
 10
8.75545
 20
7.56562
 30
0.0000
  0
VERTEX
  8
ASSEMBLY_PHO
 10
8.76454
 20
7.5825
 30
0.0000
  0
SEQEND
  0
POLYLINE
  8
ASSEMBLY_PHO
 66
1
 10
0.0000
 20
0.0000
 30
0.0000
 40
0.0200
 41
0.0200
  0
VERTEX
  8
ASSEMBLY_PHO
 10
8.76454
 20
7.5825
 30
0.0000
  0
VERTEX
  8
ASSEMBLY_PHO
 10
8.76909
 20
7.61062
 30
0.0000
  0
SEQEND
  0
POLYLINE
  8
ASSEMBLY_PHO
 66
1
 10
0.0000
 20
0.0000
 30
0.0000
 40
0.0200
 41
0.0200
  0
VERTEX
  8
ASSEMBLY_PHO
 10
8.76909
 20
7.61062
 30
0.0000
  0
VERTEX
  8
ASSEMBLY_PHO
 10
8.76909
 20
7.6275
 30
0.0000
  0
VERTEX
  8
ASSEMBLY_PHO
 10
8.76454
 20
7.65562
 30
0.0000
  0
SEQEND
  0
POLYLINE
  8
ASSEMBLY_PHO
 66
1
 10
0.0000
 20
0.0000
 30
0.0000
 40
0.0200
 41
0.0200
  0
VERTEX
  8
ASSEMBLY_PHO
 10
8.76454
 20
7.65562
 30
0.0000
  0
VERTEX
  8
ASSEMBLY_PHO
 10
8.75545
 20
7.6725
 30
0.0000
  0
VERTEX
  8
ASSEMBLY_PHO
 10
8.74181
 20
7.67812
 30
0.0000
  0
SEQEND
  0
POLYLINE
  8
ASSEMBLY_PHO
 66
1
 10
0.0000
 20
0.0000
 30
0.0000
 40
0.0200
 41
0.0200
  0
VERTEX
  8
ASSEMBLY_PHO
 10
8.74181
 20
7.67812
 30
0.0000
  0
VERTEX
  8
ASSEMBLY_PHO
 10
8.73272
 20
7.67812
 30
0.0000
  0
SEQEND
  0
POLYLINE
  8
ASSEMBLY_PHO
 66
1
 10
0.0000
 20
0.0000
 30
0.0000
 40
0.0200
 41
0.0200
  0
VERTEX
  8
ASSEMBLY_PHO
 10
8.83727
 20
7.67812
 30
0.0000
  0
VERTEX
  8
ASSEMBLY_PHO
 10
8.82363
 20
7.6725
 30
0.0000
  0
SEQEND
  0
POLYLINE
  8
ASSEMBLY_PHO
 66
1
 10
0.0000
 20
0.0000
 30
0.0000
 40
0.0200
 41
0.0200
  0
VERTEX
  8
ASSEMBLY_PHO
 10
8.82363
 20
7.6725
 30
0.0000
  0
VERTEX
  8
ASSEMBLY_PHO
 10
8.81454
 20
7.65562
 30
0.0000
  0
SEQEND
  0
POLYLINE
  8
ASSEMBLY_PHO
 66
1
 10
0.0000
 20
0.0000
 30
0.0000
 40
0.0200
 41
0.0200
  0
VERTEX
  8
ASSEMBLY_PHO
 10
8.81454
 20
7.65562
 30
0.0000
  0
VERTEX
  8
ASSEMBLY_PHO
 10
8.8100
 20
7.6275
 30
0.0000
  0
VERTEX
  8
ASSEMBLY_PHO
 10
8.8100
 20
7.61062
 30
0.0000
  0
SEQEND
  0
POLYLINE
  8
ASSEMBLY_PHO
 66
1
 10
0.0000
 20
0.0000
 30
0.0000
 40
0.0200
 41
0.0200
  0
VERTEX
  8
ASSEMBLY_PHO
 10
8.8100
 20
7.61062
 30
0.0000
  0
VERTEX
  8
ASSEMBLY_PHO
 10
8.81454
 20
7.5825
 30
0.0000
  0
SEQEND
  0
POLYLINE
  8
ASSEMBLY_PHO
 66
1
 10
0.0000
 20
0.0000
 30
0.0000
 40
0.0200
 41
0.0200
  0
VERTEX
  8
ASSEMBLY_PHO
 10
8.81454
 20
7.5825
 30
0.0000
  0
VERTEX
  8
ASSEMBLY_PHO
 10
8.82363
 20
7.56562
 30
0.0000
  0
SEQEND
  0
POLYLINE
  8
ASSEMBLY_PHO
 66
1
 10
0.0000
 20
0.0000
 30
0.0000
 40
0.0200
 41
0.0200
  0
VERTEX
  8
ASSEMBLY_PHO
 10
8.82363
 20
7.56562
 30
0.0000
  0
VERTEX
  8
ASSEMBLY_PHO
 10
8.83727
 20
7.5600
 30
0.0000
  0
VERTEX
  8
ASSEMBLY_PHO
 10
8.84636
 20
7.5600
 30
0.0000
  0
VERTEX
  8
ASSEMBLY_PHO
 10
8.8600
 20
7.56562
 30
0.0000
  0
SEQEND
  0
POLYLINE
  8
ASSEMBLY_PHO
 66
1
 10
0.0000
 20
0.0000
 30
0.0000
 40
0.0200
 41
0.0200
  0
VERTEX
  8
ASSEMBLY_PHO
 10
8.8600
 20
7.56562
 30
0.0000
  0
VERTEX
  8
ASSEMBLY_PHO
 10
8.86909
 20
7.5825
 30
0.0000
  0
VERTEX
  8
ASSEMBLY_PHO
 10
8.87363
 20
7.61062
 30
0.0000
  0
SEQEND
  0
POLYLINE
  8
ASSEMBLY_PHO
 66
1
 10
0.0000
 20
0.0000
 30
0.0000
 40
0.0200
 41
0.0200
  0
VERTEX
  8
ASSEMBLY_PHO
 10
8.87363
 20
7.61062
 30
0.0000
  0
VERTEX
  8
ASSEMBLY_PHO
 10
8.87363
 20
7.6275
 30
0.0000
  0
SEQEND
  0
POLYLINE
  8
ASSEMBLY_PHO
 66
1
 10
0.0000
 20
0.0000
 30
0.0000
 40
0.0200
 41
0.0200
  0
VERTEX
  8
ASSEMBLY_PHO
 10
8.87363
 20
7.6275
 30
0.0000
  0
VERTEX
  8
ASSEMBLY_PHO
 10
8.86909
 20
7.65562
 30
0.0000
  0
SEQEND
  0
POLYLINE
  8
ASSEMBLY_PHO
 66
1
 10
0.0000
 20
0.0000
 30
0.0000
 40
0.0200
 41
0.0200
  0
VERTEX
  8
ASSEMBLY_PHO
 10
8.86909
 20
7.65562
 30
0.0000
  0
VERTEX
  8
ASSEMBLY_PHO
 10
8.8600
 20
7.6725
 30
0.0000
  0
VERTEX
  8
ASSEMBLY_PHO
 10
8.84636
 20
7.67812
 30
0.0000
  0
SEQEND
  0
POLYLINE
  8
ASSEMBLY_PHO
 66
1
 10
0.0000
 20
0.0000
 30
0.0000
 40
0.0200
 41
0.0200
  0
VERTEX
  8
ASSEMBLY_PHO
 10
8.84636
 20
7.67812
 30
0.0000
  0
VERTEX
  8
ASSEMBLY_PHO
 10
8.83727
 20
7.67812
 30
0.0000
  0
SEQEND
  0
POLYLINE
  8
ASSEMBLY_PHO
 66
1
 10
0.0000
 20
0.0000
 30
0.0000
 40
0.0200
 41
0.0200
  0
VERTEX
  8
ASSEMBLY_PHO
 10
8.91454
 20
7.65562
 30
0.0000
  0
VERTEX
  8
ASSEMBLY_PHO
 10
8.92363
 20
7.66125
 30
0.0000
  0
SEQEND
  0
POLYLINE
  8
ASSEMBLY_PHO
 66
1
 10
0.0000
 20
0.0000
 30
0.0000
 40
0.0200
 41
0.0200
  0
VERTEX
  8
ASSEMBLY_PHO
 10
8.92363
 20
7.66125
 30
0.0000
  0
VERTEX
  8
ASSEMBLY_PHO
 10
8.93727
 20
7.67812
 30
0.0000
  0
SEQEND
  0
POLYLINE
  8
ASSEMBLY_PHO
 66
1
 10
0.0000
 20
0.0000
 30
0.0000
 40
0.0200
 41
0.0200
  0
VERTEX
  8
ASSEMBLY_PHO
 10
8.93727
 20
7.67812
 30
0.0000
  0
VERTEX
  8
ASSEMBLY_PHO
 10
8.93727
 20
7.5600
 30
0.0000
  0
SEQEND
  0
POLYLINE
  8
ASSEMBLY_PHO
 66
1
 10
0.0000
 20
0.0000
 30
0.0000
 40
0.0200
 41
0.0200
  0
VERTEX
  8
ASSEMBLY_PHO
 10
9.08272
 20
7.67812
 30
0.0000
  0
VERTEX
  8
ASSEMBLY_PHO
 10
9.08272
 20
7.5600
 30
0.0000
  0
SEQEND
  0
POLYLINE
  8
ASSEMBLY_PHO
 66
1
 10
0.0000
 20
0.0000
 30
0.0000
 40
0.0200
 41
0.0200
  0
VERTEX
  8
ASSEMBLY_PHO
 10
9.08272
 20
7.67812
 30
0.0000
  0
VERTEX
  8
ASSEMBLY_PHO
 10
9.12363
 20
7.67812
 30
0.0000
  0
SEQEND
  0
POLYLINE
  8
ASSEMBLY_PHO
 66
1
 10
0.0000
 20
0.0000
 30
0.0000
 40
0.0200
 41
0.0200
  0
VERTEX
  8
ASSEMBLY_PHO
 10
9.12363
 20
7.67812
 30
0.0000
  0
VERTEX
  8
ASSEMBLY_PHO
 10
9.13727
 20
7.6725
 30
0.0000
  0
VERTEX
  8
ASSEMBLY_PHO
 10
9.14181
 20
7.66687
 30
0.0000
  0
SEQEND
  0
POLYLINE
  8
ASSEMBLY_PHO
 66
1
 10
0.0000
 20
0.0000
 30
0.0000
 40
0.0200
 41
0.0200
  0
VERTEX
  8
ASSEMBLY_PHO
 10
9.14181
 20
7.66687
 30
0.0000
  0
VERTEX
  8
ASSEMBLY_PHO
 10
9.14636
 20
7.65562
 30
0.0000
  0
SEQEND
  0
POLYLINE
  8
ASSEMBLY_PHO
 66
1
 10
0.0000
 20
0.0000
 30
0.0000
 40
0.0200
 41
0.0200
  0
VERTEX
  8
ASSEMBLY_PHO
 10
9.14636
 20
7.65562
 30
0.0000
  0
VERTEX
  8
ASSEMBLY_PHO
 10
9.14636
 20
7.64437
 30
0.0000
  0
SEQEND
  0
POLYLINE
  8
ASSEMBLY_PHO
 66
1
 10
0.0000
 20
0.0000
 30
0.0000
 40
0.0200
 41
0.0200
  0
VERTEX
  8
ASSEMBLY_PHO
 10
9.14636
 20
7.64437
 30
0.0000
  0
VERTEX
  8
ASSEMBLY_PHO
 10
9.14181
 20
7.63312
 30
0.0000
  0
SEQEND
  0
POLYLINE
  8
ASSEMBLY_PHO
 66
1
 10
0.0000
 20
0.0000
 30
0.0000
 40
0.0200
 41
0.0200
  0
VERTEX
  8
ASSEMBLY_PHO
 10
9.14181
 20
7.63312
 30
0.0000
  0
VERTEX
  8
ASSEMBLY_PHO
 10
9.13727
 20
7.6275
 30
0.0000
  0
VERTEX
  8
ASSEMBLY_PHO
 10
9.12363
 20
7.62187
 30
0.0000
  0
SEQEND
  0
POLYLINE
  8
ASSEMBLY_PHO
 66
1
 10
0.0000
 20
0.0000
 30
0.0000
 40
0.0200
 41
0.0200
  0
VERTEX
  8
ASSEMBLY_PHO
 10
9.12363
 20
7.62187
 30
0.0000
  0
VERTEX
  8
ASSEMBLY_PHO
 10
9.08272
 20
7.62187
 30
0.0000
  0
SEQEND
  0
POLYLINE
  8
ASSEMBLY_PHO
 66
1
 10
0.0000
 20
0.0000
 30
0.0000
 40
0.0200
 41
0.0200
  0
VERTEX
  8
ASSEMBLY_PHO
 10
9.11454
 20
7.62187
 30
0.0000
  0
VERTEX
  8
ASSEMBLY_PHO
 10
9.14636
 20
7.5600
 30
0.0000
  0
SEQEND
  0
POLYLINE
  8
ASSEMBLY_PHO
 66
1
 10
0.0000
 20
0.0000
 30
0.0000
 40
0.0200
 41
0.0200
  0
VERTEX
  8
ASSEMBLY_PHO
 10
9.18727
 20
7.67812
 30
0.0000
  0
VERTEX
  8
ASSEMBLY_PHO
 10
9.18727
 20
7.5600
 30
0.0000
  0
SEQEND
  0
POLYLINE
  8
ASSEMBLY_PHO
 66
1
 10
0.0000
 20
0.0000
 30
0.0000
 40
0.0200
 41
0.0200
  0
VERTEX
  8
ASSEMBLY_PHO
 10
9.18727
 20
7.67812
 30
0.0000
  0
VERTEX
  8
ASSEMBLY_PHO
 10
9.24636
 20
7.67812
 30
0.0000
  0
SEQEND
  0
POLYLINE
  8
ASSEMBLY_PHO
 66
1
 10
0.0000
 20
0.0000
 30
0.0000
 40
0.0200
 41
0.0200
  0
VERTEX
  8
ASSEMBLY_PHO
 10
9.18727
 20
7.62187
 30
0.0000
  0
VERTEX
  8
ASSEMBLY_PHO
 10
9.22363
 20
7.62187
 30
0.0000
  0
SEQEND
  0
POLYLINE
  8
ASSEMBLY_PHO
 66
1
 10
0.0000
 20
0.0000
 30
0.0000
 40
0.0200
 41
0.0200
  0
VERTEX
  8
ASSEMBLY_PHO
 10
9.18727
 20
7.5600
 30
0.0000
  0
VERTEX
  8
ASSEMBLY_PHO
 10
9.24636
 20
7.5600
 30
0.0000
  0
SEQEND
  0
POLYLINE
  8
ASSEMBLY_PHO
 66
1
 10
0.0000
 20
0.0000
 30
0.0000
 40
0.0200
 41
0.0200
  0
VERTEX
  8
ASSEMBLY_PHO
 10
9.28727
 20
7.67812
 30
0.0000
  0
VERTEX
  8
ASSEMBLY_PHO
 10
9.32363
 20
7.5600
 30
0.0000
  0
SEQEND
  0
POLYLINE
  8
ASSEMBLY_PHO
 66
1
 10
0.0000
 20
0.0000
 30
0.0000
 40
0.0200
 41
0.0200
  0
VERTEX
  8
ASSEMBLY_PHO
 10
9.3600
 20
7.67812
 30
0.0000
  0
VERTEX
  8
ASSEMBLY_PHO
 10
9.32363
 20
7.5600
 30
0.0000
  0
SEQEND
  0
POLYLINE
  8
ASSEMBLY_PHO
 66
1
 10
0.0000
 20
0.0000
 30
0.0000
 40
0.0200
 41
0.0200
  0
VERTEX
  8
ASSEMBLY_PHO
 10
9.50545
 20
7.65562
 30
0.0000
  0
VERTEX
  8
ASSEMBLY_PHO
 10
9.51454
 20
7.66125
 30
0.0000
  0
SEQEND
  0
POLYLINE
  8
ASSEMBLY_PHO
 66
1
 10
0.0000
 20
0.0000
 30
0.0000
 40
0.0200
 41
0.0200
  0
VERTEX
  8
ASSEMBLY_PHO
 10
9.51454
 20
7.66125
 30
0.0000
  0
VERTEX
  8
ASSEMBLY_PHO
 10
9.52818
 20
7.67812
 30
0.0000
  0
SEQEND
  0
POLYLINE
  8
ASSEMBLY_PHO
 66
1
 10
0.0000
 20
0.0000
 30
0.0000
 40
0.0200
 41
0.0200
  0
VERTEX
  8
ASSEMBLY_PHO
 10
9.52818
 20
7.67812
 30
0.0000
  0
VERTEX
  8
ASSEMBLY_PHO
 10
9.52818
 20
7.5600
 30
0.0000
  0
SEQEND
  0
POLYLINE
  8
ASSEMBLY_PHO
 66
1
 10
0.0000
 20
0.0000
 30
0.0000
 40
0.0080
 41
0.0080
  0
VERTEX
  8
ASSEMBLY_PHO
 10
8.03598
 20
9.71598
 30
0.0000
  0
VERTEX
  8
ASSEMBLY_PHO
 10
8.03598
 20
9.96401
 30
0.0000
  0
SEQEND
  0
POLYLINE
  8
ASSEMBLY_PHO
 66
1
 10
0.0000
 20
0.0000
 30
0.0000
 40
0.0080
 41
0.0080
  0
VERTEX
  8
ASSEMBLY_PHO
 10
8.03598
 20
9.96401
 30
0.0000
  0
VERTEX
  8
ASSEMBLY_PHO
 10
8.28401
 20
9.96401
 30
0.0000
  0
SEQEND
  0
POLYLINE
  8
ASSEMBLY_PHO
 66
1
 10
0.0000
 20
0.0000
 30
0.0000
 40
0.0080
 41
0.0080
  0
VERTEX
  8
ASSEMBLY_PHO
 10
8.28401
 20
9.96401
 30
0.0000
  0
VERTEX
  8
ASSEMBLY_PHO
 10
8.28401
 20
9.71598
 30
0.0000
  0
SEQEND
  0
POLYLINE
  8
ASSEMBLY_PHO
 66
1
 10
0.0000
 20
0.0000
 30
0.0000
 40
0.0080
 41
0.0080
  0
VERTEX
  8
ASSEMBLY_PHO
 10
8.28401
 20
9.71598
 30
0.0000
  0
VERTEX
  8
ASSEMBLY_PHO
 10
8.03598
 20
9.71598
 30
0.0000
  0
SEQEND
  0
POLYLINE
  8
ASSEMBLY_PHO
 66
1
 10
0.0000
 20
0.0000
 30
0.0000
 40
0.0080
 41
0.0080
  0
VERTEX
  8
ASSEMBLY_PHO
 10
8.0850
 20
9.9650
 30
0.0000
  0
VERTEX
  8
ASSEMBLY_PHO
 10
8.0850
 20
10.27503
 30
0.0000
  0
SEQEND
  0
POLYLINE
  8
ASSEMBLY_PHO
 66
1
 10
0.0000
 20
0.0000
 30
0.0000
 40
0.0080
 41
0.0080
  0
VERTEX
  8
ASSEMBLY_PHO
 10
8.0850
 20
10.27503
 30
0.0000
  0
VERTEX
  8
ASSEMBLY_PHO
 10
8.2350
 20
10.27503
 30
0.0000
  0
SEQEND
  0
POLYLINE
  8
ASSEMBLY_PHO
 66
1
 10
0.0000
 20
0.0000
 30
0.0000
 40
0.0080
 41
0.0080
  0
VERTEX
  8
ASSEMBLY_PHO
 10
8.2350
 20
10.27503
 30
0.0000
  0
VERTEX
  8
ASSEMBLY_PHO
 10
8.2350
 20
9.96401
 30
0.0000
  0
SEQEND
  0
POLYLINE
  8
ASSEMBLY_PHO
 66
1
 10
0.0000
 20
0.0000
 30
0.0000
 40
0.0080
 41
0.0080
  0
VERTEX
  8
ASSEMBLY_PHO
 10
8.71598
 20
9.71598
 30
0.0000
  0
VERTEX
  8
ASSEMBLY_PHO
 10
8.71598
 20
9.96401
 30
0.0000
  0
SEQEND
  0
POLYLINE
  8
ASSEMBLY_PHO
 66
1
 10
0.0000
 20
0.0000
 30
0.0000
 40
0.0080
 41
0.0080
  0
VERTEX
  8
ASSEMBLY_PHO
 10
8.71598
 20
9.96401
 30
0.0000
  0
VERTEX
  8
ASSEMBLY_PHO
 10
8.96401
 20
9.96401
 30
0.0000
  0
SEQEND
  0
POLYLINE
  8
ASSEMBLY_PHO
 66
1
 10
0.0000
 20
0.0000
 30
0.0000
 40
0.0080
 41
0.0080
  0
VERTEX
  8
ASSEMBLY_PHO
 10
8.96401
 20
9.96401
 30
0.0000
  0
VERTEX
  8
ASSEMBLY_PHO
 10
8.96401
 20
9.71598
 30
0.0000
  0
SEQEND
  0
POLYLINE
  8
ASSEMBLY_PHO
 66
1
 10
0.0000
 20
0.0000
 30
0.0000
 40
0.0080
 41
0.0080
  0
VERTEX
  8
ASSEMBLY_PHO
 10
8.96401
 20
9.71598
 30
0.0000
  0
VERTEX
  8
ASSEMBLY_PHO
 10
8.71598
 20
9.71598
 30
0.0000
  0
SEQEND
  0
POLYLINE
  8
ASSEMBLY_PHO
 66
1
 10
0.0000
 20
0.0000
 30
0.0000
 40
0.0080
 41
0.0080
  0
VERTEX
  8
ASSEMBLY_PHO
 10
8.7650
 20
9.9650
 30
0.0000
  0
VERTEX
  8
ASSEMBLY_PHO
 10
8.7650
 20
10.27503
 30
0.0000
  0
SEQEND
  0
POLYLINE
  8
ASSEMBLY_PHO
 66
1
 10
0.0000
 20
0.0000
 30
0.0000
 40
0.0080
 41
0.0080
  0
VERTEX
  8
ASSEMBLY_PHO
 10
8.7650
 20
10.27503
 30
0.0000
  0
VERTEX
  8
ASSEMBLY_PHO
 10
8.9150
 20
10.27503
 30
0.0000
  0
SEQEND
  0
POLYLINE
  8
ASSEMBLY_PHO
 66
1
 10
0.0000
 20
0.0000
 30
0.0000
 40
0.0080
 41
0.0080
  0
VERTEX
  8
ASSEMBLY_PHO
 10
8.9150
 20
10.27503
 30
0.0000
  0
VERTEX
  8
ASSEMBLY_PHO
 10
8.9150
 20
9.96401
 30
0.0000
  0
SEQEND
  0
POLYLINE
  8
ASSEMBLY_PHO
 66
1
 10
0.0000
 20
0.0000
 30
0.0000
 40
0.0080
 41
0.0080
  0
VERTEX
  8
ASSEMBLY_PHO
 10
8.3990
 20
8.10125
 30
0.0000
  0
VERTEX
  8
ASSEMBLY_PHO
 10
8.3990
 20
8.0540
 30
0.0000
  0
SEQEND
  0
POLYLINE
  8
ASSEMBLY_PHO
 66
1
 10
0.0000
 20
0.0000
 30
0.0000
 40
0.0080
 41
0.0080
  0
VERTEX
  8
ASSEMBLY_PHO
 10
8.3990
 20
8.10125
 30
0.0000
  0
VERTEX
  8
ASSEMBLY_PHO
 10
8.41536
 20
8.10125
 30
0.0000
  0
VERTEX
  8
ASSEMBLY_PHO
 10
8.42081
 20
8.0990
 30
0.0000
  0
SEQEND
  0
POLYLINE
  8
ASSEMBLY_PHO
 66
1
 10
0.0000
 20
0.0000
 30
0.0000
 40
0.0080
 41
0.0080
  0
VERTEX
  8
ASSEMBLY_PHO
 10
8.42081
 20
8.0990
 30
0.0000
  0
VERTEX
  8
ASSEMBLY_PHO
 10
8.42263
 20
8.09675
 30
0.0000
  0
SEQEND
  0
POLYLINE
  8
ASSEMBLY_PHO
 66
1
 10
0.0000
 20
0.0000
 30
0.0000
 40
0.0080
 41
0.0080
  0
VERTEX
  8
ASSEMBLY_PHO
 10
8.42263
 20
8.09675
 30
0.0000
  0
VERTEX
  8
ASSEMBLY_PHO
 10
8.42445
 20
8.09225
 30
0.0000
  0
VERTEX
  8
ASSEMBLY_PHO
 10
8.42445
 20
8.0855
 30
0.0000
  0
VERTEX
  8
ASSEMBLY_PHO
 10
8.42263
 20
8.0810
 30
0.0000
  0
SEQEND
  0
POLYLINE
  8
ASSEMBLY_PHO
 66
1
 10
0.0000
 20
0.0000
 30
0.0000
 40
0.0080
 41
0.0080
  0
VERTEX
  8
ASSEMBLY_PHO
 10
8.42263
 20
8.0810
 30
0.0000
  0
VERTEX
  8
ASSEMBLY_PHO
 10
8.42081
 20
8.07875
 30
0.0000
  0
SEQEND
  0
POLYLINE
  8
ASSEMBLY_PHO
 66
1
 10
0.0000
 20
0.0000
 30
0.0000
 40
0.0080
 41
0.0080
  0
VERTEX
  8
ASSEMBLY_PHO
 10
8.42081
 20
8.07875
 30
0.0000
  0
VERTEX
  8
ASSEMBLY_PHO
 10
8.41536
 20
8.0765
 30
0.0000
  0
VERTEX
  8
ASSEMBLY_PHO
 10
8.3990
 20
8.0765
 30
0.0000
  0
SEQEND
  0
POLYLINE
  8
ASSEMBLY_PHO
 66
1
 10
0.0000
 20
0.0000
 30
0.0000
 40
0.0080
 41
0.0080
  0
VERTEX
  8
ASSEMBLY_PHO
 10
8.44081
 20
8.09225
 30
0.0000
  0
VERTEX
  8
ASSEMBLY_PHO
 10
8.44445
 20
8.0945
 30
0.0000
  0
VERTEX
  8
ASSEMBLY_PHO
 10
8.4499
 20
8.10125
 30
0.0000
  0
SEQEND
  0
POLYLINE
  8
ASSEMBLY_PHO
 66
1
 10
0.0000
 20
0.0000
 30
0.0000
 40
0.0080
 41
0.0080
  0
VERTEX
  8
ASSEMBLY_PHO
 10
8.4499
 20
8.10125
 30
0.0000
  0
VERTEX
  8
ASSEMBLY_PHO
 10
8.4499
 20
8.0540
 30
0.0000
  0
SEQEND
  0
POLYLINE
  8
ASSEMBLY_PHO
 66
1
 10
0.0000
 20
0.0000
 30
0.0000
 40
0.0080
 41
0.0080
  0
VERTEX
  8
ASSEMBLY_PHO
 10
8.3930
 20
8.96225
 30
0.0000
  0
VERTEX
  8
ASSEMBLY_PHO
 10
8.3930
 20
8.9150
 30
0.0000
  0
SEQEND
  0
POLYLINE
  8
ASSEMBLY_PHO
 66
1
 10
0.0000
 20
0.0000
 30
0.0000
 40
0.0080
 41
0.0080
  0
VERTEX
  8
ASSEMBLY_PHO
 10
8.3930
 20
8.96225
 30
0.0000
  0
VERTEX
  8
ASSEMBLY_PHO
 10
8.40936
 20
8.96225
 30
0.0000
  0
VERTEX
  8
ASSEMBLY_PHO
 10
8.41481
 20
8.9600
 30
0.0000
  0
SEQEND
  0
POLYLINE
  8
ASSEMBLY_PHO
 66
1
 10
0.0000
 20
0.0000
 30
0.0000
 40
0.0080
 41
0.0080
  0
VERTEX
  8
ASSEMBLY_PHO
 10
8.41481
 20
8.9600
 30
0.0000
  0
VERTEX
  8
ASSEMBLY_PHO
 10
8.41663
 20
8.95775
 30
0.0000
  0
SEQEND
  0
POLYLINE
  8
ASSEMBLY_PHO
 66
1
 10
0.0000
 20
0.0000
 30
0.0000
 40
0.0080
 41
0.0080
  0
VERTEX
  8
ASSEMBLY_PHO
 10
8.41663
 20
8.95775
 30
0.0000
  0
VERTEX
  8
ASSEMBLY_PHO
 10
8.41845
 20
8.95325
 30
0.0000
  0
VERTEX
  8
ASSEMBLY_PHO
 10
8.41845
 20
8.9465
 30
0.0000
  0
VERTEX
  8
ASSEMBLY_PHO
 10
8.41663
 20
8.9420
 30
0.0000
  0
SEQEND
  0
POLYLINE
  8
ASSEMBLY_PHO
 66
1
 10
0.0000
 20
0.0000
 30
0.0000
 40
0.0080
 41
0.0080
  0
VERTEX
  8
ASSEMBLY_PHO
 10
8.41663
 20
8.9420
 30
0.0000
  0
VERTEX
  8
ASSEMBLY_PHO
 10
8.41481
 20
8.93975
 30
0.0000
  0
SEQEND
  0
POLYLINE
  8
ASSEMBLY_PHO
 66
1
 10
0.0000
 20
0.0000
 30
0.0000
 40
0.0080
 41
0.0080
  0
VERTEX
  8
ASSEMBLY_PHO
 10
8.41481
 20
8.93975
 30
0.0000
  0
VERTEX
  8
ASSEMBLY_PHO
 10
8.40936
 20
8.9375
 30
0.0000
  0
VERTEX
  8
ASSEMBLY_PHO
 10
8.3930
 20
8.9375
 30
0.0000
  0
SEQEND
  0
POLYLINE
  8
ASSEMBLY_PHO
 66
1
 10
0.0000
 20
0.0000
 30
0.0000
 40
0.0080
 41
0.0080
  0
VERTEX
  8
ASSEMBLY_PHO
 10
8.43663
 20
8.9510
 30
0.0000
  0
VERTEX
  8
ASSEMBLY_PHO
 10
8.43663
 20
8.95325
 30
0.0000
  0
SEQEND
  0
POLYLINE
  8
ASSEMBLY_PHO
 66
1
 10
0.0000
 20
0.0000
 30
0.0000
 40
0.0080
 41
0.0080
  0
VERTEX
  8
ASSEMBLY_PHO
 10
8.43663
 20
8.95325
 30
0.0000
  0
VERTEX
  8
ASSEMBLY_PHO
 10
8.43845
 20
8.95775
 30
0.0000
  0
VERTEX
  8
ASSEMBLY_PHO
 10
8.44027
 20
8.9600
 30
0.0000
  0
VERTEX
  8
ASSEMBLY_PHO
 10
8.4439
 20
8.96225
 30
0.0000
  0
SEQEND
  0
POLYLINE
  8
ASSEMBLY_PHO
 66
1
 10
0.0000
 20
0.0000
 30
0.0000
 40
0.0080
 41
0.0080
  0
VERTEX
  8
ASSEMBLY_PHO
 10
8.4439
 20
8.96225
 30
0.0000
  0
VERTEX
  8
ASSEMBLY_PHO
 10
8.45118
 20
8.96225
 30
0.0000
  0
VERTEX
  8
ASSEMBLY_PHO
 10
8.45481
 20
8.9600
 30
0.0000
  0
SEQEND
  0
POLYLINE
  8
ASSEMBLY_PHO
 66
1
 10
0.0000
 20
0.0000
 30
0.0000
 40
0.0080
 41
0.0080
  0
VERTEX
  8
ASSEMBLY_PHO
 10
8.45481
 20
8.9600
 30
0.0000
  0
VERTEX
  8
ASSEMBLY_PHO
 10
8.45663
 20
8.95775
 30
0.0000
  0
SEQEND
  0
POLYLINE
  8
ASSEMBLY_PHO
 66
1
 10
0.0000
 20
0.0000
 30
0.0000
 40
0.0080
 41
0.0080
  0
VERTEX
  8
ASSEMBLY_PHO
 10
8.45663
 20
8.95775
 30
0.0000
  0
VERTEX
  8
ASSEMBLY_PHO
 10
8.45845
 20
8.95325
 30
0.0000
  0
VERTEX
  8
ASSEMBLY_PHO
 10
8.45845
 20
8.94875
 30
0.0000
  0
VERTEX
  8
ASSEMBLY_PHO
 10
8.45663
 20
8.94425
 30
0.0000
  0
SEQEND
  0
POLYLINE
  8
ASSEMBLY_PHO
 66
1
 10
0.0000
 20
0.0000
 30
0.0000
 40
0.0080
 41
0.0080
  0
VERTEX
  8
ASSEMBLY_PHO
 10
8.45663
 20
8.94425
 30
0.0000
  0
VERTEX
  8
ASSEMBLY_PHO
 10
8.4530
 20
8.9375
 30
0.0000
  0
VERTEX
  8
ASSEMBLY_PHO
 10
8.43481
 20
8.9150
 30
0.0000
  0
SEQEND
  0
POLYLINE
  8
ASSEMBLY_PHO
 66
1
 10
0.0000
 20
0.0000
 30
0.0000
 40
0.0080
 41
0.0080
  0
VERTEX
  8
ASSEMBLY_PHO
 10
8.43481
 20
8.9150
 30
0.0000
  0
VERTEX
  8
ASSEMBLY_PHO
 10
8.46027
 20
8.9150
 30
0.0000
  0
SEQEND
  0
POLYLINE
  8
ASSEMBLY_PHO
 66
1
 10
0.0000
 20
0.0000
 30
0.0000
 40
0.0080
 41
0.0080
  0
VERTEX
  8
ASSEMBLY_PHO
 10
8.5440
 20
8.09625
 30
0.0000
  0
VERTEX
  8
ASSEMBLY_PHO
 10
8.5440
 20
8.0490
 30
0.0000
  0
SEQEND
  0
POLYLINE
  8
ASSEMBLY_PHO
 66
1
 10
0.0000
 20
0.0000
 30
0.0000
 40
0.0080
 41
0.0080
  0
VERTEX
  8
ASSEMBLY_PHO
 10
8.5440
 20
8.09625
 30
0.0000
  0
VERTEX
  8
ASSEMBLY_PHO
 10
8.56036
 20
8.09625
 30
0.0000
  0
VERTEX
  8
ASSEMBLY_PHO
 10
8.56581
 20
8.0940
 30
0.0000
  0
SEQEND
  0
POLYLINE
  8
ASSEMBLY_PHO
 66
1
 10
0.0000
 20
0.0000
 30
0.0000
 40
0.0080
 41
0.0080
  0
VERTEX
  8
ASSEMBLY_PHO
 10
8.56581
 20
8.0940
 30
0.0000
  0
VERTEX
  8
ASSEMBLY_PHO
 10
8.56763
 20
8.09175
 30
0.0000
  0
SEQEND
  0
POLYLINE
  8
ASSEMBLY_PHO
 66
1
 10
0.0000
 20
0.0000
 30
0.0000
 40
0.0080
 41
0.0080
  0
VERTEX
  8
ASSEMBLY_PHO
 10
8.56763
 20
8.09175
 30
0.0000
  0
VERTEX
  8
ASSEMBLY_PHO
 10
8.56945
 20
8.08725
 30
0.0000
  0
VERTEX
  8
ASSEMBLY_PHO
 10
8.56945
 20
8.0805
 30
0.0000
  0
VERTEX
  8
ASSEMBLY_PHO
 10
8.56763
 20
8.0760
 30
0.0000
  0
SEQEND
  0
POLYLINE
  8
ASSEMBLY_PHO
 66
1
 10
0.0000
 20
0.0000
 30
0.0000
 40
0.0080
 41
0.0080
  0
VERTEX
  8
ASSEMBLY_PHO
 10
8.56763
 20
8.0760
 30
0.0000
  0
VERTEX
  8
ASSEMBLY_PHO
 10
8.56581
 20
8.07375
 30
0.0000
  0
SEQEND
  0
POLYLINE
  8
ASSEMBLY_PHO
 66
1
 10
0.0000
 20
0.0000
 30
0.0000
 40
0.0080
 41
0.0080
  0
VERTEX
  8
ASSEMBLY_PHO
 10
8.56581
 20
8.07375
 30
0.0000
  0
VERTEX
  8
ASSEMBLY_PHO
 10
8.56036
 20
8.0715
 30
0.0000
  0
VERTEX
  8
ASSEMBLY_PHO
 10
8.5440
 20
8.0715
 30
0.0000
  0
SEQEND
  0
POLYLINE
  8
ASSEMBLY_PHO
 66
1
 10
0.0000
 20
0.0000
 30
0.0000
 40
0.0080
 41
0.0080
  0
VERTEX
  8
ASSEMBLY_PHO
 10
8.58945
 20
8.09625
 30
0.0000
  0
VERTEX
  8
ASSEMBLY_PHO
 10
8.60945
 20
8.09625
 30
0.0000
  0
VERTEX
  8
ASSEMBLY_PHO
 10
8.59854
 20
8.07825
 30
0.0000
  0
SEQEND
  0
POLYLINE
  8
ASSEMBLY_PHO
 66
1
 10
0.0000
 20
0.0000
 30
0.0000
 40
0.0080
 41
0.0080
  0
VERTEX
  8
ASSEMBLY_PHO
 10
8.59854
 20
8.07825
 30
0.0000
  0
VERTEX
  8
ASSEMBLY_PHO
 10
8.6040
 20
8.07825
 30
0.0000
  0
VERTEX
  8
ASSEMBLY_PHO
 10
8.60763
 20
8.0760
 30
0.0000
  0
SEQEND
  0
POLYLINE
  8
ASSEMBLY_PHO
 66
1
 10
0.0000
 20
0.0000
 30
0.0000
 40
0.0080
 41
0.0080
  0
VERTEX
  8
ASSEMBLY_PHO
 10
8.60763
 20
8.0760
 30
0.0000
  0
VERTEX
  8
ASSEMBLY_PHO
 10
8.60945
 20
8.07375
 30
0.0000
  0
VERTEX
  8
ASSEMBLY_PHO
 10
8.61127
 20
8.0670
 30
0.0000
  0
VERTEX
  8
ASSEMBLY_PHO
 10
8.61127
 20
8.0625
 30
0.0000
  0
VERTEX
  8
ASSEMBLY_PHO
 10
8.60945
 20
8.05575
 30
0.0000
  0
VERTEX
  8
ASSEMBLY_PHO
 10
8.60581
 20
8.05125
 30
0.0000
  0
SEQEND
  0
POLYLINE
  8
ASSEMBLY_PHO
 66
1
 10
0.0000
 20
0.0000
 30
0.0000
 40
0.0080
 41
0.0080
  0
VERTEX
  8
ASSEMBLY_PHO
 10
8.60581
 20
8.05125
 30
0.0000
  0
VERTEX
  8
ASSEMBLY_PHO
 10
8.60036
 20
8.0490
 30
0.0000
  0
VERTEX
  8
ASSEMBLY_PHO
 10
8.5949
 20
8.0490
 30
0.0000
  0
SEQEND
  0
POLYLINE
  8
ASSEMBLY_PHO
 66
1
 10
0.0000
 20
0.0000
 30
0.0000
 40
0.0080
 41
0.0080
  0
VERTEX
  8
ASSEMBLY_PHO
 10
8.5949
 20
8.0490
 30
0.0000
  0
VERTEX
  8
ASSEMBLY_PHO
 10
8.58945
 20
8.05125
 30
0.0000
  0
VERTEX
  8
ASSEMBLY_PHO
 10
8.58763
 20
8.0535
 30
0.0000
  0
SEQEND
  0
POLYLINE
  8
ASSEMBLY_PHO
 66
1
 10
0.0000
 20
0.0000
 30
0.0000
 40
0.0080
 41
0.0080
  0
VERTEX
  8
ASSEMBLY_PHO
 10
8.58763
 20
8.0535
 30
0.0000
  0
VERTEX
  8
ASSEMBLY_PHO
 10
8.58581
 20
8.0580
 30
0.0000
  0
SEQEND
  0
POLYLINE
  8
ASSEMBLY_PHO
 66
1
 10
0.0000
 20
0.0000
 30
0.0000
 40
0.0080
 41
0.0080
  0
VERTEX
  8
ASSEMBLY_PHO
 10
8.5570
 20
8.96225
 30
0.0000
  0
VERTEX
  8
ASSEMBLY_PHO
 10
8.5570
 20
8.9150
 30
0.0000
  0
SEQEND
  0
POLYLINE
  8
ASSEMBLY_PHO
 66
1
 10
0.0000
 20
0.0000
 30
0.0000
 40
0.0080
 41
0.0080
  0
VERTEX
  8
ASSEMBLY_PHO
 10
8.5570
 20
8.96225
 30
0.0000
  0
VERTEX
  8
ASSEMBLY_PHO
 10
8.57336
 20
8.96225
 30
0.0000
  0
VERTEX
  8
ASSEMBLY_PHO
 10
8.57881
 20
8.9600
 30
0.0000
  0
SEQEND
  0
POLYLINE
  8
ASSEMBLY_PHO
 66
1
 10
0.0000
 20
0.0000
 30
0.0000
 40
0.0080
 41
0.0080
  0
VERTEX
  8
ASSEMBLY_PHO
 10
8.57881
 20
8.9600
 30
0.0000
  0
VERTEX
  8
ASSEMBLY_PHO
 10
8.58063
 20
8.95775
 30
0.0000
  0
SEQEND
  0
POLYLINE
  8
ASSEMBLY_PHO
 66
1
 10
0.0000
 20
0.0000
 30
0.0000
 40
0.0080
 41
0.0080
  0
VERTEX
  8
ASSEMBLY_PHO
 10
8.58063
 20
8.95775
 30
0.0000
  0
VERTEX
  8
ASSEMBLY_PHO
 10
8.58245
 20
8.95325
 30
0.0000
  0
VERTEX
  8
ASSEMBLY_PHO
 10
8.58245
 20
8.9465
 30
0.0000
  0
VERTEX
  8
ASSEMBLY_PHO
 10
8.58063
 20
8.9420
 30
0.0000
  0
SEQEND
  0
POLYLINE
  8
ASSEMBLY_PHO
 66
1
 10
0.0000
 20
0.0000
 30
0.0000
 40
0.0080
 41
0.0080
  0
VERTEX
  8
ASSEMBLY_PHO
 10
8.58063
 20
8.9420
 30
0.0000
  0
VERTEX
  8
ASSEMBLY_PHO
 10
8.57881
 20
8.93975
 30
0.0000
  0
SEQEND
  0
POLYLINE
  8
ASSEMBLY_PHO
 66
1
 10
0.0000
 20
0.0000
 30
0.0000
 40
0.0080
 41
0.0080
  0
VERTEX
  8
ASSEMBLY_PHO
 10
8.57881
 20
8.93975
 30
0.0000
  0
VERTEX
  8
ASSEMBLY_PHO
 10
8.57336
 20
8.9375
 30
0.0000
  0
VERTEX
  8
ASSEMBLY_PHO
 10
8.5570
 20
8.9375
 30
0.0000
  0
SEQEND
  0
POLYLINE
  8
ASSEMBLY_PHO
 66
1
 10
0.0000
 20
0.0000
 30
0.0000
 40
0.0080
 41
0.0080
  0
VERTEX
  8
ASSEMBLY_PHO
 10
8.6170
 20
8.96225
 30
0.0000
  0
VERTEX
  8
ASSEMBLY_PHO
 10
8.59881
 20
8.93075
 30
0.0000
  0
SEQEND
  0
POLYLINE
  8
ASSEMBLY_PHO
 66
1
 10
0.0000
 20
0.0000
 30
0.0000
 40
0.0080
 41
0.0080
  0
VERTEX
  8
ASSEMBLY_PHO
 10
8.59881
 20
8.93075
 30
0.0000
  0
VERTEX
  8
ASSEMBLY_PHO
 10
8.62609
 20
8.93075
 30
0.0000
  0
SEQEND
  0
POLYLINE
  8
ASSEMBLY_PHO
 66
1
 10
0.0000
 20
0.0000
 30
0.0000
 40
0.0080
 41
0.0080
  0
VERTEX
  8
ASSEMBLY_PHO
 10
8.6170
 20
8.96225
 30
0.0000
  0
VERTEX
  8
ASSEMBLY_PHO
 10
8.6170
 20
8.9150
 30
0.0000
  0
SEQEND
  0
POLYLINE
  8
ASSEMBLY_PHO
 66
1
 10
0.0000
 20
0.0000
 30
0.0000
 40
0.0080
 41
0.0080
  0
VERTEX
  8
ASSEMBLY_PHO
 10
8.36172
 20
9.87437
 30
0.0000
  0
VERTEX
  8
ASSEMBLY_PHO
 10
8.36172
 20
9.82837
 30
0.0000
  0
SEQEND
  0
POLYLINE
  8
ASSEMBLY_PHO
 66
1
 10
0.0000
 20
0.0000
 30
0.0000
 40
0.0080
 41
0.0080
  0
VERTEX
  8
ASSEMBLY_PHO
 10
8.36172
 20
9.82837
 30
0.0000
  0
VERTEX
  8
ASSEMBLY_PHO
 10
8.35945
 20
9.81975
 30
0.0000
  0
VERTEX
  8
ASSEMBLY_PHO
 10
8.35718
 20
9.81687
 30
0.0000
  0
SEQEND
  0
POLYLINE
  8
ASSEMBLY_PHO
 66
1
 10
0.0000
 20
0.0000
 30
0.0000
 40
0.0080
 41
0.0080
  0
VERTEX
  8
ASSEMBLY_PHO
 10
8.35718
 20
9.81687
 30
0.0000
  0
VERTEX
  8
ASSEMBLY_PHO
 10
8.35263
 20
9.8140
 30
0.0000
  0
SEQEND
  0
POLYLINE
  8
ASSEMBLY_PHO
 66
1
 10
0.0000
 20
0.0000
 30
0.0000
 40
0.0080
 41
0.0080
  0
VERTEX
  8
ASSEMBLY_PHO
 10
8.35263
 20
9.8140
 30
0.0000
  0
VERTEX
  8
ASSEMBLY_PHO
 10
8.34809
 20
9.8140
 30
0.0000
  0
VERTEX
  8
ASSEMBLY_PHO
 10
8.34354
 20
9.81687
 30
0.0000
  0
SEQEND
  0
POLYLINE
  8
ASSEMBLY_PHO
 66
1
 10
0.0000
 20
0.0000
 30
0.0000
 40
0.0080
 41
0.0080
  0
VERTEX
  8
ASSEMBLY_PHO
 10
8.34354
 20
9.81687
 30
0.0000
  0
VERTEX
  8
ASSEMBLY_PHO
 10
8.34127
 20
9.81975
 30
0.0000
  0
VERTEX
  8
ASSEMBLY_PHO
 10
8.3390
 20
9.82837
 30
0.0000
  0
SEQEND
  0
POLYLINE
  8
ASSEMBLY_PHO
 66
1
 10
0.0000
 20
0.0000
 30
0.0000
 40
0.0080
 41
0.0080
  0
VERTEX
  8
ASSEMBLY_PHO
 10
8.3390
 20
9.82837
 30
0.0000
  0
VERTEX
  8
ASSEMBLY_PHO
 10
8.3390
 20
9.83412
 30
0.0000
  0
SEQEND
  0
POLYLINE
  8
ASSEMBLY_PHO
 66
1
 10
0.0000
 20
0.0000
 30
0.0000
 40
0.0080
 41
0.0080
  0
VERTEX
  8
ASSEMBLY_PHO
 10
8.38218
 20
9.86287
 30
0.0000
  0
VERTEX
  8
ASSEMBLY_PHO
 10
8.38672
 20
9.86575
 30
0.0000
  0
SEQEND
  0
POLYLINE
  8
ASSEMBLY_PHO
 66
1
 10
0.0000
 20
0.0000
 30
0.0000
 40
0.0080
 41
0.0080
  0
VERTEX
  8
ASSEMBLY_PHO
 10
8.38672
 20
9.86575
 30
0.0000
  0
VERTEX
  8
ASSEMBLY_PHO
 10
8.39354
 20
9.87437
 30
0.0000
  0
SEQEND
  0
POLYLINE
  8
ASSEMBLY_PHO
 66
1
 10
0.0000
 20
0.0000
 30
0.0000
 40
0.0080
 41
0.0080
  0
VERTEX
  8
ASSEMBLY_PHO
 10
8.39354
 20
9.87437
 30
0.0000
  0
VERTEX
  8
ASSEMBLY_PHO
 10
8.39354
 20
9.8140
 30
0.0000
  0
SEQEND
  0
POLYLINE
  8
ASSEMBLY_PHO
 66
1
 10
0.0000
 20
0.0000
 30
0.0000
 40
0.0080
 41
0.0080
  0
VERTEX
  8
ASSEMBLY_PHO
 10
8.61672
 20
9.87437
 30
0.0000
  0
VERTEX
  8
ASSEMBLY_PHO
 10
8.61672
 20
9.82837
 30
0.0000
  0
SEQEND
  0
POLYLINE
  8
ASSEMBLY_PHO
 66
1
 10
0.0000
 20
0.0000
 30
0.0000
 40
0.0080
 41
0.0080
  0
VERTEX
  8
ASSEMBLY_PHO
 10
8.61672
 20
9.82837
 30
0.0000
  0
VERTEX
  8
ASSEMBLY_PHO
 10
8.61445
 20
9.81975
 30
0.0000
  0
VERTEX
  8
ASSEMBLY_PHO
 10
8.61218
 20
9.81687
 30
0.0000
  0
SEQEND
  0
POLYLINE
  8
ASSEMBLY_PHO
 66
1
 10
0.0000
 20
0.0000
 30
0.0000
 40
0.0080
 41
0.0080
  0
VERTEX
  8
ASSEMBLY_PHO
 10
8.61218
 20
9.81687
 30
0.0000
  0
VERTEX
  8
ASSEMBLY_PHO
 10
8.60763
 20
9.8140
 30
0.0000
  0
SEQEND
  0
POLYLINE
  8
ASSEMBLY_PHO
 66
1
 10
0.0000
 20
0.0000
 30
0.0000
 40
0.0080
 41
0.0080
  0
VERTEX
  8
ASSEMBLY_PHO
 10
8.60763
 20
9.8140
 30
0.0000
  0
VERTEX
  8
ASSEMBLY_PHO
 10
8.60309
 20
9.8140
 30
0.0000
  0
VERTEX
  8
ASSEMBLY_PHO
 10
8.59854
 20
9.81687
 30
0.0000
  0
SEQEND
  0
POLYLINE
  8
ASSEMBLY_PHO
 66
1
 10
0.0000
 20
0.0000
 30
0.0000
 40
0.0080
 41
0.0080
  0
VERTEX
  8
ASSEMBLY_PHO
 10
8.59854
 20
9.81687
 30
0.0000
  0
VERTEX
  8
ASSEMBLY_PHO
 10
8.59627
 20
9.81975
 30
0.0000
  0
VERTEX
  8
ASSEMBLY_PHO
 10
8.5940
 20
9.82837
 30
0.0000
  0
SEQEND
  0
POLYLINE
  8
ASSEMBLY_PHO
 66
1
 10
0.0000
 20
0.0000
 30
0.0000
 40
0.0080
 41
0.0080
  0
VERTEX
  8
ASSEMBLY_PHO
 10
8.5940
 20
9.82837
 30
0.0000
  0
VERTEX
  8
ASSEMBLY_PHO
 10
8.5940
 20
9.83412
 30
0.0000
  0
SEQEND
  0
POLYLINE
  8
ASSEMBLY_PHO
 66
1
 10
0.0000
 20
0.0000
 30
0.0000
 40
0.0080
 41
0.0080
  0
VERTEX
  8
ASSEMBLY_PHO
 10
8.63945
 20
9.8600
 30
0.0000
  0
VERTEX
  8
ASSEMBLY_PHO
 10
8.63945
 20
9.86287
 30
0.0000
  0
SEQEND
  0
POLYLINE
  8
ASSEMBLY_PHO
 66
1
 10
0.0000
 20
0.0000
 30
0.0000
 40
0.0080
 41
0.0080
  0
VERTEX
  8
ASSEMBLY_PHO
 10
8.63945
 20
9.86287
 30
0.0000
  0
VERTEX
  8
ASSEMBLY_PHO
 10
8.64172
 20
9.86862
 30
0.0000
  0
SEQEND
  0
POLYLINE
  8
ASSEMBLY_PHO
 66
1
 10
0.0000
 20
0.0000
 30
0.0000
 40
0.0080
 41
0.0080
  0
VERTEX
  8
ASSEMBLY_PHO
 10
8.64172
 20
9.86862
 30
0.0000
  0
VERTEX
  8
ASSEMBLY_PHO
 10
8.6440
 20
9.8715
 30
0.0000
  0
VERTEX
  8
ASSEMBLY_PHO
 10
8.64854
 20
9.87437
 30
0.0000
  0
SEQEND
  0
POLYLINE
  8
ASSEMBLY_PHO
 66
1
 10
0.0000
 20
0.0000
 30
0.0000
 40
0.0080
 41
0.0080
  0
VERTEX
  8
ASSEMBLY_PHO
 10
8.64854
 20
9.87437
 30
0.0000
  0
VERTEX
  8
ASSEMBLY_PHO
 10
8.65763
 20
9.87437
 30
0.0000
  0
SEQEND
  0
POLYLINE
  8
ASSEMBLY_PHO
 66
1
 10
0.0000
 20
0.0000
 30
0.0000
 40
0.0080
 41
0.0080
  0
VERTEX
  8
ASSEMBLY_PHO
 10
8.65763
 20
9.87437
 30
0.0000
  0
VERTEX
  8
ASSEMBLY_PHO
 10
8.66218
 20
9.8715
 30
0.0000
  0
VERTEX
  8
ASSEMBLY_PHO
 10
8.66445
 20
9.86862
 30
0.0000
  0
SEQEND
  0
POLYLINE
  8
ASSEMBLY_PHO
 66
1
 10
0.0000
 20
0.0000
 30
0.0000
 40
0.0080
 41
0.0080
  0
VERTEX
  8
ASSEMBLY_PHO
 10
8.66445
 20
9.86862
 30
0.0000
  0
VERTEX
  8
ASSEMBLY_PHO
 10
8.66672
 20
9.86287
 30
0.0000
  0
SEQEND
  0
POLYLINE
  8
ASSEMBLY_PHO
 66
1
 10
0.0000
 20
0.0000
 30
0.0000
 40
0.0080
 41
0.0080
  0
VERTEX
  8
ASSEMBLY_PHO
 10
8.66672
 20
9.86287
 30
0.0000
  0
VERTEX
  8
ASSEMBLY_PHO
 10
8.66672
 20
9.85712
 30
0.0000
  0
SEQEND
  0
POLYLINE
  8
ASSEMBLY_PHO
 66
1
 10
0.0000
 20
0.0000
 30
0.0000
 40
0.0080
 41
0.0080
  0
VERTEX
  8
ASSEMBLY_PHO
 10
8.66672
 20
9.85712
 30
0.0000
  0
VERTEX
  8
ASSEMBLY_PHO
 10
8.66445
 20
9.85137
 30
0.0000
  0
SEQEND
  0
POLYLINE
  8
ASSEMBLY_PHO
 66
1
 10
0.0000
 20
0.0000
 30
0.0000
 40
0.0080
 41
0.0080
  0
VERTEX
  8
ASSEMBLY_PHO
 10
8.66445
 20
9.85137
 30
0.0000
  0
VERTEX
  8
ASSEMBLY_PHO
 10
8.6599
 20
9.84275
 30
0.0000
  0
SEQEND
  0
POLYLINE
  8
ASSEMBLY_PHO
 66
1
 10
0.0000
 20
0.0000
 30
0.0000
 40
0.0080
 41
0.0080
  0
VERTEX
  8
ASSEMBLY_PHO
 10
8.6599
 20
9.84275
 30
0.0000
  0
VERTEX
  8
ASSEMBLY_PHO
 10
8.63718
 20
9.8140
 30
0.0000
  0
VERTEX
  8
ASSEMBLY_PHO
 10
8.6690
 20
9.8140
 30
0.0000
  0
SEQEND
  0
POLYLINE
  8
ASSEMBLY_PHO
 66
1
 10
0.0000
 20
0.0000
 30
0.0000
 40
0.0080
 41
0.0080
  0
VERTEX
  8
ASSEMBLY_PHO
 10
8.1040
 20
9.29468
 30
0.0000
  0
VERTEX
  8
ASSEMBLY_PHO
 10
8.1040
 20
9.2540
 30
0.0000
  0
SEQEND
  0
POLYLINE
  8
ASSEMBLY_PHO
 66
1
 10
0.0000
 20
0.0000
 30
0.0000
 40
0.0080
 41
0.0080
  0
VERTEX
  8
ASSEMBLY_PHO
 10
8.1040
 20
9.29468
 30
0.0000
  0
VERTEX
  8
ASSEMBLY_PHO
 10
8.11831
 20
9.29468
 30
0.0000
  0
SEQEND
  0
POLYLINE
  8
ASSEMBLY_PHO
 66
1
 10
0.0000
 20
0.0000
 30
0.0000
 40
0.0080
 41
0.0080
  0
VERTEX
  8
ASSEMBLY_PHO
 10
8.11831
 20
9.29468
 30
0.0000
  0
VERTEX
  8
ASSEMBLY_PHO
 10
8.12309
 20
9.29275
 30
0.0000
  0
VERTEX
  8
ASSEMBLY_PHO
 10
8.12468
 20
9.29081
 30
0.0000
  0
VERTEX
  8
ASSEMBLY_PHO
 10
8.12627
 20
9.28693
 30
0.0000
  0
SEQEND
  0
POLYLINE
  8
ASSEMBLY_PHO
 66
1
 10
0.0000
 20
0.0000
 30
0.0000
 40
0.0080
 41
0.0080
  0
VERTEX
  8
ASSEMBLY_PHO
 10
8.12627
 20
9.28693
 30
0.0000
  0
VERTEX
  8
ASSEMBLY_PHO
 10
8.12627
 20
9.28112
 30
0.0000
  0
SEQEND
  0
POLYLINE
  8
ASSEMBLY_PHO
 66
1
 10
0.0000
 20
0.0000
 30
0.0000
 40
0.0080
 41
0.0080
  0
VERTEX
  8
ASSEMBLY_PHO
 10
8.12627
 20
9.28112
 30
0.0000
  0
VERTEX
  8
ASSEMBLY_PHO
 10
8.12468
 20
9.27725
 30
0.0000
  0
VERTEX
  8
ASSEMBLY_PHO
 10
8.12309
 20
9.27531
 30
0.0000
  0
VERTEX
  8
ASSEMBLY_PHO
 10
8.11831
 20
9.27337
 30
0.0000
  0
SEQEND
  0
POLYLINE
  8
ASSEMBLY_PHO
 66
1
 10
0.0000
 20
0.0000
 30
0.0000
 40
0.0080
 41
0.0080
  0
VERTEX
  8
ASSEMBLY_PHO
 10
8.11831
 20
9.27337
 30
0.0000
  0
VERTEX
  8
ASSEMBLY_PHO
 10
8.1040
 20
9.27337
 30
0.0000
  0
SEQEND
  0
POLYLINE
  8
ASSEMBLY_PHO
 66
1
 10
0.0000
 20
0.0000
 30
0.0000
 40
0.0080
 41
0.0080
  0
VERTEX
  8
ASSEMBLY_PHO
 10
8.16445
 20
9.2850
 30
0.0000
  0
VERTEX
  8
ASSEMBLY_PHO
 10
8.16286
 20
9.28887
 30
0.0000
  0
SEQEND
  0
POLYLINE
  8
ASSEMBLY_PHO
 66
1
 10
0.0000
 20
0.0000
 30
0.0000
 40
0.0080
 41
0.0080
  0
VERTEX
  8
ASSEMBLY_PHO
 10
8.16286
 20
9.28887
 30
0.0000
  0
VERTEX
  8
ASSEMBLY_PHO
 10
8.15968
 20
9.29275
 30
0.0000
  0
VERTEX
  8
ASSEMBLY_PHO
 10
8.1565
 20
9.29468
 30
0.0000
  0
SEQEND
  0
POLYLINE
  8
ASSEMBLY_PHO
 66
1
 10
0.0000
 20
0.0000
 30
0.0000
 40
0.0080
 41
0.0080
  0
VERTEX
  8
ASSEMBLY_PHO
 10
8.1565
 20
9.29468
 30
0.0000
  0
VERTEX
  8
ASSEMBLY_PHO
 10
8.15013
 20
9.29468
 30
0.0000
  0
SEQEND
  0
POLYLINE
  8
ASSEMBLY_PHO
 66
1
 10
0.0000
 20
0.0000
 30
0.0000
 40
0.0080
 41
0.0080
  0
VERTEX
  8
ASSEMBLY_PHO
 10
8.15013
 20
9.29468
 30
0.0000
  0
VERTEX
  8
ASSEMBLY_PHO
 10
8.14695
 20
9.29275
 30
0.0000
  0
VERTEX
  8
ASSEMBLY_PHO
 10
8.14377
 20
9.28887
 30
0.0000
  0
SEQEND
  0
POLYLINE
  8
ASSEMBLY_PHO
 66
1
 10
0.0000
 20
0.0000
 30
0.0000
 40
0.0080
 41
0.0080
  0
VERTEX
  8
ASSEMBLY_PHO
 10
8.14377
 20
9.28887
 30
0.0000
  0
VERTEX
  8
ASSEMBLY_PHO
 10
8.14218
 20
9.2850
 30
0.0000
  0
VERTEX
  8
ASSEMBLY_PHO
 10
8.14059
 20
9.27918
 30
0.0000
  0
SEQEND
  0
POLYLINE
  8
ASSEMBLY_PHO
 66
1
 10
0.0000
 20
0.0000
 30
0.0000
 40
0.0080
 41
0.0080
  0
VERTEX
  8
ASSEMBLY_PHO
 10
8.14059
 20
9.27918
 30
0.0000
  0
VERTEX
  8
ASSEMBLY_PHO
 10
8.14059
 20
9.2695
 30
0.0000
  0
VERTEX
  8
ASSEMBLY_PHO
 10
8.14218
 20
9.26368
 30
0.0000
  0
SEQEND
  0
POLYLINE
  8
ASSEMBLY_PHO
 66
1
 10
0.0000
 20
0.0000
 30
0.0000
 40
0.0080
 41
0.0080
  0
VERTEX
  8
ASSEMBLY_PHO
 10
8.14218
 20
9.26368
 30
0.0000
  0
VERTEX
  8
ASSEMBLY_PHO
 10
8.14377
 20
9.25981
 30
0.0000
  0
VERTEX
  8
ASSEMBLY_PHO
 10
8.14695
 20
9.25593
 30
0.0000
  0
SEQEND
  0
POLYLINE
  8
ASSEMBLY_PHO
 66
1
 10
0.0000
 20
0.0000
 30
0.0000
 40
0.0080
 41
0.0080
  0
VERTEX
  8
ASSEMBLY_PHO
 10
8.14695
 20
9.25593
 30
0.0000
  0
VERTEX
  8
ASSEMBLY_PHO
 10
8.15013
 20
9.2540
 30
0.0000
  0
SEQEND
  0
POLYLINE
  8
ASSEMBLY_PHO
 66
1
 10
0.0000
 20
0.0000
 30
0.0000
 40
0.0080
 41
0.0080
  0
VERTEX
  8
ASSEMBLY_PHO
 10
8.15013
 20
9.2540
 30
0.0000
  0
VERTEX
  8
ASSEMBLY_PHO
 10
8.1565
 20
9.2540
 30
0.0000
  0
VERTEX
  8
ASSEMBLY_PHO
 10
8.15968
 20
9.25593
 30
0.0000
  0
SEQEND
  0
POLYLINE
  8
ASSEMBLY_PHO
 66
1
 10
0.0000
 20
0.0000
 30
0.0000
 40
0.0080
 41
0.0080
  0
VERTEX
  8
ASSEMBLY_PHO
 10
8.15968
 20
9.25593
 30
0.0000
  0
VERTEX
  8
ASSEMBLY_PHO
 10
8.16286
 20
9.25981
 30
0.0000
  0
VERTEX
  8
ASSEMBLY_PHO
 10
8.16445
 20
9.26368
 30
0.0000
  0
SEQEND
  0
POLYLINE
  8
ASSEMBLY_PHO
 66
1
 10
0.0000
 20
0.0000
 30
0.0000
 40
0.0080
 41
0.0080
  0
VERTEX
  8
ASSEMBLY_PHO
 10
8.17877
 20
9.29468
 30
0.0000
  0
VERTEX
  8
ASSEMBLY_PHO
 10
8.17877
 20
9.2540
 30
0.0000
  0
SEQEND
  0
POLYLINE
  8
ASSEMBLY_PHO
 66
1
 10
0.0000
 20
0.0000
 30
0.0000
 40
0.0080
 41
0.0080
  0
VERTEX
  8
ASSEMBLY_PHO
 10
8.17877
 20
9.29468
 30
0.0000
  0
VERTEX
  8
ASSEMBLY_PHO
 10
8.19309
 20
9.29468
 30
0.0000
  0
SEQEND
  0
POLYLINE
  8
ASSEMBLY_PHO
 66
1
 10
0.0000
 20
0.0000
 30
0.0000
 40
0.0080
 41
0.0080
  0
VERTEX
  8
ASSEMBLY_PHO
 10
8.19309
 20
9.29468
 30
0.0000
  0
VERTEX
  8
ASSEMBLY_PHO
 10
8.19786
 20
9.29275
 30
0.0000
  0
VERTEX
  8
ASSEMBLY_PHO
 10
8.19945
 20
9.29081
 30
0.0000
  0
VERTEX
  8
ASSEMBLY_PHO
 10
8.20104
 20
9.28693
 30
0.0000
  0
SEQEND
  0
POLYLINE
  8
ASSEMBLY_PHO
 66
1
 10
0.0000
 20
0.0000
 30
0.0000
 40
0.0080
 41
0.0080
  0
VERTEX
  8
ASSEMBLY_PHO
 10
8.20104
 20
9.28693
 30
0.0000
  0
VERTEX
  8
ASSEMBLY_PHO
 10
8.20104
 20
9.28306
 30
0.0000
  0
SEQEND
  0
POLYLINE
  8
ASSEMBLY_PHO
 66
1
 10
0.0000
 20
0.0000
 30
0.0000
 40
0.0080
 41
0.0080
  0
VERTEX
  8
ASSEMBLY_PHO
 10
8.20104
 20
9.28306
 30
0.0000
  0
VERTEX
  8
ASSEMBLY_PHO
 10
8.19945
 20
9.27918
 30
0.0000
  0
SEQEND
  0
POLYLINE
  8
ASSEMBLY_PHO
 66
1
 10
0.0000
 20
0.0000
 30
0.0000
 40
0.0080
 41
0.0080
  0
VERTEX
  8
ASSEMBLY_PHO
 10
8.19945
 20
9.27918
 30
0.0000
  0
VERTEX
  8
ASSEMBLY_PHO
 10
8.19786
 20
9.27725
 30
0.0000
  0
VERTEX
  8
ASSEMBLY_PHO
 10
8.19309
 20
9.27531
 30
0.0000
  0
SEQEND
  0
POLYLINE
  8
ASSEMBLY_PHO
 66
1
 10
0.0000
 20
0.0000
 30
0.0000
 40
0.0080
 41
0.0080
  0
VERTEX
  8
ASSEMBLY_PHO
 10
8.17877
 20
9.27531
 30
0.0000
  0
VERTEX
  8
ASSEMBLY_PHO
 10
8.19309
 20
9.27531
 30
0.0000
  0
VERTEX
  8
ASSEMBLY_PHO
 10
8.19786
 20
9.27337
 30
0.0000
  0
SEQEND
  0
POLYLINE
  8
ASSEMBLY_PHO
 66
1
 10
0.0000
 20
0.0000
 30
0.0000
 40
0.0080
 41
0.0080
  0
VERTEX
  8
ASSEMBLY_PHO
 10
8.19786
 20
9.27337
 30
0.0000
  0
VERTEX
  8
ASSEMBLY_PHO
 10
8.19945
 20
9.27143
 30
0.0000
  0
SEQEND
  0
POLYLINE
  8
ASSEMBLY_PHO
 66
1
 10
0.0000
 20
0.0000
 30
0.0000
 40
0.0080
 41
0.0080
  0
VERTEX
  8
ASSEMBLY_PHO
 10
8.19945
 20
9.27143
 30
0.0000
  0
VERTEX
  8
ASSEMBLY_PHO
 10
8.20104
 20
9.26756
 30
0.0000
  0
SEQEND
  0
POLYLINE
  8
ASSEMBLY_PHO
 66
1
 10
0.0000
 20
0.0000
 30
0.0000
 40
0.0080
 41
0.0080
  0
VERTEX
  8
ASSEMBLY_PHO
 10
8.20104
 20
9.26756
 30
0.0000
  0
VERTEX
  8
ASSEMBLY_PHO
 10
8.20104
 20
9.26175
 30
0.0000
  0
SEQEND
  0
POLYLINE
  8
ASSEMBLY_PHO
 66
1
 10
0.0000
 20
0.0000
 30
0.0000
 40
0.0080
 41
0.0080
  0
VERTEX
  8
ASSEMBLY_PHO
 10
8.20104
 20
9.26175
 30
0.0000
  0
VERTEX
  8
ASSEMBLY_PHO
 10
8.19945
 20
9.25787
 30
0.0000
  0
SEQEND
  0
POLYLINE
  8
ASSEMBLY_PHO
 66
1
 10
0.0000
 20
0.0000
 30
0.0000
 40
0.0080
 41
0.0080
  0
VERTEX
  8
ASSEMBLY_PHO
 10
8.19945
 20
9.25787
 30
0.0000
  0
VERTEX
  8
ASSEMBLY_PHO
 10
8.19786
 20
9.25593
 30
0.0000
  0
SEQEND
  0
POLYLINE
  8
ASSEMBLY_PHO
 66
1
 10
0.0000
 20
0.0000
 30
0.0000
 40
0.0080
 41
0.0080
  0
VERTEX
  8
ASSEMBLY_PHO
 10
8.19786
 20
9.25593
 30
0.0000
  0
VERTEX
  8
ASSEMBLY_PHO
 10
8.19309
 20
9.2540
 30
0.0000
  0
VERTEX
  8
ASSEMBLY_PHO
 10
8.17877
 20
9.2540
 30
0.0000
  0
SEQEND
  0
POLYLINE
  8
ASSEMBLY_PHO
 66
1
 10
0.0000
 20
0.0000
 30
0.0000
 40
0.0080
 41
0.0080
  0
VERTEX
  8
ASSEMBLY_PHO
 10
8.21695
 20
9.28112
 30
0.0000
  0
VERTEX
  8
ASSEMBLY_PHO
 10
8.21536
 20
9.27918
 30
0.0000
  0
SEQEND
  0
POLYLINE
  8
ASSEMBLY_PHO
 66
1
 10
0.0000
 20
0.0000
 30
0.0000
 40
0.0080
 41
0.0080
  0
VERTEX
  8
ASSEMBLY_PHO
 10
8.21536
 20
9.27918
 30
0.0000
  0
VERTEX
  8
ASSEMBLY_PHO
 10
8.21695
 20
9.27725
 30
0.0000
  0
VERTEX
  8
ASSEMBLY_PHO
 10
8.21854
 20
9.27918
 30
0.0000
  0
SEQEND
  0
POLYLINE
  8
ASSEMBLY_PHO
 66
1
 10
0.0000
 20
0.0000
 30
0.0000
 40
0.0080
 41
0.0080
  0
VERTEX
  8
ASSEMBLY_PHO
 10
8.21854
 20
9.27918
 30
0.0000
  0
VERTEX
  8
ASSEMBLY_PHO
 10
8.21695
 20
9.28112
 30
0.0000
  0
SEQEND
  0
POLYLINE
  8
ASSEMBLY_PHO
 66
1
 10
0.0000
 20
0.0000
 30
0.0000
 40
0.0080
 41
0.0080
  0
VERTEX
  8
ASSEMBLY_PHO
 10
8.21695
 20
9.25787
 30
0.0000
  0
VERTEX
  8
ASSEMBLY_PHO
 10
8.21536
 20
9.25593
 30
0.0000
  0
SEQEND
  0
POLYLINE
  8
ASSEMBLY_PHO
 66
1
 10
0.0000
 20
0.0000
 30
0.0000
 40
0.0080
 41
0.0080
  0
VERTEX
  8
ASSEMBLY_PHO
 10
8.21536
 20
9.25593
 30
0.0000
  0
VERTEX
  8
ASSEMBLY_PHO
 10
8.21695
 20
9.2540
 30
0.0000
  0
VERTEX
  8
ASSEMBLY_PHO
 10
8.21854
 20
9.25593
 30
0.0000
  0
SEQEND
  0
POLYLINE
  8
ASSEMBLY_PHO
 66
1
 10
0.0000
 20
0.0000
 30
0.0000
 40
0.0080
 41
0.0080
  0
VERTEX
  8
ASSEMBLY_PHO
 10
8.21854
 20
9.25593
 30
0.0000
  0
VERTEX
  8
ASSEMBLY_PHO
 10
8.21695
 20
9.25787
 30
0.0000
  0
SEQEND
  0
POLYLINE
  8
ASSEMBLY_PHO
 66
1
 10
0.0000
 20
0.0000
 30
0.0000
 40
0.0080
 41
0.0080
  0
VERTEX
  8
ASSEMBLY_PHO
 10
8.27263
 20
9.29468
 30
0.0000
  0
VERTEX
  8
ASSEMBLY_PHO
 10
8.29013
 20
9.29468
 30
0.0000
  0
SEQEND
  0
POLYLINE
  8
ASSEMBLY_PHO
 66
1
 10
0.0000
 20
0.0000
 30
0.0000
 40
0.0080
 41
0.0080
  0
VERTEX
  8
ASSEMBLY_PHO
 10
8.29013
 20
9.29468
 30
0.0000
  0
VERTEX
  8
ASSEMBLY_PHO
 10
8.28059
 20
9.27918
 30
0.0000
  0
SEQEND
  0
POLYLINE
  8
ASSEMBLY_PHO
 66
1
 10
0.0000
 20
0.0000
 30
0.0000
 40
0.0080
 41
0.0080
  0
VERTEX
  8
ASSEMBLY_PHO
 10
8.28059
 20
9.27918
 30
0.0000
  0
VERTEX
  8
ASSEMBLY_PHO
 10
8.28536
 20
9.27918
 30
0.0000
  0
SEQEND
  0
POLYLINE
  8
ASSEMBLY_PHO
 66
1
 10
0.0000
 20
0.0000
 30
0.0000
 40
0.0080
 41
0.0080
  0
VERTEX
  8
ASSEMBLY_PHO
 10
8.28536
 20
9.27918
 30
0.0000
  0
VERTEX
  8
ASSEMBLY_PHO
 10
8.28854
 20
9.27725
 30
0.0000
  0
SEQEND
  0
POLYLINE
  8
ASSEMBLY_PHO
 66
1
 10
0.0000
 20
0.0000
 30
0.0000
 40
0.0080
 41
0.0080
  0
VERTEX
  8
ASSEMBLY_PHO
 10
8.28854
 20
9.27725
 30
0.0000
  0
VERTEX
  8
ASSEMBLY_PHO
 10
8.29013
 20
9.27531
 30
0.0000
  0
SEQEND
  0
POLYLINE
  8
ASSEMBLY_PHO
 66
1
 10
0.0000
 20
0.0000
 30
0.0000
 40
0.0080
 41
0.0080
  0
VERTEX
  8
ASSEMBLY_PHO
 10
8.29013
 20
9.27531
 30
0.0000
  0
VERTEX
  8
ASSEMBLY_PHO
 10
8.29172
 20
9.2695
 30
0.0000
  0
SEQEND
  0
POLYLINE
  8
ASSEMBLY_PHO
 66
1
 10
0.0000
 20
0.0000
 30
0.0000
 40
0.0080
 41
0.0080
  0
VERTEX
  8
ASSEMBLY_PHO
 10
8.29172
 20
9.2695
 30
0.0000
  0
VERTEX
  8
ASSEMBLY_PHO
 10
8.29172
 20
9.26562
 30
0.0000
  0
SEQEND
  0
POLYLINE
  8
ASSEMBLY_PHO
 66
1
 10
0.0000
 20
0.0000
 30
0.0000
 40
0.0080
 41
0.0080
  0
VERTEX
  8
ASSEMBLY_PHO
 10
8.29172
 20
9.26562
 30
0.0000
  0
VERTEX
  8
ASSEMBLY_PHO
 10
8.29013
 20
9.25981
 30
0.0000
  0
SEQEND
  0
POLYLINE
  8
ASSEMBLY_PHO
 66
1
 10
0.0000
 20
0.0000
 30
0.0000
 40
0.0080
 41
0.0080
  0
VERTEX
  8
ASSEMBLY_PHO
 10
8.29013
 20
9.25981
 30
0.0000
  0
VERTEX
  8
ASSEMBLY_PHO
 10
8.28695
 20
9.25593
 30
0.0000
  0
SEQEND
  0
POLYLINE
  8
ASSEMBLY_PHO
 66
1
 10
0.0000
 20
0.0000
 30
0.0000
 40
0.0080
 41
0.0080
  0
VERTEX
  8
ASSEMBLY_PHO
 10
8.28695
 20
9.25593
 30
0.0000
  0
VERTEX
  8
ASSEMBLY_PHO
 10
8.28218
 20
9.2540
 30
0.0000
  0
VERTEX
  8
ASSEMBLY_PHO
 10
8.2774
 20
9.2540
 30
0.0000
  0
SEQEND
  0
POLYLINE
  8
ASSEMBLY_PHO
 66
1
 10
0.0000
 20
0.0000
 30
0.0000
 40
0.0080
 41
0.0080
  0
VERTEX
  8
ASSEMBLY_PHO
 10
8.2774
 20
9.2540
 30
0.0000
  0
VERTEX
  8
ASSEMBLY_PHO
 10
8.27263
 20
9.25593
 30
0.0000
  0
SEQEND
  0
POLYLINE
  8
ASSEMBLY_PHO
 66
1
 10
0.0000
 20
0.0000
 30
0.0000
 40
0.0080
 41
0.0080
  0
VERTEX
  8
ASSEMBLY_PHO
 10
8.27263
 20
9.25593
 30
0.0000
  0
VERTEX
  8
ASSEMBLY_PHO
 10
8.27104
 20
9.25787
 30
0.0000
  0
SEQEND
  0
POLYLINE
  8
ASSEMBLY_PHO
 66
1
 10
0.0000
 20
0.0000
 30
0.0000
 40
0.0080
 41
0.0080
  0
VERTEX
  8
ASSEMBLY_PHO
 10
8.27104
 20
9.25787
 30
0.0000
  0
VERTEX
  8
ASSEMBLY_PHO
 10
8.26945
 20
9.26175
 30
0.0000
  0
SEQEND
  0
POLYLINE
  8
ASSEMBLY_PHO
 66
1
 10
0.0000
 20
0.0000
 30
0.0000
 40
0.0080
 41
0.0080
  0
VERTEX
  8
ASSEMBLY_PHO
 10
8.30604
 20
9.28693
 30
0.0000
  0
VERTEX
  8
ASSEMBLY_PHO
 10
8.30922
 20
9.28887
 30
0.0000
  0
SEQEND
  0
POLYLINE
  8
ASSEMBLY_PHO
 66
1
 10
0.0000
 20
0.0000
 30
0.0000
 40
0.0080
 41
0.0080
  0
VERTEX
  8
ASSEMBLY_PHO
 10
8.30922
 20
9.28887
 30
0.0000
  0
VERTEX
  8
ASSEMBLY_PHO
 10
8.3140
 20
9.29468
 30
0.0000
  0
SEQEND
  0
POLYLINE
  8
ASSEMBLY_PHO
 66
1
 10
0.0000
 20
0.0000
 30
0.0000
 40
0.0080
 41
0.0080
  0
VERTEX
  8
ASSEMBLY_PHO
 10
8.3140
 20
9.29468
 30
0.0000
  0
VERTEX
  8
ASSEMBLY_PHO
 10
8.3140
 20
9.2540
 30
0.0000
  0
SEQEND
  0
POLYLINE
  8
ASSEMBLY_PHO
 66
1
 10
0.0000
 20
0.0000
 30
0.0000
 40
0.0080
 41
0.0080
  0
VERTEX
  8
ASSEMBLY_PHO
 10
8.32831
 20
9.27143
 30
0.0000
  0
VERTEX
  8
ASSEMBLY_PHO
 10
8.35695
 20
9.27143
 30
0.0000
  0
SEQEND
  0
POLYLINE
  8
ASSEMBLY_PHO
 66
1
 10
0.0000
 20
0.0000
 30
0.0000
 40
0.0080
 41
0.0080
  0
VERTEX
  8
ASSEMBLY_PHO
 10
8.38081
 20
9.29468
 30
0.0000
  0
VERTEX
  8
ASSEMBLY_PHO
 10
8.37604
 20
9.29275
 30
0.0000
  0
SEQEND
  0
POLYLINE
  8
ASSEMBLY_PHO
 66
1
 10
0.0000
 20
0.0000
 30
0.0000
 40
0.0080
 41
0.0080
  0
VERTEX
  8
ASSEMBLY_PHO
 10
8.37604
 20
9.29275
 30
0.0000
  0
VERTEX
  8
ASSEMBLY_PHO
 10
8.37286
 20
9.28693
 30
0.0000
  0
SEQEND
  0
POLYLINE
  8
ASSEMBLY_PHO
 66
1
 10
0.0000
 20
0.0000
 30
0.0000
 40
0.0080
 41
0.0080
  0
VERTEX
  8
ASSEMBLY_PHO
 10
8.37286
 20
9.28693
 30
0.0000
  0
VERTEX
  8
ASSEMBLY_PHO
 10
8.37127
 20
9.27725
 30
0.0000
  0
VERTEX
  8
ASSEMBLY_PHO
 10
8.37127
 20
9.27143
 30
0.0000
  0
SEQEND
  0
POLYLINE
  8
ASSEMBLY_PHO
 66
1
 10
0.0000
 20
0.0000
 30
0.0000
 40
0.0080
 41
0.0080
  0
VERTEX
  8
ASSEMBLY_PHO
 10
8.37127
 20
9.27143
 30
0.0000
  0
VERTEX
  8
ASSEMBLY_PHO
 10
8.37286
 20
9.26175
 30
0.0000
  0
VERTEX
  8
ASSEMBLY_PHO
 10
8.37604
 20
9.25593
 30
0.0000
  0
SEQEND
  0
POLYLINE
  8
ASSEMBLY_PHO
 66
1
 10
0.0000
 20
0.0000
 30
0.0000
 40
0.0080
 41
0.0080
  0
VERTEX
  8
ASSEMBLY_PHO
 10
8.37604
 20
9.25593
 30
0.0000
  0
VERTEX
  8
ASSEMBLY_PHO
 10
8.38081
 20
9.2540
 30
0.0000
  0
SEQEND
  0
POLYLINE
  8
ASSEMBLY_PHO
 66
1
 10
0.0000
 20
0.0000
 30
0.0000
 40
0.0080
 41
0.0080
  0
VERTEX
  8
ASSEMBLY_PHO
 10
8.38081
 20
9.2540
 30
0.0000
  0
VERTEX
  8
ASSEMBLY_PHO
 10
8.3840
 20
9.2540
 30
0.0000
  0
VERTEX
  8
ASSEMBLY_PHO
 10
8.38877
 20
9.25593
 30
0.0000
  0
SEQEND
  0
POLYLINE
  8
ASSEMBLY_PHO
 66
1
 10
0.0000
 20
0.0000
 30
0.0000
 40
0.0080
 41
0.0080
  0
VERTEX
  8
ASSEMBLY_PHO
 10
8.38877
 20
9.25593
 30
0.0000
  0
VERTEX
  8
ASSEMBLY_PHO
 10
8.39195
 20
9.26175
 30
0.0000
  0
VERTEX
  8
ASSEMBLY_PHO
 10
8.39354
 20
9.27143
 30
0.0000
  0
SEQEND
  0
POLYLINE
  8
ASSEMBLY_PHO
 66
1
 10
0.0000
 20
0.0000
 30
0.0000
 40
0.0080
 41
0.0080
  0
VERTEX
  8
ASSEMBLY_PHO
 10
8.39354
 20
9.27143
 30
0.0000
  0
VERTEX
  8
ASSEMBLY_PHO
 10
8.39354
 20
9.27725
 30
0.0000
  0
SEQEND
  0
POLYLINE
  8
ASSEMBLY_PHO
 66
1
 10
0.0000
 20
0.0000
 30
0.0000
 40
0.0080
 41
0.0080
  0
VERTEX
  8
ASSEMBLY_PHO
 10
8.39354
 20
9.27725
 30
0.0000
  0
VERTEX
  8
ASSEMBLY_PHO
 10
8.39195
 20
9.28693
 30
0.0000
  0
SEQEND
  0
POLYLINE
  8
ASSEMBLY_PHO
 66
1
 10
0.0000
 20
0.0000
 30
0.0000
 40
0.0080
 41
0.0080
  0
VERTEX
  8
ASSEMBLY_PHO
 10
8.39195
 20
9.28693
 30
0.0000
  0
VERTEX
  8
ASSEMBLY_PHO
 10
8.38877
 20
9.29275
 30
0.0000
  0
VERTEX
  8
ASSEMBLY_PHO
 10
8.3840
 20
9.29468
 30
0.0000
  0
SEQEND
  0
POLYLINE
  8
ASSEMBLY_PHO
 66
1
 10
0.0000
 20
0.0000
 30
0.0000
 40
0.0080
 41
0.0080
  0
VERTEX
  8
ASSEMBLY_PHO
 10
8.3840
 20
9.29468
 30
0.0000
  0
VERTEX
  8
ASSEMBLY_PHO
 10
8.38081
 20
9.29468
 30
0.0000
  0
SEQEND
  0
POLYLINE
  8
ASSEMBLY_PHO
 66
1
 10
0.0000
 20
0.0000
 30
0.0000
 40
0.0080
 41
0.0080
  0
VERTEX
  8
ASSEMBLY_PHO
 10
8.4174
 20
9.29468
 30
0.0000
  0
VERTEX
  8
ASSEMBLY_PHO
 10
8.41263
 20
9.29275
 30
0.0000
  0
SEQEND
  0
POLYLINE
  8
ASSEMBLY_PHO
 66
1
 10
0.0000
 20
0.0000
 30
0.0000
 40
0.0080
 41
0.0080
  0
VERTEX
  8
ASSEMBLY_PHO
 10
8.41263
 20
9.29275
 30
0.0000
  0
VERTEX
  8
ASSEMBLY_PHO
 10
8.40945
 20
9.28693
 30
0.0000
  0
SEQEND
  0
POLYLINE
  8
ASSEMBLY_PHO
 66
1
 10
0.0000
 20
0.0000
 30
0.0000
 40
0.0080
 41
0.0080
  0
VERTEX
  8
ASSEMBLY_PHO
 10
8.40945
 20
9.28693
 30
0.0000
  0
VERTEX
  8
ASSEMBLY_PHO
 10
8.40786
 20
9.27725
 30
0.0000
  0
VERTEX
  8
ASSEMBLY_PHO
 10
8.40786
 20
9.27143
 30
0.0000
  0
SEQEND
  0
POLYLINE
  8
ASSEMBLY_PHO
 66
1
 10
0.0000
 20
0.0000
 30
0.0000
 40
0.0080
 41
0.0080
  0
VERTEX
  8
ASSEMBLY_PHO
 10
8.40786
 20
9.27143
 30
0.0000
  0
VERTEX
  8
ASSEMBLY_PHO
 10
8.40945
 20
9.26175
 30
0.0000
  0
VERTEX
  8
ASSEMBLY_PHO
 10
8.41263
 20
9.25593
 30
0.0000
  0
SEQEND
  0
POLYLINE
  8
ASSEMBLY_PHO
 66
1
 10
0.0000
 20
0.0000
 30
0.0000
 40
0.0080
 41
0.0080
  0
VERTEX
  8
ASSEMBLY_PHO
 10
8.41263
 20
9.25593
 30
0.0000
  0
VERTEX
  8
ASSEMBLY_PHO
 10
8.4174
 20
9.2540
 30
0.0000
  0
SEQEND
  0
POLYLINE
  8
ASSEMBLY_PHO
 66
1
 10
0.0000
 20
0.0000
 30
0.0000
 40
0.0080
 41
0.0080
  0
VERTEX
  8
ASSEMBLY_PHO
 10
8.4174
 20
9.2540
 30
0.0000
  0
VERTEX
  8
ASSEMBLY_PHO
 10
8.42059
 20
9.2540
 30
0.0000
  0
VERTEX
  8
ASSEMBLY_PHO
 10
8.42536
 20
9.25593
 30
0.0000
  0
SEQEND
  0
POLYLINE
  8
ASSEMBLY_PHO
 66
1
 10
0.0000
 20
0.0000
 30
0.0000
 40
0.0080
 41
0.0080
  0
VERTEX
  8
ASSEMBLY_PHO
 10
8.42536
 20
9.25593
 30
0.0000
  0
VERTEX
  8
ASSEMBLY_PHO
 10
8.42854
 20
9.26175
 30
0.0000
  0
SEQEND
  0
POLYLINE
  8
ASSEMBLY_PHO
 66
1
 10
0.0000
 20
0.0000
 30
0.0000
 40
0.0080
 41
0.0080
  0
VERTEX
  8
ASSEMBLY_PHO
 10
8.42854
 20
9.26175
 30
0.0000
  0
VERTEX
  8
ASSEMBLY_PHO
 10
8.43013
 20
9.27143
 30
0.0000
  0
SEQEND
  0
POLYLINE
  8
ASSEMBLY_PHO
 66
1
 10
0.0000
 20
0.0000
 30
0.0000
 40
0.0080
 41
0.0080
  0
VERTEX
  8
ASSEMBLY_PHO
 10
8.43013
 20
9.27143
 30
0.0000
  0
VERTEX
  8
ASSEMBLY_PHO
 10
8.43013
 20
9.27725
 30
0.0000
  0
SEQEND
  0
POLYLINE
  8
ASSEMBLY_PHO
 66
1
 10
0.0000
 20
0.0000
 30
0.0000
 40
0.0080
 41
0.0080
  0
VERTEX
  8
ASSEMBLY_PHO
 10
8.43013
 20
9.27725
 30
0.0000
  0
VERTEX
  8
ASSEMBLY_PHO
 10
8.42854
 20
9.28693
 30
0.0000
  0
SEQEND
  0
POLYLINE
  8
ASSEMBLY_PHO
 66
1
 10
0.0000
 20
0.0000
 30
0.0000
 40
0.0080
 41
0.0080
  0
VERTEX
  8
ASSEMBLY_PHO
 10
8.42854
 20
9.28693
 30
0.0000
  0
VERTEX
  8
ASSEMBLY_PHO
 10
8.42536
 20
9.29275
 30
0.0000
  0
VERTEX
  8
ASSEMBLY_PHO
 10
8.42059
 20
9.29468
 30
0.0000
  0
SEQEND
  0
POLYLINE
  8
ASSEMBLY_PHO
 66
1
 10
0.0000
 20
0.0000
 30
0.0000
 40
0.0080
 41
0.0080
  0
VERTEX
  8
ASSEMBLY_PHO
 10
8.42059
 20
9.29468
 30
0.0000
  0
VERTEX
  8
ASSEMBLY_PHO
 10
8.4174
 20
9.29468
 30
0.0000
  0
SEQEND
  0
POLYLINE
  8
ASSEMBLY_PHO
 66
1
 10
0.0000
 20
0.0000
 30
0.0000
 40
0.0080
 41
0.0080
  0
VERTEX
  8
ASSEMBLY_PHO
 10
8.4540
 20
9.29468
 30
0.0000
  0
VERTEX
  8
ASSEMBLY_PHO
 10
8.44922
 20
9.29275
 30
0.0000
  0
SEQEND
  0
POLYLINE
  8
ASSEMBLY_PHO
 66
1
 10
0.0000
 20
0.0000
 30
0.0000
 40
0.0080
 41
0.0080
  0
VERTEX
  8
ASSEMBLY_PHO
 10
8.44922
 20
9.29275
 30
0.0000
  0
VERTEX
  8
ASSEMBLY_PHO
 10
8.44604
 20
9.28693
 30
0.0000
  0
SEQEND
  0
POLYLINE
  8
ASSEMBLY_PHO
 66
1
 10
0.0000
 20
0.0000
 30
0.0000
 40
0.0080
 41
0.0080
  0
VERTEX
  8
ASSEMBLY_PHO
 10
8.44604
 20
9.28693
 30
0.0000
  0
VERTEX
  8
ASSEMBLY_PHO
 10
8.44445
 20
9.27725
 30
0.0000
  0
VERTEX
  8
ASSEMBLY_PHO
 10
8.44445
 20
9.27143
 30
0.0000
  0
SEQEND
  0
POLYLINE
  8
ASSEMBLY_PHO
 66
1
 10
0.0000
 20
0.0000
 30
0.0000
 40
0.0080
 41
0.0080
  0
VERTEX
  8
ASSEMBLY_PHO
 10
8.44445
 20
9.27143
 30
0.0000
  0
VERTEX
  8
ASSEMBLY_PHO
 10
8.44604
 20
9.26175
 30
0.0000
  0
SEQEND
  0
POLYLINE
  8
ASSEMBLY_PHO
 66
1
 10
0.0000
 20
0.0000
 30
0.0000
 40
0.0080
 41
0.0080
  0
VERTEX
  8
ASSEMBLY_PHO
 10
8.44604
 20
9.26175
 30
0.0000
  0
VERTEX
  8
ASSEMBLY_PHO
 10
8.44922
 20
9.25593
 30
0.0000
  0
SEQEND
  0
POLYLINE
  8
ASSEMBLY_PHO
 66
1
 10
0.0000
 20
0.0000
 30
0.0000
 40
0.0080
 41
0.0080
  0
VERTEX
  8
ASSEMBLY_PHO
 10
8.44922
 20
9.25593
 30
0.0000
  0
VERTEX
  8
ASSEMBLY_PHO
 10
8.4540
 20
9.2540
 30
0.0000
  0
VERTEX
  8
ASSEMBLY_PHO
 10
8.45718
 20
9.2540
 30
0.0000
  0
VERTEX
  8
ASSEMBLY_PHO
 10
8.46195
 20
9.25593
 30
0.0000
  0
SEQEND
  0
POLYLINE
  8
ASSEMBLY_PHO
 66
1
 10
0.0000
 20
0.0000
 30
0.0000
 40
0.0080
 41
0.0080
  0
VERTEX
  8
ASSEMBLY_PHO
 10
8.46195
 20
9.25593
 30
0.0000
  0
VERTEX
  8
ASSEMBLY_PHO
 10
8.46513
 20
9.26175
 30
0.0000
  0
SEQEND
  0
POLYLINE
  8
ASSEMBLY_PHO
 66
1
 10
0.0000
 20
0.0000
 30
0.0000
 40
0.0080
 41
0.0080
  0
VERTEX
  8
ASSEMBLY_PHO
 10
8.46513
 20
9.26175
 30
0.0000
  0
VERTEX
  8
ASSEMBLY_PHO
 10
8.46672
 20
9.27143
 30
0.0000
  0
SEQEND
  0
POLYLINE
  8
ASSEMBLY_PHO
 66
1
 10
0.0000
 20
0.0000
 30
0.0000
 40
0.0080
 41
0.0080
  0
VERTEX
  8
ASSEMBLY_PHO
 10
8.46672
 20
9.27143
 30
0.0000
  0
VERTEX
  8
ASSEMBLY_PHO
 10
8.46672
 20
9.27725
 30
0.0000
  0
SEQEND
  0
POLYLINE
  8
ASSEMBLY_PHO
 66
1
 10
0.0000
 20
0.0000
 30
0.0000
 40
0.0080
 41
0.0080
  0
VERTEX
  8
ASSEMBLY_PHO
 10
8.46672
 20
9.27725
 30
0.0000
  0
VERTEX
  8
ASSEMBLY_PHO
 10
8.46513
 20
9.28693
 30
0.0000
  0
SEQEND
  0
POLYLINE
  8
ASSEMBLY_PHO
 66
1
 10
0.0000
 20
0.0000
 30
0.0000
 40
0.0080
 41
0.0080
  0
VERTEX
  8
ASSEMBLY_PHO
 10
8.46513
 20
9.28693
 30
0.0000
  0
VERTEX
  8
ASSEMBLY_PHO
 10
8.46195
 20
9.29275
 30
0.0000
  0
VERTEX
  8
ASSEMBLY_PHO
 10
8.45718
 20
9.29468
 30
0.0000
  0
SEQEND
  0
POLYLINE
  8
ASSEMBLY_PHO
 66
1
 10
0.0000
 20
0.0000
 30
0.0000
 40
0.0080
 41
0.0080
  0
VERTEX
  8
ASSEMBLY_PHO
 10
8.45718
 20
9.29468
 30
0.0000
  0
VERTEX
  8
ASSEMBLY_PHO
 10
8.4540
 20
9.29468
 30
0.0000
  0
SEQEND
  0
POLYLINE
  8
ASSEMBLY_PHO
 66
1
 10
0.0000
 20
0.0000
 30
0.0000
 40
0.0080
 41
0.0080
  0
VERTEX
  8
ASSEMBLY_PHO
 10
8.48104
 20
9.28693
 30
0.0000
  0
VERTEX
  8
ASSEMBLY_PHO
 10
8.48422
 20
9.28887
 30
0.0000
  0
SEQEND
  0
POLYLINE
  8
ASSEMBLY_PHO
 66
1
 10
0.0000
 20
0.0000
 30
0.0000
 40
0.0080
 41
0.0080
  0
VERTEX
  8
ASSEMBLY_PHO
 10
8.48422
 20
9.28887
 30
0.0000
  0
VERTEX
  8
ASSEMBLY_PHO
 10
8.4890
 20
9.29468
 30
0.0000
  0
SEQEND
  0
POLYLINE
  8
ASSEMBLY_PHO
 66
1
 10
0.0000
 20
0.0000
 30
0.0000
 40
0.0080
 41
0.0080
  0
VERTEX
  8
ASSEMBLY_PHO
 10
8.4890
 20
9.29468
 30
0.0000
  0
VERTEX
  8
ASSEMBLY_PHO
 10
8.4890
 20
9.2540
 30
0.0000
  0
SEQEND
  0
POLYLINE
  8
ASSEMBLY_PHO
 66
1
 10
0.0000
 20
0.0000
 30
0.0000
 40
0.0080
 41
0.0080
  0
VERTEX
  8
ASSEMBLY_PHO
 10
8.5399
 20
9.29468
 30
0.0000
  0
VERTEX
  8
ASSEMBLY_PHO
 10
8.5399
 20
9.2540
 30
0.0000
  0
SEQEND
  0
POLYLINE
  8
ASSEMBLY_PHO
 66
1
 10
0.0000
 20
0.0000
 30
0.0000
 40
0.0080
 41
0.0080
  0
VERTEX
  8
ASSEMBLY_PHO
 10
8.5399
 20
9.29468
 30
0.0000
  0
VERTEX
  8
ASSEMBLY_PHO
 10
8.55422
 20
9.29468
 30
0.0000
  0
SEQEND
  0
POLYLINE
  8
ASSEMBLY_PHO
 66
1
 10
0.0000
 20
0.0000
 30
0.0000
 40
0.0080
 41
0.0080
  0
VERTEX
  8
ASSEMBLY_PHO
 10
8.55422
 20
9.29468
 30
0.0000
  0
VERTEX
  8
ASSEMBLY_PHO
 10
8.5590
 20
9.29275
 30
0.0000
  0
VERTEX
  8
ASSEMBLY_PHO
 10
8.56059
 20
9.29081
 30
0.0000
  0
VERTEX
  8
ASSEMBLY_PHO
 10
8.56218
 20
9.28693
 30
0.0000
  0
SEQEND
  0
POLYLINE
  8
ASSEMBLY_PHO
 66
1
 10
0.0000
 20
0.0000
 30
0.0000
 40
0.0080
 41
0.0080
  0
VERTEX
  8
ASSEMBLY_PHO
 10
8.56218
 20
9.28693
 30
0.0000
  0
VERTEX
  8
ASSEMBLY_PHO
 10
8.56218
 20
9.28306
 30
0.0000
  0
VERTEX
  8
ASSEMBLY_PHO
 10
8.56059
 20
9.27918
 30
0.0000
  0
SEQEND
  0
POLYLINE
  8
ASSEMBLY_PHO
 66
1
 10
0.0000
 20
0.0000
 30
0.0000
 40
0.0080
 41
0.0080
  0
VERTEX
  8
ASSEMBLY_PHO
 10
8.56059
 20
9.27918
 30
0.0000
  0
VERTEX
  8
ASSEMBLY_PHO
 10
8.5590
 20
9.27725
 30
0.0000
  0
VERTEX
  8
ASSEMBLY_PHO
 10
8.55422
 20
9.27531
 30
0.0000
  0
SEQEND
  0
POLYLINE
  8
ASSEMBLY_PHO
 66
1
 10
0.0000
 20
0.0000
 30
0.0000
 40
0.0080
 41
0.0080
  0
VERTEX
  8
ASSEMBLY_PHO
 10
8.55422
 20
9.27531
 30
0.0000
  0
VERTEX
  8
ASSEMBLY_PHO
 10
8.5399
 20
9.27531
 30
0.0000
  0
SEQEND
  0
POLYLINE
  8
ASSEMBLY_PHO
 66
1
 10
0.0000
 20
0.0000
 30
0.0000
 40
0.0080
 41
0.0080
  0
VERTEX
  8
ASSEMBLY_PHO
 10
8.55104
 20
9.27531
 30
0.0000
  0
VERTEX
  8
ASSEMBLY_PHO
 10
8.56218
 20
9.2540
 30
0.0000
  0
SEQEND
  0
POLYLINE
  8
ASSEMBLY_PHO
 66
1
 10
0.0000
 20
0.0000
 30
0.0000
 40
0.0080
 41
0.0080
  0
VERTEX
  8
ASSEMBLY_PHO
 10
8.5765
 20
9.29468
 30
0.0000
  0
VERTEX
  8
ASSEMBLY_PHO
 10
8.5765
 20
9.2540
 30
0.0000
  0
SEQEND
  0
POLYLINE
  8
ASSEMBLY_PHO
 66
1
 10
0.0000
 20
0.0000
 30
0.0000
 40
0.0080
 41
0.0080
  0
VERTEX
  8
ASSEMBLY_PHO
 10
8.5765
 20
9.29468
 30
0.0000
  0
VERTEX
  8
ASSEMBLY_PHO
 10
8.59718
 20
9.29468
 30
0.0000
  0
SEQEND
  0
POLYLINE
  8
ASSEMBLY_PHO
 66
1
 10
0.0000
 20
0.0000
 30
0.0000
 40
0.0080
 41
0.0080
  0
VERTEX
  8
ASSEMBLY_PHO
 10
8.5765
 20
9.27531
 30
0.0000
  0
VERTEX
  8
ASSEMBLY_PHO
 10
8.58922
 20
9.27531
 30
0.0000
  0
SEQEND
  0
POLYLINE
  8
ASSEMBLY_PHO
 66
1
 10
0.0000
 20
0.0000
 30
0.0000
 40
0.0080
 41
0.0080
  0
VERTEX
  8
ASSEMBLY_PHO
 10
8.5765
 20
9.2540
 30
0.0000
  0
VERTEX
  8
ASSEMBLY_PHO
 10
8.59718
 20
9.2540
 30
0.0000
  0
SEQEND
  0
POLYLINE
  8
ASSEMBLY_PHO
 66
1
 10
0.0000
 20
0.0000
 30
0.0000
 40
0.0080
 41
0.0080
  0
VERTEX
  8
ASSEMBLY_PHO
 10
8.6115
 20
9.29468
 30
0.0000
  0
VERTEX
  8
ASSEMBLY_PHO
 10
8.62422
 20
9.2540
 30
0.0000
  0
SEQEND
  0
POLYLINE
  8
ASSEMBLY_PHO
 66
1
 10
0.0000
 20
0.0000
 30
0.0000
 40
0.0080
 41
0.0080
  0
VERTEX
  8
ASSEMBLY_PHO
 10
8.63695
 20
9.29468
 30
0.0000
  0
VERTEX
  8
ASSEMBLY_PHO
 10
8.62422
 20
9.2540
 30
0.0000
  0
SEQEND
  0
POLYLINE
  8
ASSEMBLY_PHO
 66
1
 10
0.0000
 20
0.0000
 30
0.0000
 40
0.0080
 41
0.0080
  0
VERTEX
  8
ASSEMBLY_PHO
 10
8.68786
 20
9.28693
 30
0.0000
  0
VERTEX
  8
ASSEMBLY_PHO
 10
8.69104
 20
9.28887
 30
0.0000
  0
SEQEND
  0
POLYLINE
  8
ASSEMBLY_PHO
 66
1
 10
0.0000
 20
0.0000
 30
0.0000
 40
0.0080
 41
0.0080
  0
VERTEX
  8
ASSEMBLY_PHO
 10
8.69104
 20
9.28887
 30
0.0000
  0
VERTEX
  8
ASSEMBLY_PHO
 10
8.69581
 20
9.29468
 30
0.0000
  0
SEQEND
  0
POLYLINE
  8
ASSEMBLY_PHO
 66
1
 10
0.0000
 20
0.0000
 30
0.0000
 40
0.0080
 41
0.0080
  0
VERTEX
  8
ASSEMBLY_PHO
 10
8.69581
 20
9.29468
 30
0.0000
  0
VERTEX
  8
ASSEMBLY_PHO
 10
8.69581
 20
9.2540
 30
0.0000
  0
SEQEND
  0
POLYLINE
  8
ASSEMBLY_PHO
 66
1
 10
0.0000
 20
0.0000
 30
0.0000
 40
0.0080
 41
0.0080
  0
VERTEX
  8
ASSEMBLY_PHO
 10
8.35286
 20
9.6600
 30
0.0000
  0
VERTEX
  8
ASSEMBLY_PHO
 10
8.35127
 20
9.66387
 30
0.0000
  0
SEQEND
  0
POLYLINE
  8
ASSEMBLY_PHO
 66
1
 10
0.0000
 20
0.0000
 30
0.0000
 40
0.0080
 41
0.0080
  0
VERTEX
  8
ASSEMBLY_PHO
 10
8.35127
 20
9.66387
 30
0.0000
  0
VERTEX
  8
ASSEMBLY_PHO
 10
8.34809
 20
9.66775
 30
0.0000
  0
VERTEX
  8
ASSEMBLY_PHO
 10
8.3449
 20
9.66968
 30
0.0000
  0
SEQEND
  0
POLYLINE
  8
ASSEMBLY_PHO
 66
1
 10
0.0000
 20
0.0000
 30
0.0000
 40
0.0080
 41
0.0080
  0
VERTEX
  8
ASSEMBLY_PHO
 10
8.3449
 20
9.66968
 30
0.0000
  0
VERTEX
  8
ASSEMBLY_PHO
 10
8.33854
 20
9.66968
 30
0.0000
  0
SEQEND
  0
POLYLINE
  8
ASSEMBLY_PHO
 66
1
 10
0.0000
 20
0.0000
 30
0.0000
 40
0.0080
 41
0.0080
  0
VERTEX
  8
ASSEMBLY_PHO
 10
8.33854
 20
9.66968
 30
0.0000
  0
VERTEX
  8
ASSEMBLY_PHO
 10
8.33536
 20
9.66775
 30
0.0000
  0
VERTEX
  8
ASSEMBLY_PHO
 10
8.33218
 20
9.66387
 30
0.0000
  0
SEQEND
  0
POLYLINE
  8
ASSEMBLY_PHO
 66
1
 10
0.0000
 20
0.0000
 30
0.0000
 40
0.0080
 41
0.0080
  0
VERTEX
  8
ASSEMBLY_PHO
 10
8.33218
 20
9.66387
 30
0.0000
  0
VERTEX
  8
ASSEMBLY_PHO
 10
8.33059
 20
9.6600
 30
0.0000
  0
VERTEX
  8
ASSEMBLY_PHO
 10
8.3290
 20
9.65418
 30
0.0000
  0
SEQEND
  0
POLYLINE
  8
ASSEMBLY_PHO
 66
1
 10
0.0000
 20
0.0000
 30
0.0000
 40
0.0080
 41
0.0080
  0
VERTEX
  8
ASSEMBLY_PHO
 10
8.3290
 20
9.65418
 30
0.0000
  0
VERTEX
  8
ASSEMBLY_PHO
 10
8.3290
 20
9.6445
 30
0.0000
  0
VERTEX
  8
ASSEMBLY_PHO
 10
8.33059
 20
9.63868
 30
0.0000
  0
SEQEND
  0
POLYLINE
  8
ASSEMBLY_PHO
 66
1
 10
0.0000
 20
0.0000
 30
0.0000
 40
0.0080
 41
0.0080
  0
VERTEX
  8
ASSEMBLY_PHO
 10
8.33059
 20
9.63868
 30
0.0000
  0
VERTEX
  8
ASSEMBLY_PHO
 10
8.33218
 20
9.63481
 30
0.0000
  0
VERTEX
  8
ASSEMBLY_PHO
 10
8.33536
 20
9.63093
 30
0.0000
  0
SEQEND
  0
POLYLINE
  8
ASSEMBLY_PHO
 66
1
 10
0.0000
 20
0.0000
 30
0.0000
 40
0.0080
 41
0.0080
  0
VERTEX
  8
ASSEMBLY_PHO
 10
8.33536
 20
9.63093
 30
0.0000
  0
VERTEX
  8
ASSEMBLY_PHO
 10
8.33854
 20
9.6290
 30
0.0000
  0
SEQEND
  0
POLYLINE
  8
ASSEMBLY_PHO
 66
1
 10
0.0000
 20
0.0000
 30
0.0000
 40
0.0080
 41
0.0080
  0
VERTEX
  8
ASSEMBLY_PHO
 10
8.33854
 20
9.6290
 30
0.0000
  0
VERTEX
  8
ASSEMBLY_PHO
 10
8.3449
 20
9.6290
 30
0.0000
  0
SEQEND
  0
POLYLINE
  8
ASSEMBLY_PHO
 66
1
 10
0.0000
 20
0.0000
 30
0.0000
 40
0.0080
 41
0.0080
  0
VERTEX
  8
ASSEMBLY_PHO
 10
8.3449
 20
9.6290
 30
0.0000
  0
VERTEX
  8
ASSEMBLY_PHO
 10
8.34809
 20
9.63093
 30
0.0000
  0
SEQEND
  0
POLYLINE
  8
ASSEMBLY_PHO
 66
1
 10
0.0000
 20
0.0000
 30
0.0000
 40
0.0080
 41
0.0080
  0
VERTEX
  8
ASSEMBLY_PHO
 10
8.34809
 20
9.63093
 30
0.0000
  0
VERTEX
  8
ASSEMBLY_PHO
 10
8.35127
 20
9.63481
 30
0.0000
  0
VERTEX
  8
ASSEMBLY_PHO
 10
8.35286
 20
9.63868
 30
0.0000
  0
SEQEND
  0
POLYLINE
  8
ASSEMBLY_PHO
 66
1
 10
0.0000
 20
0.0000
 30
0.0000
 40
0.0080
 41
0.0080
  0
VERTEX
  8
ASSEMBLY_PHO
 10
8.35286
 20
9.63868
 30
0.0000
  0
VERTEX
  8
ASSEMBLY_PHO
 10
8.35286
 20
9.6445
 30
0.0000
  0
SEQEND
  0
POLYLINE
  8
ASSEMBLY_PHO
 66
1
 10
0.0000
 20
0.0000
 30
0.0000
 40
0.0080
 41
0.0080
  0
VERTEX
  8
ASSEMBLY_PHO
 10
8.3449
 20
9.6445
 30
0.0000
  0
VERTEX
  8
ASSEMBLY_PHO
 10
8.35286
 20
9.6445
 30
0.0000
  0
SEQEND
  0
POLYLINE
  8
ASSEMBLY_PHO
 66
1
 10
0.0000
 20
0.0000
 30
0.0000
 40
0.0080
 41
0.0080
  0
VERTEX
  8
ASSEMBLY_PHO
 10
8.36718
 20
9.66968
 30
0.0000
  0
VERTEX
  8
ASSEMBLY_PHO
 10
8.36718
 20
9.6290
 30
0.0000
  0
SEQEND
  0
POLYLINE
  8
ASSEMBLY_PHO
 66
1
 10
0.0000
 20
0.0000
 30
0.0000
 40
0.0080
 41
0.0080
  0
VERTEX
  8
ASSEMBLY_PHO
 10
8.36718
 20
9.66968
 30
0.0000
  0
VERTEX
  8
ASSEMBLY_PHO
 10
8.38786
 20
9.66968
 30
0.0000
  0
SEQEND
  0
POLYLINE
  8
ASSEMBLY_PHO
 66
1
 10
0.0000
 20
0.0000
 30
0.0000
 40
0.0080
 41
0.0080
  0
VERTEX
  8
ASSEMBLY_PHO
 10
8.36718
 20
9.65031
 30
0.0000
  0
VERTEX
  8
ASSEMBLY_PHO
 10
8.3799
 20
9.65031
 30
0.0000
  0
SEQEND
  0
POLYLINE
  8
ASSEMBLY_PHO
 66
1
 10
0.0000
 20
0.0000
 30
0.0000
 40
0.0080
 41
0.0080
  0
VERTEX
  8
ASSEMBLY_PHO
 10
8.36718
 20
9.6290
 30
0.0000
  0
VERTEX
  8
ASSEMBLY_PHO
 10
8.38786
 20
9.6290
 30
0.0000
  0
SEQEND
  0
POLYLINE
  8
ASSEMBLY_PHO
 66
1
 10
0.0000
 20
0.0000
 30
0.0000
 40
0.0080
 41
0.0080
  0
VERTEX
  8
ASSEMBLY_PHO
 10
8.40218
 20
9.66968
 30
0.0000
  0
VERTEX
  8
ASSEMBLY_PHO
 10
8.40218
 20
9.6290
 30
0.0000
  0
SEQEND
  0
POLYLINE
  8
ASSEMBLY_PHO
 66
1
 10
0.0000
 20
0.0000
 30
0.0000
 40
0.0080
 41
0.0080
  0
VERTEX
  8
ASSEMBLY_PHO
 10
8.40218
 20
9.66968
 30
0.0000
  0
VERTEX
  8
ASSEMBLY_PHO
 10
8.42445
 20
9.6290
 30
0.0000
  0
SEQEND
  0
POLYLINE
  8
ASSEMBLY_PHO
 66
1
 10
0.0000
 20
0.0000
 30
0.0000
 40
0.0080
 41
0.0080
  0
VERTEX
  8
ASSEMBLY_PHO
 10
8.42445
 20
9.66968
 30
0.0000
  0
VERTEX
  8
ASSEMBLY_PHO
 10
8.42445
 20
9.6290
 30
0.0000
  0
SEQEND
  0
POLYLINE
  8
ASSEMBLY_PHO
 66
1
 10
0.0000
 20
0.0000
 30
0.0000
 40
0.0080
 41
0.0080
  0
VERTEX
  8
ASSEMBLY_PHO
 10
8.4499
 20
9.66968
 30
0.0000
  0
VERTEX
  8
ASSEMBLY_PHO
 10
8.4499
 20
9.6290
 30
0.0000
  0
SEQEND
  0
POLYLINE
  8
ASSEMBLY_PHO
 66
1
 10
0.0000
 20
0.0000
 30
0.0000
 40
0.0080
 41
0.0080
  0
VERTEX
  8
ASSEMBLY_PHO
 10
8.43877
 20
9.66968
 30
0.0000
  0
VERTEX
  8
ASSEMBLY_PHO
 10
8.46104
 20
9.66968
 30
0.0000
  0
SEQEND
  0
POLYLINE
  8
ASSEMBLY_PHO
 66
1
 10
0.0000
 20
0.0000
 30
0.0000
 40
0.0080
 41
0.0080
  0
VERTEX
  8
ASSEMBLY_PHO
 10
8.47536
 20
9.66968
 30
0.0000
  0
VERTEX
  8
ASSEMBLY_PHO
 10
8.47536
 20
9.64062
 30
0.0000
  0
SEQEND
  0
POLYLINE
  8
ASSEMBLY_PHO
 66
1
 10
0.0000
 20
0.0000
 30
0.0000
 40
0.0080
 41
0.0080
  0
VERTEX
  8
ASSEMBLY_PHO
 10
8.47536
 20
9.64062
 30
0.0000
  0
VERTEX
  8
ASSEMBLY_PHO
 10
8.47695
 20
9.63481
 30
0.0000
  0
VERTEX
  8
ASSEMBLY_PHO
 10
8.48013
 20
9.63093
 30
0.0000
  0
SEQEND
  0
POLYLINE
  8
ASSEMBLY_PHO
 66
1
 10
0.0000
 20
0.0000
 30
0.0000
 40
0.0080
 41
0.0080
  0
VERTEX
  8
ASSEMBLY_PHO
 10
8.48013
 20
9.63093
 30
0.0000
  0
VERTEX
  8
ASSEMBLY_PHO
 10
8.4849
 20
9.6290
 30
0.0000
  0
SEQEND
  0
POLYLINE
  8
ASSEMBLY_PHO
 66
1
 10
0.0000
 20
0.0000
 30
0.0000
 40
0.0080
 41
0.0080
  0
VERTEX
  8
ASSEMBLY_PHO
 10
8.4849
 20
9.6290
 30
0.0000
  0
VERTEX
  8
ASSEMBLY_PHO
 10
8.48809
 20
9.6290
 30
0.0000
  0
VERTEX
  8
ASSEMBLY_PHO
 10
8.49286
 20
9.63093
 30
0.0000
  0
SEQEND
  0
POLYLINE
  8
ASSEMBLY_PHO
 66
1
 10
0.0000
 20
0.0000
 30
0.0000
 40
0.0080
 41
0.0080
  0
VERTEX
  8
ASSEMBLY_PHO
 10
8.49286
 20
9.63093
 30
0.0000
  0
VERTEX
  8
ASSEMBLY_PHO
 10
8.49604
 20
9.63481
 30
0.0000
  0
SEQEND
  0
POLYLINE
  8
ASSEMBLY_PHO
 66
1
 10
0.0000
 20
0.0000
 30
0.0000
 40
0.0080
 41
0.0080
  0
VERTEX
  8
ASSEMBLY_PHO
 10
8.49604
 20
9.63481
 30
0.0000
  0
VERTEX
  8
ASSEMBLY_PHO
 10
8.49763
 20
9.64062
 30
0.0000
  0
SEQEND
  0
POLYLINE
  8
ASSEMBLY_PHO
 66
1
 10
0.0000
 20
0.0000
 30
0.0000
 40
0.0080
 41
0.0080
  0
VERTEX
  8
ASSEMBLY_PHO
 10
8.49763
 20
9.64062
 30
0.0000
  0
VERTEX
  8
ASSEMBLY_PHO
 10
8.49763
 20
9.66968
 30
0.0000
  0
SEQEND
  0
POLYLINE
  8
ASSEMBLY_PHO
 66
1
 10
0.0000
 20
0.0000
 30
0.0000
 40
0.0080
 41
0.0080
  0
VERTEX
  8
ASSEMBLY_PHO
 10
8.51195
 20
9.66968
 30
0.0000
  0
VERTEX
  8
ASSEMBLY_PHO
 10
8.51195
 20
9.6290
 30
0.0000
  0
SEQEND
  0
POLYLINE
  8
ASSEMBLY_PHO
 66
1
 10
0.0000
 20
0.0000
 30
0.0000
 40
0.0080
 41
0.0080
  0
VERTEX
  8
ASSEMBLY_PHO
 10
8.51195
 20
9.66968
 30
0.0000
  0
VERTEX
  8
ASSEMBLY_PHO
 10
8.52627
 20
9.66968
 30
0.0000
  0
SEQEND
  0
POLYLINE
  8
ASSEMBLY_PHO
 66
1
 10
0.0000
 20
0.0000
 30
0.0000
 40
0.0080
 41
0.0080
  0
VERTEX
  8
ASSEMBLY_PHO
 10
8.52627
 20
9.66968
 30
0.0000
  0
VERTEX
  8
ASSEMBLY_PHO
 10
8.53104
 20
9.66775
 30
0.0000
  0
SEQEND
  0
POLYLINE
  8
ASSEMBLY_PHO
 66
1
 10
0.0000
 20
0.0000
 30
0.0000
 40
0.0080
 41
0.0080
  0
VERTEX
  8
ASSEMBLY_PHO
 10
8.53104
 20
9.66775
 30
0.0000
  0
VERTEX
  8
ASSEMBLY_PHO
 10
8.53263
 20
9.66581
 30
0.0000
  0
SEQEND
  0
POLYLINE
  8
ASSEMBLY_PHO
 66
1
 10
0.0000
 20
0.0000
 30
0.0000
 40
0.0080
 41
0.0080
  0
VERTEX
  8
ASSEMBLY_PHO
 10
8.53263
 20
9.66581
 30
0.0000
  0
VERTEX
  8
ASSEMBLY_PHO
 10
8.53422
 20
9.66193
 30
0.0000
  0
SEQEND
  0
POLYLINE
  8
ASSEMBLY_PHO
 66
1
 10
0.0000
 20
0.0000
 30
0.0000
 40
0.0080
 41
0.0080
  0
VERTEX
  8
ASSEMBLY_PHO
 10
8.53422
 20
9.66193
 30
0.0000
  0
VERTEX
  8
ASSEMBLY_PHO
 10
8.53422
 20
9.65806
 30
0.0000
  0
SEQEND
  0
POLYLINE
  8
ASSEMBLY_PHO
 66
1
 10
0.0000
 20
0.0000
 30
0.0000
 40
0.0080
 41
0.0080
  0
VERTEX
  8
ASSEMBLY_PHO
 10
8.53422
 20
9.65806
 30
0.0000
  0
VERTEX
  8
ASSEMBLY_PHO
 10
8.53263
 20
9.65418
 30
0.0000
  0
SEQEND
  0
POLYLINE
  8
ASSEMBLY_PHO
 66
1
 10
0.0000
 20
0.0000
 30
0.0000
 40
0.0080
 41
0.0080
  0
VERTEX
  8
ASSEMBLY_PHO
 10
8.53263
 20
9.65418
 30
0.0000
  0
VERTEX
  8
ASSEMBLY_PHO
 10
8.53104
 20
9.65225
 30
0.0000
  0
SEQEND
  0
POLYLINE
  8
ASSEMBLY_PHO
 66
1
 10
0.0000
 20
0.0000
 30
0.0000
 40
0.0080
 41
0.0080
  0
VERTEX
  8
ASSEMBLY_PHO
 10
8.53104
 20
9.65225
 30
0.0000
  0
VERTEX
  8
ASSEMBLY_PHO
 10
8.52627
 20
9.65031
 30
0.0000
  0
VERTEX
  8
ASSEMBLY_PHO
 10
8.51195
 20
9.65031
 30
0.0000
  0
SEQEND
  0
POLYLINE
  8
ASSEMBLY_PHO
 66
1
 10
0.0000
 20
0.0000
 30
0.0000
 40
0.0080
 41
0.0080
  0
VERTEX
  8
ASSEMBLY_PHO
 10
8.52309
 20
9.65031
 30
0.0000
  0
VERTEX
  8
ASSEMBLY_PHO
 10
8.53422
 20
9.6290
 30
0.0000
  0
SEQEND
  0
POLYLINE
  8
ASSEMBLY_PHO
 66
1
 10
0.0000
 20
0.0000
 30
0.0000
 40
0.0080
 41
0.0080
  0
VERTEX
  8
ASSEMBLY_PHO
 10
8.54854
 20
9.66968
 30
0.0000
  0
VERTEX
  8
ASSEMBLY_PHO
 10
8.54854
 20
9.6290
 30
0.0000
  0
SEQEND
  0
POLYLINE
  8
ASSEMBLY_PHO
 66
1
 10
0.0000
 20
0.0000
 30
0.0000
 40
0.0080
 41
0.0080
  0
VERTEX
  8
ASSEMBLY_PHO
 10
8.59945
 20
9.66968
 30
0.0000
  0
VERTEX
  8
ASSEMBLY_PHO
 10
8.59945
 20
9.6290
 30
0.0000
  0
SEQEND
  0
POLYLINE
  8
ASSEMBLY_PHO
 66
1
 10
0.0000
 20
0.0000
 30
0.0000
 40
0.0080
 41
0.0080
  0
VERTEX
  8
ASSEMBLY_PHO
 10
8.61377
 20
9.66968
 30
0.0000
  0
VERTEX
  8
ASSEMBLY_PHO
 10
8.61377
 20
9.6290
 30
0.0000
  0
SEQEND
  0
POLYLINE
  8
ASSEMBLY_PHO
 66
1
 10
0.0000
 20
0.0000
 30
0.0000
 40
0.0080
 41
0.0080
  0
VERTEX
  8
ASSEMBLY_PHO
 10
8.61377
 20
9.66968
 30
0.0000
  0
VERTEX
  8
ASSEMBLY_PHO
 10
8.63604
 20
9.6290
 30
0.0000
  0
SEQEND
  0
POLYLINE
  8
ASSEMBLY_PHO
 66
1
 10
0.0000
 20
0.0000
 30
0.0000
 40
0.0080
 41
0.0080
  0
VERTEX
  8
ASSEMBLY_PHO
 10
8.63604
 20
9.66968
 30
0.0000
  0
VERTEX
  8
ASSEMBLY_PHO
 10
8.63604
 20
9.6290
 30
0.0000
  0
SEQEND
  0
POLYLINE
  8
ASSEMBLY_PHO
 66
1
 10
0.0000
 20
0.0000
 30
0.0000
 40
0.0080
 41
0.0080
  0
VERTEX
  8
ASSEMBLY_PHO
 10
8.67422
 20
9.6600
 30
0.0000
  0
VERTEX
  8
ASSEMBLY_PHO
 10
8.67263
 20
9.66387
 30
0.0000
  0
SEQEND
  0
POLYLINE
  8
ASSEMBLY_PHO
 66
1
 10
0.0000
 20
0.0000
 30
0.0000
 40
0.0080
 41
0.0080
  0
VERTEX
  8
ASSEMBLY_PHO
 10
8.67263
 20
9.66387
 30
0.0000
  0
VERTEX
  8
ASSEMBLY_PHO
 10
8.66945
 20
9.66775
 30
0.0000
  0
VERTEX
  8
ASSEMBLY_PHO
 10
8.66627
 20
9.66968
 30
0.0000
  0
SEQEND
  0
POLYLINE
  8
ASSEMBLY_PHO
 66
1
 10
0.0000
 20
0.0000
 30
0.0000
 40
0.0080
 41
0.0080
  0
VERTEX
  8
ASSEMBLY_PHO
 10
8.66627
 20
9.66968
 30
0.0000
  0
VERTEX
  8
ASSEMBLY_PHO
 10
8.6599
 20
9.66968
 30
0.0000
  0
SEQEND
  0
POLYLINE
  8
ASSEMBLY_PHO
 66
1
 10
0.0000
 20
0.0000
 30
0.0000
 40
0.0080
 41
0.0080
  0
VERTEX
  8
ASSEMBLY_PHO
 10
8.6599
 20
9.66968
 30
0.0000
  0
VERTEX
  8
ASSEMBLY_PHO
 10
8.65672
 20
9.66775
 30
0.0000
  0
SEQEND
  0
POLYLINE
  8
ASSEMBLY_PHO
 66
1
 10
0.0000
 20
0.0000
 30
0.0000
 40
0.0080
 41
0.0080
  0
VERTEX
  8
ASSEMBLY_PHO
 10
8.65672
 20
9.66775
 30
0.0000
  0
VERTEX
  8
ASSEMBLY_PHO
 10
8.65354
 20
9.66387
 30
0.0000
  0
SEQEND
  0
POLYLINE
  8
ASSEMBLY_PHO
 66
1
 10
0.0000
 20
0.0000
 30
0.0000
 40
0.0080
 41
0.0080
  0
VERTEX
  8
ASSEMBLY_PHO
 10
8.65354
 20
9.66387
 30
0.0000
  0
VERTEX
  8
ASSEMBLY_PHO
 10
8.65195
 20
9.6600
 30
0.0000
  0
VERTEX
  8
ASSEMBLY_PHO
 10
8.65036
 20
9.65418
 30
0.0000
  0
SEQEND
  0
POLYLINE
  8
ASSEMBLY_PHO
 66
1
 10
0.0000
 20
0.0000
 30
0.0000
 40
0.0080
 41
0.0080
  0
VERTEX
  8
ASSEMBLY_PHO
 10
8.65036
 20
9.65418
 30
0.0000
  0
VERTEX
  8
ASSEMBLY_PHO
 10
8.65036
 20
9.6445
 30
0.0000
  0
VERTEX
  8
ASSEMBLY_PHO
 10
8.65195
 20
9.63868
 30
0.0000
  0
SEQEND
  0
POLYLINE
  8
ASSEMBLY_PHO
 66
1
 10
0.0000
 20
0.0000
 30
0.0000
 40
0.0080
 41
0.0080
  0
VERTEX
  8
ASSEMBLY_PHO
 10
8.65195
 20
9.63868
 30
0.0000
  0
VERTEX
  8
ASSEMBLY_PHO
 10
8.65354
 20
9.63481
 30
0.0000
  0
SEQEND
  0
POLYLINE
  8
ASSEMBLY_PHO
 66
1
 10
0.0000
 20
0.0000
 30
0.0000
 40
0.0080
 41
0.0080
  0
VERTEX
  8
ASSEMBLY_PHO
 10
8.65354
 20
9.63481
 30
0.0000
  0
VERTEX
  8
ASSEMBLY_PHO
 10
8.65672
 20
9.63093
 30
0.0000
  0
SEQEND
  0
POLYLINE
  8
ASSEMBLY_PHO
 66
1
 10
0.0000
 20
0.0000
 30
0.0000
 40
0.0080
 41
0.0080
  0
VERTEX
  8
ASSEMBLY_PHO
 10
8.65672
 20
9.63093
 30
0.0000
  0
VERTEX
  8
ASSEMBLY_PHO
 10
8.6599
 20
9.6290
 30
0.0000
  0
SEQEND
  0
POLYLINE
  8
ASSEMBLY_PHO
 66
1
 10
0.0000
 20
0.0000
 30
0.0000
 40
0.0080
 41
0.0080
  0
VERTEX
  8
ASSEMBLY_PHO
 10
8.6599
 20
9.6290
 30
0.0000
  0
VERTEX
  8
ASSEMBLY_PHO
 10
8.66627
 20
9.6290
 30
0.0000
  0
VERTEX
  8
ASSEMBLY_PHO
 10
8.66945
 20
9.63093
 30
0.0000
  0
SEQEND
  0
POLYLINE
  8
ASSEMBLY_PHO
 66
1
 10
0.0000
 20
0.0000
 30
0.0000
 40
0.0080
 41
0.0080
  0
VERTEX
  8
ASSEMBLY_PHO
 10
8.66945
 20
9.63093
 30
0.0000
  0
VERTEX
  8
ASSEMBLY_PHO
 10
8.67263
 20
9.63481
 30
0.0000
  0
SEQEND
  0
POLYLINE
  8
ASSEMBLY_PHO
 66
1
 10
0.0000
 20
0.0000
 30
0.0000
 40
0.0080
 41
0.0080
  0
VERTEX
  8
ASSEMBLY_PHO
 10
8.67263
 20
9.63481
 30
0.0000
  0
VERTEX
  8
ASSEMBLY_PHO
 10
8.67422
 20
9.63868
 30
0.0000
  0
SEQEND
  0
POLYLINE
  8
ASSEMBLY_PHO
 66
1
 10
0.0000
 20
0.0000
 30
0.0000
 40
0.0080
 41
0.0080
  0
VERTEX
  8
ASSEMBLY_PHO
 10
8.73036
 20
8.1045
 30
0.0000
  0
VERTEX
  8
ASSEMBLY_PHO
 10
8.73036
 20
8.0640
 30
0.0000
  0
SEQEND
  0
POLYLINE
  8
ASSEMBLY_PHO
 66
1
 10
0.0000
 20
0.0000
 30
0.0000
 40
0.0080
 41
0.0080
  0
VERTEX
  8
ASSEMBLY_PHO
 10
8.7140
 20
8.08425
 30
0.0000
  0
VERTEX
  8
ASSEMBLY_PHO
 10
8.74672
 20
8.08425
 30
0.0000
  0
SEQEND
  0
POLYLINE
  8
ASSEMBLY_PHO
 66
1
 10
0.0000
 20
0.0000
 30
0.0000
 40
0.0080
 41
0.0080
  0
VERTEX
  8
ASSEMBLY_PHO
 10
8.27536
 20
8.1095
 30
0.0000
  0
VERTEX
  8
ASSEMBLY_PHO
 10
8.27536
 20
8.0690
 30
0.0000
  0
SEQEND
  0
POLYLINE
  8
ASSEMBLY_PHO
 66
1
 10
0.0000
 20
0.0000
 30
0.0000
 40
0.0080
 41
0.0080
  0
VERTEX
  8
ASSEMBLY_PHO
 10
8.2590
 20
8.08925
 30
0.0000
  0
VERTEX
  8
ASSEMBLY_PHO
 10
8.29172
 20
8.08925
 30
0.0000
  0
SEQEND
  0
POLYLINE
  8
ASSEMBLY_PHO
 66
1
 10
0.0000
 20
0.0000
 30
0.0000
 40
0.0080
 41
0.0080
  0
VERTEX
  8
ASSEMBLY_PHO
 10
8.2590
 20
8.93925
 30
0.0000
  0
VERTEX
  8
ASSEMBLY_PHO
 10
8.29172
 20
8.93925
 30
0.0000
  0
SEQEND
  0
POLYLINE
  8
ASSEMBLY_PHO
 66
1
 10
0.0000
 20
0.0000
 30
0.0000
 40
0.0080
 41
0.0080
  0
VERTEX
  8
ASSEMBLY_PHO
 10
8.7140
 20
8.94925
 30
0.0000
  0
VERTEX
  8
ASSEMBLY_PHO
 10
8.74672
 20
8.94925
 30
0.0000
  0
SEQEND
  0
POLYLINE
  8
ASSEMBLY_PHO
 66
1
 10
0.0000
 20
0.0000
 30
0.0000
 40
0.0080
 41
0.0080
  0
VERTEX
  8
ASSEMBLY_PHO
 10
8.11672
 20
9.39468
 30
0.0000
  0
VERTEX
  8
ASSEMBLY_PHO
 10
8.1040
 20
9.3540
 30
0.0000
  0
SEQEND
  0
POLYLINE
  8
ASSEMBLY_PHO
 66
1
 10
0.0000
 20
0.0000
 30
0.0000
 40
0.0080
 41
0.0080
  0
VERTEX
  8
ASSEMBLY_PHO
 10
8.11672
 20
9.39468
 30
0.0000
  0
VERTEX
  8
ASSEMBLY_PHO
 10
8.12945
 20
9.3540
 30
0.0000
  0
SEQEND
  0
POLYLINE
  8
ASSEMBLY_PHO
 66
1
 10
0.0000
 20
0.0000
 30
0.0000
 40
0.0080
 41
0.0080
  0
VERTEX
  8
ASSEMBLY_PHO
 10
8.10877
 20
9.36756
 30
0.0000
  0
VERTEX
  8
ASSEMBLY_PHO
 10
8.12468
 20
9.36756
 30
0.0000
  0
SEQEND
  0
POLYLINE
  8
ASSEMBLY_PHO
 66
1
 10
0.0000
 20
0.0000
 30
0.0000
 40
0.0080
 41
0.0080
  0
VERTEX
  8
ASSEMBLY_PHO
 10
8.16604
 20
9.38887
 30
0.0000
  0
VERTEX
  8
ASSEMBLY_PHO
 10
8.16286
 20
9.39275
 30
0.0000
  0
VERTEX
  8
ASSEMBLY_PHO
 10
8.15809
 20
9.39468
 30
0.0000
  0
SEQEND
  0
POLYLINE
  8
ASSEMBLY_PHO
 66
1
 10
0.0000
 20
0.0000
 30
0.0000
 40
0.0080
 41
0.0080
  0
VERTEX
  8
ASSEMBLY_PHO
 10
8.15809
 20
9.39468
 30
0.0000
  0
VERTEX
  8
ASSEMBLY_PHO
 10
8.15172
 20
9.39468
 30
0.0000
  0
SEQEND
  0
POLYLINE
  8
ASSEMBLY_PHO
 66
1
 10
0.0000
 20
0.0000
 30
0.0000
 40
0.0080
 41
0.0080
  0
VERTEX
  8
ASSEMBLY_PHO
 10
8.15172
 20
9.39468
 30
0.0000
  0
VERTEX
  8
ASSEMBLY_PHO
 10
8.14695
 20
9.39275
 30
0.0000
  0
VERTEX
  8
ASSEMBLY_PHO
 10
8.14377
 20
9.38887
 30
0.0000
  0
SEQEND
  0
POLYLINE
  8
ASSEMBLY_PHO
 66
1
 10
0.0000
 20
0.0000
 30
0.0000
 40
0.0080
 41
0.0080
  0
VERTEX
  8
ASSEMBLY_PHO
 10
8.14377
 20
9.38887
 30
0.0000
  0
VERTEX
  8
ASSEMBLY_PHO
 10
8.14377
 20
9.3850
 30
0.0000
  0
VERTEX
  8
ASSEMBLY_PHO
 10
8.14536
 20
9.38112
 30
0.0000
  0
SEQEND
  0
POLYLINE
  8
ASSEMBLY_PHO
 66
1
 10
0.0000
 20
0.0000
 30
0.0000
 40
0.0080
 41
0.0080
  0
VERTEX
  8
ASSEMBLY_PHO
 10
8.14536
 20
9.38112
 30
0.0000
  0
VERTEX
  8
ASSEMBLY_PHO
 10
8.14695
 20
9.37918
 30
0.0000
  0
SEQEND
  0
POLYLINE
  8
ASSEMBLY_PHO
 66
1
 10
0.0000
 20
0.0000
 30
0.0000
 40
0.0080
 41
0.0080
  0
VERTEX
  8
ASSEMBLY_PHO
 10
8.14695
 20
9.37918
 30
0.0000
  0
VERTEX
  8
ASSEMBLY_PHO
 10
8.15013
 20
9.37725
 30
0.0000
  0
SEQEND
  0
POLYLINE
  8
ASSEMBLY_PHO
 66
1
 10
0.0000
 20
0.0000
 30
0.0000
 40
0.0080
 41
0.0080
  0
VERTEX
  8
ASSEMBLY_PHO
 10
8.15013
 20
9.37725
 30
0.0000
  0
VERTEX
  8
ASSEMBLY_PHO
 10
8.15968
 20
9.37337
 30
0.0000
  0
SEQEND
  0
POLYLINE
  8
ASSEMBLY_PHO
 66
1
 10
0.0000
 20
0.0000
 30
0.0000
 40
0.0080
 41
0.0080
  0
VERTEX
  8
ASSEMBLY_PHO
 10
8.15968
 20
9.37337
 30
0.0000
  0
VERTEX
  8
ASSEMBLY_PHO
 10
8.16286
 20
9.37143
 30
0.0000
  0
SEQEND
  0
POLYLINE
  8
ASSEMBLY_PHO
 66
1
 10
0.0000
 20
0.0000
 30
0.0000
 40
0.0080
 41
0.0080
  0
VERTEX
  8
ASSEMBLY_PHO
 10
8.16286
 20
9.37143
 30
0.0000
  0
VERTEX
  8
ASSEMBLY_PHO
 10
8.16445
 20
9.3695
 30
0.0000
  0
VERTEX
  8
ASSEMBLY_PHO
 10
8.16604
 20
9.36562
 30
0.0000
  0
SEQEND
  0
POLYLINE
  8
ASSEMBLY_PHO
 66
1
 10
0.0000
 20
0.0000
 30
0.0000
 40
0.0080
 41
0.0080
  0
VERTEX
  8
ASSEMBLY_PHO
 10
8.16604
 20
9.36562
 30
0.0000
  0
VERTEX
  8
ASSEMBLY_PHO
 10
8.16604
 20
9.35981
 30
0.0000
  0
SEQEND
  0
POLYLINE
  8
ASSEMBLY_PHO
 66
1
 10
0.0000
 20
0.0000
 30
0.0000
 40
0.0080
 41
0.0080
  0
VERTEX
  8
ASSEMBLY_PHO
 10
8.16604
 20
9.35981
 30
0.0000
  0
VERTEX
  8
ASSEMBLY_PHO
 10
8.16286
 20
9.35593
 30
0.0000
  0
SEQEND
  0
POLYLINE
  8
ASSEMBLY_PHO
 66
1
 10
0.0000
 20
0.0000
 30
0.0000
 40
0.0080
 41
0.0080
  0
VERTEX
  8
ASSEMBLY_PHO
 10
8.16286
 20
9.35593
 30
0.0000
  0
VERTEX
  8
ASSEMBLY_PHO
 10
8.15809
 20
9.3540
 30
0.0000
  0
VERTEX
  8
ASSEMBLY_PHO
 10
8.15172
 20
9.3540
 30
0.0000
  0
SEQEND
  0
POLYLINE
  8
ASSEMBLY_PHO
 66
1
 10
0.0000
 20
0.0000
 30
0.0000
 40
0.0080
 41
0.0080
  0
VERTEX
  8
ASSEMBLY_PHO
 10
8.15172
 20
9.3540
 30
0.0000
  0
VERTEX
  8
ASSEMBLY_PHO
 10
8.14695
 20
9.35593
 30
0.0000
  0
SEQEND
  0
POLYLINE
  8
ASSEMBLY_PHO
 66
1
 10
0.0000
 20
0.0000
 30
0.0000
 40
0.0080
 41
0.0080
  0
VERTEX
  8
ASSEMBLY_PHO
 10
8.14695
 20
9.35593
 30
0.0000
  0
VERTEX
  8
ASSEMBLY_PHO
 10
8.14377
 20
9.35981
 30
0.0000
  0
SEQEND
  0
POLYLINE
  8
ASSEMBLY_PHO
 66
1
 10
0.0000
 20
0.0000
 30
0.0000
 40
0.0080
 41
0.0080
  0
VERTEX
  8
ASSEMBLY_PHO
 10
8.20263
 20
9.38887
 30
0.0000
  0
VERTEX
  8
ASSEMBLY_PHO
 10
8.19945
 20
9.39275
 30
0.0000
  0
VERTEX
  8
ASSEMBLY_PHO
 10
8.19468
 20
9.39468
 30
0.0000
  0
SEQEND
  0
POLYLINE
  8
ASSEMBLY_PHO
 66
1
 10
0.0000
 20
0.0000
 30
0.0000
 40
0.0080
 41
0.0080
  0
VERTEX
  8
ASSEMBLY_PHO
 10
8.19468
 20
9.39468
 30
0.0000
  0
VERTEX
  8
ASSEMBLY_PHO
 10
8.18831
 20
9.39468
 30
0.0000
  0
SEQEND
  0
POLYLINE
  8
ASSEMBLY_PHO
 66
1
 10
0.0000
 20
0.0000
 30
0.0000
 40
0.0080
 41
0.0080
  0
VERTEX
  8
ASSEMBLY_PHO
 10
8.18831
 20
9.39468
 30
0.0000
  0
VERTEX
  8
ASSEMBLY_PHO
 10
8.18354
 20
9.39275
 30
0.0000
  0
SEQEND
  0
POLYLINE
  8
ASSEMBLY_PHO
 66
1
 10
0.0000
 20
0.0000
 30
0.0000
 40
0.0080
 41
0.0080
  0
VERTEX
  8
ASSEMBLY_PHO
 10
8.18354
 20
9.39275
 30
0.0000
  0
VERTEX
  8
ASSEMBLY_PHO
 10
8.18036
 20
9.38887
 30
0.0000
  0
SEQEND
  0
POLYLINE
  8
ASSEMBLY_PHO
 66
1
 10
0.0000
 20
0.0000
 30
0.0000
 40
0.0080
 41
0.0080
  0
VERTEX
  8
ASSEMBLY_PHO
 10
8.18036
 20
9.38887
 30
0.0000
  0
VERTEX
  8
ASSEMBLY_PHO
 10
8.18036
 20
9.3850
 30
0.0000
  0
VERTEX
  8
ASSEMBLY_PHO
 10
8.18195
 20
9.38112
 30
0.0000
  0
SEQEND
  0
POLYLINE
  8
ASSEMBLY_PHO
 66
1
 10
0.0000
 20
0.0000
 30
0.0000
 40
0.0080
 41
0.0080
  0
VERTEX
  8
ASSEMBLY_PHO
 10
8.18195
 20
9.38112
 30
0.0000
  0
VERTEX
  8
ASSEMBLY_PHO
 10
8.18354
 20
9.37918
 30
0.0000
  0
SEQEND
  0
POLYLINE
  8
ASSEMBLY_PHO
 66
1
 10
0.0000
 20
0.0000
 30
0.0000
 40
0.0080
 41
0.0080
  0
VERTEX
  8
ASSEMBLY_PHO
 10
8.18354
 20
9.37918
 30
0.0000
  0
VERTEX
  8
ASSEMBLY_PHO
 10
8.18672
 20
9.37725
 30
0.0000
  0
SEQEND
  0
POLYLINE
  8
ASSEMBLY_PHO
 66
1
 10
0.0000
 20
0.0000
 30
0.0000
 40
0.0080
 41
0.0080
  0
VERTEX
  8
ASSEMBLY_PHO
 10
8.18672
 20
9.37725
 30
0.0000
  0
VERTEX
  8
ASSEMBLY_PHO
 10
8.19627
 20
9.37337
 30
0.0000
  0
SEQEND
  0
POLYLINE
  8
ASSEMBLY_PHO
 66
1
 10
0.0000
 20
0.0000
 30
0.0000
 40
0.0080
 41
0.0080
  0
VERTEX
  8
ASSEMBLY_PHO
 10
8.19627
 20
9.37337
 30
0.0000
  0
VERTEX
  8
ASSEMBLY_PHO
 10
8.19945
 20
9.37143
 30
0.0000
  0
SEQEND
  0
POLYLINE
  8
ASSEMBLY_PHO
 66
1
 10
0.0000
 20
0.0000
 30
0.0000
 40
0.0080
 41
0.0080
  0
VERTEX
  8
ASSEMBLY_PHO
 10
8.19945
 20
9.37143
 30
0.0000
  0
VERTEX
  8
ASSEMBLY_PHO
 10
8.20104
 20
9.3695
 30
0.0000
  0
SEQEND
  0
POLYLINE
  8
ASSEMBLY_PHO
 66
1
 10
0.0000
 20
0.0000
 30
0.0000
 40
0.0080
 41
0.0080
  0
VERTEX
  8
ASSEMBLY_PHO
 10
8.20104
 20
9.3695
 30
0.0000
  0
VERTEX
  8
ASSEMBLY_PHO
 10
8.20263
 20
9.36562
 30
0.0000
  0
SEQEND
  0
POLYLINE
  8
ASSEMBLY_PHO
 66
1
 10
0.0000
 20
0.0000
 30
0.0000
 40
0.0080
 41
0.0080
  0
VERTEX
  8
ASSEMBLY_PHO
 10
8.20263
 20
9.36562
 30
0.0000
  0
VERTEX
  8
ASSEMBLY_PHO
 10
8.20263
 20
9.35981
 30
0.0000
  0
SEQEND
  0
POLYLINE
  8
ASSEMBLY_PHO
 66
1
 10
0.0000
 20
0.0000
 30
0.0000
 40
0.0080
 41
0.0080
  0
VERTEX
  8
ASSEMBLY_PHO
 10
8.20263
 20
9.35981
 30
0.0000
  0
VERTEX
  8
ASSEMBLY_PHO
 10
8.19945
 20
9.35593
 30
0.0000
  0
SEQEND
  0
POLYLINE
  8
ASSEMBLY_PHO
 66
1
 10
0.0000
 20
0.0000
 30
0.0000
 40
0.0080
 41
0.0080
  0
VERTEX
  8
ASSEMBLY_PHO
 10
8.19945
 20
9.35593
 30
0.0000
  0
VERTEX
  8
ASSEMBLY_PHO
 10
8.19468
 20
9.3540
 30
0.0000
  0
VERTEX
  8
ASSEMBLY_PHO
 10
8.18831
 20
9.3540
 30
0.0000
  0
SEQEND
  0
POLYLINE
  8
ASSEMBLY_PHO
 66
1
 10
0.0000
 20
0.0000
 30
0.0000
 40
0.0080
 41
0.0080
  0
VERTEX
  8
ASSEMBLY_PHO
 10
8.18831
 20
9.3540
 30
0.0000
  0
VERTEX
  8
ASSEMBLY_PHO
 10
8.18354
 20
9.35593
 30
0.0000
  0
SEQEND
  0
POLYLINE
  8
ASSEMBLY_PHO
 66
1
 10
0.0000
 20
0.0000
 30
0.0000
 40
0.0080
 41
0.0080
  0
VERTEX
  8
ASSEMBLY_PHO
 10
8.18354
 20
9.35593
 30
0.0000
  0
VERTEX
  8
ASSEMBLY_PHO
 10
8.18036
 20
9.35981
 30
0.0000
  0
SEQEND
  0
POLYLINE
  8
ASSEMBLY_PHO
 66
1
 10
0.0000
 20
0.0000
 30
0.0000
 40
0.0080
 41
0.0080
  0
VERTEX
  8
ASSEMBLY_PHO
 10
8.21695
 20
9.39468
 30
0.0000
  0
VERTEX
  8
ASSEMBLY_PHO
 10
8.22968
 20
9.37531
 30
0.0000
  0
VERTEX
  8
ASSEMBLY_PHO
 10
8.22968
 20
9.3540
 30
0.0000
  0
SEQEND
  0
POLYLINE
  8
ASSEMBLY_PHO
 66
1
 10
0.0000
 20
0.0000
 30
0.0000
 40
0.0080
 41
0.0080
  0
VERTEX
  8
ASSEMBLY_PHO
 10
8.2424
 20
9.39468
 30
0.0000
  0
VERTEX
  8
ASSEMBLY_PHO
 10
8.22968
 20
9.37531
 30
0.0000
  0
SEQEND
  0
POLYLINE
  8
ASSEMBLY_PHO
 66
1
 10
0.0000
 20
0.0000
 30
0.0000
 40
0.0080
 41
0.0080
  0
VERTEX
  8
ASSEMBLY_PHO
 10
8.25831
 20
9.38112
 30
0.0000
  0
VERTEX
  8
ASSEMBLY_PHO
 10
8.25672
 20
9.37918
 30
0.0000
  0
SEQEND
  0
POLYLINE
  8
ASSEMBLY_PHO
 66
1
 10
0.0000
 20
0.0000
 30
0.0000
 40
0.0080
 41
0.0080
  0
VERTEX
  8
ASSEMBLY_PHO
 10
8.25672
 20
9.37918
 30
0.0000
  0
VERTEX
  8
ASSEMBLY_PHO
 10
8.25831
 20
9.37725
 30
0.0000
  0
SEQEND
  0
POLYLINE
  8
ASSEMBLY_PHO
 66
1
 10
0.0000
 20
0.0000
 30
0.0000
 40
0.0080
 41
0.0080
  0
VERTEX
  8
ASSEMBLY_PHO
 10
8.25831
 20
9.37725
 30
0.0000
  0
VERTEX
  8
ASSEMBLY_PHO
 10
8.2599
 20
9.37918
 30
0.0000
  0
SEQEND
  0
POLYLINE
  8
ASSEMBLY_PHO
 66
1
 10
0.0000
 20
0.0000
 30
0.0000
 40
0.0080
 41
0.0080
  0
VERTEX
  8
ASSEMBLY_PHO
 10
8.2599
 20
9.37918
 30
0.0000
  0
VERTEX
  8
ASSEMBLY_PHO
 10
8.25831
 20
9.38112
 30
0.0000
  0
SEQEND
  0
POLYLINE
  8
ASSEMBLY_PHO
 66
1
 10
0.0000
 20
0.0000
 30
0.0000
 40
0.0080
 41
0.0080
  0
VERTEX
  8
ASSEMBLY_PHO
 10
8.25831
 20
9.35787
 30
0.0000
  0
VERTEX
  8
ASSEMBLY_PHO
 10
8.25672
 20
9.35593
 30
0.0000
  0
SEQEND
  0
POLYLINE
  8
ASSEMBLY_PHO
 66
1
 10
0.0000
 20
0.0000
 30
0.0000
 40
0.0080
 41
0.0080
  0
VERTEX
  8
ASSEMBLY_PHO
 10
8.25672
 20
9.35593
 30
0.0000
  0
VERTEX
  8
ASSEMBLY_PHO
 10
8.25831
 20
9.3540
 30
0.0000
  0
SEQEND
  0
POLYLINE
  8
ASSEMBLY_PHO
 66
1
 10
0.0000
 20
0.0000
 30
0.0000
 40
0.0080
 41
0.0080
  0
VERTEX
  8
ASSEMBLY_PHO
 10
8.25831
 20
9.3540
 30
0.0000
  0
VERTEX
  8
ASSEMBLY_PHO
 10
8.2599
 20
9.35593
 30
0.0000
  0
SEQEND
  0
POLYLINE
  8
ASSEMBLY_PHO
 66
1
 10
0.0000
 20
0.0000
 30
0.0000
 40
0.0080
 41
0.0080
  0
VERTEX
  8
ASSEMBLY_PHO
 10
8.2599
 20
9.35593
 30
0.0000
  0
VERTEX
  8
ASSEMBLY_PHO
 10
8.25831
 20
9.35787
 30
0.0000
  0
SEQEND
  0
POLYLINE
  8
ASSEMBLY_PHO
 66
1
 10
0.0000
 20
0.0000
 30
0.0000
 40
0.0080
 41
0.0080
  0
VERTEX
  8
ASSEMBLY_PHO
 10
8.3140
 20
9.39468
 30
0.0000
  0
VERTEX
  8
ASSEMBLY_PHO
 10
8.3315
 20
9.39468
 30
0.0000
  0
SEQEND
  0
POLYLINE
  8
ASSEMBLY_PHO
 66
1
 10
0.0000
 20
0.0000
 30
0.0000
 40
0.0080
 41
0.0080
  0
VERTEX
  8
ASSEMBLY_PHO
 10
8.3315
 20
9.39468
 30
0.0000
  0
VERTEX
  8
ASSEMBLY_PHO
 10
8.32195
 20
9.37918
 30
0.0000
  0
SEQEND
  0
POLYLINE
  8
ASSEMBLY_PHO
 66
1
 10
0.0000
 20
0.0000
 30
0.0000
 40
0.0080
 41
0.0080
  0
VERTEX
  8
ASSEMBLY_PHO
 10
8.32195
 20
9.37918
 30
0.0000
  0
VERTEX
  8
ASSEMBLY_PHO
 10
8.32672
 20
9.37918
 30
0.0000
  0
SEQEND
  0
POLYLINE
  8
ASSEMBLY_PHO
 66
1
 10
0.0000
 20
0.0000
 30
0.0000
 40
0.0080
 41
0.0080
  0
VERTEX
  8
ASSEMBLY_PHO
 10
8.32672
 20
9.37918
 30
0.0000
  0
VERTEX
  8
ASSEMBLY_PHO
 10
8.3299
 20
9.37725
 30
0.0000
  0
SEQEND
  0
POLYLINE
  8
ASSEMBLY_PHO
 66
1
 10
0.0000
 20
0.0000
 30
0.0000
 40
0.0080
 41
0.0080
  0
VERTEX
  8
ASSEMBLY_PHO
 10
8.3299
 20
9.37725
 30
0.0000
  0
VERTEX
  8
ASSEMBLY_PHO
 10
8.3315
 20
9.37531
 30
0.0000
  0
VERTEX
  8
ASSEMBLY_PHO
 10
8.33309
 20
9.3695
 30
0.0000
  0
VERTEX
  8
ASSEMBLY_PHO
 10
8.33309
 20
9.36562
 30
0.0000
  0
SEQEND
  0
POLYLINE
  8
ASSEMBLY_PHO
 66
1
 10
0.0000
 20
0.0000
 30
0.0000
 40
0.0080
 41
0.0080
  0
VERTEX
  8
ASSEMBLY_PHO
 10
8.33309
 20
9.36562
 30
0.0000
  0
VERTEX
  8
ASSEMBLY_PHO
 10
8.3315
 20
9.35981
 30
0.0000
  0
VERTEX
  8
ASSEMBLY_PHO
 10
8.32831
 20
9.35593
 30
0.0000
  0
SEQEND
  0
POLYLINE
  8
ASSEMBLY_PHO
 66
1
 10
0.0000
 20
0.0000
 30
0.0000
 40
0.0080
 41
0.0080
  0
VERTEX
  8
ASSEMBLY_PHO
 10
8.32831
 20
9.35593
 30
0.0000
  0
VERTEX
  8
ASSEMBLY_PHO
 10
8.32354
 20
9.3540
 30
0.0000
  0
SEQEND
  0
POLYLINE
  8
ASSEMBLY_PHO
 66
1
 10
0.0000
 20
0.0000
 30
0.0000
 40
0.0080
 41
0.0080
  0
VERTEX
  8
ASSEMBLY_PHO
 10
8.32354
 20
9.3540
 30
0.0000
  0
VERTEX
  8
ASSEMBLY_PHO
 10
8.31877
 20
9.3540
 30
0.0000
  0
VERTEX
  8
ASSEMBLY_PHO
 10
8.3140
 20
9.35593
 30
0.0000
  0
SEQEND
  0
POLYLINE
  8
ASSEMBLY_PHO
 66
1
 10
0.0000
 20
0.0000
 30
0.0000
 40
0.0080
 41
0.0080
  0
VERTEX
  8
ASSEMBLY_PHO
 10
8.3140
 20
9.35593
 30
0.0000
  0
VERTEX
  8
ASSEMBLY_PHO
 10
8.3124
 20
9.35787
 30
0.0000
  0
SEQEND
  0
POLYLINE
  8
ASSEMBLY_PHO
 66
1
 10
0.0000
 20
0.0000
 30
0.0000
 40
0.0080
 41
0.0080
  0
VERTEX
  8
ASSEMBLY_PHO
 10
8.3124
 20
9.35787
 30
0.0000
  0
VERTEX
  8
ASSEMBLY_PHO
 10
8.31081
 20
9.36175
 30
0.0000
  0
SEQEND
  0
POLYLINE
  8
ASSEMBLY_PHO
 66
1
 10
0.0000
 20
0.0000
 30
0.0000
 40
0.0080
 41
0.0080
  0
VERTEX
  8
ASSEMBLY_PHO
 10
8.35695
 20
9.39468
 30
0.0000
  0
VERTEX
  8
ASSEMBLY_PHO
 10
8.35218
 20
9.39275
 30
0.0000
  0
VERTEX
  8
ASSEMBLY_PHO
 10
8.3490
 20
9.38693
 30
0.0000
  0
SEQEND
  0
POLYLINE
  8
ASSEMBLY_PHO
 66
1
 10
0.0000
 20
0.0000
 30
0.0000
 40
0.0080
 41
0.0080
  0
VERTEX
  8
ASSEMBLY_PHO
 10
8.3490
 20
9.38693
 30
0.0000
  0
VERTEX
  8
ASSEMBLY_PHO
 10
8.3474
 20
9.37725
 30
0.0000
  0
SEQEND
  0
POLYLINE
  8
ASSEMBLY_PHO
 66
1
 10
0.0000
 20
0.0000
 30
0.0000
 40
0.0080
 41
0.0080
  0
VERTEX
  8
ASSEMBLY_PHO
 10
8.3474
 20
9.37725
 30
0.0000
  0
VERTEX
  8
ASSEMBLY_PHO
 10
8.3474
 20
9.37143
 30
0.0000
  0
SEQEND
  0
POLYLINE
  8
ASSEMBLY_PHO
 66
1
 10
0.0000
 20
0.0000
 30
0.0000
 40
0.0080
 41
0.0080
  0
VERTEX
  8
ASSEMBLY_PHO
 10
8.3474
 20
9.37143
 30
0.0000
  0
VERTEX
  8
ASSEMBLY_PHO
 10
8.3490
 20
9.36175
 30
0.0000
  0
VERTEX
  8
ASSEMBLY_PHO
 10
8.35218
 20
9.35593
 30
0.0000
  0
SEQEND
  0
POLYLINE
  8
ASSEMBLY_PHO
 66
1
 10
0.0000
 20
0.0000
 30
0.0000
 40
0.0080
 41
0.0080
  0
VERTEX
  8
ASSEMBLY_PHO
 10
8.35218
 20
9.35593
 30
0.0000
  0
VERTEX
  8
ASSEMBLY_PHO
 10
8.35695
 20
9.3540
 30
0.0000
  0
VERTEX
  8
ASSEMBLY_PHO
 10
8.36013
 20
9.3540
 30
0.0000
  0
SEQEND
  0
POLYLINE
  8
ASSEMBLY_PHO
 66
1
 10
0.0000
 20
0.0000
 30
0.0000
 40
0.0080
 41
0.0080
  0
VERTEX
  8
ASSEMBLY_PHO
 10
8.36013
 20
9.3540
 30
0.0000
  0
VERTEX
  8
ASSEMBLY_PHO
 10
8.3649
 20
9.35593
 30
0.0000
  0
SEQEND
  0
POLYLINE
  8
ASSEMBLY_PHO
 66
1
 10
0.0000
 20
0.0000
 30
0.0000
 40
0.0080
 41
0.0080
  0
VERTEX
  8
ASSEMBLY_PHO
 10
8.3649
 20
9.35593
 30
0.0000
  0
VERTEX
  8
ASSEMBLY_PHO
 10
8.36809
 20
9.36175
 30
0.0000
  0
VERTEX
  8
ASSEMBLY_PHO
 10
8.36968
 20
9.37143
 30
0.0000
  0
SEQEND
  0
POLYLINE
  8
ASSEMBLY_PHO
 66
1
 10
0.0000
 20
0.0000
 30
0.0000
 40
0.0080
 41
0.0080
  0
VERTEX
  8
ASSEMBLY_PHO
 10
8.36968
 20
9.37143
 30
0.0000
  0
VERTEX
  8
ASSEMBLY_PHO
 10
8.36968
 20
9.37725
 30
0.0000
  0
VERTEX
  8
ASSEMBLY_PHO
 10
8.36809
 20
9.38693
 30
0.0000
  0
SEQEND
  0
POLYLINE
  8
ASSEMBLY_PHO
 66
1
 10
0.0000
 20
0.0000
 30
0.0000
 40
0.0080
 41
0.0080
  0
VERTEX
  8
ASSEMBLY_PHO
 10
8.36809
 20
9.38693
 30
0.0000
  0
VERTEX
  8
ASSEMBLY_PHO
 10
8.3649
 20
9.39275
 30
0.0000
  0
SEQEND
  0
POLYLINE
  8
ASSEMBLY_PHO
 66
1
 10
0.0000
 20
0.0000
 30
0.0000
 40
0.0080
 41
0.0080
  0
VERTEX
  8
ASSEMBLY_PHO
 10
8.3649
 20
9.39275
 30
0.0000
  0
VERTEX
  8
ASSEMBLY_PHO
 10
8.36013
 20
9.39468
 30
0.0000
  0
SEQEND
  0
POLYLINE
  8
ASSEMBLY_PHO
 66
1
 10
0.0000
 20
0.0000
 30
0.0000
 40
0.0080
 41
0.0080
  0
VERTEX
  8
ASSEMBLY_PHO
 10
8.36013
 20
9.39468
 30
0.0000
  0
VERTEX
  8
ASSEMBLY_PHO
 10
8.35695
 20
9.39468
 30
0.0000
  0
SEQEND
  0
POLYLINE
  8
ASSEMBLY_PHO
 66
1
 10
0.0000
 20
0.0000
 30
0.0000
 40
0.0080
 41
0.0080
  0
VERTEX
  8
ASSEMBLY_PHO
 10
8.3840
 20
9.37143
 30
0.0000
  0
VERTEX
  8
ASSEMBLY_PHO
 10
8.41263
 20
9.37143
 30
0.0000
  0
SEQEND
  0
POLYLINE
  8
ASSEMBLY_PHO
 66
1
 10
0.0000
 20
0.0000
 30
0.0000
 40
0.0080
 41
0.0080
  0
VERTEX
  8
ASSEMBLY_PHO
 10
8.4365
 20
9.39468
 30
0.0000
  0
VERTEX
  8
ASSEMBLY_PHO
 10
8.43172
 20
9.39275
 30
0.0000
  0
SEQEND
  0
POLYLINE
  8
ASSEMBLY_PHO
 66
1
 10
0.0000
 20
0.0000
 30
0.0000
 40
0.0080
 41
0.0080
  0
VERTEX
  8
ASSEMBLY_PHO
 10
8.43172
 20
9.39275
 30
0.0000
  0
VERTEX
  8
ASSEMBLY_PHO
 10
8.42854
 20
9.38693
 30
0.0000
  0
SEQEND
  0
POLYLINE
  8
ASSEMBLY_PHO
 66
1
 10
0.0000
 20
0.0000
 30
0.0000
 40
0.0080
 41
0.0080
  0
VERTEX
  8
ASSEMBLY_PHO
 10
8.42854
 20
9.38693
 30
0.0000
  0
VERTEX
  8
ASSEMBLY_PHO
 10
8.42695
 20
9.37725
 30
0.0000
  0
VERTEX
  8
ASSEMBLY_PHO
 10
8.42695
 20
9.37143
 30
0.0000
  0
SEQEND
  0
POLYLINE
  8
ASSEMBLY_PHO
 66
1
 10
0.0000
 20
0.0000
 30
0.0000
 40
0.0080
 41
0.0080
  0
VERTEX
  8
ASSEMBLY_PHO
 10
8.42695
 20
9.37143
 30
0.0000
  0
VERTEX
  8
ASSEMBLY_PHO
 10
8.42854
 20
9.36175
 30
0.0000
  0
SEQEND
  0
POLYLINE
  8
ASSEMBLY_PHO
 66
1
 10
0.0000
 20
0.0000
 30
0.0000
 40
0.0080
 41
0.0080
  0
VERTEX
  8
ASSEMBLY_PHO
 10
8.42854
 20
9.36175
 30
0.0000
  0
VERTEX
  8
ASSEMBLY_PHO
 10
8.43172
 20
9.35593
 30
0.0000
  0
SEQEND
  0
POLYLINE
  8
ASSEMBLY_PHO
 66
1
 10
0.0000
 20
0.0000
 30
0.0000
 40
0.0080
 41
0.0080
  0
VERTEX
  8
ASSEMBLY_PHO
 10
8.43172
 20
9.35593
 30
0.0000
  0
VERTEX
  8
ASSEMBLY_PHO
 10
8.4365
 20
9.3540
 30
0.0000
  0
VERTEX
  8
ASSEMBLY_PHO
 10
8.43968
 20
9.3540
 30
0.0000
  0
VERTEX
  8
ASSEMBLY_PHO
 10
8.44445
 20
9.35593
 30
0.0000
  0
SEQEND
  0
POLYLINE
  8
ASSEMBLY_PHO
 66
1
 10
0.0000
 20
0.0000
 30
0.0000
 40
0.0080
 41
0.0080
  0
VERTEX
  8
ASSEMBLY_PHO
 10
8.44445
 20
9.35593
 30
0.0000
  0
VERTEX
  8
ASSEMBLY_PHO
 10
8.44763
 20
9.36175
 30
0.0000
  0
SEQEND
  0
POLYLINE
  8
ASSEMBLY_PHO
 66
1
 10
0.0000
 20
0.0000
 30
0.0000
 40
0.0080
 41
0.0080
  0
VERTEX
  8
ASSEMBLY_PHO
 10
8.44763
 20
9.36175
 30
0.0000
  0
VERTEX
  8
ASSEMBLY_PHO
 10
8.44922
 20
9.37143
 30
0.0000
  0
SEQEND
  0
POLYLINE
  8
ASSEMBLY_PHO
 66
1
 10
0.0000
 20
0.0000
 30
0.0000
 40
0.0080
 41
0.0080
  0
VERTEX
  8
ASSEMBLY_PHO
 10
8.44922
 20
9.37143
 30
0.0000
  0
VERTEX
  8
ASSEMBLY_PHO
 10
8.44922
 20
9.37725
 30
0.0000
  0
SEQEND
  0
POLYLINE
  8
ASSEMBLY_PHO
 66
1
 10
0.0000
 20
0.0000
 30
0.0000
 40
0.0080
 41
0.0080
  0
VERTEX
  8
ASSEMBLY_PHO
 10
8.44922
 20
9.37725
 30
0.0000
  0
VERTEX
  8
ASSEMBLY_PHO
 10
8.44763
 20
9.38693
 30
0.0000
  0
SEQEND
  0
POLYLINE
  8
ASSEMBLY_PHO
 66
1
 10
0.0000
 20
0.0000
 30
0.0000
 40
0.0080
 41
0.0080
  0
VERTEX
  8
ASSEMBLY_PHO
 10
8.44763
 20
9.38693
 30
0.0000
  0
VERTEX
  8
ASSEMBLY_PHO
 10
8.44445
 20
9.39275
 30
0.0000
  0
VERTEX
  8
ASSEMBLY_PHO
 10
8.43968
 20
9.39468
 30
0.0000
  0
SEQEND
  0
POLYLINE
  8
ASSEMBLY_PHO
 66
1
 10
0.0000
 20
0.0000
 30
0.0000
 40
0.0080
 41
0.0080
  0
VERTEX
  8
ASSEMBLY_PHO
 10
8.43968
 20
9.39468
 30
0.0000
  0
VERTEX
  8
ASSEMBLY_PHO
 10
8.4365
 20
9.39468
 30
0.0000
  0
SEQEND
  0
POLYLINE
  8
ASSEMBLY_PHO
 66
1
 10
0.0000
 20
0.0000
 30
0.0000
 40
0.0080
 41
0.0080
  0
VERTEX
  8
ASSEMBLY_PHO
 10
8.47309
 20
9.39468
 30
0.0000
  0
VERTEX
  8
ASSEMBLY_PHO
 10
8.46831
 20
9.39275
 30
0.0000
  0
SEQEND
  0
POLYLINE
  8
ASSEMBLY_PHO
 66
1
 10
0.0000
 20
0.0000
 30
0.0000
 40
0.0080
 41
0.0080
  0
VERTEX
  8
ASSEMBLY_PHO
 10
8.46831
 20
9.39275
 30
0.0000
  0
VERTEX
  8
ASSEMBLY_PHO
 10
8.46513
 20
9.38693
 30
0.0000
  0
SEQEND
  0
POLYLINE
  8
ASSEMBLY_PHO
 66
1
 10
0.0000
 20
0.0000
 30
0.0000
 40
0.0080
 41
0.0080
  0
VERTEX
  8
ASSEMBLY_PHO
 10
8.46513
 20
9.38693
 30
0.0000
  0
VERTEX
  8
ASSEMBLY_PHO
 10
8.46354
 20
9.37725
 30
0.0000
  0
SEQEND
  0
POLYLINE
  8
ASSEMBLY_PHO
 66
1
 10
0.0000
 20
0.0000
 30
0.0000
 40
0.0080
 41
0.0080
  0
VERTEX
  8
ASSEMBLY_PHO
 10
8.46354
 20
9.37725
 30
0.0000
  0
VERTEX
  8
ASSEMBLY_PHO
 10
8.46354
 20
9.37143
 30
0.0000
  0
SEQEND
  0
POLYLINE
  8
ASSEMBLY_PHO
 66
1
 10
0.0000
 20
0.0000
 30
0.0000
 40
0.0080
 41
0.0080
  0
VERTEX
  8
ASSEMBLY_PHO
 10
8.46354
 20
9.37143
 30
0.0000
  0
VERTEX
  8
ASSEMBLY_PHO
 10
8.46513
 20
9.36175
 30
0.0000
  0
SEQEND
  0
POLYLINE
  8
ASSEMBLY_PHO
 66
1
 10
0.0000
 20
0.0000
 30
0.0000
 40
0.0080
 41
0.0080
  0
VERTEX
  8
ASSEMBLY_PHO
 10
8.46513
 20
9.36175
 30
0.0000
  0
VERTEX
  8
ASSEMBLY_PHO
 10
8.46831
 20
9.35593
 30
0.0000
  0
SEQEND
  0
POLYLINE
  8
ASSEMBLY_PHO
 66
1
 10
0.0000
 20
0.0000
 30
0.0000
 40
0.0080
 41
0.0080
  0
VERTEX
  8
ASSEMBLY_PHO
 10
8.46831
 20
9.35593
 30
0.0000
  0
VERTEX
  8
ASSEMBLY_PHO
 10
8.47309
 20
9.3540
 30
0.0000
  0
VERTEX
  8
ASSEMBLY_PHO
 10
8.47627
 20
9.3540
 30
0.0000
  0
VERTEX
  8
ASSEMBLY_PHO
 10
8.48104
 20
9.35593
 30
0.0000
  0
SEQEND
  0
POLYLINE
  8
ASSEMBLY_PHO
 66
1
 10
0.0000
 20
0.0000
 30
0.0000
 40
0.0080
 41
0.0080
  0
VERTEX
  8
ASSEMBLY_PHO
 10
8.48104
 20
9.35593
 30
0.0000
  0
VERTEX
  8
ASSEMBLY_PHO
 10
8.48422
 20
9.36175
 30
0.0000
  0
SEQEND
  0
POLYLINE
  8
ASSEMBLY_PHO
 66
1
 10
0.0000
 20
0.0000
 30
0.0000
 40
0.0080
 41
0.0080
  0
VERTEX
  8
ASSEMBLY_PHO
 10
8.48422
 20
9.36175
 30
0.0000
  0
VERTEX
  8
ASSEMBLY_PHO
 10
8.48581
 20
9.37143
 30
0.0000
  0
SEQEND
  0
POLYLINE
  8
ASSEMBLY_PHO
 66
1
 10
0.0000
 20
0.0000
 30
0.0000
 40
0.0080
 41
0.0080
  0
VERTEX
  8
ASSEMBLY_PHO
 10
8.48581
 20
9.37143
 30
0.0000
  0
VERTEX
  8
ASSEMBLY_PHO
 10
8.48581
 20
9.37725
 30
0.0000
  0
SEQEND
  0
POLYLINE
  8
ASSEMBLY_PHO
 66
1
 10
0.0000
 20
0.0000
 30
0.0000
 40
0.0080
 41
0.0080
  0
VERTEX
  8
ASSEMBLY_PHO
 10
8.48581
 20
9.37725
 30
0.0000
  0
VERTEX
  8
ASSEMBLY_PHO
 10
8.48422
 20
9.38693
 30
0.0000
  0
SEQEND
  0
POLYLINE
  8
ASSEMBLY_PHO
 66
1
 10
0.0000
 20
0.0000
 30
0.0000
 40
0.0080
 41
0.0080
  0
VERTEX
  8
ASSEMBLY_PHO
 10
8.48422
 20
9.38693
 30
0.0000
  0
VERTEX
  8
ASSEMBLY_PHO
 10
8.48104
 20
9.39275
 30
0.0000
  0
SEQEND
  0
POLYLINE
  8
ASSEMBLY_PHO
 66
1
 10
0.0000
 20
0.0000
 30
0.0000
 40
0.0080
 41
0.0080
  0
VERTEX
  8
ASSEMBLY_PHO
 10
8.48104
 20
9.39275
 30
0.0000
  0
VERTEX
  8
ASSEMBLY_PHO
 10
8.47627
 20
9.39468
 30
0.0000
  0
SEQEND
  0
POLYLINE
  8
ASSEMBLY_PHO
 66
1
 10
0.0000
 20
0.0000
 30
0.0000
 40
0.0080
 41
0.0080
  0
VERTEX
  8
ASSEMBLY_PHO
 10
8.47627
 20
9.39468
 30
0.0000
  0
VERTEX
  8
ASSEMBLY_PHO
 10
8.47309
 20
9.39468
 30
0.0000
  0
SEQEND
  0
POLYLINE
  8
ASSEMBLY_PHO
 66
1
 10
0.0000
 20
0.0000
 30
0.0000
 40
0.0080
 41
0.0080
  0
VERTEX
  8
ASSEMBLY_PHO
 10
8.50968
 20
9.39468
 30
0.0000
  0
VERTEX
  8
ASSEMBLY_PHO
 10
8.5049
 20
9.39275
 30
0.0000
  0
SEQEND
  0
POLYLINE
  8
ASSEMBLY_PHO
 66
1
 10
0.0000
 20
0.0000
 30
0.0000
 40
0.0080
 41
0.0080
  0
VERTEX
  8
ASSEMBLY_PHO
 10
8.5049
 20
9.39275
 30
0.0000
  0
VERTEX
  8
ASSEMBLY_PHO
 10
8.50172
 20
9.38693
 30
0.0000
  0
SEQEND
  0
POLYLINE
  8
ASSEMBLY_PHO
 66
1
 10
0.0000
 20
0.0000
 30
0.0000
 40
0.0080
 41
0.0080
  0
VERTEX
  8
ASSEMBLY_PHO
 10
8.50172
 20
9.38693
 30
0.0000
  0
VERTEX
  8
ASSEMBLY_PHO
 10
8.50013
 20
9.37725
 30
0.0000
  0
SEQEND
  0
POLYLINE
  8
ASSEMBLY_PHO
 66
1
 10
0.0000
 20
0.0000
 30
0.0000
 40
0.0080
 41
0.0080
  0
VERTEX
  8
ASSEMBLY_PHO
 10
8.50013
 20
9.37725
 30
0.0000
  0
VERTEX
  8
ASSEMBLY_PHO
 10
8.50013
 20
9.37143
 30
0.0000
  0
SEQEND
  0
POLYLINE
  8
ASSEMBLY_PHO
 66
1
 10
0.0000
 20
0.0000
 30
0.0000
 40
0.0080
 41
0.0080
  0
VERTEX
  8
ASSEMBLY_PHO
 10
8.50013
 20
9.37143
 30
0.0000
  0
VERTEX
  8
ASSEMBLY_PHO
 10
8.50172
 20
9.36175
 30
0.0000
  0
SEQEND
  0
POLYLINE
  8
ASSEMBLY_PHO
 66
1
 10
0.0000
 20
0.0000
 30
0.0000
 40
0.0080
 41
0.0080
  0
VERTEX
  8
ASSEMBLY_PHO
 10
8.50172
 20
9.36175
 30
0.0000
  0
VERTEX
  8
ASSEMBLY_PHO
 10
8.5049
 20
9.35593
 30
0.0000
  0
SEQEND
  0
POLYLINE
  8
ASSEMBLY_PHO
 66
1
 10
0.0000
 20
0.0000
 30
0.0000
 40
0.0080
 41
0.0080
  0
VERTEX
  8
ASSEMBLY_PHO
 10
8.5049
 20
9.35593
 30
0.0000
  0
VERTEX
  8
ASSEMBLY_PHO
 10
8.50968
 20
9.3540
 30
0.0000
  0
VERTEX
  8
ASSEMBLY_PHO
 10
8.51286
 20
9.3540
 30
0.0000
  0
VERTEX
  8
ASSEMBLY_PHO
 10
8.51763
 20
9.35593
 30
0.0000
  0
SEQEND
  0
POLYLINE
  8
ASSEMBLY_PHO
 66
1
 10
0.0000
 20
0.0000
 30
0.0000
 40
0.0080
 41
0.0080
  0
VERTEX
  8
ASSEMBLY_PHO
 10
8.51763
 20
9.35593
 30
0.0000
  0
VERTEX
  8
ASSEMBLY_PHO
 10
8.52081
 20
9.36175
 30
0.0000
  0
SEQEND
  0
POLYLINE
  8
ASSEMBLY_PHO
 66
1
 10
0.0000
 20
0.0000
 30
0.0000
 40
0.0080
 41
0.0080
  0
VERTEX
  8
ASSEMBLY_PHO
 10
8.52081
 20
9.36175
 30
0.0000
  0
VERTEX
  8
ASSEMBLY_PHO
 10
8.5224
 20
9.37143
 30
0.0000
  0
SEQEND
  0
POLYLINE
  8
ASSEMBLY_PHO
 66
1
 10
0.0000
 20
0.0000
 30
0.0000
 40
0.0080
 41
0.0080
  0
VERTEX
  8
ASSEMBLY_PHO
 10
8.5224
 20
9.37143
 30
0.0000
  0
VERTEX
  8
ASSEMBLY_PHO
 10
8.5224
 20
9.37725
 30
0.0000
  0
SEQEND
  0
POLYLINE
  8
ASSEMBLY_PHO
 66
1
 10
0.0000
 20
0.0000
 30
0.0000
 40
0.0080
 41
0.0080
  0
VERTEX
  8
ASSEMBLY_PHO
 10
8.5224
 20
9.37725
 30
0.0000
  0
VERTEX
  8
ASSEMBLY_PHO
 10
8.52081
 20
9.38693
 30
0.0000
  0
SEQEND
  0
POLYLINE
  8
ASSEMBLY_PHO
 66
1
 10
0.0000
 20
0.0000
 30
0.0000
 40
0.0080
 41
0.0080
  0
VERTEX
  8
ASSEMBLY_PHO
 10
8.52081
 20
9.38693
 30
0.0000
  0
VERTEX
  8
ASSEMBLY_PHO
 10
8.51763
 20
9.39275
 30
0.0000
  0
SEQEND
  0
POLYLINE
  8
ASSEMBLY_PHO
 66
1
 10
0.0000
 20
0.0000
 30
0.0000
 40
0.0080
 41
0.0080
  0
VERTEX
  8
ASSEMBLY_PHO
 10
8.51763
 20
9.39275
 30
0.0000
  0
VERTEX
  8
ASSEMBLY_PHO
 10
8.51286
 20
9.39468
 30
0.0000
  0
SEQEND
  0
POLYLINE
  8
ASSEMBLY_PHO
 66
1
 10
0.0000
 20
0.0000
 30
0.0000
 40
0.0080
 41
0.0080
  0
VERTEX
  8
ASSEMBLY_PHO
 10
8.51286
 20
9.39468
 30
0.0000
  0
VERTEX
  8
ASSEMBLY_PHO
 10
8.50968
 20
9.39468
 30
0.0000
  0
SEQEND
  0
POLYLINE
  8
ASSEMBLY_PHO
 66
1
 10
0.0000
 20
0.0000
 30
0.0000
 40
0.0080
 41
0.0080
  0
VERTEX
  8
ASSEMBLY_PHO
 10
8.53672
 20
9.38693
 30
0.0000
  0
VERTEX
  8
ASSEMBLY_PHO
 10
8.5399
 20
9.38887
 30
0.0000
  0
SEQEND
  0
POLYLINE
  8
ASSEMBLY_PHO
 66
1
 10
0.0000
 20
0.0000
 30
0.0000
 40
0.0080
 41
0.0080
  0
VERTEX
  8
ASSEMBLY_PHO
 10
8.5399
 20
9.38887
 30
0.0000
  0
VERTEX
  8
ASSEMBLY_PHO
 10
8.54468
 20
9.39468
 30
0.0000
  0
SEQEND
  0
POLYLINE
  8
ASSEMBLY_PHO
 66
1
 10
0.0000
 20
0.0000
 30
0.0000
 40
0.0080
 41
0.0080
  0
VERTEX
  8
ASSEMBLY_PHO
 10
8.54468
 20
9.39468
 30
0.0000
  0
VERTEX
  8
ASSEMBLY_PHO
 10
8.54468
 20
9.3540
 30
0.0000
  0
SEQEND
  0
POLYLINE
  8
ASSEMBLY_PHO
 66
1
 10
0.0000
 20
0.0000
 30
0.0000
 40
0.0080
 41
0.0080
  0
VERTEX
  8
ASSEMBLY_PHO
 10
8.59559
 20
9.39468
 30
0.0000
  0
VERTEX
  8
ASSEMBLY_PHO
 10
8.59559
 20
9.3540
 30
0.0000
  0
SEQEND
  0
POLYLINE
  8
ASSEMBLY_PHO
 66
1
 10
0.0000
 20
0.0000
 30
0.0000
 40
0.0080
 41
0.0080
  0
VERTEX
  8
ASSEMBLY_PHO
 10
8.59559
 20
9.39468
 30
0.0000
  0
VERTEX
  8
ASSEMBLY_PHO
 10
8.6099
 20
9.39468
 30
0.0000
  0
SEQEND
  0
POLYLINE
  8
ASSEMBLY_PHO
 66
1
 10
0.0000
 20
0.0000
 30
0.0000
 40
0.0080
 41
0.0080
  0
VERTEX
  8
ASSEMBLY_PHO
 10
8.6099
 20
9.39468
 30
0.0000
  0
VERTEX
  8
ASSEMBLY_PHO
 10
8.61468
 20
9.39275
 30
0.0000
  0
VERTEX
  8
ASSEMBLY_PHO
 10
8.61627
 20
9.39081
 30
0.0000
  0
VERTEX
  8
ASSEMBLY_PHO
 10
8.61786
 20
9.38693
 30
0.0000
  0
SEQEND
  0
POLYLINE
  8
ASSEMBLY_PHO
 66
1
 10
0.0000
 20
0.0000
 30
0.0000
 40
0.0080
 41
0.0080
  0
VERTEX
  8
ASSEMBLY_PHO
 10
8.61786
 20
9.38693
 30
0.0000
  0
VERTEX
  8
ASSEMBLY_PHO
 10
8.61786
 20
9.38306
 30
0.0000
  0
VERTEX
  8
ASSEMBLY_PHO
 10
8.61627
 20
9.37918
 30
0.0000
  0
SEQEND
  0
POLYLINE
  8
ASSEMBLY_PHO
 66
1
 10
0.0000
 20
0.0000
 30
0.0000
 40
0.0080
 41
0.0080
  0
VERTEX
  8
ASSEMBLY_PHO
 10
8.61627
 20
9.37918
 30
0.0000
  0
VERTEX
  8
ASSEMBLY_PHO
 10
8.61468
 20
9.37725
 30
0.0000
  0
VERTEX
  8
ASSEMBLY_PHO
 10
8.6099
 20
9.37531
 30
0.0000
  0
SEQEND
  0
POLYLINE
  8
ASSEMBLY_PHO
 66
1
 10
0.0000
 20
0.0000
 30
0.0000
 40
0.0080
 41
0.0080
  0
VERTEX
  8
ASSEMBLY_PHO
 10
8.6099
 20
9.37531
 30
0.0000
  0
VERTEX
  8
ASSEMBLY_PHO
 10
8.59559
 20
9.37531
 30
0.0000
  0
SEQEND
  0
POLYLINE
  8
ASSEMBLY_PHO
 66
1
 10
0.0000
 20
0.0000
 30
0.0000
 40
0.0080
 41
0.0080
  0
VERTEX
  8
ASSEMBLY_PHO
 10
8.60672
 20
9.37531
 30
0.0000
  0
VERTEX
  8
ASSEMBLY_PHO
 10
8.61786
 20
9.3540
 30
0.0000
  0
SEQEND
  0
POLYLINE
  8
ASSEMBLY_PHO
 66
1
 10
0.0000
 20
0.0000
 30
0.0000
 40
0.0080
 41
0.0080
  0
VERTEX
  8
ASSEMBLY_PHO
 10
8.63218
 20
9.39468
 30
0.0000
  0
VERTEX
  8
ASSEMBLY_PHO
 10
8.63218
 20
9.3540
 30
0.0000
  0
SEQEND
  0
POLYLINE
  8
ASSEMBLY_PHO
 66
1
 10
0.0000
 20
0.0000
 30
0.0000
 40
0.0080
 41
0.0080
  0
VERTEX
  8
ASSEMBLY_PHO
 10
8.63218
 20
9.39468
 30
0.0000
  0
VERTEX
  8
ASSEMBLY_PHO
 10
8.65286
 20
9.39468
 30
0.0000
  0
SEQEND
  0
POLYLINE
  8
ASSEMBLY_PHO
 66
1
 10
0.0000
 20
0.0000
 30
0.0000
 40
0.0080
 41
0.0080
  0
VERTEX
  8
ASSEMBLY_PHO
 10
8.63218
 20
9.37531
 30
0.0000
  0
VERTEX
  8
ASSEMBLY_PHO
 10
8.6449
 20
9.37531
 30
0.0000
  0
SEQEND
  0
POLYLINE
  8
ASSEMBLY_PHO
 66
1
 10
0.0000
 20
0.0000
 30
0.0000
 40
0.0080
 41
0.0080
  0
VERTEX
  8
ASSEMBLY_PHO
 10
8.63218
 20
9.3540
 30
0.0000
  0
VERTEX
  8
ASSEMBLY_PHO
 10
8.65286
 20
9.3540
 30
0.0000
  0
SEQEND
  0
POLYLINE
  8
ASSEMBLY_PHO
 66
1
 10
0.0000
 20
0.0000
 30
0.0000
 40
0.0080
 41
0.0080
  0
VERTEX
  8
ASSEMBLY_PHO
 10
8.66718
 20
9.39468
 30
0.0000
  0
VERTEX
  8
ASSEMBLY_PHO
 10
8.6799
 20
9.3540
 30
0.0000
  0
SEQEND
  0
POLYLINE
  8
ASSEMBLY_PHO
 66
1
 10
0.0000
 20
0.0000
 30
0.0000
 40
0.0080
 41
0.0080
  0
VERTEX
  8
ASSEMBLY_PHO
 10
8.69263
 20
9.39468
 30
0.0000
  0
VERTEX
  8
ASSEMBLY_PHO
 10
8.6799
 20
9.3540
 30
0.0000
  0
SEQEND
  0
POLYLINE
  8
ASSEMBLY_PHO
 66
1
 10
0.0000
 20
0.0000
 30
0.0000
 40
0.0080
 41
0.0080
  0
VERTEX
  8
ASSEMBLY_PHO
 10
8.70695
 20
9.34625
 30
0.0000
  0
VERTEX
  8
ASSEMBLY_PHO
 10
8.74036
 20
9.34625
 30
0.0000
  0
SEQEND
  0
POLYLINE
  8
ASSEMBLY_PHO
 66
1
 10
0.0000
 20
0.0000
 30
0.0000
 40
0.0080
 41
0.0080
  0
VERTEX
  8
ASSEMBLY_PHO
 10
8.7499
 20
9.34625
 30
0.0000
  0
VERTEX
  8
ASSEMBLY_PHO
 10
8.78331
 20
9.34625
 30
0.0000
  0
SEQEND
  0
POLYLINE
  8
ASSEMBLY_PHO
 66
1
 10
0.0000
 20
0.0000
 30
0.0000
 40
0.0080
 41
0.0080
  0
VERTEX
  8
ASSEMBLY_PHO
 10
8.79286
 20
9.34625
 30
0.0000
  0
VERTEX
  8
ASSEMBLY_PHO
 10
8.82627
 20
9.34625
 30
0.0000
  0
SEQEND
  0
POLYLINE
  8
ASSEMBLY_PHO
 66
1
 10
0.0000
 20
0.0000
 30
0.0000
 40
0.0080
 41
0.0080
  0
VERTEX
  8
ASSEMBLY_PHO
 10
8.83581
 20
9.34625
 30
0.0000
  0
VERTEX
  8
ASSEMBLY_PHO
 10
8.86922
 20
9.34625
 30
0.0000
  0
SEQEND
  0
ENDSEC
  0
EOF
