*
*
G04 PADS Layout (Build Number 2005.103.1) generated Gerber (RS-274-X) file*
G04 PC Version=2.1*
*
%IN "7746.pcb"*%
*
%MOIN*%
*
%FSLAX35Y35*%
*
*
*
*
G04 PC Standard Apertures*
*
*
G04 Thermal Relief Aperture macro.*
%AMTER*
1,1,$1,0,0*
1,0,$1-$2,0,0*
21,0,$3,$4,0,0,45*
21,0,$3,$4,0,0,135*
%
*
*
G04 Annular Aperture macro.*
%AMANN*
1,1,$1,0,0*
1,0,$2,0,0*
%
*
*
G04 Odd Aperture macro.*
%AMODD*
1,1,$1,0,0*
1,0,$1-0.005,0,0*
%
*
*
G04 PC Custom Aperture Macros*
*
*
*
*
*
*
G04 PC Aperture Table*
*
%ADD011C,0.1*%
%ADD015C,0.06*%
%ADD052C,0.01*%
%ADD053C,0.02*%
%ADD063C,0.008*%
*
*
*
*
G04 PC Custom Flashes*
G04 Layer Name 7746.pcb - flashes*
%LPD*%
*
*
G04 PC Circuitry*
G04 Layer Name 7746.pcb - circuitry*
%LPD*%
*
G54D11*
G01X816000Y984000D03*
X806000Y974000D03*
Y994000D03*
X826000D03*
Y974000D03*
X884000Y984000D03*
X874000Y974000D03*
Y994000D03*
X894000D03*
Y974000D03*
G54D15*
X812500Y812500D03*
X887500D03*
Y912500D03*
X812500D03*
X850000Y950000D03*
X834300Y811900D03*
Y888100D03*
X865800Y811900D03*
Y888100D03*
X888100Y834300D03*
Y865800D03*
X811900Y834300D03*
Y865800D03*
G54D52*
X800000Y800000D02*
X900000D01*
Y1000000*
X800000*
Y800000*
X881250Y850000D02*
G75*
G03X881250I-31250J0D01*
G54D53*
G01X767363Y791125D02*
X766454Y792250D01*
X766454D02*
X765090Y792812D01*
X765090D02*
X763272D01*
X763272D02*
X761909Y792250D01*
X761000Y791125*
Y790000*
X761454Y788875*
X761454D02*
X761909Y788312D01*
X761909D02*
X762818Y787750D01*
X765545Y786625*
X766454Y786062*
X766454D02*
X766909Y785500D01*
X767363Y784375*
X767363D02*
Y782687D01*
X767363D02*
X766454Y781562D01*
X766454D02*
X765090Y781000D01*
X765090D02*
X763272D01*
X763272D02*
X761909Y781562D01*
X761909D02*
X761000Y782687D01*
X771454Y792812D02*
Y781000D01*
X775545Y792812D02*
Y781000D01*
X781000*
X785090Y792812D02*
Y781000D01*
X791454Y792812D02*
X785090Y784937D01*
X787363Y787750D02*
X791454Y781000D01*
X801909Y791125D02*
X801000Y792250D01*
X799636Y792812*
X799636D02*
X797818D01*
X797818D02*
X796454Y792250D01*
X796454D02*
X795545Y791125D01*
Y790000*
X796000Y788875*
X796454Y788312*
X796454D02*
X797363Y787750D01*
X797363D02*
X800090Y786625D01*
X800090D02*
X801000Y786062D01*
X801000D02*
X801454Y785500D01*
X801454D02*
X801909Y784375D01*
Y782687*
X801909D02*
X801000Y781562D01*
X801000D02*
X799636Y781000D01*
X797818*
X796454Y781562*
X796454D02*
X795545Y782687D01*
X812818Y790000D02*
X812363Y791125D01*
X812363D02*
X811454Y792250D01*
X811454D02*
X810545Y792812D01*
X810545D02*
X808727D01*
X808727D02*
X807818Y792250D01*
X806909Y791125*
X806454Y790000*
X806454D02*
X806000Y788312D01*
X806000D02*
Y785500D01*
X806454Y783812*
X806454D02*
X806909Y782687D01*
X806909D02*
X807818Y781562D01*
X807818D02*
X808727Y781000D01*
X810545*
X811454Y781562*
X811454D02*
X812363Y782687D01*
X812363D02*
X812818Y783812D01*
X816909Y792812D02*
Y781000D01*
Y792812D02*
X821000D01*
X821000D02*
X822363Y792250D01*
X822363D02*
X822818Y791687D01*
X822818D02*
X823272Y790562D01*
X823272D02*
Y789437D01*
X823272D02*
X822818Y788312D01*
X822818D02*
X822363Y787750D01*
X822363D02*
X821000Y787187D01*
X821000D02*
X816909D01*
X820090D02*
X823272Y781000D01*
X827363Y792812D02*
Y781000D01*
Y792812D02*
X833272D01*
X827363Y787187D02*
X831000D01*
X827363Y781000D02*
X833272D01*
X837363Y792812D02*
Y781000D01*
Y792812D02*
X843272D01*
X837363Y787187D02*
X841000D01*
X837363Y781000D02*
X843272D01*
X847363Y792812D02*
Y781000D01*
Y792812D02*
X853727Y781000D01*
Y792812D02*
Y781000D01*
X871454Y792812D02*
Y781000D01*
X868272Y792812D02*
X874636D01*
X881454D02*
X880545Y792250D01*
X879636Y791125*
X879181Y790000*
X879181D02*
X878727Y788312D01*
X878727D02*
Y785500D01*
X879181Y783812*
X879181D02*
X879636Y782687D01*
X879636D02*
X880545Y781562D01*
X880545D02*
X881454Y781000D01*
X881454D02*
X883272D01*
X883272D02*
X884181Y781562D01*
X884181D02*
X885090Y782687D01*
X885090D02*
X885545Y783812D01*
X885545D02*
X886000Y785500D01*
Y788312*
X886000D02*
X885545Y790000D01*
X885090Y791125*
X885090D02*
X884181Y792250D01*
X884181D02*
X883272Y792812D01*
X883272D02*
X881454D01*
X890090D02*
Y781000D01*
Y792812D02*
X894181D01*
X894181D02*
X895545Y792250D01*
X896000Y791687*
X896000D02*
X896454Y790562D01*
X896454D02*
Y788875D01*
X896454D02*
X896000Y787750D01*
X895545Y787187*
X895545D02*
X894181Y786625D01*
X894181D02*
X890090D01*
X917363Y791125D02*
X916454Y792250D01*
X916454D02*
X915090Y792812D01*
X915090D02*
X913272D01*
X913272D02*
X911909Y792250D01*
X911000Y791125*
Y790000*
X911454Y788875*
X911454D02*
X911909Y788312D01*
X911909D02*
X912818Y787750D01*
X915545Y786625*
X916454Y786062*
X916454D02*
X916909Y785500D01*
X917363Y784375*
X917363D02*
Y782687D01*
X917363D02*
X916454Y781562D01*
X916454D02*
X915090Y781000D01*
X915090D02*
X913272D01*
X913272D02*
X911909Y781562D01*
X911909D02*
X911000Y782687D01*
X921454Y792812D02*
Y781000D01*
X925545Y792812D02*
Y781000D01*
Y792812D02*
X928727D01*
X928727D02*
X930090Y792250D01*
X930090D02*
X931000Y791125D01*
X931454Y790000*
X931454D02*
X931909Y788312D01*
X931909D02*
Y785500D01*
X931454Y783812*
X931454D02*
X931000Y782687D01*
X931000D02*
X930090Y781562D01*
X930090D02*
X928727Y781000D01*
X925545*
X936000Y792812D02*
Y781000D01*
Y792812D02*
X941909D01*
X936000Y787187D02*
X939636D01*
X936000Y781000D02*
X941909D01*
X831909Y767812D02*
X836909D01*
X836909D02*
X834181Y763312D01*
X834181D02*
X835545D01*
X835545D02*
X836454Y762750D01*
X836454D02*
X836909Y762187D01*
X836909D02*
X837363Y760500D01*
X837363D02*
Y759375D01*
X837363D02*
X836909Y757687D01*
X836909D02*
X836000Y756562D01*
X836000D02*
X834636Y756000D01*
X833272*
X833272D02*
X831909Y756562D01*
X831909D02*
X831454Y757125D01*
X831454D02*
X831000Y758250D01*
X841454Y765562D02*
X842363Y766125D01*
X842363D02*
X843727Y767812D01*
X843727D02*
Y756000D01*
X847818Y761062D02*
X856000D01*
X862818Y767812D02*
X861454Y767250D01*
X861454D02*
X860545Y765562D01*
X860545D02*
X860090Y762750D01*
X860090D02*
Y761062D01*
X860090D02*
X860545Y758250D01*
X861454Y756562*
X861454D02*
X862818Y756000D01*
X863727*
X865090Y756562*
X865090D02*
X866000Y758250D01*
X866454Y761062*
X866454D02*
Y762750D01*
X866454D02*
X866000Y765562D01*
X866000D02*
X865090Y767250D01*
X865090D02*
X863727Y767812D01*
X863727D02*
X862818D01*
X873272D02*
X871909Y767250D01*
X871000Y765562*
X871000D02*
X870545Y762750D01*
Y761062*
X870545D02*
X871000Y758250D01*
X871909Y756562*
X871909D02*
X873272Y756000D01*
X873272D02*
X874181D01*
X874181D02*
X875545Y756562D01*
X875545D02*
X876454Y758250D01*
X876454D02*
X876909Y761062D01*
X876909D02*
Y762750D01*
X876454Y765562*
X876454D02*
X875545Y767250D01*
X874181Y767812*
X874181D02*
X873272D01*
X883727D02*
X882363Y767250D01*
X882363D02*
X881454Y765562D01*
X881454D02*
X881000Y762750D01*
Y761062*
X881000D02*
X881454Y758250D01*
X881454D02*
X882363Y756562D01*
X882363D02*
X883727Y756000D01*
X884636*
X886000Y756562*
X886000D02*
X886909Y758250D01*
X887363Y761062*
X887363D02*
Y762750D01*
X887363D02*
X886909Y765562D01*
X886909D02*
X886000Y767250D01*
X884636Y767812*
X884636D02*
X883727D01*
X891454Y765562D02*
X892363Y766125D01*
X892363D02*
X893727Y767812D01*
X893727D02*
Y756000D01*
X908272Y767812D02*
Y756000D01*
Y767812D02*
X912363D01*
X912363D02*
X913727Y767250D01*
X914181Y766687*
X914181D02*
X914636Y765562D01*
X914636D02*
Y764437D01*
X914636D02*
X914181Y763312D01*
X914181D02*
X913727Y762750D01*
X912363Y762187*
X912363D02*
X908272D01*
X911454D02*
X914636Y756000D01*
X918727Y767812D02*
Y756000D01*
Y767812D02*
X924636D01*
X918727Y762187D02*
X922363D01*
X918727Y756000D02*
X924636D01*
X928727Y767812D02*
X932363Y756000D01*
X936000Y767812D02*
X932363Y756000D01*
X950545Y765562D02*
X951454Y766125D01*
X951454D02*
X952818Y767812D01*
X952818D02*
Y756000D01*
G54D63*
X803598Y971598D02*
Y996401D01*
X803598D02*
X828401D01*
X828401D02*
Y971598D01*
X828401D02*
X803598D01*
X808500Y996500D02*
Y1027503D01*
X808500D02*
X823500D01*
X823500D02*
Y996401D01*
X871598Y971598D02*
Y996401D01*
X871598D02*
X896401D01*
X896401D02*
Y971598D01*
X896401D02*
X871598D01*
X876500Y996500D02*
Y1027503D01*
X876500D02*
X891500D01*
X891500D02*
Y996401D01*
X839900Y810125D02*
Y805400D01*
Y810125D02*
X841536D01*
X842081Y809900*
X842081D02*
X842263Y809675D01*
X842263D02*
X842445Y809225D01*
Y808550*
X842263Y808100*
X842263D02*
X842081Y807875D01*
X842081D02*
X841536Y807650D01*
X839900*
X844081Y809225D02*
X844445Y809450D01*
X844990Y810125*
X844990D02*
Y805400D01*
X839300Y896225D02*
Y891500D01*
Y896225D02*
X840936D01*
X841481Y896000*
X841481D02*
X841663Y895775D01*
X841663D02*
X841845Y895325D01*
Y894650*
X841663Y894200*
X841663D02*
X841481Y893975D01*
X841481D02*
X840936Y893750D01*
X839300*
X843663Y895100D02*
Y895325D01*
X843663D02*
X843845Y895775D01*
X844027Y896000*
X844390Y896225*
X844390D02*
X845118D01*
X845481Y896000*
X845481D02*
X845663Y895775D01*
X845663D02*
X845845Y895325D01*
Y894875*
X845663Y894425*
X845663D02*
X845300Y893750D01*
X843481Y891500*
X843481D02*
X846027D01*
X854400Y809625D02*
Y804900D01*
Y809625D02*
X856036D01*
X856581Y809400*
X856581D02*
X856763Y809175D01*
X856763D02*
X856945Y808725D01*
Y808050*
X856763Y807600*
X856763D02*
X856581Y807375D01*
X856581D02*
X856036Y807150D01*
X854400*
X858945Y809625D02*
X860945D01*
X859854Y807825*
X859854D02*
X860400D01*
X860763Y807600*
X860763D02*
X860945Y807375D01*
X861127Y806700*
Y806250*
X860945Y805575*
X860581Y805125*
X860581D02*
X860036Y804900D01*
X859490*
X859490D02*
X858945Y805125D01*
X858763Y805350*
X858763D02*
X858581Y805800D01*
X855700Y896225D02*
Y891500D01*
Y896225D02*
X857336D01*
X857881Y896000*
X857881D02*
X858063Y895775D01*
X858063D02*
X858245Y895325D01*
Y894650*
X858063Y894200*
X858063D02*
X857881Y893975D01*
X857881D02*
X857336Y893750D01*
X855700*
X861700Y896225D02*
X859881Y893075D01*
X859881D02*
X862609D01*
X861700Y896225D02*
Y891500D01*
X836172Y987437D02*
Y982837D01*
X836172D02*
X835945Y981975D01*
X835718Y981687*
X835718D02*
X835263Y981400D01*
X835263D02*
X834809D01*
X834354Y981687*
X834354D02*
X834127Y981975D01*
X833900Y982837*
X833900D02*
Y983412D01*
X838218Y986287D02*
X838672Y986575D01*
X838672D02*
X839354Y987437D01*
X839354D02*
Y981400D01*
X861672Y987437D02*
Y982837D01*
X861672D02*
X861445Y981975D01*
X861218Y981687*
X861218D02*
X860763Y981400D01*
X860763D02*
X860309D01*
X859854Y981687*
X859854D02*
X859627Y981975D01*
X859400Y982837*
X859400D02*
Y983412D01*
X863945Y986000D02*
Y986287D01*
X863945D02*
X864172Y986862D01*
X864172D02*
X864400Y987150D01*
X864854Y987437*
X864854D02*
X865763D01*
X865763D02*
X866218Y987150D01*
X866445Y986862*
X866445D02*
X866672Y986287D01*
X866672D02*
Y985712D01*
X866672D02*
X866445Y985137D01*
X866445D02*
X865990Y984275D01*
X865990D02*
X863718Y981400D01*
X866900*
X810400Y929468D02*
Y925400D01*
Y929468D02*
X811831D01*
X811831D02*
X812309Y929275D01*
X812468Y929081*
X812627Y928693*
X812627D02*
Y928112D01*
X812627D02*
X812468Y927725D01*
X812309Y927531*
X811831Y927337*
X811831D02*
X810400D01*
X816445Y928500D02*
X816286Y928887D01*
X816286D02*
X815968Y929275D01*
X815650Y929468*
X815650D02*
X815013D01*
X815013D02*
X814695Y929275D01*
X814377Y928887*
X814377D02*
X814218Y928500D01*
X814059Y927918*
X814059D02*
Y926950D01*
X814218Y926368*
X814218D02*
X814377Y925981D01*
X814695Y925593*
X814695D02*
X815013Y925400D01*
X815013D02*
X815650D01*
X815968Y925593*
X815968D02*
X816286Y925981D01*
X816445Y926368*
X817877Y929468D02*
Y925400D01*
Y929468D02*
X819309D01*
X819309D02*
X819786Y929275D01*
X819945Y929081*
X820104Y928693*
X820104D02*
Y928306D01*
X820104D02*
X819945Y927918D01*
X819945D02*
X819786Y927725D01*
X819309Y927531*
X817877D02*
X819309D01*
X819786Y927337*
X819786D02*
X819945Y927143D01*
X819945D02*
X820104Y926756D01*
X820104D02*
Y926175D01*
X820104D02*
X819945Y925787D01*
X819945D02*
X819786Y925593D01*
X819786D02*
X819309Y925400D01*
X817877*
X821695Y928112D02*
X821536Y927918D01*
X821536D02*
X821695Y927725D01*
X821854Y927918*
X821854D02*
X821695Y928112D01*
Y925787D02*
X821536Y925593D01*
X821536D02*
X821695Y925400D01*
X821854Y925593*
X821854D02*
X821695Y925787D01*
X827263Y929468D02*
X829013D01*
X829013D02*
X828059Y927918D01*
X828059D02*
X828536D01*
X828536D02*
X828854Y927725D01*
X828854D02*
X829013Y927531D01*
X829013D02*
X829172Y926950D01*
X829172D02*
Y926562D01*
X829172D02*
X829013Y925981D01*
X829013D02*
X828695Y925593D01*
X828695D02*
X828218Y925400D01*
X827740*
X827740D02*
X827263Y925593D01*
X827263D02*
X827104Y925787D01*
X827104D02*
X826945Y926175D01*
X830604Y928693D02*
X830922Y928887D01*
X830922D02*
X831400Y929468D01*
X831400D02*
Y925400D01*
X832831Y927143D02*
X835695D01*
X838081Y929468D02*
X837604Y929275D01*
X837604D02*
X837286Y928693D01*
X837286D02*
X837127Y927725D01*
Y927143*
X837127D02*
X837286Y926175D01*
X837604Y925593*
X837604D02*
X838081Y925400D01*
X838081D02*
X838400D01*
X838877Y925593*
X838877D02*
X839195Y926175D01*
X839354Y927143*
X839354D02*
Y927725D01*
X839354D02*
X839195Y928693D01*
X839195D02*
X838877Y929275D01*
X838400Y929468*
X838400D02*
X838081D01*
X841740D02*
X841263Y929275D01*
X841263D02*
X840945Y928693D01*
X840945D02*
X840786Y927725D01*
Y927143*
X840786D02*
X840945Y926175D01*
X841263Y925593*
X841263D02*
X841740Y925400D01*
X841740D02*
X842059D01*
X842536Y925593*
X842536D02*
X842854Y926175D01*
X842854D02*
X843013Y927143D01*
X843013D02*
Y927725D01*
X843013D02*
X842854Y928693D01*
X842854D02*
X842536Y929275D01*
X842059Y929468*
X842059D02*
X841740D01*
X845400D02*
X844922Y929275D01*
X844922D02*
X844604Y928693D01*
X844604D02*
X844445Y927725D01*
Y927143*
X844445D02*
X844604Y926175D01*
X844604D02*
X844922Y925593D01*
X844922D02*
X845400Y925400D01*
X845718*
X846195Y925593*
X846195D02*
X846513Y926175D01*
X846513D02*
X846672Y927143D01*
X846672D02*
Y927725D01*
X846672D02*
X846513Y928693D01*
X846513D02*
X846195Y929275D01*
X845718Y929468*
X845718D02*
X845400D01*
X848104Y928693D02*
X848422Y928887D01*
X848422D02*
X848900Y929468D01*
X848900D02*
Y925400D01*
X853990Y929468D02*
Y925400D01*
Y929468D02*
X855422D01*
X855422D02*
X855900Y929275D01*
X856059Y929081*
X856218Y928693*
X856218D02*
Y928306D01*
X856059Y927918*
X856059D02*
X855900Y927725D01*
X855422Y927531*
X855422D02*
X853990D01*
X855104D02*
X856218Y925400D01*
X857650Y929468D02*
Y925400D01*
Y929468D02*
X859718D01*
X857650Y927531D02*
X858922D01*
X857650Y925400D02*
X859718D01*
X861150Y929468D02*
X862422Y925400D01*
X863695Y929468D02*
X862422Y925400D01*
X868786Y928693D02*
X869104Y928887D01*
X869104D02*
X869581Y929468D01*
X869581D02*
Y925400D01*
X835286Y966000D02*
X835127Y966387D01*
X835127D02*
X834809Y966775D01*
X834490Y966968*
X834490D02*
X833854D01*
X833854D02*
X833536Y966775D01*
X833218Y966387*
X833218D02*
X833059Y966000D01*
X832900Y965418*
X832900D02*
Y964450D01*
X833059Y963868*
X833059D02*
X833218Y963481D01*
X833536Y963093*
X833536D02*
X833854Y962900D01*
X833854D02*
X834490D01*
X834490D02*
X834809Y963093D01*
X834809D02*
X835127Y963481D01*
X835286Y963868*
X835286D02*
Y964450D01*
X834490D02*
X835286D01*
X836718Y966968D02*
Y962900D01*
Y966968D02*
X838786D01*
X836718Y965031D02*
X837990D01*
X836718Y962900D02*
X838786D01*
X840218Y966968D02*
Y962900D01*
Y966968D02*
X842445Y962900D01*
Y966968D02*
Y962900D01*
X844990Y966968D02*
Y962900D01*
X843877Y966968D02*
X846104D01*
X847536D02*
Y964062D01*
X847536D02*
X847695Y963481D01*
X848013Y963093*
X848013D02*
X848490Y962900D01*
X848490D02*
X848809D01*
X849286Y963093*
X849286D02*
X849604Y963481D01*
X849604D02*
X849763Y964062D01*
X849763D02*
Y966968D01*
X851195D02*
Y962900D01*
Y966968D02*
X852627D01*
X852627D02*
X853104Y966775D01*
X853104D02*
X853263Y966581D01*
X853263D02*
X853422Y966193D01*
X853422D02*
Y965806D01*
X853422D02*
X853263Y965418D01*
X853263D02*
X853104Y965225D01*
X853104D02*
X852627Y965031D01*
X851195*
X852309D02*
X853422Y962900D01*
X854854Y966968D02*
Y962900D01*
X859945Y966968D02*
Y962900D01*
X861377Y966968D02*
Y962900D01*
Y966968D02*
X863604Y962900D01*
Y966968D02*
Y962900D01*
X867422Y966000D02*
X867263Y966387D01*
X867263D02*
X866945Y966775D01*
X866627Y966968*
X866627D02*
X865990D01*
X865990D02*
X865672Y966775D01*
X865672D02*
X865354Y966387D01*
X865354D02*
X865195Y966000D01*
X865036Y965418*
X865036D02*
Y964450D01*
X865195Y963868*
X865195D02*
X865354Y963481D01*
X865354D02*
X865672Y963093D01*
X865672D02*
X865990Y962900D01*
X865990D02*
X866627D01*
X866945Y963093*
X866945D02*
X867263Y963481D01*
X867263D02*
X867422Y963868D01*
X873036Y810450D02*
Y806400D01*
X871400Y808425D02*
X874672D01*
X827536Y810950D02*
Y806900D01*
X825900Y808925D02*
X829172D01*
X825900Y893925D02*
X829172D01*
X871400Y894925D02*
X874672D01*
X811672Y939468D02*
X810400Y935400D01*
X811672Y939468D02*
X812945Y935400D01*
X810877Y936756D02*
X812468D01*
X816604Y938887D02*
X816286Y939275D01*
X815809Y939468*
X815809D02*
X815172D01*
X815172D02*
X814695Y939275D01*
X814377Y938887*
X814377D02*
Y938500D01*
X814536Y938112*
X814536D02*
X814695Y937918D01*
X814695D02*
X815013Y937725D01*
X815013D02*
X815968Y937337D01*
X815968D02*
X816286Y937143D01*
X816286D02*
X816445Y936950D01*
X816604Y936562*
X816604D02*
Y935981D01*
X816604D02*
X816286Y935593D01*
X816286D02*
X815809Y935400D01*
X815172*
X815172D02*
X814695Y935593D01*
X814695D02*
X814377Y935981D01*
X820263Y938887D02*
X819945Y939275D01*
X819468Y939468*
X819468D02*
X818831D01*
X818831D02*
X818354Y939275D01*
X818354D02*
X818036Y938887D01*
X818036D02*
Y938500D01*
X818195Y938112*
X818195D02*
X818354Y937918D01*
X818354D02*
X818672Y937725D01*
X818672D02*
X819627Y937337D01*
X819627D02*
X819945Y937143D01*
X819945D02*
X820104Y936950D01*
X820104D02*
X820263Y936562D01*
X820263D02*
Y935981D01*
X820263D02*
X819945Y935593D01*
X819945D02*
X819468Y935400D01*
X818831*
X818831D02*
X818354Y935593D01*
X818354D02*
X818036Y935981D01*
X821695Y939468D02*
X822968Y937531D01*
Y935400*
X824240Y939468D02*
X822968Y937531D01*
X825831Y938112D02*
X825672Y937918D01*
X825672D02*
X825831Y937725D01*
X825831D02*
X825990Y937918D01*
X825990D02*
X825831Y938112D01*
Y935787D02*
X825672Y935593D01*
X825672D02*
X825831Y935400D01*
X825831D02*
X825990Y935593D01*
X825990D02*
X825831Y935787D01*
X831400Y939468D02*
X833150D01*
X833150D02*
X832195Y937918D01*
X832195D02*
X832672D01*
X832672D02*
X832990Y937725D01*
X832990D02*
X833150Y937531D01*
X833309Y936950*
Y936562*
X833309D02*
X833150Y935981D01*
X832831Y935593*
X832831D02*
X832354Y935400D01*
X832354D02*
X831877D01*
X831400Y935593*
X831400D02*
X831240Y935787D01*
X831240D02*
X831081Y936175D01*
X835695Y939468D02*
X835218Y939275D01*
X834900Y938693*
X834900D02*
X834740Y937725D01*
X834740D02*
Y937143D01*
X834740D02*
X834900Y936175D01*
X835218Y935593*
X835218D02*
X835695Y935400D01*
X836013*
X836013D02*
X836490Y935593D01*
X836490D02*
X836809Y936175D01*
X836968Y937143*
X836968D02*
Y937725D01*
X836809Y938693*
X836809D02*
X836490Y939275D01*
X836490D02*
X836013Y939468D01*
X836013D02*
X835695D01*
X838400Y937143D02*
X841263D01*
X843650Y939468D02*
X843172Y939275D01*
X843172D02*
X842854Y938693D01*
X842854D02*
X842695Y937725D01*
Y937143*
X842695D02*
X842854Y936175D01*
X842854D02*
X843172Y935593D01*
X843172D02*
X843650Y935400D01*
X843968*
X844445Y935593*
X844445D02*
X844763Y936175D01*
X844763D02*
X844922Y937143D01*
X844922D02*
Y937725D01*
X844922D02*
X844763Y938693D01*
X844763D02*
X844445Y939275D01*
X843968Y939468*
X843968D02*
X843650D01*
X847309D02*
X846831Y939275D01*
X846831D02*
X846513Y938693D01*
X846513D02*
X846354Y937725D01*
X846354D02*
Y937143D01*
X846354D02*
X846513Y936175D01*
X846513D02*
X846831Y935593D01*
X846831D02*
X847309Y935400D01*
X847627*
X848104Y935593*
X848104D02*
X848422Y936175D01*
X848422D02*
X848581Y937143D01*
X848581D02*
Y937725D01*
X848581D02*
X848422Y938693D01*
X848422D02*
X848104Y939275D01*
X848104D02*
X847627Y939468D01*
X847627D02*
X847309D01*
X850968D02*
X850490Y939275D01*
X850490D02*
X850172Y938693D01*
X850172D02*
X850013Y937725D01*
X850013D02*
Y937143D01*
X850013D02*
X850172Y936175D01*
X850172D02*
X850490Y935593D01*
X850490D02*
X850968Y935400D01*
X851286*
X851763Y935593*
X851763D02*
X852081Y936175D01*
X852081D02*
X852240Y937143D01*
X852240D02*
Y937725D01*
X852240D02*
X852081Y938693D01*
X852081D02*
X851763Y939275D01*
X851763D02*
X851286Y939468D01*
X851286D02*
X850968D01*
X853672Y938693D02*
X853990Y938887D01*
X853990D02*
X854468Y939468D01*
X854468D02*
Y935400D01*
X859559Y939468D02*
Y935400D01*
Y939468D02*
X860990D01*
X860990D02*
X861468Y939275D01*
X861627Y939081*
X861786Y938693*
X861786D02*
Y938306D01*
X861627Y937918*
X861627D02*
X861468Y937725D01*
X860990Y937531*
X860990D02*
X859559D01*
X860672D02*
X861786Y935400D01*
X863218Y939468D02*
Y935400D01*
Y939468D02*
X865286D01*
X863218Y937531D02*
X864490D01*
X863218Y935400D02*
X865286D01*
X866718Y939468D02*
X867990Y935400D01*
X869263Y939468D02*
X867990Y935400D01*
X870695Y934625D02*
X874036D01*
X874990D02*
X878331D01*
X879286D02*
X882627D01*
X883581D02*
X886922D01*
G74*
X0Y0D02*
M02*
