*
*
G04 PADS Layout (Build Number 2005.103.1) generated Gerber (RS-274-X) file*
G04 PC Version=2.1*
*
%IN "7746.pcb"*%
*
%MOIN*%
*
%FSLAX35Y35*%
*
*
*
*
G04 PC Standard Apertures*
*
*
G04 Thermal Relief Aperture macro.*
%AMTER*
1,1,$1,0,0*
1,0,$1-$2,0,0*
21,0,$3,$4,0,0,45*
21,0,$3,$4,0,0,135*
%
*
*
G04 Annular Aperture macro.*
%AMANN*
1,1,$1,0,0*
1,0,$2,0,0*
%
*
*
G04 Odd Aperture macro.*
%AMODD*
1,1,$1,0,0*
1,0,$1-0.005,0,0*
%
*
*
G04 PC Custom Aperture Macros*
*
*
*
*
*
*
G04 PC Aperture Table*
*
%ADD052C,0.01*%
%ADD053C,0.02*%
%ADD054C,0.015*%
%ADD055C,0.001*%
*
*
*
*
G04 PC Custom Flashes*
G04 Layer Name 7746.pcb - flashes*
%LPD*%
*
*
G04 PC Circuitry*
G04 Layer Name 7746.pcb - circuitry*
%LPD*%
*
G54D52*
G01X808500Y812500D02*
X816500D01*
X812500Y808500D02*
Y816500D01*
X816318Y821062D02*
X814500Y814500D01*
X816318Y821062D02*
X818136Y814500D01*
X815181Y816687D02*
X817454D01*
X883500Y812500D02*
X891500D01*
X887500Y808500D02*
Y816500D01*
X891318Y821062D02*
X889500Y814500D01*
X891318Y821062D02*
X893136Y814500D01*
X890181Y816687D02*
X892454D01*
X883500Y912500D02*
X891500D01*
X887500Y908500D02*
Y916500D01*
X891318Y921062D02*
X889500Y914500D01*
X891318Y921062D02*
X893136Y914500D01*
X890181Y916687D02*
X892454D01*
X808500Y912500D02*
X816500D01*
X812500Y908500D02*
Y916500D01*
X816318Y921062D02*
X814500Y914500D01*
X816318Y921062D02*
X818136Y914500D01*
X815181Y916687D02*
X817454D01*
X846000Y950000D02*
X854000D01*
X850000Y946000D02*
Y954000D01*
X853818Y958562D02*
X852000Y952000D01*
X853818Y958562D02*
X855636Y952000D01*
X852681Y954187D02*
X854954D01*
X830300Y811900D02*
X838300D01*
X834300Y807900D02*
Y815900D01*
X830300Y888100D02*
X838300D01*
X834300Y884100D02*
Y892100D01*
X861800Y811900D02*
X869800D01*
X865800Y807900D02*
Y815900D01*
X861800Y888100D02*
X869800D01*
X865800Y884100D02*
Y892100D01*
X884100Y834300D02*
X892100D01*
X888100Y830300D02*
Y838300D01*
X884100Y865800D02*
X892100D01*
X888100Y861800D02*
Y869800D01*
X807900Y834300D02*
X815900D01*
X811900Y830300D02*
Y838300D01*
X807900Y865800D02*
X815900D01*
X811900Y861800D02*
Y869800D01*
X812000Y980000D02*
X820000Y988000D01*
X812000D02*
X820000Y980000D01*
X802000Y970000D02*
X810000D01*
Y978000*
X802000*
Y970000*
X806000Y974000D02*
Y978000D01*
X802000Y990000D02*
X810000D01*
Y998000*
X802000*
Y990000*
X806000Y994000D02*
Y998000D01*
X822000Y990000D02*
X830000D01*
Y998000*
X822000*
Y990000*
X826000Y994000D02*
Y998000D01*
X822000Y970000D02*
X830000D01*
Y978000*
X822000*
Y970000*
X826000Y974000D02*
Y978000D01*
X880000Y980000D02*
X888000Y988000D01*
X880000D02*
X888000Y980000D01*
X870000Y970000D02*
X878000D01*
Y978000*
X870000*
Y970000*
X874000Y974000D02*
Y978000D01*
X870000Y990000D02*
X878000D01*
Y998000*
X870000*
Y990000*
X874000Y994000D02*
Y998000D01*
X890000Y990000D02*
X898000D01*
Y998000*
X890000*
Y990000*
X894000Y994000D02*
Y998000D01*
X890000Y970000D02*
X898000D01*
Y978000*
X890000*
Y970000*
X894000Y974000D02*
Y978000D01*
X800000Y800000D02*
X900000D01*
Y1000000*
X800000*
Y800000*
X881250Y850000D02*
G75*
G03X881250I-31250J0D01*
G01X747500Y800000D02*
Y899500D01*
Y800000D02*
X745000Y810000D01*
X750000*
X747500Y800000*
Y1000000D02*
Y916750D01*
Y1000000D02*
X750000Y990000D01*
X745000*
X747500Y1000000*
X795000Y800000D02*
X742500D01*
X792500Y1000000D02*
X742500D01*
X730840Y910000D02*
Y910437D01*
X730840D02*
X731181Y911312D01*
X731181D02*
X731522Y911750D01*
X731522D02*
X732204Y912187D01*
X732204D02*
X733568D01*
X733568D02*
X734250Y911750D01*
X734590Y911312*
X734590D02*
X734931Y910437D01*
X734931D02*
Y909562D01*
X734931D02*
X734590Y908687D01*
X734590D02*
X733909Y907375D01*
X730500Y903000*
X735272*
X738681Y903875D02*
X738340Y903437D01*
X738340D02*
X738681Y903000D01*
X738681D02*
X739022Y903437D01*
X739022D02*
X738681Y903875D01*
X744136Y912187D02*
X743113Y911750D01*
X743113D02*
X742431Y910437D01*
X742431D02*
X742090Y908250D01*
X742090D02*
Y906937D01*
X742090D02*
X742431Y904750D01*
X742431D02*
X743113Y903437D01*
X743113D02*
X744136Y903000D01*
X744818*
X745840Y903437*
X745840D02*
X746522Y904750D01*
X746522D02*
X746863Y906937D01*
X746863D02*
Y908250D01*
X746863D02*
X746522Y910437D01*
X746522D02*
X745840Y911750D01*
X745840D02*
X744818Y912187D01*
X744818D02*
X744136D01*
X751977D02*
X750954Y911750D01*
X750954D02*
X750272Y910437D01*
X750272D02*
X749931Y908250D01*
X749931D02*
Y906937D01*
X749931D02*
X750272Y904750D01*
X750272D02*
X750954Y903437D01*
X750954D02*
X751977Y903000D01*
X752659*
X753681Y903437*
X753681D02*
X754363Y904750D01*
X754363D02*
X754704Y906937D01*
X754704D02*
Y908250D01*
X754704D02*
X754363Y910437D01*
X754363D02*
X753681Y911750D01*
X753681D02*
X752659Y912187D01*
X752659D02*
X751977D01*
X759818D02*
X758795Y911750D01*
X758113Y910437*
X758113D02*
X757772Y908250D01*
X757772D02*
Y906937D01*
X757772D02*
X758113Y904750D01*
X758113D02*
X758795Y903437D01*
X758795D02*
X759818Y903000D01*
X760500*
X761522Y903437*
X761522D02*
X762204Y904750D01*
X762204D02*
X762545Y906937D01*
X762545D02*
Y908250D01*
X762204Y910437*
X762204D02*
X761522Y911750D01*
X761522D02*
X760500Y912187D01*
X760500D02*
X759818D01*
X800000Y1022500D02*
X832000D01*
X800000D02*
X810000Y1025000D01*
Y1020000*
X800000Y1022500*
X900000D02*
X868340D01*
X900000D02*
X890000Y1020000D01*
Y1025000*
X900000Y1022500*
X800000Y1007500D02*
Y1027500D01*
X900000Y1007500D02*
Y1027500D01*
X835500Y1023937D02*
X836181Y1024375D01*
X836181D02*
X837204Y1025687D01*
X837204D02*
Y1016500D01*
X840613Y1017375D02*
X840272Y1016937D01*
X840272D02*
X840613Y1016500D01*
X840613D02*
X840954Y1016937D01*
X840954D02*
X840613Y1017375D01*
X846068Y1025687D02*
X845045Y1025250D01*
X844363Y1023937*
X844363D02*
X844022Y1021750D01*
X844022D02*
Y1020437D01*
X844022D02*
X844363Y1018250D01*
X844363D02*
X845045Y1016937D01*
X845045D02*
X846068Y1016500D01*
X846750*
X847772Y1016937*
X847772D02*
X848454Y1018250D01*
X848454D02*
X848795Y1020437D01*
X848795D02*
Y1021750D01*
X848454Y1023937*
X848454D02*
X847772Y1025250D01*
X847772D02*
X846750Y1025687D01*
X846750D02*
X846068D01*
X853909D02*
X852886Y1025250D01*
X852204Y1023937*
X852204D02*
X851863Y1021750D01*
X851863D02*
Y1020437D01*
X851863D02*
X852204Y1018250D01*
X852204D02*
X852886Y1016937D01*
X852886D02*
X853909Y1016500D01*
X854590*
X854590D02*
X855613Y1016937D01*
X855613D02*
X856295Y1018250D01*
X856636Y1020437*
X856636D02*
Y1021750D01*
X856295Y1023937*
X856295D02*
X855613Y1025250D01*
X855613D02*
X854590Y1025687D01*
X854590D02*
X853909D01*
X861750D02*
X860727Y1025250D01*
X860045Y1023937*
X860045D02*
X859704Y1021750D01*
X859704D02*
Y1020437D01*
X859704D02*
X860045Y1018250D01*
X860727Y1016937*
X860727D02*
X861750Y1016500D01*
X862431*
X862431D02*
X863454Y1016937D01*
X863454D02*
X864136Y1018250D01*
X864477Y1020437*
X864477D02*
Y1021750D01*
X864136Y1023937*
X864136D02*
X863454Y1025250D01*
X863454D02*
X862431Y1025687D01*
X862431D02*
X861750D01*
X812500Y760000D02*
X827500D01*
X812500D02*
X822500Y762500D01*
Y757500*
X812500Y760000*
X800000D02*
X785000D01*
X800000D02*
X790000Y757500D01*
Y762500*
X800000Y760000*
X812500Y805000D02*
Y755000D01*
X800000Y795000D02*
Y755000D01*
X750045Y764687D02*
X749022Y764250D01*
X749022D02*
X748340Y762937D01*
X748340D02*
X748000Y760750D01*
Y759437*
X748000D02*
X748340Y757250D01*
X748340D02*
X749022Y755937D01*
X749022D02*
X750045Y755500D01*
X750727*
X751750Y755937*
X751750D02*
X752431Y757250D01*
X752431D02*
X752772Y759437D01*
X752772D02*
Y760750D01*
X752772D02*
X752431Y762937D01*
X752431D02*
X751750Y764250D01*
X750727Y764687*
X750727D02*
X750045D01*
X756181Y756375D02*
X755840Y755937D01*
X755840D02*
X756181Y755500D01*
X756181D02*
X756522Y755937D01*
X756522D02*
X756181Y756375D01*
X759590Y762937D02*
X760272Y763375D01*
X760272D02*
X761295Y764687D01*
X761295D02*
Y755500D01*
X764704Y762500D02*
Y762937D01*
X764704D02*
X765045Y763812D01*
X765045D02*
X765386Y764250D01*
X766068Y764687*
X766068D02*
X767431D01*
X767431D02*
X768113Y764250D01*
X768113D02*
X768454Y763812D01*
X768454D02*
X768795Y762937D01*
X768795D02*
Y762062D01*
X768795D02*
X768454Y761187D01*
X768454D02*
X767772Y759875D01*
X767772D02*
X764363Y755500D01*
X764363D02*
X769136D01*
X776636Y764687D02*
X773227D01*
X773227D02*
X772886Y760750D01*
X773227Y761187*
X773227D02*
X774250Y761625D01*
X775272*
X775272D02*
X776295Y761187D01*
X776295D02*
X776977Y760312D01*
X776977D02*
X777318Y759000D01*
X776977Y758125*
X776636Y756812*
X776636D02*
X775954Y755937D01*
X775954D02*
X774931Y755500D01*
X774931D02*
X773909D01*
X772886Y755937*
X772886D02*
X772545Y756375D01*
X772204Y757250*
X772500Y800000D02*
Y785000D01*
Y800000D02*
X775000Y790000D01*
X770000*
X772500Y800000*
Y812500D02*
Y827500D01*
Y812500D02*
X770000Y822500D01*
X775000*
X772500Y812500*
X805000D02*
X767500D01*
X757545Y842187D02*
X756522Y841750D01*
X756522D02*
X755840Y840437D01*
X755840D02*
X755500Y838250D01*
Y836937*
X755500D02*
X755840Y834750D01*
X755840D02*
X756522Y833437D01*
X756522D02*
X757545Y833000D01*
X758227*
X759250Y833437*
X759250D02*
X759931Y834750D01*
X759931D02*
X760272Y836937D01*
X760272D02*
Y838250D01*
X760272D02*
X759931Y840437D01*
X759931D02*
X759250Y841750D01*
X758227Y842187*
X758227D02*
X757545D01*
X763681Y833875D02*
X763340Y833437D01*
X763340D02*
X763681Y833000D01*
X763681D02*
X764022Y833437D01*
X764022D02*
X763681Y833875D01*
X767090Y840437D02*
X767772Y840875D01*
X767772D02*
X768795Y842187D01*
X768795D02*
Y833000D01*
X772204Y840000D02*
Y840437D01*
X772204D02*
X772545Y841312D01*
X772545D02*
X772886Y841750D01*
X773568Y842187*
X773568D02*
X774931D01*
X774931D02*
X775613Y841750D01*
X775613D02*
X775954Y841312D01*
X775954D02*
X776295Y840437D01*
X776295D02*
Y839562D01*
X776295D02*
X775954Y838687D01*
X775954D02*
X775272Y837375D01*
X775272D02*
X771863Y833000D01*
X771863D02*
X776636D01*
X784136Y842187D02*
X780727D01*
X780727D02*
X780386Y838250D01*
X780727Y838687*
X780727D02*
X781750Y839125D01*
X782772*
X782772D02*
X783795Y838687D01*
X783795D02*
X784477Y837812D01*
X784477D02*
X784818Y836500D01*
X784477Y835625*
X784136Y834312*
X784136D02*
X783454Y833437D01*
X783454D02*
X782431Y833000D01*
X782431D02*
X781409D01*
X780386Y833437*
X780386D02*
X780045Y833875D01*
X779704Y834750*
G54D53*
X821000Y792812D02*
Y781000D01*
Y792812D02*
X824181D01*
X824181D02*
X825545Y792250D01*
X826454Y791125*
X826454D02*
X826909Y790000D01*
X827363Y788312*
X827363D02*
Y785500D01*
X827363D02*
X826909Y783812D01*
X826909D02*
X826454Y782687D01*
X826454D02*
X825545Y781562D01*
X825545D02*
X824181Y781000D01*
X824181D02*
X821000D01*
X831454Y792812D02*
Y781000D01*
Y792812D02*
X835545D01*
X835545D02*
X836909Y792250D01*
X837363Y791687*
X837363D02*
X837818Y790562D01*
X837818D02*
Y789437D01*
X837818D02*
X837363Y788312D01*
X837363D02*
X836909Y787750D01*
X835545Y787187*
X835545D02*
X831454D01*
X834636D02*
X837818Y781000D01*
X841909Y792812D02*
Y781000D01*
X846000Y792812D02*
Y781000D01*
X851454*
X855545Y792812D02*
Y781000D01*
X861000*
X875545Y792812D02*
Y781000D01*
Y792812D02*
X878727D01*
X878727D02*
X880090Y792250D01*
X880090D02*
X881000Y791125D01*
X881454Y790000*
X881454D02*
X881909Y788312D01*
X881909D02*
Y785500D01*
X881454Y783812*
X881454D02*
X881000Y782687D01*
X881000D02*
X880090Y781562D01*
X880090D02*
X878727Y781000D01*
X875545*
X886000Y792812D02*
Y781000D01*
Y792812D02*
X890090D01*
X890090D02*
X891454Y792250D01*
X891454D02*
X891909Y791687D01*
X891909D02*
X892363Y790562D01*
X892363D02*
Y789437D01*
X892363D02*
X891909Y788312D01*
X891909D02*
X891454Y787750D01*
X891454D02*
X890090Y787187D01*
X890090D02*
X886000D01*
X889181D02*
X892363Y781000D01*
X900090Y792812D02*
X896454Y781000D01*
X900090Y792812D02*
X903727Y781000D01*
X897818Y784937D02*
X902363D01*
X907818Y792812D02*
X910090Y781000D01*
X912363Y792812D02*
X910090Y781000D01*
X912363Y792812D02*
X914636Y781000D01*
X916909Y792812D02*
X914636Y781000D01*
X921000Y792812D02*
Y781000D01*
X925090Y792812D02*
Y781000D01*
Y792812D02*
X931454Y781000D01*
Y792812D02*
Y781000D01*
X942363Y790000D02*
X941909Y791125D01*
X941000Y792250*
X940090Y792812*
X940090D02*
X938272D01*
X938272D02*
X937363Y792250D01*
X937363D02*
X936454Y791125D01*
X936454D02*
X936000Y790000D01*
X935545Y788312*
X935545D02*
Y785500D01*
X936000Y783812*
X936000D02*
X936454Y782687D01*
X936454D02*
X937363Y781562D01*
X937363D02*
X938272Y781000D01*
X938272D02*
X940090D01*
X940090D02*
X941000Y781562D01*
X941000D02*
X941909Y782687D01*
X941909D02*
X942363Y783812D01*
X942363D02*
Y785500D01*
X940090D02*
X942363D01*
X831909Y767812D02*
X836909D01*
X836909D02*
X834181Y763312D01*
X834181D02*
X835545D01*
X835545D02*
X836454Y762750D01*
X836454D02*
X836909Y762187D01*
X836909D02*
X837363Y760500D01*
X837363D02*
Y759375D01*
X837363D02*
X836909Y757687D01*
X836909D02*
X836000Y756562D01*
X836000D02*
X834636Y756000D01*
X833272*
X833272D02*
X831909Y756562D01*
X831909D02*
X831454Y757125D01*
X831454D02*
X831000Y758250D01*
X841454Y765562D02*
X842363Y766125D01*
X842363D02*
X843727Y767812D01*
X843727D02*
Y756000D01*
X847818Y761062D02*
X856000D01*
X862818Y767812D02*
X861454Y767250D01*
X861454D02*
X860545Y765562D01*
X860545D02*
X860090Y762750D01*
X860090D02*
Y761062D01*
X860090D02*
X860545Y758250D01*
X861454Y756562*
X861454D02*
X862818Y756000D01*
X863727*
X865090Y756562*
X865090D02*
X866000Y758250D01*
X866454Y761062*
X866454D02*
Y762750D01*
X866454D02*
X866000Y765562D01*
X866000D02*
X865090Y767250D01*
X865090D02*
X863727Y767812D01*
X863727D02*
X862818D01*
X873272D02*
X871909Y767250D01*
X871000Y765562*
X871000D02*
X870545Y762750D01*
Y761062*
X870545D02*
X871000Y758250D01*
X871909Y756562*
X871909D02*
X873272Y756000D01*
X873272D02*
X874181D01*
X874181D02*
X875545Y756562D01*
X875545D02*
X876454Y758250D01*
X876454D02*
X876909Y761062D01*
X876909D02*
Y762750D01*
X876454Y765562*
X876454D02*
X875545Y767250D01*
X874181Y767812*
X874181D02*
X873272D01*
X883727D02*
X882363Y767250D01*
X882363D02*
X881454Y765562D01*
X881454D02*
X881000Y762750D01*
Y761062*
X881000D02*
X881454Y758250D01*
X881454D02*
X882363Y756562D01*
X882363D02*
X883727Y756000D01*
X884636*
X886000Y756562*
X886000D02*
X886909Y758250D01*
X887363Y761062*
X887363D02*
Y762750D01*
X887363D02*
X886909Y765562D01*
X886909D02*
X886000Y767250D01*
X884636Y767812*
X884636D02*
X883727D01*
X891454Y765562D02*
X892363Y766125D01*
X892363D02*
X893727Y767812D01*
X893727D02*
Y756000D01*
X908272Y767812D02*
Y756000D01*
Y767812D02*
X912363D01*
X912363D02*
X913727Y767250D01*
X914181Y766687*
X914181D02*
X914636Y765562D01*
X914636D02*
Y764437D01*
X914636D02*
X914181Y763312D01*
X914181D02*
X913727Y762750D01*
X912363Y762187*
X912363D02*
X908272D01*
X911454D02*
X914636Y756000D01*
X918727Y767812D02*
Y756000D01*
Y767812D02*
X924636D01*
X918727Y762187D02*
X922363D01*
X918727Y756000D02*
X924636D01*
X928727Y767812D02*
X932363Y756000D01*
X936000Y767812D02*
X932363Y756000D01*
X950545Y765562D02*
X951454Y766125D01*
X951454D02*
X952818Y767812D01*
X952818D02*
Y756000D01*
G54D54*
X758477Y694609D02*
X755750Y685750D01*
X758477Y694609D02*
X761204Y685750D01*
X756772Y688703D02*
X760181D01*
X764272Y694609D02*
Y685750D01*
X764272D02*
X768363D01*
X771431Y694609D02*
Y685750D01*
X771431D02*
X775522D01*
X786431Y694609D02*
Y685750D01*
X791204Y694609D02*
Y685750D01*
X786431Y690390D02*
X791204D01*
X796318Y694609D02*
X795636Y694187D01*
X795636D02*
X794954Y693343D01*
X794954D02*
X794613Y692500D01*
X794613D02*
X794272Y691234D01*
X794272D02*
Y689125D01*
X794272D02*
X794613Y687859D01*
X794613D02*
X794954Y687015D01*
X794954D02*
X795636Y686171D01*
X795636D02*
X796318Y685750D01*
X797681*
X797681D02*
X798363Y686171D01*
X798363D02*
X799045Y687015D01*
X799045D02*
X799386Y687859D01*
X799727Y689125*
Y691234*
X799386Y692500*
X799045Y693343*
X799045D02*
X798363Y694187D01*
X798363D02*
X797681Y694609D01*
X797681D02*
X796318D01*
X802795D02*
Y685750D01*
X806886*
X809954Y694609D02*
Y685750D01*
Y694609D02*
X814386D01*
X809954Y690390D02*
X812681D01*
X809954Y685750D02*
X814386D01*
X822227Y693343D02*
X821545Y694187D01*
X821545D02*
X820522Y694609D01*
X820522D02*
X819159D01*
X818136Y694187*
X818136D02*
X817454Y693343D01*
X817454D02*
Y692500D01*
X817454D02*
X817795Y691656D01*
X818136Y691234*
X818818Y690812*
X818818D02*
X820863Y689968D01*
X820863D02*
X821545Y689546D01*
X821545D02*
X821886Y689125D01*
X822227Y688281*
Y687015*
X822227D02*
X821545Y686171D01*
X821545D02*
X820522Y685750D01*
X820522D02*
X819159D01*
X818136Y686171*
X818136D02*
X817454Y687015D01*
X835522Y694609D02*
Y685750D01*
X833136Y694609D02*
X837909D01*
X843022D02*
X842340Y694187D01*
X842340D02*
X841659Y693343D01*
X841659D02*
X841318Y692500D01*
X840977Y691234*
Y689125*
X841318Y687859*
X841659Y687015*
X841659D02*
X842340Y686171D01*
X842340D02*
X843022Y685750D01*
X843022D02*
X844386D01*
X845068Y686171*
X845068D02*
X845750Y687015D01*
X845750D02*
X846090Y687859D01*
X846090D02*
X846431Y689125D01*
X846431D02*
Y691234D01*
X846431D02*
X846090Y692500D01*
X846090D02*
X845750Y693343D01*
X845750D02*
X845068Y694187D01*
X845068D02*
X844386Y694609D01*
X843022*
X857340D02*
Y685750D01*
Y694609D02*
X860409D01*
X861431Y694187*
X861431D02*
X861772Y693765D01*
X861772D02*
X862113Y692921D01*
X862113D02*
Y692078D01*
X862113D02*
X861772Y691234D01*
X861772D02*
X861431Y690812D01*
X861431D02*
X860409Y690390D01*
X857340D02*
X860409D01*
X860409D02*
X861431Y689968D01*
X861431D02*
X861772Y689546D01*
X861772D02*
X862113Y688703D01*
X862113D02*
Y687437D01*
X862113D02*
X861772Y686593D01*
X861772D02*
X861431Y686171D01*
X861431D02*
X860409Y685750D01*
X857340*
X865181Y694609D02*
Y685750D01*
Y694609D02*
X869613D01*
X865181Y690390D02*
X867909D01*
X865181Y685750D02*
X869613D01*
X880522Y694609D02*
Y685750D01*
Y694609D02*
X883590D01*
X883590D02*
X884613Y694187D01*
X884613D02*
X884954Y693765D01*
X884954D02*
X885295Y692921D01*
X885295D02*
Y691656D01*
X884954Y690812*
X884954D02*
X884613Y690390D01*
X884613D02*
X883590Y689968D01*
X883590D02*
X880522D01*
X888363Y694609D02*
Y685750D01*
X888363D02*
X892454D01*
X898250Y694609D02*
X895522Y685750D01*
X898250Y694609D02*
X900977Y685750D01*
X896545Y688703D02*
X899954D01*
X906431Y694609D02*
Y685750D01*
X904045Y694609D02*
X908818D01*
X911886D02*
Y685750D01*
Y694609D02*
X916318D01*
X911886Y690390D02*
X914613D01*
X911886Y685750D02*
X916318D01*
X919386Y694609D02*
Y685750D01*
Y694609D02*
X921772D01*
X921772D02*
X922795Y694187D01*
X922795D02*
X923477Y693343D01*
X923477D02*
X923818Y692500D01*
X924159Y691234*
Y689125*
X923818Y687859*
X923477Y687015*
X923477D02*
X922795Y686171D01*
X922795D02*
X921772Y685750D01*
X921772D02*
X919386D01*
X937454Y694609D02*
Y685750D01*
X935068Y694609D02*
X939840D01*
X942909D02*
Y685750D01*
X947681Y694609D02*
Y685750D01*
X942909Y690390D02*
X947681D01*
X950750Y694609D02*
Y685750D01*
Y694609D02*
X953818D01*
X954840Y694187*
X954840D02*
X955181Y693765D01*
X955181D02*
X955522Y692921D01*
X955522D02*
Y692078D01*
X955522D02*
X955181Y691234D01*
X955181D02*
X954840Y690812D01*
X954840D02*
X953818Y690390D01*
X953818D02*
X950750D01*
X953136D02*
X955522Y685750D01*
X958590Y694609D02*
Y688281D01*
X958590D02*
X958931Y687015D01*
X958931D02*
X959613Y686171D01*
X959613D02*
X960636Y685750D01*
X961318*
X962340Y686171*
X962340D02*
X963022Y687015D01*
X963022D02*
X963363Y688281D01*
X963363D02*
Y694609D01*
X974272D02*
X975977Y685750D01*
X977681Y694609D02*
X975977Y685750D01*
X977681Y694609D02*
X979386Y685750D01*
X981090Y694609D02*
X979386Y685750D01*
X984159Y694609D02*
Y685750D01*
X989613Y694609D02*
Y685750D01*
X987227Y694609D02*
X992000D01*
X995068D02*
Y685750D01*
X999840Y694609D02*
Y685750D01*
X995068Y690390D02*
X999840D01*
X1013477Y694609D02*
X1010750Y685750D01*
X1013477Y694609D02*
X1016204Y685750D01*
X1011772Y688703D02*
X1015181D01*
X1027113Y694609D02*
Y685750D01*
Y694609D02*
X1029840Y685750D01*
X1032568Y694609D02*
X1029840Y685750D01*
X1032568Y694609D02*
Y685750D01*
X1035636Y694609D02*
Y685750D01*
X1038704Y694609D02*
Y685750D01*
Y694609D02*
X1043477Y685750D01*
Y694609D02*
Y685750D01*
X1046545Y694609D02*
Y685750D01*
X1049613Y694609D02*
Y685750D01*
Y694609D02*
X1052340Y685750D01*
X1055068Y694609D02*
X1052340Y685750D01*
X1055068Y694609D02*
Y685750D01*
X1058136Y694609D02*
Y688281D01*
X1058477Y687015*
X1058477D02*
X1059159Y686171D01*
X1059159D02*
X1060181Y685750D01*
X1060181D02*
X1060863D01*
X1060863D02*
X1061886Y686171D01*
X1061886D02*
X1062568Y687015D01*
X1062568D02*
X1062909Y688281D01*
Y694609*
X1065977D02*
Y685750D01*
Y694609D02*
X1068704Y685750D01*
X1071431Y694609D02*
X1068704Y685750D01*
X1071431Y694609D02*
Y685750D01*
X1082340Y694609D02*
X1084045Y685750D01*
X1085750Y694609D02*
X1084045Y685750D01*
X1085750Y694609D02*
X1087454Y685750D01*
X1089159Y694609D02*
X1087454Y685750D01*
X1094954Y694609D02*
X1092227Y685750D01*
X1094954Y694609D02*
X1097681Y685750D01*
X1093250Y688703D02*
X1096659D01*
X1100750Y694609D02*
Y685750D01*
X1104840*
X1107909Y694609D02*
Y685750D01*
X1112000*
X1125295Y694609D02*
Y685750D01*
X1122909Y694609D02*
X1127681D01*
X1130750D02*
Y685750D01*
X1135522Y694609D02*
Y685750D01*
X1130750Y690390D02*
X1135522D01*
X1138590Y694609D02*
Y685750D01*
X1146772Y692500D02*
X1146431Y693343D01*
X1146431D02*
X1145750Y694187D01*
X1145750D02*
X1145068Y694609D01*
X1143704*
X1143704D02*
X1143022Y694187D01*
X1143022D02*
X1142340Y693343D01*
X1142340D02*
X1142000Y692500D01*
X1141659Y691234*
Y689125*
X1142000Y687859*
X1142340Y687015*
X1142340D02*
X1143022Y686171D01*
X1143022D02*
X1143704Y685750D01*
X1143704D02*
X1145068D01*
X1145750Y686171*
X1145750D02*
X1146431Y687015D01*
X1146431D02*
X1146772Y687859D01*
X1149840Y694609D02*
Y685750D01*
X1154613Y694609D02*
X1149840Y688703D01*
X1151545Y690812D02*
X1154613Y685750D01*
X1157681Y694609D02*
Y685750D01*
Y694609D02*
X1162454Y685750D01*
Y694609D02*
Y685750D01*
X1165522Y694609D02*
Y685750D01*
Y694609D02*
X1169954D01*
X1165522Y690390D02*
X1168250D01*
X1165522Y685750D02*
X1169954D01*
X1177795Y693343D02*
X1177113Y694187D01*
X1177113D02*
X1176090Y694609D01*
X1176090D02*
X1174727D01*
X1173704Y694187*
X1173704D02*
X1173022Y693343D01*
X1173022D02*
Y692500D01*
X1173022D02*
X1173363Y691656D01*
X1173363D02*
X1173704Y691234D01*
X1173704D02*
X1174386Y690812D01*
X1174386D02*
X1176431Y689968D01*
X1176431D02*
X1177113Y689546D01*
X1177113D02*
X1177454Y689125D01*
X1177454D02*
X1177795Y688281D01*
Y687015*
X1177795D02*
X1177113Y686171D01*
X1177113D02*
X1176090Y685750D01*
X1176090D02*
X1174727D01*
X1173704Y686171*
X1173704D02*
X1173022Y687015D01*
X1185636Y693343D02*
X1184954Y694187D01*
X1184954D02*
X1183931Y694609D01*
X1183931D02*
X1182568D01*
X1181545Y694187*
X1181545D02*
X1180863Y693343D01*
X1180863D02*
Y692500D01*
X1180863D02*
X1181204Y691656D01*
X1181204D02*
X1181545Y691234D01*
X1182227Y690812*
X1182227D02*
X1184272Y689968D01*
X1184272D02*
X1184954Y689546D01*
X1184954D02*
X1185295Y689125D01*
X1185636Y688281*
Y687015*
X1185636D02*
X1184954Y686171D01*
X1184954D02*
X1183931Y685750D01*
X1183931D02*
X1182568D01*
X1181545Y686171*
X1181545D02*
X1180863Y687015D01*
X1198590Y694609D02*
X1197909Y694187D01*
X1197909D02*
X1197227Y693343D01*
X1197227D02*
X1196886Y692500D01*
X1196545Y691234*
Y689125*
X1196886Y687859*
X1197227Y687015*
X1197227D02*
X1197909Y686171D01*
X1197909D02*
X1198590Y685750D01*
X1198590D02*
X1199954D01*
X1199954D02*
X1200636Y686171D01*
X1200636D02*
X1201318Y687015D01*
X1201318D02*
X1201659Y687859D01*
X1202000Y689125*
Y691234*
X1201659Y692500*
X1201318Y693343*
X1201318D02*
X1200636Y694187D01*
X1200636D02*
X1199954Y694609D01*
X1199954D02*
X1198590D01*
X1205068D02*
Y685750D01*
Y694609D02*
X1209500D01*
X1205068Y690390D02*
X1207795D01*
X1222454Y694609D02*
X1221431Y694187D01*
X1221431D02*
X1220750Y692921D01*
X1220750D02*
X1220409Y690812D01*
X1220409D02*
Y689546D01*
X1220409D02*
X1220750Y687437D01*
X1220750D02*
X1221431Y686171D01*
X1221431D02*
X1222454Y685750D01*
X1222454D02*
X1223136D01*
X1224159Y686171*
X1224159D02*
X1224840Y687437D01*
X1224840D02*
X1225181Y689546D01*
X1225181D02*
Y690812D01*
X1225181D02*
X1224840Y692921D01*
X1224840D02*
X1224159Y694187D01*
X1224159D02*
X1223136Y694609D01*
X1222454*
X1228590Y686593D02*
X1228250Y686171D01*
X1228250D02*
X1228590Y685750D01*
X1228590D02*
X1228931Y686171D01*
X1228931D02*
X1228590Y686593D01*
X1234045Y694609D02*
X1233022Y694187D01*
X1233022D02*
X1232340Y692921D01*
X1232340D02*
X1232000Y690812D01*
X1232000D02*
Y689546D01*
X1232000D02*
X1232340Y687437D01*
X1232340D02*
X1233022Y686171D01*
X1233022D02*
X1234045Y685750D01*
X1234727*
X1235750Y686171*
X1235750D02*
X1236431Y687437D01*
X1236431D02*
X1236772Y689546D01*
X1236772D02*
Y690812D01*
X1236772D02*
X1236431Y692921D01*
X1236431D02*
X1235750Y694187D01*
X1235750D02*
X1234727Y694609D01*
X1234045*
X1241886D02*
X1240863Y694187D01*
X1240863D02*
X1240181Y692921D01*
X1240181D02*
X1239840Y690812D01*
X1239840D02*
Y689546D01*
X1239840D02*
X1240181Y687437D01*
X1240181D02*
X1240863Y686171D01*
X1240863D02*
X1241886Y685750D01*
X1242568*
X1243590Y686171*
X1243590D02*
X1244272Y687437D01*
X1244272D02*
X1244613Y689546D01*
X1244613D02*
Y690812D01*
X1244613D02*
X1244272Y692921D01*
X1244272D02*
X1243590Y694187D01*
X1243590D02*
X1242568Y694609D01*
X1241886*
X1247681Y692921D02*
X1248363Y693343D01*
X1248363D02*
X1249386Y694609D01*
Y685750*
X1252795Y686593D02*
X1252454Y686171D01*
X1252454D02*
X1252795Y685750D01*
X1253136Y686171*
X1253136D02*
X1252795Y686593D01*
X755750Y599609D02*
X757454Y590750D01*
X759159Y599609D02*
X757454Y590750D01*
X759159Y599609D02*
X760863Y590750D01*
X762568Y599609D02*
X760863Y590750D01*
X765636Y599609D02*
Y590750D01*
X770409Y599609D02*
Y590750D01*
X765636Y595390D02*
X770409D01*
X773477Y599609D02*
Y590750D01*
X778931Y599609D02*
Y590750D01*
X776545Y599609D02*
X781318D01*
X784386D02*
Y590750D01*
Y599609D02*
X788818D01*
X784386Y595390D02*
X787113D01*
X784386Y590750D02*
X788818D01*
X799727Y599609D02*
Y590750D01*
Y599609D02*
X804159D01*
X799727Y595390D02*
X802454D01*
X799727Y590750D02*
X804159D01*
X807227Y599609D02*
Y590750D01*
Y599609D02*
X810295D01*
X811318Y599187*
X811318D02*
X811659Y598765D01*
X811659D02*
X812000Y597921D01*
X812000D02*
Y596656D01*
X811659Y595812*
X811659D02*
X811318Y595390D01*
X811318D02*
X810295Y594968D01*
X810295D02*
X807227D01*
X817113Y599609D02*
X816431Y599187D01*
X816431D02*
X815750Y598343D01*
X815750D02*
X815409Y597500D01*
X815068Y596234*
Y594125*
X815409Y592859*
X815750Y592015*
X815750D02*
X816431Y591171D01*
X816431D02*
X817113Y590750D01*
X817113D02*
X818477D01*
X819159Y591171*
X819159D02*
X819840Y592015D01*
X819840D02*
X820181Y592859D01*
X820181D02*
X820522Y594125D01*
X820522D02*
Y596234D01*
X820522D02*
X820181Y597500D01*
X820181D02*
X819840Y598343D01*
X819840D02*
X819159Y599187D01*
X819159D02*
X818477Y599609D01*
X817113*
X823590D02*
X828363Y590750D01*
Y599609D02*
X823590Y590750D01*
X831431Y599609D02*
X834159Y595390D01*
X834159D02*
Y590750D01*
X836886Y599609D02*
X834159Y595390D01*
X850181Y601296D02*
X849500Y600453D01*
X848818Y599187*
X848818D02*
X848136Y597500D01*
X847795Y595390*
X847795D02*
Y593703D01*
X848136Y591593*
X848136D02*
X848818Y589906D01*
X849500Y588640*
X849500D02*
X850181Y587796D01*
X858363Y597500D02*
X858022Y598343D01*
X858022D02*
X857340Y599187D01*
X857340D02*
X856659Y599609D01*
X855295*
X854613Y599187*
X854613D02*
X853931Y598343D01*
X853931D02*
X853590Y597500D01*
X853590D02*
X853250Y596234D01*
Y594125*
X853590Y592859*
X853590D02*
X853931Y592015D01*
X853931D02*
X854613Y591171D01*
X854613D02*
X855295Y590750D01*
X856659*
X857340Y591171*
X857340D02*
X858022Y592015D01*
X858022D02*
X858363Y592859D01*
X861431Y599609D02*
Y590750D01*
X866204Y599609D02*
Y590750D01*
X861431Y595390D02*
X866204D01*
X869272Y599609D02*
Y590750D01*
Y599609D02*
X873704D01*
X869272Y595390D02*
X872000D01*
X869272Y590750D02*
X873704D01*
X876772Y599609D02*
Y590750D01*
Y599609D02*
X879500Y590750D01*
X882227Y599609D02*
X879500Y590750D01*
X882227Y599609D02*
Y590750D01*
X885295Y599609D02*
Y590750D01*
X893477Y597500D02*
X893136Y598343D01*
X893136D02*
X892454Y599187D01*
X892454D02*
X891772Y599609D01*
X891772D02*
X890409D01*
X889727Y599187*
X889727D02*
X889045Y598343D01*
X889045D02*
X888704Y597500D01*
X888704D02*
X888363Y596234D01*
X888363D02*
Y594125D01*
X888363D02*
X888704Y592859D01*
X888704D02*
X889045Y592015D01*
X889045D02*
X889727Y591171D01*
X889727D02*
X890409Y590750D01*
X891772*
X891772D02*
X892454Y591171D01*
X892454D02*
X893136Y592015D01*
X893136D02*
X893477Y592859D01*
X899272Y599609D02*
X896545Y590750D01*
X899272Y599609D02*
X902000Y590750D01*
X897568Y593703D02*
X900977D01*
X905068Y599609D02*
Y590750D01*
X909159*
X922795Y599609D02*
X920068Y590750D01*
X922795Y599609D02*
X925522Y590750D01*
X921090Y593703D02*
X924500D01*
X928590Y599609D02*
Y590750D01*
Y599609D02*
X933363Y590750D01*
Y599609D02*
Y590750D01*
X936431Y599609D02*
Y590750D01*
Y599609D02*
X938818D01*
X939840Y599187*
X939840D02*
X940522Y598343D01*
X940522D02*
X940863Y597500D01*
X940863D02*
X941204Y596234D01*
X941204D02*
Y594125D01*
X941204D02*
X940863Y592859D01*
X940863D02*
X940522Y592015D01*
X940522D02*
X939840Y591171D01*
X939840D02*
X938818Y590750D01*
X936431*
X956886Y598343D02*
X956204Y599187D01*
X956204D02*
X955181Y599609D01*
X955181D02*
X953818D01*
X952795Y599187*
X952795D02*
X952113Y598343D01*
X952113D02*
Y597500D01*
X952113D02*
X952454Y596656D01*
X952454D02*
X952795Y596234D01*
X953477Y595812*
X953477D02*
X955522Y594968D01*
X955522D02*
X956204Y594546D01*
X956204D02*
X956545Y594125D01*
X956886Y593281*
Y592015*
X956886D02*
X956204Y591171D01*
X956204D02*
X955181Y590750D01*
X955181D02*
X953818D01*
X952795Y591171*
X952795D02*
X952113Y592015D01*
X965068Y597500D02*
X964727Y598343D01*
X964727D02*
X964045Y599187D01*
X964045D02*
X963363Y599609D01*
X963363D02*
X962000D01*
X961318Y599187*
X961318D02*
X960636Y598343D01*
X960636D02*
X960295Y597500D01*
X959954Y596234*
X959954D02*
Y594125D01*
X959954D02*
X960295Y592859D01*
X960636Y592015*
X960636D02*
X961318Y591171D01*
X961318D02*
X962000Y590750D01*
X963363*
X963363D02*
X964045Y591171D01*
X964045D02*
X964727Y592015D01*
X964727D02*
X965068Y592859D01*
X968136Y599609D02*
Y590750D01*
Y599609D02*
X971204D01*
X971204D02*
X972227Y599187D01*
X972227D02*
X972568Y598765D01*
X972568D02*
X972909Y597921D01*
X972909D02*
Y597078D01*
X972568Y596234*
X972227Y595812*
X972227D02*
X971204Y595390D01*
X971204D02*
X968136D01*
X970522D02*
X972909Y590750D01*
X978704Y599609D02*
X975977Y590750D01*
X978704Y599609D02*
X981431Y590750D01*
X977000Y593703D02*
X980409D01*
X986886Y599609D02*
Y590750D01*
X984500Y599609D02*
X989272D01*
X997454Y597500D02*
X997113Y598343D01*
X997113D02*
X996431Y599187D01*
X996431D02*
X995750Y599609D01*
X994386*
X993704Y599187*
X993704D02*
X993022Y598343D01*
X993022D02*
X992681Y597500D01*
X992681D02*
X992340Y596234D01*
X992340D02*
Y594125D01*
X992340D02*
X992681Y592859D01*
X992681D02*
X993022Y592015D01*
X993022D02*
X993704Y591171D01*
X993704D02*
X994386Y590750D01*
X995750*
X996431Y591171*
X996431D02*
X997113Y592015D01*
X997113D02*
X997454Y592859D01*
X1000522Y599609D02*
Y590750D01*
X1005295Y599609D02*
Y590750D01*
X1000522Y595390D02*
X1005295D01*
X1016204Y599609D02*
Y590750D01*
Y599609D02*
X1019272D01*
X1019272D02*
X1020295Y599187D01*
X1020295D02*
X1020636Y598765D01*
X1020636D02*
X1020977Y597921D01*
X1020977D02*
Y597078D01*
X1020636Y596234*
X1020295Y595812*
X1020295D02*
X1019272Y595390D01*
X1019272D02*
X1016204D01*
X1018590D02*
X1020977Y590750D01*
X1024045Y599609D02*
Y590750D01*
Y599609D02*
X1028477D01*
X1024045Y595390D02*
X1026772D01*
X1024045Y590750D02*
X1028477D01*
X1036318Y598343D02*
X1035636Y599187D01*
X1035636D02*
X1034613Y599609D01*
X1034613D02*
X1033250D01*
X1032227Y599187*
X1032227D02*
X1031545Y598343D01*
X1031545D02*
Y597500D01*
X1031886Y596656*
X1032227Y596234*
X1032909Y595812*
X1032909D02*
X1034954Y594968D01*
X1034954D02*
X1035636Y594546D01*
X1035636D02*
X1035977Y594125D01*
X1036318Y593281*
Y592015*
X1036318D02*
X1035636Y591171D01*
X1035636D02*
X1034613Y590750D01*
X1034613D02*
X1033250D01*
X1032227Y591171*
X1032227D02*
X1031545Y592015D01*
X1039386Y599609D02*
Y590750D01*
X1047227Y598343D02*
X1046545Y599187D01*
X1046545D02*
X1045522Y599609D01*
X1045522D02*
X1044159D01*
X1043136Y599187*
X1043136D02*
X1042454Y598343D01*
X1042454D02*
Y597500D01*
X1042454D02*
X1042795Y596656D01*
X1043136Y596234*
X1043818Y595812*
X1043818D02*
X1045863Y594968D01*
X1045863D02*
X1046545Y594546D01*
X1046545D02*
X1046886Y594125D01*
X1047227Y593281*
Y592015*
X1047227D02*
X1046545Y591171D01*
X1046545D02*
X1045522Y590750D01*
X1045522D02*
X1044159D01*
X1043136Y591171*
X1043136D02*
X1042454Y592015D01*
X1052681Y599609D02*
Y590750D01*
X1050295Y599609D02*
X1055068D01*
X1060863D02*
X1058136Y590750D01*
X1060863Y599609D02*
X1063590Y590750D01*
X1059159Y593703D02*
X1062568D01*
X1066659Y599609D02*
Y590750D01*
Y599609D02*
X1071431Y590750D01*
Y599609D02*
Y590750D01*
X1076886Y599609D02*
Y590750D01*
X1074500Y599609D02*
X1079272D01*
X1082340Y601296D02*
X1083022Y600453D01*
X1083022D02*
X1083704Y599187D01*
X1083704D02*
X1084386Y597500D01*
X1084727Y595390*
X1084727D02*
Y593703D01*
X1084386Y591593*
X1084386D02*
X1083704Y589906D01*
X1083704D02*
X1083022Y588640D01*
X1083022D02*
X1082340Y587796D01*
X1088136Y591593D02*
X1087795Y591171D01*
X1087795D02*
X1088136Y590750D01*
X1088477Y591171*
X1088477D02*
X1088136Y591593D01*
X755750Y719609D02*
Y710750D01*
Y719609D02*
X758477Y710750D01*
X761204Y719609D02*
X758477Y710750D01*
X761204Y719609D02*
Y710750D01*
X767000Y719609D02*
X764272Y710750D01*
X767000Y719609D02*
X769727Y710750D01*
X765295Y713703D02*
X768704D01*
X775181Y719609D02*
Y710750D01*
X772795Y719609D02*
X777568D01*
X780636D02*
Y716656D01*
X784386Y719609D02*
Y710750D01*
X788477*
X791886Y716656D02*
X791545Y716234D01*
X791886Y715812*
X791886D02*
X792227Y716234D01*
X791886Y716656*
Y711593D02*
X791545Y711171D01*
X791545D02*
X791886Y710750D01*
X792227Y711171*
X792227D02*
X791886Y711593D01*
X805181Y719609D02*
X804159Y719187D01*
X804159D02*
X803477Y717921D01*
X803477D02*
X803136Y715812D01*
X803136D02*
Y714546D01*
X803136D02*
X803477Y712437D01*
X803477D02*
X804159Y711171D01*
X804159D02*
X805181Y710750D01*
X805181D02*
X805863D01*
X805863D02*
X806886Y711171D01*
X806886D02*
X807568Y712437D01*
X807568D02*
X807909Y714546D01*
X807909D02*
Y715812D01*
X807909D02*
X807568Y717921D01*
X807568D02*
X806886Y719187D01*
X806886D02*
X805863Y719609D01*
X805863D02*
X805181D01*
X811318Y711593D02*
X810977Y711171D01*
X810977D02*
X811318Y710750D01*
X811659Y711171*
X811659D02*
X811318Y711593D01*
X816772Y719609D02*
X815750Y719187D01*
X815750D02*
X815068Y717921D01*
X815068D02*
X814727Y715812D01*
X814727D02*
Y714546D01*
X814727D02*
X815068Y712437D01*
X815068D02*
X815750Y711171D01*
X815750D02*
X816772Y710750D01*
X816772D02*
X817454D01*
X817454D02*
X818477Y711171D01*
X818477D02*
X819159Y712437D01*
X819159D02*
X819500Y714546D01*
X819500D02*
Y715812D01*
X819500D02*
X819159Y717921D01*
X819159D02*
X818477Y719187D01*
X818477D02*
X817454Y719609D01*
X817454D02*
X816772D01*
X826659Y718343D02*
X826318Y719187D01*
X826318D02*
X825295Y719609D01*
X824613*
X824613D02*
X823590Y719187D01*
X823590D02*
X822909Y717921D01*
X822909D02*
X822568Y715812D01*
X822568D02*
Y713703D01*
X822909Y712015*
X822909D02*
X823590Y711171D01*
X823590D02*
X824613Y710750D01*
X824613D02*
X824954D01*
X824954D02*
X825977Y711171D01*
X825977D02*
X826659Y712015D01*
X826659D02*
X827000Y713281D01*
Y713703*
X826659Y714968*
X826659D02*
X825977Y715812D01*
X825977D02*
X824954Y716234D01*
X824954D02*
X824613D01*
X824613D02*
X823590Y715812D01*
X823590D02*
X822909Y714968D01*
X822909D02*
X822568Y713703D01*
X830409Y717500D02*
Y717921D01*
X830409D02*
X830750Y718765D01*
X830750D02*
X831090Y719187D01*
X831090D02*
X831772Y719609D01*
X831772D02*
X833136D01*
X833818Y719187*
X833818D02*
X834159Y718765D01*
X834159D02*
X834500Y717921D01*
X834500D02*
Y717078D01*
X834159Y716234*
X833477Y714968*
X833477D02*
X830068Y710750D01*
X834840*
X848136Y719609D02*
Y710750D01*
X845750Y719609D02*
X850522D01*
X853590D02*
Y710750D01*
X858363Y719609D02*
Y710750D01*
X853590Y715390D02*
X858363D01*
X861431Y719609D02*
Y710750D01*
X866204Y719609D02*
X861431Y713703D01*
X863136Y715812D02*
X866204Y710750D01*
X869613Y711593D02*
X869272Y711171D01*
X869272D02*
X869613Y710750D01*
X869613D02*
X869954Y711171D01*
X869954D02*
X869613Y711593D01*
X880863Y719609D02*
Y710750D01*
Y719609D02*
X885295D01*
X880863Y715390D02*
X883590D01*
X888363Y719609D02*
Y710750D01*
Y719609D02*
X891431D01*
X891431D02*
X892454Y719187D01*
X892454D02*
X892795Y718765D01*
X892795D02*
X893136Y717921D01*
X893136D02*
Y717078D01*
X892795Y716234*
X892454Y715812*
X892454D02*
X891431Y715390D01*
X891431D02*
X888363D01*
X890750D02*
X893136Y710750D01*
X899613Y719609D02*
X896204Y713703D01*
X896204D02*
X901318D01*
X899613Y719609D02*
Y710750D01*
X917340Y717500D02*
X917000Y718343D01*
X917000D02*
X916318Y719187D01*
X916318D02*
X915636Y719609D01*
X914272*
X914272D02*
X913590Y719187D01*
X913590D02*
X912909Y718343D01*
X912909D02*
X912568Y717500D01*
X912227Y716234*
Y714125*
X912568Y712859*
X912909Y712015*
X912909D02*
X913590Y711171D01*
X913590D02*
X914272Y710750D01*
X914272D02*
X915636D01*
X916318Y711171*
X916318D02*
X917000Y712015D01*
X917000D02*
X917340Y712859D01*
X922454Y719609D02*
X921772Y719187D01*
X921772D02*
X921090Y718343D01*
X921090D02*
X920750Y717500D01*
X920409Y716234*
Y714125*
X920750Y712859*
X921090Y712015*
X921090D02*
X921772Y711171D01*
X921772D02*
X922454Y710750D01*
X922454D02*
X923818D01*
X924500Y711171*
X924500D02*
X925181Y712015D01*
X925181D02*
X925522Y712859D01*
X925522D02*
X925863Y714125D01*
X925863D02*
Y716234D01*
X925863D02*
X925522Y717500D01*
X925522D02*
X925181Y718343D01*
X925181D02*
X924500Y719187D01*
X924500D02*
X923818Y719609D01*
X922454*
X928931D02*
Y710750D01*
Y719609D02*
X932000D01*
X933022Y719187*
X933022D02*
X933363Y718765D01*
X933363D02*
X933704Y717921D01*
X933704D02*
Y716656D01*
X933704D02*
X933363Y715812D01*
X933363D02*
X933022Y715390D01*
X933022D02*
X932000Y714968D01*
X932000D02*
X928931D01*
X936772Y719609D02*
Y710750D01*
Y719609D02*
X939840D01*
X939840D02*
X940863Y719187D01*
X940863D02*
X941204Y718765D01*
X941204D02*
X941545Y717921D01*
X941545D02*
Y716656D01*
X941204Y715812*
X941204D02*
X940863Y715390D01*
X940863D02*
X939840Y714968D01*
X939840D02*
X936772D01*
X944613Y719609D02*
Y710750D01*
Y719609D02*
X949045D01*
X944613Y715390D02*
X947340D01*
X944613Y710750D02*
X949045D01*
X952113Y719609D02*
Y710750D01*
Y719609D02*
X955181D01*
X955181D02*
X956204Y719187D01*
X956204D02*
X956545Y718765D01*
X956545D02*
X956886Y717921D01*
X956886D02*
Y717078D01*
X956545Y716234*
X956204Y715812*
X956204D02*
X955181Y715390D01*
X955181D02*
X952113D01*
X954500D02*
X956886Y710750D01*
X965068Y717500D02*
X964727Y718343D01*
X964727D02*
X964045Y719187D01*
X964045D02*
X963363Y719609D01*
X963363D02*
X962000D01*
X961318Y719187*
X961318D02*
X960636Y718343D01*
X960636D02*
X960295Y717500D01*
X959954Y716234*
X959954D02*
Y714125D01*
X959954D02*
X960295Y712859D01*
X960636Y712015*
X960636D02*
X961318Y711171D01*
X961318D02*
X962000Y710750D01*
X963363*
X963363D02*
X964045Y711171D01*
X964045D02*
X964727Y712015D01*
X964727D02*
X965068Y712859D01*
X968136Y719609D02*
Y710750D01*
X972227*
X978022Y719609D02*
X975295Y710750D01*
X978022Y719609D02*
X980750Y710750D01*
X976318Y713703D02*
X979727D01*
X983818Y719609D02*
Y710750D01*
Y719609D02*
X986204D01*
X986204D02*
X987227Y719187D01*
X987227D02*
X987909Y718343D01*
X987909D02*
X988250Y717500D01*
X988590Y716234*
X988590D02*
Y714125D01*
X988590D02*
X988250Y712859D01*
X987909Y712015*
X987909D02*
X987227Y711171D01*
X987227D02*
X986204Y710750D01*
X986204D02*
X983818D01*
X999500Y719609D02*
Y710750D01*
X1003590*
X1009386Y719609D02*
X1006659Y710750D01*
X1009386Y719609D02*
X1012113Y710750D01*
X1007681Y713703D02*
X1011090D01*
X1015181Y719609D02*
Y710750D01*
Y719609D02*
X1017909Y710750D01*
X1020636Y719609D02*
X1017909Y710750D01*
X1020636Y719609D02*
Y710750D01*
X1023704Y719609D02*
Y710750D01*
X1026772Y719609D02*
Y710750D01*
Y719609D02*
X1031545Y710750D01*
Y719609D02*
Y710750D01*
X1037340Y719609D02*
X1034613Y710750D01*
X1037340Y719609D02*
X1040068Y710750D01*
X1035636Y713703D02*
X1039045D01*
X1045522Y719609D02*
Y710750D01*
X1043136Y719609D02*
X1047909D01*
X1050977D02*
Y710750D01*
Y719609D02*
X1055409D01*
X1050977Y715390D02*
X1053704D01*
X1050977Y710750D02*
X1055409D01*
X1058818Y711593D02*
X1058477Y711171D01*
X1058477D02*
X1058818Y710750D01*
X1059159Y711171*
X1059159D02*
X1058818Y711593D01*
X735750Y717921D02*
X736431Y718343D01*
X736431D02*
X737454Y719609D01*
X737454D02*
Y710750D01*
X740863Y711593D02*
X740522Y711171D01*
X740522D02*
X740863Y710750D01*
X740863D02*
X741204Y711171D01*
X741204D02*
X740863Y711593D01*
X736090Y692500D02*
Y692921D01*
X736090D02*
X736431Y693765D01*
X736431D02*
X736772Y694187D01*
X736772D02*
X737454Y694609D01*
X737454D02*
X738818D01*
X739500Y694187*
X739500D02*
X739840Y693765D01*
X739840D02*
X740181Y692921D01*
X740181D02*
Y692078D01*
X740181D02*
X739840Y691234D01*
X739840D02*
X739159Y689968D01*
X739159D02*
X735750Y685750D01*
X740522*
X743931Y686593D02*
X743590Y686171D01*
X743590D02*
X743931Y685750D01*
X743931D02*
X744272Y686171D01*
X744272D02*
X743931Y686593D01*
X736431Y669609D02*
X740181D01*
X740181D02*
X738136Y666234D01*
X739159*
X739840Y665812*
X739840D02*
X740181Y665390D01*
X740181D02*
X740522Y664125D01*
X740522D02*
Y663281D01*
X740522D02*
X740181Y662015D01*
X740181D02*
X739500Y661171D01*
X739500D02*
X738477Y660750D01*
X737454*
X737454D02*
X736431Y661171D01*
X736431D02*
X736090Y661593D01*
X736090D02*
X735750Y662437D01*
X743931Y661593D02*
X743590Y661171D01*
X743590D02*
X743931Y660750D01*
X743931D02*
X744272Y661171D01*
X744272D02*
X743931Y661593D01*
X739159Y644609D02*
X735750Y638703D01*
X740863*
X739159Y644609D02*
Y635750D01*
X744272Y636593D02*
X743931Y636171D01*
X743931D02*
X744272Y635750D01*
X744272D02*
X744613Y636171D01*
X744613D02*
X744272Y636593D01*
X740181Y619609D02*
X736772D01*
X736772D02*
X736431Y615812D01*
X736431D02*
X736772Y616234D01*
X736772D02*
X737795Y616656D01*
X738818*
X739840Y616234*
X739840D02*
X740522Y615390D01*
X740522D02*
X740863Y614125D01*
X740863D02*
X740522Y613281D01*
X740522D02*
X740181Y612015D01*
X740181D02*
X739500Y611171D01*
X739500D02*
X738477Y610750D01*
X737454*
X737454D02*
X736431Y611171D01*
X736431D02*
X736090Y611593D01*
X736090D02*
X735750Y612437D01*
X744272Y611593D02*
X743931Y611171D01*
X743931D02*
X744272Y610750D01*
X744272D02*
X744613Y611171D01*
X744613D02*
X744272Y611593D01*
X740522Y512109D02*
X737113Y503250D01*
X735750Y512109D02*
X740522D01*
X743931Y504093D02*
X743590Y503671D01*
X743590D02*
X743931Y503250D01*
X743931D02*
X744272Y503671D01*
X744272D02*
X743931Y504093D01*
X703250Y742109D02*
Y733250D01*
Y742109D02*
X708022Y733250D01*
Y742109D02*
Y733250D01*
X713136Y742109D02*
X712454Y741687D01*
X712454D02*
X711772Y740843D01*
X711772D02*
X711431Y740000D01*
X711431D02*
X711090Y738734D01*
X711090D02*
Y736625D01*
X711090D02*
X711431Y735359D01*
X711431D02*
X711772Y734515D01*
X711772D02*
X712454Y733671D01*
X712454D02*
X713136Y733250D01*
X714500*
X715181Y733671*
X715181D02*
X715863Y734515D01*
X715863D02*
X716204Y735359D01*
X716204D02*
X716545Y736625D01*
Y738734*
X716204Y740000*
X716204D02*
X715863Y740843D01*
X715863D02*
X715181Y741687D01*
X715181D02*
X714500Y742109D01*
X713136*
X722000D02*
Y733250D01*
X719613Y742109D02*
X724386D01*
X727454D02*
Y733250D01*
Y742109D02*
X731886D01*
X727454Y737890D02*
X730181D01*
X727454Y733250D02*
X731886D01*
X739727Y740843D02*
X739045Y741687D01*
X739045D02*
X738022Y742109D01*
X738022D02*
X736659D01*
X735636Y741687*
X735636D02*
X734954Y740843D01*
X734954D02*
Y740000D01*
X734954D02*
X735295Y739156D01*
X735636Y738734*
X736318Y738312*
X736318D02*
X738363Y737468D01*
X738363D02*
X739045Y737046D01*
X739045D02*
X739386Y736625D01*
X739727Y735781*
Y734515*
X739727D02*
X739045Y733671D01*
X739045D02*
X738022Y733250D01*
X738022D02*
X736659D01*
X735636Y733671*
X735636D02*
X734954Y734515D01*
X743136Y739156D02*
X742795Y738734D01*
X743136Y738312*
X743136D02*
X743477Y738734D01*
X743136Y739156*
Y734093D02*
X742795Y733671D01*
X742795D02*
X743136Y733250D01*
X743477Y733671*
X743477D02*
X743136Y734093D01*
X755750Y644609D02*
Y635750D01*
Y644609D02*
X758818D01*
X759840Y644187*
X759840D02*
X760181Y643765D01*
X760181D02*
X760522Y642921D01*
X760522D02*
Y642078D01*
X760522D02*
X760181Y641234D01*
X760181D02*
X759840Y640812D01*
X759840D02*
X758818Y640390D01*
X755750D02*
X758818D01*
X758818D02*
X759840Y639968D01*
X759840D02*
X760181Y639546D01*
X760181D02*
X760522Y638703D01*
X760522D02*
Y637437D01*
X760522D02*
X760181Y636593D01*
X760181D02*
X759840Y636171D01*
X759840D02*
X758818Y635750D01*
X755750*
X765636Y644609D02*
X764954Y644187D01*
X764954D02*
X764272Y643343D01*
X764272D02*
X763931Y642500D01*
X763931D02*
X763590Y641234D01*
X763590D02*
Y639125D01*
X763590D02*
X763931Y637859D01*
X763931D02*
X764272Y637015D01*
X764272D02*
X764954Y636171D01*
X764954D02*
X765636Y635750D01*
X767000*
X767681Y636171*
X767681D02*
X768363Y637015D01*
X768363D02*
X768704Y637859D01*
X768704D02*
X769045Y639125D01*
Y641234*
X768704Y642500*
X768704D02*
X768363Y643343D01*
X768363D02*
X767681Y644187D01*
X767681D02*
X767000Y644609D01*
X765636*
X774840D02*
X772113Y635750D01*
X774840Y644609D02*
X777568Y635750D01*
X773136Y638703D02*
X776545D01*
X780636Y644609D02*
Y635750D01*
Y644609D02*
X783704D01*
X783704D02*
X784727Y644187D01*
X784727D02*
X785068Y643765D01*
X785068D02*
X785409Y642921D01*
X785409D02*
Y642078D01*
X785068Y641234*
X784727Y640812*
X784727D02*
X783704Y640390D01*
X783704D02*
X780636D01*
X783022D02*
X785409Y635750D01*
X788477Y644609D02*
Y635750D01*
Y644609D02*
X790863D01*
X790863D02*
X791886Y644187D01*
X791886D02*
X792568Y643343D01*
X792568D02*
X792909Y642500D01*
X793250Y641234*
Y639125*
X792909Y637859*
X792568Y637015*
X792568D02*
X791886Y636171D01*
X791886D02*
X790863Y635750D01*
X790863D02*
X788477D01*
X801090Y643343D02*
X800409Y644187D01*
X800409D02*
X799386Y644609D01*
X798022*
X798022D02*
X797000Y644187D01*
X797000D02*
X796318Y643343D01*
X796318D02*
Y642500D01*
X796659Y641656*
X797000Y641234*
X797681Y640812*
X797681D02*
X799727Y639968D01*
X799727D02*
X800409Y639546D01*
X800409D02*
X800750Y639125D01*
X801090Y638281*
X801090D02*
Y637015D01*
X801090D02*
X800409Y636171D01*
X800409D02*
X799386Y635750D01*
X798022*
X798022D02*
X797000Y636171D01*
X797000D02*
X796318Y637015D01*
X814386Y644609D02*
Y635750D01*
X812000Y644609D02*
X816772D01*
X821886D02*
X821204Y644187D01*
X821204D02*
X820522Y643343D01*
X820522D02*
X820181Y642500D01*
X820181D02*
X819840Y641234D01*
X819840D02*
Y639125D01*
X819840D02*
X820181Y637859D01*
X820181D02*
X820522Y637015D01*
X820522D02*
X821204Y636171D01*
X821204D02*
X821886Y635750D01*
X823250*
X823931Y636171*
X823931D02*
X824613Y637015D01*
X824613D02*
X824954Y637859D01*
X824954D02*
X825295Y639125D01*
Y641234*
X824954Y642500*
X824954D02*
X824613Y643343D01*
X824613D02*
X823931Y644187D01*
X823931D02*
X823250Y644609D01*
X821886*
X836204D02*
Y635750D01*
Y644609D02*
X839272D01*
X839272D02*
X840295Y644187D01*
X840295D02*
X840636Y643765D01*
X840636D02*
X840977Y642921D01*
X840977D02*
Y642078D01*
X840636Y641234*
X840295Y640812*
X840295D02*
X839272Y640390D01*
X836204D02*
X839272D01*
X839272D02*
X840295Y639968D01*
X840295D02*
X840636Y639546D01*
X840636D02*
X840977Y638703D01*
Y637437*
X840977D02*
X840636Y636593D01*
X840636D02*
X840295Y636171D01*
X840295D02*
X839272Y635750D01*
X839272D02*
X836204D01*
X844045Y644609D02*
Y635750D01*
Y644609D02*
X848477D01*
X844045Y640390D02*
X846772D01*
X844045Y635750D02*
X848477D01*
X859386Y644609D02*
Y635750D01*
X864159Y644609D02*
Y635750D01*
X859386Y640390D02*
X864159D01*
X869954Y644609D02*
X867227Y635750D01*
X869954Y644609D02*
X872681Y635750D01*
X868250Y638703D02*
X871659D01*
X880522Y643343D02*
X879840Y644187D01*
X879840D02*
X878818Y644609D01*
X877454*
X877454D02*
X876431Y644187D01*
X876431D02*
X875750Y643343D01*
X875750D02*
Y642500D01*
X876090Y641656*
X876090D02*
X876431Y641234D01*
X876431D02*
X877113Y640812D01*
X877113D02*
X879159Y639968D01*
X879159D02*
X879840Y639546D01*
X879840D02*
X880181Y639125D01*
X880181D02*
X880522Y638281D01*
X880522D02*
Y637015D01*
X880522D02*
X879840Y636171D01*
X879840D02*
X878818Y635750D01*
X877454*
X877454D02*
X876431Y636171D01*
X876431D02*
X875750Y637015D01*
X883590Y644609D02*
Y635750D01*
X883590D02*
X887681D01*
X898590Y644609D02*
Y635750D01*
Y644609D02*
X903022D01*
X898590Y640390D02*
X901318D01*
X906090Y644609D02*
Y635750D01*
X909159Y644609D02*
Y635750D01*
Y644609D02*
X913931Y635750D01*
Y644609D02*
Y635750D01*
X917000Y644609D02*
Y635750D01*
X924840Y643343D02*
X924159Y644187D01*
X924159D02*
X923136Y644609D01*
X921772*
X921772D02*
X920750Y644187D01*
X920750D02*
X920068Y643343D01*
X920068D02*
Y642500D01*
X920409Y641656*
X920750Y641234*
X921431Y640812*
X921431D02*
X923477Y639968D01*
X923477D02*
X924159Y639546D01*
X924159D02*
X924500Y639125D01*
X924840Y638281*
X924840D02*
Y637015D01*
X924840D02*
X924159Y636171D01*
X924159D02*
X923136Y635750D01*
X921772*
X921772D02*
X920750Y636171D01*
X920750D02*
X920068Y637015D01*
X927909Y644609D02*
Y635750D01*
X932681Y644609D02*
Y635750D01*
X927909Y640390D02*
X932681D01*
X946318Y644609D02*
X943590Y635750D01*
X946318Y644609D02*
X949045Y635750D01*
X944613Y638703D02*
X948022D01*
X952113Y644609D02*
Y635750D01*
Y644609D02*
X956545D01*
X952113Y640390D02*
X954840D01*
X962000Y644609D02*
Y635750D01*
X959613Y644609D02*
X964386D01*
X967454D02*
Y635750D01*
Y644609D02*
X971886D01*
X967454Y640390D02*
X970181D01*
X967454Y635750D02*
X971886D01*
X974954Y644609D02*
Y635750D01*
Y644609D02*
X978022D01*
X978022D02*
X979045Y644187D01*
X979045D02*
X979386Y643765D01*
X979386D02*
X979727Y642921D01*
X979727D02*
Y642078D01*
X979386Y641234*
X979045Y640812*
X979045D02*
X978022Y640390D01*
X978022D02*
X974954D01*
X977340D02*
X979727Y635750D01*
X995409Y643343D02*
X994727Y644187D01*
X994727D02*
X993704Y644609D01*
X993704D02*
X992340D01*
X992340D02*
X991318Y644187D01*
X991318D02*
X990636Y643343D01*
X990636D02*
Y642500D01*
X990977Y641656*
X991318Y641234*
X992000Y640812*
X992000D02*
X994045Y639968D01*
X994045D02*
X994727Y639546D01*
X994727D02*
X995068Y639125D01*
X995409Y638281*
Y637015*
X995409D02*
X994727Y636171D01*
X994727D02*
X993704Y635750D01*
X993704D02*
X992340D01*
X992340D02*
X991318Y636171D01*
X991318D02*
X990636Y637015D01*
X1000522Y644609D02*
X999840Y644187D01*
X999840D02*
X999159Y643343D01*
X999159D02*
X998818Y642500D01*
X998477Y641234*
Y639125*
X998818Y637859*
X999159Y637015*
X999159D02*
X999840Y636171D01*
X999840D02*
X1000522Y635750D01*
X1000522D02*
X1001886D01*
X1002568Y636171*
X1002568D02*
X1003250Y637015D01*
X1003250D02*
X1003590Y637859D01*
X1003590D02*
X1003931Y639125D01*
X1003931D02*
Y641234D01*
X1003931D02*
X1003590Y642500D01*
X1003590D02*
X1003250Y643343D01*
X1003250D02*
X1002568Y644187D01*
X1002568D02*
X1001886Y644609D01*
X1000522*
X1007000D02*
Y635750D01*
X1011090*
X1014159Y644609D02*
Y635750D01*
Y644609D02*
X1016545D01*
X1017568Y644187*
X1017568D02*
X1018250Y643343D01*
X1018250D02*
X1018590Y642500D01*
X1018590D02*
X1018931Y641234D01*
X1018931D02*
Y639125D01*
X1018931D02*
X1018590Y637859D01*
X1018590D02*
X1018250Y637015D01*
X1018250D02*
X1017568Y636171D01*
X1017568D02*
X1016545Y635750D01*
X1014159*
X1022000Y644609D02*
Y635750D01*
Y644609D02*
X1026431D01*
X1022000Y640390D02*
X1024727D01*
X1022000Y635750D02*
X1026431D01*
X1029500Y644609D02*
Y635750D01*
Y644609D02*
X1032568D01*
X1033590Y644187*
X1033590D02*
X1033931Y643765D01*
X1033931D02*
X1034272Y642921D01*
X1034272D02*
Y642078D01*
X1034272D02*
X1033931Y641234D01*
X1033931D02*
X1033590Y640812D01*
X1033590D02*
X1032568Y640390D01*
X1032568D02*
X1029500D01*
X1031886D02*
X1034272Y635750D01*
X1037340Y644609D02*
Y635750D01*
Y644609D02*
X1040068Y635750D01*
X1042795Y644609D02*
X1040068Y635750D01*
X1042795Y644609D02*
Y635750D01*
X1048590Y644609D02*
X1045863Y635750D01*
X1048590Y644609D02*
X1051318Y635750D01*
X1046886Y638703D02*
X1050295D01*
X1059159Y643343D02*
X1058477Y644187D01*
X1058477D02*
X1057454Y644609D01*
X1057454D02*
X1056090D01*
X1056090D02*
X1055068Y644187D01*
X1055068D02*
X1054386Y643343D01*
X1054386D02*
Y642500D01*
X1054727Y641656*
X1055068Y641234*
X1055750Y640812*
X1055750D02*
X1057795Y639968D01*
X1057795D02*
X1058477Y639546D01*
X1058477D02*
X1058818Y639125D01*
X1059159Y638281*
Y637015*
X1059159D02*
X1058477Y636171D01*
X1058477D02*
X1057454Y635750D01*
X1057454D02*
X1056090D01*
X1056090D02*
X1055068Y636171D01*
X1055068D02*
X1054386Y637015D01*
X1062227Y644609D02*
Y635750D01*
X1067000Y644609D02*
X1062227Y638703D01*
X1063931Y640812D02*
X1067000Y635750D01*
X1070409Y636593D02*
X1070068Y636171D01*
X1070068D02*
X1070409Y635750D01*
X1070750Y636171*
X1070750D02*
X1070409Y636593D01*
X755750Y619609D02*
Y610750D01*
Y619609D02*
X758818D01*
X759840Y619187*
X759840D02*
X760181Y618765D01*
X760181D02*
X760522Y617921D01*
X760522D02*
Y617078D01*
X760522D02*
X760181Y616234D01*
X760181D02*
X759840Y615812D01*
X759840D02*
X758818Y615390D01*
X755750D02*
X758818D01*
X758818D02*
X759840Y614968D01*
X759840D02*
X760181Y614546D01*
X760181D02*
X760522Y613703D01*
X760522D02*
Y612437D01*
X760522D02*
X760181Y611593D01*
X760181D02*
X759840Y611171D01*
X759840D02*
X758818Y610750D01*
X755750*
X765636Y619609D02*
X764954Y619187D01*
X764954D02*
X764272Y618343D01*
X764272D02*
X763931Y617500D01*
X763931D02*
X763590Y616234D01*
X763590D02*
Y614125D01*
X763590D02*
X763931Y612859D01*
X763931D02*
X764272Y612015D01*
X764272D02*
X764954Y611171D01*
X764954D02*
X765636Y610750D01*
X767000*
X767681Y611171*
X767681D02*
X768363Y612015D01*
X768363D02*
X768704Y612859D01*
X768704D02*
X769045Y614125D01*
Y616234*
X768704Y617500*
X768704D02*
X768363Y618343D01*
X768363D02*
X767681Y619187D01*
X767681D02*
X767000Y619609D01*
X765636*
X774840D02*
X772113Y610750D01*
X774840Y619609D02*
X777568Y610750D01*
X773136Y613703D02*
X776545D01*
X780636Y619609D02*
Y610750D01*
Y619609D02*
X783704D01*
X783704D02*
X784727Y619187D01*
X784727D02*
X785068Y618765D01*
X785068D02*
X785409Y617921D01*
X785409D02*
Y617078D01*
X785068Y616234*
X784727Y615812*
X784727D02*
X783704Y615390D01*
X783704D02*
X780636D01*
X783022D02*
X785409Y610750D01*
X788477Y619609D02*
Y610750D01*
Y619609D02*
X790863D01*
X790863D02*
X791886Y619187D01*
X791886D02*
X792568Y618343D01*
X792568D02*
X792909Y617500D01*
X793250Y616234*
Y614125*
X792909Y612859*
X792568Y612015*
X792568D02*
X791886Y611171D01*
X791886D02*
X790863Y610750D01*
X790863D02*
X788477D01*
X801090Y618343D02*
X800409Y619187D01*
X800409D02*
X799386Y619609D01*
X798022*
X798022D02*
X797000Y619187D01*
X797000D02*
X796318Y618343D01*
X796318D02*
Y617500D01*
X796659Y616656*
X797000Y616234*
X797681Y615812*
X797681D02*
X799727Y614968D01*
X799727D02*
X800409Y614546D01*
X800409D02*
X800750Y614125D01*
X801090Y613281*
X801090D02*
Y612015D01*
X801090D02*
X800409Y611171D01*
X800409D02*
X799386Y610750D01*
X798022*
X798022D02*
X797000Y611171D01*
X797000D02*
X796318Y612015D01*
X814386Y619609D02*
Y610750D01*
X812000Y619609D02*
X816772D01*
X821886D02*
X821204Y619187D01*
X821204D02*
X820522Y618343D01*
X820522D02*
X820181Y617500D01*
X820181D02*
X819840Y616234D01*
X819840D02*
Y614125D01*
X819840D02*
X820181Y612859D01*
X820181D02*
X820522Y612015D01*
X820522D02*
X821204Y611171D01*
X821204D02*
X821886Y610750D01*
X823250*
X823931Y611171*
X823931D02*
X824613Y612015D01*
X824613D02*
X824954Y612859D01*
X824954D02*
X825295Y614125D01*
Y616234*
X824954Y617500*
X824954D02*
X824613Y618343D01*
X824613D02*
X823931Y619187D01*
X823931D02*
X823250Y619609D01*
X821886*
X836204D02*
Y610750D01*
Y619609D02*
X839272D01*
X839272D02*
X840295Y619187D01*
X840295D02*
X840636Y618765D01*
X840636D02*
X840977Y617921D01*
X840977D02*
Y617078D01*
X840636Y616234*
X840295Y615812*
X840295D02*
X839272Y615390D01*
X836204D02*
X839272D01*
X839272D02*
X840295Y614968D01*
X840295D02*
X840636Y614546D01*
X840636D02*
X840977Y613703D01*
Y612437*
X840977D02*
X840636Y611593D01*
X840636D02*
X840295Y611171D01*
X840295D02*
X839272Y610750D01*
X839272D02*
X836204D01*
X844045Y619609D02*
Y610750D01*
Y619609D02*
X848477D01*
X844045Y615390D02*
X846772D01*
X844045Y610750D02*
X848477D01*
X864159Y618343D02*
X863477Y619187D01*
X863477D02*
X862454Y619609D01*
X862454D02*
X861090D01*
X861090D02*
X860068Y619187D01*
X860068D02*
X859386Y618343D01*
X859386D02*
Y617500D01*
X859727Y616656*
X860068Y616234*
X860750Y615812*
X860750D02*
X862795Y614968D01*
X862795D02*
X863477Y614546D01*
X863477D02*
X863818Y614125D01*
X864159Y613281*
Y612015*
X864159D02*
X863477Y611171D01*
X863477D02*
X862454Y610750D01*
X862454D02*
X861090D01*
X861090D02*
X860068Y611171D01*
X860068D02*
X859386Y612015D01*
X867227Y619609D02*
Y610750D01*
X870295Y619609D02*
Y610750D01*
X874386*
X877454Y619609D02*
Y610750D01*
X882227Y619609D02*
X877454Y613703D01*
X879159Y615812D02*
X882227Y610750D01*
X890068Y618343D02*
X889386Y619187D01*
X889386D02*
X888363Y619609D01*
X888363D02*
X887000D01*
X885977Y619187*
X885977D02*
X885295Y618343D01*
X885295D02*
Y617500D01*
X885636Y616656*
X885977Y616234*
X886659Y615812*
X886659D02*
X888704Y614968D01*
X888704D02*
X889386Y614546D01*
X889386D02*
X889727Y614125D01*
X890068Y613281*
Y612015*
X890068D02*
X889386Y611171D01*
X889386D02*
X888363Y610750D01*
X888363D02*
X887000D01*
X885977Y611171*
X885977D02*
X885295Y612015D01*
X898250Y617500D02*
X897909Y618343D01*
X897909D02*
X897227Y619187D01*
X897227D02*
X896545Y619609D01*
X895181*
X895181D02*
X894500Y619187D01*
X894500D02*
X893818Y618343D01*
X893818D02*
X893477Y617500D01*
X893136Y616234*
Y614125*
X893477Y612859*
X893818Y612015*
X893818D02*
X894500Y611171D01*
X894500D02*
X895181Y610750D01*
X895181D02*
X896545D01*
X897227Y611171*
X897227D02*
X897909Y612015D01*
X897909D02*
X898250Y612859D01*
X901318Y619609D02*
Y610750D01*
Y619609D02*
X904386D01*
X905409Y619187*
X905409D02*
X905750Y618765D01*
X905750D02*
X906090Y617921D01*
X906090D02*
Y617078D01*
X906090D02*
X905750Y616234D01*
X905409Y615812*
X905409D02*
X904386Y615390D01*
X904386D02*
X901318D01*
X903704D02*
X906090Y610750D01*
X909159Y619609D02*
Y610750D01*
Y619609D02*
X913590D01*
X909159Y615390D02*
X911886D01*
X909159Y610750D02*
X913590D01*
X916659Y619609D02*
Y610750D01*
Y619609D02*
X921090D01*
X916659Y615390D02*
X919386D01*
X916659Y610750D02*
X921090D01*
X924159Y619609D02*
Y610750D01*
Y619609D02*
X928931Y610750D01*
Y619609D02*
Y610750D01*
X932000Y619609D02*
Y610750D01*
Y619609D02*
X936431D01*
X932000Y615390D02*
X934727D01*
X932000Y610750D02*
X936431D01*
X939500Y619609D02*
Y610750D01*
Y619609D02*
X941886D01*
X942909Y619187*
X942909D02*
X943590Y618343D01*
X943590D02*
X943931Y617500D01*
X943931D02*
X944272Y616234D01*
X944272D02*
Y614125D01*
X944272D02*
X943931Y612859D01*
X943931D02*
X943590Y612015D01*
X943590D02*
X942909Y611171D01*
X942909D02*
X941886Y610750D01*
X939500*
X957227Y619609D02*
X956545Y619187D01*
X956545D02*
X955863Y618343D01*
X955863D02*
X955522Y617500D01*
X955522D02*
X955181Y616234D01*
X955181D02*
Y614125D01*
X955181D02*
X955522Y612859D01*
X955522D02*
X955863Y612015D01*
X955863D02*
X956545Y611171D01*
X956545D02*
X957227Y610750D01*
X958590*
X958590D02*
X959272Y611171D01*
X959272D02*
X959954Y612015D01*
X959954D02*
X960295Y612859D01*
X960636Y614125*
Y616234*
X960295Y617500*
X959954Y618343*
X959954D02*
X959272Y619187D01*
X959272D02*
X958590Y619609D01*
X958590D02*
X957227D01*
X963704D02*
Y610750D01*
Y619609D02*
X968477Y610750D01*
Y619609D02*
Y610750D01*
X981772Y619609D02*
Y610750D01*
X979386Y619609D02*
X984159D01*
X989272D02*
X988590Y619187D01*
X988590D02*
X987909Y618343D01*
X987909D02*
X987568Y617500D01*
X987227Y616234*
Y614125*
X987568Y612859*
X987909Y612015*
X987909D02*
X988590Y611171D01*
X988590D02*
X989272Y610750D01*
X989272D02*
X990636D01*
X991318Y611171*
X991318D02*
X992000Y612015D01*
X992000D02*
X992340Y612859D01*
X992340D02*
X992681Y614125D01*
X992681D02*
Y616234D01*
X992681D02*
X992340Y617500D01*
X992340D02*
X992000Y618343D01*
X992000D02*
X991318Y619187D01*
X991318D02*
X990636Y619609D01*
X989272*
X995750D02*
Y610750D01*
Y619609D02*
X998818D01*
X999840Y619187*
X999840D02*
X1000181Y618765D01*
X1000181D02*
X1000522Y617921D01*
X1000522D02*
Y616656D01*
X1000522D02*
X1000181Y615812D01*
X1000181D02*
X999840Y615390D01*
X999840D02*
X998818Y614968D01*
X998818D02*
X995750D01*
X1016204Y618343D02*
X1015522Y619187D01*
X1015522D02*
X1014500Y619609D01*
X1013136*
X1012113Y619187*
X1012113D02*
X1011431Y618343D01*
X1011431D02*
Y617500D01*
X1011431D02*
X1011772Y616656D01*
X1011772D02*
X1012113Y616234D01*
X1012113D02*
X1012795Y615812D01*
X1012795D02*
X1014840Y614968D01*
X1014840D02*
X1015522Y614546D01*
X1015522D02*
X1015863Y614125D01*
X1015863D02*
X1016204Y613281D01*
X1016204D02*
Y612015D01*
X1016204D02*
X1015522Y611171D01*
X1015522D02*
X1014500Y610750D01*
X1013136*
X1012113Y611171*
X1012113D02*
X1011431Y612015D01*
X1019272Y619609D02*
Y610750D01*
X1022340Y619609D02*
Y610750D01*
Y619609D02*
X1024727D01*
X1025750Y619187*
X1025750D02*
X1026431Y618343D01*
X1026431D02*
X1026772Y617500D01*
X1026772D02*
X1027113Y616234D01*
X1027113D02*
Y614125D01*
X1027113D02*
X1026772Y612859D01*
X1026772D02*
X1026431Y612015D01*
X1026431D02*
X1025750Y611171D01*
X1025750D02*
X1024727Y610750D01*
X1022340*
X1030181Y619609D02*
Y610750D01*
Y619609D02*
X1034613D01*
X1030181Y615390D02*
X1032909D01*
X1030181Y610750D02*
X1034613D01*
X1045522Y619609D02*
X1047227Y610750D01*
X1048931Y619609D02*
X1047227Y610750D01*
X1048931Y619609D02*
X1050636Y610750D01*
X1052340Y619609D02*
X1050636Y610750D01*
X1055409Y619609D02*
Y610750D01*
X1060863Y619609D02*
Y610750D01*
X1058477Y619609D02*
X1063250D01*
X1066318D02*
Y610750D01*
X1071090Y619609D02*
Y610750D01*
X1066318Y615390D02*
X1071090D01*
X1082000Y619609D02*
Y610750D01*
Y619609D02*
X1085068D01*
X1086090Y619187*
X1086090D02*
X1086431Y618765D01*
X1086431D02*
X1086772Y617921D01*
X1086772D02*
Y616656D01*
X1086772D02*
X1086431Y615812D01*
X1086431D02*
X1086090Y615390D01*
X1086090D02*
X1085068Y614968D01*
X1085068D02*
X1082000D01*
X1089840Y619609D02*
Y610750D01*
Y619609D02*
X1094272D01*
X1089840Y615390D02*
X1092568D01*
X1089840Y610750D02*
X1094272D01*
X1097340Y619609D02*
Y610750D01*
Y619609D02*
X1100409D01*
X1101431Y619187*
X1101431D02*
X1101772Y618765D01*
X1101772D02*
X1102113Y617921D01*
X1102113D02*
Y617078D01*
X1102113D02*
X1101772Y616234D01*
X1101772D02*
X1101431Y615812D01*
X1101431D02*
X1100409Y615390D01*
X1100409D02*
X1097340D01*
X1099727D02*
X1102113Y610750D01*
X1105181Y619609D02*
Y610750D01*
Y619609D02*
X1107909Y610750D01*
X1110636Y619609D02*
X1107909Y610750D01*
X1110636Y619609D02*
Y610750D01*
X1116431Y619609D02*
X1113704Y610750D01*
X1116431Y619609D02*
X1119159Y610750D01*
X1114727Y613703D02*
X1118136D01*
X1122227Y619609D02*
Y610750D01*
Y619609D02*
X1127000Y610750D01*
Y619609D02*
Y610750D01*
X1130068Y619609D02*
Y610750D01*
Y619609D02*
X1134500D01*
X1130068Y615390D02*
X1132795D01*
X1130068Y610750D02*
X1134500D01*
X1137568Y619609D02*
Y610750D01*
Y619609D02*
X1142340Y610750D01*
Y619609D02*
Y610750D01*
X1147795Y619609D02*
Y610750D01*
X1145409Y619609D02*
X1150181D01*
X1153931Y611171D02*
X1153590Y610750D01*
X1153590D02*
X1153250Y611171D01*
X1153250D02*
X1153590Y611593D01*
X1153590D02*
X1153931Y611171D01*
X1153931D02*
Y610328D01*
X1153931D02*
X1153590Y609484D01*
X1153590D02*
X1153250Y609062D01*
X755750Y669609D02*
Y660750D01*
Y669609D02*
X758818D01*
X759840Y669187*
X759840D02*
X760181Y668765D01*
X760181D02*
X760522Y667921D01*
X760522D02*
Y667078D01*
X760522D02*
X760181Y666234D01*
X760181D02*
X759840Y665812D01*
X759840D02*
X758818Y665390D01*
X755750D02*
X758818D01*
X758818D02*
X759840Y664968D01*
X759840D02*
X760181Y664546D01*
X760181D02*
X760522Y663703D01*
X760522D02*
Y662437D01*
X760522D02*
X760181Y661593D01*
X760181D02*
X759840Y661171D01*
X759840D02*
X758818Y660750D01*
X755750*
X765636Y669609D02*
X764954Y669187D01*
X764954D02*
X764272Y668343D01*
X764272D02*
X763931Y667500D01*
X763931D02*
X763590Y666234D01*
X763590D02*
Y664125D01*
X763590D02*
X763931Y662859D01*
X763931D02*
X764272Y662015D01*
X764272D02*
X764954Y661171D01*
X764954D02*
X765636Y660750D01*
X767000*
X767681Y661171*
X767681D02*
X768363Y662015D01*
X768363D02*
X768704Y662859D01*
X768704D02*
X769045Y664125D01*
Y666234*
X768704Y667500*
X768704D02*
X768363Y668343D01*
X768363D02*
X767681Y669187D01*
X767681D02*
X767000Y669609D01*
X765636*
X774840D02*
X772113Y660750D01*
X774840Y669609D02*
X777568Y660750D01*
X773136Y663703D02*
X776545D01*
X780636Y669609D02*
Y660750D01*
Y669609D02*
X783704D01*
X783704D02*
X784727Y669187D01*
X784727D02*
X785068Y668765D01*
X785068D02*
X785409Y667921D01*
X785409D02*
Y667078D01*
X785068Y666234*
X784727Y665812*
X784727D02*
X783704Y665390D01*
X783704D02*
X780636D01*
X783022D02*
X785409Y660750D01*
X788477Y669609D02*
Y660750D01*
Y669609D02*
X790863D01*
X790863D02*
X791886Y669187D01*
X791886D02*
X792568Y668343D01*
X792568D02*
X792909Y667500D01*
X793250Y666234*
Y664125*
X792909Y662859*
X792568Y662015*
X792568D02*
X791886Y661171D01*
X791886D02*
X790863Y660750D01*
X790863D02*
X788477D01*
X801090Y668343D02*
X800409Y669187D01*
X800409D02*
X799386Y669609D01*
X798022*
X798022D02*
X797000Y669187D01*
X797000D02*
X796318Y668343D01*
X796318D02*
Y667500D01*
X796659Y666656*
X797000Y666234*
X797681Y665812*
X797681D02*
X799727Y664968D01*
X799727D02*
X800409Y664546D01*
X800409D02*
X800750Y664125D01*
X801090Y663281*
X801090D02*
Y662015D01*
X801090D02*
X800409Y661171D01*
X800409D02*
X799386Y660750D01*
X798022*
X798022D02*
X797000Y661171D01*
X797000D02*
X796318Y662015D01*
X814386Y669609D02*
Y660750D01*
X812000Y669609D02*
X816772D01*
X821886D02*
X821204Y669187D01*
X821204D02*
X820522Y668343D01*
X820522D02*
X820181Y667500D01*
X820181D02*
X819840Y666234D01*
X819840D02*
Y664125D01*
X819840D02*
X820181Y662859D01*
X820181D02*
X820522Y662015D01*
X820522D02*
X821204Y661171D01*
X821204D02*
X821886Y660750D01*
X823250*
X823931Y661171*
X823931D02*
X824613Y662015D01*
X824613D02*
X824954Y662859D01*
X824954D02*
X825295Y664125D01*
Y666234*
X824954Y667500*
X824954D02*
X824613Y668343D01*
X824613D02*
X823931Y669187D01*
X823931D02*
X823250Y669609D01*
X821886*
X836204D02*
Y660750D01*
Y669609D02*
X839272D01*
X839272D02*
X840295Y669187D01*
X840295D02*
X840636Y668765D01*
X840636D02*
X840977Y667921D01*
X840977D02*
Y667078D01*
X840636Y666234*
X840295Y665812*
X840295D02*
X839272Y665390D01*
X836204D02*
X839272D01*
X839272D02*
X840295Y664968D01*
X840295D02*
X840636Y664546D01*
X840636D02*
X840977Y663703D01*
Y662437*
X840977D02*
X840636Y661593D01*
X840636D02*
X840295Y661171D01*
X840295D02*
X839272Y660750D01*
X839272D02*
X836204D01*
X844045Y669609D02*
Y660750D01*
Y669609D02*
X848477D01*
X844045Y665390D02*
X846772D01*
X844045Y660750D02*
X848477D01*
X859386Y669609D02*
Y660750D01*
X863477*
X866545Y669609D02*
Y660750D01*
Y669609D02*
X869613D01*
X869613D02*
X870636Y669187D01*
X870636D02*
X870977Y668765D01*
X870977D02*
X871318Y667921D01*
X871318D02*
Y666656D01*
X870977Y665812*
X870977D02*
X870636Y665390D01*
X870636D02*
X869613Y664968D01*
X869613D02*
X866545D01*
X874386Y669609D02*
Y660750D01*
X879500Y669609D02*
X878818Y669187D01*
X878818D02*
X878136Y668343D01*
X878136D02*
X877795Y667500D01*
X877454Y666234*
X877454D02*
Y664125D01*
X877454D02*
X877795Y662859D01*
X878136Y662015*
X878136D02*
X878818Y661171D01*
X878818D02*
X879500Y660750D01*
X880863*
X880863D02*
X881545Y661171D01*
X881545D02*
X882227Y662015D01*
X882227D02*
X882568Y662859D01*
X882909Y664125*
Y666234*
X882568Y667500*
X882227Y668343*
X882227D02*
X881545Y669187D01*
X881545D02*
X880863Y669609D01*
X880863D02*
X879500D01*
X885977D02*
Y660750D01*
Y669609D02*
X889045D01*
X890068Y669187*
X890068D02*
X890409Y668765D01*
X890409D02*
X890750Y667921D01*
X890750D02*
Y667078D01*
X890409Y666234*
X890068Y665812*
X890068D02*
X889045Y665390D01*
X885977D02*
X889045D01*
X889045D02*
X890068Y664968D01*
X890068D02*
X890409Y664546D01*
X890409D02*
X890750Y663703D01*
Y662437*
X890750D02*
X890409Y661593D01*
X890409D02*
X890068Y661171D01*
X890068D02*
X889045Y660750D01*
X885977*
X898931Y667500D02*
X898590Y668343D01*
X898590D02*
X897909Y669187D01*
X897909D02*
X897227Y669609D01*
X895863*
X895863D02*
X895181Y669187D01*
X895181D02*
X894500Y668343D01*
X894500D02*
X894159Y667500D01*
X893818Y666234*
Y664125*
X894159Y662859*
X894500Y662015*
X894500D02*
X895181Y661171D01*
X895181D02*
X895863Y660750D01*
X895863D02*
X897227D01*
X897909Y661171*
X897909D02*
X898590Y662015D01*
X898590D02*
X898931Y662859D01*
X911886Y669609D02*
X911204Y669187D01*
X911204D02*
X910522Y668343D01*
X910522D02*
X910181Y667500D01*
X910181D02*
X909840Y666234D01*
X909840D02*
Y664125D01*
X909840D02*
X910181Y662859D01*
X910181D02*
X910522Y662015D01*
X910522D02*
X911204Y661171D01*
X911204D02*
X911886Y660750D01*
X913250*
X913931Y661171*
X913931D02*
X914613Y662015D01*
X914613D02*
X914954Y662859D01*
X914954D02*
X915295Y664125D01*
Y666234*
X914954Y667500*
X914954D02*
X914613Y668343D01*
X914613D02*
X913931Y669187D01*
X913931D02*
X913250Y669609D01*
X911886*
X918363D02*
Y660750D01*
Y669609D02*
X923136Y660750D01*
Y669609D02*
Y660750D01*
X934045Y669609D02*
Y660750D01*
Y669609D02*
X937113D01*
X937113D02*
X938136Y669187D01*
X938136D02*
X938477Y668765D01*
X938477D02*
X938818Y667921D01*
X938818D02*
Y667078D01*
X938477Y666234*
X938136Y665812*
X938136D02*
X937113Y665390D01*
X934045D02*
X937113D01*
X937113D02*
X938136Y664968D01*
X938136D02*
X938477Y664546D01*
X938477D02*
X938818Y663703D01*
Y662437*
X938818D02*
X938477Y661593D01*
X938477D02*
X938136Y661171D01*
X938136D02*
X937113Y660750D01*
X937113D02*
X934045D01*
X943931Y669609D02*
X943250Y669187D01*
X943250D02*
X942568Y668343D01*
X942568D02*
X942227Y667500D01*
X941886Y666234*
Y664125*
X942227Y662859*
X942568Y662015*
X942568D02*
X943250Y661171D01*
X943250D02*
X943931Y660750D01*
X943931D02*
X945295D01*
X945977Y661171*
X945977D02*
X946659Y662015D01*
X946659D02*
X947000Y662859D01*
X947340Y664125*
X947340D02*
Y666234D01*
X947340D02*
X947000Y667500D01*
X946659Y668343*
X946659D02*
X945977Y669187D01*
X945977D02*
X945295Y669609D01*
X943931*
X952795D02*
Y660750D01*
X950409Y669609D02*
X955181D01*
X958250D02*
Y660750D01*
X963022Y669609D02*
Y660750D01*
X958250Y665390D02*
X963022D01*
X978704Y668343D02*
X978022Y669187D01*
X978022D02*
X977000Y669609D01*
X975636*
X974613Y669187*
X974613D02*
X973931Y668343D01*
X973931D02*
Y667500D01*
X973931D02*
X974272Y666656D01*
X974272D02*
X974613Y666234D01*
X974613D02*
X975295Y665812D01*
X975295D02*
X977340Y664968D01*
X977340D02*
X978022Y664546D01*
X978022D02*
X978363Y664125D01*
X978363D02*
X978704Y663281D01*
X978704D02*
Y662015D01*
X978704D02*
X978022Y661171D01*
X978022D02*
X977000Y660750D01*
X975636*
X974613Y661171*
X974613D02*
X973931Y662015D01*
X981772Y669609D02*
Y660750D01*
X984840Y669609D02*
Y660750D01*
Y669609D02*
X987227D01*
X988250Y669187*
X988250D02*
X988931Y668343D01*
X988931D02*
X989272Y667500D01*
X989272D02*
X989613Y666234D01*
X989613D02*
Y664125D01*
X989613D02*
X989272Y662859D01*
X989272D02*
X988931Y662015D01*
X988931D02*
X988250Y661171D01*
X988250D02*
X987227Y660750D01*
X984840*
X992681Y669609D02*
Y660750D01*
Y669609D02*
X997113D01*
X992681Y665390D02*
X995409D01*
X992681Y660750D02*
X997113D01*
X1004954Y668343D02*
X1004272Y669187D01*
X1004272D02*
X1003250Y669609D01*
X1001886*
X1000863Y669187*
X1000863D02*
X1000181Y668343D01*
X1000181D02*
Y667500D01*
X1000181D02*
X1000522Y666656D01*
X1000522D02*
X1000863Y666234D01*
X1000863D02*
X1001545Y665812D01*
X1001545D02*
X1003590Y664968D01*
X1003590D02*
X1004272Y664546D01*
X1004272D02*
X1004613Y664125D01*
X1004613D02*
X1004954Y663281D01*
X1004954D02*
Y662015D01*
X1004954D02*
X1004272Y661171D01*
X1004272D02*
X1003250Y660750D01*
X1001886*
X1000863Y661171*
X1000863D02*
X1000181Y662015D01*
X1015863Y664546D02*
X1022000D01*
X1038022Y667500D02*
X1037681Y668343D01*
X1037681D02*
X1037000Y669187D01*
X1037000D02*
X1036318Y669609D01*
X1034954*
X1034954D02*
X1034272Y669187D01*
X1034272D02*
X1033590Y668343D01*
X1033590D02*
X1033250Y667500D01*
X1032909Y666234*
Y664125*
X1033250Y662859*
X1033590Y662015*
X1033590D02*
X1034272Y661171D01*
X1034272D02*
X1034954Y660750D01*
X1034954D02*
X1036318D01*
X1037000Y661171*
X1037000D02*
X1037681Y662015D01*
X1037681D02*
X1038022Y662859D01*
X1038022D02*
Y664125D01*
X1036318D02*
X1038022D01*
X1041090Y669609D02*
Y660750D01*
Y669609D02*
X1044159D01*
X1045181Y669187*
X1045181D02*
X1045522Y668765D01*
X1045522D02*
X1045863Y667921D01*
X1045863D02*
Y667078D01*
X1045863D02*
X1045522Y666234D01*
X1045522D02*
X1045181Y665812D01*
X1045181D02*
X1044159Y665390D01*
X1044159D02*
X1041090D01*
X1043477D02*
X1045863Y660750D01*
X1048931Y669609D02*
Y660750D01*
Y669609D02*
X1053363D01*
X1048931Y665390D02*
X1051659D01*
X1048931Y660750D02*
X1053363D01*
X1056431Y669609D02*
Y660750D01*
Y669609D02*
X1060863D01*
X1056431Y665390D02*
X1059159D01*
X1056431Y660750D02*
X1060863D01*
X1063931Y669609D02*
Y660750D01*
Y669609D02*
X1068704Y660750D01*
Y669609D02*
Y660750D01*
X1084727Y667500D02*
X1084386Y668343D01*
X1084386D02*
X1083704Y669187D01*
X1083704D02*
X1083022Y669609D01*
X1083022D02*
X1081659D01*
X1080977Y669187*
X1080977D02*
X1080295Y668343D01*
X1080295D02*
X1079954Y667500D01*
X1079954D02*
X1079613Y666234D01*
X1079613D02*
Y664125D01*
X1079613D02*
X1079954Y662859D01*
X1079954D02*
X1080295Y662015D01*
X1080295D02*
X1080977Y661171D01*
X1080977D02*
X1081659Y660750D01*
X1083022*
X1083022D02*
X1083704Y661171D01*
X1083704D02*
X1084386Y662015D01*
X1084386D02*
X1084727Y662859D01*
X1089840Y669609D02*
X1089159Y669187D01*
X1089159D02*
X1088477Y668343D01*
X1088477D02*
X1088136Y667500D01*
X1087795Y666234*
Y664125*
X1088136Y662859*
X1088477Y662015*
X1088477D02*
X1089159Y661171D01*
X1089159D02*
X1089840Y660750D01*
X1089840D02*
X1091204D01*
X1091204D02*
X1091886Y661171D01*
X1091886D02*
X1092568Y662015D01*
X1092568D02*
X1092909Y662859D01*
X1093250Y664125*
Y666234*
X1092909Y667500*
X1092568Y668343*
X1092568D02*
X1091886Y669187D01*
X1091886D02*
X1091204Y669609D01*
X1091204D02*
X1089840D01*
X1096318D02*
Y660750D01*
X1100409*
X1105522Y669609D02*
X1104840Y669187D01*
X1104840D02*
X1104159Y668343D01*
X1104159D02*
X1103818Y667500D01*
X1103477Y666234*
Y664125*
X1103818Y662859*
X1104159Y662015*
X1104159D02*
X1104840Y661171D01*
X1104840D02*
X1105522Y660750D01*
X1105522D02*
X1106886D01*
X1107568Y661171*
X1107568D02*
X1108250Y662015D01*
X1108250D02*
X1108590Y662859D01*
X1108590D02*
X1108931Y664125D01*
X1108931D02*
Y666234D01*
X1108931D02*
X1108590Y667500D01*
X1108590D02*
X1108250Y668343D01*
X1108250D02*
X1107568Y669187D01*
X1107568D02*
X1106886Y669609D01*
X1105522*
X1112000D02*
Y660750D01*
Y669609D02*
X1115068D01*
X1116090Y669187*
X1116090D02*
X1116431Y668765D01*
X1116431D02*
X1116772Y667921D01*
X1116772D02*
Y667078D01*
X1116772D02*
X1116431Y666234D01*
X1116431D02*
X1116090Y665812D01*
X1116090D02*
X1115068Y665390D01*
X1115068D02*
X1112000D01*
X1114386D02*
X1116772Y660750D01*
X1120181Y661593D02*
X1119840Y661171D01*
X1119840D02*
X1120181Y660750D01*
X1120181D02*
X1120522Y661171D01*
X1120522D02*
X1120181Y661593D01*
X755750Y577109D02*
Y568250D01*
Y577109D02*
X758818D01*
X759840Y576687*
X759840D02*
X760181Y576265D01*
X760181D02*
X760522Y575421D01*
X760522D02*
Y574578D01*
X760522D02*
X760181Y573734D01*
X760181D02*
X759840Y573312D01*
X759840D02*
X758818Y572890D01*
X755750D02*
X758818D01*
X758818D02*
X759840Y572468D01*
X759840D02*
X760181Y572046D01*
X760181D02*
X760522Y571203D01*
X760522D02*
Y569937D01*
X760522D02*
X760181Y569093D01*
X760181D02*
X759840Y568671D01*
X759840D02*
X758818Y568250D01*
X755750*
X765636Y577109D02*
X764954Y576687D01*
X764954D02*
X764272Y575843D01*
X764272D02*
X763931Y575000D01*
X763931D02*
X763590Y573734D01*
X763590D02*
Y571625D01*
X763590D02*
X763931Y570359D01*
X763931D02*
X764272Y569515D01*
X764272D02*
X764954Y568671D01*
X764954D02*
X765636Y568250D01*
X767000*
X767681Y568671*
X767681D02*
X768363Y569515D01*
X768363D02*
X768704Y570359D01*
X768704D02*
X769045Y571625D01*
Y573734*
X768704Y575000*
X768704D02*
X768363Y575843D01*
X768363D02*
X767681Y576687D01*
X767681D02*
X767000Y577109D01*
X765636*
X774840D02*
X772113Y568250D01*
X774840Y577109D02*
X777568Y568250D01*
X773136Y571203D02*
X776545D01*
X780636Y577109D02*
Y568250D01*
Y577109D02*
X783704D01*
X783704D02*
X784727Y576687D01*
X784727D02*
X785068Y576265D01*
X785068D02*
X785409Y575421D01*
X785409D02*
Y574578D01*
X785068Y573734*
X784727Y573312*
X784727D02*
X783704Y572890D01*
X783704D02*
X780636D01*
X783022D02*
X785409Y568250D01*
X788477Y577109D02*
Y568250D01*
Y577109D02*
X790863D01*
X790863D02*
X791886Y576687D01*
X791886D02*
X792568Y575843D01*
X792568D02*
X792909Y575000D01*
X793250Y573734*
Y571625*
X792909Y570359*
X792568Y569515*
X792568D02*
X791886Y568671D01*
X791886D02*
X790863Y568250D01*
X790863D02*
X788477D01*
X801090Y575843D02*
X800409Y576687D01*
X800409D02*
X799386Y577109D01*
X798022*
X798022D02*
X797000Y576687D01*
X797000D02*
X796318Y575843D01*
X796318D02*
Y575000D01*
X796659Y574156*
X797000Y573734*
X797681Y573312*
X797681D02*
X799727Y572468D01*
X799727D02*
X800409Y572046D01*
X800409D02*
X800750Y571625D01*
X801090Y570781*
X801090D02*
Y569515D01*
X801090D02*
X800409Y568671D01*
X800409D02*
X799386Y568250D01*
X798022*
X798022D02*
X797000Y568671D01*
X797000D02*
X796318Y569515D01*
X816772Y575843D02*
X816090Y576687D01*
X816090D02*
X815068Y577109D01*
X813704*
X813704D02*
X812681Y576687D01*
X812681D02*
X812000Y575843D01*
X812000D02*
Y575000D01*
X812340Y574156*
X812340D02*
X812681Y573734D01*
X812681D02*
X813363Y573312D01*
X813363D02*
X815409Y572468D01*
X815409D02*
X816090Y572046D01*
X816090D02*
X816431Y571625D01*
X816431D02*
X816772Y570781D01*
X816772D02*
Y569515D01*
X816772D02*
X816090Y568671D01*
X816090D02*
X815068Y568250D01*
X813704*
X813704D02*
X812681Y568671D01*
X812681D02*
X812000Y569515D01*
X819840Y577109D02*
Y568250D01*
X824613Y577109D02*
Y568250D01*
X819840Y572890D02*
X824613D01*
X830409Y577109D02*
X827681Y568250D01*
X830409Y577109D02*
X833136Y568250D01*
X828704Y571203D02*
X832113D01*
X836204Y577109D02*
Y568250D01*
X836204D02*
X840295D01*
X843363Y577109D02*
Y568250D01*
X843363D02*
X847454D01*
X858363Y577109D02*
Y568250D01*
Y577109D02*
X861431D01*
X861431D02*
X862454Y576687D01*
X862454D02*
X862795Y576265D01*
X862795D02*
X863136Y575421D01*
X863136D02*
Y574578D01*
X862795Y573734*
X862454Y573312*
X862454D02*
X861431Y572890D01*
X858363D02*
X861431D01*
X861431D02*
X862454Y572468D01*
X862454D02*
X862795Y572046D01*
X862795D02*
X863136Y571203D01*
Y569937*
X863136D02*
X862795Y569093D01*
X862795D02*
X862454Y568671D01*
X862454D02*
X861431Y568250D01*
X861431D02*
X858363D01*
X866204Y577109D02*
Y568250D01*
Y577109D02*
X870636D01*
X866204Y572890D02*
X868931D01*
X866204Y568250D02*
X870636D01*
X881545Y577109D02*
Y568250D01*
Y577109D02*
X884272Y568250D01*
X887000Y577109D02*
X884272Y568250D01*
X887000Y577109D02*
Y568250D01*
X892795Y577109D02*
X890068Y568250D01*
X892795Y577109D02*
X895522Y568250D01*
X891090Y571203D02*
X894500D01*
X898590Y577109D02*
Y568250D01*
Y577109D02*
X900977D01*
X902000Y576687*
X902000D02*
X902681Y575843D01*
X902681D02*
X903022Y575000D01*
X903022D02*
X903363Y573734D01*
X903363D02*
Y571625D01*
X903363D02*
X903022Y570359D01*
X903022D02*
X902681Y569515D01*
X902681D02*
X902000Y568671D01*
X902000D02*
X900977Y568250D01*
X898590*
X906431Y577109D02*
Y568250D01*
Y577109D02*
X910863D01*
X906431Y572890D02*
X909159D01*
X906431Y568250D02*
X910863D01*
X921772Y577109D02*
Y568250D01*
Y577109D02*
X926204D01*
X921772Y572890D02*
X924500D01*
X929272Y577109D02*
Y568250D01*
Y577109D02*
X932340D01*
X932340D02*
X933363Y576687D01*
X933363D02*
X933704Y576265D01*
X933704D02*
X934045Y575421D01*
X934045D02*
Y574578D01*
X933704Y573734*
X933704D02*
X933363Y573312D01*
X933363D02*
X932340Y572890D01*
X932340D02*
X929272D01*
X931659D02*
X934045Y568250D01*
X939159Y577109D02*
X938477Y576687D01*
X938477D02*
X937795Y575843D01*
X937795D02*
X937454Y575000D01*
X937454D02*
X937113Y573734D01*
X937113D02*
Y571625D01*
X937113D02*
X937454Y570359D01*
X937454D02*
X937795Y569515D01*
X937795D02*
X938477Y568671D01*
X938477D02*
X939159Y568250D01*
X940522*
X940522D02*
X941204Y568671D01*
X941204D02*
X941886Y569515D01*
X941886D02*
X942227Y570359D01*
X942568Y571625*
Y573734*
X942227Y575000*
X941886Y575843*
X941886D02*
X941204Y576687D01*
X941204D02*
X940522Y577109D01*
X940522D02*
X939159D01*
X945636D02*
Y568250D01*
Y577109D02*
X948363Y568250D01*
X951090Y577109D02*
X948363Y568250D01*
X951090Y577109D02*
Y568250D01*
X962000Y577109D02*
Y570781D01*
X962340Y569515*
X962340D02*
X963022Y568671D01*
X963022D02*
X964045Y568250D01*
X964727*
X965750Y568671*
X965750D02*
X966431Y569515D01*
X966431D02*
X966772Y570781D01*
X966772D02*
Y577109D01*
X969840D02*
Y568250D01*
Y577109D02*
X974613Y568250D01*
Y577109D02*
Y568250D01*
X977681Y577109D02*
Y568250D01*
Y577109D02*
X980068D01*
X981090Y576687*
X981090D02*
X981772Y575843D01*
X981772D02*
X982113Y575000D01*
X982113D02*
X982454Y573734D01*
X982454D02*
Y571625D01*
X982454D02*
X982113Y570359D01*
X982113D02*
X981772Y569515D01*
X981772D02*
X981090Y568671D01*
X981090D02*
X980068Y568250D01*
X977681*
X985522Y577109D02*
Y568250D01*
Y577109D02*
X989954D01*
X985522Y572890D02*
X988250D01*
X985522Y568250D02*
X989954D01*
X993022Y577109D02*
Y568250D01*
Y577109D02*
X996090D01*
X996090D02*
X997113Y576687D01*
X997113D02*
X997454Y576265D01*
X997454D02*
X997795Y575421D01*
X997795D02*
Y574578D01*
X997454Y573734*
X997454D02*
X997113Y573312D01*
X997113D02*
X996090Y572890D01*
X996090D02*
X993022D01*
X995409D02*
X997795Y568250D01*
X1000863Y577109D02*
X1002568Y568250D01*
X1004272Y577109D02*
X1002568Y568250D01*
X1004272Y577109D02*
X1005977Y568250D01*
X1007681Y577109D02*
X1005977Y568250D01*
X1010750Y577109D02*
Y568250D01*
Y577109D02*
X1013818D01*
X1014840Y576687*
X1014840D02*
X1015181Y576265D01*
X1015181D02*
X1015522Y575421D01*
X1015522D02*
Y574578D01*
X1015522D02*
X1015181Y573734D01*
X1015181D02*
X1014840Y573312D01*
X1014840D02*
X1013818Y572890D01*
X1013818D02*
X1010750D01*
X1013136D02*
X1015522Y568250D01*
X1018590Y577109D02*
Y568250D01*
X1024045Y577109D02*
Y568250D01*
X1021659Y577109D02*
X1026431D01*
X1029500D02*
Y568250D01*
Y577109D02*
X1033931D01*
X1029500Y572890D02*
X1032227D01*
X1029500Y568250D02*
X1033931D01*
X1037000Y577109D02*
Y568250D01*
Y577109D02*
X1040068D01*
X1041090Y576687*
X1041090D02*
X1041431Y576265D01*
X1041431D02*
X1041772Y575421D01*
X1041772D02*
Y574578D01*
X1041772D02*
X1041431Y573734D01*
X1041431D02*
X1041090Y573312D01*
X1041090D02*
X1040068Y572890D01*
X1040068D02*
X1037000D01*
X1039386D02*
X1041772Y568250D01*
X1052681Y577109D02*
Y568250D01*
X1052681D02*
X1056772D01*
X1062568Y577109D02*
X1059840Y568250D01*
X1062568Y577109D02*
X1065295Y568250D01*
X1060863Y571203D02*
X1064272D01*
X1068363Y577109D02*
Y568250D01*
Y577109D02*
X1071431D01*
X1071431D02*
X1072454Y576687D01*
X1072454D02*
X1072795Y576265D01*
X1072795D02*
X1073136Y575421D01*
X1073136D02*
Y574578D01*
X1072795Y573734*
X1072454Y573312*
X1072454D02*
X1071431Y572890D01*
X1068363D02*
X1071431D01*
X1071431D02*
X1072454Y572468D01*
X1072454D02*
X1072795Y572046D01*
X1072795D02*
X1073136Y571203D01*
Y569937*
X1073136D02*
X1072795Y569093D01*
X1072795D02*
X1072454Y568671D01*
X1072454D02*
X1071431Y568250D01*
X1071431D02*
X1068363D01*
X1078250Y577109D02*
X1077568Y576687D01*
X1077568D02*
X1076886Y575843D01*
X1076886D02*
X1076545Y575000D01*
X1076204Y573734*
X1076204D02*
Y571625D01*
X1076204D02*
X1076545Y570359D01*
X1076886Y569515*
X1076886D02*
X1077568Y568671D01*
X1077568D02*
X1078250Y568250D01*
X1079613*
X1079613D02*
X1080295Y568671D01*
X1080295D02*
X1080977Y569515D01*
X1080977D02*
X1081318Y570359D01*
X1081659Y571625*
Y573734*
X1081318Y575000*
X1080977Y575843*
X1080977D02*
X1080295Y576687D01*
X1080295D02*
X1079613Y577109D01*
X1079613D02*
X1078250D01*
X1084727D02*
Y568250D01*
Y577109D02*
X1087795D01*
X1088818Y576687*
X1088818D02*
X1089159Y576265D01*
X1089159D02*
X1089500Y575421D01*
X1089500D02*
Y574578D01*
X1089159Y573734*
X1088818Y573312*
X1088818D02*
X1087795Y572890D01*
X1087795D02*
X1084727D01*
X1087113D02*
X1089500Y568250D01*
X1095295Y577109D02*
X1092568Y568250D01*
X1095295Y577109D02*
X1098022Y568250D01*
X1093590Y571203D02*
X1097000D01*
X1103477Y577109D02*
Y568250D01*
X1101090Y577109D02*
X1105863D01*
X1110977D02*
X1110295Y576687D01*
X1110295D02*
X1109613Y575843D01*
X1109613D02*
X1109272Y575000D01*
X1109272D02*
X1108931Y573734D01*
X1108931D02*
Y571625D01*
X1108931D02*
X1109272Y570359D01*
X1109272D02*
X1109613Y569515D01*
X1109613D02*
X1110295Y568671D01*
X1110295D02*
X1110977Y568250D01*
X1112340*
X1112340D02*
X1113022Y568671D01*
X1113022D02*
X1113704Y569515D01*
X1113704D02*
X1114045Y570359D01*
X1114386Y571625*
Y573734*
X1114045Y575000*
X1113704Y575843*
X1113704D02*
X1113022Y576687D01*
X1113022D02*
X1112340Y577109D01*
X1112340D02*
X1110977D01*
X1117454D02*
Y568250D01*
Y577109D02*
X1120522D01*
X1120522D02*
X1121545Y576687D01*
X1121545D02*
X1121886Y576265D01*
X1121886D02*
X1122227Y575421D01*
X1122227D02*
Y574578D01*
X1121886Y573734*
X1121545Y573312*
X1121545D02*
X1120522Y572890D01*
X1120522D02*
X1117454D01*
X1119840D02*
X1122227Y568250D01*
X1125295Y577109D02*
X1128022Y572890D01*
X1128022D02*
Y568250D01*
X1130750Y577109D02*
X1128022Y572890D01*
X1141659Y577109D02*
Y568250D01*
Y577109D02*
X1144727D01*
X1145750Y576687*
X1145750D02*
X1146090Y576265D01*
X1146090D02*
X1146431Y575421D01*
X1146431D02*
Y574578D01*
X1146431D02*
X1146090Y573734D01*
X1146090D02*
X1145750Y573312D01*
X1145750D02*
X1144727Y572890D01*
X1144727D02*
X1141659D01*
X1144045D02*
X1146431Y568250D01*
X1149500Y577109D02*
Y568250D01*
Y577109D02*
X1153931D01*
X1149500Y572890D02*
X1152227D01*
X1149500Y568250D02*
X1153931D01*
X1162113Y575000D02*
X1161772Y575843D01*
X1161772D02*
X1161090Y576687D01*
X1161090D02*
X1160409Y577109D01*
X1159045*
X1158363Y576687*
X1158363D02*
X1157681Y575843D01*
X1157681D02*
X1157340Y575000D01*
X1157340D02*
X1157000Y573734D01*
Y571625*
X1157340Y570359*
X1157340D02*
X1157681Y569515D01*
X1157681D02*
X1158363Y568671D01*
X1158363D02*
X1159045Y568250D01*
X1160409*
X1161090Y568671*
X1161090D02*
X1161772Y569515D01*
X1161772D02*
X1162113Y570359D01*
X1167227Y577109D02*
X1166545Y576687D01*
X1166545D02*
X1165863Y575843D01*
X1165863D02*
X1165522Y575000D01*
X1165522D02*
X1165181Y573734D01*
X1165181D02*
Y571625D01*
X1165181D02*
X1165522Y570359D01*
X1165522D02*
X1165863Y569515D01*
X1165863D02*
X1166545Y568671D01*
X1166545D02*
X1167227Y568250D01*
X1168590*
X1168590D02*
X1169272Y568671D01*
X1169272D02*
X1169954Y569515D01*
X1169954D02*
X1170295Y570359D01*
X1170636Y571625*
Y573734*
X1170295Y575000*
X1169954Y575843*
X1169954D02*
X1169272Y576687D01*
X1169272D02*
X1168590Y577109D01*
X1168590D02*
X1167227D01*
X1178818Y575000D02*
X1178477Y575843D01*
X1178477D02*
X1177795Y576687D01*
X1177795D02*
X1177113Y577109D01*
X1177113D02*
X1175750D01*
X1175068Y576687*
X1175068D02*
X1174386Y575843D01*
X1174386D02*
X1174045Y575000D01*
X1173704Y573734*
X1173704D02*
Y571625D01*
X1173704D02*
X1174045Y570359D01*
X1174386Y569515*
X1174386D02*
X1175068Y568671D01*
X1175068D02*
X1175750Y568250D01*
X1177113*
X1177113D02*
X1177795Y568671D01*
X1177795D02*
X1178477Y569515D01*
X1178477D02*
X1178818Y570359D01*
Y571625*
X1177113D02*
X1178818D01*
X1181886Y577109D02*
Y568250D01*
Y577109D02*
X1186659Y568250D01*
Y577109D02*
Y568250D01*
X1189727Y577109D02*
Y568250D01*
X1197568Y577109D02*
X1192795Y568250D01*
Y577109D02*
X1197568D01*
X1192795Y568250D02*
X1197568D01*
X1200636Y577109D02*
Y568250D01*
Y577109D02*
X1205068D01*
X1200636Y572890D02*
X1203363D01*
X1200636Y568250D02*
X1205068D01*
X1208136Y577109D02*
Y568250D01*
Y577109D02*
X1210522D01*
X1210522D02*
X1211545Y576687D01*
X1211545D02*
X1212227Y575843D01*
X1212227D02*
X1212568Y575000D01*
X1212909Y573734*
Y571625*
X1212568Y570359*
X1212227Y569515*
X1212227D02*
X1211545Y568671D01*
X1211545D02*
X1210522Y568250D01*
X1210522D02*
X1208136D01*
X755750Y557109D02*
Y548250D01*
Y557109D02*
X758477Y548250D01*
X761204Y557109D02*
X758477Y548250D01*
X761204Y557109D02*
Y548250D01*
X767000Y557109D02*
X764272Y548250D01*
X767000Y557109D02*
X769727Y548250D01*
X765295Y551203D02*
X768704D01*
X775181Y557109D02*
Y548250D01*
X772795Y557109D02*
X777568D01*
X780636D02*
Y548250D01*
Y557109D02*
X785068D01*
X780636Y552890D02*
X783363D01*
X780636Y548250D02*
X785068D01*
X788136Y557109D02*
Y548250D01*
Y557109D02*
X791204D01*
X791204D02*
X792227Y556687D01*
X792227D02*
X792568Y556265D01*
X792568D02*
X792909Y555421D01*
X792909D02*
Y554578D01*
X792568Y553734*
X792227Y553312*
X792227D02*
X791204Y552890D01*
X791204D02*
X788136D01*
X790522D02*
X792909Y548250D01*
X795977Y557109D02*
Y548250D01*
X801772Y557109D02*
X799045Y548250D01*
X801772Y557109D02*
X804500Y548250D01*
X800068Y551203D02*
X803477D01*
X807568Y557109D02*
Y548250D01*
X811659*
X825295Y557109D02*
X822568Y548250D01*
X825295Y557109D02*
X828022Y548250D01*
X823590Y551203D02*
X827000D01*
X831090Y557109D02*
Y548250D01*
Y557109D02*
X835863Y548250D01*
Y557109D02*
Y548250D01*
X838931Y557109D02*
Y548250D01*
Y557109D02*
X841318D01*
X842340Y556687*
X842340D02*
X843022Y555843D01*
X843022D02*
X843363Y555000D01*
X843363D02*
X843704Y553734D01*
X843704D02*
Y551625D01*
X843704D02*
X843363Y550359D01*
X843363D02*
X843022Y549515D01*
X843022D02*
X842340Y548671D01*
X842340D02*
X841318Y548250D01*
X838931*
X857000Y557109D02*
Y548250D01*
X854613Y557109D02*
X859386D01*
X862454D02*
Y548250D01*
X867227Y557109D02*
Y548250D01*
X862454Y552890D02*
X867227D01*
X870295Y557109D02*
Y548250D01*
Y557109D02*
X874727D01*
X870295Y552890D02*
X873022D01*
X870295Y548250D02*
X874727D01*
X885636Y557109D02*
Y548250D01*
Y557109D02*
X890068D01*
X885636Y552890D02*
X888363D01*
X893136Y557109D02*
Y548250D01*
X896204Y557109D02*
Y548250D01*
Y557109D02*
X900977Y548250D01*
Y557109D02*
Y548250D01*
X904045Y557109D02*
Y548250D01*
X911886Y555843D02*
X911204Y556687D01*
X911204D02*
X910181Y557109D01*
X910181D02*
X908818D01*
X907795Y556687*
X907795D02*
X907113Y555843D01*
X907113D02*
Y555000D01*
X907113D02*
X907454Y554156D01*
X907454D02*
X907795Y553734D01*
X908477Y553312*
X908477D02*
X910522Y552468D01*
X910522D02*
X911204Y552046D01*
X911204D02*
X911545Y551625D01*
X911886Y550781*
Y549515*
X911886D02*
X911204Y548671D01*
X911204D02*
X910181Y548250D01*
X910181D02*
X908818D01*
X907795Y548671*
X907795D02*
X907113Y549515D01*
X914954Y557109D02*
Y548250D01*
X919727Y557109D02*
Y548250D01*
X914954Y552890D02*
X919727D01*
X922795Y557109D02*
Y548250D01*
Y557109D02*
X927227D01*
X922795Y552890D02*
X925522D01*
X922795Y548250D02*
X927227D01*
X930295Y557109D02*
Y548250D01*
Y557109D02*
X932681D01*
X932681D02*
X933704Y556687D01*
X933704D02*
X934386Y555843D01*
X934386D02*
X934727Y555000D01*
X935068Y553734*
Y551625*
X934727Y550359*
X934386Y549515*
X934386D02*
X933704Y548671D01*
X933704D02*
X932681Y548250D01*
X932681D02*
X930295D01*
X945977Y557109D02*
Y548250D01*
Y557109D02*
X949045D01*
X950068Y556687*
X950068D02*
X950409Y556265D01*
X950409D02*
X950750Y555421D01*
X950750D02*
Y554578D01*
X950409Y553734*
X950068Y553312*
X950068D02*
X949045Y552890D01*
X945977D02*
X949045D01*
X949045D02*
X950068Y552468D01*
X950068D02*
X950409Y552046D01*
X950409D02*
X950750Y551203D01*
Y549937*
X950750D02*
X950409Y549093D01*
X950409D02*
X950068Y548671D01*
X950068D02*
X949045Y548250D01*
X945977*
X955863Y557109D02*
X955181Y556687D01*
X955181D02*
X954500Y555843D01*
X954500D02*
X954159Y555000D01*
X953818Y553734*
Y551625*
X954159Y550359*
X954500Y549515*
X954500D02*
X955181Y548671D01*
X955181D02*
X955863Y548250D01*
X955863D02*
X957227D01*
X957909Y548671*
X957909D02*
X958590Y549515D01*
X958590D02*
X958931Y550359D01*
X958931D02*
X959272Y551625D01*
X959272D02*
Y553734D01*
X959272D02*
X958931Y555000D01*
X958931D02*
X958590Y555843D01*
X958590D02*
X957909Y556687D01*
X957909D02*
X957227Y557109D01*
X955863*
X965068D02*
X962340Y548250D01*
X965068Y557109D02*
X967795Y548250D01*
X963363Y551203D02*
X966772D01*
X970863Y557109D02*
Y548250D01*
Y557109D02*
X973931D01*
X973931D02*
X974954Y556687D01*
X974954D02*
X975295Y556265D01*
X975295D02*
X975636Y555421D01*
X975636D02*
Y554578D01*
X975295Y553734*
X974954Y553312*
X974954D02*
X973931Y552890D01*
X973931D02*
X970863D01*
X973250D02*
X975636Y548250D01*
X978704Y557109D02*
Y548250D01*
Y557109D02*
X981090D01*
X981090D02*
X982113Y556687D01*
X982113D02*
X982795Y555843D01*
X982795D02*
X983136Y555000D01*
X983477Y553734*
Y551625*
X983136Y550359*
X982795Y549515*
X982795D02*
X982113Y548671D01*
X982113D02*
X981090Y548250D01*
X981090D02*
X978704D01*
X994386Y557109D02*
Y548250D01*
Y557109D02*
X997113Y548250D01*
X999840Y557109D02*
X997113Y548250D01*
X999840Y557109D02*
Y548250D01*
X1002909Y557109D02*
Y550781D01*
X1003250Y549515*
X1003250D02*
X1003931Y548671D01*
X1003931D02*
X1004954Y548250D01*
X1004954D02*
X1005636D01*
X1006659Y548671*
X1006659D02*
X1007340Y549515D01*
X1007340D02*
X1007681Y550781D01*
X1007681D02*
Y557109D01*
X1015522Y555843D02*
X1014840Y556687D01*
X1014840D02*
X1013818Y557109D01*
X1012454*
X1012454D02*
X1011431Y556687D01*
X1011431D02*
X1010750Y555843D01*
X1010750D02*
Y555000D01*
X1011090Y554156*
X1011090D02*
X1011431Y553734D01*
X1011431D02*
X1012113Y553312D01*
X1012113D02*
X1014159Y552468D01*
X1014159D02*
X1014840Y552046D01*
X1014840D02*
X1015181Y551625D01*
X1015181D02*
X1015522Y550781D01*
X1015522D02*
Y549515D01*
X1015522D02*
X1014840Y548671D01*
X1014840D02*
X1013818Y548250D01*
X1012454*
X1012454D02*
X1011431Y548671D01*
X1011431D02*
X1010750Y549515D01*
X1020977Y557109D02*
Y548250D01*
X1018590Y557109D02*
X1023363D01*
X1039386Y555000D02*
X1039045Y555843D01*
X1039045D02*
X1038363Y556687D01*
X1038363D02*
X1037681Y557109D01*
X1037681D02*
X1036318D01*
X1035636Y556687*
X1035636D02*
X1034954Y555843D01*
X1034954D02*
X1034613Y555000D01*
X1034613D02*
X1034272Y553734D01*
X1034272D02*
Y551625D01*
X1034272D02*
X1034613Y550359D01*
X1034613D02*
X1034954Y549515D01*
X1034954D02*
X1035636Y548671D01*
X1035636D02*
X1036318Y548250D01*
X1037681*
X1037681D02*
X1038363Y548671D01*
X1038363D02*
X1039045Y549515D01*
X1039045D02*
X1039386Y550359D01*
X1045181Y557109D02*
X1042454Y548250D01*
X1045181Y557109D02*
X1047909Y548250D01*
X1043477Y551203D02*
X1046886D01*
X1050977Y557109D02*
Y548250D01*
Y557109D02*
X1054045D01*
X1055068Y556687*
X1055068D02*
X1055409Y556265D01*
X1055409D02*
X1055750Y555421D01*
X1055750D02*
Y554578D01*
X1055409Y553734*
X1055068Y553312*
X1055068D02*
X1054045Y552890D01*
X1054045D02*
X1050977D01*
X1053363D02*
X1055750Y548250D01*
X1058818Y557109D02*
Y548250D01*
Y557109D02*
X1061886D01*
X1062909Y556687*
X1062909D02*
X1063250Y556265D01*
X1063250D02*
X1063590Y555421D01*
X1063590D02*
Y554578D01*
X1063590D02*
X1063250Y553734D01*
X1062909Y553312*
X1062909D02*
X1061886Y552890D01*
X1061886D02*
X1058818D01*
X1061204D02*
X1063590Y548250D01*
X1066659Y557109D02*
X1069386Y552890D01*
X1069386D02*
Y548250D01*
X1072113Y557109D02*
X1069386Y552890D01*
X1085409Y557109D02*
Y548250D01*
X1083022Y557109D02*
X1087795D01*
X1090863D02*
Y548250D01*
X1095636Y557109D02*
Y548250D01*
X1090863Y552890D02*
X1095636D01*
X1098704Y557109D02*
Y548250D01*
Y557109D02*
X1103136D01*
X1098704Y552890D02*
X1101431D01*
X1098704Y548250D02*
X1103136D01*
X1114045Y557109D02*
X1116772Y548250D01*
X1119500Y557109D02*
X1116772Y548250D01*
X1122568Y557109D02*
Y548250D01*
Y557109D02*
X1127000D01*
X1122568Y552890D02*
X1125295D01*
X1122568Y548250D02*
X1127000D01*
X1130068Y557109D02*
Y548250D01*
Y557109D02*
X1134840Y548250D01*
Y557109D02*
Y548250D01*
X1137909Y557109D02*
Y548250D01*
Y557109D02*
X1140295D01*
X1141318Y556687*
X1141318D02*
X1142000Y555843D01*
X1142000D02*
X1142340Y555000D01*
X1142340D02*
X1142681Y553734D01*
X1142681D02*
Y551625D01*
X1142681D02*
X1142340Y550359D01*
X1142340D02*
X1142000Y549515D01*
X1142000D02*
X1141318Y548671D01*
X1141318D02*
X1140295Y548250D01*
X1137909*
X1147795Y557109D02*
X1147113Y556687D01*
X1147113D02*
X1146431Y555843D01*
X1146431D02*
X1146090Y555000D01*
X1146090D02*
X1145750Y553734D01*
Y551625*
X1146090Y550359*
X1146090D02*
X1146431Y549515D01*
X1146431D02*
X1147113Y548671D01*
X1147113D02*
X1147795Y548250D01*
X1149159*
X1149840Y548671*
X1149840D02*
X1150522Y549515D01*
X1150522D02*
X1150863Y550359D01*
X1150863D02*
X1151204Y551625D01*
X1151204D02*
Y553734D01*
X1151204D02*
X1150863Y555000D01*
X1150863D02*
X1150522Y555843D01*
X1150522D02*
X1149840Y556687D01*
X1149840D02*
X1149159Y557109D01*
X1147795*
X1154272D02*
Y548250D01*
Y557109D02*
X1157340D01*
X1157340D02*
X1158363Y556687D01*
X1158363D02*
X1158704Y556265D01*
X1158704D02*
X1159045Y555421D01*
X1159045D02*
Y554578D01*
X1158704Y553734*
X1158704D02*
X1158363Y553312D01*
X1158363D02*
X1157340Y552890D01*
X1157340D02*
X1154272D01*
X1156659D02*
X1159045Y548250D01*
X1162113Y557109D02*
Y554156D01*
X1170636Y555843D02*
X1169954Y556687D01*
X1169954D02*
X1168931Y557109D01*
X1168931D02*
X1167568D01*
X1166545Y556687*
X1166545D02*
X1165863Y555843D01*
X1165863D02*
Y555000D01*
X1165863D02*
X1166204Y554156D01*
X1166204D02*
X1166545Y553734D01*
X1167227Y553312*
X1167227D02*
X1169272Y552468D01*
X1169272D02*
X1169954Y552046D01*
X1169954D02*
X1170295Y551625D01*
X1170636Y550781*
Y549515*
X1170636D02*
X1169954Y548671D01*
X1169954D02*
X1168931Y548250D01*
X1168931D02*
X1167568D01*
X1166545Y548671*
X1166545D02*
X1165863Y549515D01*
X755750Y537109D02*
Y530781D01*
X756090Y529515*
X756090D02*
X756772Y528671D01*
X756772D02*
X757795Y528250D01*
X758477*
X759500Y528671*
X759500D02*
X760181Y529515D01*
X760181D02*
X760522Y530781D01*
X760522D02*
Y537109D01*
X763931Y529093D02*
X763590Y528671D01*
X763590D02*
X763931Y528250D01*
X763931D02*
X764272Y528671D01*
X764272D02*
X763931Y529093D01*
X767340Y537109D02*
Y528250D01*
X767340D02*
X771431D01*
X774840Y529093D02*
X774500Y528671D01*
X774500D02*
X774840Y528250D01*
X774840D02*
X775181Y528671D01*
X775181D02*
X774840Y529093D01*
X786090Y537109D02*
Y528250D01*
X786090D02*
X790181D01*
X795295Y537109D02*
X794613Y536687D01*
X794613D02*
X793931Y535843D01*
X793931D02*
X793590Y535000D01*
X793590D02*
X793250Y533734D01*
Y531625*
X793590Y530359*
X793590D02*
X793931Y529515D01*
X793931D02*
X794613Y528671D01*
X794613D02*
X795295Y528250D01*
X796659*
X797340Y528671*
X797340D02*
X798022Y529515D01*
X798022D02*
X798363Y530359D01*
X798363D02*
X798704Y531625D01*
X798704D02*
Y533734D01*
X798704D02*
X798363Y535000D01*
X798363D02*
X798022Y535843D01*
X798022D02*
X797340Y536687D01*
X797340D02*
X796659Y537109D01*
X795295*
X806886Y535000D02*
X806545Y535843D01*
X806545D02*
X805863Y536687D01*
X805863D02*
X805181Y537109D01*
X805181D02*
X803818D01*
X803136Y536687*
X803136D02*
X802454Y535843D01*
X802454D02*
X802113Y535000D01*
X802113D02*
X801772Y533734D01*
X801772D02*
Y531625D01*
X801772D02*
X802113Y530359D01*
X802113D02*
X802454Y529515D01*
X802454D02*
X803136Y528671D01*
X803136D02*
X803818Y528250D01*
X805181*
X805181D02*
X805863Y528671D01*
X805863D02*
X806545Y529515D01*
X806545D02*
X806886Y530359D01*
Y531625*
X805181D02*
X806886D01*
X812000Y537109D02*
X811318Y536687D01*
X811318D02*
X810636Y535843D01*
X810636D02*
X810295Y535000D01*
X809954Y533734*
X809954D02*
Y531625D01*
X809954D02*
X810295Y530359D01*
X810636Y529515*
X810636D02*
X811318Y528671D01*
X811318D02*
X812000Y528250D01*
X813363*
X813363D02*
X814045Y528671D01*
X814045D02*
X814727Y529515D01*
X814727D02*
X815068Y530359D01*
X815409Y531625*
Y533734*
X815068Y535000*
X814727Y535843*
X814727D02*
X814045Y536687D01*
X814045D02*
X813363Y537109D01*
X813363D02*
X812000D01*
X829045D02*
X826318Y528250D01*
X829045Y537109D02*
X831772Y528250D01*
X827340Y531203D02*
X830750D01*
X834840Y537109D02*
Y528250D01*
Y537109D02*
X839613Y528250D01*
Y537109D02*
Y528250D01*
X842681Y537109D02*
Y528250D01*
Y537109D02*
X845068D01*
X846090Y536687*
X846090D02*
X846772Y535843D01*
X846772D02*
X847113Y535000D01*
X847113D02*
X847454Y533734D01*
X847454D02*
Y531625D01*
X847454D02*
X847113Y530359D01*
X847113D02*
X846772Y529515D01*
X846772D02*
X846090Y528671D01*
X846090D02*
X845068Y528250D01*
X842681*
X858363Y537109D02*
Y528250D01*
Y537109D02*
X860750D01*
X861772Y536687*
X861772D02*
X862454Y535843D01*
X862454D02*
X862795Y535000D01*
X863136Y533734*
Y531625*
X862795Y530359*
X862454Y529515*
X862454D02*
X861772Y528671D01*
X861772D02*
X860750Y528250D01*
X858363*
X868931Y537109D02*
X866204Y528250D01*
X868931Y537109D02*
X871659Y528250D01*
X867227Y531203D02*
X870636D01*
X877113Y537109D02*
Y528250D01*
X874727Y537109D02*
X879500D01*
X882568D02*
Y528250D01*
Y537109D02*
X887000D01*
X882568Y532890D02*
X885295D01*
X882568Y528250D02*
X887000D01*
X903022Y535000D02*
X902681Y535843D01*
X902681D02*
X902000Y536687D01*
X902000D02*
X901318Y537109D01*
X899954*
X899954D02*
X899272Y536687D01*
X899272D02*
X898590Y535843D01*
X898590D02*
X898250Y535000D01*
X897909Y533734*
Y531625*
X898250Y530359*
X898590Y529515*
X898590D02*
X899272Y528671D01*
X899272D02*
X899954Y528250D01*
X899954D02*
X901318D01*
X902000Y528671*
X902000D02*
X902681Y529515D01*
X902681D02*
X903022Y530359D01*
X908136Y537109D02*
X907454Y536687D01*
X907454D02*
X906772Y535843D01*
X906772D02*
X906431Y535000D01*
X906431D02*
X906090Y533734D01*
X906090D02*
Y531625D01*
X906090D02*
X906431Y530359D01*
X906431D02*
X906772Y529515D01*
X906772D02*
X907454Y528671D01*
X907454D02*
X908136Y528250D01*
X909500*
X910181Y528671*
X910181D02*
X910863Y529515D01*
X910863D02*
X911204Y530359D01*
X911204D02*
X911545Y531625D01*
Y533734*
X911204Y535000*
X911204D02*
X910863Y535843D01*
X910863D02*
X910181Y536687D01*
X910181D02*
X909500Y537109D01*
X908136*
X914613D02*
Y528250D01*
Y537109D02*
X917000D01*
X918022Y536687*
X918022D02*
X918704Y535843D01*
X918704D02*
X919045Y535000D01*
X919386Y533734*
Y531625*
X919045Y530359*
X918704Y529515*
X918704D02*
X918022Y528671D01*
X918022D02*
X917000Y528250D01*
X914613*
X922454Y537109D02*
Y528250D01*
Y537109D02*
X926886D01*
X922454Y532890D02*
X925181D01*
X922454Y528250D02*
X926886D01*
X930295Y529093D02*
X929954Y528671D01*
X929954D02*
X930295Y528250D01*
X930636Y528671*
X930636D02*
X930295Y529093D01*
X758477Y512109D02*
X755750Y503250D01*
X758477Y512109D02*
X761204Y503250D01*
X756772Y506203D02*
X760181D01*
X764272Y512109D02*
Y503250D01*
X764272D02*
X768363D01*
X771431Y512109D02*
Y503250D01*
X771431D02*
X775522D01*
X786431Y512109D02*
Y503250D01*
Y512109D02*
X788818D01*
X789840Y511687*
X789840D02*
X790522Y510843D01*
X790522D02*
X790863Y510000D01*
X790863D02*
X791204Y508734D01*
X791204D02*
Y506625D01*
X791204D02*
X790863Y505359D01*
X790863D02*
X790522Y504515D01*
X790522D02*
X789840Y503671D01*
X789840D02*
X788818Y503250D01*
X786431*
X794272Y512109D02*
Y503250D01*
Y512109D02*
X797340D01*
X797340D02*
X798363Y511687D01*
X798363D02*
X798704Y511265D01*
X798704D02*
X799045Y510421D01*
X799045D02*
Y509578D01*
X798704Y508734*
X798704D02*
X798363Y508312D01*
X798363D02*
X797340Y507890D01*
X797340D02*
X794272D01*
X796659D02*
X799045Y503250D01*
X804840Y512109D02*
X802113Y503250D01*
X804840Y512109D02*
X807568Y503250D01*
X803136Y506203D02*
X806545D01*
X810636Y512109D02*
X812340Y503250D01*
X814045Y512109D02*
X812340Y503250D01*
X814045Y512109D02*
X815750Y503250D01*
X817454Y512109D02*
X815750Y503250D01*
X820522Y512109D02*
Y503250D01*
X823590Y512109D02*
Y503250D01*
Y512109D02*
X828363Y503250D01*
Y512109D02*
Y503250D01*
X836545Y510000D02*
X836204Y510843D01*
X836204D02*
X835522Y511687D01*
X835522D02*
X834840Y512109D01*
X834840D02*
X833477D01*
X832795Y511687*
X832795D02*
X832113Y510843D01*
X832113D02*
X831772Y510000D01*
X831772D02*
X831431Y508734D01*
X831431D02*
Y506625D01*
X831431D02*
X831772Y505359D01*
X831772D02*
X832113Y504515D01*
X832113D02*
X832795Y503671D01*
X832795D02*
X833477Y503250D01*
X834840*
X834840D02*
X835522Y503671D01*
X835522D02*
X836204Y504515D01*
X836204D02*
X836545Y505359D01*
Y506625*
X834840D02*
X836545D01*
X844386Y510843D02*
X843704Y511687D01*
X843704D02*
X842681Y512109D01*
X842681D02*
X841318D01*
X840295Y511687*
X840295D02*
X839613Y510843D01*
X839613D02*
Y510000D01*
X839613D02*
X839954Y509156D01*
X839954D02*
X840295Y508734D01*
X840977Y508312*
X840977D02*
X843022Y507468D01*
X843022D02*
X843704Y507046D01*
X843704D02*
X844045Y506625D01*
X844386Y505781*
Y504515*
X844386D02*
X843704Y503671D01*
X843704D02*
X842681Y503250D01*
X842681D02*
X841318D01*
X840295Y503671*
X840295D02*
X839613Y504515D01*
X858022Y512109D02*
X855295Y503250D01*
X858022Y512109D02*
X860750Y503250D01*
X856318Y506203D02*
X859727D01*
X863818Y512109D02*
Y503250D01*
Y512109D02*
X868590Y503250D01*
Y512109D02*
Y503250D01*
X871659Y512109D02*
Y503250D01*
Y512109D02*
X874045D01*
X875068Y511687*
X875068D02*
X875750Y510843D01*
X875750D02*
X876090Y510000D01*
X876090D02*
X876431Y508734D01*
X876431D02*
Y506625D01*
X876431D02*
X876090Y505359D01*
X876090D02*
X875750Y504515D01*
X875750D02*
X875068Y503671D01*
X875068D02*
X874045Y503250D01*
X871659*
X887340Y512109D02*
Y503250D01*
Y512109D02*
X891772D01*
X887340Y507890D02*
X890068D01*
X894840Y512109D02*
Y503250D01*
X897909Y512109D02*
Y503250D01*
X902000*
X905068Y512109D02*
Y503250D01*
Y512109D02*
X907795Y503250D01*
X910522Y512109D02*
X907795Y503250D01*
X910522Y512109D02*
Y503250D01*
X918363Y510843D02*
X917681Y511687D01*
X917681D02*
X916659Y512109D01*
X915295*
X914272Y511687*
X914272D02*
X913590Y510843D01*
X913590D02*
Y510000D01*
X913590D02*
X913931Y509156D01*
X913931D02*
X914272Y508734D01*
X914272D02*
X914954Y508312D01*
X914954D02*
X917000Y507468D01*
X917000D02*
X917681Y507046D01*
X917681D02*
X918022Y506625D01*
X918022D02*
X918363Y505781D01*
X918363D02*
Y504515D01*
X918363D02*
X917681Y503671D01*
X917681D02*
X916659Y503250D01*
X915295*
X914272Y503671*
X914272D02*
X913590Y504515D01*
X929272Y512109D02*
X932000Y503250D01*
X934727Y512109D02*
X932000Y503250D01*
X937795Y512109D02*
Y503250D01*
X940863Y512109D02*
Y503250D01*
Y512109D02*
X945295D01*
X940863Y507890D02*
X943590D01*
X940863Y503250D02*
X945295D01*
X948363Y512109D02*
X950068Y503250D01*
X951772Y512109D02*
X950068Y503250D01*
X951772Y512109D02*
X953477Y503250D01*
X955181Y512109D02*
X953477Y503250D01*
X958250Y512109D02*
Y503250D01*
Y512109D02*
X962681D01*
X958250Y507890D02*
X960977D01*
X958250Y503250D02*
X962681D01*
X965750Y512109D02*
Y503250D01*
Y512109D02*
X968136D01*
X969159Y511687*
X969159D02*
X969840Y510843D01*
X969840D02*
X970181Y510000D01*
X970181D02*
X970522Y508734D01*
X970522D02*
Y506625D01*
X970522D02*
X970181Y505359D01*
X970181D02*
X969840Y504515D01*
X969840D02*
X969159Y503671D01*
X969159D02*
X968136Y503250D01*
X965750*
X981431Y512109D02*
Y503250D01*
Y512109D02*
X985863D01*
X981431Y507890D02*
X984159D01*
X988931Y512109D02*
Y503250D01*
Y512109D02*
X992000D01*
X993022Y511687*
X993022D02*
X993363Y511265D01*
X993363D02*
X993704Y510421D01*
X993704D02*
Y509578D01*
X993704D02*
X993363Y508734D01*
X993363D02*
X993022Y508312D01*
X993022D02*
X992000Y507890D01*
X992000D02*
X988931D01*
X991318D02*
X993704Y503250D01*
X998818Y512109D02*
X998136Y511687D01*
X998136D02*
X997454Y510843D01*
X997454D02*
X997113Y510000D01*
X997113D02*
X996772Y508734D01*
X996772D02*
Y506625D01*
X996772D02*
X997113Y505359D01*
X997113D02*
X997454Y504515D01*
X997454D02*
X998136Y503671D01*
X998136D02*
X998818Y503250D01*
X1000181*
X1000181D02*
X1000863Y503671D01*
X1000863D02*
X1001545Y504515D01*
X1001545D02*
X1001886Y505359D01*
X1002227Y506625*
Y508734*
X1001886Y510000*
X1001545Y510843*
X1001545D02*
X1000863Y511687D01*
X1000863D02*
X1000181Y512109D01*
X1000181D02*
X998818D01*
X1005295D02*
Y503250D01*
Y512109D02*
X1008022Y503250D01*
X1010750Y512109D02*
X1008022Y503250D01*
X1010750Y512109D02*
Y503250D01*
X1024045Y512109D02*
Y503250D01*
X1021659Y512109D02*
X1026431D01*
X1031545D02*
X1030863Y511687D01*
X1030863D02*
X1030181Y510843D01*
X1030181D02*
X1029840Y510000D01*
X1029840D02*
X1029500Y508734D01*
Y506625*
X1029840Y505359*
X1029840D02*
X1030181Y504515D01*
X1030181D02*
X1030863Y503671D01*
X1030863D02*
X1031545Y503250D01*
X1032909*
X1033590Y503671*
X1033590D02*
X1034272Y504515D01*
X1034272D02*
X1034613Y505359D01*
X1034613D02*
X1034954Y506625D01*
X1034954D02*
Y508734D01*
X1034954D02*
X1034613Y510000D01*
X1034613D02*
X1034272Y510843D01*
X1034272D02*
X1033590Y511687D01*
X1033590D02*
X1032909Y512109D01*
X1031545*
X1038022D02*
Y503250D01*
Y512109D02*
X1041090D01*
X1041090D02*
X1042113Y511687D01*
X1042113D02*
X1042454Y511265D01*
X1042454D02*
X1042795Y510421D01*
X1042795D02*
Y509156D01*
X1042454Y508312*
X1042454D02*
X1042113Y507890D01*
X1042113D02*
X1041090Y507468D01*
X1041090D02*
X1038022D01*
X1058477Y510843D02*
X1057795Y511687D01*
X1057795D02*
X1056772Y512109D01*
X1056772D02*
X1055409D01*
X1054386Y511687*
X1054386D02*
X1053704Y510843D01*
X1053704D02*
Y510000D01*
X1053704D02*
X1054045Y509156D01*
X1054386Y508734*
X1055068Y508312*
X1055068D02*
X1057113Y507468D01*
X1057113D02*
X1057795Y507046D01*
X1057795D02*
X1058136Y506625D01*
X1058477Y505781*
Y504515*
X1058477D02*
X1057795Y503671D01*
X1057795D02*
X1056772Y503250D01*
X1056772D02*
X1055409D01*
X1054386Y503671*
X1054386D02*
X1053704Y504515D01*
X1061545Y512109D02*
Y503250D01*
X1064613Y512109D02*
Y503250D01*
Y512109D02*
X1067000D01*
X1068022Y511687*
X1068022D02*
X1068704Y510843D01*
X1068704D02*
X1069045Y510000D01*
X1069386Y508734*
Y506625*
X1069045Y505359*
X1068704Y504515*
X1068704D02*
X1068022Y503671D01*
X1068022D02*
X1067000Y503250D01*
X1064613*
X1072454Y512109D02*
Y503250D01*
Y512109D02*
X1076886D01*
X1072454Y507890D02*
X1075181D01*
X1072454Y503250D02*
X1076886D01*
X1080295Y504093D02*
X1079954Y503671D01*
X1079954D02*
X1080295Y503250D01*
X1080636Y503671*
X1080636D02*
X1080295Y504093D01*
X739840Y575843D02*
X739500Y576687D01*
X739500D02*
X738477Y577109D01*
X737795*
X736772Y576687*
X736772D02*
X736090Y575421D01*
X736090D02*
X735750Y573312D01*
X735750D02*
Y571203D01*
X736090Y569515*
X736090D02*
X736772Y568671D01*
X736772D02*
X737795Y568250D01*
X738136*
X739159Y568671*
X739159D02*
X739840Y569515D01*
X739840D02*
X740181Y570781D01*
X740181D02*
Y571203D01*
X740181D02*
X739840Y572468D01*
X739840D02*
X739159Y573312D01*
X739159D02*
X738136Y573734D01*
X737795*
X736772Y573312*
X736772D02*
X736090Y572468D01*
X736090D02*
X735750Y571203D01*
X743590Y569093D02*
X743250Y568671D01*
X743250D02*
X743590Y568250D01*
X743590D02*
X743931Y568671D01*
X743931D02*
X743590Y569093D01*
X832795Y857109D02*
X831772Y856687D01*
X831772D02*
X831090Y855421D01*
X831090D02*
X830750Y853312D01*
X830750D02*
Y852046D01*
X830750D02*
X831090Y849937D01*
X831090D02*
X831772Y848671D01*
X831772D02*
X832795Y848250D01*
X833477*
X834500Y848671*
X834500D02*
X835181Y849937D01*
X835181D02*
X835522Y852046D01*
X835522D02*
Y853312D01*
X835522D02*
X835181Y855421D01*
X835181D02*
X834500Y856687D01*
X834500D02*
X833477Y857109D01*
X832795*
X838931Y849093D02*
X838590Y848671D01*
X838590D02*
X838931Y848250D01*
X838931D02*
X839272Y848671D01*
X839272D02*
X838931Y849093D01*
X846431Y855843D02*
X846090Y856687D01*
X846090D02*
X845068Y857109D01*
X844386*
X843363Y856687*
X843363D02*
X842681Y855421D01*
X842681D02*
X842340Y853312D01*
X842340D02*
Y851203D01*
X842340D02*
X842681Y849515D01*
X842681D02*
X843363Y848671D01*
X843363D02*
X844386Y848250D01*
X844727*
X845750Y848671*
X845750D02*
X846431Y849515D01*
X846431D02*
X846772Y850781D01*
X846772D02*
Y851203D01*
X846772D02*
X846431Y852468D01*
X846431D02*
X845750Y853312D01*
X845750D02*
X844727Y853734D01*
X844386*
X843363Y853312*
X843363D02*
X842681Y852468D01*
X842681D02*
X842340Y851203D01*
X850181Y855000D02*
Y855421D01*
X850181D02*
X850522Y856265D01*
X850522D02*
X850863Y856687D01*
X850863D02*
X851545Y857109D01*
X852909*
X853590Y856687*
X853590D02*
X853931Y856265D01*
X853931D02*
X854272Y855421D01*
X854272D02*
Y854578D01*
X854272D02*
X853931Y853734D01*
X853931D02*
X853250Y852468D01*
X853250D02*
X849840Y848250D01*
X849840D02*
X854613D01*
X862113Y857109D02*
X858704D01*
X858704D02*
X858363Y853312D01*
X858363D02*
X858704Y853734D01*
X858704D02*
X859727Y854156D01*
X860750*
X861772Y853734*
X861772D02*
X862454Y852890D01*
X862454D02*
X862795Y851625D01*
X862454Y850781*
X862454D02*
X862113Y849515D01*
X862113D02*
X861431Y848671D01*
X861431D02*
X860409Y848250D01*
X859386*
X858363Y848671*
X858363D02*
X858022Y849093D01*
X858022D02*
X857681Y849937D01*
X865863Y857109D02*
Y848250D01*
Y857109D02*
X868250D01*
X869272Y856687*
X869272D02*
X869954Y855843D01*
X869954D02*
X870295Y855000D01*
X870636Y853734*
Y851625*
X870295Y850359*
X869954Y849515*
X869954D02*
X869272Y848671D01*
X869272D02*
X868250Y848250D01*
X865863*
X1330000Y602500D02*
Y693500D01*
X1333500Y697000*
X1334500Y696000*
X1336500Y698000*
Y602500*
X1330000*
X1325000Y627500D02*
X1330000Y620000D01*
X1322500Y625000*
X1290000Y640000D02*
X1310000D01*
X1330000Y620000*
X1380000Y642500D02*
X1358500D01*
X1336500Y620500*
X1341000Y628000D02*
X1336500Y620500D01*
X1343500Y625000*
X1346500Y567500D02*
X1336500Y570000D01*
X1346500Y572500*
X1336500Y570000D02*
X1356500D01*
X1336500Y597500D02*
Y565000D01*
X1330000Y597500D02*
Y565000D01*
Y570000D02*
X1310000D01*
X1320000Y572500D02*
X1330000Y570000D01*
X1320000Y567500*
X1384250Y667109D02*
Y658250D01*
Y667109D02*
X1387318D01*
X1388340Y666687*
X1388340D02*
X1388681Y666265D01*
X1388681D02*
X1389022Y665421D01*
X1389022D02*
Y664578D01*
X1389022D02*
X1388681Y663734D01*
X1388681D02*
X1388340Y663312D01*
X1388340D02*
X1387318Y662890D01*
X1384250D02*
X1387318D01*
X1387318D02*
X1388340Y662468D01*
X1388340D02*
X1388681Y662046D01*
X1388681D02*
X1389022Y661203D01*
X1389022D02*
Y659937D01*
X1389022D02*
X1388681Y659093D01*
X1388681D02*
X1388340Y658671D01*
X1388340D02*
X1387318Y658250D01*
X1384250*
X1394136Y667109D02*
X1393454Y666687D01*
X1393454D02*
X1392772Y665843D01*
X1392772D02*
X1392431Y665000D01*
X1392431D02*
X1392090Y663734D01*
X1392090D02*
Y661625D01*
X1392090D02*
X1392431Y660359D01*
X1392431D02*
X1392772Y659515D01*
X1392772D02*
X1393454Y658671D01*
X1393454D02*
X1394136Y658250D01*
X1395500*
X1396181Y658671*
X1396181D02*
X1396863Y659515D01*
X1396863D02*
X1397204Y660359D01*
X1397204D02*
X1397545Y661625D01*
Y663734*
X1397204Y665000*
X1397204D02*
X1396863Y665843D01*
X1396863D02*
X1396181Y666687D01*
X1396181D02*
X1395500Y667109D01*
X1394136*
X1403000D02*
Y658250D01*
X1400613Y667109D02*
X1405386D01*
X1410840D02*
Y658250D01*
X1408454Y667109D02*
X1413227D01*
X1418340D02*
X1417659Y666687D01*
X1417659D02*
X1416977Y665843D01*
X1416977D02*
X1416636Y665000D01*
X1416295Y663734*
Y661625*
X1416636Y660359*
X1416977Y659515*
X1416977D02*
X1417659Y658671D01*
X1417659D02*
X1418340Y658250D01*
X1418340D02*
X1419704D01*
X1419704D02*
X1420386Y658671D01*
X1420386D02*
X1421068Y659515D01*
X1421068D02*
X1421409Y660359D01*
X1421750Y661625*
Y663734*
X1421409Y665000*
X1421068Y665843*
X1421068D02*
X1420386Y666687D01*
X1420386D02*
X1419704Y667109D01*
X1419704D02*
X1418340D01*
X1424818D02*
Y658250D01*
Y667109D02*
X1427545Y658250D01*
X1430272Y667109D02*
X1427545Y658250D01*
X1430272Y667109D02*
Y658250D01*
X1445954Y665843D02*
X1445272Y666687D01*
X1445272D02*
X1444250Y667109D01*
X1442886*
X1441863Y666687*
X1441863D02*
X1441181Y665843D01*
X1441181D02*
Y665000D01*
X1441181D02*
X1441522Y664156D01*
X1441522D02*
X1441863Y663734D01*
X1441863D02*
X1442545Y663312D01*
X1442545D02*
X1444590Y662468D01*
X1444590D02*
X1445272Y662046D01*
X1445272D02*
X1445613Y661625D01*
X1445613D02*
X1445954Y660781D01*
X1445954D02*
Y659515D01*
X1445954D02*
X1445272Y658671D01*
X1445272D02*
X1444250Y658250D01*
X1442886*
X1441863Y658671*
X1441863D02*
X1441181Y659515D01*
X1449022Y667109D02*
Y658250D01*
X1452090Y667109D02*
Y658250D01*
Y667109D02*
X1454477D01*
X1455500Y666687*
X1455500D02*
X1456181Y665843D01*
X1456181D02*
X1456522Y665000D01*
X1456522D02*
X1456863Y663734D01*
X1456863D02*
Y661625D01*
X1456863D02*
X1456522Y660359D01*
X1456522D02*
X1456181Y659515D01*
X1456181D02*
X1455500Y658671D01*
X1455500D02*
X1454477Y658250D01*
X1452090*
X1459931Y667109D02*
Y658250D01*
Y667109D02*
X1464363D01*
X1459931Y662890D02*
X1462659D01*
X1459931Y658250D02*
X1464363D01*
X1373250Y604609D02*
Y595750D01*
Y604609D02*
X1376318D01*
X1377340Y604187*
X1377340D02*
X1377681Y603765D01*
X1377681D02*
X1378022Y602921D01*
X1378022D02*
Y601656D01*
X1378022D02*
X1377681Y600812D01*
X1377681D02*
X1377340Y600390D01*
X1377340D02*
X1376318Y599968D01*
X1376318D02*
X1373250D01*
X1381090Y604609D02*
Y595750D01*
Y604609D02*
X1384159D01*
X1385181Y604187*
X1385181D02*
X1385522Y603765D01*
X1385522D02*
X1385863Y602921D01*
X1385863D02*
Y602078D01*
X1385863D02*
X1385522Y601234D01*
X1385522D02*
X1385181Y600812D01*
X1385181D02*
X1384159Y600390D01*
X1384159D02*
X1381090D01*
X1383477D02*
X1385863Y595750D01*
X1388931Y604609D02*
Y595750D01*
X1394045Y604609D02*
X1393363Y604187D01*
X1393363D02*
X1392681Y603343D01*
X1392681D02*
X1392340Y602500D01*
X1392340D02*
X1392000Y601234D01*
Y599125*
X1392340Y597859*
X1392340D02*
X1392681Y597015D01*
X1392681D02*
X1393363Y596171D01*
X1393363D02*
X1394045Y595750D01*
X1395409*
X1396090Y596171*
X1396090D02*
X1396772Y597015D01*
X1396772D02*
X1397113Y597859D01*
X1397113D02*
X1397454Y599125D01*
X1397454D02*
Y601234D01*
X1397454D02*
X1397113Y602500D01*
X1397113D02*
X1396772Y603343D01*
X1396772D02*
X1396090Y604187D01*
X1396090D02*
X1395409Y604609D01*
X1394045*
X1400522D02*
Y595750D01*
Y604609D02*
X1403590D01*
X1403590D02*
X1404613Y604187D01*
X1404613D02*
X1404954Y603765D01*
X1404954D02*
X1405295Y602921D01*
X1405295D02*
Y602078D01*
X1404954Y601234*
X1404954D02*
X1404613Y600812D01*
X1404613D02*
X1403590Y600390D01*
X1403590D02*
X1400522D01*
X1402909D02*
X1405295Y595750D01*
X1418590Y604609D02*
Y595750D01*
X1416204Y604609D02*
X1420977D01*
X1426090D02*
X1425409Y604187D01*
X1425409D02*
X1424727Y603343D01*
X1424727D02*
X1424386Y602500D01*
X1424045Y601234*
Y599125*
X1424386Y597859*
X1424727Y597015*
X1424727D02*
X1425409Y596171D01*
X1425409D02*
X1426090Y595750D01*
X1426090D02*
X1427454D01*
X1427454D02*
X1428136Y596171D01*
X1428136D02*
X1428818Y597015D01*
X1428818D02*
X1429159Y597859D01*
X1429500Y599125*
Y601234*
X1429159Y602500*
X1428818Y603343*
X1428818D02*
X1428136Y604187D01*
X1428136D02*
X1427454Y604609D01*
X1427454D02*
X1426090D01*
X1440409D02*
Y595750D01*
Y604609D02*
X1443477D01*
X1444500Y604187*
X1444500D02*
X1444840Y603765D01*
X1444840D02*
X1445181Y602921D01*
X1445181D02*
Y601656D01*
X1445181D02*
X1444840Y600812D01*
X1444840D02*
X1444500Y600390D01*
X1444500D02*
X1443477Y599968D01*
X1443477D02*
X1440409D01*
X1448250Y604609D02*
Y595750D01*
X1452340*
X1458136Y604609D02*
X1455409Y595750D01*
X1458136Y604609D02*
X1460863Y595750D01*
X1456431Y598703D02*
X1459840D01*
X1466318Y604609D02*
Y595750D01*
X1463931Y604609D02*
X1468704D01*
X1471772D02*
Y595750D01*
X1474840Y604609D02*
Y595750D01*
Y604609D02*
X1479613Y595750D01*
Y604609D02*
Y595750D01*
X1487795Y602500D02*
X1487454Y603343D01*
X1487454D02*
X1486772Y604187D01*
X1486772D02*
X1486090Y604609D01*
X1486090D02*
X1484727D01*
X1484045Y604187*
X1484045D02*
X1483363Y603343D01*
X1483363D02*
X1483022Y602500D01*
X1483022D02*
X1482681Y601234D01*
X1482681D02*
Y599125D01*
X1482681D02*
X1483022Y597859D01*
X1483022D02*
X1483363Y597015D01*
X1483363D02*
X1484045Y596171D01*
X1484045D02*
X1484727Y595750D01*
X1486090*
X1486090D02*
X1486772Y596171D01*
X1486772D02*
X1487454Y597015D01*
X1487454D02*
X1487795Y597859D01*
Y599125*
X1486090D02*
X1487795D01*
X1198250Y604609D02*
Y595750D01*
Y604609D02*
X1201318D01*
X1202340Y604187*
X1202340D02*
X1202681Y603765D01*
X1202681D02*
X1203022Y602921D01*
X1203022D02*
Y601656D01*
X1203022D02*
X1202681Y600812D01*
X1202681D02*
X1202340Y600390D01*
X1202340D02*
X1201318Y599968D01*
X1201318D02*
X1198250D01*
X1206090Y604609D02*
Y595750D01*
Y604609D02*
X1209159D01*
X1210181Y604187*
X1210181D02*
X1210522Y603765D01*
X1210522D02*
X1210863Y602921D01*
X1210863D02*
Y602078D01*
X1210863D02*
X1210522Y601234D01*
X1210522D02*
X1210181Y600812D01*
X1210181D02*
X1209159Y600390D01*
X1209159D02*
X1206090D01*
X1208477D02*
X1210863Y595750D01*
X1213931Y604609D02*
Y595750D01*
X1219045Y604609D02*
X1218363Y604187D01*
X1218363D02*
X1217681Y603343D01*
X1217681D02*
X1217340Y602500D01*
X1217340D02*
X1217000Y601234D01*
Y599125*
X1217340Y597859*
X1217340D02*
X1217681Y597015D01*
X1217681D02*
X1218363Y596171D01*
X1218363D02*
X1219045Y595750D01*
X1220409*
X1221090Y596171*
X1221090D02*
X1221772Y597015D01*
X1221772D02*
X1222113Y597859D01*
X1222113D02*
X1222454Y599125D01*
X1222454D02*
Y601234D01*
X1222454D02*
X1222113Y602500D01*
X1222113D02*
X1221772Y603343D01*
X1221772D02*
X1221090Y604187D01*
X1221090D02*
X1220409Y604609D01*
X1219045*
X1225522D02*
Y595750D01*
Y604609D02*
X1228590D01*
X1228590D02*
X1229613Y604187D01*
X1229613D02*
X1229954Y603765D01*
X1229954D02*
X1230295Y602921D01*
X1230295D02*
Y602078D01*
X1229954Y601234*
X1229954D02*
X1229613Y600812D01*
X1229613D02*
X1228590Y600390D01*
X1228590D02*
X1225522D01*
X1227909D02*
X1230295Y595750D01*
X1243590Y604609D02*
Y595750D01*
X1241204Y604609D02*
X1245977D01*
X1251090D02*
X1250409Y604187D01*
X1250409D02*
X1249727Y603343D01*
X1249727D02*
X1249386Y602500D01*
X1249045Y601234*
Y599125*
X1249386Y597859*
X1249727Y597015*
X1249727D02*
X1250409Y596171D01*
X1250409D02*
X1251090Y595750D01*
X1251090D02*
X1252454D01*
X1252454D02*
X1253136Y596171D01*
X1253136D02*
X1253818Y597015D01*
X1253818D02*
X1254159Y597859D01*
X1254500Y599125*
Y601234*
X1254159Y602500*
X1253818Y603343*
X1253818D02*
X1253136Y604187D01*
X1253136D02*
X1252454Y604609D01*
X1252454D02*
X1251090D01*
X1265409D02*
Y595750D01*
Y604609D02*
X1268477D01*
X1269500Y604187*
X1269500D02*
X1269840Y603765D01*
X1269840D02*
X1270181Y602921D01*
X1270181D02*
Y601656D01*
X1270181D02*
X1269840Y600812D01*
X1269840D02*
X1269500Y600390D01*
X1269500D02*
X1268477Y599968D01*
X1268477D02*
X1265409D01*
X1273250Y604609D02*
Y595750D01*
X1277340*
X1283136Y604609D02*
X1280409Y595750D01*
X1283136Y604609D02*
X1285863Y595750D01*
X1281431Y598703D02*
X1284840D01*
X1291318Y604609D02*
Y595750D01*
X1288931Y604609D02*
X1293704D01*
X1296772D02*
Y595750D01*
X1299840Y604609D02*
Y595750D01*
Y604609D02*
X1304613Y595750D01*
Y604609D02*
Y595750D01*
X1312795Y602500D02*
X1312454Y603343D01*
X1312454D02*
X1311772Y604187D01*
X1311772D02*
X1311090Y604609D01*
X1311090D02*
X1309727D01*
X1309045Y604187*
X1309045D02*
X1308363Y603343D01*
X1308363D02*
X1308022Y602500D01*
X1308022D02*
X1307681Y601234D01*
X1307681D02*
Y599125D01*
X1307681D02*
X1308022Y597859D01*
X1308022D02*
X1308363Y597015D01*
X1308363D02*
X1309045Y596171D01*
X1309045D02*
X1309727Y595750D01*
X1311090*
X1311090D02*
X1311772Y596171D01*
X1311772D02*
X1312454Y597015D01*
X1312454D02*
X1312795Y597859D01*
Y599125*
X1311090D02*
X1312795D01*
X1396750Y647109D02*
Y638250D01*
X1400840*
X1406636Y647109D02*
X1403909Y638250D01*
X1406636Y647109D02*
X1409363Y638250D01*
X1404931Y641203D02*
X1408340D01*
X1412431Y647109D02*
X1415159Y642890D01*
X1415159D02*
Y638250D01*
X1417886Y647109D02*
X1415159Y642890D01*
X1420954Y647109D02*
Y638250D01*
Y647109D02*
X1425386D01*
X1420954Y642890D02*
X1423681D01*
X1420954Y638250D02*
X1425386D01*
X1428454Y647109D02*
Y638250D01*
Y647109D02*
X1431522D01*
X1431522D02*
X1432545Y646687D01*
X1432545D02*
X1432886Y646265D01*
X1432886D02*
X1433227Y645421D01*
X1433227D02*
Y644578D01*
X1432886Y643734*
X1432545Y643312*
X1432545D02*
X1431522Y642890D01*
X1431522D02*
X1428454D01*
X1430840D02*
X1433227Y638250D01*
X1444477Y645000D02*
Y645421D01*
X1444477D02*
X1444818Y646265D01*
X1444818D02*
X1445159Y646687D01*
X1445159D02*
X1445840Y647109D01*
X1445840D02*
X1447204D01*
X1447204D02*
X1447886Y646687D01*
X1447886D02*
X1448227Y646265D01*
X1448227D02*
X1448568Y645421D01*
X1448568D02*
Y644578D01*
X1448227Y643734*
X1447545Y642468*
X1447545D02*
X1444136Y638250D01*
X1448909*
X1229250Y644609D02*
Y635750D01*
X1233340*
X1239136Y644609D02*
X1236409Y635750D01*
X1239136Y644609D02*
X1241863Y635750D01*
X1237431Y638703D02*
X1240840D01*
X1244931Y644609D02*
X1247659Y640390D01*
X1247659D02*
Y635750D01*
X1250386Y644609D02*
X1247659Y640390D01*
X1253454Y644609D02*
Y635750D01*
Y644609D02*
X1257886D01*
X1253454Y640390D02*
X1256181D01*
X1253454Y635750D02*
X1257886D01*
X1260954Y644609D02*
Y635750D01*
Y644609D02*
X1264022D01*
X1264022D02*
X1265045Y644187D01*
X1265045D02*
X1265386Y643765D01*
X1265386D02*
X1265727Y642921D01*
X1265727D02*
Y642078D01*
X1265386Y641234*
X1265045Y640812*
X1265045D02*
X1264022Y640390D01*
X1264022D02*
X1260954D01*
X1263340D02*
X1265727Y635750D01*
X1276636Y642921D02*
X1277318Y643343D01*
X1277318D02*
X1278340Y644609D01*
X1278340D02*
Y635750D01*
X1224136Y664609D02*
Y655750D01*
X1221750Y664609D02*
X1226522D01*
X1231636D02*
X1230954Y664187D01*
X1230954D02*
X1230272Y663343D01*
X1230272D02*
X1229931Y662500D01*
X1229931D02*
X1229590Y661234D01*
X1229590D02*
Y659125D01*
X1229590D02*
X1229931Y657859D01*
X1229931D02*
X1230272Y657015D01*
X1230272D02*
X1230954Y656171D01*
X1230954D02*
X1231636Y655750D01*
X1233000*
X1233681Y656171*
X1233681D02*
X1234363Y657015D01*
X1234363D02*
X1234704Y657859D01*
X1234704D02*
X1235045Y659125D01*
Y661234*
X1234704Y662500*
X1234704D02*
X1234363Y663343D01*
X1234363D02*
X1233681Y664187D01*
X1233681D02*
X1233000Y664609D01*
X1231636*
X1238113D02*
Y655750D01*
Y664609D02*
X1241181D01*
X1241181D02*
X1242204Y664187D01*
X1242204D02*
X1242545Y663765D01*
X1242545D02*
X1242886Y662921D01*
X1242886D02*
Y661656D01*
X1242545Y660812*
X1242545D02*
X1242204Y660390D01*
X1242204D02*
X1241181Y659968D01*
X1241181D02*
X1238113D01*
X1258568Y663343D02*
X1257886Y664187D01*
X1257886D02*
X1256863Y664609D01*
X1256863D02*
X1255500D01*
X1254477Y664187*
X1254477D02*
X1253795Y663343D01*
X1253795D02*
Y662500D01*
X1254136Y661656*
X1254477Y661234*
X1255159Y660812*
X1255159D02*
X1257204Y659968D01*
X1257204D02*
X1257886Y659546D01*
X1257886D02*
X1258227Y659125D01*
X1258568Y658281*
Y657015*
X1258568D02*
X1257886Y656171D01*
X1257886D02*
X1256863Y655750D01*
X1256863D02*
X1255500D01*
X1254477Y656171*
X1254477D02*
X1253795Y657015D01*
X1261636Y664609D02*
Y655750D01*
X1264704Y664609D02*
Y655750D01*
Y664609D02*
X1267090D01*
X1267090D02*
X1268113Y664187D01*
X1268113D02*
X1268795Y663343D01*
X1268795D02*
X1269136Y662500D01*
X1269477Y661234*
Y659125*
X1269136Y657859*
X1268795Y657015*
X1268795D02*
X1268113Y656171D01*
X1268113D02*
X1267090Y655750D01*
X1267090D02*
X1264704D01*
X1272545Y664609D02*
Y655750D01*
Y664609D02*
X1276977D01*
X1272545Y660390D02*
X1275272D01*
X1272545Y655750D02*
X1276977D01*
X1364000Y622921D02*
X1364681Y623343D01*
X1364681D02*
X1365704Y624609D01*
X1365704D02*
Y615750D01*
X1378659Y624609D02*
X1377977Y624187D01*
X1377977D02*
X1377295Y623343D01*
X1377295D02*
X1376954Y622500D01*
X1376954D02*
X1376613Y621234D01*
X1376613D02*
Y619125D01*
X1376613D02*
X1376954Y617859D01*
X1376954D02*
X1377295Y617015D01*
X1377295D02*
X1377977Y616171D01*
X1377977D02*
X1378659Y615750D01*
X1380022*
X1380022D02*
X1380704Y616171D01*
X1380704D02*
X1381386Y617015D01*
X1381386D02*
X1381727Y617859D01*
X1382068Y619125*
Y621234*
X1381727Y622500*
X1381386Y623343*
X1381386D02*
X1380704Y624187D01*
X1380704D02*
X1380022Y624609D01*
X1380022D02*
X1378659D01*
X1389909D02*
X1385136Y615750D01*
Y624609D02*
X1389909D01*
X1385136Y615750D02*
X1389909D01*
X1393318Y616593D02*
X1392977Y616171D01*
X1392977D02*
X1393318Y615750D01*
X1393659Y616171*
X1393659D02*
X1393318Y616593D01*
X1409681Y622500D02*
X1409340Y623343D01*
X1409340D02*
X1408659Y624187D01*
X1408659D02*
X1407977Y624609D01*
X1406613*
X1406613D02*
X1405931Y624187D01*
X1405931D02*
X1405250Y623343D01*
X1405250D02*
X1404909Y622500D01*
X1404568Y621234*
Y619125*
X1404909Y617859*
X1405250Y617015*
X1405250D02*
X1405931Y616171D01*
X1405931D02*
X1406613Y615750D01*
X1406613D02*
X1407977D01*
X1408659Y616171*
X1408659D02*
X1409340Y617015D01*
X1409340D02*
X1409681Y617859D01*
X1414795Y624609D02*
X1414113Y624187D01*
X1414113D02*
X1413431Y623343D01*
X1413431D02*
X1413090Y622500D01*
X1413090D02*
X1412750Y621234D01*
Y619125*
X1413090Y617859*
X1413090D02*
X1413431Y617015D01*
X1413431D02*
X1414113Y616171D01*
X1414113D02*
X1414795Y615750D01*
X1416159*
X1416840Y616171*
X1416840D02*
X1417522Y617015D01*
X1417522D02*
X1417863Y617859D01*
X1417863D02*
X1418204Y619125D01*
X1418204D02*
Y621234D01*
X1418204D02*
X1417863Y622500D01*
X1417863D02*
X1417522Y623343D01*
X1417522D02*
X1416840Y624187D01*
X1416840D02*
X1416159Y624609D01*
X1414795*
X1421272D02*
Y615750D01*
Y624609D02*
X1424340D01*
X1424340D02*
X1425363Y624187D01*
X1425363D02*
X1425704Y623765D01*
X1425704D02*
X1426045Y622921D01*
X1426045D02*
Y621656D01*
X1425704Y620812*
X1425704D02*
X1425363Y620390D01*
X1425363D02*
X1424340Y619968D01*
X1424340D02*
X1421272D01*
X1429113Y624609D02*
Y615750D01*
Y624609D02*
X1432181D01*
X1432181D02*
X1433204Y624187D01*
X1433204D02*
X1433545Y623765D01*
X1433545D02*
X1433886Y622921D01*
X1433886D02*
Y621656D01*
X1433545Y620812*
X1433545D02*
X1433204Y620390D01*
X1433204D02*
X1432181Y619968D01*
X1432181D02*
X1429113D01*
X1436954Y624609D02*
Y615750D01*
Y624609D02*
X1441386D01*
X1436954Y620390D02*
X1439681D01*
X1436954Y615750D02*
X1441386D01*
X1444454Y624609D02*
Y615750D01*
Y624609D02*
X1447522D01*
X1447522D02*
X1448545Y624187D01*
X1448545D02*
X1448886Y623765D01*
X1448886D02*
X1449227Y622921D01*
X1449227D02*
Y622078D01*
X1448886Y621234*
X1448545Y620812*
X1448545D02*
X1447522Y620390D01*
X1447522D02*
X1444454D01*
X1446840D02*
X1449227Y615750D01*
X1457409Y622500D02*
X1457068Y623343D01*
X1457068D02*
X1456386Y624187D01*
X1456386D02*
X1455704Y624609D01*
X1455704D02*
X1454340D01*
X1454340D02*
X1453659Y624187D01*
X1453659D02*
X1452977Y623343D01*
X1452977D02*
X1452636Y622500D01*
X1452295Y621234*
Y619125*
X1452636Y617859*
X1452977Y617015*
X1452977D02*
X1453659Y616171D01*
X1453659D02*
X1454340Y615750D01*
X1454340D02*
X1455704D01*
X1455704D02*
X1456386Y616171D01*
X1456386D02*
X1457068Y617015D01*
X1457068D02*
X1457409Y617859D01*
X1460477Y624609D02*
Y615750D01*
X1464568*
X1470363Y624609D02*
X1467636Y615750D01*
X1470363Y624609D02*
X1473090Y615750D01*
X1468659Y618703D02*
X1472068D01*
X1476159Y624609D02*
Y615750D01*
Y624609D02*
X1478545D01*
X1479568Y624187*
X1479568D02*
X1480250Y623343D01*
X1480250D02*
X1480590Y622500D01*
X1480590D02*
X1480931Y621234D01*
X1480931D02*
Y619125D01*
X1480931D02*
X1480590Y617859D01*
X1480590D02*
X1480250Y617015D01*
X1480250D02*
X1479568Y616171D01*
X1479568D02*
X1478545Y615750D01*
X1476159*
X1180750Y622921D02*
X1181431Y623343D01*
X1181431D02*
X1182454Y624609D01*
X1182454D02*
Y615750D01*
X1195409Y624609D02*
X1194727Y624187D01*
X1194727D02*
X1194045Y623343D01*
X1194045D02*
X1193704Y622500D01*
X1193704D02*
X1193363Y621234D01*
X1193363D02*
Y619125D01*
X1193363D02*
X1193704Y617859D01*
X1193704D02*
X1194045Y617015D01*
X1194045D02*
X1194727Y616171D01*
X1194727D02*
X1195409Y615750D01*
X1196772*
X1196772D02*
X1197454Y616171D01*
X1197454D02*
X1198136Y617015D01*
X1198136D02*
X1198477Y617859D01*
X1198818Y619125*
Y621234*
X1198477Y622500*
X1198136Y623343*
X1198136D02*
X1197454Y624187D01*
X1197454D02*
X1196772Y624609D01*
X1196772D02*
X1195409D01*
X1206659D02*
X1201886Y615750D01*
Y624609D02*
X1206659D01*
X1201886Y615750D02*
X1206659D01*
X1210068Y616593D02*
X1209727Y616171D01*
X1209727D02*
X1210068Y615750D01*
X1210409Y616171*
X1210409D02*
X1210068Y616593D01*
X1226431Y622500D02*
X1226090Y623343D01*
X1226090D02*
X1225409Y624187D01*
X1225409D02*
X1224727Y624609D01*
X1223363*
X1223363D02*
X1222681Y624187D01*
X1222681D02*
X1222000Y623343D01*
X1222000D02*
X1221659Y622500D01*
X1221318Y621234*
Y619125*
X1221659Y617859*
X1222000Y617015*
X1222000D02*
X1222681Y616171D01*
X1222681D02*
X1223363Y615750D01*
X1223363D02*
X1224727D01*
X1225409Y616171*
X1225409D02*
X1226090Y617015D01*
X1226090D02*
X1226431Y617859D01*
X1231545Y624609D02*
X1230863Y624187D01*
X1230863D02*
X1230181Y623343D01*
X1230181D02*
X1229840Y622500D01*
X1229840D02*
X1229500Y621234D01*
Y619125*
X1229840Y617859*
X1229840D02*
X1230181Y617015D01*
X1230181D02*
X1230863Y616171D01*
X1230863D02*
X1231545Y615750D01*
X1232909*
X1233590Y616171*
X1233590D02*
X1234272Y617015D01*
X1234272D02*
X1234613Y617859D01*
X1234613D02*
X1234954Y619125D01*
X1234954D02*
Y621234D01*
X1234954D02*
X1234613Y622500D01*
X1234613D02*
X1234272Y623343D01*
X1234272D02*
X1233590Y624187D01*
X1233590D02*
X1232909Y624609D01*
X1231545*
X1238022D02*
Y615750D01*
Y624609D02*
X1241090D01*
X1241090D02*
X1242113Y624187D01*
X1242113D02*
X1242454Y623765D01*
X1242454D02*
X1242795Y622921D01*
X1242795D02*
Y621656D01*
X1242454Y620812*
X1242454D02*
X1242113Y620390D01*
X1242113D02*
X1241090Y619968D01*
X1241090D02*
X1238022D01*
X1245863Y624609D02*
Y615750D01*
Y624609D02*
X1248931D01*
X1248931D02*
X1249954Y624187D01*
X1249954D02*
X1250295Y623765D01*
X1250295D02*
X1250636Y622921D01*
X1250636D02*
Y621656D01*
X1250295Y620812*
X1250295D02*
X1249954Y620390D01*
X1249954D02*
X1248931Y619968D01*
X1248931D02*
X1245863D01*
X1253704Y624609D02*
Y615750D01*
Y624609D02*
X1258136D01*
X1253704Y620390D02*
X1256431D01*
X1253704Y615750D02*
X1258136D01*
X1261204Y624609D02*
Y615750D01*
Y624609D02*
X1264272D01*
X1264272D02*
X1265295Y624187D01*
X1265295D02*
X1265636Y623765D01*
X1265636D02*
X1265977Y622921D01*
X1265977D02*
Y622078D01*
X1265636Y621234*
X1265295Y620812*
X1265295D02*
X1264272Y620390D01*
X1264272D02*
X1261204D01*
X1263590D02*
X1265977Y615750D01*
X1274159Y622500D02*
X1273818Y623343D01*
X1273818D02*
X1273136Y624187D01*
X1273136D02*
X1272454Y624609D01*
X1272454D02*
X1271090D01*
X1271090D02*
X1270409Y624187D01*
X1270409D02*
X1269727Y623343D01*
X1269727D02*
X1269386Y622500D01*
X1269045Y621234*
Y619125*
X1269386Y617859*
X1269727Y617015*
X1269727D02*
X1270409Y616171D01*
X1270409D02*
X1271090Y615750D01*
X1271090D02*
X1272454D01*
X1272454D02*
X1273136Y616171D01*
X1273136D02*
X1273818Y617015D01*
X1273818D02*
X1274159Y617859D01*
X1277227Y624609D02*
Y615750D01*
X1281318*
X1287113Y624609D02*
X1284386Y615750D01*
X1287113Y624609D02*
X1289840Y615750D01*
X1285409Y618703D02*
X1288818D01*
X1292909Y624609D02*
Y615750D01*
Y624609D02*
X1295295D01*
X1296318Y624187*
X1296318D02*
X1297000Y623343D01*
X1297000D02*
X1297340Y622500D01*
X1297340D02*
X1297681Y621234D01*
X1297681D02*
Y619125D01*
X1297681D02*
X1297340Y617859D01*
X1297340D02*
X1297000Y617015D01*
X1297000D02*
X1296318Y616171D01*
X1296318D02*
X1295295Y615750D01*
X1292909*
X1366045Y577109D02*
X1365022Y576687D01*
X1365022D02*
X1364340Y575421D01*
X1364340D02*
X1364000Y573312D01*
X1364000D02*
Y572046D01*
X1364000D02*
X1364340Y569937D01*
X1364340D02*
X1365022Y568671D01*
X1365022D02*
X1366045Y568250D01*
X1366727*
X1367750Y568671*
X1367750D02*
X1368431Y569937D01*
X1368431D02*
X1368772Y572046D01*
X1368772D02*
Y573312D01*
X1368772D02*
X1368431Y575421D01*
X1368431D02*
X1367750Y576687D01*
X1367750D02*
X1366727Y577109D01*
X1366045*
X1372181Y569093D02*
X1371840Y568671D01*
X1371840D02*
X1372181Y568250D01*
X1372181D02*
X1372522Y568671D01*
X1372522D02*
X1372181Y569093D01*
X1377636Y577109D02*
X1376613Y576687D01*
X1376613D02*
X1375931Y575421D01*
X1375931D02*
X1375590Y573312D01*
X1375590D02*
Y572046D01*
X1375590D02*
X1375931Y569937D01*
X1375931D02*
X1376613Y568671D01*
X1376613D02*
X1377636Y568250D01*
X1378318*
X1379340Y568671*
X1379340D02*
X1380022Y569937D01*
X1380022D02*
X1380363Y572046D01*
X1380363D02*
Y573312D01*
X1380363D02*
X1380022Y575421D01*
X1380022D02*
X1379340Y576687D01*
X1379340D02*
X1378318Y577109D01*
X1377636*
X1387522Y575843D02*
X1387181Y576687D01*
X1387181D02*
X1386159Y577109D01*
X1385477*
X1384454Y576687*
X1384454D02*
X1383772Y575421D01*
X1383772D02*
X1383431Y573312D01*
X1383431D02*
Y571203D01*
X1383431D02*
X1383772Y569515D01*
X1383772D02*
X1384454Y568671D01*
X1384454D02*
X1385477Y568250D01*
X1385818*
X1386840Y568671*
X1386840D02*
X1387522Y569515D01*
X1387522D02*
X1387863Y570781D01*
X1387863D02*
Y571203D01*
X1387863D02*
X1387522Y572468D01*
X1387522D02*
X1386840Y573312D01*
X1386840D02*
X1385818Y573734D01*
X1385477*
X1384454Y573312*
X1384454D02*
X1383772Y572468D01*
X1383772D02*
X1383431Y571203D01*
X1391272Y575000D02*
Y575421D01*
X1391272D02*
X1391613Y576265D01*
X1391613D02*
X1391954Y576687D01*
X1391954D02*
X1392636Y577109D01*
X1394000*
X1394681Y576687*
X1394681D02*
X1395022Y576265D01*
X1395022D02*
X1395363Y575421D01*
X1395363D02*
Y574578D01*
X1395363D02*
X1395022Y573734D01*
X1395022D02*
X1394340Y572468D01*
X1394340D02*
X1390931Y568250D01*
X1390931D02*
X1395704D01*
X1409681Y575843D02*
Y568250D01*
X1406613Y572046D02*
X1412750D01*
X1421954Y578796D02*
X1415818Y565296D01*
X1425022Y572046D02*
X1431159D01*
X1434227Y575421D02*
X1434909Y575843D01*
X1434909D02*
X1435931Y577109D01*
X1435931D02*
Y568250D01*
X1441045Y577109D02*
X1440022Y576687D01*
X1440022D02*
X1439340Y575421D01*
X1439340D02*
X1439000Y573312D01*
X1439000D02*
Y572046D01*
X1439000D02*
X1439340Y569937D01*
X1439340D02*
X1440022Y568671D01*
X1440022D02*
X1441045Y568250D01*
X1441727*
X1442750Y568671*
X1442750D02*
X1443431Y569937D01*
X1443431D02*
X1443772Y572046D01*
X1443772D02*
Y573312D01*
X1443772D02*
X1443431Y575421D01*
X1443431D02*
X1442750Y576687D01*
X1442750D02*
X1441727Y577109D01*
X1441045*
X1447522Y574578D02*
X1447863Y574156D01*
X1447863D02*
X1448886D01*
X1449227Y574578*
Y575421*
X1449227D02*
X1448886Y575843D01*
X1448886D02*
X1447863D01*
X1447863D02*
X1447522Y575421D01*
X1447522D02*
Y574578D01*
X1450931Y569515D02*
X1451954D01*
X1451954D02*
X1452295Y569937D01*
X1452295D02*
Y570781D01*
X1451954Y571203*
X1451954D02*
X1450931D01*
X1450931D02*
X1450590Y570781D01*
X1450590D02*
Y569937D01*
X1450590D02*
X1450931Y569515D01*
X1452636Y576265D02*
X1446840Y568671D01*
X1390000Y922500D02*
X1025000D01*
Y950000D02*
X1390000D01*
X1057500Y915000D02*
Y905000D01*
X1052500Y910000D02*
X1062500D01*
X1052500Y890000D02*
X1062500Y880000D01*
Y890000D02*
X1052500Y880000D01*
X1025000Y897500D02*
X1390000D01*
X1025000Y872500D02*
X1390000D01*
X1025000Y847500D02*
X1390000D01*
X1057500Y860000D02*
Y865000D01*
X1052500*
Y855000*
X1062500*
Y865000*
X1057500*
X1025000Y980000D02*
Y822500D01*
X1390000*
Y980000*
X1025000*
X1232500Y950000D02*
Y822500D01*
X1282500Y950000D02*
Y822500D01*
X1090000Y950000D02*
Y822500D01*
X1040090Y941406D02*
X1039363Y942312D01*
X1039363D02*
X1038272Y942765D01*
X1038272D02*
X1036818D01*
X1036818D02*
X1035727Y942312D01*
X1035727D02*
X1035000Y941406D01*
Y940500*
X1035363Y939593*
X1035363D02*
X1035727Y939140D01*
X1035727D02*
X1036454Y938687D01*
X1036454D02*
X1038636Y937781D01*
X1039363Y937328*
X1039363D02*
X1039727Y936875D01*
X1040090Y935968*
X1040090D02*
Y934609D01*
X1040090D02*
X1039363Y933703D01*
X1039363D02*
X1038272Y933250D01*
X1038272D02*
X1036818D01*
X1035727Y933703*
X1035000Y934609*
X1043363Y942765D02*
X1046272Y938234D01*
X1046272D02*
Y933250D01*
X1049181Y942765D02*
X1046272Y938234D01*
X1052454Y942765D02*
Y933250D01*
Y942765D02*
X1055363Y933250D01*
X1058272Y942765D02*
X1055363Y933250D01*
X1058272Y942765D02*
Y933250D01*
X1061545Y942765D02*
Y933250D01*
Y942765D02*
X1064818D01*
X1064818D02*
X1065909Y942312D01*
X1065909D02*
X1066272Y941859D01*
X1066272D02*
X1066636Y940953D01*
Y940046*
X1066636D02*
X1066272Y939140D01*
X1066272D02*
X1065909Y938687D01*
X1065909D02*
X1064818Y938234D01*
X1061545D02*
X1064818D01*
X1065909Y937781*
X1066272Y937328*
X1066272D02*
X1066636Y936421D01*
X1066636D02*
Y935062D01*
X1066636D02*
X1066272Y934156D01*
X1066272D02*
X1065909Y933703D01*
X1064818Y933250*
X1061545*
X1072090Y942765D02*
X1071363Y942312D01*
X1071363D02*
X1070636Y941406D01*
X1070272Y940500*
X1070272D02*
X1069909Y939140D01*
X1069909D02*
Y936875D01*
X1070272Y935515*
X1070272D02*
X1070636Y934609D01*
X1071363Y933703*
X1071363D02*
X1072090Y933250D01*
X1072090D02*
X1073545D01*
X1074272Y933703*
X1074272D02*
X1075000Y934609D01*
X1075363Y935515*
X1075363D02*
X1075727Y936875D01*
Y939140*
X1075727D02*
X1075363Y940500D01*
X1075363D02*
X1075000Y941406D01*
X1074272Y942312*
X1074272D02*
X1073545Y942765D01*
X1073545D02*
X1072090D01*
X1079000D02*
Y933250D01*
X1083363*
X1260181Y839609D02*
X1256772D01*
X1256772D02*
X1256431Y835812D01*
X1256431D02*
X1256772Y836234D01*
X1256772D02*
X1257795Y836656D01*
X1258818*
X1259840Y836234*
X1259840D02*
X1260522Y835390D01*
X1260522D02*
X1260863Y834125D01*
X1260863D02*
X1260522Y833281D01*
X1260522D02*
X1260181Y832015D01*
X1260181D02*
X1259500Y831171D01*
X1259500D02*
X1258477Y830750D01*
X1257454*
X1257454D02*
X1256431Y831171D01*
X1256431D02*
X1256090Y831593D01*
X1256090D02*
X1255750Y832437D01*
X1257454Y864609D02*
X1256431Y864187D01*
X1256431D02*
X1256090Y863343D01*
X1256090D02*
Y862500D01*
X1256090D02*
X1256431Y861656D01*
X1256431D02*
X1257113Y861234D01*
X1257113D02*
X1258477Y860812D01*
X1258477D02*
X1259500Y860390D01*
X1259500D02*
X1260181Y859546D01*
X1260181D02*
X1260522Y858703D01*
X1260522D02*
Y857437D01*
X1260522D02*
X1260181Y856593D01*
X1260181D02*
X1259840Y856171D01*
X1259840D02*
X1258818Y855750D01*
X1257454*
X1257454D02*
X1256431Y856171D01*
X1256431D02*
X1256090Y856593D01*
X1256090D02*
X1255750Y857437D01*
X1255750D02*
Y858703D01*
X1256090Y859546*
X1256090D02*
X1256772Y860390D01*
X1256772D02*
X1257795Y860812D01*
X1257795D02*
X1259159Y861234D01*
X1259840Y861656*
X1259840D02*
X1260181Y862500D01*
X1260181D02*
Y863343D01*
X1260181D02*
X1259840Y864187D01*
X1259840D02*
X1258818Y864609D01*
X1257454*
X1256090Y887500D02*
Y887921D01*
X1256090D02*
X1256431Y888765D01*
X1256431D02*
X1256772Y889187D01*
X1256772D02*
X1257454Y889609D01*
X1257454D02*
X1258818D01*
X1259500Y889187*
X1259500D02*
X1259840Y888765D01*
X1259840D02*
X1260181Y887921D01*
X1260181D02*
Y887078D01*
X1260181D02*
X1259840Y886234D01*
X1259840D02*
X1259159Y884968D01*
X1259159D02*
X1255750Y880750D01*
X1260522*
X1257454Y914609D02*
X1256431Y914187D01*
X1256431D02*
X1256090Y913343D01*
X1256090D02*
Y912500D01*
X1256090D02*
X1256431Y911656D01*
X1256431D02*
X1257113Y911234D01*
X1257113D02*
X1258477Y910812D01*
X1258477D02*
X1259500Y910390D01*
X1259500D02*
X1260181Y909546D01*
X1260181D02*
X1260522Y908703D01*
X1260522D02*
Y907437D01*
X1260522D02*
X1260181Y906593D01*
X1260181D02*
X1259840Y906171D01*
X1259840D02*
X1258818Y905750D01*
X1257454*
X1257454D02*
X1256431Y906171D01*
X1256431D02*
X1256090Y906593D01*
X1256090D02*
X1255750Y907437D01*
X1255750D02*
Y908703D01*
X1256090Y909546*
X1256090D02*
X1256772Y910390D01*
X1256772D02*
X1257795Y910812D01*
X1257795D02*
X1259159Y911234D01*
X1259840Y911656*
X1259840D02*
X1260181Y912500D01*
X1260181D02*
Y913343D01*
X1260181D02*
X1259840Y914187D01*
X1259840D02*
X1258818Y914609D01*
X1257454*
X1310750D02*
Y905750D01*
Y914609D02*
X1313818D01*
X1314840Y914187*
X1314840D02*
X1315181Y913765D01*
X1315181D02*
X1315522Y912921D01*
X1315522D02*
Y911656D01*
X1315522D02*
X1315181Y910812D01*
X1315181D02*
X1314840Y910390D01*
X1314840D02*
X1313818Y909968D01*
X1313818D02*
X1310750D01*
X1318590Y914609D02*
Y905750D01*
X1318590D02*
X1322681D01*
X1328477Y914609D02*
X1325750Y905750D01*
X1328477Y914609D02*
X1331204Y905750D01*
X1326772Y908703D02*
X1330181D01*
X1336659Y914609D02*
Y905750D01*
X1334272Y914609D02*
X1339045D01*
X1342113D02*
Y905750D01*
Y914609D02*
X1346545D01*
X1342113Y910390D02*
X1344840D01*
X1342113Y905750D02*
X1346545D01*
X1349613Y914609D02*
Y905750D01*
Y914609D02*
X1352000D01*
X1353022Y914187*
X1353022D02*
X1353704Y913343D01*
X1353704D02*
X1354045Y912500D01*
X1354386Y911234*
Y909125*
X1354045Y907859*
X1353704Y907015*
X1353704D02*
X1353022Y906171D01*
X1353022D02*
X1352000Y905750D01*
X1349613*
X1310750Y889609D02*
Y880750D01*
Y889609D02*
X1313818D01*
X1314840Y889187*
X1314840D02*
X1315181Y888765D01*
X1315181D02*
X1315522Y887921D01*
X1315522D02*
Y886656D01*
X1315522D02*
X1315181Y885812D01*
X1315181D02*
X1314840Y885390D01*
X1314840D02*
X1313818Y884968D01*
X1313818D02*
X1310750D01*
X1318590Y889609D02*
Y880750D01*
X1318590D02*
X1322681D01*
X1328477Y889609D02*
X1325750Y880750D01*
X1328477Y889609D02*
X1331204Y880750D01*
X1326772Y883703D02*
X1330181D01*
X1336659Y889609D02*
Y880750D01*
X1334272Y889609D02*
X1339045D01*
X1342113D02*
Y880750D01*
Y889609D02*
X1346545D01*
X1342113Y885390D02*
X1344840D01*
X1342113Y880750D02*
X1346545D01*
X1349613Y889609D02*
Y880750D01*
Y889609D02*
X1352000D01*
X1353022Y889187*
X1353022D02*
X1353704Y888343D01*
X1353704D02*
X1354045Y887500D01*
X1354386Y886234*
Y884125*
X1354045Y882859*
X1353704Y882015*
X1353704D02*
X1353022Y881171D01*
X1353022D02*
X1352000Y880750D01*
X1349613*
X1310750Y864609D02*
Y855750D01*
Y864609D02*
X1313818D01*
X1314840Y864187*
X1314840D02*
X1315181Y863765D01*
X1315181D02*
X1315522Y862921D01*
X1315522D02*
Y861656D01*
X1315522D02*
X1315181Y860812D01*
X1315181D02*
X1314840Y860390D01*
X1314840D02*
X1313818Y859968D01*
X1313818D02*
X1310750D01*
X1318590Y864609D02*
Y855750D01*
X1318590D02*
X1322681D01*
X1328477Y864609D02*
X1325750Y855750D01*
X1328477Y864609D02*
X1331204Y855750D01*
X1326772Y858703D02*
X1330181D01*
X1336659Y864609D02*
Y855750D01*
X1334272Y864609D02*
X1339045D01*
X1342113D02*
Y855750D01*
Y864609D02*
X1346545D01*
X1342113Y860390D02*
X1344840D01*
X1342113Y855750D02*
X1346545D01*
X1349613Y864609D02*
Y855750D01*
Y864609D02*
X1352000D01*
X1353022Y864187*
X1353022D02*
X1353704Y863343D01*
X1353704D02*
X1354045Y862500D01*
X1354386Y861234*
Y859125*
X1354045Y857859*
X1353704Y857015*
X1353704D02*
X1353022Y856171D01*
X1353022D02*
X1352000Y855750D01*
X1349613*
X1293250Y839609D02*
Y830750D01*
Y839609D02*
X1298022Y830750D01*
Y839609D02*
Y830750D01*
X1303136Y839609D02*
X1302454Y839187D01*
X1302454D02*
X1301772Y838343D01*
X1301772D02*
X1301431Y837500D01*
X1301431D02*
X1301090Y836234D01*
X1301090D02*
Y834125D01*
X1301090D02*
X1301431Y832859D01*
X1301431D02*
X1301772Y832015D01*
X1301772D02*
X1302454Y831171D01*
X1302454D02*
X1303136Y830750D01*
X1304500*
X1305181Y831171*
X1305181D02*
X1305863Y832015D01*
X1305863D02*
X1306204Y832859D01*
X1306204D02*
X1306545Y834125D01*
Y836234*
X1306204Y837500*
X1306204D02*
X1305863Y838343D01*
X1305863D02*
X1305181Y839187D01*
X1305181D02*
X1304500Y839609D01*
X1303136*
X1309613D02*
Y830750D01*
Y839609D02*
X1314386Y830750D01*
Y839609D02*
Y830750D01*
X1317454Y834546D02*
X1323590D01*
X1326659Y839609D02*
Y830750D01*
Y839609D02*
X1329727D01*
X1330750Y839187*
X1330750D02*
X1331090Y838765D01*
X1331090D02*
X1331431Y837921D01*
X1331431D02*
Y836656D01*
X1331431D02*
X1331090Y835812D01*
X1331090D02*
X1330750Y835390D01*
X1330750D02*
X1329727Y834968D01*
X1329727D02*
X1326659D01*
X1334500Y839609D02*
Y830750D01*
X1338590*
X1344386Y839609D02*
X1341659Y830750D01*
X1344386Y839609D02*
X1347113Y830750D01*
X1342681Y833703D02*
X1346090D01*
X1352568Y839609D02*
Y830750D01*
X1350181Y839609D02*
X1354954D01*
X1358022D02*
Y830750D01*
Y839609D02*
X1362454D01*
X1358022Y835390D02*
X1360750D01*
X1358022Y830750D02*
X1362454D01*
X1365522Y839609D02*
Y830750D01*
Y839609D02*
X1367909D01*
X1368931Y839187*
X1368931D02*
X1369613Y838343D01*
X1369613D02*
X1369954Y837500D01*
X1369954D02*
X1370295Y836234D01*
Y834125*
X1369954Y832859*
X1369954D02*
X1369613Y832015D01*
X1369613D02*
X1368931Y831171D01*
X1368931D02*
X1367909Y830750D01*
X1365522*
X1055977Y839609D02*
X1053250Y830750D01*
X1055977Y839609D02*
X1058704Y830750D01*
X1054272Y833703D02*
X1057681D01*
X1107795Y839609D02*
X1106772Y839187D01*
X1106772D02*
X1106090Y837921D01*
X1106090D02*
X1105750Y835812D01*
X1105750D02*
Y834546D01*
X1105750D02*
X1106090Y832437D01*
X1106090D02*
X1106772Y831171D01*
X1106772D02*
X1107795Y830750D01*
X1108477*
X1109500Y831171*
X1109500D02*
X1110181Y832437D01*
X1110181D02*
X1110522Y834546D01*
X1110522D02*
Y835812D01*
X1110522D02*
X1110181Y837921D01*
X1110181D02*
X1109500Y839187D01*
X1109500D02*
X1108477Y839609D01*
X1107795*
X1113931Y831593D02*
X1113590Y831171D01*
X1113590D02*
X1113931Y830750D01*
X1113931D02*
X1114272Y831171D01*
X1114272D02*
X1113931Y831593D01*
X1119386Y839609D02*
X1118363Y839187D01*
X1118363D02*
X1117681Y837921D01*
X1117681D02*
X1117340Y835812D01*
X1117340D02*
Y834546D01*
X1117340D02*
X1117681Y832437D01*
X1117681D02*
X1118363Y831171D01*
X1118363D02*
X1119386Y830750D01*
X1120068*
X1121090Y831171*
X1121090D02*
X1121772Y832437D01*
X1121772D02*
X1122113Y834546D01*
X1122113D02*
Y835812D01*
X1122113D02*
X1121772Y837921D01*
X1121772D02*
X1121090Y839187D01*
X1121090D02*
X1120068Y839609D01*
X1119386*
X1129613Y836656D02*
X1129272Y835390D01*
X1129272D02*
X1128590Y834546D01*
X1128590D02*
X1127568Y834125D01*
X1127227*
X1126204Y834546*
X1126204D02*
X1125522Y835390D01*
X1125522D02*
X1125181Y836656D01*
X1125181D02*
Y837078D01*
X1125181D02*
X1125522Y838343D01*
X1125522D02*
X1126204Y839187D01*
X1126204D02*
X1127227Y839609D01*
X1127568*
X1128590Y839187*
X1128590D02*
X1129272Y838343D01*
X1129272D02*
X1129613Y836656D01*
X1129613D02*
Y834546D01*
X1129613D02*
X1129272Y832437D01*
X1129272D02*
X1128590Y831171D01*
X1128590D02*
X1127568Y830750D01*
X1126886*
X1125863Y831171*
X1125863D02*
X1125522Y832015D01*
X1136772Y838343D02*
X1136431Y839187D01*
X1136431D02*
X1135409Y839609D01*
X1134727*
X1133704Y839187*
X1133704D02*
X1133022Y837921D01*
X1133022D02*
X1132681Y835812D01*
X1132681D02*
Y833703D01*
X1132681D02*
X1133022Y832015D01*
X1133022D02*
X1133704Y831171D01*
X1133704D02*
X1134727Y830750D01*
X1135068*
X1136090Y831171*
X1136090D02*
X1136772Y832015D01*
X1136772D02*
X1137113Y833281D01*
X1137113D02*
Y833703D01*
X1137113D02*
X1136772Y834968D01*
X1136772D02*
X1136090Y835812D01*
X1136090D02*
X1135068Y836234D01*
X1134727*
X1133704Y835812*
X1133704D02*
X1133022Y834968D01*
X1133022D02*
X1132681Y833703D01*
X1151090Y838343D02*
Y830750D01*
X1148022Y834546D02*
X1154159D01*
X1163363Y841296D02*
X1157227Y827796D01*
X1166431Y834546D02*
X1172568D01*
X1177681Y839609D02*
X1176659Y839187D01*
X1176659D02*
X1175977Y837921D01*
X1175977D02*
X1175636Y835812D01*
X1175636D02*
Y834546D01*
X1175636D02*
X1175977Y832437D01*
X1175977D02*
X1176659Y831171D01*
X1176659D02*
X1177681Y830750D01*
X1177681D02*
X1178363D01*
X1178363D02*
X1179386Y831171D01*
X1179386D02*
X1180068Y832437D01*
X1180068D02*
X1180409Y834546D01*
X1180409D02*
Y835812D01*
X1180409D02*
X1180068Y837921D01*
X1180068D02*
X1179386Y839187D01*
X1179386D02*
X1178363Y839609D01*
X1178363D02*
X1177681D01*
X1183818Y831593D02*
X1183477Y831171D01*
X1183477D02*
X1183818Y830750D01*
X1184159Y831171*
X1184159D02*
X1183818Y831593D01*
X1189272Y839609D02*
X1188250Y839187D01*
X1188250D02*
X1187568Y837921D01*
X1187568D02*
X1187227Y835812D01*
X1187227D02*
Y834546D01*
X1187227D02*
X1187568Y832437D01*
X1187568D02*
X1188250Y831171D01*
X1188250D02*
X1189272Y830750D01*
X1189272D02*
X1189954D01*
X1189954D02*
X1190977Y831171D01*
X1190977D02*
X1191659Y832437D01*
X1191659D02*
X1192000Y834546D01*
X1192000D02*
Y835812D01*
X1192000D02*
X1191659Y837921D01*
X1191659D02*
X1190977Y839187D01*
X1190977D02*
X1189954Y839609D01*
X1189954D02*
X1189272D01*
X1197113D02*
X1196090Y839187D01*
X1196090D02*
X1195409Y837921D01*
X1195409D02*
X1195068Y835812D01*
X1195068D02*
Y834546D01*
X1195068D02*
X1195409Y832437D01*
X1195409D02*
X1196090Y831171D01*
X1196090D02*
X1197113Y830750D01*
X1197113D02*
X1197795D01*
X1198818Y831171*
X1198818D02*
X1199500Y832437D01*
X1199500D02*
X1199840Y834546D01*
X1199840D02*
Y835812D01*
X1199840D02*
X1199500Y837921D01*
X1199500D02*
X1198818Y839187D01*
X1198818D02*
X1197795Y839609D01*
X1197113*
X1203590D02*
X1207340D01*
X1207340D02*
X1205295Y836234D01*
X1206318*
X1207000Y835812*
X1207000D02*
X1207340Y835390D01*
X1207340D02*
X1207681Y834125D01*
X1207681D02*
Y833281D01*
X1207681D02*
X1207340Y832015D01*
X1207340D02*
X1206659Y831171D01*
X1206659D02*
X1205636Y830750D01*
X1204613*
X1204613D02*
X1203590Y831171D01*
X1203590D02*
X1203250Y831593D01*
X1203250D02*
X1202909Y832437D01*
X1107795Y864609D02*
X1106772Y864187D01*
X1106772D02*
X1106090Y862921D01*
X1106090D02*
X1105750Y860812D01*
X1105750D02*
Y859546D01*
X1105750D02*
X1106090Y857437D01*
X1106090D02*
X1106772Y856171D01*
X1106772D02*
X1107795Y855750D01*
X1108477*
X1109500Y856171*
X1109500D02*
X1110181Y857437D01*
X1110181D02*
X1110522Y859546D01*
X1110522D02*
Y860812D01*
X1110522D02*
X1110181Y862921D01*
X1110181D02*
X1109500Y864187D01*
X1109500D02*
X1108477Y864609D01*
X1107795*
X1113931Y856593D02*
X1113590Y856171D01*
X1113590D02*
X1113931Y855750D01*
X1113931D02*
X1114272Y856171D01*
X1114272D02*
X1113931Y856593D01*
X1119386Y864609D02*
X1118363Y864187D01*
X1118363D02*
X1117681Y862921D01*
X1117681D02*
X1117340Y860812D01*
X1117340D02*
Y859546D01*
X1117340D02*
X1117681Y857437D01*
X1117681D02*
X1118363Y856171D01*
X1118363D02*
X1119386Y855750D01*
X1120068*
X1121090Y856171*
X1121090D02*
X1121772Y857437D01*
X1121772D02*
X1122113Y859546D01*
X1122113D02*
Y860812D01*
X1122113D02*
X1121772Y862921D01*
X1121772D02*
X1121090Y864187D01*
X1121090D02*
X1120068Y864609D01*
X1119386*
X1129272Y863343D02*
X1128931Y864187D01*
X1128931D02*
X1127909Y864609D01*
X1127227*
X1126204Y864187*
X1126204D02*
X1125522Y862921D01*
X1125522D02*
X1125181Y860812D01*
X1125181D02*
Y858703D01*
X1125181D02*
X1125522Y857015D01*
X1125522D02*
X1126204Y856171D01*
X1126204D02*
X1127227Y855750D01*
X1127568*
X1128590Y856171*
X1128590D02*
X1129272Y857015D01*
X1129272D02*
X1129613Y858281D01*
X1129613D02*
Y858703D01*
X1129613D02*
X1129272Y859968D01*
X1129272D02*
X1128590Y860812D01*
X1128590D02*
X1127568Y861234D01*
X1127227*
X1126204Y860812*
X1126204D02*
X1125522Y859968D01*
X1125522D02*
X1125181Y858703D01*
X1133363Y864609D02*
X1137113D01*
X1137113D02*
X1135068Y861234D01*
X1136090*
X1136090D02*
X1136772Y860812D01*
X1136772D02*
X1137113Y860390D01*
X1137113D02*
X1137454Y859125D01*
X1137454D02*
Y858281D01*
X1137454D02*
X1137113Y857015D01*
X1137113D02*
X1136431Y856171D01*
X1136431D02*
X1135409Y855750D01*
X1134386*
X1133363Y856171*
X1133363D02*
X1133022Y856593D01*
X1133022D02*
X1132681Y857437D01*
X1151431Y863343D02*
Y855750D01*
X1148363Y859546D02*
X1154500D01*
X1163704Y866296D02*
X1157568Y852796D01*
X1166772Y859546D02*
X1172909D01*
X1178022Y864609D02*
X1177000Y864187D01*
X1177000D02*
X1176318Y862921D01*
X1176318D02*
X1175977Y860812D01*
X1175977D02*
Y859546D01*
X1175977D02*
X1176318Y857437D01*
X1176318D02*
X1177000Y856171D01*
X1177000D02*
X1178022Y855750D01*
X1178022D02*
X1178704D01*
X1178704D02*
X1179727Y856171D01*
X1179727D02*
X1180409Y857437D01*
X1180409D02*
X1180750Y859546D01*
X1180750D02*
Y860812D01*
X1180750D02*
X1180409Y862921D01*
X1180409D02*
X1179727Y864187D01*
X1179727D02*
X1178704Y864609D01*
X1178704D02*
X1178022D01*
X1184159Y856593D02*
X1183818Y856171D01*
X1183818D02*
X1184159Y855750D01*
X1184500Y856171*
X1184500D02*
X1184159Y856593D01*
X1189613Y864609D02*
X1188590Y864187D01*
X1188590D02*
X1187909Y862921D01*
X1187909D02*
X1187568Y860812D01*
X1187568D02*
Y859546D01*
X1187568D02*
X1187909Y857437D01*
X1187909D02*
X1188590Y856171D01*
X1188590D02*
X1189613Y855750D01*
X1189613D02*
X1190295D01*
X1191318Y856171*
X1191318D02*
X1192000Y857437D01*
X1192000D02*
X1192340Y859546D01*
X1192340D02*
Y860812D01*
X1192340D02*
X1192000Y862921D01*
X1192000D02*
X1191318Y864187D01*
X1191318D02*
X1190295Y864609D01*
X1189613*
X1197454D02*
X1196431Y864187D01*
X1196431D02*
X1195750Y862921D01*
X1195750D02*
X1195409Y860812D01*
X1195409D02*
Y859546D01*
X1195409D02*
X1195750Y857437D01*
X1195750D02*
X1196431Y856171D01*
X1196431D02*
X1197454Y855750D01*
X1197454D02*
X1198136D01*
X1199159Y856171*
X1199159D02*
X1199840Y857437D01*
X1199840D02*
X1200181Y859546D01*
X1200181D02*
Y860812D01*
X1200181D02*
X1199840Y862921D01*
X1199840D02*
X1199159Y864187D01*
X1199159D02*
X1198136Y864609D01*
X1197454*
X1203931D02*
X1207681D01*
X1207681D02*
X1205636Y861234D01*
X1206659*
X1207340Y860812*
X1207340D02*
X1207681Y860390D01*
X1207681D02*
X1208022Y859125D01*
X1208022D02*
Y858281D01*
X1208022D02*
X1207681Y857015D01*
X1207681D02*
X1207000Y856171D01*
X1207000D02*
X1205977Y855750D01*
X1204954*
X1204954D02*
X1203931Y856171D01*
X1203931D02*
X1203590Y856593D01*
X1203590D02*
X1203250Y857437D01*
X1107795Y889609D02*
X1106772Y889187D01*
X1106772D02*
X1106090Y887921D01*
X1106090D02*
X1105750Y885812D01*
X1105750D02*
Y884546D01*
X1105750D02*
X1106090Y882437D01*
X1106090D02*
X1106772Y881171D01*
X1106772D02*
X1107795Y880750D01*
X1108477*
X1109500Y881171*
X1109500D02*
X1110181Y882437D01*
X1110181D02*
X1110522Y884546D01*
X1110522D02*
Y885812D01*
X1110522D02*
X1110181Y887921D01*
X1110181D02*
X1109500Y889187D01*
X1109500D02*
X1108477Y889609D01*
X1107795*
X1113931Y881593D02*
X1113590Y881171D01*
X1113590D02*
X1113931Y880750D01*
X1113931D02*
X1114272Y881171D01*
X1114272D02*
X1113931Y881593D01*
X1119386Y889609D02*
X1118363Y889187D01*
X1118363D02*
X1117681Y887921D01*
X1117681D02*
X1117340Y885812D01*
X1117340D02*
Y884546D01*
X1117340D02*
X1117681Y882437D01*
X1117681D02*
X1118363Y881171D01*
X1118363D02*
X1119386Y880750D01*
X1120068*
X1121090Y881171*
X1121090D02*
X1121772Y882437D01*
X1121772D02*
X1122113Y884546D01*
X1122113D02*
Y885812D01*
X1122113D02*
X1121772Y887921D01*
X1121772D02*
X1121090Y889187D01*
X1121090D02*
X1120068Y889609D01*
X1119386*
X1129613D02*
X1126204D01*
X1126204D02*
X1125863Y885812D01*
X1125863D02*
X1126204Y886234D01*
X1126204D02*
X1127227Y886656D01*
X1128250*
X1129272Y886234*
X1129272D02*
X1129954Y885390D01*
X1129954D02*
X1130295Y884125D01*
X1129954Y883281*
X1129954D02*
X1129613Y882015D01*
X1129613D02*
X1128931Y881171D01*
X1128931D02*
X1127909Y880750D01*
X1126886*
X1125863Y881171*
X1125863D02*
X1125522Y881593D01*
X1125522D02*
X1125181Y882437D01*
X1137795Y886656D02*
X1137454Y885390D01*
X1137454D02*
X1136772Y884546D01*
X1136772D02*
X1135750Y884125D01*
X1135409*
X1134386Y884546*
X1134386D02*
X1133704Y885390D01*
X1133704D02*
X1133363Y886656D01*
X1133363D02*
Y887078D01*
X1133363D02*
X1133704Y888343D01*
X1133704D02*
X1134386Y889187D01*
X1134386D02*
X1135409Y889609D01*
X1135750*
X1136772Y889187*
X1136772D02*
X1137454Y888343D01*
X1137454D02*
X1137795Y886656D01*
Y884546*
X1137795D02*
X1137454Y882437D01*
X1137454D02*
X1136772Y881171D01*
X1136772D02*
X1135750Y880750D01*
X1135068*
X1134045Y881171*
X1134045D02*
X1133704Y882015D01*
X1151772Y888343D02*
Y880750D01*
X1148704Y884546D02*
X1154840D01*
X1164045Y891296D02*
X1157909Y877796D01*
X1167113Y884546D02*
X1173250D01*
X1178363Y889609D02*
X1177340Y889187D01*
X1177340D02*
X1176659Y887921D01*
X1176659D02*
X1176318Y885812D01*
X1176318D02*
Y884546D01*
X1176318D02*
X1176659Y882437D01*
X1176659D02*
X1177340Y881171D01*
X1177340D02*
X1178363Y880750D01*
X1178363D02*
X1179045D01*
X1180068Y881171*
X1180068D02*
X1180750Y882437D01*
X1180750D02*
X1181090Y884546D01*
X1181090D02*
Y885812D01*
X1181090D02*
X1180750Y887921D01*
X1180750D02*
X1180068Y889187D01*
X1180068D02*
X1179045Y889609D01*
X1178363*
X1184500Y881593D02*
X1184159Y881171D01*
X1184159D02*
X1184500Y880750D01*
X1184840Y881171*
X1184840D02*
X1184500Y881593D01*
X1189954Y889609D02*
X1188931Y889187D01*
X1188931D02*
X1188250Y887921D01*
X1188250D02*
X1187909Y885812D01*
X1187909D02*
Y884546D01*
X1187909D02*
X1188250Y882437D01*
X1188250D02*
X1188931Y881171D01*
X1188931D02*
X1189954Y880750D01*
X1189954D02*
X1190636D01*
X1191659Y881171*
X1191659D02*
X1192340Y882437D01*
X1192340D02*
X1192681Y884546D01*
X1192681D02*
Y885812D01*
X1192681D02*
X1192340Y887921D01*
X1192340D02*
X1191659Y889187D01*
X1191659D02*
X1190636Y889609D01*
X1189954*
X1197795D02*
X1196772Y889187D01*
X1196772D02*
X1196090Y887921D01*
X1196090D02*
X1195750Y885812D01*
X1195750D02*
Y884546D01*
X1195750D02*
X1196090Y882437D01*
X1196090D02*
X1196772Y881171D01*
X1196772D02*
X1197795Y880750D01*
X1198477*
X1199500Y881171*
X1199500D02*
X1200181Y882437D01*
X1200181D02*
X1200522Y884546D01*
X1200522D02*
Y885812D01*
X1200522D02*
X1200181Y887921D01*
X1200181D02*
X1199500Y889187D01*
X1199500D02*
X1198477Y889609D01*
X1197795*
X1204272D02*
X1208022D01*
X1208022D02*
X1205977Y886234D01*
X1207000*
X1207681Y885812*
X1207681D02*
X1208022Y885390D01*
X1208022D02*
X1208363Y884125D01*
X1208363D02*
Y883281D01*
X1208363D02*
X1208022Y882015D01*
X1208022D02*
X1207340Y881171D01*
X1207340D02*
X1206318Y880750D01*
X1205295*
X1204272Y881171*
X1204272D02*
X1203931Y881593D01*
X1203931D02*
X1203590Y882437D01*
X1107795Y914609D02*
X1106772Y914187D01*
X1106772D02*
X1106090Y912921D01*
X1106090D02*
X1105750Y910812D01*
X1105750D02*
Y909546D01*
X1105750D02*
X1106090Y907437D01*
X1106090D02*
X1106772Y906171D01*
X1106772D02*
X1107795Y905750D01*
X1108477*
X1109500Y906171*
X1109500D02*
X1110181Y907437D01*
X1110181D02*
X1110522Y909546D01*
X1110522D02*
Y910812D01*
X1110522D02*
X1110181Y912921D01*
X1110181D02*
X1109500Y914187D01*
X1109500D02*
X1108477Y914609D01*
X1107795*
X1113931Y906593D02*
X1113590Y906171D01*
X1113590D02*
X1113931Y905750D01*
X1113931D02*
X1114272Y906171D01*
X1114272D02*
X1113931Y906593D01*
X1119386Y914609D02*
X1118363Y914187D01*
X1118363D02*
X1117681Y912921D01*
X1117681D02*
X1117340Y910812D01*
X1117340D02*
Y909546D01*
X1117340D02*
X1117681Y907437D01*
X1117681D02*
X1118363Y906171D01*
X1118363D02*
X1119386Y905750D01*
X1120068*
X1121090Y906171*
X1121090D02*
X1121772Y907437D01*
X1121772D02*
X1122113Y909546D01*
X1122113D02*
Y910812D01*
X1122113D02*
X1121772Y912921D01*
X1121772D02*
X1121090Y914187D01*
X1121090D02*
X1120068Y914609D01*
X1119386*
X1125863D02*
X1129613D01*
X1129613D02*
X1127568Y911234D01*
X1128590*
X1128590D02*
X1129272Y910812D01*
X1129272D02*
X1129613Y910390D01*
X1129613D02*
X1129954Y909125D01*
X1129954D02*
Y908281D01*
X1129954D02*
X1129613Y907015D01*
X1129613D02*
X1128931Y906171D01*
X1128931D02*
X1127909Y905750D01*
X1126886*
X1125863Y906171*
X1125863D02*
X1125522Y906593D01*
X1125522D02*
X1125181Y907437D01*
X1133704Y914609D02*
X1137454D01*
X1137454D02*
X1135409Y911234D01*
X1136431*
X1136431D02*
X1137113Y910812D01*
X1137113D02*
X1137454Y910390D01*
X1137454D02*
X1137795Y909125D01*
Y908281*
X1137454Y907015*
X1137454D02*
X1136772Y906171D01*
X1136772D02*
X1135750Y905750D01*
X1134727*
X1133704Y906171*
X1133704D02*
X1133363Y906593D01*
X1133363D02*
X1133022Y907437D01*
X1151772Y913343D02*
Y905750D01*
X1148704Y909546D02*
X1154840D01*
X1164045Y916296D02*
X1157909Y902796D01*
X1167113Y909546D02*
X1173250D01*
X1178363Y914609D02*
X1177340Y914187D01*
X1177340D02*
X1176659Y912921D01*
X1176659D02*
X1176318Y910812D01*
X1176318D02*
Y909546D01*
X1176318D02*
X1176659Y907437D01*
X1176659D02*
X1177340Y906171D01*
X1177340D02*
X1178363Y905750D01*
X1178363D02*
X1179045D01*
X1180068Y906171*
X1180068D02*
X1180750Y907437D01*
X1180750D02*
X1181090Y909546D01*
X1181090D02*
Y910812D01*
X1181090D02*
X1180750Y912921D01*
X1180750D02*
X1180068Y914187D01*
X1180068D02*
X1179045Y914609D01*
X1178363*
X1184500Y906593D02*
X1184159Y906171D01*
X1184159D02*
X1184500Y905750D01*
X1184840Y906171*
X1184840D02*
X1184500Y906593D01*
X1189954Y914609D02*
X1188931Y914187D01*
X1188931D02*
X1188250Y912921D01*
X1188250D02*
X1187909Y910812D01*
X1187909D02*
Y909546D01*
X1187909D02*
X1188250Y907437D01*
X1188250D02*
X1188931Y906171D01*
X1188931D02*
X1189954Y905750D01*
X1189954D02*
X1190636D01*
X1191659Y906171*
X1191659D02*
X1192340Y907437D01*
X1192340D02*
X1192681Y909546D01*
X1192681D02*
Y910812D01*
X1192681D02*
X1192340Y912921D01*
X1192340D02*
X1191659Y914187D01*
X1191659D02*
X1190636Y914609D01*
X1189954*
X1197795D02*
X1196772Y914187D01*
X1196772D02*
X1196090Y912921D01*
X1196090D02*
X1195750Y910812D01*
X1195750D02*
Y909546D01*
X1195750D02*
X1196090Y907437D01*
X1196090D02*
X1196772Y906171D01*
X1196772D02*
X1197795Y905750D01*
X1198477*
X1199500Y906171*
X1199500D02*
X1200181Y907437D01*
X1200181D02*
X1200522Y909546D01*
X1200522D02*
Y910812D01*
X1200522D02*
X1200181Y912921D01*
X1200181D02*
X1199500Y914187D01*
X1199500D02*
X1198477Y914609D01*
X1197795*
X1204272D02*
X1208022D01*
X1208022D02*
X1205977Y911234D01*
X1207000*
X1207681Y910812*
X1207681D02*
X1208022Y910390D01*
X1208022D02*
X1208363Y909125D01*
X1208363D02*
Y908281D01*
X1208363D02*
X1208022Y907015D01*
X1208022D02*
X1207340Y906171D01*
X1207340D02*
X1206318Y905750D01*
X1205295*
X1204272Y906171*
X1204272D02*
X1203931Y906593D01*
X1203931D02*
X1203590Y907437D01*
X1160000Y970921D02*
Y960750D01*
Y970921D02*
X1162704D01*
X1162704D02*
X1163863Y970437D01*
X1163863D02*
X1164636Y969468D01*
X1164636D02*
X1165022Y968500D01*
X1165022D02*
X1165409Y967046D01*
X1165409D02*
Y964625D01*
X1165022Y963171*
X1165022D02*
X1164636Y962203D01*
X1163863Y961234*
X1163863D02*
X1162704Y960750D01*
X1162704D02*
X1160000D01*
X1168886Y970921D02*
Y960750D01*
Y970921D02*
X1172363D01*
X1172363D02*
X1173522Y970437D01*
X1173522D02*
X1173909Y969953D01*
X1174295Y968984*
Y968015*
X1174295D02*
X1173909Y967046D01*
X1173909D02*
X1173522Y966562D01*
X1173522D02*
X1172363Y966078D01*
X1172363D02*
X1168886D01*
X1171590D02*
X1174295Y960750D01*
X1177772Y970921D02*
Y960750D01*
X1181250Y970921D02*
Y960750D01*
X1185886*
X1189363Y970921D02*
Y960750D01*
X1189363D02*
X1194000D01*
X1212159Y968500D02*
X1211772Y969468D01*
X1211772D02*
X1211000Y970437D01*
X1211000D02*
X1210227Y970921D01*
X1210227D02*
X1208681D01*
X1208681D02*
X1207909Y970437D01*
X1207909D02*
X1207136Y969468D01*
X1207136D02*
X1206750Y968500D01*
X1206363Y967046*
X1206363D02*
Y964625D01*
X1206363D02*
X1206750Y963171D01*
X1206750D02*
X1207136Y962203D01*
X1207909Y961234*
X1208681Y960750*
X1208681D02*
X1210227D01*
X1211000Y961234*
X1211772Y962203*
X1211772D02*
X1212159Y963171D01*
X1215636Y970921D02*
Y960750D01*
X1221045Y970921D02*
Y960750D01*
X1215636Y966078D02*
X1221045D01*
X1227613Y970921D02*
X1224522Y960750D01*
X1227613Y970921D02*
X1230704Y960750D01*
X1225681Y964140D02*
X1229545D01*
X1234181Y970921D02*
Y960750D01*
Y970921D02*
X1237659D01*
X1237659D02*
X1238818Y970437D01*
X1238818D02*
X1239204Y969953D01*
X1239204D02*
X1239590Y968984D01*
X1239590D02*
Y968015D01*
X1239590D02*
X1239204Y967046D01*
X1239204D02*
X1238818Y966562D01*
X1238818D02*
X1237659Y966078D01*
X1234181*
X1236886D02*
X1239590Y960750D01*
X1245772Y970921D02*
Y960750D01*
X1243068Y970921D02*
X1248477D01*
X1152590Y941406D02*
X1151863Y942312D01*
X1151863D02*
X1150772Y942765D01*
X1150772D02*
X1149318D01*
X1149318D02*
X1148227Y942312D01*
X1148227D02*
X1147500Y941406D01*
Y940500*
X1147863Y939593*
X1147863D02*
X1148227Y939140D01*
X1148227D02*
X1148954Y938687D01*
X1148954D02*
X1151136Y937781D01*
X1151863Y937328*
X1151863D02*
X1152227Y936875D01*
X1152590Y935968*
X1152590D02*
Y934609D01*
X1152590D02*
X1151863Y933703D01*
X1151863D02*
X1150772Y933250D01*
X1150772D02*
X1149318D01*
X1148227Y933703*
X1147500Y934609*
X1155863Y942765D02*
Y933250D01*
X1164227Y942765D02*
X1159136Y933250D01*
Y942765D02*
X1164227D01*
X1159136Y933250D02*
X1164227D01*
X1167500Y942765D02*
Y933250D01*
Y942765D02*
X1172227D01*
X1167500Y938234D02*
X1170409D01*
X1167500Y933250D02*
X1172227D01*
X1295000Y942765D02*
Y933250D01*
Y942765D02*
X1298272D01*
X1298272D02*
X1299363Y942312D01*
X1299363D02*
X1299727Y941859D01*
X1300090Y940953*
X1300090D02*
Y939593D01*
X1300090D02*
X1299727Y938687D01*
X1299727D02*
X1299363Y938234D01*
X1299363D02*
X1298272Y937781D01*
X1298272D02*
X1295000D01*
X1303363Y942765D02*
Y933250D01*
X1303363D02*
X1307727D01*
X1313909Y942765D02*
X1311000Y933250D01*
X1313909Y942765D02*
X1316818Y933250D01*
X1312090Y936421D02*
X1315727D01*
X1322636Y942765D02*
Y933250D01*
X1320090Y942765D02*
X1325181D01*
X1328454D02*
Y933250D01*
Y942765D02*
X1333181D01*
X1328454Y938234D02*
X1331363D01*
X1328454Y933250D02*
X1333181D01*
X1336454Y942765D02*
Y933250D01*
Y942765D02*
X1339000D01*
X1339000D02*
X1340090Y942312D01*
X1340090D02*
X1340818Y941406D01*
X1341181Y940500*
X1341181D02*
X1341545Y939140D01*
X1341545D02*
Y936875D01*
X1341181Y935515*
X1341181D02*
X1340818Y934609D01*
X1340090Y933703*
X1340090D02*
X1339000Y933250D01*
X1336454*
X1355727Y942765D02*
Y933250D01*
X1353181Y942765D02*
X1358272D01*
X1361545D02*
X1364454Y938234D01*
X1364454D02*
Y933250D01*
X1367363Y942765D02*
X1364454Y938234D01*
X1370636Y942765D02*
Y933250D01*
Y942765D02*
X1373909D01*
X1373909D02*
X1375000Y942312D01*
X1375000D02*
X1375363Y941859D01*
X1375363D02*
X1375727Y940953D01*
Y939593*
X1375727D02*
X1375363Y938687D01*
X1375363D02*
X1375000Y938234D01*
X1373909Y937781*
X1370636*
X1379000Y942765D02*
Y933250D01*
Y942765D02*
X1383727D01*
X1379000Y938234D02*
X1381909D01*
X1379000Y933250D02*
X1383727D01*
X1247181Y942765D02*
X1246454Y942312D01*
X1246454D02*
X1245727Y941406D01*
X1245363Y940500*
X1245363D02*
X1245000Y939140D01*
X1245000D02*
Y936875D01*
X1245363Y935515*
X1245363D02*
X1245727Y934609D01*
X1246454Y933703*
X1246454D02*
X1247181Y933250D01*
X1247181D02*
X1248636D01*
X1249363Y933703*
X1249363D02*
X1250090Y934609D01*
X1250090D02*
X1250454Y935515D01*
X1250454D02*
X1250818Y936875D01*
Y939140*
X1250818D02*
X1250454Y940500D01*
X1250454D02*
X1250090Y941406D01*
X1250090D02*
X1249363Y942312D01*
X1249363D02*
X1248636Y942765D01*
X1248636D02*
X1247181D01*
X1248272Y935062D02*
X1250454Y932343D01*
X1256636Y942765D02*
Y933250D01*
X1254090Y942765D02*
X1259181D01*
X1262454D02*
X1265363Y938234D01*
X1265363D02*
Y933250D01*
X1268272Y942765D02*
X1265363Y938234D01*
G54D55*
X800000Y800000D02*
X800002D01*
X797500Y1000000D02*
X797502D01*
X800000Y1002500D02*
X800002D01*
X900000D02*
X900002D01*
X812500Y810000D02*
X812502D01*
X800000Y800000D02*
X800002D01*
X800000D02*
X800002D01*
X810000Y812500D02*
X810002D01*
G74*
X0Y0D02*
M02*
