M48
%
T1C.033
X02119Y04343
X02343Y04119
X02658Y04119
X02881Y04343
X02881Y04658
X02119Y04658
X02343Y04881
X02658Y04881
T2C.059
X0216Y0584
X0284Y0584
T3C.063
X0206Y0574
X0226Y0574
X0274Y0574
X0294Y0574
X0294Y0594
X0274Y0594
X0226Y0594
X0206Y0594
T4C.096
X02125Y04125
X02875Y04125
X02875Y05125
X02125Y05125
X025Y055
M30
