*
*
G04 PADS Layout (Build Number 2005.103.1) generated Gerber (RS-274-X) file*
G04 PC Version=2.1*
*
%IN "7746.pcb"*%
*
%MOIN*%
*
%FSLAX35Y35*%
*
*
*
*
G04 PC Standard Apertures*
*
*
G04 Thermal Relief Aperture macro.*
%AMTER*
1,1,$1,0,0*
1,0,$1-$2,0,0*
21,0,$3,$4,0,0,45*
21,0,$3,$4,0,0,135*
%
*
*
G04 Annular Aperture macro.*
%AMANN*
1,1,$1,0,0*
1,0,$2,0,0*
%
*
*
G04 Odd Aperture macro.*
%AMODD*
1,1,$1,0,0*
1,0,$1-0.005,0,0*
%
*
*
G04 PC Custom Aperture Macros*
*
*
*
*
*
*
G04 PC Aperture Table*
*
%ADD011C,0.1*%
%ADD015C,0.06*%
%ADD052C,0.01*%
%ADD053C,0.02*%
%ADD058C,0.025*%
*
*
*
*
G04 PC Custom Flashes*
G04 Layer Name 7746.pcb - flashes*
%LPD*%
*
*
G04 PC Circuitry*
G04 Layer Name 7746.pcb - circuitry*
%LPD*%
*
G54D11*
G01X816000Y984000D03*
X806000Y974000D03*
Y994000D03*
X826000D03*
Y974000D03*
X884000Y984000D03*
X874000Y974000D03*
Y994000D03*
X894000D03*
Y974000D03*
G54D15*
X812500Y812500D03*
X887500D03*
Y912500D03*
X812500D03*
X850000Y950000D03*
X834300Y811900D03*
Y888100D03*
X865800Y811900D03*
Y888100D03*
X888100Y834300D03*
Y865800D03*
X811900Y834300D03*
Y865800D03*
G54D52*
X800000Y800000D02*
X900000D01*
Y1000000*
X800000*
Y800000*
X881250Y850000D02*
G75*
G03X881250I-31250J0D01*
G54D53*
G01X909000Y792812D02*
Y781000D01*
Y792812D02*
X904909D01*
X904909D02*
X903545Y792250D01*
X903090Y791687*
X903090D02*
X902636Y790562D01*
X902636D02*
Y789437D01*
X902636D02*
X903090Y788312D01*
X903090D02*
X903545Y787750D01*
X904909Y787187*
X909000D02*
X904909D01*
X904909D02*
X903545Y786625D01*
X903090Y786062*
X903090D02*
X902636Y784937D01*
X902636D02*
Y783250D01*
X903090Y782125*
X903090D02*
X903545Y781562D01*
X903545D02*
X904909Y781000D01*
X909000*
X895818Y792812D02*
X896727Y792250D01*
X897636Y791125*
X898090Y790000*
X898090D02*
X898545Y788312D01*
X898545D02*
Y785500D01*
X898090Y783812*
X898090D02*
X897636Y782687D01*
X897636D02*
X896727Y781562D01*
X896727D02*
X895818Y781000D01*
X894000*
X893090Y781562*
X893090D02*
X892181Y782687D01*
X892181D02*
X891727Y783812D01*
X891727D02*
X891272Y785500D01*
X891272D02*
Y788312D01*
X891272D02*
X891727Y790000D01*
X892181Y791125*
X892181D02*
X893090Y792250D01*
X893090D02*
X894000Y792812D01*
X894000D02*
X895818D01*
X884000D02*
Y781000D01*
X887181Y792812D02*
X880818D01*
X873545D02*
Y781000D01*
X876727Y792812D02*
X870363D01*
X863545D02*
X864454Y792250D01*
X864454D02*
X865363Y791125D01*
X865363D02*
X865818Y790000D01*
X866272Y788312*
X866272D02*
Y785500D01*
X866272D02*
X865818Y783812D01*
X865818D02*
X865363Y782687D01*
X865363D02*
X864454Y781562D01*
X864454D02*
X863545Y781000D01*
X861727*
X860818Y781562*
X860818D02*
X859909Y782687D01*
X859909D02*
X859454Y783812D01*
X859454D02*
X859000Y785500D01*
Y788312*
X859000D02*
X859454Y790000D01*
X859454D02*
X859909Y791125D01*
X860818Y792250*
X861727Y792812*
X861727D02*
X863545D01*
X854909D02*
Y781000D01*
Y792812D02*
X851272Y781000D01*
X847636Y792812D02*
X851272Y781000D01*
X847636Y792812D02*
Y781000D01*
X826727Y791125D02*
X827636Y792250D01*
X829000Y792812*
X829000D02*
X830818D01*
X830818D02*
X832181Y792250D01*
X832181D02*
X833090Y791125D01*
X833090D02*
Y790000D01*
X833090D02*
X832636Y788875D01*
X832181Y788312*
X832181D02*
X831272Y787750D01*
X831272D02*
X828545Y786625D01*
X827636Y786062*
X827636D02*
X827181Y785500D01*
X827181D02*
X826727Y784375D01*
Y782687*
X826727D02*
X827636Y781562D01*
X827636D02*
X829000Y781000D01*
X830818*
X832181Y781562*
X832181D02*
X833090Y782687D01*
X822636Y792812D02*
Y781000D01*
X818545Y792812D02*
Y781000D01*
Y792812D02*
X815363D01*
X815363D02*
X814000Y792250D01*
X813090Y791125*
X813090D02*
X812636Y790000D01*
X812181Y788312*
X812181D02*
Y785500D01*
X812181D02*
X812636Y783812D01*
X812636D02*
X813090Y782687D01*
X813090D02*
X814000Y781562D01*
X814000D02*
X815363Y781000D01*
X815363D02*
X818545D01*
X808090Y792812D02*
Y781000D01*
Y792812D02*
X802181D01*
X808090Y787187D02*
X804454D01*
X808090Y781000D02*
X802181D01*
X831909Y767812D02*
X836909D01*
X836909D02*
X834181Y763312D01*
X834181D02*
X835545D01*
X835545D02*
X836454Y762750D01*
X836454D02*
X836909Y762187D01*
X836909D02*
X837363Y760500D01*
X837363D02*
Y759375D01*
X837363D02*
X836909Y757687D01*
X836909D02*
X836000Y756562D01*
X836000D02*
X834636Y756000D01*
X833272*
X833272D02*
X831909Y756562D01*
X831909D02*
X831454Y757125D01*
X831454D02*
X831000Y758250D01*
X841454Y765562D02*
X842363Y766125D01*
X842363D02*
X843727Y767812D01*
X843727D02*
Y756000D01*
X847818Y761062D02*
X856000D01*
X862818Y767812D02*
X861454Y767250D01*
X861454D02*
X860545Y765562D01*
X860545D02*
X860090Y762750D01*
X860090D02*
Y761062D01*
X860090D02*
X860545Y758250D01*
X861454Y756562*
X861454D02*
X862818Y756000D01*
X863727*
X865090Y756562*
X865090D02*
X866000Y758250D01*
X866454Y761062*
X866454D02*
Y762750D01*
X866454D02*
X866000Y765562D01*
X866000D02*
X865090Y767250D01*
X865090D02*
X863727Y767812D01*
X863727D02*
X862818D01*
X873272D02*
X871909Y767250D01*
X871000Y765562*
X871000D02*
X870545Y762750D01*
Y761062*
X870545D02*
X871000Y758250D01*
X871909Y756562*
X871909D02*
X873272Y756000D01*
X873272D02*
X874181D01*
X874181D02*
X875545Y756562D01*
X875545D02*
X876454Y758250D01*
X876454D02*
X876909Y761062D01*
X876909D02*
Y762750D01*
X876454Y765562*
X876454D02*
X875545Y767250D01*
X874181Y767812*
X874181D02*
X873272D01*
X883727D02*
X882363Y767250D01*
X882363D02*
X881454Y765562D01*
X881454D02*
X881000Y762750D01*
Y761062*
X881000D02*
X881454Y758250D01*
X881454D02*
X882363Y756562D01*
X882363D02*
X883727Y756000D01*
X884636*
X886000Y756562*
X886000D02*
X886909Y758250D01*
X887363Y761062*
X887363D02*
Y762750D01*
X887363D02*
X886909Y765562D01*
X886909D02*
X886000Y767250D01*
X884636Y767812*
X884636D02*
X883727D01*
X891454Y765562D02*
X892363Y766125D01*
X892363D02*
X893727Y767812D01*
X893727D02*
Y756000D01*
X908272Y767812D02*
Y756000D01*
Y767812D02*
X912363D01*
X912363D02*
X913727Y767250D01*
X914181Y766687*
X914181D02*
X914636Y765562D01*
X914636D02*
Y764437D01*
X914636D02*
X914181Y763312D01*
X914181D02*
X913727Y762750D01*
X912363Y762187*
X912363D02*
X908272D01*
X911454D02*
X914636Y756000D01*
X918727Y767812D02*
Y756000D01*
Y767812D02*
X924636D01*
X918727Y762187D02*
X922363D01*
X918727Y756000D02*
X924636D01*
X928727Y767812D02*
X932363Y756000D01*
X936000Y767812D02*
X932363Y756000D01*
X950545Y765562D02*
X951454Y766125D01*
X951454D02*
X952818Y767812D01*
X952818D02*
Y756000D01*
G54D58*
X865800Y888100D02*
Y928000D01*
X874000Y936200*
Y974000*
X826000D02*
Y935800D01*
X834300Y927500*
Y888100*
X826000Y994000D02*
Y974000D01*
X806000D02*
Y994000D01*
X826000*
X806000Y974000D02*
X826000D01*
X894000D02*
Y994000D01*
X874000*
X894000Y974000D02*
X874000D01*
Y994000*
G74*
X0Y0D02*
M02*
