*
*
G04 PADS Layout (Build Number 2005.103.1) generated Gerber (RS-274-X) file*
G04 PC Version=2.1*
*
%IN "7746.pcb"*%
*
%MOIN*%
*
%FSLAX35Y35*%
*
*
*
*
G04 PC Standard Apertures*
*
*
G04 Thermal Relief Aperture macro.*
%AMTER*
1,1,$1,0,0*
1,0,$1-$2,0,0*
21,0,$3,$4,0,0,45*
21,0,$3,$4,0,0,135*
%
*
*
G04 Annular Aperture macro.*
%AMANN*
1,1,$1,0,0*
1,0,$2,0,0*
%
*
*
G04 Odd Aperture macro.*
%AMODD*
1,1,$1,0,0*
1,0,$1-0.005,0,0*
%
*
*
G04 PC Custom Aperture Macros*
*
*
*
*
*
*
G04 PC Aperture Table*
*
%ADD014C,0.065*%
%ADD029C,0.11*%
%ADD039C,0.105*%
%ADD052C,0.01*%
%ADD053C,0.02*%
*
*
*
*
G04 PC Custom Flashes*
G04 Layer Name 7746.pcb - flashes*
%LPD*%
*
*
G04 PC Circuitry*
G04 Layer Name 7746.pcb - circuitry*
%LPD*%
*
G54D14*
G01X834300Y811900D03*
Y888100D03*
X865800Y811900D03*
Y888100D03*
X888100Y834300D03*
Y865800D03*
X811900Y834300D03*
Y865800D03*
G54D29*
X816000Y984000D03*
X806000Y974000D03*
Y994000D03*
X826000D03*
Y974000D03*
X884000Y984000D03*
X874000Y974000D03*
Y994000D03*
X894000D03*
Y974000D03*
G54D39*
X812500Y812500D03*
X887500D03*
Y912500D03*
X812500D03*
X850000Y950000D03*
G54D52*
X800000Y800000D02*
X900000D01*
Y1000000*
X800000*
Y800000*
X881250Y850000D02*
G75*
G03X881250I-31250J0D01*
G54D53*
G01X831909Y767812D02*
X836909D01*
X836909D02*
X834181Y763312D01*
X834181D02*
X835545D01*
X835545D02*
X836454Y762750D01*
X836454D02*
X836909Y762187D01*
X836909D02*
X837363Y760500D01*
X837363D02*
Y759375D01*
X837363D02*
X836909Y757687D01*
X836909D02*
X836000Y756562D01*
X836000D02*
X834636Y756000D01*
X833272*
X833272D02*
X831909Y756562D01*
X831909D02*
X831454Y757125D01*
X831454D02*
X831000Y758250D01*
X841454Y765562D02*
X842363Y766125D01*
X842363D02*
X843727Y767812D01*
X843727D02*
Y756000D01*
X847818Y761062D02*
X856000D01*
X862818Y767812D02*
X861454Y767250D01*
X861454D02*
X860545Y765562D01*
X860545D02*
X860090Y762750D01*
X860090D02*
Y761062D01*
X860090D02*
X860545Y758250D01*
X861454Y756562*
X861454D02*
X862818Y756000D01*
X863727*
X865090Y756562*
X865090D02*
X866000Y758250D01*
X866454Y761062*
X866454D02*
Y762750D01*
X866454D02*
X866000Y765562D01*
X866000D02*
X865090Y767250D01*
X865090D02*
X863727Y767812D01*
X863727D02*
X862818D01*
X873272D02*
X871909Y767250D01*
X871000Y765562*
X871000D02*
X870545Y762750D01*
Y761062*
X870545D02*
X871000Y758250D01*
X871909Y756562*
X871909D02*
X873272Y756000D01*
X873272D02*
X874181D01*
X874181D02*
X875545Y756562D01*
X875545D02*
X876454Y758250D01*
X876454D02*
X876909Y761062D01*
X876909D02*
Y762750D01*
X876454Y765562*
X876454D02*
X875545Y767250D01*
X874181Y767812*
X874181D02*
X873272D01*
X883727D02*
X882363Y767250D01*
X882363D02*
X881454Y765562D01*
X881454D02*
X881000Y762750D01*
Y761062*
X881000D02*
X881454Y758250D01*
X881454D02*
X882363Y756562D01*
X882363D02*
X883727Y756000D01*
X884636*
X886000Y756562*
X886000D02*
X886909Y758250D01*
X887363Y761062*
X887363D02*
Y762750D01*
X887363D02*
X886909Y765562D01*
X886909D02*
X886000Y767250D01*
X884636Y767812*
X884636D02*
X883727D01*
X891454Y765562D02*
X892363Y766125D01*
X892363D02*
X893727Y767812D01*
X893727D02*
Y756000D01*
X908272Y767812D02*
Y756000D01*
Y767812D02*
X912363D01*
X912363D02*
X913727Y767250D01*
X914181Y766687*
X914181D02*
X914636Y765562D01*
X914636D02*
Y764437D01*
X914636D02*
X914181Y763312D01*
X914181D02*
X913727Y762750D01*
X912363Y762187*
X912363D02*
X908272D01*
X911454D02*
X914636Y756000D01*
X918727Y767812D02*
Y756000D01*
Y767812D02*
X924636D01*
X918727Y762187D02*
X922363D01*
X918727Y756000D02*
X924636D01*
X928727Y767812D02*
X932363Y756000D01*
X936000Y767812D02*
X932363Y756000D01*
X950545Y765562D02*
X951454Y766125D01*
X951454D02*
X952818Y767812D01*
X952818D02*
Y756000D01*
X957636Y791125D02*
X958545Y792250D01*
X959909Y792812*
X959909D02*
X961727D01*
X961727D02*
X963090Y792250D01*
X963090D02*
X964000Y791125D01*
Y790000*
X963545Y788875*
X963090Y788312*
X963090D02*
X962181Y787750D01*
X962181D02*
X959454Y786625D01*
X959454D02*
X958545Y786062D01*
X958545D02*
X958090Y785500D01*
X958090D02*
X957636Y784375D01*
Y782687*
X957636D02*
X958545Y781562D01*
X958545D02*
X959909Y781000D01*
X961727*
X963090Y781562*
X963090D02*
X964000Y782687D01*
X950818Y792812D02*
X951727Y792250D01*
X952636Y791125*
X953090Y790000*
X953090D02*
X953545Y788312D01*
X953545D02*
Y785500D01*
X953090Y783812*
X953090D02*
X952636Y782687D01*
X952636D02*
X951727Y781562D01*
X951727D02*
X950818Y781000D01*
X949000*
X948090Y781562*
X948090D02*
X947181Y782687D01*
X947181D02*
X946727Y783812D01*
X946727D02*
X946272Y785500D01*
X946272D02*
Y788312D01*
X946272D02*
X946727Y790000D01*
X947181Y791125*
X947181D02*
X948090Y792250D01*
X948090D02*
X949000Y792812D01*
X949000D02*
X950818D01*
X942181D02*
Y781000D01*
X942181D02*
X936727D01*
X932636Y792812D02*
Y781000D01*
Y792812D02*
X929454D01*
X929454D02*
X928090Y792250D01*
X928090D02*
X927181Y791125D01*
X927181D02*
X926727Y790000D01*
X926272Y788312*
X926272D02*
Y785500D01*
X926272D02*
X926727Y783812D01*
X926727D02*
X927181Y782687D01*
X927181D02*
X928090Y781562D01*
X928090D02*
X929454Y781000D01*
X929454D02*
X932636D01*
X922181Y792812D02*
Y781000D01*
Y792812D02*
X916272D01*
X922181Y787187D02*
X918545D01*
X922181Y781000D02*
X916272D01*
X912181Y792812D02*
Y781000D01*
Y792812D02*
X908090D01*
X908090D02*
X906727Y792250D01*
X906272Y791687*
X906272D02*
X905818Y790562D01*
X905818D02*
Y789437D01*
X905818D02*
X906272Y788312D01*
X906272D02*
X906727Y787750D01*
X908090Y787187*
X908090D02*
X912181D01*
X909000D02*
X905818Y781000D01*
X901727Y792812D02*
Y781000D01*
Y792812D02*
X898090Y781000D01*
X894454Y792812D02*
X898090Y781000D01*
X894454Y792812D02*
Y781000D01*
X886727Y792812D02*
X890363Y781000D01*
X886727Y792812D02*
X883090Y781000D01*
X889000Y784937D02*
X884454D01*
X872636Y791125D02*
X873545Y792250D01*
X874909Y792812*
X874909D02*
X876727D01*
X876727D02*
X878090Y792250D01*
X878090D02*
X879000Y791125D01*
Y790000*
X878545Y788875*
X878090Y788312*
X878090D02*
X877181Y787750D01*
X877181D02*
X874454Y786625D01*
X874454D02*
X873545Y786062D01*
X873545D02*
X873090Y785500D01*
X873090D02*
X872636Y784375D01*
Y782687*
X872636D02*
X873545Y781562D01*
X873545D02*
X874909Y781000D01*
X876727*
X878090Y781562*
X878090D02*
X879000Y782687D01*
X868545Y792812D02*
Y781000D01*
X862181Y792812D02*
X868545Y784937D01*
X866272Y787750D02*
X862181Y781000D01*
X847636Y792812D02*
Y781000D01*
Y792812D02*
X843545D01*
X843545D02*
X842181Y792250D01*
X842181D02*
X841727Y791687D01*
X841727D02*
X841272Y790562D01*
X841272D02*
Y789437D01*
X841272D02*
X841727Y788312D01*
X841727D02*
X842181Y787750D01*
X842181D02*
X843545Y787187D01*
X847636D02*
X843545D01*
X843545D02*
X842181Y786625D01*
X842181D02*
X841727Y786062D01*
X841727D02*
X841272Y784937D01*
X841272D02*
Y783250D01*
X841272D02*
X841727Y782125D01*
X842181Y781562*
X842181D02*
X843545Y781000D01*
X847636*
X834454Y792812D02*
X835363Y792250D01*
X835363D02*
X836272Y791125D01*
X836272D02*
X836727Y790000D01*
X837181Y788312*
X837181D02*
Y785500D01*
X837181D02*
X836727Y783812D01*
X836727D02*
X836272Y782687D01*
X836272D02*
X835363Y781562D01*
X835363D02*
X834454Y781000D01*
X834454D02*
X832636D01*
X831727Y781562*
X831727D02*
X830818Y782687D01*
X830818D02*
X830363Y783812D01*
X830363D02*
X829909Y785500D01*
Y788312*
X829909D02*
X830363Y790000D01*
X830363D02*
X830818Y791125D01*
X831727Y792250*
X832636Y792812*
X832636D02*
X834454D01*
X822636D02*
Y781000D01*
X825818Y792812D02*
X819454D01*
X812181D02*
Y781000D01*
X815363Y792812D02*
X809000D01*
X802181D02*
X803090Y792250D01*
X803090D02*
X804000Y791125D01*
X804454Y790000*
X804454D02*
X804909Y788312D01*
X804909D02*
Y785500D01*
X804454Y783812*
X804454D02*
X804000Y782687D01*
X804000D02*
X803090Y781562D01*
X803090D02*
X802181Y781000D01*
X802181D02*
X800363D01*
X800363D02*
X799454Y781562D01*
X799454D02*
X798545Y782687D01*
X798545D02*
X798090Y783812D01*
X798090D02*
X797636Y785500D01*
Y788312*
X797636D02*
X798090Y790000D01*
X798090D02*
X798545Y791125D01*
X799454Y792250*
X799454D02*
X800363Y792812D01*
X800363D02*
X802181D01*
X793545D02*
Y781000D01*
Y792812D02*
X789909Y781000D01*
X786272Y792812D02*
X789909Y781000D01*
X786272Y792812D02*
Y781000D01*
X765363Y791125D02*
X766272Y792250D01*
X766272D02*
X767636Y792812D01*
X767636D02*
X769454D01*
X769454D02*
X770818Y792250D01*
X771727Y791125*
Y790000*
X771272Y788875*
X771272D02*
X770818Y788312D01*
X770818D02*
X769909Y787750D01*
X767181Y786625*
X767181D02*
X766272Y786062D01*
X766272D02*
X765818Y785500D01*
X765363Y784375*
X765363D02*
Y782687D01*
X765363D02*
X766272Y781562D01*
X766272D02*
X767636Y781000D01*
X769454*
X769454D02*
X770818Y781562D01*
X770818D02*
X771727Y782687D01*
X761272Y792812D02*
Y781000D01*
X757181Y792812D02*
Y781000D01*
Y792812D02*
X754000D01*
X754000D02*
X752636Y792250D01*
X751727Y791125*
X751272Y790000*
X751272D02*
X750818Y788312D01*
X750818D02*
Y785500D01*
X751272Y783812*
X751272D02*
X751727Y782687D01*
X751727D02*
X752636Y781562D01*
X752636D02*
X754000Y781000D01*
X757181*
X746727Y792812D02*
Y781000D01*
Y792812D02*
X740818D01*
X746727Y787187D02*
X743090D01*
X746727Y781000D02*
X740818D01*
G74*
X0Y0D02*
M02*
