*
*
G04 PADS Layout (Build Number 2005.103.1) generated Gerber (RS-274-X) file*
G04 PC Version=2.1*
*
%IN "7746.pcb"*%
*
%MOIN*%
*
%FSLAX35Y35*%
*
*
*
*
G04 PC Standard Apertures*
*
*
G04 Thermal Relief Aperture macro.*
%AMTER*
1,1,$1,0,0*
1,0,$1-$2,0,0*
21,0,$3,$4,0,0,45*
21,0,$3,$4,0,0,135*
%
*
*
G04 Annular Aperture macro.*
%AMANN*
1,1,$1,0,0*
1,0,$2,0,0*
%
*
*
G04 Odd Aperture macro.*
%AMODD*
1,1,$1,0,0*
1,0,$1-0.005,0,0*
%
*
*
G04 PC Custom Aperture Macros*
*
*
*
*
*
*
G04 PC Aperture Table*
*
%ADD014C,0.065*%
%ADD029C,0.11*%
%ADD039C,0.105*%
%ADD052C,0.01*%
%ADD053C,0.02*%
*
*
*
*
G04 PC Custom Flashes*
G04 Layer Name 7746.pcb - flashes*
%LPD*%
*
*
G04 PC Circuitry*
G04 Layer Name 7746.pcb - circuitry*
%LPD*%
*
G54D14*
G01X834300Y811900D03*
Y888100D03*
X865800Y811900D03*
Y888100D03*
X888100Y834300D03*
Y865800D03*
X811900Y834300D03*
Y865800D03*
G54D29*
X816000Y984000D03*
X806000Y974000D03*
Y994000D03*
X826000D03*
Y974000D03*
X884000Y984000D03*
X874000Y974000D03*
Y994000D03*
X894000D03*
Y974000D03*
G54D39*
X812500Y812500D03*
X887500D03*
Y912500D03*
X812500D03*
X850000Y950000D03*
G54D52*
X800000Y800000D02*
X900000D01*
Y1000000*
X800000*
Y800000*
X881250Y850000D02*
G75*
G03X881250I-31250J0D01*
G54D53*
G01X831909Y767812D02*
X836909D01*
X836909D02*
X834181Y763312D01*
X834181D02*
X835545D01*
X835545D02*
X836454Y762750D01*
X836454D02*
X836909Y762187D01*
X836909D02*
X837363Y760500D01*
X837363D02*
Y759375D01*
X837363D02*
X836909Y757687D01*
X836909D02*
X836000Y756562D01*
X836000D02*
X834636Y756000D01*
X833272*
X833272D02*
X831909Y756562D01*
X831909D02*
X831454Y757125D01*
X831454D02*
X831000Y758250D01*
X841454Y765562D02*
X842363Y766125D01*
X842363D02*
X843727Y767812D01*
X843727D02*
Y756000D01*
X847818Y761062D02*
X856000D01*
X862818Y767812D02*
X861454Y767250D01*
X861454D02*
X860545Y765562D01*
X860545D02*
X860090Y762750D01*
X860090D02*
Y761062D01*
X860090D02*
X860545Y758250D01*
X861454Y756562*
X861454D02*
X862818Y756000D01*
X863727*
X865090Y756562*
X865090D02*
X866000Y758250D01*
X866454Y761062*
X866454D02*
Y762750D01*
X866454D02*
X866000Y765562D01*
X866000D02*
X865090Y767250D01*
X865090D02*
X863727Y767812D01*
X863727D02*
X862818D01*
X873272D02*
X871909Y767250D01*
X871000Y765562*
X871000D02*
X870545Y762750D01*
Y761062*
X870545D02*
X871000Y758250D01*
X871909Y756562*
X871909D02*
X873272Y756000D01*
X873272D02*
X874181D01*
X874181D02*
X875545Y756562D01*
X875545D02*
X876454Y758250D01*
X876454D02*
X876909Y761062D01*
X876909D02*
Y762750D01*
X876454Y765562*
X876454D02*
X875545Y767250D01*
X874181Y767812*
X874181D02*
X873272D01*
X883727D02*
X882363Y767250D01*
X882363D02*
X881454Y765562D01*
X881454D02*
X881000Y762750D01*
Y761062*
X881000D02*
X881454Y758250D01*
X881454D02*
X882363Y756562D01*
X882363D02*
X883727Y756000D01*
X884636*
X886000Y756562*
X886000D02*
X886909Y758250D01*
X887363Y761062*
X887363D02*
Y762750D01*
X887363D02*
X886909Y765562D01*
X886909D02*
X886000Y767250D01*
X884636Y767812*
X884636D02*
X883727D01*
X891454Y765562D02*
X892363Y766125D01*
X892363D02*
X893727Y767812D01*
X893727D02*
Y756000D01*
X908272Y767812D02*
Y756000D01*
Y767812D02*
X912363D01*
X912363D02*
X913727Y767250D01*
X914181Y766687*
X914181D02*
X914636Y765562D01*
X914636D02*
Y764437D01*
X914636D02*
X914181Y763312D01*
X914181D02*
X913727Y762750D01*
X912363Y762187*
X912363D02*
X908272D01*
X911454D02*
X914636Y756000D01*
X918727Y767812D02*
Y756000D01*
Y767812D02*
X924636D01*
X918727Y762187D02*
X922363D01*
X918727Y756000D02*
X924636D01*
X928727Y767812D02*
X932363Y756000D01*
X936000Y767812D02*
X932363Y756000D01*
X950545Y765562D02*
X951454Y766125D01*
X951454D02*
X952818Y767812D01*
X952818D02*
Y756000D01*
X772363Y791125D02*
X771454Y792250D01*
X771454D02*
X770090Y792812D01*
X770090D02*
X768272D01*
X768272D02*
X766909Y792250D01*
X766000Y791125*
Y790000*
X766454Y788875*
X766454D02*
X766909Y788312D01*
X766909D02*
X767818Y787750D01*
X770545Y786625*
X771454Y786062*
X771454D02*
X771909Y785500D01*
X772363Y784375*
X772363D02*
Y782687D01*
X772363D02*
X771454Y781562D01*
X771454D02*
X770090Y781000D01*
X770090D02*
X768272D01*
X768272D02*
X766909Y781562D01*
X766909D02*
X766000Y782687D01*
X779181Y792812D02*
X778272Y792250D01*
X778272D02*
X777363Y791125D01*
X777363D02*
X776909Y790000D01*
X776454Y788312*
X776454D02*
Y785500D01*
X776454D02*
X776909Y783812D01*
X776909D02*
X777363Y782687D01*
X777363D02*
X778272Y781562D01*
X778272D02*
X779181Y781000D01*
X779181D02*
X781000D01*
X781909Y781562*
X781909D02*
X782818Y782687D01*
X782818D02*
X783272Y783812D01*
X783272D02*
X783727Y785500D01*
Y788312*
X783727D02*
X783272Y790000D01*
X783272D02*
X782818Y791125D01*
X781909Y792250*
X781000Y792812*
X781000D02*
X779181D01*
X787818D02*
Y781000D01*
X793272*
X797363Y792812D02*
Y781000D01*
Y792812D02*
X800545D01*
X800545D02*
X801909Y792250D01*
X802818Y791125*
X803272Y790000*
X803272D02*
X803727Y788312D01*
X803727D02*
Y785500D01*
X803272Y783812*
X803272D02*
X802818Y782687D01*
X802818D02*
X801909Y781562D01*
X801909D02*
X800545Y781000D01*
X797363*
X807818Y792812D02*
Y781000D01*
Y792812D02*
X813727D01*
X807818Y787187D02*
X811454D01*
X807818Y781000D02*
X813727D01*
X817818Y792812D02*
Y781000D01*
Y792812D02*
X821909D01*
X821909D02*
X823272Y792250D01*
X823272D02*
X823727Y791687D01*
X823727D02*
X824181Y790562D01*
X824181D02*
Y789437D01*
X824181D02*
X823727Y788312D01*
X823727D02*
X823272Y787750D01*
X823272D02*
X821909Y787187D01*
X821909D02*
X817818D01*
X821000D02*
X824181Y781000D01*
X828272Y792812D02*
Y781000D01*
Y792812D02*
X831909Y781000D01*
X835545Y792812D02*
X831909Y781000D01*
X835545Y792812D02*
Y781000D01*
X843272Y792812D02*
X839636Y781000D01*
X843272Y792812D02*
X846909Y781000D01*
X841000Y784937D02*
X845545D01*
X857363Y791125D02*
X856454Y792250D01*
X856454D02*
X855090Y792812D01*
X855090D02*
X853272D01*
X853272D02*
X851909Y792250D01*
X851000Y791125*
Y790000*
X851454Y788875*
X851454D02*
X851909Y788312D01*
X851909D02*
X852818Y787750D01*
X855545Y786625*
X856454Y786062*
X856454D02*
X856909Y785500D01*
X857363Y784375*
X857363D02*
Y782687D01*
X857363D02*
X856454Y781562D01*
X856454D02*
X855090Y781000D01*
X855090D02*
X853272D01*
X853272D02*
X851909Y781562D01*
X851909D02*
X851000Y782687D01*
X861454Y792812D02*
Y781000D01*
X867818Y792812D02*
X861454Y784937D01*
X863727Y787750D02*
X867818Y781000D01*
X885545Y792812D02*
Y781000D01*
X882363Y792812D02*
X888727D01*
X895545D02*
X894636Y792250D01*
X893727Y791125*
X893272Y790000*
X893272D02*
X892818Y788312D01*
X892818D02*
Y785500D01*
X893272Y783812*
X893272D02*
X893727Y782687D01*
X893727D02*
X894636Y781562D01*
X894636D02*
X895545Y781000D01*
X897363*
X897363D02*
X898272Y781562D01*
X898272D02*
X899181Y782687D01*
X899181D02*
X899636Y783812D01*
X899636D02*
X900090Y785500D01*
X900090D02*
Y788312D01*
X900090D02*
X899636Y790000D01*
X899181Y791125*
X899181D02*
X898272Y792250D01*
X898272D02*
X897363Y792812D01*
X897363D02*
X895545D01*
X904181D02*
Y781000D01*
Y792812D02*
X908272D01*
X908272D02*
X909636Y792250D01*
X910090Y791687*
X910090D02*
X910545Y790562D01*
X910545D02*
Y788875D01*
X910090Y787750*
X910090D02*
X909636Y787187D01*
X909636D02*
X908272Y786625D01*
X908272D02*
X904181D01*
X931454Y791125D02*
X930545Y792250D01*
X929181Y792812*
X929181D02*
X927363D01*
X927363D02*
X926000Y792250D01*
X925090Y791125*
X925090D02*
Y790000D01*
X925090D02*
X925545Y788875D01*
X926000Y788312*
X926000D02*
X926909Y787750D01*
X929636Y786625*
X930545Y786062*
X930545D02*
X931000Y785500D01*
X931454Y784375*
X931454D02*
Y782687D01*
X931454D02*
X930545Y781562D01*
X930545D02*
X929181Y781000D01*
X929181D02*
X927363D01*
X927363D02*
X926000Y781562D01*
X926000D02*
X925090Y782687D01*
X935545Y792812D02*
Y781000D01*
X939636Y792812D02*
Y781000D01*
Y792812D02*
X942818D01*
X942818D02*
X944181Y792250D01*
X944181D02*
X945090Y791125D01*
X945090D02*
X945545Y790000D01*
X946000Y788312*
X946000D02*
Y785500D01*
X945545Y783812*
X945545D02*
X945090Y782687D01*
X945090D02*
X944181Y781562D01*
X944181D02*
X942818Y781000D01*
X939636*
X950090Y792812D02*
Y781000D01*
Y792812D02*
X956000D01*
X950090Y787187D02*
X953727D01*
X950090Y781000D02*
X956000D01*
G74*
X0Y0D02*
M02*
