M48
%
T1C.015
X02625Y0796
X02725Y0796
X02675Y0796
X03135Y08025
X03135Y08075
X02875Y0811
X03135Y08125
X02835Y08135
X02915Y08135
X03565Y08125
X0411Y08125
X03565Y08075
X0411Y08075
X03565Y08025
X0411Y08025
X0354Y0411
X0346Y0411
X035Y04085
X05075Y0791
X05035Y07935
X05115Y07935
X04825Y0796
X04875Y0796
X04925Y0796
X0557Y08035
X0548Y08035
X05835Y0781
X05725Y0775
X05835Y0766
X05725Y076
X05835Y0751
X05525Y0746
X05725Y0745
X05835Y0736
X05725Y073
X05525Y07245
X05985Y064
X05985Y0645
X05985Y065
X06325Y06575
X062Y0665
X0629Y068
X0616Y0686
X0616Y0691
X0591Y0736
X0591Y0751
X0591Y0766
X0626Y07725
X0626Y07775
X0591Y0781
X0626Y07825
X0636Y07935
X06335Y07975
X0636Y08015
X0659Y08015
X06615Y07975
X0659Y07935
X0669Y07825
X0669Y07775
X0669Y07725
X06415Y065
X06415Y0645
X06415Y064
X0778Y0795
X0778Y08025
X07835Y08125
X0773Y0817
X0785Y0819
X07475Y08325
X0785Y0836
T2C.022
X0216Y08405
X022092Y08405
X022584Y08405
X023076Y08405
X023568Y08405
X02406Y08405
X024552Y08405
X025044Y08405
X0216Y084542
X023568Y084542
X022584Y084542
X02406Y084542
X022092Y084542
X024552Y084542
X023076Y084542
X025044Y084542
T3C.035
X05215Y0823
X05315Y0823
X05415Y0823
X05515Y0823
X05615Y0823
T4C.043
X0246Y05015
X02348Y05069
X0246Y05124
X02348Y05178
X0246Y05233
X02348Y05287
X0246Y05342
X02348Y05396
X0246Y05451
X03624Y08407
X03733Y08407
X03842Y08407
X03788Y08295
X03897Y08295
X0357Y08295
X03679Y08295
X04006Y08295
X04115Y08295
X04224Y08295
X04333Y08295
X03951Y08407
X0406Y08407
X04169Y08407
X04278Y08407
X0663Y08385
X0654Y08385
X06585Y08285
X06495Y08285
X0663Y08185
X0654Y08185
X069Y08185
X0672Y08185
X0681Y08185
X06675Y08285
X06765Y08285
X06855Y08285
X0681Y08385
X069Y08385
X0672Y08385
X07995Y06975
X08107Y0692
X07995Y06866
X08107Y068115
X07995Y06757
X08107Y067025
X07995Y06648
X08107Y065935
X07995Y06539
X08107Y064845
X07995Y0643
X08107Y063755
X07995Y06321
X08107Y062665
X07995Y06212
X08107Y061575
X07995Y06103
X08107Y060485
X07995Y05994
X08107Y059395
X07995Y05885
X08107Y058305
X07995Y05776
X08107Y057215
X07995Y05667
X08107Y056125
X07995Y05558
X08107Y055035
X07995Y05449
X08107Y053945
X07995Y0534
X08107Y052855
X07995Y05231
X08107Y051765
X07995Y05122
X08107Y050675
X07995Y05013
T5C.047
X028231Y0413
X0302Y0413
X032168Y0413
T6C.055
X02975Y047
X032407Y047
X06035Y0615
X0635Y0615
X059267Y046342
X0635Y046342
T7C.059
X08055Y0852
T8C.063
X08155Y0842
X07955Y0842
X07955Y0862
X08155Y0862
T9C.095
X043824Y076921
X04599Y076921
T10C.126
X02404Y04741
X02404Y05725
X03296Y08351
X04607Y08351
X06218Y08285
X08051Y04744
X08051Y07244
X07202Y08285
T11C.142
X02236Y04236
X02236Y08016
X08063Y08016
X0515Y06126
X08063Y04236
M30
