*
*
G04 PADS Layout (Build Number 2005.103.1) generated Gerber (RS-274-X) file*
G04 PC Version=2.1*
*
%IN "7757.pcb"*%
*
%MOIN*%
*
%FSLAX35Y35*%
*
*
*
*
G04 PC Standard Apertures*
*
*
G04 Thermal Relief Aperture macro.*
%AMTER*
1,1,$1,0,0*
1,0,$1-$2,0,0*
21,0,$3,$4,0,0,45*
21,0,$3,$4,0,0,135*
%
*
*
G04 Annular Aperture macro.*
%AMANN*
1,1,$1,0,0*
1,0,$2,0,0*
%
*
*
G04 Odd Aperture macro.*
%AMODD*
1,1,$1,0,0*
1,0,$1-0.005,0,0*
%
*
*
G04 PC Custom Aperture Macros*
*
*
*
*
*
*
G04 PC Aperture Table*
*
%ADD011C,0.1*%
%ADD014C,0.065*%
%ADD015C,0.06*%
%ADD018R,0.065X0.065*%
%ADD019R,0.06X0.06*%
%ADD020C,0.15*%
%ADD024C,0.2*%
%ADD030C,0.04*%
%ADD052C,0.01*%
%ADD053C,0.02*%
%ADD054C,0.015*%
%ADD056C,0.05*%
%ADD057C,0.1*%
%ADD058C,0.025*%
%ADD061C,0.04*%
%ADD074R,0.045X0.071*%
%ADD081R,0.071X0.045*%
%ADD092R,0.057X0.045*%
%ADD097R,0.038X0.036*%
%ADD138C,0.03*%
%ADD146R,0.135X0.1*%
%ADD147R,0.036X0.038*%
%ADD148R,0.045X0.057*%
%ADD172R,0.11X0.064*%
%ADD180R,0.064X0.11*%
%ADD193C,0.25*%
%ADD197R,0.1X0.135*%
%ADD199R,0.025X0.04*%
%ADD208R,0.025X0.087*%
%ADD209R,0.045X0.016*%
%ADD210R,0.08X0.126*%
*
*
*
*
G04 PC Custom Flashes*
G04 Layer Name 7757.pcb - flashes*
%LPD*%
*
*
G04 PC Circuitry*
G04 Layer Name 7757.pcb - circuitry*
%LPD*%
*
G54D11*
G01X1415500Y1242000D03*
X1395500D03*
Y1262000D03*
X1415500D03*
X1405500Y1252000D03*
X882315Y813000D03*
X902000D03*
X921685D03*
X1235000Y1015000D03*
X1203503D03*
X1192677Y863425D03*
X1235000D03*
X897500Y870000D03*
X924074D03*
G54D14*
X1254000Y1218500D03*
X1263000D03*
X1272000D03*
X1281000D03*
X1290000D03*
X1249500Y1228500D03*
X1258500D03*
X1267500D03*
X1276500D03*
X1285500D03*
X1254000Y1238500D03*
X1263000D03*
X1272000D03*
X1281000D03*
X1290000D03*
X846000Y912400D03*
Y923300D03*
Y934200D03*
Y945100D03*
X834800Y906900D03*
Y917800D03*
Y928700D03*
Y939600D03*
X967900Y1229500D03*
X978800D03*
X989700D03*
X1000600D03*
X1011500D03*
X1022400D03*
X1033300D03*
X962400Y1240700D03*
X973300D03*
X984200D03*
X995100D03*
X1006000D03*
X1016900D03*
X1027800D03*
X1399500Y1086600D03*
Y1075700D03*
Y1064800D03*
Y1053900D03*
Y1043000D03*
Y1032100D03*
Y1021200D03*
Y1010300D03*
Y999400D03*
Y988500D03*
Y977600D03*
Y966700D03*
Y955800D03*
Y944900D03*
Y934000D03*
Y923100D03*
Y912200D03*
Y901300D03*
X1410700Y1092000D03*
Y1081150D03*
Y1070250D03*
Y1059350D03*
Y1048450D03*
Y1037550D03*
Y1026650D03*
Y1015750D03*
Y1004850D03*
Y993950D03*
Y983050D03*
Y972150D03*
Y961250D03*
Y950350D03*
Y939450D03*
Y928550D03*
Y917650D03*
Y906750D03*
G54D15*
X1131500Y1223000D03*
X1141500D03*
X1151500D03*
X1161500D03*
G54D18*
X846000Y901500D03*
X957000Y1229500D03*
X1399500Y1097500D03*
G54D19*
X1121500Y1223000D03*
G54D20*
X1038248Y1169212D03*
X1059901D03*
G54D24*
X1320200Y1228500D03*
X1221800D03*
X840400Y874100D03*
Y972500D03*
X929600Y1235100D03*
X1060700D03*
X1405100Y1124400D03*
Y874400D03*
G54D30*
X815000Y845000D03*
Y1180000D03*
X1415000D03*
X816000Y1240500D03*
Y1245421D03*
X820921Y1240500D03*
Y1245421D03*
X825842Y1240500D03*
Y1245421D03*
X830763Y1240500D03*
Y1245421D03*
X835685Y1240500D03*
Y1245421D03*
X840606Y1240500D03*
Y1245421D03*
X845527Y1240500D03*
Y1245421D03*
X850448Y1240500D03*
Y1245421D03*
G54D52*
X1347500Y1232500D02*
X1359074D01*
X800000Y800000D02*
X1429900D01*
Y1272400*
X800000*
Y800000*
G54D53*
X1064181Y792812D02*
Y781000D01*
X1061000Y792812D02*
X1067363D01*
X1074181D02*
X1073272Y792250D01*
X1073272D02*
X1072363Y791125D01*
X1072363D02*
X1071909Y790000D01*
X1071454Y788312*
X1071454D02*
Y785500D01*
X1071454D02*
X1071909Y783812D01*
X1071909D02*
X1072363Y782687D01*
X1072363D02*
X1073272Y781562D01*
X1073272D02*
X1074181Y781000D01*
X1074181D02*
X1076000D01*
X1076909Y781562*
X1076909D02*
X1077818Y782687D01*
X1077818D02*
X1078272Y783812D01*
X1078272D02*
X1078727Y785500D01*
Y788312*
X1078727D02*
X1078272Y790000D01*
X1078272D02*
X1077818Y791125D01*
X1076909Y792250*
X1076000Y792812*
X1076000D02*
X1074181D01*
X1082818D02*
Y781000D01*
Y792812D02*
X1086909D01*
X1086909D02*
X1088272Y792250D01*
X1088272D02*
X1088727Y791687D01*
X1088727D02*
X1089181Y790562D01*
X1089181D02*
Y788875D01*
X1089181D02*
X1088727Y787750D01*
X1088272Y787187*
X1088272D02*
X1086909Y786625D01*
X1082818*
X1110090Y791125D02*
X1109181Y792250D01*
X1109181D02*
X1107818Y792812D01*
X1107818D02*
X1106000D01*
X1106000D02*
X1104636Y792250D01*
X1103727Y791125*
Y790000*
X1104181Y788875*
X1104181D02*
X1104636Y788312D01*
X1104636D02*
X1105545Y787750D01*
X1108272Y786625*
X1108272D02*
X1109181Y786062D01*
X1109181D02*
X1109636Y785500D01*
X1110090Y784375*
X1110090D02*
Y782687D01*
X1110090D02*
X1109181Y781562D01*
X1109181D02*
X1107818Y781000D01*
X1106000*
X1104636Y781562*
X1104636D02*
X1103727Y782687D01*
X1114181Y792812D02*
Y781000D01*
X1118272Y792812D02*
Y781000D01*
Y792812D02*
X1121454D01*
X1121454D02*
X1122818Y792250D01*
X1123727Y791125*
X1124181Y790000*
X1124181D02*
X1124636Y788312D01*
X1124636D02*
Y785500D01*
X1124181Y783812*
X1124181D02*
X1123727Y782687D01*
X1123727D02*
X1122818Y781562D01*
X1122818D02*
X1121454Y781000D01*
X1121454D02*
X1118272D01*
X1128727Y792812D02*
Y781000D01*
Y792812D02*
X1134636D01*
X1128727Y787187D02*
X1132363D01*
X1128727Y781000D02*
X1134636D01*
X1036909Y767812D02*
X1041909D01*
X1041909D02*
X1039181Y763312D01*
X1039181D02*
X1040545D01*
X1040545D02*
X1041454Y762750D01*
X1041454D02*
X1041909Y762187D01*
X1041909D02*
X1042363Y760500D01*
X1042363D02*
Y759375D01*
X1042363D02*
X1041909Y757687D01*
X1041909D02*
X1041000Y756562D01*
X1041000D02*
X1039636Y756000D01*
X1038272*
X1038272D02*
X1036909Y756562D01*
X1036909D02*
X1036454Y757125D01*
X1036454D02*
X1036000Y758250D01*
X1046454Y765562D02*
X1047363Y766125D01*
X1047363D02*
X1048727Y767812D01*
X1048727D02*
Y756000D01*
X1052818Y761062D02*
X1061000D01*
X1067818Y767812D02*
X1066454Y767250D01*
X1066454D02*
X1065545Y765562D01*
X1065545D02*
X1065090Y762750D01*
X1065090D02*
Y761062D01*
X1065090D02*
X1065545Y758250D01*
X1066454Y756562*
X1066454D02*
X1067818Y756000D01*
X1068727*
X1070090Y756562*
X1070090D02*
X1071000Y758250D01*
X1071454Y761062*
X1071454D02*
Y762750D01*
X1071454D02*
X1071000Y765562D01*
X1071000D02*
X1070090Y767250D01*
X1070090D02*
X1068727Y767812D01*
X1068727D02*
X1067818D01*
X1078272D02*
X1076909Y767250D01*
X1076000Y765562*
X1076000D02*
X1075545Y762750D01*
Y761062*
X1075545D02*
X1076000Y758250D01*
X1076909Y756562*
X1076909D02*
X1078272Y756000D01*
X1078272D02*
X1079181D01*
X1079181D02*
X1080545Y756562D01*
X1080545D02*
X1081454Y758250D01*
X1081454D02*
X1081909Y761062D01*
X1081909D02*
Y762750D01*
X1081454Y765562*
X1081454D02*
X1080545Y767250D01*
X1079181Y767812*
X1079181D02*
X1078272D01*
X1088727D02*
X1087363Y767250D01*
X1087363D02*
X1086454Y765562D01*
X1086454D02*
X1086000Y762750D01*
Y761062*
X1086000D02*
X1086454Y758250D01*
X1086454D02*
X1087363Y756562D01*
X1087363D02*
X1088727Y756000D01*
X1089636*
X1091000Y756562*
X1091000D02*
X1091909Y758250D01*
X1092363Y761062*
X1092363D02*
Y762750D01*
X1092363D02*
X1091909Y765562D01*
X1091909D02*
X1091000Y767250D01*
X1089636Y767812*
X1089636D02*
X1088727D01*
X1101909Y766125D02*
X1101454Y767250D01*
X1101454D02*
X1100090Y767812D01*
X1100090D02*
X1099181D01*
X1099181D02*
X1097818Y767250D01*
X1096909Y765562*
X1096909D02*
X1096454Y762750D01*
X1096454D02*
Y759937D01*
X1096454D02*
X1096909Y757687D01*
X1096909D02*
X1097818Y756562D01*
X1097818D02*
X1099181Y756000D01*
X1099181D02*
X1099636D01*
X1101000Y756562*
X1101000D02*
X1101909Y757687D01*
X1101909D02*
X1102363Y759375D01*
X1102363D02*
Y759937D01*
X1102363D02*
X1101909Y761625D01*
X1101000Y762750*
X1099636Y763312*
X1099636D02*
X1099181D01*
X1099181D02*
X1097818Y762750D01*
X1096909Y761625*
X1096454Y759937*
X1116909Y767812D02*
Y756000D01*
Y767812D02*
X1121000D01*
X1121000D02*
X1122363Y767250D01*
X1122363D02*
X1122818Y766687D01*
X1122818D02*
X1123272Y765562D01*
X1123272D02*
Y764437D01*
X1123272D02*
X1122818Y763312D01*
X1122818D02*
X1122363Y762750D01*
X1122363D02*
X1121000Y762187D01*
X1121000D02*
X1116909D01*
X1120090D02*
X1123272Y756000D01*
X1127363Y767812D02*
Y756000D01*
Y767812D02*
X1133272D01*
X1127363Y762187D02*
X1131000D01*
X1127363Y756000D02*
X1133272D01*
X1137363Y767812D02*
X1141000Y756000D01*
X1144636Y767812D02*
X1141000Y756000D01*
X1159181Y765562D02*
X1160090Y766125D01*
X1160090D02*
X1161454Y767812D01*
X1161454D02*
Y756000D01*
G54D54*
X1223750Y1070100D02*
Y1071000D01*
X1229551*
X1232500Y1068051*
X1117500Y1124764D02*
Y1105000D01*
X1177500Y1045000*
Y1000000*
X1202500Y975000*
X1348550*
X1395000Y928550*
X1410700*
X1112500Y1124764D02*
Y1102500D01*
X1172500Y1042500*
Y997500*
X1200000Y970000*
X1342650*
X1395000Y917650*
X1410700*
X1107500Y1124764D02*
Y1100000D01*
X1167500Y1040000*
Y995000*
X1197500Y965000*
X1336750*
X1395000Y906750*
X1410700*
X1122500Y1124764D02*
Y1107500D01*
X1182500Y1047500*
Y1002500*
X1205000Y980000*
X1354450*
X1395000Y939450*
X1410700*
X1177500Y1130000D02*
X1181948D01*
X1181948D02*
X1184448Y1127500D01*
X1172500Y1130000D02*
X1177500D01*
Y1129448*
X1195000Y1128000D02*
X1197500D01*
Y1129055*
X1195000Y1128000D02*
X1207500D01*
X1336000Y999500*
X1399500*
Y999400*
X1190551Y1127500D02*
Y1128000D01*
X1195000*
X1177500Y1145000D02*
X1181948D01*
X1181948D02*
X1184448Y1142500D01*
X1172500Y1145000D02*
X1177500D01*
Y1144448*
X1192500Y1143000D02*
X1197500D01*
Y1144055*
X1192500Y1143000D02*
X1207500D01*
X1340000Y1010500*
X1399500*
Y1010300*
X1190551Y1142500D02*
Y1143000D01*
X1192500*
X1172500Y1160000D02*
X1177500D01*
X1181948*
X1181948D02*
X1184448Y1157500D01*
X1177500Y1159448D02*
Y1160000D01*
X1195000Y1173000D02*
X1197500D01*
Y1174055*
X1195000Y1173000D02*
X1205000D01*
X1346000Y1032000*
X1399500*
Y1032100*
X1192500Y1158000D02*
X1197500D01*
Y1159055*
X1192500Y1158000D02*
X1207500D01*
X1344000Y1021500*
X1399500*
Y1021200*
X1190551Y1172500D02*
Y1173000D01*
X1195000*
X1190551Y1157500D02*
Y1158000D01*
X1192500*
X1177500Y1174448D02*
Y1175000D01*
X1181948*
X1181948D02*
X1184448Y1172500D01*
X1172500Y1175000D02*
X1177500D01*
X1141500Y1223000D02*
Y1200500D01*
X1146500Y1195500*
X1187000*
X1200000Y1208500*
X1348500*
X1352500Y1212500*
Y1216948*
X1365925Y1206500D02*
Y1202500D01*
X1366948*
X1365925Y1206500D02*
Y1195000D01*
X1366948*
X962500Y1225000D02*
Y1232500D01*
X965000Y1235000*
X967600*
X973300Y1240700*
X962500Y1225000D02*
X975000Y1212500D01*
Y1195000*
X1022500Y1147500*
X1097500*
X1105000Y1155000*
X1110000*
X1112500Y1152500*
Y1145236*
X978800Y1229500D02*
X985000Y1223300D01*
Y1200000*
X1027500Y1157500*
X1092500*
X1100000Y1165000*
X1115000*
X1122500Y1157500*
Y1145236*
X967900Y1229500D02*
X980000Y1217400D01*
Y1197500*
X1025000Y1152500*
X1095000*
X1102500Y1160000*
X1112500*
X1117500Y1155000*
Y1145236*
X1141500Y1223000D02*
Y1210000D01*
X1141948*
X1161500Y1223000D02*
X1167500Y1217000D01*
Y1212500*
X1168307Y1211692*
X1168307D02*
Y1210000D01*
X1352500Y1223051D02*
Y1229448D01*
X1352500D02*
Y1229940D01*
X1352500D02*
X1359074D01*
X1365925Y1219500D02*
Y1212500D01*
X1366692*
X1365925Y1219500D02*
Y1206500D01*
Y1232500D02*
X1374192D01*
X1374192D02*
X1375000Y1233307D01*
X1365925Y1229940D02*
Y1219500D01*
X950000Y1240000D02*
Y1222500D01*
X952500Y1220000*
X960000*
X970000Y1210000*
Y1192500*
X1020000Y1142500*
X1107500*
Y1145236*
X950000Y1240000D02*
X957500Y1247500D01*
X977400*
X984200Y1240700*
X1352500Y1250944D02*
Y1252000D01*
X1405500*
X1352500Y1244055D02*
Y1235551D01*
Y1235059*
X1359074*
X1365925D02*
X1371000D01*
X1375137Y1233444*
G54D56*
X902000Y813000D02*
X916500Y827500D01*
X938000*
X950000*
Y828011*
X938000Y827500D02*
X1270000D01*
X1282000Y839500*
X1207401Y1047500D02*
X1209500D01*
X1216000Y1054000*
X1216250*
X1223750*
X1216000Y1080000D02*
Y1076000D01*
Y1073000*
Y1076000D02*
Y1091000D01*
X1059901Y1169212D02*
Y1185389D01*
X1059901D02*
X1068011Y1193500D01*
X1068011D02*
Y1207500D01*
X1045098D02*
X1056988D01*
X867500Y1230098D02*
Y1230511D01*
X867500D02*
X887500D01*
X1087500Y1230098D02*
Y1228000D01*
X1099000*
X1107500Y1219500*
Y1210511*
X1121500Y1223000D02*
Y1229500D01*
X1141500Y1249500*
X1182500*
Y1249488*
X891500Y1245500D02*
Y1256000D01*
X896000Y1260500*
X904988*
X905000Y1260511*
X891500Y1245500D02*
X903000Y1234000D01*
Y967000*
X954500Y915500*
X1250500*
X1282000Y884000*
Y839500*
X905000Y1249488D02*
X915211D01*
X915211D02*
X929600Y1235100D01*
X995100Y1240700D02*
Y1250600D01*
X998000Y1253500*
X1006000*
X1016900D02*
X1078000D01*
X1087500Y1244000*
Y1230098*
X1016900Y1240700D02*
Y1253500D01*
X1006000*
Y1240700*
X1027800D02*
X1036300D01*
X1042500Y1234500*
Y1203500*
X1045098*
Y1207500*
X1200000Y1249488D02*
X1221800D01*
Y1228500*
Y1249488D02*
X1313000D01*
X1320200Y1242288*
Y1228500*
X905000Y1260511D02*
X915000Y1260500D01*
X920000Y1265500*
X1164003*
X1169000Y1260502*
X1169000D02*
X1182500Y1260511D01*
X1182500D02*
X1200000D01*
G54D57*
X882315Y813000D02*
Y834815D01*
X893500Y846000*
X914074*
X914074D02*
X924074Y856000D01*
X924074D02*
Y870000D01*
X924074D02*
X1150000D01*
X1156574Y863425*
X1156574D02*
X1192677D01*
G54D58*
X946000Y811000D02*
Y816988D01*
X950000*
Y808500D02*
Y816988D01*
X954000*
Y811000*
X1198500Y1040000D02*
X1207401D01*
X1207401D02*
Y1045000D01*
X1198500Y1050000D02*
X1207401D01*
X1207401D02*
Y1047500D01*
X1198500Y1045000D02*
X1207401D01*
X1207401D02*
Y1047500D01*
X1241500Y1045000D02*
X1232598D01*
Y1040000*
X1241500*
X1232598Y1045000D02*
Y1050000D01*
X1241500*
X1216000Y1073000D02*
Y1070100D01*
X1216250*
Y1054000D02*
Y1059900D01*
X1220000Y1065000D02*
Y1059900D01*
X1223750Y1054000D02*
Y1059900D01*
X1232500Y1057500D02*
Y1061948D01*
X1216000Y1086000D02*
Y1080000D01*
X1216555*
X1216000D02*
X1216555D01*
X1223444D02*
X1229000D01*
X1152500Y1124500D02*
Y1129192D01*
X1142500Y1124764D02*
Y1127500D01*
X1144500Y1129500*
X1152500*
Y1129192*
Y1146000D02*
Y1140807D01*
X1142500Y1145236D02*
Y1142500D01*
X1144500Y1140500*
X1150000*
X1152500*
Y1140807*
X1177500Y1150551D02*
Y1151000D01*
X1183500*
X1177500Y1135551D02*
Y1136000D01*
X1183500*
X1191000Y1151000D02*
X1197500D01*
Y1150944*
X1191000Y1136000D02*
X1197500D01*
Y1135944*
X1177500Y1165551D02*
Y1166000D01*
X1183500*
X1191000D02*
X1197500D01*
Y1165944*
X1226000Y1172500D02*
X1234901D01*
X1234901D02*
Y1177500D01*
X1103500Y1193500D02*
Y1199488D01*
X1107500*
Y1191000D02*
Y1199488D01*
X1177500Y1180551D02*
Y1181000D01*
X1183500*
X1191000D02*
X1197500D01*
Y1180944*
X1226000Y1182500D02*
X1234901D01*
X1234901D02*
Y1177500D01*
X1226000D02*
X1234901D01*
X1236000Y1193500D02*
X1241988D01*
Y1197500*
X1260098Y1177500D02*
Y1182500D01*
X1269000*
Y1177500D02*
X1260098D01*
Y1172500*
X1269000*
X862500Y1196000D02*
Y1204901D01*
X862500D02*
X867500D01*
Y1196000D02*
Y1204901D01*
X867500D02*
X872500D01*
X872500D02*
Y1196000D01*
X883500Y1213500D02*
Y1219488D01*
X887500*
Y1211000D02*
Y1219488D01*
X913500Y1202500D02*
X922401D01*
X922401D02*
Y1207500D01*
X913500Y1212500D02*
X922401D01*
X922401D02*
Y1207500D01*
X913500D02*
X922401D01*
X956500D02*
X947598D01*
Y1202500*
X956500*
X947598Y1207500D02*
Y1212500D01*
X956500*
X1011000Y1202500D02*
X1019901D01*
X1019901D02*
Y1207500D01*
X1011000Y1212500D02*
X1019901D01*
X1019901D02*
Y1207500D01*
X1011000D02*
X1019901D01*
X1082500Y1196000D02*
Y1204901D01*
X1082500D02*
X1087500D01*
Y1196000D02*
Y1204901D01*
X1087500D02*
X1092500D01*
X1092500D02*
Y1196000D01*
X1107500Y1199488D02*
X1111500D01*
Y1193500*
X1148000Y1203500D02*
Y1210000D01*
X1148051*
X1156692*
X1156692D02*
X1157000D01*
Y1203500*
X1233500Y1197500D02*
X1241988D01*
X1236000Y1201500D02*
X1241988D01*
Y1197500*
X1253011D02*
Y1201500D01*
X1253011D02*
X1259000D01*
X1261500Y1197500D02*
X1253011D01*
X1253011D02*
Y1193500D01*
X1253011D02*
X1259000D01*
X1373051Y1202500D02*
X1378000D01*
X1373051Y1195000D02*
X1378000D01*
X1378307Y1212500D02*
X1383500D01*
X887500Y1219488D02*
X891500D01*
Y1213500*
X1375137Y1233444D02*
X1376500D01*
X1376500D02*
X1379000Y1230944D01*
X1379000D02*
X1385000D01*
X1373000Y1217000D02*
Y1221692D01*
X1373000D02*
X1375000D01*
Y1233307D02*
X1375137Y1233444D01*
X1385000Y1219000D02*
Y1224055D01*
Y1236000D02*
Y1230944D01*
G54D61*
X850448Y1245421D02*
X859500D01*
X863000Y1241921*
Y1230000*
X867500*
Y1230098*
G54D74*
X1378307Y1212500D03*
X1366692D03*
X1156692Y1210000D03*
X1168307D03*
G54D81*
X1152500Y1129192D03*
Y1140807D03*
X1375000Y1221692D03*
Y1233307D03*
G54D92*
X1197500Y1129055D03*
Y1135944D03*
Y1144055D03*
Y1150944D03*
Y1159055D03*
Y1165944D03*
Y1174055D03*
Y1180944D03*
X1385000Y1230944D03*
Y1224055D03*
X1352500Y1244055D03*
Y1250944D03*
G54D97*
X1232500Y1068051D03*
Y1061948D03*
X1177500Y1135551D03*
Y1129448D03*
Y1150551D03*
Y1144448D03*
Y1165551D03*
Y1159448D03*
Y1180551D03*
Y1174448D03*
X1352500Y1216948D03*
Y1223051D03*
Y1229448D03*
Y1235551D03*
G54D138*
X954000Y811000D03*
X946000D03*
X950000Y808500D03*
X1198500Y1040000D03*
Y1050000D03*
Y1045000D03*
X1241500Y1050000D03*
Y1040000D03*
Y1045000D03*
X1220000Y1065000D03*
X1232500Y1057500D03*
X1216000Y1086000D03*
Y1091000D03*
X1229000Y1080000D03*
X1152500Y1124500D03*
X1172500Y1130000D03*
X1152500Y1146000D03*
X1172500Y1145000D03*
X1183500Y1136000D03*
Y1151000D03*
X1191000D03*
Y1136000D03*
X1172500Y1160000D03*
X1191000Y1166000D03*
X1183500D03*
X1226000Y1172500D03*
X1269000D03*
X1103500Y1193500D03*
X1107500Y1191000D03*
X1111500Y1193500D03*
X1172500Y1175000D03*
X1191000Y1181000D03*
X1183500D03*
X1226000Y1182500D03*
Y1177500D03*
X1236000Y1193500D03*
X1259000D03*
X1269000Y1177500D03*
Y1182500D03*
X872500Y1196000D03*
X862500D03*
X867500D03*
X883500Y1213500D03*
X887500Y1211000D03*
X891500Y1213500D03*
X913500Y1202500D03*
Y1212500D03*
Y1207500D03*
X956500Y1212500D03*
Y1202500D03*
Y1207500D03*
X1011000Y1202500D03*
Y1212500D03*
Y1207500D03*
X1092500Y1196000D03*
X1082500D03*
X1087500D03*
X1157000Y1203500D03*
X1148000D03*
X1233500Y1197500D03*
X1236000Y1201500D03*
X1259000D03*
X1261500Y1197500D03*
X1378000Y1202500D03*
Y1195000D03*
X1383500Y1212500D03*
X1347500Y1232500D03*
X1373000Y1217000D03*
X1385000Y1219000D03*
Y1236000D03*
G54D146*
X867500Y1230098D03*
Y1204901D03*
X1087500Y1230098D03*
Y1204901D03*
G54D147*
X1190551Y1127500D03*
X1184448D03*
X1190551Y1142500D03*
X1184448D03*
X1190551Y1157500D03*
X1184448D03*
X1190551Y1172500D03*
X1184448D03*
X1148051Y1210000D03*
X1141948D03*
X1373051Y1195000D03*
X1366948D03*
Y1202500D03*
X1373051D03*
G54D148*
X1216555Y1080000D03*
X1223444D03*
G54D172*
X950000Y828011D03*
Y816988D03*
X905000Y1260511D03*
Y1249488D03*
X1182500Y1260511D03*
Y1249488D03*
X1200000Y1260511D03*
Y1249488D03*
X887500Y1219488D03*
Y1230511D03*
X1107500Y1199488D03*
Y1210511D03*
G54D180*
X1253011Y1197500D03*
X1241988D03*
X1068011Y1207500D03*
X1056988D03*
G54D193*
X823600Y823600D03*
X1406300D03*
X1115000Y1012600D03*
X1406300Y1201600D03*
X823600D03*
G54D197*
X1045098Y1207500D03*
X1019901D03*
X947598D03*
X922401D03*
X1207401Y1045000D03*
X1232598D03*
X1234901Y1177500D03*
X1260098D03*
G54D199*
X1216250Y1059900D03*
X1220000D03*
X1223750D03*
Y1070100D03*
X1216250D03*
G54D208*
X1107500Y1124764D03*
X1112500D03*
X1117500D03*
X1122500D03*
X1127500D03*
X1132500D03*
X1137500D03*
X1142500D03*
Y1145236D03*
X1137500D03*
X1132500D03*
X1127500D03*
X1122500D03*
X1117500D03*
X1112500D03*
X1107500D03*
G54D209*
X1359074Y1235059D03*
Y1232500D03*
Y1229940D03*
X1365925D03*
Y1232500D03*
Y1235059D03*
G54D210*
X855370Y1257822D03*
X811078D03*
X0Y0D02*
M02*
