*
*
G04 PADS Layout (Build Number 2005.103.1) generated Gerber (RS-274-X) file*
G04 PC Version=2.1*
*
%IN "7757.pcb"*%
*
%MOIN*%
*
%FSLAX35Y35*%
*
*
*
*
G04 PC Standard Apertures*
*
*
G04 Thermal Relief Aperture macro.*
%AMTER*
1,1,$1,0,0*
1,0,$1-$2,0,0*
21,0,$3,$4,0,0,45*
21,0,$3,$4,0,0,135*
%
*
*
G04 Annular Aperture macro.*
%AMANN*
1,1,$1,0,0*
1,0,$2,0,0*
%
*
*
G04 Odd Aperture macro.*
%AMODD*
1,1,$1,0,0*
1,0,$1-0.005,0,0*
%
*
*
G04 PC Custom Aperture Macros*
*
*
*
*
*
*
G04 PC Aperture Table*
*
%ADD011C,0.1*%
%ADD014C,0.065*%
%ADD020C,0.15*%
%ADD030C,0.04*%
%ADD052C,0.01*%
%ADD053C,0.02*%
%ADD056C,0.05*%
%ADD058C,0.025*%
%ADD064C,0.006*%
%ADD138C,0.03*%
*
*
*
*
G04 PC Custom Flashes*
G04 Layer Name 7757.pcb - flashes*
%LPD*%
*
*
G04 PC Circuitry*
G04 Layer Name 7757.pcb - circuitry*
%LPD*%
*
G54D11*
G01X1203503Y1015000D03*
G54D14*
X1249500Y1228500D03*
X1263000Y1238500D03*
X957000Y1229500D03*
X962400Y1240700D03*
G54D20*
X1059901Y1169212D03*
G54D30*
X830763Y1245421D03*
G54D52*
X828783Y1243441D02*
X829349Y1244007D01*
X832743Y1243441D02*
X832177Y1244007D01*
X832743Y1247401D02*
X832177Y1246835D01*
X828783Y1247401D02*
X829349Y1246835D01*
X800000Y800000D02*
X1429900D01*
Y1272400*
X800000*
Y800000*
G54D53*
X1036909Y767812D02*
X1041909D01*
X1041909D02*
X1039181Y763312D01*
X1039181D02*
X1040545D01*
X1040545D02*
X1041454Y762750D01*
X1041454D02*
X1041909Y762187D01*
X1041909D02*
X1042363Y760500D01*
X1042363D02*
Y759375D01*
X1042363D02*
X1041909Y757687D01*
X1041909D02*
X1041000Y756562D01*
X1041000D02*
X1039636Y756000D01*
X1038272*
X1038272D02*
X1036909Y756562D01*
X1036909D02*
X1036454Y757125D01*
X1036454D02*
X1036000Y758250D01*
X1046454Y765562D02*
X1047363Y766125D01*
X1047363D02*
X1048727Y767812D01*
X1048727D02*
Y756000D01*
X1052818Y761062D02*
X1061000D01*
X1067818Y767812D02*
X1066454Y767250D01*
X1066454D02*
X1065545Y765562D01*
X1065545D02*
X1065090Y762750D01*
X1065090D02*
Y761062D01*
X1065090D02*
X1065545Y758250D01*
X1066454Y756562*
X1066454D02*
X1067818Y756000D01*
X1068727*
X1070090Y756562*
X1070090D02*
X1071000Y758250D01*
X1071454Y761062*
X1071454D02*
Y762750D01*
X1071454D02*
X1071000Y765562D01*
X1071000D02*
X1070090Y767250D01*
X1070090D02*
X1068727Y767812D01*
X1068727D02*
X1067818D01*
X1078272D02*
X1076909Y767250D01*
X1076000Y765562*
X1076000D02*
X1075545Y762750D01*
Y761062*
X1075545D02*
X1076000Y758250D01*
X1076909Y756562*
X1076909D02*
X1078272Y756000D01*
X1078272D02*
X1079181D01*
X1079181D02*
X1080545Y756562D01*
X1080545D02*
X1081454Y758250D01*
X1081454D02*
X1081909Y761062D01*
X1081909D02*
Y762750D01*
X1081454Y765562*
X1081454D02*
X1080545Y767250D01*
X1079181Y767812*
X1079181D02*
X1078272D01*
X1088727D02*
X1087363Y767250D01*
X1087363D02*
X1086454Y765562D01*
X1086454D02*
X1086000Y762750D01*
Y761062*
X1086000D02*
X1086454Y758250D01*
X1086454D02*
X1087363Y756562D01*
X1087363D02*
X1088727Y756000D01*
X1089636*
X1091000Y756562*
X1091000D02*
X1091909Y758250D01*
X1092363Y761062*
X1092363D02*
Y762750D01*
X1092363D02*
X1091909Y765562D01*
X1091909D02*
X1091000Y767250D01*
X1089636Y767812*
X1089636D02*
X1088727D01*
X1101909Y766125D02*
X1101454Y767250D01*
X1101454D02*
X1100090Y767812D01*
X1100090D02*
X1099181D01*
X1099181D02*
X1097818Y767250D01*
X1096909Y765562*
X1096909D02*
X1096454Y762750D01*
X1096454D02*
Y759937D01*
X1096454D02*
X1096909Y757687D01*
X1096909D02*
X1097818Y756562D01*
X1097818D02*
X1099181Y756000D01*
X1099181D02*
X1099636D01*
X1101000Y756562*
X1101000D02*
X1101909Y757687D01*
X1101909D02*
X1102363Y759375D01*
X1102363D02*
Y759937D01*
X1102363D02*
X1101909Y761625D01*
X1101000Y762750*
X1099636Y763312*
X1099636D02*
X1099181D01*
X1099181D02*
X1097818Y762750D01*
X1096909Y761625*
X1096454Y759937*
X1116909Y767812D02*
Y756000D01*
Y767812D02*
X1121000D01*
X1121000D02*
X1122363Y767250D01*
X1122363D02*
X1122818Y766687D01*
X1122818D02*
X1123272Y765562D01*
X1123272D02*
Y764437D01*
X1123272D02*
X1122818Y763312D01*
X1122818D02*
X1122363Y762750D01*
X1122363D02*
X1121000Y762187D01*
X1121000D02*
X1116909D01*
X1120090D02*
X1123272Y756000D01*
X1127363Y767812D02*
Y756000D01*
Y767812D02*
X1133272D01*
X1127363Y762187D02*
X1131000D01*
X1127363Y756000D02*
X1133272D01*
X1137363Y767812D02*
X1141000Y756000D01*
X1144636Y767812D02*
X1141000Y756000D01*
X1159181Y765562D02*
X1160090Y766125D01*
X1160090D02*
X1161454Y767812D01*
X1161454D02*
Y756000D01*
X1031000Y792812D02*
Y781000D01*
X1036454*
X1044181Y792812D02*
X1040545Y781000D01*
X1044181Y792812D02*
X1047818Y781000D01*
X1041909Y784937D02*
X1046454D01*
X1051909Y792812D02*
X1055545Y787187D01*
X1055545D02*
Y781000D01*
X1059181Y792812D02*
X1055545Y787187D01*
X1063272Y792812D02*
Y781000D01*
Y792812D02*
X1069181D01*
X1063272Y787187D02*
X1066909D01*
X1063272Y781000D02*
X1069181D01*
X1073272Y792812D02*
Y781000D01*
Y792812D02*
X1077363D01*
X1077363D02*
X1078727Y792250D01*
X1079181Y791687*
X1079181D02*
X1079636Y790562D01*
X1079636D02*
Y789437D01*
X1079636D02*
X1079181Y788312D01*
X1079181D02*
X1078727Y787750D01*
X1077363Y787187*
X1077363D02*
X1073272D01*
X1076454D02*
X1079636Y781000D01*
X1095090Y792812D02*
X1100090D01*
X1100090D02*
X1097363Y788312D01*
X1097363D02*
X1098727D01*
X1098727D02*
X1099636Y787750D01*
X1100090Y787187*
X1100090D02*
X1100545Y785500D01*
Y784375*
X1100090Y782687*
X1100090D02*
X1099181Y781562D01*
X1099181D02*
X1097818Y781000D01*
X1096454*
X1096454D02*
X1095090Y781562D01*
X1095090D02*
X1094636Y782125D01*
X1094181Y783250*
X1115090Y792812D02*
Y781000D01*
Y792812D02*
X1119181D01*
X1119181D02*
X1120545Y792250D01*
X1121000Y791687*
X1121000D02*
X1121454Y790562D01*
X1121454D02*
Y788875D01*
X1121454D02*
X1121000Y787750D01*
X1120545Y787187*
X1120545D02*
X1119181Y786625D01*
X1119181D02*
X1115090D01*
X1128272Y792812D02*
X1127363Y792250D01*
X1127363D02*
X1126454Y791125D01*
X1126454D02*
X1126000Y790000D01*
X1125545Y788312*
X1125545D02*
Y785500D01*
X1126000Y783812*
X1126000D02*
X1126454Y782687D01*
X1126454D02*
X1127363Y781562D01*
X1127363D02*
X1128272Y781000D01*
X1128272D02*
X1130090D01*
X1130090D02*
X1131000Y781562D01*
X1131000D02*
X1131909Y782687D01*
X1131909D02*
X1132363Y783812D01*
X1132363D02*
X1132818Y785500D01*
Y788312*
X1132818D02*
X1132363Y790000D01*
X1132363D02*
X1131909Y791125D01*
X1131000Y792250*
X1130090Y792812*
X1130090D02*
X1128272D01*
X1136909D02*
X1139181Y781000D01*
X1141454Y792812D02*
X1139181Y781000D01*
X1141454Y792812D02*
X1143727Y781000D01*
X1146000Y792812D02*
X1143727Y781000D01*
X1150090Y792812D02*
Y781000D01*
Y792812D02*
X1156000D01*
X1150090Y787187D02*
X1153727D01*
X1150090Y781000D02*
X1156000D01*
X1160090Y792812D02*
Y781000D01*
Y792812D02*
X1164181D01*
X1164181D02*
X1165545Y792250D01*
X1166000Y791687*
X1166000D02*
X1166454Y790562D01*
X1166454D02*
Y789437D01*
X1166454D02*
X1166000Y788312D01*
X1166000D02*
X1165545Y787750D01*
X1164181Y787187*
X1164181D02*
X1160090D01*
X1163272D02*
X1166454Y781000D01*
X1252540Y1231540D02*
X1251798Y1230798D01*
X1246459Y1231540D02*
X1247201Y1230798D01*
X1246459Y1225459D02*
X1247201Y1226201D01*
X1252540Y1225459D02*
X1251798Y1226201D01*
X1266040Y1241540D02*
X1265298Y1240798D01*
X1259959Y1241540D02*
X1260701Y1240798D01*
X1259959Y1235459D02*
X1260701Y1236201D01*
X1266040Y1235459D02*
X1265298Y1236201D01*
X960040Y1232540D02*
X959298Y1231798D01*
X953959Y1232540D02*
X954701Y1231798D01*
X953959Y1226459D02*
X954701Y1227201D01*
X960040Y1226459D02*
X959298Y1227201D01*
X965440Y1243740D02*
X964698Y1242998D01*
X959359Y1243740D02*
X960101Y1242998D01*
X959359Y1237659D02*
X960101Y1238401D01*
X965440Y1237659D02*
X964698Y1238401D01*
G54D56*
X1053325Y1175788D02*
X1054598Y1174515D01*
X1053325Y1162636D02*
X1054598Y1163909D01*
X1066477Y1162636D02*
X1065204Y1163909D01*
X1066477Y1175788D02*
X1065204Y1174515D01*
G54D58*
X1208312Y1010191D02*
X1207039Y1011464D01*
X1208312Y1019808D02*
X1207039Y1018535D01*
X1198695Y1019808D02*
X1199968Y1018535D01*
X1198695Y1010191D02*
X1199968Y1011464D01*
G54D64*
X1419100Y823600D02*
G75*
G03X1419100I-12800J0D01*
G01X1417900Y874400D02*
G03X1417900I-12800J0D01*
G01X1414750Y906750D02*
G03X1414750I-4050J0D01*
G01Y917650D02*
G03X1414750I-4050J0D01*
G01Y928550D02*
G03X1414750I-4050J0D01*
G01Y939450D02*
G03X1414750I-4050J0D01*
G01Y950350D02*
G03X1414750I-4050J0D01*
G01Y961250D02*
G03X1414750I-4050J0D01*
G01Y972150D02*
G03X1414750I-4050J0D01*
G01Y983050D02*
G03X1414750I-4050J0D01*
G01Y993950D02*
G03X1414750I-4050J0D01*
G01Y1004850D02*
G03X1414750I-4050J0D01*
G01Y1015750D02*
G03X1414750I-4050J0D01*
G01Y1026650D02*
G03X1414750I-4050J0D01*
G01Y1037550D02*
G03X1414750I-4050J0D01*
G01Y1048450D02*
G03X1414750I-4050J0D01*
G01X1403550Y901300D02*
G03X1403550I-4050J0D01*
G01Y912200D02*
G03X1403550I-4050J0D01*
G01Y923100D02*
G03X1403550I-4050J0D01*
G01Y934000D02*
G03X1403550I-4050J0D01*
G01Y944900D02*
G03X1403550I-4050J0D01*
G01Y955800D02*
G03X1403550I-4050J0D01*
G01Y966700D02*
G03X1403550I-4050J0D01*
G01Y977600D02*
G03X1403550I-4050J0D01*
G01Y988500D02*
G03X1403550I-4050J0D01*
G01Y999400D02*
G03X1403550I-4050J0D01*
G01Y1010300D02*
G03X1403550I-4050J0D01*
G01Y1021200D02*
G03X1403550I-4050J0D01*
G01Y1032100D02*
G03X1403550I-4050J0D01*
G01Y1043000D02*
G03X1403550I-4050J0D01*
G01Y1053900D02*
G03X1403550I-4050J0D01*
G01X1239800Y863425D02*
G03X1239800I-4800J0D01*
G01Y1015000D02*
G03X1239800I-4800J0D01*
G01X1243800Y1040000D02*
G03X1243800I-2300J0D01*
G01Y1045000D02*
G03X1243800I-2300J0D01*
G01Y1050000D02*
G03X1243800I-2300J0D01*
G01X1234800Y1057500D02*
G03X1234800I-2300J0D01*
G01X1197477Y863425D02*
G03X1197477I-4799J0D01*
G01X1210303Y1015000D02*
G03X1210303I-6799J0D01*
G01X1294050Y1218500D02*
G03X1294050I-4050J0D01*
G01X1285050D02*
G03X1285050I-4050J0D01*
G01X1289550Y1228500D02*
G03X1289550I-4050J0D01*
G01X1294050Y1238500D02*
G03X1294050I-4050J0D01*
G01X1271300Y1172500D02*
G03X1271300I-2300J0D01*
G01Y1177500D02*
G03X1271300I-2300J0D01*
G01Y1182500D02*
G03X1271300I-2300J0D01*
G01X1276050Y1218500D02*
G03X1276050I-4050J0D01*
G01X1280550Y1228500D02*
G03X1280550I-4050J0D01*
G01X1285050Y1238500D02*
G03X1285050I-4050J0D01*
G01X1261300Y1193500D02*
G03X1261300I-2300J0D01*
G01X1263800Y1197500D02*
G03X1263800I-2300J0D01*
G01X1261300Y1201500D02*
G03X1261300I-2300J0D01*
G01X1267050Y1218500D02*
G03X1267050I-4050J0D01*
G01X1271550Y1228500D02*
G03X1271550I-4050J0D01*
G01X1276050Y1238500D02*
G03X1276050I-4050J0D01*
G01X1258050Y1218500D02*
G03X1258050I-4050J0D01*
G01X1262550Y1228500D02*
G03X1262550I-4050J0D01*
G01X1267300Y1238500D02*
G03X1267300I-4300J0D01*
G01X1253800Y1228500D02*
G03X1253800I-4300J0D01*
G01X1258050Y1238500D02*
G03X1258050I-4050J0D01*
G01X1234600Y1228500D02*
G03X1234600I-12800J0D01*
G01X1193300Y1136000D02*
G03X1193300I-2300J0D01*
G01Y1151000D02*
G03X1193300I-2300J0D01*
G01Y1166000D02*
G03X1193300I-2300J0D01*
G01Y1181000D02*
G03X1193300I-2300J0D01*
G01X1174800Y1130000D02*
G03X1174800I-2300J0D01*
G01Y1145000D02*
G03X1174800I-2300J0D01*
G01Y1160000D02*
G03X1174800I-2300J0D01*
G01Y1175000D02*
G03X1174800I-2300J0D01*
G01X1154800Y1124500D02*
G03X1154800I-2300J0D01*
G01X1127800Y1012600D02*
G03X1127800I-12800J0D01*
G01X952300Y808500D02*
G03X952300I-2300J0D01*
G01X956300Y811000D02*
G03X956300I-2300J0D01*
G01X948300D02*
G03X948300I-2300J0D01*
G01X926985Y813000D02*
G03X926985I-5299J0D01*
G01X928874Y870000D02*
G03X928874I-4799J0D01*
G01X907300Y813000D02*
G03X907300I-5300J0D01*
G01X902300Y870000D02*
G03X902300I-4800J0D01*
G01X887615Y813000D02*
G03X887615I-5299J0D01*
G01X836400Y823600D02*
G03X836400I-12800J0D01*
G01X853200Y874100D02*
G03X853200I-12800J0D01*
G01X850050Y901500D02*
G03X850050I-4050J0D01*
G01Y912400D02*
G03X850050I-4050J0D01*
G01Y923300D02*
G03X850050I-4050J0D01*
G01Y934200D02*
G03X850050I-4050J0D01*
G01Y945100D02*
G03X850050I-4050J0D01*
G01X838850Y906900D02*
G03X838850I-4050J0D01*
G01Y917800D02*
G03X838850I-4050J0D01*
G01Y928700D02*
G03X838850I-4050J0D01*
G01Y939600D02*
G03X838850I-4050J0D01*
G01X853200Y972500D02*
G03X853200I-12800J0D01*
G01X1165050Y1223000D02*
G03X1165050I-3550J0D01*
G01X1155050D02*
G03X1155050I-3550J0D01*
G01X1145050D02*
G03X1145050I-3550J0D01*
G01X1135050D02*
G03X1135050I-3550J0D01*
G01X1125050D02*
G03X1125050I-3550J0D01*
G01X1414750Y1070250D02*
G03X1414750I-4050J0D01*
G01Y1081150D02*
G03X1414750I-4050J0D01*
G01Y1092000D02*
G03X1414750I-4050J0D01*
G01X1403550Y1075700D02*
G03X1403550I-4050J0D01*
G01Y1086600D02*
G03X1403550I-4050J0D01*
G01Y1097500D02*
G03X1403550I-4050J0D01*
G01X1417900Y1124400D02*
G03X1417900I-12800J0D01*
G01X1419100Y1201600D02*
G03X1419100I-12800J0D01*
G01X1420800Y1242000D02*
G03X1420800I-5300J0D01*
G01X1400800D02*
G03X1400800I-5300J0D01*
G01X1410800Y1252000D02*
G03X1410800I-5300J0D01*
G01X1420800Y1262000D02*
G03X1420800I-5300J0D01*
G01X1400800D02*
G03X1400800I-5300J0D01*
G01X1385800Y1212500D02*
G03X1385800I-2300J0D01*
G01X1387300Y1219000D02*
G03X1387300I-2300J0D01*
G01X1380300Y1202500D02*
G03X1380300I-2300J0D01*
G01X1375300Y1217000D02*
G03X1375300I-2300J0D01*
G01X1349800Y1232500D02*
G03X1349800I-2300J0D01*
G01X1231300Y1080000D02*
G03X1231300I-2300J0D01*
G01X1089800Y1196000D02*
G03X1089800I-2300J0D01*
G01X1084800D02*
G03X1084800I-2300J0D01*
G01X1069201Y1169212D02*
G03X1069201I-9299J0D01*
G01X1073500Y1235100D02*
G03X1073500I-12800J0D01*
G01X1045048Y1169212D02*
G03X1045048I-6799J0D01*
G01X1037350Y1229500D02*
G03X1037350I-4050J0D01*
G01X1026450D02*
G03X1026450I-4050J0D01*
G01X1031850Y1240700D02*
G03X1031850I-4050J0D01*
G01X1013300Y1202500D02*
G03X1013300I-2300J0D01*
G01Y1207500D02*
G03X1013300I-2300J0D01*
G01Y1212500D02*
G03X1013300I-2300J0D01*
G01X1015550Y1229500D02*
G03X1015550I-4050J0D01*
G01X1020950Y1240700D02*
G03X1020950I-4050J0D01*
G01X1004650Y1229500D02*
G03X1004650I-4050J0D01*
G01X1010050Y1240700D02*
G03X1010050I-4050J0D01*
G01X993750Y1229500D02*
G03X993750I-4050J0D01*
G01X999150Y1240700D02*
G03X999150I-4050J0D01*
G01X982850Y1229500D02*
G03X982850I-4050J0D01*
G01X988250Y1240700D02*
G03X988250I-4050J0D01*
G01X971950Y1229500D02*
G03X971950I-4050J0D01*
G01X977350Y1240700D02*
G03X977350I-4050J0D01*
G01X961300Y1229500D02*
G03X961300I-4300J0D01*
G01X966700Y1240700D02*
G03X966700I-4300J0D01*
G01X942400Y1235100D02*
G03X942400I-12800J0D01*
G01X915800Y1202500D02*
G03X915800I-2300J0D01*
G01Y1207500D02*
G03X915800I-2300J0D01*
G01Y1212500D02*
G03X915800I-2300J0D01*
G01X874800Y1196000D02*
G03X874800I-2300J0D01*
G01X869800D02*
G03X869800I-2300J0D01*
G01X864800D02*
G03X864800I-2300J0D01*
G01X836400Y1201600D02*
G03X836400I-12800J0D01*
G01X1427099Y802800D02*
Y1062200D01*
X1427099D02*
X1413577D01*
X1407822Y1062199D02*
G03X1413577I2878J-2849D01*
G01X1407822Y1062200D02*
X1402605D01*
X1396394D02*
G03X1402605I3106J2600D01*
G01X1396394D02*
X1209700D01*
Y1097800*
X1319700*
Y1215709*
Y1241290D02*
G03Y1215709I500J-12790D01*
G01Y1241290D02*
Y1269599D01*
X1319700D02*
X1097800D01*
X1097800D02*
Y1170300D01*
X1160300*
Y1137200*
X802800*
Y802800*
X1427099*
Y1065300D02*
Y1269599D01*
X1427099D02*
X1322800D01*
X1322800D02*
Y1241033D01*
X1322799Y1215966D02*
G03Y1241033I-2599J12534D01*
G01X1322800Y1215966D02*
Y1094700D01*
X1212800*
Y1065300*
X1217719*
X1222280Y1065299D02*
G03X1217719I-2280J-299D01*
G01X1222280Y1065300D02*
X1395480D01*
X1403519Y1065299D02*
G03X1395480I-4019J-499D01*
G01X1403519Y1065300D02*
X1427099D01*
X1157200Y1140300D02*
Y1167200D01*
X1094700*
Y1195329*
X1094699Y1196670D02*
G03Y1195329I-2199J-670D01*
G01X1094700Y1196670D02*
Y1269599D01*
X1094700D02*
X802800D01*
X802800D02*
Y1140300D01*
X1157200*
X835015Y1242960D02*
G03X833224Y1241169I670J-2460D01*
G01X833360Y1244373D02*
G03X835015Y1242960I2325J1048D01*
G01X831811Y1242824D02*
G03X833360Y1244373I-1047J2597D01*
G01X833224Y1241169D02*
G03X831811Y1242824I-2460J-669D01*
G01X829715D02*
G03X828303Y1241169I1048J-2324D01*
G01X828167Y1244373D02*
G03X829715Y1242824I2596J1048D01*
G01X826511Y1242960D02*
G03X828167Y1244373I-668J2461D01*
G01X828303Y1241169D02*
G03X826511Y1242960I-2460J-669D01*
G01X1419100Y823600D02*
G03X1419100I-12800J0D01*
G01X1417900Y874400D02*
G03X1417900I-12800J0D01*
G01X1414750Y906750D02*
G03X1414750I-4050J0D01*
G01Y917650D02*
G03X1414750I-4050J0D01*
G01Y928550D02*
G03X1414750I-4050J0D01*
G01Y939450D02*
G03X1414750I-4050J0D01*
G01Y950350D02*
G03X1414750I-4050J0D01*
G01Y961250D02*
G03X1414750I-4050J0D01*
G01Y972150D02*
G03X1414750I-4050J0D01*
G01Y983050D02*
G03X1414750I-4050J0D01*
G01Y993950D02*
G03X1414750I-4050J0D01*
G01Y1004850D02*
G03X1414750I-4050J0D01*
G01Y1015750D02*
G03X1414750I-4050J0D01*
G01Y1026650D02*
G03X1414750I-4050J0D01*
G01Y1037550D02*
G03X1414750I-4050J0D01*
G01Y1048450D02*
G03X1414750I-4050J0D01*
G01X1403550Y901300D02*
G03X1403550I-4050J0D01*
G01Y912200D02*
G03X1403550I-4050J0D01*
G01Y923100D02*
G03X1403550I-4050J0D01*
G01Y934000D02*
G03X1403550I-4050J0D01*
G01Y944900D02*
G03X1403550I-4050J0D01*
G01Y955800D02*
G03X1403550I-4050J0D01*
G01Y966700D02*
G03X1403550I-4050J0D01*
G01Y977600D02*
G03X1403550I-4050J0D01*
G01Y988500D02*
G03X1403550I-4050J0D01*
G01Y999400D02*
G03X1403550I-4050J0D01*
G01Y1010300D02*
G03X1403550I-4050J0D01*
G01Y1021200D02*
G03X1403550I-4050J0D01*
G01Y1032100D02*
G03X1403550I-4050J0D01*
G01Y1043000D02*
G03X1403550I-4050J0D01*
G01Y1053900D02*
G03X1403550I-4050J0D01*
G01X1239800Y863425D02*
G03X1239800I-4800J0D01*
G01Y1015000D02*
G03X1239800I-4800J0D01*
G01X1243800Y1040000D02*
G03X1243800I-2300J0D01*
G01Y1045000D02*
G03X1243800I-2300J0D01*
G01Y1050000D02*
G03X1243800I-2300J0D01*
G01X1234800Y1057500D02*
G03X1234800I-2300J0D01*
G01X1197477Y863425D02*
G03X1197477I-4799J0D01*
G01X1210303Y1015000D02*
G03X1210303I-6799J0D01*
G01X1294050Y1218500D02*
G03X1294050I-4050J0D01*
G01X1285050D02*
G03X1285050I-4050J0D01*
G01X1289550Y1228500D02*
G03X1289550I-4050J0D01*
G01X1294050Y1238500D02*
G03X1294050I-4050J0D01*
G01X1271300Y1172500D02*
G03X1271300I-2300J0D01*
G01Y1177500D02*
G03X1271300I-2300J0D01*
G01Y1182500D02*
G03X1271300I-2300J0D01*
G01X1276050Y1218500D02*
G03X1276050I-4050J0D01*
G01X1280550Y1228500D02*
G03X1280550I-4050J0D01*
G01X1285050Y1238500D02*
G03X1285050I-4050J0D01*
G01X1261300Y1193500D02*
G03X1261300I-2300J0D01*
G01X1263800Y1197500D02*
G03X1263800I-2300J0D01*
G01X1261300Y1201500D02*
G03X1261300I-2300J0D01*
G01X1267050Y1218500D02*
G03X1267050I-4050J0D01*
G01X1271550Y1228500D02*
G03X1271550I-4050J0D01*
G01X1276050Y1238500D02*
G03X1276050I-4050J0D01*
G01X1258050Y1218500D02*
G03X1258050I-4050J0D01*
G01X1262550Y1228500D02*
G03X1262550I-4050J0D01*
G01X1267300Y1238500D02*
G03X1267300I-4300J0D01*
G01X1253800Y1228500D02*
G03X1253800I-4300J0D01*
G01X1258050Y1238500D02*
G03X1258050I-4050J0D01*
G01X1234600Y1228500D02*
G03X1234600I-12800J0D01*
G01X1193300Y1136000D02*
G03X1193300I-2300J0D01*
G01Y1151000D02*
G03X1193300I-2300J0D01*
G01Y1166000D02*
G03X1193300I-2300J0D01*
G01Y1181000D02*
G03X1193300I-2300J0D01*
G01X1174800Y1130000D02*
G03X1174800I-2300J0D01*
G01Y1145000D02*
G03X1174800I-2300J0D01*
G01Y1160000D02*
G03X1174800I-2300J0D01*
G01Y1175000D02*
G03X1174800I-2300J0D01*
G01X1154800Y1124500D02*
G03X1154800I-2300J0D01*
G01X1127800Y1012600D02*
G03X1127800I-12800J0D01*
G01X952300Y808500D02*
G03X952300I-2300J0D01*
G01X956300Y811000D02*
G03X956300I-2300J0D01*
G01X948300D02*
G03X948300I-2300J0D01*
G01X926985Y813000D02*
G03X926985I-5299J0D01*
G01X928874Y870000D02*
G03X928874I-4799J0D01*
G01X907300Y813000D02*
G03X907300I-5300J0D01*
G01X902300Y870000D02*
G03X902300I-4800J0D01*
G01X887615Y813000D02*
G03X887615I-5299J0D01*
G01X836400Y823600D02*
G03X836400I-12800J0D01*
G01X853200Y874100D02*
G03X853200I-12800J0D01*
G01X850050Y901500D02*
G03X850050I-4050J0D01*
G01Y912400D02*
G03X850050I-4050J0D01*
G01Y923300D02*
G03X850050I-4050J0D01*
G01Y934200D02*
G03X850050I-4050J0D01*
G01Y945100D02*
G03X850050I-4050J0D01*
G01X838850Y906900D02*
G03X838850I-4050J0D01*
G01Y917800D02*
G03X838850I-4050J0D01*
G01Y928700D02*
G03X838850I-4050J0D01*
G01Y939600D02*
G03X838850I-4050J0D01*
G01X853200Y972500D02*
G03X853200I-12800J0D01*
G01X1165050Y1223000D02*
G03X1165050I-3550J0D01*
G01X1155050D02*
G03X1155050I-3550J0D01*
G01X1145050D02*
G03X1145050I-3550J0D01*
G01X1135050D02*
G03X1135050I-3550J0D01*
G01X1125050D02*
G03X1125050I-3550J0D01*
G01X1414750Y1070250D02*
G03X1414750I-4050J0D01*
G01Y1081150D02*
G03X1414750I-4050J0D01*
G01Y1092000D02*
G03X1414750I-4050J0D01*
G01X1403550Y1075700D02*
G03X1403550I-4050J0D01*
G01Y1086600D02*
G03X1403550I-4050J0D01*
G01Y1097500D02*
G03X1403550I-4050J0D01*
G01X1417900Y1124400D02*
G03X1417900I-12800J0D01*
G01X1419100Y1201600D02*
G03X1419100I-12800J0D01*
G01X1420800Y1242000D02*
G03X1420800I-5300J0D01*
G01X1400800D02*
G03X1400800I-5300J0D01*
G01X1410800Y1252000D02*
G03X1410800I-5300J0D01*
G01X1420800Y1262000D02*
G03X1420800I-5300J0D01*
G01X1400800D02*
G03X1400800I-5300J0D01*
G01X1385800Y1212500D02*
G03X1385800I-2300J0D01*
G01X1387300Y1219000D02*
G03X1387300I-2300J0D01*
G01X1380300Y1202500D02*
G03X1380300I-2300J0D01*
G01X1375300Y1217000D02*
G03X1375300I-2300J0D01*
G01X1349800Y1232500D02*
G03X1349800I-2300J0D01*
G01X1231300Y1080000D02*
G03X1231300I-2300J0D01*
G01X1089800Y1196000D02*
G03X1089800I-2300J0D01*
G01X1084800D02*
G03X1084800I-2300J0D01*
G01X1069201Y1169212D02*
G03X1069201I-9299J0D01*
G01X1073500Y1235100D02*
G03X1073500I-12800J0D01*
G01X1045048Y1169212D02*
G03X1045048I-6799J0D01*
G01X1037350Y1229500D02*
G03X1037350I-4050J0D01*
G01X1026450D02*
G03X1026450I-4050J0D01*
G01X1031850Y1240700D02*
G03X1031850I-4050J0D01*
G01X1013300Y1202500D02*
G03X1013300I-2300J0D01*
G01Y1207500D02*
G03X1013300I-2300J0D01*
G01Y1212500D02*
G03X1013300I-2300J0D01*
G01X1015550Y1229500D02*
G03X1015550I-4050J0D01*
G01X1020950Y1240700D02*
G03X1020950I-4050J0D01*
G01X1004650Y1229500D02*
G03X1004650I-4050J0D01*
G01X1010050Y1240700D02*
G03X1010050I-4050J0D01*
G01X993750Y1229500D02*
G03X993750I-4050J0D01*
G01X999150Y1240700D02*
G03X999150I-4050J0D01*
G01X982850Y1229500D02*
G03X982850I-4050J0D01*
G01X988250Y1240700D02*
G03X988250I-4050J0D01*
G01X971950Y1229500D02*
G03X971950I-4050J0D01*
G01X977350Y1240700D02*
G03X977350I-4050J0D01*
G01X961300Y1229500D02*
G03X961300I-4300J0D01*
G01X966700Y1240700D02*
G03X966700I-4300J0D01*
G01X942400Y1235100D02*
G03X942400I-12800J0D01*
G01X915800Y1202500D02*
G03X915800I-2300J0D01*
G01Y1207500D02*
G03X915800I-2300J0D01*
G01Y1212500D02*
G03X915800I-2300J0D01*
G01X874800Y1196000D02*
G03X874800I-2300J0D01*
G01X869800D02*
G03X869800I-2300J0D01*
G01X864800D02*
G03X864800I-2300J0D01*
G01X836400Y1201600D02*
G03X836400I-12800J0D01*
G01X851118Y1242960D02*
G03X847988Y1246090I-669J2461D01*
G01Y1239830D02*
G03X851118Y1242960I2460J670D01*
G01X843066Y1239830D02*
G03X847988I2461J670D01*
G01X838145D02*
G03X843066I2461J670D01*
G01X833224D02*
G03X838145I2461J670D01*
G01X828303D02*
G03X833224I2460J670D01*
G01X823381D02*
G03X828303I2461J670D01*
G01X818460D02*
G03X823381I2461J670D01*
G01X815330Y1242960D02*
G03X818460Y1239830I670J-2460D01*
G01Y1246090D02*
G03X815330Y1242960I-2460J-668D01*
G01X823381Y1246090D02*
G03X818460I-2459J-668D01*
G01X828167Y1246469D02*
G03X823381Y1246090I-2324J-1047D01*
G01X833360Y1246469D02*
G03X828167I-2596J-1047D01*
G01X838145Y1246090D02*
G03X833360Y1246469I-2459J-668D01*
G01X843066Y1246090D02*
G03X838145I-2459J-668D01*
G01X847988D02*
G03X843066I-2460J-668D01*
G01X1413763Y1061998D02*
X1427099D01*
X1414157Y1061458D02*
X1427099D01*
X1414433Y1060918D02*
X1427099D01*
X1414617Y1060378D02*
X1427099D01*
X1414720Y1059838D02*
X1427099D01*
X1414749Y1059298D02*
X1427099D01*
X1414706Y1058758D02*
X1427099D01*
X1414588Y1058218D02*
X1427099D01*
X1414389Y1057678D02*
X1427099D01*
X1414093Y1057138D02*
X1427099D01*
X1413672Y1056598D02*
X1427099D01*
X1413060Y1056058D02*
X1427099D01*
X1412012Y1055518D02*
X1427099D01*
X1403403Y1054978D02*
X1427099D01*
X1403514Y1054438D02*
X1427099D01*
X1403550Y1053898D02*
X1427099D01*
X1403513Y1053358D02*
X1427099D01*
X1403403Y1052818D02*
X1427099D01*
X1412020Y1052278D02*
X1427099D01*
X1413063Y1051738D02*
X1427099D01*
X1413674Y1051198D02*
X1427099D01*
X1414094Y1050658D02*
X1427099D01*
X1414390Y1050118D02*
X1427099D01*
X1414589Y1049578D02*
X1427099D01*
X1414707Y1049038D02*
X1427099D01*
X1414749Y1048498D02*
X1427099D01*
X1414720Y1047958D02*
X1427099D01*
X1414616Y1047418D02*
X1427099D01*
X1414432Y1046878D02*
X1427099D01*
X1414156Y1046338D02*
X1427099D01*
X1413761Y1045798D02*
X1427099D01*
X1413193Y1045258D02*
X1427099D01*
X1412274Y1044718D02*
X1427099D01*
X1403374Y1044178D02*
X1427099D01*
X1403499Y1043638D02*
X1427099D01*
X1403548Y1043098D02*
X1427099D01*
X1403525Y1042558D02*
X1427099D01*
X1403429Y1042018D02*
X1427099D01*
X1411683Y1041478D02*
X1427099D01*
X1412917Y1040938D02*
X1427099D01*
X1413578Y1040398D02*
X1427099D01*
X1414027Y1039858D02*
X1427099D01*
X1414343Y1039318D02*
X1427099D01*
X1414559Y1038778D02*
X1427099D01*
X1414691Y1038238D02*
X1427099D01*
X1414747Y1037698D02*
X1427099D01*
X1414731Y1037158D02*
X1427099D01*
X1414641Y1036618D02*
X1427099D01*
X1414473Y1036078D02*
X1427099D01*
X1414215Y1035538D02*
X1427099D01*
X1413845Y1034998D02*
X1427099D01*
X1413316Y1034458D02*
X1427099D01*
X1412493Y1033918D02*
X1427099D01*
X1403342Y1033378D02*
X1427099D01*
X1403482Y1032838D02*
X1427099D01*
X1403545Y1032298D02*
X1427099D01*
X1403535Y1031758D02*
X1427099D01*
X1403452Y1031218D02*
X1427099D01*
X1411114Y1030678D02*
X1427099D01*
X1412757Y1030138D02*
X1427099D01*
X1413476Y1029598D02*
X1427099D01*
X1413955Y1029058D02*
X1427099D01*
X1414293Y1028518D02*
X1427099D01*
X1414525Y1027978D02*
X1427099D01*
X1414672Y1027438D02*
X1427099D01*
X1414742Y1026898D02*
X1427099D01*
X1414739Y1026358D02*
X1427099D01*
X1414663Y1025818D02*
X1427099D01*
X1414510Y1025278D02*
X1427099D01*
X1414270Y1024738D02*
X1427099D01*
X1413923Y1024198D02*
X1427099D01*
X1413430Y1023658D02*
X1427099D01*
X1412683Y1023118D02*
X1427099D01*
X1403308Y1022578D02*
X1427099D01*
X1403462Y1022038D02*
X1427099D01*
X1403538Y1021498D02*
X1427099D01*
X1403542Y1020958D02*
X1427099D01*
X1403473Y1020418D02*
X1427099D01*
X1403328Y1019878D02*
X1427099D01*
X1412577Y1019338D02*
X1427099D01*
X1413366Y1018798D02*
X1427099D01*
X1413879Y1018258D02*
X1427099D01*
X1414239Y1017718D02*
X1427099D01*
X1414489Y1017178D02*
X1427099D01*
X1414651Y1016638D02*
X1427099D01*
X1414734Y1016098D02*
X1427099D01*
X1414745Y1015558D02*
X1427099D01*
X1414683Y1015018D02*
X1427099D01*
X1414545Y1014478D02*
X1427099D01*
X1414322Y1013938D02*
X1427099D01*
X1413997Y1013398D02*
X1427099D01*
X1413536Y1012858D02*
X1427099D01*
X1412851Y1012318D02*
X1427099D01*
X1411494Y1011778D02*
X1427099D01*
X1403439Y1011238D02*
X1427099D01*
X1403530Y1010698D02*
X1427099D01*
X1403547Y1010158D02*
X1427099D01*
X1403492Y1009618D02*
X1427099D01*
X1403361Y1009078D02*
X1427099D01*
X1412372Y1008538D02*
X1427099D01*
X1413247Y1007998D02*
X1427099D01*
X1413797Y1007458D02*
X1427099D01*
X1414181Y1006918D02*
X1427099D01*
X1414450Y1006378D02*
X1427099D01*
X1414627Y1005838D02*
X1427099D01*
X1414725Y1005298D02*
X1427099D01*
X1414748Y1004758D02*
X1427099D01*
X1414700Y1004218D02*
X1427099D01*
X1414576Y1003678D02*
X1427099D01*
X1414370Y1003138D02*
X1427099D01*
X1414066Y1002598D02*
X1427099D01*
X1413634Y1002058D02*
X1427099D01*
X1413003Y1001518D02*
X1427099D01*
X1411889Y1000978D02*
X1427099D01*
X1403414Y1000438D02*
X1427099D01*
X1403519Y999898D02*
X1427099D01*
X1403549Y999358D02*
X1427099D01*
X1403508Y998818D02*
X1427099D01*
X1403391Y998278D02*
X1427099D01*
X1412131Y997738D02*
X1427099D01*
X1413118Y997198D02*
X1427099D01*
X1413710Y996658D02*
X1427099D01*
X1414120Y996118D02*
X1427099D01*
X1414408Y995578D02*
X1427099D01*
X1414600Y995038D02*
X1427099D01*
X1414712Y994498D02*
X1427099D01*
X1414750Y993958D02*
X1427099D01*
X1414715Y993418D02*
X1427099D01*
X1414605Y992878D02*
X1427099D01*
X1414415Y992338D02*
X1427099D01*
X1414131Y991798D02*
X1427099D01*
X1413726Y991258D02*
X1427099D01*
X1413141Y990718D02*
X1427099D01*
X1412176Y990178D02*
X1427099D01*
X1403386Y989638D02*
X1427099D01*
X1403505Y989098D02*
X1427099D01*
X1403549Y988558D02*
X1427099D01*
X1403521Y988018D02*
X1427099D01*
X1403419Y987478D02*
X1427099D01*
X1411831Y986938D02*
X1427099D01*
X1412977Y986398D02*
X1427099D01*
X1413617Y985858D02*
X1427099D01*
X1414054Y985318D02*
X1427099D01*
X1414362Y984778D02*
X1427099D01*
X1414571Y984238D02*
X1427099D01*
X1414697Y983698D02*
X1427099D01*
X1414748Y983158D02*
X1427099D01*
X1414726Y982618D02*
X1427099D01*
X1414631Y982078D02*
X1427099D01*
X1414457Y981538D02*
X1427099D01*
X1414192Y980998D02*
X1427099D01*
X1413812Y980458D02*
X1427099D01*
X1413268Y979918D02*
X1427099D01*
X1412410Y979378D02*
X1427099D01*
X1403355Y978838D02*
X1427099D01*
X1403489Y978298D02*
X1427099D01*
X1403546Y977758D02*
X1427099D01*
X1403532Y977218D02*
X1427099D01*
X1403443Y976678D02*
X1427099D01*
X1411402Y976138D02*
X1427099D01*
X1412823Y975598D02*
X1427099D01*
X1413518Y975058D02*
X1427099D01*
X1413985Y974518D02*
X1427099D01*
X1414313Y973978D02*
X1427099D01*
X1414539Y973438D02*
X1427099D01*
X1414680Y972898D02*
X1427099D01*
X1414744Y972358D02*
X1427099D01*
X1414736Y971818D02*
X1427099D01*
X1414655Y971278D02*
X1427099D01*
X1414496Y970738D02*
X1427099D01*
X1414248Y970198D02*
X1427099D01*
X1413893Y969658D02*
X1427099D01*
X1413385Y969118D02*
X1427099D01*
X1412610Y968578D02*
X1427099D01*
X1403322Y968038D02*
X1427099D01*
X1403470Y967498D02*
X1427099D01*
X1403541Y966958D02*
X1427099D01*
X1403540Y966418D02*
X1427099D01*
X1403465Y965878D02*
X1427099D01*
X1403314Y965338D02*
X1427099D01*
X1412651Y964798D02*
X1427099D01*
X1413411Y964258D02*
X1427099D01*
X1413910Y963718D02*
X1427099D01*
X1414261Y963178D02*
X1427099D01*
X1414504Y962638D02*
X1427099D01*
X1414660Y962098D02*
X1427099D01*
X1414738Y961558D02*
X1427099D01*
X1414743Y961018D02*
X1427099D01*
X1414675Y960478D02*
X1427099D01*
X1414531Y959938D02*
X1427099D01*
X1414302Y959398D02*
X1427099D01*
X1413968Y958858D02*
X1427099D01*
X1413494Y958318D02*
X1427099D01*
X1412786Y957778D02*
X1427099D01*
X1411258Y957238D02*
X1427099D01*
X1403449Y956698D02*
X1427099D01*
X1403534Y956158D02*
X1427099D01*
X1403545Y955618D02*
X1427099D01*
X1403485Y955078D02*
X1427099D01*
X1403348Y954538D02*
X1427099D01*
X1412457Y953998D02*
X1427099D01*
X1413295Y953458D02*
X1427099D01*
X1413831Y952918D02*
X1427099D01*
X1414205Y952378D02*
X1427099D01*
X1414466Y951838D02*
X1427099D01*
X1414637Y951298D02*
X1427099D01*
X1414729Y950758D02*
X1427099D01*
X1414747Y950218D02*
X1427099D01*
X1414694Y949678D02*
X1427099D01*
X1414564Y949138D02*
X1427099D01*
X1414351Y948598D02*
X1427099D01*
X1414039Y948058D02*
X1427099D01*
X1413595Y947518D02*
X1427099D01*
X1412944Y946978D02*
X1427099D01*
X1411750Y946438D02*
X1427099D01*
X1403424Y945898D02*
X1427099D01*
X1403523Y945358D02*
X1427099D01*
X1403549Y944818D02*
X1427099D01*
X1403502Y944278D02*
X1427099D01*
X1403379Y943738D02*
X1427099D01*
X1412232Y943198D02*
X1427099D01*
X1413171Y942658D02*
X1427099D01*
X1413746Y942118D02*
X1427099D01*
X1414145Y941578D02*
X1427099D01*
X1414425Y941038D02*
X1427099D01*
X1414611Y940498D02*
X1427099D01*
X1414717Y939958D02*
X1427099D01*
X1414749Y939418D02*
X1427099D01*
X1414709Y938878D02*
X1427099D01*
X1414594Y938338D02*
X1427099D01*
X1414398Y937798D02*
X1427099D01*
X1414106Y937258D02*
X1427099D01*
X1413690Y936718D02*
X1427099D01*
X1413087Y936178D02*
X1427099D01*
X1412069Y935638D02*
X1427099D01*
X1403398Y935098D02*
X1427099D01*
X1403511Y934558D02*
X1427099D01*
X1403549Y934018D02*
X1427099D01*
X1403516Y933478D02*
X1427099D01*
X1403408Y932938D02*
X1427099D01*
X1411960Y932398D02*
X1427099D01*
X1413035Y931858D02*
X1427099D01*
X1413655Y931318D02*
X1427099D01*
X1414081Y930778D02*
X1427099D01*
X1414381Y930238D02*
X1427099D01*
X1414583Y929698D02*
X1427099D01*
X1414704Y929158D02*
X1427099D01*
X1414749Y928618D02*
X1427099D01*
X1414722Y928078D02*
X1427099D01*
X1414621Y927538D02*
X1427099D01*
X1414441Y926998D02*
X1427099D01*
X1414168Y926458D02*
X1427099D01*
X1413778Y925918D02*
X1427099D01*
X1413219Y925378D02*
X1427099D01*
X1412321Y924838D02*
X1427099D01*
X1403368Y924298D02*
X1427099D01*
X1403496Y923758D02*
X1427099D01*
X1403548Y923218D02*
X1427099D01*
X1403528Y922678D02*
X1427099D01*
X1403434Y922138D02*
X1427099D01*
X1411600Y921598D02*
X1427099D01*
X1412887Y921058D02*
X1427099D01*
X1413558Y920518D02*
X1427099D01*
X1414013Y919978D02*
X1427099D01*
X1414333Y919438D02*
X1427099D01*
X1414552Y918898D02*
X1427099D01*
X1414687Y918358D02*
X1427099D01*
X1414746Y917818D02*
X1427099D01*
X1414732Y917278D02*
X1427099D01*
X1414646Y916738D02*
X1427099D01*
X1414481Y916198D02*
X1427099D01*
X1414226Y915658D02*
X1427099D01*
X1413861Y915118D02*
X1427099D01*
X1413340Y914578D02*
X1427099D01*
X1412533Y914038D02*
X1427099D01*
X1403336Y913498D02*
X1427099D01*
X1403478Y912958D02*
X1427099D01*
X1403544Y912418D02*
X1427099D01*
X1403537Y911878D02*
X1427099D01*
X1403457Y911338D02*
X1427099D01*
X1410803Y910798D02*
X1427099D01*
X1412722Y910258D02*
X1427099D01*
X1413454Y909718D02*
X1427099D01*
X1413940Y909178D02*
X1427099D01*
X1414282Y908638D02*
X1427099D01*
X1414518Y908098D02*
X1427099D01*
X1414668Y907558D02*
X1427099D01*
X1414741Y907018D02*
X1427099D01*
X1414740Y906478D02*
X1427099D01*
X1414667Y905938D02*
X1427099D01*
X1414517Y905398D02*
X1427099D01*
X1414281Y904858D02*
X1427099D01*
X1413939Y904318D02*
X1427099D01*
X1413452Y903778D02*
X1427099D01*
X1412718Y903238D02*
X1427099D01*
X1403300Y902698D02*
X1427099D01*
X1403457Y902158D02*
X1427099D01*
X1403537Y901618D02*
X1427099D01*
X1403543Y901078D02*
X1427099D01*
X1403477Y900538D02*
X1427099D01*
X1403335Y899998D02*
X1427099D01*
X1403107Y899458D02*
X1427099D01*
X1402775Y898918D02*
X1427099D01*
X1402305Y898378D02*
X1427099D01*
X1401602Y897838D02*
X1427099D01*
X1400126Y897298D02*
X1427099D01*
X802800Y896758D02*
X1427099D01*
X802800Y896218D02*
X1427099D01*
X802800Y895678D02*
X1427099D01*
X802800Y895138D02*
X1427099D01*
X802800Y894598D02*
X1427099D01*
X802800Y894058D02*
X1427099D01*
X802800Y893518D02*
X1427099D01*
X802800Y892978D02*
X1427099D01*
X802800Y892438D02*
X1427099D01*
X802800Y891898D02*
X1427099D01*
X802800Y891358D02*
X1427099D01*
X802800Y890818D02*
X1427099D01*
X802800Y890278D02*
X1427099D01*
X802800Y889738D02*
X1427099D01*
X802800Y889198D02*
X1427099D01*
X802800Y888658D02*
X1427099D01*
X802800Y888118D02*
X1427099D01*
X802800Y887578D02*
X1427099D01*
X1407125Y887038D02*
X1427099D01*
X1409278Y886498D02*
X1427099D01*
X1410598Y885958D02*
X1427099D01*
X1411613Y885418D02*
X1427099D01*
X1412451Y884878D02*
X1427099D01*
X1413166Y884338D02*
X1427099D01*
X1413789Y883798D02*
X1427099D01*
X1414339Y883258D02*
X1427099D01*
X1414828Y882718D02*
X1427099D01*
X1415265Y882178D02*
X1427099D01*
X1415656Y881638D02*
X1427099D01*
X1416007Y881098D02*
X1427099D01*
X1416321Y880558D02*
X1427099D01*
X1416600Y880018D02*
X1427099D01*
X1416849Y879478D02*
X1427099D01*
X1417068Y878938D02*
X1427099D01*
X1417259Y878398D02*
X1427099D01*
X1417423Y877858D02*
X1427099D01*
X1417562Y877318D02*
X1427099D01*
X1417677Y876778D02*
X1427099D01*
X1417767Y876238D02*
X1427099D01*
X1417833Y875698D02*
X1427099D01*
X1417877Y875158D02*
X1427099D01*
X1417898Y874618D02*
X1427099D01*
X1417895Y874078D02*
X1427099D01*
X1417871Y873538D02*
X1427099D01*
X1417823Y872998D02*
X1427099D01*
X1417751Y872458D02*
X1427099D01*
X1417657Y871918D02*
X1427099D01*
X1417538Y871378D02*
X1427099D01*
X1417394Y870838D02*
X1427099D01*
X1417225Y870298D02*
X1427099D01*
X1417028Y869758D02*
X1427099D01*
X1416804Y869218D02*
X1427099D01*
X1416550Y868678D02*
X1427099D01*
X1416264Y868138D02*
X1427099D01*
X1415943Y867598D02*
X1427099D01*
X1415585Y867058D02*
X1427099D01*
X1415185Y866518D02*
X1427099D01*
X1414739Y865978D02*
X1427099D01*
X1414239Y865438D02*
X1427099D01*
X1413677Y864898D02*
X1427099D01*
X1413038Y864358D02*
X1427099D01*
X1412302Y863818D02*
X1427099D01*
X1411436Y863278D02*
X1427099D01*
X1410377Y862738D02*
X1427099D01*
X1408968Y862198D02*
X1427099D01*
X1406324Y861658D02*
X1427099D01*
X1239209Y861118D02*
X1427099D01*
X1238864Y860578D02*
X1427099D01*
X1238401Y860038D02*
X1427099D01*
X1237760Y859498D02*
X1427099D01*
X1236758Y858958D02*
X1427099D01*
X802800Y858418D02*
X1427099D01*
X802800Y857878D02*
X1427099D01*
X802800Y857338D02*
X1427099D01*
X802800Y856798D02*
X1427099D01*
X802800Y856258D02*
X1427099D01*
X802800Y855718D02*
X1427099D01*
X802800Y855178D02*
X1427099D01*
X802800Y854638D02*
X1427099D01*
X802800Y854098D02*
X1427099D01*
X802800Y853558D02*
X1427099D01*
X802800Y853018D02*
X1427099D01*
X802800Y852478D02*
X1427099D01*
X802800Y851938D02*
X1427099D01*
X802800Y851398D02*
X1427099D01*
X802800Y850858D02*
X1427099D01*
X802800Y850318D02*
X1427099D01*
X802800Y849778D02*
X1427099D01*
X802800Y849238D02*
X1427099D01*
X802800Y848698D02*
X1427099D01*
X802800Y848158D02*
X1427099D01*
X802800Y847618D02*
X1427099D01*
X802800Y847078D02*
X1427099D01*
X802800Y846538D02*
X1427099D01*
X802800Y845998D02*
X1427099D01*
X802800Y845458D02*
X1427099D01*
X802800Y844918D02*
X1427099D01*
X802800Y844378D02*
X1427099D01*
X802800Y843838D02*
X1427099D01*
X802800Y843298D02*
X1427099D01*
X802800Y842758D02*
X1427099D01*
X802800Y842218D02*
X1427099D01*
X802800Y841678D02*
X1427099D01*
X802800Y841138D02*
X1427099D01*
X802800Y840598D02*
X1427099D01*
X802800Y840058D02*
X1427099D01*
X802800Y839518D02*
X1427099D01*
X802800Y838978D02*
X1427099D01*
X802800Y838438D02*
X1427099D01*
X802800Y837898D02*
X1427099D01*
X802800Y837358D02*
X1427099D01*
X802800Y836818D02*
X1427099D01*
X1408058Y836278D02*
X1427099D01*
X1410361Y835738D02*
X1427099D01*
X1411713Y835198D02*
X1427099D01*
X1412745Y834658D02*
X1427099D01*
X1413593Y834118D02*
X1427099D01*
X1414316Y833578D02*
X1427099D01*
X1414945Y833038D02*
X1427099D01*
X1415500Y832498D02*
X1427099D01*
X1415993Y831958D02*
X1427099D01*
X1416434Y831418D02*
X1427099D01*
X1416829Y830878D02*
X1427099D01*
X1417182Y830338D02*
X1427099D01*
X1417498Y829798D02*
X1427099D01*
X1417781Y829258D02*
X1427099D01*
X1418031Y828718D02*
X1427099D01*
X1418253Y828178D02*
X1427099D01*
X1418446Y827638D02*
X1427099D01*
X1418612Y827098D02*
X1427099D01*
X1418753Y826558D02*
X1427099D01*
X1418869Y826018D02*
X1427099D01*
X1418961Y825478D02*
X1427099D01*
X1419029Y824938D02*
X1427099D01*
X1419075Y824398D02*
X1427099D01*
X1419097Y823858D02*
X1427099D01*
X1419096Y823318D02*
X1427099D01*
X1419073Y822778D02*
X1427099D01*
X1419027Y822238D02*
X1427099D01*
X1418958Y821698D02*
X1427099D01*
X1418865Y821158D02*
X1427099D01*
X1418747Y820618D02*
X1427099D01*
X1418606Y820078D02*
X1427099D01*
X1418438Y819538D02*
X1427099D01*
X1418244Y818998D02*
X1427099D01*
X1418022Y818458D02*
X1427099D01*
X1417770Y817918D02*
X1427099D01*
X1417486Y817378D02*
X1427099D01*
X1417168Y816838D02*
X1427099D01*
X1416813Y816298D02*
X1427099D01*
X1416417Y815758D02*
X1427099D01*
X1415974Y815218D02*
X1427099D01*
X1415478Y814678D02*
X1427099D01*
X1414921Y814138D02*
X1427099D01*
X1414288Y813598D02*
X1427099D01*
X1413560Y813058D02*
X1427099D01*
X1412706Y812518D02*
X1427099D01*
X1411665Y811978D02*
X1427099D01*
X1410292Y811438D02*
X1427099D01*
X1407886Y810898D02*
X1427099D01*
X956208Y810358D02*
X1427099D01*
X955973Y809818D02*
X1427099D01*
X955525Y809278D02*
X1427099D01*
X954420Y808738D02*
X1427099D01*
X952280Y808198D02*
X1427099D01*
X952140Y807658D02*
X1427099D01*
X951839Y807118D02*
X1427099D01*
X951264Y806578D02*
X1427099D01*
X802800Y806038D02*
X1427099D01*
X802800Y805498D02*
X1427099D01*
X802800Y804958D02*
X1427099D01*
X802800Y804418D02*
X1427099D01*
X802800Y803878D02*
X1427099D01*
X802800Y803338D02*
X1427099D01*
X1403299Y910798D02*
X1410596D01*
X1403292Y1030678D02*
X1410285D01*
X1403285Y957238D02*
X1410141D01*
X1403277Y976138D02*
X1409997D01*
X1403270Y1011778D02*
X1409905D01*
X1403261Y921598D02*
X1409799D01*
X1403253Y1041478D02*
X1409716D01*
X1403246Y946438D02*
X1409649D01*
X1403236Y986938D02*
X1409568D01*
X1403229Y1000978D02*
X1409510D01*
X1403220Y932398D02*
X1409439D01*
X1403212Y1055518D02*
X1409387D01*
X1403211Y1052278D02*
X1409379D01*
X1403203Y935638D02*
X1409330D01*
X1403193Y997738D02*
X1409268D01*
X1403185Y990178D02*
X1409223D01*
X1403175Y943198D02*
X1409167D01*
X1403167Y1044718D02*
X1409125D01*
X1403157Y924838D02*
X1409078D01*
X1403146Y1008538D02*
X1409027D01*
X1403138Y979378D02*
X1408989D01*
X1403127Y953998D02*
X1408942D01*
X1403118Y1033918D02*
X1408906D01*
X1403108Y914038D02*
X1408866D01*
X1403096Y1019338D02*
X1408822D01*
X1403087Y968578D02*
X1408789D01*
X1403075Y964798D02*
X1408748D01*
X1403066Y1023118D02*
X1408716D01*
X1403055Y903238D02*
X1408681D01*
X1403054Y910258D02*
X1408677D01*
X1403043Y1030138D02*
X1408642D01*
X1403033Y957778D02*
X1408613D01*
X1403021Y975598D02*
X1408576D01*
X1403011Y1012318D02*
X1408548D01*
X1402997Y921058D02*
X1408512D01*
X1402986Y1040938D02*
X1408482D01*
X1402975Y946978D02*
X1408455D01*
X1402962Y986398D02*
X1408422D01*
X1402951Y1001518D02*
X1408396D01*
X1402937Y931858D02*
X1408364D01*
X1402926Y1056058D02*
X1408339D01*
X1402925Y1051738D02*
X1408336D01*
X1402914Y936178D02*
X1408312D01*
X1402899Y997198D02*
X1408281D01*
X1402888Y990718D02*
X1408258D01*
X1402873Y942658D02*
X1408228D01*
X1402861Y1045258D02*
X1408206D01*
X1402848Y925378D02*
X1408180D01*
X1402832Y1007998D02*
X1408152D01*
X1402820Y979918D02*
X1408131D01*
X1402804Y953458D02*
X1408104D01*
X1402792Y1034458D02*
X1408083D01*
X1402777Y914578D02*
X1408059D01*
X1402761Y1018798D02*
X1408033D01*
X1402748Y969118D02*
X1408014D01*
X1402731Y964258D02*
X1407988D01*
X1402718Y1023658D02*
X1407969D01*
X1402702Y903778D02*
X1407947D01*
X1402700Y909718D02*
X1407945D01*
X1402685Y1029598D02*
X1407923D01*
X1402671Y958318D02*
X1407905D01*
X1402653Y975058D02*
X1407881D01*
X1402639Y1012858D02*
X1407863D01*
X1402620Y920518D02*
X1407841D01*
X1402604Y1040398D02*
X1407821D01*
X1402589Y947518D02*
X1407804D01*
X1402570Y985858D02*
X1407782D01*
X1402555Y1002058D02*
X1407765D01*
X1402535Y931318D02*
X1407744D01*
X1402519Y1056598D02*
X1407727D01*
X1402517Y1051198D02*
X1407725D01*
X1402501Y936718D02*
X1407709D01*
X1402481Y996658D02*
X1407689D01*
X1402465Y991258D02*
X1407673D01*
X1402443Y942118D02*
X1407653D01*
X1402427Y1045798D02*
X1407638D01*
X1402424Y1061998D02*
X1407636D01*
X1402408Y925918D02*
X1407621D01*
X1402386Y1007458D02*
X1407602D01*
X1402368Y980458D02*
X1407587D01*
X1402346Y952918D02*
X1407568D01*
X1402328Y1034998D02*
X1407554D01*
X1402307Y915118D02*
X1407538D01*
X1402284Y1018258D02*
X1407520D01*
X1402265Y969658D02*
X1407506D01*
X1402241Y963718D02*
X1407489D01*
X1402222Y1024198D02*
X1407476D01*
X1402200Y904318D02*
X1407460D01*
X1402197Y909178D02*
X1407459D01*
X1402174Y1029058D02*
X1407444D01*
X1402154Y958858D02*
X1407431D01*
X1402128Y974518D02*
X1407414D01*
X1402107Y1013398D02*
X1407402D01*
X1402080Y919978D02*
X1407386D01*
X1402056Y1039858D02*
X1407372D01*
X1402034Y948058D02*
X1407360D01*
X1402006Y985318D02*
X1407345D01*
X1401984Y1002598D02*
X1407333D01*
X1401954Y930778D02*
X1407318D01*
X1401931Y1057138D02*
X1407306D01*
X1401928Y1050658D02*
X1407305D01*
X1401904Y937258D02*
X1407293D01*
X1401873Y996118D02*
X1407279D01*
X1401849Y991798D02*
X1407268D01*
X1401817Y941578D02*
X1407254D01*
X1401792Y1046338D02*
X1407243D01*
X1401788Y1061458D02*
X1407242D01*
X1401763Y926458D02*
X1407231D01*
X1401729Y1006918D02*
X1407218D01*
X1401702Y980998D02*
X1407207D01*
X1401667Y952378D02*
X1407194D01*
X1401639Y1035538D02*
X1407184D01*
X1401607Y915658D02*
X1407173D01*
X1401569Y1017718D02*
X1407160D01*
X1401540Y970198D02*
X1407151D01*
X1401500Y963178D02*
X1407138D01*
X1401469Y1024738D02*
X1407129D01*
X1401433Y904858D02*
X1407118D01*
X1401428Y908638D02*
X1407117D01*
X1401391Y1028518D02*
X1407106D01*
X1401357Y959398D02*
X1407097D01*
X1401313Y973978D02*
X1407086D01*
X1401278Y1013938D02*
X1407077D01*
X1401231Y919438D02*
X1407066D01*
X1401188Y1039318D02*
X1407056D01*
X1401149Y948598D02*
X1407048D01*
X1401098Y984778D02*
X1407037D01*
X1401057Y1003138D02*
X1407029D01*
X1401001Y930238D02*
X1407018D01*
X1400957Y1057678D02*
X1407010D01*
X1400950Y1050118D02*
X1407009D01*
X1400904Y937798D02*
X1407001D01*
X1400841Y995578D02*
X1406991D01*
X1400791Y992338D02*
X1406984D01*
X1400721Y941038D02*
X1406974D01*
X1400665Y1046878D02*
X1406967D01*
X1400656Y1060918D02*
X1406966D01*
X1400596Y926998D02*
X1406958D01*
X1400512Y1006378D02*
X1406949D01*
X1400442Y981538D02*
X1406942D01*
X1400343Y951838D02*
X1406933D01*
X1400256Y1036078D02*
X1406926D01*
X1400142Y916198D02*
X1406918D01*
X1399981Y1017178D02*
X1406910D01*
X1399802Y970738D02*
X1406903D01*
X848560Y962638D02*
X1406895D01*
X1116758Y1025278D02*
X1406889D01*
X847096Y905398D02*
X1406882D01*
X838668Y908098D02*
X1406881D01*
X802800Y1027978D02*
X1406874D01*
X842860Y959938D02*
X1406868D01*
X853165Y973438D02*
X1406860D01*
X1239771Y1014478D02*
X1406854D01*
X838698Y918898D02*
X1406847D01*
X1243448Y1038778D02*
X1406840D01*
X846302Y949138D02*
X1406835D01*
X845503Y984238D02*
X1406828D01*
X1124178Y1003678D02*
X1406823D01*
X838724Y929698D02*
X1406816D01*
X1234684Y1058218D02*
X1406811D01*
X1243761Y1049578D02*
X1406810D01*
X838648Y938338D02*
X1406805D01*
X802800Y995038D02*
X1406799D01*
X802800Y992878D02*
X1406794D01*
X838749Y940498D02*
X1406788D01*
X802800Y1047418D02*
X1406783D01*
X802800Y1060378D02*
X1406782D01*
X838679Y927538D02*
X1406778D01*
X1125868Y1005838D02*
X1406772D01*
X848890Y982078D02*
X1406768D01*
X802800Y951298D02*
X1406762D01*
X802800Y1036618D02*
X1406758D01*
X838708Y916738D02*
X1406753D01*
X1239511Y1016638D02*
X1406748D01*
X853141Y971278D02*
X1406744D01*
X847860Y962098D02*
X1406739D01*
X802800Y1025818D02*
X1406736D01*
X838734Y905938D02*
X1406732D01*
X838796Y907558D02*
X1406731D01*
X802800Y1027438D02*
X1406727D01*
X844796Y960478D02*
X1406724D01*
X853193Y972898D02*
X1406719D01*
X1239799Y1015018D02*
X1406716D01*
X838811Y918358D02*
X1406712D01*
X1242979Y1038238D02*
X1406708D01*
X802800Y949678D02*
X1406706D01*
X846599Y983698D02*
X1406702D01*
X1124674Y1004218D02*
X1406699D01*
X838823Y929158D02*
X1406695D01*
X1234425Y1058758D02*
X1406693D01*
X1243589Y1049038D02*
X1406692D01*
X838785Y938878D02*
X1406690D01*
X802800Y994498D02*
X1406687D01*
X802800Y993418D02*
X1406684D01*
X838834Y939958D02*
X1406682D01*
X1242559Y1047958D02*
X1406679D01*
X802800Y1059838D02*
X1406679D01*
X838802Y928078D02*
X1406677D01*
X1125513Y1005298D02*
X1406674D01*
X848239Y982618D02*
X1406673D01*
X802800Y950758D02*
X1406670D01*
X802800Y1037158D02*
X1406668D01*
X838816Y917278D02*
X1406667D01*
X1239672Y1016098D02*
X1406665D01*
X853181Y971818D02*
X1406663D01*
X847042Y961558D02*
X1406661D01*
X802800Y1026358D02*
X1406660D01*
X838828Y906478D02*
X1406659D01*
X838848Y907018D02*
X1406658D01*
X802800Y1026898D02*
X1406657D01*
X846058Y961018D02*
X1406656D01*
X853199Y972358D02*
X1406655D01*
X1239767Y1015558D02*
X1406654D01*
X838849Y917818D02*
X1406653D01*
X802800Y1037698D02*
X1406652D01*
X802800Y950218D02*
X1406652D01*
X847487Y983158D02*
X1406651D01*
X1125117Y1004758D02*
X1406651D01*
X838849Y928618D02*
X1406650D01*
X1233933Y1059298D02*
X1406650D01*
X1243242Y1048498D02*
X1406650D01*
X838845Y939418D02*
X1406650D01*
X802800Y993958D02*
X1406649D01*
X956297Y810898D02*
X1404713D01*
X825358Y836278D02*
X1404541D01*
X1239463Y861658D02*
X1403875D01*
X802800Y887038D02*
X1403074D01*
X956257Y811438D02*
X1402307D01*
X827661Y835738D02*
X1402238D01*
X1239640Y862198D02*
X1401231D01*
X956081Y811978D02*
X1400934D01*
X843580Y886498D02*
X1400921D01*
X829013Y835198D02*
X1400886D01*
X955727Y812518D02*
X1399893D01*
X830045Y834658D02*
X1399854D01*
X1239750Y862738D02*
X1399822D01*
X845217Y885958D02*
X1399601D01*
X853078Y970738D02*
X1399197D01*
X955025Y813058D02*
X1399039D01*
X1239277Y1017178D02*
X1399018D01*
X830893Y834118D02*
X1399006D01*
X802800Y897298D02*
X1398873D01*
X847404Y916198D02*
X1398857D01*
X1239797Y863278D02*
X1398763D01*
X802800Y1036078D02*
X1398743D01*
X802800Y951838D02*
X1398656D01*
X846377Y885418D02*
X1398586D01*
X849463Y981538D02*
X1398557D01*
X1126186Y1006378D02*
X1398487D01*
X847649Y926998D02*
X1398403D01*
X802800Y1060918D02*
X1398343D01*
X1242826Y1046878D02*
X1398334D01*
X926951Y813598D02*
X1398311D01*
X831616Y833578D02*
X1398283D01*
X838585Y941038D02*
X1398278D01*
X802800Y992338D02*
X1398208D01*
X802800Y995578D02*
X1398158D01*
X847857Y937798D02*
X1398095D01*
X1243796Y1050118D02*
X1398049D01*
X1234793Y1057678D02*
X1398042D01*
X846843Y930238D02*
X1397998D01*
X1123621Y1003138D02*
X1397942D01*
X844015Y984778D02*
X1397901D01*
X1239783Y863818D02*
X1397897D01*
X848040Y948598D02*
X1397850D01*
X1243696Y1039318D02*
X1397811D01*
X847221Y919438D02*
X1397768D01*
X847303Y884878D02*
X1397749D01*
X1239681Y1013938D02*
X1397721D01*
X853114Y973978D02*
X1397686D01*
X926861Y814138D02*
X1397678D01*
X832245Y833038D02*
X1397654D01*
X802800Y959398D02*
X1397642D01*
X802800Y1028518D02*
X1397608D01*
X847501Y908638D02*
X1397571D01*
X848263Y904858D02*
X1397566D01*
X1119061Y1024738D02*
X1397530D01*
X849172Y963178D02*
X1397499D01*
X852991Y970198D02*
X1397459D01*
X1238955Y1017718D02*
X1397430D01*
X847731Y897838D02*
X1397397D01*
X848404Y915658D02*
X1397392D01*
X802800Y1035538D02*
X1397360D01*
X802800Y952378D02*
X1397332D01*
X849971Y980998D02*
X1397297D01*
X1126470Y1006918D02*
X1397270D01*
X848534Y926458D02*
X1397236D01*
X802800Y1061458D02*
X1397211D01*
X1243370Y1046338D02*
X1397207D01*
X848000Y941578D02*
X1397182D01*
X1239708Y864358D02*
X1397161D01*
X802800Y991798D02*
X1397150D01*
X802800Y996118D02*
X1397126D01*
X926712Y814678D02*
X1397121D01*
X832800Y832498D02*
X1397099D01*
X848654Y937258D02*
X1397095D01*
X1243703Y1050658D02*
X1397071D01*
X1234771Y1057138D02*
X1397068D01*
X848167Y930778D02*
X1397045D01*
X848081Y884338D02*
X1397033D01*
X1122988Y1002598D02*
X1397015D01*
X802800Y985318D02*
X1396993D01*
X848765Y948058D02*
X1396965D01*
X1243795Y1039858D02*
X1396943D01*
X848317Y919978D02*
X1396919D01*
X1239525Y1013398D02*
X1396892D01*
X853039Y974518D02*
X1396871D01*
X802800Y958858D02*
X1396845D01*
X802800Y1029058D02*
X1396825D01*
X848454Y909178D02*
X1396802D01*
X848908Y904318D02*
X1396799D01*
X1120413Y1024198D02*
X1396777D01*
X849712Y963718D02*
X1396758D01*
X852880Y969658D02*
X1396734D01*
X1238524Y1018258D02*
X1396715D01*
X848580Y898378D02*
X1396694D01*
X849001Y915118D02*
X1396692D01*
X802800Y1034998D02*
X1396671D01*
X802800Y952918D02*
X1396653D01*
X850424Y980458D02*
X1396631D01*
X926498Y815218D02*
X1396625D01*
X1126722Y1007458D02*
X1396613D01*
X833293Y831958D02*
X1396606D01*
X849089Y925918D02*
X1396591D01*
X802800Y1061998D02*
X1396575D01*
X1243656Y1045798D02*
X1396572D01*
X848741Y942118D02*
X1396556D01*
X802800Y991258D02*
X1396534D01*
X1239568Y864898D02*
X1396522D01*
X802800Y996658D02*
X1396518D01*
X849171Y936718D02*
X1396498D01*
X1243462Y1051198D02*
X1396482D01*
X1234616Y1056598D02*
X1396480D01*
X848846Y931318D02*
X1396464D01*
X1122260Y1002058D02*
X1396444D01*
X802800Y985858D02*
X1396429D01*
X848753Y883798D02*
X1396410D01*
X849248Y947518D02*
X1396410D01*
X1243765Y1040398D02*
X1396395D01*
X848943Y920518D02*
X1396379D01*
X1239295Y1012858D02*
X1396360D01*
X852941Y975058D02*
X1396346D01*
X802800Y958318D02*
X1396328D01*
X802800Y1029598D02*
X1396314D01*
X849035Y909718D02*
X1396299D01*
X849348Y903778D02*
X1396297D01*
X1121445Y1023658D02*
X1396281D01*
X850193Y964258D02*
X1396268D01*
X852745Y969118D02*
X1396251D01*
X1237934Y1018798D02*
X1396238D01*
X849120Y898918D02*
X1396224D01*
X849414Y914578D02*
X1396222D01*
X802800Y1034458D02*
X1396207D01*
X802800Y953458D02*
X1396195D01*
X926210Y815758D02*
X1396182D01*
X850830Y979918D02*
X1396179D01*
X1126944Y1007998D02*
X1396167D01*
X833734Y831418D02*
X1396165D01*
X849475Y925378D02*
X1396151D01*
X1243785Y1045258D02*
X1396138D01*
X849231Y942658D02*
X1396126D01*
X802800Y990718D02*
X1396111D01*
X802800Y997198D02*
X1396100D01*
X849533Y936178D02*
X1396085D01*
X1243005Y1051738D02*
X1396074D01*
X1234292Y1056058D02*
X1396073D01*
X849304Y931858D02*
X1396062D01*
X1121406Y1001518D02*
X1396048D01*
X802800Y986398D02*
X1396037D01*
X849587Y946978D02*
X1396024D01*
X1243599Y1040938D02*
X1396013D01*
X849373Y921058D02*
X1396002D01*
X1238981Y1012318D02*
X1395988D01*
X852819Y975598D02*
X1395978D01*
X802800Y957778D02*
X1395966D01*
X1239357Y865438D02*
X1395960D01*
X802800Y1030138D02*
X1395956D01*
X849437Y910258D02*
X1395945D01*
X849657Y903238D02*
X1395944D01*
X1122293Y1023118D02*
X1395933D01*
X850624Y964798D02*
X1395924D01*
X852584Y968578D02*
X1395912D01*
X1237053Y1019338D02*
X1395903D01*
X849497Y899458D02*
X1395892D01*
X849703Y914038D02*
X1395891D01*
X802800Y1033918D02*
X1395881D01*
X802800Y953998D02*
X1395872D01*
X851194Y979378D02*
X1395861D01*
X849341Y883258D02*
X1395860D01*
X1205623Y1008538D02*
X1395853D01*
X849746Y924838D02*
X1395842D01*
X1243782Y1044718D02*
X1395832D01*
X849575Y943198D02*
X1395824D01*
X802800Y990178D02*
X1395814D01*
X802800Y997738D02*
X1395806D01*
X849785Y935638D02*
X1395796D01*
X1241812Y1052278D02*
X1395788D01*
X1233668Y1055518D02*
X1395787D01*
X925833Y816298D02*
X1395786D01*
X849627Y932398D02*
X1395779D01*
X834129Y830878D02*
X1395770D01*
X1120365Y1000978D02*
X1395770D01*
X802800Y986938D02*
X1395763D01*
X849822Y946438D02*
X1395753D01*
X1243261Y1041478D02*
X1395746D01*
X849675Y921598D02*
X1395738D01*
X1238558Y1011778D02*
X1395729D01*
X852671Y976138D02*
X1395722D01*
X802800Y957238D02*
X1395714D01*
X802800Y1030678D02*
X1395707D01*
X849720Y910798D02*
X1395700D01*
X849868Y902698D02*
X1395699D01*
X1123016Y1022578D02*
X1395691D01*
X851009Y965338D02*
X1395685D01*
X852397Y968038D02*
X1395677D01*
X1208240Y1019878D02*
X1395671D01*
X849761Y899998D02*
X1395664D01*
X849898Y913498D02*
X1395663D01*
X802800Y1033378D02*
X1395657D01*
X802800Y954538D02*
X1395651D01*
X851520Y978838D02*
X1395644D01*
X1206847Y1009078D02*
X1395638D01*
X849924Y924298D02*
X1395631D01*
X1243648Y1044178D02*
X1395625D01*
X849814Y943738D02*
X1395620D01*
X802800Y989638D02*
X1395613D01*
X802800Y998278D02*
X1395608D01*
X849949Y935098D02*
X1395601D01*
X802800Y1052818D02*
X1395596D01*
X802800Y1054978D02*
X1395596D01*
X849848Y932938D02*
X1395591D01*
X1118992Y1000438D02*
X1395585D01*
X802800Y987478D02*
X1395580D01*
X849970Y945898D02*
X1395575D01*
X1242602Y1042018D02*
X1395570D01*
X849879Y922138D02*
X1395565D01*
X1237982Y1011238D02*
X1395560D01*
X852498Y976678D02*
X1395556D01*
X802800Y956698D02*
X1395550D01*
X802800Y1031218D02*
X1395547D01*
X849908Y911338D02*
X1395542D01*
X849996Y902158D02*
X1395542D01*
X1123645Y1022038D02*
X1395537D01*
X851354Y965878D02*
X1395534D01*
X852182Y967498D02*
X1395529D01*
X1207612Y1020418D02*
X1395526D01*
X849934Y900538D02*
X1395522D01*
X850011Y912958D02*
X1395521D01*
X802800Y1032838D02*
X1395517D01*
X802800Y955078D02*
X1395514D01*
X851811Y978298D02*
X1395510D01*
X1207661Y1009618D02*
X1395507D01*
X850023Y923758D02*
X1395503D01*
X1243353Y1043638D02*
X1395500D01*
X849965Y944278D02*
X1395497D01*
X802800Y989098D02*
X1395494D01*
X802800Y998818D02*
X1395491D01*
X850034Y934558D02*
X1395488D01*
X802800Y1053358D02*
X1395486D01*
X802800Y1054438D02*
X1395485D01*
X849985Y933478D02*
X1395483D01*
X1116586Y999898D02*
X1395480D01*
X802800Y988018D02*
X1395478D01*
X850041Y945358D02*
X1395476D01*
X802800Y1042558D02*
X1395474D01*
X850002Y922678D02*
X1395471D01*
X1237130Y1010698D02*
X1395469D01*
X852298Y977218D02*
X1395467D01*
X802800Y956158D02*
X1395465D01*
X802800Y1031758D02*
X1395464D01*
X850016Y911878D02*
X1395462D01*
X850048Y901618D02*
X1395462D01*
X1205505Y1021498D02*
X1395461D01*
X1239064Y865978D02*
X1395460D01*
X851663Y966418D02*
X1395459D01*
X851938Y966958D02*
X1395458D01*
X1206780Y1020958D02*
X1395457D01*
X850028Y901078D02*
X1395456D01*
X850049Y912418D02*
X1395455D01*
X802800Y1032298D02*
X1395454D01*
X802800Y955618D02*
X1395454D01*
X852069Y977758D02*
X1395453D01*
X1208279Y1010158D02*
X1395452D01*
X850049Y923218D02*
X1395451D01*
X1242794Y1043098D02*
X1395451D01*
X850040Y944818D02*
X1395450D01*
X802800Y988558D02*
X1395450D01*
X802800Y999358D02*
X1395450D01*
X850045Y934018D02*
X1395450D01*
X802800Y1053898D02*
X1395449D01*
X925339Y816838D02*
X1395431D01*
X834482Y830338D02*
X1395417D01*
X849863Y882718D02*
X1395371D01*
X924671Y817378D02*
X1395113D01*
X834798Y829798D02*
X1395101D01*
X1238670Y866518D02*
X1395014D01*
X850328Y882178D02*
X1394934D01*
X923658Y817918D02*
X1394829D01*
X835081Y829258D02*
X1394818D01*
X1238136Y867058D02*
X1394614D01*
X835322Y818458D02*
X1394577D01*
X835331Y828718D02*
X1394568D01*
X850744Y881638D02*
X1394543D01*
X835544Y818998D02*
X1394355D01*
X835553Y828178D02*
X1394346D01*
X1237371Y867598D02*
X1394256D01*
X851117Y881098D02*
X1394192D01*
X835738Y819538D02*
X1394161D01*
X835746Y827638D02*
X1394153D01*
X835906Y820078D02*
X1393993D01*
X835912Y827098D02*
X1393987D01*
X1235907Y868138D02*
X1393935D01*
X851451Y880558D02*
X1393879D01*
X836047Y820618D02*
X1393852D01*
X836053Y826558D02*
X1393846D01*
X836165Y821158D02*
X1393734D01*
X836169Y826018D02*
X1393730D01*
X928689Y868678D02*
X1393649D01*
X836258Y821698D02*
X1393641D01*
X836261Y825478D02*
X1393638D01*
X851749Y880018D02*
X1393599D01*
X836327Y822238D02*
X1393572D01*
X836329Y824938D02*
X1393570D01*
X836373Y822778D02*
X1393526D01*
X836375Y824398D02*
X1393524D01*
X836396Y823318D02*
X1393503D01*
X836397Y823858D02*
X1393502D01*
X928810Y869218D02*
X1393395D01*
X852015Y879478D02*
X1393350D01*
X928868Y869758D02*
X1393171D01*
X852250Y878938D02*
X1393131D01*
X928865Y870298D02*
X1392974D01*
X852456Y878398D02*
X1392940D01*
X928800Y870838D02*
X1392805D01*
X852635Y877858D02*
X1392776D01*
X928672Y871378D02*
X1392661D01*
X852788Y877318D02*
X1392637D01*
X928474Y871918D02*
X1392542D01*
X852916Y876778D02*
X1392522D01*
X928197Y872458D02*
X1392448D01*
X853020Y876238D02*
X1392432D01*
X927822Y872998D02*
X1392376D01*
X853099Y875698D02*
X1392366D01*
X927317Y873538D02*
X1392328D01*
X853156Y875158D02*
X1392322D01*
X926605Y874078D02*
X1392304D01*
X925381Y874618D02*
X1392301D01*
X1097800Y1269358D02*
X1319700D01*
X1097800Y1268818D02*
X1319700D01*
X1097800Y1268278D02*
X1319700D01*
X1097800Y1267738D02*
X1319700D01*
X1097800Y1267198D02*
X1319700D01*
X1097800Y1266658D02*
X1319700D01*
X1097800Y1266118D02*
X1319700D01*
X1097800Y1265578D02*
X1319700D01*
X1097800Y1265038D02*
X1319700D01*
X1097800Y1264498D02*
X1319700D01*
X1097800Y1263958D02*
X1319700D01*
X1097800Y1263418D02*
X1319700D01*
X1097800Y1262878D02*
X1319700D01*
X1097800Y1262338D02*
X1319700D01*
X1097800Y1261798D02*
X1319700D01*
X1097800Y1261258D02*
X1319700D01*
X1097800Y1260718D02*
X1319700D01*
X1097800Y1260178D02*
X1319700D01*
X1097800Y1259638D02*
X1319700D01*
X1097800Y1259098D02*
X1319700D01*
X1097800Y1258558D02*
X1319700D01*
X1097800Y1258018D02*
X1319700D01*
X1097800Y1257478D02*
X1319700D01*
X1097800Y1256938D02*
X1319700D01*
X1097800Y1256398D02*
X1319700D01*
X1097800Y1255858D02*
X1319700D01*
X1097800Y1255318D02*
X1319700D01*
X1097800Y1254778D02*
X1319700D01*
X1097800Y1254238D02*
X1319700D01*
X1097800Y1253698D02*
X1319700D01*
X1097800Y1253158D02*
X1319700D01*
X1097800Y1252618D02*
X1319700D01*
X1097800Y1252078D02*
X1319700D01*
X1097800Y1251538D02*
X1319700D01*
X1097800Y1250998D02*
X1319700D01*
X1097800Y1250458D02*
X1319700D01*
X1097800Y1249918D02*
X1319700D01*
X1097800Y1249378D02*
X1319700D01*
X1097800Y1248838D02*
X1319700D01*
X1097800Y1248298D02*
X1319700D01*
X1097800Y1247758D02*
X1319700D01*
X1097800Y1247218D02*
X1319700D01*
X1097800Y1246678D02*
X1319700D01*
X1097800Y1246138D02*
X1319700D01*
X1097800Y1245598D02*
X1319700D01*
X1097800Y1245058D02*
X1319700D01*
X1097800Y1244518D02*
X1319700D01*
X1097800Y1243978D02*
X1319700D01*
X1097800Y1243438D02*
X1319700D01*
X1097800Y1242898D02*
X1319700D01*
X1291230Y1242358D02*
X1319700D01*
X1292321Y1241818D02*
X1319700D01*
X1292556Y1215358D02*
X1319700D01*
X1291688Y1214818D02*
X1319700D01*
X1097800Y1214278D02*
X1319700D01*
X1097800Y1213738D02*
X1319700D01*
X1097800Y1213198D02*
X1319700D01*
X1097800Y1212658D02*
X1319700D01*
X1097800Y1212118D02*
X1319700D01*
X1097800Y1211578D02*
X1319700D01*
X1097800Y1211038D02*
X1319700D01*
X1097800Y1210498D02*
X1319700D01*
X1097800Y1209958D02*
X1319700D01*
X1097800Y1209418D02*
X1319700D01*
X1097800Y1208878D02*
X1319700D01*
X1097800Y1208338D02*
X1319700D01*
X1097800Y1207798D02*
X1319700D01*
X1097800Y1207258D02*
X1319700D01*
X1097800Y1206718D02*
X1319700D01*
X1097800Y1206178D02*
X1319700D01*
X1097800Y1205638D02*
X1319700D01*
X1097800Y1205098D02*
X1319700D01*
X1097800Y1204558D02*
X1319700D01*
X1097800Y1204018D02*
X1319700D01*
X1260172Y1203478D02*
X1319700D01*
X1260794Y1202938D02*
X1319700D01*
X1261117Y1202398D02*
X1319700D01*
X1261271Y1201858D02*
X1319700D01*
X1261292Y1201318D02*
X1319700D01*
X1261183Y1200778D02*
X1319700D01*
X1260923Y1200238D02*
X1319700D01*
X1262175Y1199698D02*
X1319700D01*
X1263093Y1199158D02*
X1319700D01*
X1263509Y1198618D02*
X1319700D01*
X1263726Y1198078D02*
X1319700D01*
X1263799Y1197538D02*
X1319700D01*
X1263744Y1196998D02*
X1319700D01*
X1263550Y1196458D02*
X1319700D01*
X1263170Y1195918D02*
X1319700D01*
X1262388Y1195378D02*
X1319700D01*
X1260870Y1194838D02*
X1319700D01*
X1261156Y1194298D02*
X1319700D01*
X1261285Y1193758D02*
X1319700D01*
X1261282Y1193218D02*
X1319700D01*
X1261148Y1192678D02*
X1319700D01*
X1260853Y1192138D02*
X1319700D01*
X1260294Y1191598D02*
X1319700D01*
X1097800Y1191058D02*
X1319700D01*
X1097800Y1190518D02*
X1319700D01*
X1097800Y1189978D02*
X1319700D01*
X1097800Y1189438D02*
X1319700D01*
X1097800Y1188898D02*
X1319700D01*
X1097800Y1188358D02*
X1319700D01*
X1097800Y1187818D02*
X1319700D01*
X1097800Y1187278D02*
X1319700D01*
X1097800Y1186738D02*
X1319700D01*
X1097800Y1186198D02*
X1319700D01*
X1097800Y1185658D02*
X1319700D01*
X1097800Y1185118D02*
X1319700D01*
X1269984Y1184578D02*
X1319700D01*
X1270709Y1184038D02*
X1319700D01*
X1271071Y1183498D02*
X1319700D01*
X1271253Y1182958D02*
X1319700D01*
X1271298Y1182418D02*
X1319700D01*
X1271214Y1181878D02*
X1319700D01*
X1270985Y1181338D02*
X1319700D01*
X1270547Y1180798D02*
X1319700D01*
X1269516Y1180258D02*
X1319700D01*
X1269606Y1179718D02*
X1319700D01*
X1270572Y1179178D02*
X1319700D01*
X1270998Y1178638D02*
X1319700D01*
X1271220Y1178098D02*
X1319700D01*
X1271299Y1177558D02*
X1319700D01*
X1271249Y1177018D02*
X1319700D01*
X1271060Y1176478D02*
X1319700D01*
X1270688Y1175938D02*
X1319700D01*
X1269935Y1175398D02*
X1319700D01*
X1174795Y1174858D02*
X1319700D01*
X1270407Y1174318D02*
X1319700D01*
X1270911Y1173778D02*
X1319700D01*
X1271178Y1173238D02*
X1319700D01*
X1271291Y1172698D02*
X1319700D01*
X1271274Y1172158D02*
X1319700D01*
X1271124Y1171618D02*
X1319700D01*
X1270808Y1171078D02*
X1319700D01*
X1270201Y1170538D02*
X1319700D01*
X1160300Y1169998D02*
X1319700D01*
X1160300Y1169458D02*
X1319700D01*
X1160300Y1168918D02*
X1319700D01*
X1160300Y1168378D02*
X1319700D01*
X1192381Y1167838D02*
X1319700D01*
X1192898Y1167298D02*
X1319700D01*
X1193171Y1166758D02*
X1319700D01*
X1193289Y1166218D02*
X1319700D01*
X1193277Y1165678D02*
X1319700D01*
X1193132Y1165138D02*
X1319700D01*
X1192823Y1164598D02*
X1319700D01*
X1192233Y1164058D02*
X1319700D01*
X1160300Y1163518D02*
X1319700D01*
X1160300Y1162978D02*
X1319700D01*
X1160300Y1162438D02*
X1319700D01*
X1173798Y1161898D02*
X1319700D01*
X1174355Y1161358D02*
X1319700D01*
X1174649Y1160818D02*
X1319700D01*
X1174783Y1160278D02*
X1319700D01*
X1174785Y1159738D02*
X1319700D01*
X1174655Y1159198D02*
X1319700D01*
X1174368Y1158658D02*
X1319700D01*
X1173823Y1158118D02*
X1319700D01*
X1160300Y1157578D02*
X1319700D01*
X1160300Y1157038D02*
X1319700D01*
X1160300Y1156498D02*
X1319700D01*
X1160300Y1155958D02*
X1319700D01*
X1160300Y1155418D02*
X1319700D01*
X1160300Y1154878D02*
X1319700D01*
X1160300Y1154338D02*
X1319700D01*
X1160300Y1153798D02*
X1319700D01*
X1191433Y1153258D02*
X1319700D01*
X1192528Y1152718D02*
X1319700D01*
X1192975Y1152178D02*
X1319700D01*
X1193209Y1151638D02*
X1319700D01*
X1193297Y1151098D02*
X1319700D01*
X1193257Y1150558D02*
X1319700D01*
X1193080Y1150018D02*
X1319700D01*
X1192725Y1149478D02*
X1319700D01*
X1192020Y1148938D02*
X1319700D01*
X1160300Y1148398D02*
X1319700D01*
X1160300Y1147858D02*
X1319700D01*
X1160300Y1147318D02*
X1319700D01*
X1173958Y1146778D02*
X1319700D01*
X1174437Y1146238D02*
X1319700D01*
X1174691Y1145698D02*
X1319700D01*
X1174794Y1145158D02*
X1319700D01*
X1174768Y1144618D02*
X1319700D01*
X1174607Y1144078D02*
X1319700D01*
X1174276Y1143538D02*
X1319700D01*
X1173633Y1142998D02*
X1319700D01*
X1160300Y1142458D02*
X1319700D01*
X1160300Y1141918D02*
X1319700D01*
X1160300Y1141378D02*
X1319700D01*
X1160300Y1140838D02*
X1319700D01*
X1160300Y1140298D02*
X1319700D01*
X1160300Y1139758D02*
X1319700D01*
X1160300Y1139218D02*
X1319700D01*
X1160300Y1138678D02*
X1319700D01*
X1191846Y1138138D02*
X1319700D01*
X1192653Y1137598D02*
X1319700D01*
X1193041Y1137058D02*
X1319700D01*
X1193240Y1136518D02*
X1319700D01*
X1193299Y1135978D02*
X1319700D01*
X1193230Y1135438D02*
X1319700D01*
X1193019Y1134898D02*
X1319700D01*
X1192611Y1134358D02*
X1319700D01*
X1191729Y1133818D02*
X1319700D01*
X802800Y1133278D02*
X1319700D01*
X802800Y1132738D02*
X1319700D01*
X1173175Y1132198D02*
X1319700D01*
X1174093Y1131658D02*
X1319700D01*
X1174509Y1131118D02*
X1319700D01*
X1174726Y1130578D02*
X1319700D01*
X1174799Y1130038D02*
X1319700D01*
X1174744Y1129498D02*
X1319700D01*
X1174550Y1128958D02*
X1319700D01*
X1174170Y1128418D02*
X1319700D01*
X1173388Y1127878D02*
X1319700D01*
X802800Y1127338D02*
X1319700D01*
X1152577Y1126798D02*
X1319700D01*
X1153982Y1126258D02*
X1319700D01*
X1154450Y1125718D02*
X1319700D01*
X1154697Y1125178D02*
X1319700D01*
X1154795Y1124638D02*
X1319700D01*
X1154764Y1124098D02*
X1319700D01*
X1154598Y1123558D02*
X1319700D01*
X1154259Y1123018D02*
X1319700D01*
X1153597Y1122478D02*
X1319700D01*
X802800Y1121938D02*
X1319700D01*
X802800Y1121398D02*
X1319700D01*
X802800Y1120858D02*
X1319700D01*
X802800Y1120318D02*
X1319700D01*
X802800Y1119778D02*
X1319700D01*
X802800Y1119238D02*
X1319700D01*
X802800Y1118698D02*
X1319700D01*
X802800Y1118158D02*
X1319700D01*
X802800Y1117618D02*
X1319700D01*
X802800Y1117078D02*
X1319700D01*
X802800Y1116538D02*
X1319700D01*
X802800Y1115998D02*
X1319700D01*
X802800Y1115458D02*
X1319700D01*
X802800Y1114918D02*
X1319700D01*
X802800Y1114378D02*
X1319700D01*
X802800Y1113838D02*
X1319700D01*
X802800Y1113298D02*
X1319700D01*
X802800Y1112758D02*
X1319700D01*
X802800Y1112218D02*
X1319700D01*
X802800Y1111678D02*
X1319700D01*
X802800Y1111138D02*
X1319700D01*
X802800Y1110598D02*
X1319700D01*
X802800Y1110058D02*
X1319700D01*
X802800Y1109518D02*
X1319700D01*
X802800Y1108978D02*
X1319700D01*
X802800Y1108438D02*
X1319700D01*
X802800Y1107898D02*
X1319700D01*
X802800Y1107358D02*
X1319700D01*
X802800Y1106818D02*
X1319700D01*
X802800Y1106278D02*
X1319700D01*
X802800Y1105738D02*
X1319700D01*
X802800Y1105198D02*
X1319700D01*
X802800Y1104658D02*
X1319700D01*
X802800Y1104118D02*
X1319700D01*
X802800Y1103578D02*
X1319700D01*
X802800Y1103038D02*
X1319700D01*
X802800Y1102498D02*
X1319700D01*
X802800Y1101958D02*
X1319700D01*
X802800Y1101418D02*
X1319700D01*
X802800Y1100878D02*
X1319700D01*
X802800Y1100338D02*
X1319700D01*
X802800Y1099798D02*
X1319700D01*
X802800Y1099258D02*
X1319700D01*
X802800Y1098718D02*
X1319700D01*
X802800Y1098178D02*
X1319700D01*
X1292946Y1241278D02*
X1319461D01*
X1293104Y1215898D02*
X1317953D01*
X1293375Y1240738D02*
X1316451D01*
X1293486Y1216438D02*
X1315914D01*
X1293676Y1240198D02*
X1315005D01*
X1293753Y1216978D02*
X1314623D01*
X1293880Y1239658D02*
X1313929D01*
X1293929Y1217518D02*
X1313623D01*
X1294002Y1239118D02*
X1313052D01*
X1294025Y1218058D02*
X1312795D01*
X1294049Y1238578D02*
X1312309D01*
X1294048Y1218598D02*
X1312087D01*
X1294023Y1238038D02*
X1311664D01*
X1293999Y1219138D02*
X1311470D01*
X1293924Y1237498D02*
X1311097D01*
X1293874Y1219678D02*
X1310925D01*
X1293745Y1236958D02*
X1310593D01*
X1293667Y1220218D02*
X1310439D01*
X1293474Y1236418D02*
X1310143D01*
X1293361Y1220758D02*
X1310006D01*
X1293087Y1235878D02*
X1309740D01*
X1292927Y1221298D02*
X1309617D01*
X1292531Y1235338D02*
X1309379D01*
X1292292Y1221838D02*
X1309269D01*
X1291644Y1234798D02*
X1309056D01*
X1291165Y1222378D02*
X1308958D01*
X1263708Y1234258D02*
X1308768D01*
X1233319Y1222918D02*
X1308680D01*
X1233487Y1233718D02*
X1308512D01*
X1233565Y1223458D02*
X1308434D01*
X1233714Y1233178D02*
X1308285D01*
X1233782Y1223998D02*
X1308217D01*
X1250666Y1232638D02*
X1308087D01*
X1286343Y1224538D02*
X1308028D01*
X1287357Y1232098D02*
X1307916D01*
X1287667Y1225078D02*
X1307865D01*
X1288154Y1231558D02*
X1307770D01*
X1288346Y1225618D02*
X1307728D01*
X1288671Y1231018D02*
X1307650D01*
X1288804Y1226158D02*
X1307615D01*
X1289033Y1230478D02*
X1307553D01*
X1289127Y1226698D02*
X1307527D01*
X1289285Y1229938D02*
X1307481D01*
X1289348Y1227238D02*
X1307462D01*
X1289449Y1229398D02*
X1307431D01*
X1289485Y1227778D02*
X1307420D01*
X1289534Y1228858D02*
X1307405D01*
X1289545Y1228318D02*
X1307401D01*
X1282165Y1222378D02*
X1288834D01*
X1282230Y1242358D02*
X1288769D01*
X1282644Y1234798D02*
X1288355D01*
X1282688Y1214818D02*
X1288311D01*
X1283292Y1221838D02*
X1287707D01*
X1283321Y1241818D02*
X1287678D01*
X1283531Y1235338D02*
X1287468D01*
X1283556Y1215358D02*
X1287443D01*
X1283927Y1221298D02*
X1287072D01*
X1283946Y1241278D02*
X1287053D01*
X1284087Y1235878D02*
X1286912D01*
X1284104Y1215898D02*
X1286895D01*
X1284361Y1220758D02*
X1286638D01*
X1284375Y1240738D02*
X1286624D01*
X1284474Y1236418D02*
X1286525D01*
X1284486Y1216438D02*
X1286513D01*
X1284667Y1220218D02*
X1286332D01*
X1284676Y1240198D02*
X1286323D01*
X1284745Y1236958D02*
X1286254D01*
X1284753Y1216978D02*
X1286246D01*
X1284874Y1219678D02*
X1286125D01*
X1284880Y1239658D02*
X1286119D01*
X1284924Y1237498D02*
X1286075D01*
X1284929Y1217518D02*
X1286070D01*
X1284999Y1219138D02*
X1286000D01*
X1285002Y1239118D02*
X1285997D01*
X1285023Y1238038D02*
X1285976D01*
X1285025Y1218058D02*
X1285974D01*
X1285048Y1218598D02*
X1285951D01*
X1285049Y1238578D02*
X1285950D01*
X1277343Y1224538D02*
X1284656D01*
X1278357Y1232098D02*
X1283642D01*
X1278667Y1225078D02*
X1283332D01*
X1279154Y1231558D02*
X1282845D01*
X1279346Y1225618D02*
X1282653D01*
X1279671Y1231018D02*
X1282328D01*
X1279804Y1226158D02*
X1282195D01*
X1280033Y1230478D02*
X1281966D01*
X1280127Y1226698D02*
X1281872D01*
X1280285Y1229938D02*
X1281714D01*
X1280348Y1227238D02*
X1281651D01*
X1280449Y1229398D02*
X1281550D01*
X1280485Y1227778D02*
X1281514D01*
X1280534Y1228858D02*
X1281465D01*
X1280545Y1228318D02*
X1281454D01*
X1273165Y1222378D02*
X1279834D01*
X1273230Y1242358D02*
X1279769D01*
X1273644Y1234798D02*
X1279355D01*
X1273688Y1214818D02*
X1279311D01*
X1274292Y1221838D02*
X1278707D01*
X1274321Y1241818D02*
X1278678D01*
X1274531Y1235338D02*
X1278468D01*
X1274556Y1215358D02*
X1278443D01*
X1274927Y1221298D02*
X1278072D01*
X1274946Y1241278D02*
X1278053D01*
X1275087Y1235878D02*
X1277912D01*
X1275104Y1215898D02*
X1277895D01*
X1275361Y1220758D02*
X1277638D01*
X1275375Y1240738D02*
X1277624D01*
X1275474Y1236418D02*
X1277525D01*
X1275486Y1216438D02*
X1277513D01*
X1275667Y1220218D02*
X1277332D01*
X1275676Y1240198D02*
X1277323D01*
X1275745Y1236958D02*
X1277254D01*
X1275753Y1216978D02*
X1277246D01*
X1275874Y1219678D02*
X1277125D01*
X1275880Y1239658D02*
X1277119D01*
X1275924Y1237498D02*
X1277075D01*
X1275929Y1217518D02*
X1277070D01*
X1275999Y1219138D02*
X1277000D01*
X1276002Y1239118D02*
X1276997D01*
X1276023Y1238038D02*
X1276976D01*
X1276025Y1218058D02*
X1276974D01*
X1276048Y1218598D02*
X1276951D01*
X1276049Y1238578D02*
X1276950D01*
X1268343Y1224538D02*
X1275656D01*
X1269357Y1232098D02*
X1274642D01*
X1269667Y1225078D02*
X1274332D01*
X1270154Y1231558D02*
X1273845D01*
X1270346Y1225618D02*
X1273653D01*
X1270671Y1231018D02*
X1273328D01*
X1270804Y1226158D02*
X1273195D01*
X1271033Y1230478D02*
X1272966D01*
X1271127Y1226698D02*
X1272872D01*
X1271285Y1229938D02*
X1272714D01*
X1271348Y1227238D02*
X1272651D01*
X1271449Y1229398D02*
X1272550D01*
X1271485Y1227778D02*
X1272514D01*
X1271534Y1228858D02*
X1272465D01*
X1271545Y1228318D02*
X1272454D01*
X1264165Y1222378D02*
X1270834D01*
X1264897Y1242358D02*
X1270769D01*
X1265188Y1234798D02*
X1270355D01*
X1264688Y1214818D02*
X1270311D01*
X1265292Y1221838D02*
X1269707D01*
X1265734Y1241818D02*
X1269678D01*
X1265914Y1235338D02*
X1269468D01*
X1265556Y1215358D02*
X1269443D01*
X1265927Y1221298D02*
X1269072D01*
X1266281Y1241278D02*
X1269053D01*
X1266408Y1235878D02*
X1268912D01*
X1266104Y1215898D02*
X1268895D01*
X1266361Y1220758D02*
X1268638D01*
X1266671Y1240738D02*
X1268624D01*
X1266762Y1236418D02*
X1268525D01*
X1266486Y1216438D02*
X1268513D01*
X1193177Y1180258D02*
X1268483D01*
X1192910Y1179718D02*
X1268393D01*
X1266667Y1220218D02*
X1268332D01*
X1266950Y1240198D02*
X1268323D01*
X1267014Y1236958D02*
X1268254D01*
X1266753Y1216978D02*
X1268246D01*
X1266874Y1219678D02*
X1268125D01*
X1267140Y1239658D02*
X1268119D01*
X1267181Y1237498D02*
X1268075D01*
X1266929Y1217518D02*
X1268070D01*
X1174765Y1175398D02*
X1268064D01*
X1097800Y1184578D02*
X1268015D01*
X1266999Y1219138D02*
X1268000D01*
X1267255Y1239118D02*
X1267997D01*
X1267275Y1238038D02*
X1267976D01*
X1267025Y1218058D02*
X1267974D01*
X1267048Y1218598D02*
X1267951D01*
X1267299Y1238578D02*
X1267950D01*
X1097800Y1170538D02*
X1267798D01*
X1174696Y1174318D02*
X1267592D01*
X1193291Y1180798D02*
X1267452D01*
X1192404Y1179178D02*
X1267427D01*
X1174599Y1175938D02*
X1267311D01*
X1097800Y1184038D02*
X1267290D01*
X1097800Y1171078D02*
X1267191D01*
X1174448Y1173778D02*
X1267088D01*
X1193274Y1181338D02*
X1267014D01*
X1097800Y1178638D02*
X1267001D01*
X1174261Y1176478D02*
X1266939D01*
X1097800Y1183498D02*
X1266928D01*
X1097800Y1171618D02*
X1266875D01*
X1173979Y1173238D02*
X1266821D01*
X1193125Y1181878D02*
X1266785D01*
X1097800Y1178098D02*
X1266779D01*
X1173602Y1177018D02*
X1266750D01*
X1192205Y1182958D02*
X1266746D01*
X1097800Y1172158D02*
X1266725D01*
X1097800Y1172698D02*
X1266708D01*
X1192810Y1182418D02*
X1266701D01*
X1097800Y1177558D02*
X1266700D01*
X1259343Y1224538D02*
X1266656D01*
X1260357Y1232098D02*
X1265642D01*
X1260667Y1225078D02*
X1265332D01*
X1261154Y1231558D02*
X1264845D01*
X1261346Y1225618D02*
X1264653D01*
X1261671Y1231018D02*
X1264328D01*
X1261804Y1226158D02*
X1264195D01*
X1262033Y1230478D02*
X1263966D01*
X1262127Y1226698D02*
X1263872D01*
X1262285Y1229938D02*
X1263714D01*
X1262348Y1227238D02*
X1263651D01*
X1262449Y1229398D02*
X1263550D01*
X1262485Y1227778D02*
X1263514D01*
X1262534Y1228858D02*
X1263465D01*
X1262545Y1228318D02*
X1263454D01*
X1233231Y1234258D02*
X1262291D01*
X1255165Y1222378D02*
X1261834D01*
X1255688Y1214818D02*
X1261311D01*
X1255230Y1242358D02*
X1261102D01*
X1260430Y1199698D02*
X1260824D01*
X1255644Y1234798D02*
X1260811D01*
X1256292Y1221838D02*
X1260707D01*
X1260326Y1195378D02*
X1260611D01*
X1256556Y1215358D02*
X1260443D01*
X1256321Y1241818D02*
X1260265D01*
X1256531Y1235338D02*
X1260085D01*
X1256927Y1221298D02*
X1260072D01*
X1097800Y1199158D02*
X1259906D01*
X1257104Y1215898D02*
X1259895D01*
X1097800Y1195918D02*
X1259829D01*
X1256946Y1241278D02*
X1259718D01*
X1257361Y1220758D02*
X1259638D01*
X1257087Y1235878D02*
X1259591D01*
X1257486Y1216438D02*
X1259513D01*
X1097800Y1198618D02*
X1259490D01*
X1097800Y1196458D02*
X1259449D01*
X1257667Y1220218D02*
X1259332D01*
X1257375Y1240738D02*
X1259328D01*
X1097800Y1198078D02*
X1259273D01*
X1097800Y1196998D02*
X1259255D01*
X1257753Y1216978D02*
X1259246D01*
X1257474Y1236418D02*
X1259237D01*
X1097800Y1197538D02*
X1259200D01*
X1257874Y1219678D02*
X1259125D01*
X1257929Y1217518D02*
X1259070D01*
X1257676Y1240198D02*
X1259049D01*
X1257999Y1219138D02*
X1259000D01*
X1257745Y1236958D02*
X1258985D01*
X1258025Y1218058D02*
X1258974D01*
X1258048Y1218598D02*
X1258951D01*
X1257880Y1239658D02*
X1258859D01*
X1257924Y1237498D02*
X1258818D01*
X1258002Y1239118D02*
X1258744D01*
X1258023Y1238038D02*
X1258724D01*
X1258049Y1238578D02*
X1258700D01*
X1097800Y1203478D02*
X1257827D01*
X1097800Y1191598D02*
X1257705D01*
X1097800Y1195378D02*
X1257673D01*
X1251172Y1224538D02*
X1257656D01*
X1097800Y1199698D02*
X1257569D01*
X1097800Y1202938D02*
X1257205D01*
X1097800Y1192138D02*
X1257146D01*
X1097800Y1194838D02*
X1257129D01*
X1097800Y1200238D02*
X1257076D01*
X1097800Y1202398D02*
X1256882D01*
X1097800Y1192678D02*
X1256851D01*
X1097800Y1194298D02*
X1256843D01*
X1097800Y1200778D02*
X1256816D01*
X1097800Y1201858D02*
X1256728D01*
X1097800Y1193218D02*
X1256717D01*
X1097800Y1193758D02*
X1256714D01*
X1097800Y1201318D02*
X1256707D01*
X1251853Y1232098D02*
X1256642D01*
X1252104Y1225078D02*
X1256332D01*
X1252522Y1231558D02*
X1255845D01*
X1252691Y1225618D02*
X1255653D01*
X1252985Y1231018D02*
X1255328D01*
X1253106Y1226158D02*
X1255195D01*
X1253317Y1230478D02*
X1254966D01*
X1253404Y1226698D02*
X1254872D01*
X1253552Y1229938D02*
X1254714D01*
X1253610Y1227238D02*
X1254651D01*
X1253705Y1229398D02*
X1254550D01*
X1253739Y1227778D02*
X1254514D01*
X1253785Y1228858D02*
X1254465D01*
X1253796Y1228318D02*
X1254454D01*
X1233041Y1222378D02*
X1252834D01*
X1097800Y1242358D02*
X1252769D01*
X1232943Y1234798D02*
X1252355D01*
X1097800Y1214818D02*
X1252311D01*
X1232730Y1221838D02*
X1251707D01*
X1097800Y1241818D02*
X1251678D01*
X1232620Y1235338D02*
X1251468D01*
X1097800Y1215358D02*
X1251443D01*
X1232382Y1221298D02*
X1251072D01*
X1222538Y1241278D02*
X1251053D01*
X1232259Y1235878D02*
X1250912D01*
X1224046Y1215898D02*
X1250895D01*
X1231993Y1220758D02*
X1250638D01*
X1225548Y1240738D02*
X1250624D01*
X1231856Y1236418D02*
X1250525D01*
X1226085Y1216438D02*
X1250513D01*
X1231560Y1220218D02*
X1250332D01*
X1226994Y1240198D02*
X1250323D01*
X1231406Y1236958D02*
X1250254D01*
X1227376Y1216978D02*
X1250246D01*
X1231074Y1219678D02*
X1250125D01*
X1228070Y1239658D02*
X1250119D01*
X1230902Y1237498D02*
X1250075D01*
X1228376Y1217518D02*
X1250070D01*
X1230529Y1219138D02*
X1250000D01*
X1228947Y1239118D02*
X1249997D01*
X1230335Y1238038D02*
X1249976D01*
X1229204Y1218058D02*
X1249974D01*
X1229912Y1218598D02*
X1249951D01*
X1229690Y1238578D02*
X1249950D01*
X1233912Y1232638D02*
X1248333D01*
X1233971Y1224538D02*
X1247827D01*
X1234083Y1232098D02*
X1247146D01*
X1234134Y1225078D02*
X1246895D01*
X1234229Y1231558D02*
X1246477D01*
X1234271Y1225618D02*
X1246308D01*
X1234349Y1231018D02*
X1246014D01*
X1234384Y1226158D02*
X1245893D01*
X1234446Y1230478D02*
X1245682D01*
X1234472Y1226698D02*
X1245595D01*
X1234518Y1229938D02*
X1245447D01*
X1234537Y1227238D02*
X1245389D01*
X1234568Y1229398D02*
X1245294D01*
X1234579Y1227778D02*
X1245260D01*
X1234594Y1228858D02*
X1245214D01*
X1234598Y1228318D02*
X1245203D01*
X802800Y1052278D02*
X1241187D01*
X802800Y1047958D02*
X1240440D01*
X802800Y1042018D02*
X1240397D01*
X802800Y1043098D02*
X1240205D01*
X802800Y1046878D02*
X1240173D01*
X802800Y1038238D02*
X1240020D01*
X802800Y1051738D02*
X1239994D01*
X802800Y1048498D02*
X1239757D01*
X802800Y1041478D02*
X1239738D01*
X802800Y1043638D02*
X1239646D01*
X802800Y1046338D02*
X1239629D01*
X802800Y1038778D02*
X1239551D01*
X802800Y1051198D02*
X1239537D01*
X802800Y1049038D02*
X1239410D01*
X802800Y1040938D02*
X1239400D01*
X802800Y1044178D02*
X1239351D01*
X802800Y1045798D02*
X1239343D01*
X802800Y1039318D02*
X1239303D01*
X802800Y1050658D02*
X1239296D01*
X802800Y1049578D02*
X1239238D01*
X802800Y1040398D02*
X1239234D01*
X802800Y1044718D02*
X1239217D01*
X802800Y1045258D02*
X1239214D01*
X802800Y1039858D02*
X1239204D01*
X802800Y1050118D02*
X1239203D01*
X1193584Y868138D02*
X1234092D01*
X1194435Y858958D02*
X1233241D01*
X1208739Y1019338D02*
X1232946D01*
X1208770Y1010698D02*
X1232869D01*
X1195048Y867598D02*
X1232628D01*
X1195438Y859498D02*
X1232239D01*
X1209143Y1018798D02*
X1232065D01*
X1209169Y1011238D02*
X1232017D01*
X1195813Y867058D02*
X1231863D01*
X1196078Y860038D02*
X1231598D01*
X1209472Y1018258D02*
X1231475D01*
X1209492Y1011778D02*
X1231441D01*
X802800Y1055518D02*
X1231331D01*
X1196347Y866518D02*
X1231329D01*
X1196542Y860578D02*
X1231135D01*
X802800Y1059298D02*
X1231066D01*
X1209736Y1017718D02*
X1231044D01*
X1209753Y1012318D02*
X1231018D01*
X1196741Y865978D02*
X1230935D01*
X1196886Y861118D02*
X1230790D01*
X1209945Y1017178D02*
X1230722D01*
X802800Y1056058D02*
X1230707D01*
X1209958Y1012858D02*
X1230704D01*
X1197034Y865438D02*
X1230642D01*
X802800Y1058758D02*
X1230574D01*
X1197140Y861658D02*
X1230536D01*
X1210103Y1016638D02*
X1230488D01*
X1210112Y1013398D02*
X1230474D01*
X1197245Y864898D02*
X1230431D01*
X802800Y1056598D02*
X1230383D01*
X1197317Y862198D02*
X1230359D01*
X1210214Y1016098D02*
X1230327D01*
X1210220Y1013938D02*
X1230318D01*
X802800Y1058218D02*
X1230315D01*
X1197385Y864358D02*
X1230291D01*
X1197427Y862738D02*
X1230249D01*
X1210280Y1015558D02*
X1230232D01*
X802800Y1057138D02*
X1230228D01*
X1210283Y1014478D02*
X1230228D01*
X1197461Y863818D02*
X1230216D01*
X802800Y1057678D02*
X1230206D01*
X1197474Y863278D02*
X1230202D01*
X1210303Y1015018D02*
X1230200D01*
X1097800Y1241278D02*
X1221061D01*
X1097800Y1215898D02*
X1219553D01*
X1097800Y1240738D02*
X1218051D01*
X1097800Y1216438D02*
X1217514D01*
X1097800Y1240198D02*
X1216605D01*
X1097800Y1216978D02*
X1216223D01*
X1097800Y1239658D02*
X1215529D01*
X1097800Y1217518D02*
X1215223D01*
X1097800Y1239118D02*
X1214652D01*
X1097800Y1218058D02*
X1214395D01*
X1097800Y1238578D02*
X1213909D01*
X1097800Y1218598D02*
X1213687D01*
X1097800Y1238038D02*
X1213264D01*
X1097800Y1219138D02*
X1213070D01*
X1097800Y1237498D02*
X1212697D01*
X1162753Y1219678D02*
X1212525D01*
X1097800Y1236958D02*
X1212193D01*
X1163706Y1220218D02*
X1212039D01*
X1097800Y1236418D02*
X1211743D01*
X1164253Y1220758D02*
X1211606D01*
X1097800Y1235878D02*
X1211340D01*
X1164615Y1221298D02*
X1211217D01*
X1097800Y1235338D02*
X1210979D01*
X1164854Y1221838D02*
X1210869D01*
X1097800Y1234798D02*
X1210656D01*
X1164995Y1222378D02*
X1210558D01*
X1097800Y1234258D02*
X1210368D01*
X1165049Y1222918D02*
X1210280D01*
X1097800Y1233718D02*
X1210112D01*
X1165020Y1223458D02*
X1210034D01*
X1097800Y1233178D02*
X1209885D01*
X1164906Y1223998D02*
X1209817D01*
X802800Y1097638D02*
X1209700D01*
X802800Y1097098D02*
X1209700D01*
X802800Y1096558D02*
X1209700D01*
X802800Y1096018D02*
X1209700D01*
X802800Y1095478D02*
X1209700D01*
X802800Y1094938D02*
X1209700D01*
X802800Y1094398D02*
X1209700D01*
X802800Y1093858D02*
X1209700D01*
X802800Y1093318D02*
X1209700D01*
X802800Y1092778D02*
X1209700D01*
X802800Y1092238D02*
X1209700D01*
X802800Y1091698D02*
X1209700D01*
X802800Y1091158D02*
X1209700D01*
X802800Y1090618D02*
X1209700D01*
X802800Y1090078D02*
X1209700D01*
X802800Y1089538D02*
X1209700D01*
X802800Y1088998D02*
X1209700D01*
X802800Y1088458D02*
X1209700D01*
X802800Y1087918D02*
X1209700D01*
X802800Y1087378D02*
X1209700D01*
X802800Y1086838D02*
X1209700D01*
X802800Y1086298D02*
X1209700D01*
X802800Y1085758D02*
X1209700D01*
X802800Y1085218D02*
X1209700D01*
X802800Y1084678D02*
X1209700D01*
X802800Y1084138D02*
X1209700D01*
X802800Y1083598D02*
X1209700D01*
X802800Y1083058D02*
X1209700D01*
X802800Y1082518D02*
X1209700D01*
X802800Y1081978D02*
X1209700D01*
X802800Y1081438D02*
X1209700D01*
X802800Y1080898D02*
X1209700D01*
X802800Y1080358D02*
X1209700D01*
X802800Y1079818D02*
X1209700D01*
X802800Y1079278D02*
X1209700D01*
X802800Y1078738D02*
X1209700D01*
X802800Y1078198D02*
X1209700D01*
X802800Y1077658D02*
X1209700D01*
X802800Y1077118D02*
X1209700D01*
X802800Y1076578D02*
X1209700D01*
X802800Y1076038D02*
X1209700D01*
X802800Y1075498D02*
X1209700D01*
X802800Y1074958D02*
X1209700D01*
X802800Y1074418D02*
X1209700D01*
X802800Y1073878D02*
X1209700D01*
X802800Y1073338D02*
X1209700D01*
X802800Y1072798D02*
X1209700D01*
X802800Y1072258D02*
X1209700D01*
X802800Y1071718D02*
X1209700D01*
X802800Y1071178D02*
X1209700D01*
X802800Y1070638D02*
X1209700D01*
X802800Y1070098D02*
X1209700D01*
X802800Y1069558D02*
X1209700D01*
X802800Y1069018D02*
X1209700D01*
X802800Y1068478D02*
X1209700D01*
X802800Y1067938D02*
X1209700D01*
X802800Y1067398D02*
X1209700D01*
X802800Y1066858D02*
X1209700D01*
X802800Y1066318D02*
X1209700D01*
X802800Y1065778D02*
X1209700D01*
X802800Y1065238D02*
X1209700D01*
X802800Y1064698D02*
X1209700D01*
X802800Y1064158D02*
X1209700D01*
X802800Y1063618D02*
X1209700D01*
X802800Y1063078D02*
X1209700D01*
X802800Y1062538D02*
X1209700D01*
X1097800Y1232638D02*
X1209687D01*
X1164699Y1224538D02*
X1209628D01*
X1097800Y1232098D02*
X1209516D01*
X1164377Y1225078D02*
X1209465D01*
X1097800Y1231558D02*
X1209370D01*
X1163896Y1225618D02*
X1209328D01*
X1097800Y1231018D02*
X1209250D01*
X1163120Y1226158D02*
X1209215D01*
X1097800Y1230478D02*
X1209153D01*
X1097800Y1226698D02*
X1209127D01*
X1097800Y1229938D02*
X1209081D01*
X1097800Y1227238D02*
X1209062D01*
X1097800Y1229398D02*
X1209031D01*
X1097800Y1227778D02*
X1209020D01*
X1097800Y1228858D02*
X1209005D01*
X1097800Y1228318D02*
X1209001D01*
X1124200Y1021498D02*
X1201502D01*
X1127138Y1008538D02*
X1201384D01*
X1124693Y1020958D02*
X1200227D01*
X1127306Y1009078D02*
X1200160D01*
X1125134Y1020418D02*
X1199395D01*
X1127447Y1009618D02*
X1199346D01*
X1125529Y1019878D02*
X1198767D01*
X1127565Y1010158D02*
X1198728D01*
X1125882Y1019338D02*
X1198267D01*
X1127658Y1010698D02*
X1198237D01*
X1126198Y1018798D02*
X1197863D01*
X1127727Y1011238D02*
X1197838D01*
X1126481Y1018258D02*
X1197535D01*
X1127773Y1011778D02*
X1197515D01*
X1126731Y1017718D02*
X1197271D01*
X1127796Y1012318D02*
X1197254D01*
X1126953Y1017178D02*
X1197062D01*
X1127797Y1012858D02*
X1197049D01*
X1127146Y1016638D02*
X1196904D01*
X1127775Y1013398D02*
X1196895D01*
X1127312Y1016098D02*
X1196793D01*
X1127729Y1013938D02*
X1196787D01*
X1127453Y1015558D02*
X1196726D01*
X1127661Y1014478D02*
X1196723D01*
X1127569Y1015018D02*
X1196703D01*
X928499Y868138D02*
X1191769D01*
X802800Y858958D02*
X1190919D01*
X1160300Y1153258D02*
X1190566D01*
X928231Y867598D02*
X1190306D01*
X802800Y1133818D02*
X1190270D01*
X1160300Y1138138D02*
X1190153D01*
X1160300Y1148938D02*
X1189979D01*
X802800Y859498D02*
X1189916D01*
X1097800Y1182958D02*
X1189794D01*
X1160300Y1164058D02*
X1189766D01*
X1160300Y1167838D02*
X1189618D01*
X1097800Y1179178D02*
X1189595D01*
X927868Y867058D02*
X1189540D01*
X1160300Y1152718D02*
X1189471D01*
X802800Y1134358D02*
X1189388D01*
X1160300Y1137598D02*
X1189346D01*
X802800Y860038D02*
X1189275D01*
X1160300Y1149478D02*
X1189274D01*
X1097800Y1182418D02*
X1189189D01*
X1160300Y1164598D02*
X1189176D01*
X1160300Y1167298D02*
X1189101D01*
X1097800Y1179718D02*
X1189089D01*
X1160300Y1152178D02*
X1189024D01*
X927379Y866518D02*
X1189006D01*
X802800Y1134898D02*
X1188980D01*
X802800Y1137058D02*
X1188958D01*
X1160300Y1150018D02*
X1188919D01*
X1097800Y1181878D02*
X1188874D01*
X1160300Y1165138D02*
X1188867D01*
X1160300Y1166758D02*
X1188828D01*
X1097800Y1180258D02*
X1188822D01*
X802800Y860578D02*
X1188812D01*
X1160300Y1151638D02*
X1188790D01*
X802800Y1135438D02*
X1188769D01*
X802800Y1136518D02*
X1188759D01*
X1160300Y1150558D02*
X1188742D01*
X1097800Y1181338D02*
X1188725D01*
X1160300Y1165678D02*
X1188722D01*
X1160300Y1166218D02*
X1188710D01*
X1097800Y1180798D02*
X1188708D01*
X1160300Y1151098D02*
X1188702D01*
X802800Y1135978D02*
X1188700D01*
X926695Y865978D02*
X1188612D01*
X802800Y861118D02*
X1188467D01*
X925569Y865438D02*
X1188319D01*
X843409Y861658D02*
X1188214D01*
X849298Y864898D02*
X1188108D01*
X845111Y862198D02*
X1188036D01*
X848703Y864358D02*
X1187968D01*
X846295Y862738D02*
X1187926D01*
X848024Y863818D02*
X1187893D01*
X847236Y863278D02*
X1187879D01*
X802800Y1132198D02*
X1171824D01*
X802800Y1127878D02*
X1171611D01*
X1097800Y1177018D02*
X1171397D01*
X1160300Y1142998D02*
X1171366D01*
X1160300Y1161898D02*
X1171201D01*
X1160300Y1158118D02*
X1171176D01*
X1160300Y1146778D02*
X1171041D01*
X1097800Y1173238D02*
X1171020D01*
X802800Y1131658D02*
X1170906D01*
X802800Y1128418D02*
X1170829D01*
X1097800Y1176478D02*
X1170738D01*
X1160300Y1143538D02*
X1170723D01*
X1160300Y1161358D02*
X1170644D01*
X1160300Y1158658D02*
X1170631D01*
X1160300Y1146238D02*
X1170562D01*
X1097800Y1173778D02*
X1170551D01*
X802800Y1131118D02*
X1170490D01*
X802800Y1128958D02*
X1170449D01*
X1097800Y1175938D02*
X1170400D01*
X1160300Y1144078D02*
X1170392D01*
X1160300Y1160818D02*
X1170350D01*
X1160300Y1159198D02*
X1170344D01*
X1160300Y1145698D02*
X1170308D01*
X1097800Y1174318D02*
X1170303D01*
X802800Y1130578D02*
X1170273D01*
X802800Y1129498D02*
X1170255D01*
X1097800Y1175398D02*
X1170234D01*
X1160300Y1144618D02*
X1170231D01*
X1160300Y1160278D02*
X1170216D01*
X1160300Y1159738D02*
X1170214D01*
X1160300Y1145158D02*
X1170205D01*
X1097800Y1174858D02*
X1170204D01*
X802800Y1130038D02*
X1170200D01*
X1152753Y1219678D02*
X1160246D01*
X1153120Y1226158D02*
X1159879D01*
X1153706Y1220218D02*
X1159293D01*
X1153896Y1225618D02*
X1159103D01*
X1154253Y1220758D02*
X1158746D01*
X1154377Y1225078D02*
X1158622D01*
X1154615Y1221298D02*
X1158384D01*
X1154699Y1224538D02*
X1158300D01*
X1154854Y1221838D02*
X1158145D01*
X1154906Y1223998D02*
X1158093D01*
X1154995Y1222378D02*
X1158004D01*
X1155020Y1223458D02*
X1157979D01*
X1155049Y1222918D02*
X1157950D01*
X802800Y1126798D02*
X1152422D01*
X802800Y1122478D02*
X1151402D01*
X802800Y1126258D02*
X1151017D01*
X802800Y1123018D02*
X1150740D01*
X802800Y1125718D02*
X1150549D01*
X802800Y1123558D02*
X1150401D01*
X802800Y1125178D02*
X1150302D01*
X1142753Y1219678D02*
X1150246D01*
X802800Y1124098D02*
X1150235D01*
X802800Y1124638D02*
X1150204D01*
X1143120Y1226158D02*
X1149879D01*
X1143706Y1220218D02*
X1149293D01*
X1143896Y1225618D02*
X1149103D01*
X1144253Y1220758D02*
X1148746D01*
X1144377Y1225078D02*
X1148622D01*
X1144615Y1221298D02*
X1148384D01*
X1144699Y1224538D02*
X1148300D01*
X1144854Y1221838D02*
X1148145D01*
X1144906Y1223998D02*
X1148093D01*
X1144995Y1222378D02*
X1148004D01*
X1145020Y1223458D02*
X1147979D01*
X1145049Y1222918D02*
X1147950D01*
X1132753Y1219678D02*
X1140246D01*
X1133120Y1226158D02*
X1139879D01*
X1133706Y1220218D02*
X1139293D01*
X1133896Y1225618D02*
X1139103D01*
X1134253Y1220758D02*
X1138746D01*
X1134377Y1225078D02*
X1138622D01*
X1134615Y1221298D02*
X1138384D01*
X1134699Y1224538D02*
X1138300D01*
X1134854Y1221838D02*
X1138145D01*
X1134906Y1223998D02*
X1138093D01*
X1134995Y1222378D02*
X1138004D01*
X1135020Y1223458D02*
X1137979D01*
X1135049Y1222918D02*
X1137950D01*
X1122753Y1219678D02*
X1130246D01*
X1123120Y1226158D02*
X1129879D01*
X1123706Y1220218D02*
X1129293D01*
X1123896Y1225618D02*
X1129103D01*
X1124253Y1220758D02*
X1128746D01*
X1124377Y1225078D02*
X1128622D01*
X1124615Y1221298D02*
X1128384D01*
X1124699Y1224538D02*
X1128300D01*
X1124854Y1221838D02*
X1128145D01*
X1124906Y1223998D02*
X1128093D01*
X1124995Y1222378D02*
X1128004D01*
X1125020Y1223458D02*
X1127979D01*
X1125049Y1222918D02*
X1127950D01*
X1097800Y1219678D02*
X1120246D01*
X1097800Y1226158D02*
X1119879D01*
X1097800Y1220218D02*
X1119293D01*
X1097800Y1225618D02*
X1119103D01*
X1097800Y1220758D02*
X1118746D01*
X1097800Y1225078D02*
X1118622D01*
X1097800Y1221298D02*
X1118384D01*
X1097800Y1224538D02*
X1118300D01*
X1097800Y1221838D02*
X1118145D01*
X1097800Y1223998D02*
X1118093D01*
X1097800Y1222378D02*
X1118004D01*
X1097800Y1223458D02*
X1117979D01*
X1097800Y1222918D02*
X1117950D01*
X802800Y999898D02*
X1113413D01*
X802800Y1025278D02*
X1113241D01*
X802800Y1000438D02*
X1111007D01*
X802800Y1024738D02*
X1110938D01*
X802800Y1000978D02*
X1109634D01*
X802800Y1024198D02*
X1109586D01*
X802800Y1001518D02*
X1108593D01*
X802800Y1023658D02*
X1108554D01*
X802800Y1002058D02*
X1107739D01*
X802800Y1023118D02*
X1107706D01*
X802800Y1002598D02*
X1107011D01*
X802800Y1022578D02*
X1106983D01*
X802800Y1003138D02*
X1106378D01*
X802800Y1022038D02*
X1106354D01*
X802800Y1003678D02*
X1105821D01*
X802800Y1021498D02*
X1105799D01*
X802800Y1004218D02*
X1105325D01*
X802800Y1020958D02*
X1105306D01*
X802800Y1004758D02*
X1104882D01*
X802800Y1020418D02*
X1104865D01*
X802800Y1005298D02*
X1104486D01*
X802800Y1019878D02*
X1104470D01*
X802800Y1005838D02*
X1104131D01*
X802800Y1019338D02*
X1104117D01*
X802800Y1006378D02*
X1103813D01*
X802800Y1018798D02*
X1103801D01*
X802800Y1006918D02*
X1103529D01*
X802800Y1018258D02*
X1103518D01*
X802800Y1007458D02*
X1103277D01*
X802800Y1017718D02*
X1103268D01*
X802800Y1007998D02*
X1103055D01*
X802800Y1017178D02*
X1103046D01*
X802800Y1008538D02*
X1102861D01*
X802800Y1016638D02*
X1102853D01*
X802800Y1009078D02*
X1102693D01*
X802800Y1016098D02*
X1102687D01*
X802800Y1009618D02*
X1102552D01*
X802800Y1015558D02*
X1102546D01*
X802800Y1010158D02*
X1102434D01*
X802800Y1015018D02*
X1102430D01*
X802800Y1010698D02*
X1102341D01*
X802800Y1014478D02*
X1102338D01*
X802800Y1011238D02*
X1102272D01*
X802800Y1013938D02*
X1102270D01*
X802800Y1011778D02*
X1102226D01*
X802800Y1013398D02*
X1102224D01*
X802800Y1012318D02*
X1102203D01*
X802800Y1012858D02*
X1102202D01*
X952287Y808738D02*
X953579D01*
X947025Y813058D02*
X952974D01*
X952164Y809278D02*
X952474D01*
X947727Y812518D02*
X952272D01*
X951884Y809818D02*
X952026D01*
X948081Y811978D02*
X951918D01*
X951354Y810358D02*
X951791D01*
X948257Y811438D02*
X951742D01*
X948297Y810898D02*
X951702D01*
X802800Y806578D02*
X948735D01*
X948208Y810358D02*
X948645D01*
X802800Y807118D02*
X948160D01*
X947973Y809818D02*
X948115D01*
X802800Y807658D02*
X947859D01*
X947525Y809278D02*
X947835D01*
X923929Y808198D02*
X947719D01*
X946420Y808738D02*
X947712D01*
X924836D02*
X945579D01*
X926984Y813058D02*
X944974D01*
X925458Y809278D02*
X944474D01*
X926963Y812518D02*
X944272D01*
X925924Y809818D02*
X944026D01*
X926885Y811978D02*
X943918D01*
X926279Y810358D02*
X943791D01*
X926749Y811438D02*
X943742D01*
X926550Y810898D02*
X943702D01*
X898806Y874618D02*
X922768D01*
X898994Y865438D02*
X922579D01*
X900030Y874078D02*
X921544D01*
X900120Y865978D02*
X921453D01*
X900743Y873538D02*
X920831D01*
X900804Y866518D02*
X920770D01*
X901248Y872998D02*
X920326D01*
X901293Y867058D02*
X920281D01*
X901622Y872458D02*
X919952D01*
X901656Y867598D02*
X919918D01*
X903973Y817918D02*
X919711D01*
X901899Y871918D02*
X919674D01*
X901924Y868138D02*
X919650D01*
X902097Y871378D02*
X919477D01*
X902114Y868678D02*
X919460D01*
X904244Y808198D02*
X919440D01*
X902226Y870838D02*
X919348D01*
X902236Y869218D02*
X919338D01*
X902290Y870298D02*
X919284D01*
X902293Y869758D02*
X919280D01*
X904986Y817378D02*
X918698D01*
X905151Y808738D02*
X918533D01*
X905654Y816838D02*
X918030D01*
X905773Y809278D02*
X917911D01*
X906148Y816298D02*
X917536D01*
X906239Y809818D02*
X917445D01*
X906525Y815758D02*
X917159D01*
X906594Y810358D02*
X917090D01*
X906813Y815218D02*
X916871D01*
X906865Y810898D02*
X916819D01*
X907027Y814678D02*
X916657D01*
X907064Y811438D02*
X916620D01*
X907176Y814138D02*
X916508D01*
X907200Y811978D02*
X916484D01*
X907266Y813598D02*
X916418D01*
X907278Y812518D02*
X916406D01*
X907299Y813058D02*
X916385D01*
X884288Y817918D02*
X900026D01*
X884559Y808198D02*
X899755D01*
X885301Y817378D02*
X899013D01*
X885466Y808738D02*
X898848D01*
X885969Y816838D02*
X898345D01*
X886088Y809278D02*
X898226D01*
X886463Y816298D02*
X897851D01*
X886554Y809818D02*
X897760D01*
X886840Y815758D02*
X897474D01*
X886909Y810358D02*
X897405D01*
X887128Y815218D02*
X897186D01*
X887180Y810898D02*
X897134D01*
X887342Y814678D02*
X896972D01*
X887379Y811438D02*
X896935D01*
X887491Y814138D02*
X896823D01*
X887515Y811978D02*
X896799D01*
X887581Y813598D02*
X896733D01*
X887593Y812518D02*
X896721D01*
X887614Y813058D02*
X896700D01*
X853189Y874618D02*
X896193D01*
X849824Y865438D02*
X896005D01*
X853200Y874078D02*
X894969D01*
X850293Y865978D02*
X894879D01*
X853187Y873538D02*
X894256D01*
X850713Y866518D02*
X894195D01*
X853152Y872998D02*
X893751D01*
X851089Y867058D02*
X893706D01*
X853094Y872458D02*
X893377D01*
X851426Y867598D02*
X893343D01*
X853012Y871918D02*
X893100D01*
X851727Y868138D02*
X893075D01*
X852907Y871378D02*
X892902D01*
X851995Y868678D02*
X892885D01*
X852777Y870838D02*
X892773D01*
X852232Y869218D02*
X892763D01*
X852622Y870298D02*
X892709D01*
X852441Y869758D02*
X892706D01*
X835070Y817918D02*
X880341D01*
X802800Y808198D02*
X880070D01*
X834786Y817378D02*
X879328D01*
X802800Y808738D02*
X879163D01*
X834468Y816838D02*
X878660D01*
X802800Y809278D02*
X878541D01*
X834113Y816298D02*
X878166D01*
X802800Y809818D02*
X878075D01*
X833717Y815758D02*
X877789D01*
X802800Y810358D02*
X877720D01*
X833274Y815218D02*
X877501D01*
X825186Y810898D02*
X877449D01*
X832778Y814678D02*
X877287D01*
X827592Y811438D02*
X877250D01*
X832221Y814138D02*
X877138D01*
X828965Y811978D02*
X877114D01*
X831588Y813598D02*
X877048D01*
X830006Y812518D02*
X877036D01*
X830860Y813058D02*
X877015D01*
X802800Y949138D02*
X845697D01*
X838546Y930238D02*
X845156D01*
X838561Y905398D02*
X844903D01*
X838503Y919438D02*
X844778D01*
X838520Y916198D02*
X844595D01*
X838457Y908638D02*
X844498D01*
X838475Y926998D02*
X844350D01*
X802800Y897838D02*
X844268D01*
X838427Y937798D02*
X844142D01*
X838333Y941578D02*
X843999D01*
X802800Y948598D02*
X843959D01*
X838275Y930778D02*
X843832D01*
X838297Y904858D02*
X843736D01*
X838214Y919978D02*
X843682D01*
X838237Y915658D02*
X843595D01*
X838148Y909178D02*
X843545D01*
X838173Y926458D02*
X843465D01*
X802800Y898378D02*
X843419D01*
X838104Y937258D02*
X843345D01*
X837971Y942118D02*
X843258D01*
X802800Y948058D02*
X843234D01*
X837889Y931318D02*
X843153D01*
X837920Y904318D02*
X843091D01*
X837801Y920518D02*
X843056D01*
X837835Y915118D02*
X842998D01*
X837708Y909718D02*
X842964D01*
X837743Y925918D02*
X842910D01*
X802800Y898918D02*
X842879D01*
X837646Y936718D02*
X842828D01*
X837454Y942658D02*
X842768D01*
X802800Y947518D02*
X842751D01*
X837334Y931858D02*
X842695D01*
X837380Y903778D02*
X842651D01*
X837204Y921058D02*
X842626D01*
X837254Y914578D02*
X842585D01*
X837063Y910258D02*
X842562D01*
X837117Y925378D02*
X842524D01*
X802800Y899458D02*
X842502D01*
X836967Y936178D02*
X842466D01*
X836657Y943198D02*
X842424D01*
X802800Y946978D02*
X842412D01*
X836449Y932398D02*
X842372D01*
X836531Y903238D02*
X842342D01*
X836204Y921598D02*
X842324D01*
X836301Y914038D02*
X842296D01*
X835896Y910798D02*
X842279D01*
X836021Y924838D02*
X842253D01*
X802800Y899998D02*
X842238D01*
X835643Y935638D02*
X842214D01*
X802800Y943738D02*
X842185D01*
X802800Y946438D02*
X842177D01*
X802800Y932938D02*
X842151D01*
X802800Y902698D02*
X842131D01*
X802800Y922138D02*
X842120D01*
X802800Y913498D02*
X842101D01*
X802800Y911338D02*
X842091D01*
X802800Y924298D02*
X842075D01*
X802800Y900538D02*
X842065D01*
X802800Y935098D02*
X842050D01*
X802800Y944278D02*
X842034D01*
X802800Y945898D02*
X842029D01*
X802800Y933478D02*
X842014D01*
X802800Y902158D02*
X842003D01*
X802800Y922678D02*
X841997D01*
X802800Y912958D02*
X841988D01*
X802800Y911878D02*
X841983D01*
X802800Y923758D02*
X841976D01*
X802800Y901078D02*
X841971D01*
X802800Y934558D02*
X841965D01*
X802800Y944818D02*
X841959D01*
X802800Y945358D02*
X841958D01*
X802800Y934018D02*
X841954D01*
X802800Y901618D02*
X841951D01*
X802800Y923218D02*
X841950D01*
X802800Y912418D02*
X841950D01*
X802800Y959938D02*
X837939D01*
X802800Y861658D02*
X837390D01*
X802800Y886498D02*
X837219D01*
X802800Y984778D02*
X836784D01*
X802800Y960478D02*
X836003D01*
X802800Y862198D02*
X835688D01*
X802800Y885958D02*
X835582D01*
X802800Y984238D02*
X835296D01*
X802800Y961018D02*
X834741D01*
X802800Y862738D02*
X834504D01*
X802800Y885418D02*
X834422D01*
X802800Y983698D02*
X834200D01*
X802800Y935638D02*
X833956D01*
X802800Y961558D02*
X833757D01*
X802800Y910798D02*
X833703D01*
X802800Y924838D02*
X833578D01*
X802800Y863278D02*
X833563D01*
X802800Y884878D02*
X833496D01*
X802800Y921598D02*
X833395D01*
X802800Y983158D02*
X833312D01*
X802800Y914038D02*
X833298D01*
X802800Y932398D02*
X833150D01*
X802800Y903238D02*
X833068D01*
X802800Y943198D02*
X832942D01*
X802800Y962098D02*
X832939D01*
X802800Y863818D02*
X832775D01*
X802800Y884338D02*
X832718D01*
X802800Y936178D02*
X832632D01*
X802800Y982618D02*
X832560D01*
X802800Y910258D02*
X832536D01*
X802800Y925378D02*
X832482D01*
X802800Y921058D02*
X832395D01*
X802800Y914578D02*
X832345D01*
X802800Y931858D02*
X832265D01*
X802800Y962638D02*
X832239D01*
X802800Y903778D02*
X832219D01*
X802800Y942658D02*
X832145D01*
X802800Y864358D02*
X832096D01*
X802800Y883798D02*
X832046D01*
X802800Y936718D02*
X831953D01*
X802800Y982078D02*
X831909D01*
X802800Y909718D02*
X831891D01*
X802800Y925918D02*
X831856D01*
X802800Y920518D02*
X831798D01*
X802800Y915118D02*
X831764D01*
X802800Y931318D02*
X831710D01*
X802800Y904318D02*
X831679D01*
X802800Y942118D02*
X831628D01*
X802800Y963178D02*
X831627D01*
X802800Y864898D02*
X831501D01*
X802800Y937258D02*
X831495D01*
X802800Y883258D02*
X831458D01*
X802800Y909178D02*
X831451D01*
X802800Y926458D02*
X831426D01*
X802800Y919978D02*
X831385D01*
X802800Y915658D02*
X831362D01*
X802800Y981538D02*
X831336D01*
X802800Y930778D02*
X831324D01*
X802800Y904858D02*
X831302D01*
X802800Y941578D02*
X831266D01*
X802800Y937798D02*
X831172D01*
X802800Y908638D02*
X831142D01*
X802800Y926998D02*
X831124D01*
X802800Y919438D02*
X831096D01*
X802800Y963718D02*
X831087D01*
X802800Y916198D02*
X831079D01*
X802800Y930238D02*
X831053D01*
X802800Y905398D02*
X831038D01*
X802800Y941038D02*
X831014D01*
X802800Y865438D02*
X830975D01*
X802800Y938338D02*
X830951D01*
X802800Y882718D02*
X830936D01*
X802800Y908098D02*
X830931D01*
X802800Y927538D02*
X830920D01*
X802800Y918898D02*
X830901D01*
X802800Y916738D02*
X830891D01*
X802800Y929698D02*
X830875D01*
X802800Y905938D02*
X830865D01*
X802800Y940498D02*
X830850D01*
X802800Y980998D02*
X830828D01*
X802800Y938878D02*
X830814D01*
X802800Y907558D02*
X830803D01*
X802800Y928078D02*
X830797D01*
X802800Y918358D02*
X830788D01*
X802800Y917278D02*
X830783D01*
X802800Y929158D02*
X830776D01*
X802800Y906478D02*
X830771D01*
X802800Y939958D02*
X830765D01*
X802800Y939418D02*
X830754D01*
X802800Y907018D02*
X830751D01*
X802800Y928618D02*
X830750D01*
X802800Y917818D02*
X830750D01*
X802800Y964258D02*
X830606D01*
X802800Y865978D02*
X830506D01*
X802800Y882178D02*
X830471D01*
X802800Y980458D02*
X830375D01*
X802800Y964798D02*
X830175D01*
X802800Y866518D02*
X830086D01*
X802800Y881638D02*
X830055D01*
X802800Y979918D02*
X829969D01*
X802800Y965338D02*
X829790D01*
X802800Y867058D02*
X829710D01*
X802800Y881098D02*
X829682D01*
X802800Y979378D02*
X829605D01*
X802800Y965878D02*
X829445D01*
X802800Y867598D02*
X829373D01*
X802800Y880558D02*
X829348D01*
X802800Y978838D02*
X829279D01*
X802800Y966418D02*
X829136D01*
X802800Y868138D02*
X829072D01*
X802800Y880018D02*
X829050D01*
X802800Y978298D02*
X828988D01*
X802800Y966958D02*
X828861D01*
X802800Y868678D02*
X828804D01*
X802800Y879478D02*
X828784D01*
X802800Y977758D02*
X828730D01*
X802800Y967498D02*
X828617D01*
X802800Y869218D02*
X828567D01*
X802800Y878938D02*
X828549D01*
X802800Y977218D02*
X828501D01*
X802800Y968038D02*
X828402D01*
X802800Y869758D02*
X828358D01*
X802800Y878398D02*
X828343D01*
X802800Y976678D02*
X828301D01*
X802800Y968578D02*
X828215D01*
X802800Y870298D02*
X828177D01*
X802800Y877858D02*
X828164D01*
X802800Y976138D02*
X828128D01*
X802800Y969118D02*
X828054D01*
X802800Y870838D02*
X828022D01*
X802800Y877318D02*
X828011D01*
X802800Y975598D02*
X827980D01*
X802800Y969658D02*
X827919D01*
X802800Y871378D02*
X827892D01*
X802800Y876778D02*
X827883D01*
X802800Y975058D02*
X827858D01*
X802800Y970198D02*
X827808D01*
X802800Y871918D02*
X827787D01*
X802800Y876238D02*
X827779D01*
X802800Y974518D02*
X827760D01*
X802800Y970738D02*
X827721D01*
X802800Y872458D02*
X827705D01*
X802800Y875698D02*
X827700D01*
X802800Y973978D02*
X827685D01*
X802800Y971278D02*
X827658D01*
X802800Y872998D02*
X827647D01*
X802800Y875158D02*
X827643D01*
X802800Y973438D02*
X827634D01*
X802800Y971818D02*
X827618D01*
X802800Y873538D02*
X827612D01*
X802800Y874618D02*
X827610D01*
X802800Y972898D02*
X827606D01*
X802800Y972358D02*
X827600D01*
X802800Y874078D02*
X827599D01*
X802800Y810898D02*
X822013D01*
X802800Y836278D02*
X821841D01*
X802800Y811438D02*
X819607D01*
X802800Y835738D02*
X819538D01*
X802800Y811978D02*
X818234D01*
X802800Y835198D02*
X818186D01*
X802800Y812518D02*
X817193D01*
X802800Y834658D02*
X817154D01*
X802800Y813058D02*
X816339D01*
X802800Y834118D02*
X816306D01*
X802800Y813598D02*
X815611D01*
X802800Y833578D02*
X815583D01*
X802800Y814138D02*
X814978D01*
X802800Y833038D02*
X814954D01*
X802800Y814678D02*
X814421D01*
X802800Y832498D02*
X814399D01*
X802800Y815218D02*
X813925D01*
X802800Y831958D02*
X813906D01*
X802800Y815758D02*
X813482D01*
X802800Y831418D02*
X813465D01*
X802800Y816298D02*
X813086D01*
X802800Y830878D02*
X813070D01*
X802800Y816838D02*
X812731D01*
X802800Y830338D02*
X812717D01*
X802800Y817378D02*
X812413D01*
X802800Y829798D02*
X812401D01*
X802800Y817918D02*
X812129D01*
X802800Y829258D02*
X812118D01*
X802800Y818458D02*
X811877D01*
X802800Y828718D02*
X811868D01*
X802800Y818998D02*
X811655D01*
X802800Y828178D02*
X811646D01*
X802800Y819538D02*
X811461D01*
X802800Y827638D02*
X811453D01*
X802800Y820078D02*
X811293D01*
X802800Y827098D02*
X811287D01*
X802800Y820618D02*
X811152D01*
X802800Y826558D02*
X811146D01*
X802800Y821158D02*
X811034D01*
X802800Y826018D02*
X811030D01*
X802800Y821698D02*
X810941D01*
X802800Y825478D02*
X810938D01*
X802800Y822238D02*
X810872D01*
X802800Y824938D02*
X810870D01*
X802800Y822778D02*
X810826D01*
X802800Y824398D02*
X810824D01*
X802800Y823318D02*
X810803D01*
X802800Y823858D02*
X810802D01*
X1322800Y1269418D02*
X1427099D01*
X1322800Y1268878D02*
X1427099D01*
X1322800Y1268338D02*
X1427099D01*
X1322800Y1267798D02*
X1427099D01*
X1416160Y1267258D02*
X1427099D01*
X1417913Y1266718D02*
X1427099D01*
X1418760Y1266178D02*
X1427099D01*
X1419353Y1265638D02*
X1427099D01*
X1419799Y1265098D02*
X1427099D01*
X1420141Y1264558D02*
X1427099D01*
X1420400Y1264018D02*
X1427099D01*
X1420589Y1263478D02*
X1427099D01*
X1420716Y1262938D02*
X1427099D01*
X1420785Y1262398D02*
X1427099D01*
X1420798Y1261858D02*
X1427099D01*
X1420756Y1261318D02*
X1427099D01*
X1420657Y1260778D02*
X1427099D01*
X1420498Y1260238D02*
X1427099D01*
X1420274Y1259698D02*
X1427099D01*
X1419974Y1259158D02*
X1427099D01*
X1419581Y1258618D02*
X1427099D01*
X1419065Y1258078D02*
X1427099D01*
X1418361Y1257538D02*
X1427099D01*
X1417254Y1256998D02*
X1427099D01*
X1408365Y1256458D02*
X1427099D01*
X1409068Y1255918D02*
X1427099D01*
X1409583Y1255378D02*
X1427099D01*
X1409975Y1254838D02*
X1427099D01*
X1410275Y1254298D02*
X1427099D01*
X1410499Y1253758D02*
X1427099D01*
X1410658Y1253218D02*
X1427099D01*
X1410756Y1252678D02*
X1427099D01*
X1410798Y1252138D02*
X1427099D01*
X1410784Y1251598D02*
X1427099D01*
X1410715Y1251058D02*
X1427099D01*
X1410588Y1250518D02*
X1427099D01*
X1410399Y1249978D02*
X1427099D01*
X1410140Y1249438D02*
X1427099D01*
X1409797Y1248898D02*
X1427099D01*
X1409351Y1248358D02*
X1427099D01*
X1408756Y1247818D02*
X1427099D01*
X1415975Y1247278D02*
X1427099D01*
X1417873Y1246738D02*
X1427099D01*
X1418734Y1246198D02*
X1427099D01*
X1419334Y1245658D02*
X1427099D01*
X1419785Y1245118D02*
X1427099D01*
X1420130Y1244578D02*
X1427099D01*
X1420392Y1244038D02*
X1427099D01*
X1420583Y1243498D02*
X1427099D01*
X1420712Y1242958D02*
X1427099D01*
X1420783Y1242418D02*
X1427099D01*
X1420798Y1241878D02*
X1427099D01*
X1420758Y1241338D02*
X1427099D01*
X1420662Y1240798D02*
X1427099D01*
X1420505Y1240258D02*
X1427099D01*
X1420283Y1239718D02*
X1427099D01*
X1419986Y1239178D02*
X1427099D01*
X1419597Y1238638D02*
X1427099D01*
X1419087Y1238098D02*
X1427099D01*
X1418392Y1237558D02*
X1427099D01*
X1417310Y1237018D02*
X1427099D01*
X1330209Y1236478D02*
X1427099D01*
X1330616Y1235938D02*
X1427099D01*
X1330981Y1235398D02*
X1427099D01*
X1331308Y1234858D02*
X1427099D01*
X1348908Y1234318D02*
X1427099D01*
X1349411Y1233778D02*
X1427099D01*
X1349678Y1233238D02*
X1427099D01*
X1349791Y1232698D02*
X1427099D01*
X1349774Y1232158D02*
X1427099D01*
X1349624Y1231618D02*
X1427099D01*
X1349308Y1231078D02*
X1427099D01*
X1348701Y1230538D02*
X1427099D01*
X1332911Y1229998D02*
X1427099D01*
X1332964Y1229458D02*
X1427099D01*
X1332993Y1228918D02*
X1427099D01*
X1332999Y1228378D02*
X1427099D01*
X1332982Y1227838D02*
X1427099D01*
X1332943Y1227298D02*
X1427099D01*
X1332881Y1226758D02*
X1427099D01*
X1332795Y1226218D02*
X1427099D01*
X1332685Y1225678D02*
X1427099D01*
X1332550Y1225138D02*
X1427099D01*
X1332390Y1224598D02*
X1427099D01*
X1332204Y1224058D02*
X1427099D01*
X1331990Y1223518D02*
X1427099D01*
X1331747Y1222978D02*
X1427099D01*
X1331473Y1222438D02*
X1427099D01*
X1331166Y1221898D02*
X1427099D01*
X1330822Y1221358D02*
X1427099D01*
X1386408Y1220818D02*
X1427099D01*
X1386911Y1220278D02*
X1427099D01*
X1387178Y1219738D02*
X1427099D01*
X1387291Y1219198D02*
X1427099D01*
X1387274Y1218658D02*
X1427099D01*
X1387124Y1218118D02*
X1427099D01*
X1386808Y1217578D02*
X1427099D01*
X1386201Y1217038D02*
X1427099D01*
X1375244Y1216498D02*
X1427099D01*
X1375050Y1215958D02*
X1427099D01*
X1374670Y1215418D02*
X1427099D01*
X1373888Y1214878D02*
X1427099D01*
X1407551Y1214338D02*
X1427099D01*
X1410177Y1213798D02*
X1427099D01*
X1411583Y1213258D02*
X1427099D01*
X1412641Y1212718D02*
X1427099D01*
X1413506Y1212178D02*
X1427099D01*
X1414241Y1211638D02*
X1427099D01*
X1414879Y1211098D02*
X1427099D01*
X1415442Y1210558D02*
X1427099D01*
X1415941Y1210018D02*
X1427099D01*
X1416387Y1209478D02*
X1427099D01*
X1416787Y1208938D02*
X1427099D01*
X1417145Y1208398D02*
X1427099D01*
X1417465Y1207858D02*
X1427099D01*
X1417751Y1207318D02*
X1427099D01*
X1418005Y1206778D02*
X1427099D01*
X1418229Y1206238D02*
X1427099D01*
X1418426Y1205698D02*
X1427099D01*
X1418595Y1205158D02*
X1427099D01*
X1418738Y1204618D02*
X1427099D01*
X1418857Y1204078D02*
X1427099D01*
X1418952Y1203538D02*
X1427099D01*
X1419023Y1202998D02*
X1427099D01*
X1419071Y1202458D02*
X1427099D01*
X1419096Y1201918D02*
X1427099D01*
X1419098Y1201378D02*
X1427099D01*
X1419077Y1200838D02*
X1427099D01*
X1419033Y1200298D02*
X1427099D01*
X1418966Y1199758D02*
X1427099D01*
X1418876Y1199218D02*
X1427099D01*
X1418762Y1198678D02*
X1427099D01*
X1418623Y1198138D02*
X1427099D01*
X1418458Y1197598D02*
X1427099D01*
X1418267Y1197058D02*
X1427099D01*
X1418048Y1196518D02*
X1427099D01*
X1417799Y1195978D02*
X1427099D01*
X1417519Y1195438D02*
X1427099D01*
X1417205Y1194898D02*
X1427099D01*
X1416854Y1194358D02*
X1427099D01*
X1416463Y1193818D02*
X1427099D01*
X1416026Y1193278D02*
X1427099D01*
X1415536Y1192738D02*
X1427099D01*
X1414986Y1192198D02*
X1427099D01*
X1414362Y1191658D02*
X1427099D01*
X1413647Y1191118D02*
X1427099D01*
X1412809Y1190578D02*
X1427099D01*
X1411793Y1190038D02*
X1427099D01*
X1410471Y1189498D02*
X1427099D01*
X1408309Y1188958D02*
X1427099D01*
X1322800Y1188418D02*
X1427099D01*
X1322800Y1187878D02*
X1427099D01*
X1322800Y1187338D02*
X1427099D01*
X1322800Y1186798D02*
X1427099D01*
X1322800Y1186258D02*
X1427099D01*
X1322800Y1185718D02*
X1427099D01*
X1322800Y1185178D02*
X1427099D01*
X1322800Y1184638D02*
X1427099D01*
X1322800Y1184098D02*
X1427099D01*
X1322800Y1183558D02*
X1427099D01*
X1322800Y1183018D02*
X1427099D01*
X1322800Y1182478D02*
X1427099D01*
X1322800Y1181938D02*
X1427099D01*
X1322800Y1181398D02*
X1427099D01*
X1322800Y1180858D02*
X1427099D01*
X1322800Y1180318D02*
X1427099D01*
X1322800Y1179778D02*
X1427099D01*
X1322800Y1179238D02*
X1427099D01*
X1322800Y1178698D02*
X1427099D01*
X1322800Y1178158D02*
X1427099D01*
X1322800Y1177618D02*
X1427099D01*
X1322800Y1177078D02*
X1427099D01*
X1322800Y1176538D02*
X1427099D01*
X1322800Y1175998D02*
X1427099D01*
X1322800Y1175458D02*
X1427099D01*
X1322800Y1174918D02*
X1427099D01*
X1322800Y1174378D02*
X1427099D01*
X1322800Y1173838D02*
X1427099D01*
X1322800Y1173298D02*
X1427099D01*
X1322800Y1172758D02*
X1427099D01*
X1322800Y1172218D02*
X1427099D01*
X1322800Y1171678D02*
X1427099D01*
X1322800Y1171138D02*
X1427099D01*
X1322800Y1170598D02*
X1427099D01*
X1322800Y1170058D02*
X1427099D01*
X1322800Y1169518D02*
X1427099D01*
X1322800Y1168978D02*
X1427099D01*
X1322800Y1168438D02*
X1427099D01*
X1322800Y1167898D02*
X1427099D01*
X1322800Y1167358D02*
X1427099D01*
X1322800Y1166818D02*
X1427099D01*
X1322800Y1166278D02*
X1427099D01*
X1322800Y1165738D02*
X1427099D01*
X1322800Y1165198D02*
X1427099D01*
X1322800Y1164658D02*
X1427099D01*
X1322800Y1164118D02*
X1427099D01*
X1322800Y1163578D02*
X1427099D01*
X1322800Y1163038D02*
X1427099D01*
X1322800Y1162498D02*
X1427099D01*
X1322800Y1161958D02*
X1427099D01*
X1322800Y1161418D02*
X1427099D01*
X1322800Y1160878D02*
X1427099D01*
X1322800Y1160338D02*
X1427099D01*
X1322800Y1159798D02*
X1427099D01*
X1322800Y1159258D02*
X1427099D01*
X1322800Y1158718D02*
X1427099D01*
X1322800Y1158178D02*
X1427099D01*
X1322800Y1157638D02*
X1427099D01*
X1322800Y1157098D02*
X1427099D01*
X1322800Y1156558D02*
X1427099D01*
X1322800Y1156018D02*
X1427099D01*
X1322800Y1155478D02*
X1427099D01*
X1322800Y1154938D02*
X1427099D01*
X1322800Y1154398D02*
X1427099D01*
X1322800Y1153858D02*
X1427099D01*
X1322800Y1153318D02*
X1427099D01*
X1322800Y1152778D02*
X1427099D01*
X1322800Y1152238D02*
X1427099D01*
X1322800Y1151698D02*
X1427099D01*
X1322800Y1151158D02*
X1427099D01*
X1322800Y1150618D02*
X1427099D01*
X1322800Y1150078D02*
X1427099D01*
X1322800Y1149538D02*
X1427099D01*
X1322800Y1148998D02*
X1427099D01*
X1322800Y1148458D02*
X1427099D01*
X1322800Y1147918D02*
X1427099D01*
X1322800Y1147378D02*
X1427099D01*
X1322800Y1146838D02*
X1427099D01*
X1322800Y1146298D02*
X1427099D01*
X1322800Y1145758D02*
X1427099D01*
X1322800Y1145218D02*
X1427099D01*
X1322800Y1144678D02*
X1427099D01*
X1322800Y1144138D02*
X1427099D01*
X1322800Y1143598D02*
X1427099D01*
X1322800Y1143058D02*
X1427099D01*
X1322800Y1142518D02*
X1427099D01*
X1322800Y1141978D02*
X1427099D01*
X1322800Y1141438D02*
X1427099D01*
X1322800Y1140898D02*
X1427099D01*
X1322800Y1140358D02*
X1427099D01*
X1322800Y1139818D02*
X1427099D01*
X1322800Y1139278D02*
X1427099D01*
X1322800Y1138738D02*
X1427099D01*
X1322800Y1138198D02*
X1427099D01*
X1322800Y1137658D02*
X1427099D01*
X1406540Y1137118D02*
X1427099D01*
X1409039Y1136578D02*
X1427099D01*
X1410427Y1136038D02*
X1427099D01*
X1411476Y1135498D02*
X1427099D01*
X1412335Y1134958D02*
X1427099D01*
X1413066Y1134418D02*
X1427099D01*
X1413702Y1133878D02*
X1427099D01*
X1414261Y1133338D02*
X1427099D01*
X1414759Y1132798D02*
X1427099D01*
X1415203Y1132258D02*
X1427099D01*
X1415601Y1131718D02*
X1427099D01*
X1415957Y1131178D02*
X1427099D01*
X1416276Y1130638D02*
X1427099D01*
X1416561Y1130098D02*
X1427099D01*
X1416814Y1129558D02*
X1427099D01*
X1417037Y1129018D02*
X1427099D01*
X1417232Y1128478D02*
X1427099D01*
X1417401Y1127938D02*
X1427099D01*
X1417543Y1127398D02*
X1427099D01*
X1417661Y1126858D02*
X1427099D01*
X1417755Y1126318D02*
X1427099D01*
X1417825Y1125778D02*
X1427099D01*
X1417872Y1125238D02*
X1427099D01*
X1417896Y1124698D02*
X1427099D01*
X1417897Y1124158D02*
X1427099D01*
X1417876Y1123618D02*
X1427099D01*
X1417831Y1123078D02*
X1427099D01*
X1417763Y1122538D02*
X1427099D01*
X1417672Y1121998D02*
X1427099D01*
X1417557Y1121458D02*
X1427099D01*
X1417417Y1120918D02*
X1427099D01*
X1417251Y1120378D02*
X1427099D01*
X1417059Y1119838D02*
X1427099D01*
X1416839Y1119298D02*
X1427099D01*
X1416589Y1118758D02*
X1427099D01*
X1416308Y1118218D02*
X1427099D01*
X1415993Y1117678D02*
X1427099D01*
X1415641Y1117138D02*
X1427099D01*
X1415247Y1116598D02*
X1427099D01*
X1414808Y1116058D02*
X1427099D01*
X1414317Y1115518D02*
X1427099D01*
X1413764Y1114978D02*
X1427099D01*
X1413138Y1114438D02*
X1427099D01*
X1412418Y1113898D02*
X1427099D01*
X1411575Y1113358D02*
X1427099D01*
X1410551Y1112818D02*
X1427099D01*
X1409212Y1112278D02*
X1427099D01*
X1406979Y1111738D02*
X1427099D01*
X1322800Y1111198D02*
X1427099D01*
X1322800Y1110658D02*
X1427099D01*
X1322800Y1110118D02*
X1427099D01*
X1322800Y1109578D02*
X1427099D01*
X1322800Y1109038D02*
X1427099D01*
X1322800Y1108498D02*
X1427099D01*
X1322800Y1107958D02*
X1427099D01*
X1322800Y1107418D02*
X1427099D01*
X1322800Y1106878D02*
X1427099D01*
X1322800Y1106338D02*
X1427099D01*
X1322800Y1105798D02*
X1427099D01*
X1322800Y1105258D02*
X1427099D01*
X1322800Y1104718D02*
X1427099D01*
X1322800Y1104178D02*
X1427099D01*
X1322800Y1103638D02*
X1427099D01*
X1322800Y1103098D02*
X1427099D01*
X1322800Y1102558D02*
X1427099D01*
X1322800Y1102018D02*
X1427099D01*
X1400256Y1101478D02*
X1427099D01*
X1401639Y1100938D02*
X1427099D01*
X1402328Y1100398D02*
X1427099D01*
X1402792Y1099858D02*
X1427099D01*
X1403118Y1099318D02*
X1427099D01*
X1403342Y1098778D02*
X1427099D01*
X1403482Y1098238D02*
X1427099D01*
X1403545Y1097698D02*
X1427099D01*
X1403535Y1097158D02*
X1427099D01*
X1403452Y1096618D02*
X1427099D01*
X1403292Y1096078D02*
X1427099D01*
X1412669Y1095538D02*
X1427099D01*
X1413422Y1094998D02*
X1427099D01*
X1413918Y1094458D02*
X1427099D01*
X1414266Y1093918D02*
X1427099D01*
X1414508Y1093378D02*
X1427099D01*
X1414662Y1092838D02*
X1427099D01*
X1414738Y1092298D02*
X1427099D01*
X1414742Y1091758D02*
X1427099D01*
X1414673Y1091218D02*
X1427099D01*
X1414528Y1090678D02*
X1427099D01*
X1414296Y1090138D02*
X1427099D01*
X1413961Y1089598D02*
X1427099D01*
X1413484Y1089058D02*
X1427099D01*
X1412769Y1088518D02*
X1427099D01*
X1411181Y1087978D02*
X1427099D01*
X1403462Y1087438D02*
X1427099D01*
X1403538Y1086898D02*
X1427099D01*
X1403542Y1086358D02*
X1427099D01*
X1403473Y1085818D02*
X1427099D01*
X1403328Y1085278D02*
X1427099D01*
X1412577Y1084738D02*
X1427099D01*
X1413366Y1084198D02*
X1427099D01*
X1413879Y1083658D02*
X1427099D01*
X1414239Y1083118D02*
X1427099D01*
X1414489Y1082578D02*
X1427099D01*
X1414651Y1082038D02*
X1427099D01*
X1414734Y1081498D02*
X1427099D01*
X1414745Y1080958D02*
X1427099D01*
X1414683Y1080418D02*
X1427099D01*
X1414545Y1079878D02*
X1427099D01*
X1414322Y1079338D02*
X1427099D01*
X1413997Y1078798D02*
X1427099D01*
X1413536Y1078258D02*
X1427099D01*
X1412851Y1077718D02*
X1427099D01*
X1411494Y1077178D02*
X1427099D01*
X1403439Y1076638D02*
X1427099D01*
X1403530Y1076098D02*
X1427099D01*
X1403547Y1075558D02*
X1427099D01*
X1403492Y1075018D02*
X1427099D01*
X1403361Y1074478D02*
X1427099D01*
X1412372Y1073938D02*
X1427099D01*
X1413247Y1073398D02*
X1427099D01*
X1413797Y1072858D02*
X1427099D01*
X1414181Y1072318D02*
X1427099D01*
X1414450Y1071778D02*
X1427099D01*
X1414627Y1071238D02*
X1427099D01*
X1414725Y1070698D02*
X1427099D01*
X1414748Y1070158D02*
X1427099D01*
X1414700Y1069618D02*
X1427099D01*
X1414576Y1069078D02*
X1427099D01*
X1414370Y1068538D02*
X1427099D01*
X1414066Y1067998D02*
X1427099D01*
X1413634Y1067458D02*
X1427099D01*
X1413003Y1066918D02*
X1427099D01*
X1411889Y1066378D02*
X1427099D01*
X1403414Y1065838D02*
X1427099D01*
X1407908Y1247278D02*
X1415024D01*
X1396160Y1267258D02*
X1414839D01*
X1407261Y1256998D02*
X1413745D01*
X1397310Y1237018D02*
X1413689D01*
X1406139Y1246738D02*
X1413126D01*
X1397913Y1266718D02*
X1413086D01*
X1398361Y1257538D02*
X1412638D01*
X1398392Y1237558D02*
X1412607D01*
X1398734Y1246198D02*
X1412265D01*
X1398760Y1266178D02*
X1412239D01*
X1399065Y1258078D02*
X1411934D01*
X1399087Y1238098D02*
X1411912D01*
X1399334Y1245658D02*
X1411665D01*
X1399353Y1265638D02*
X1411646D01*
X1399581Y1258618D02*
X1411418D01*
X1399597Y1238638D02*
X1411402D01*
X1399785Y1245118D02*
X1411214D01*
X1399799Y1265098D02*
X1411200D01*
X1399974Y1259158D02*
X1411025D01*
X1399986Y1239178D02*
X1411013D01*
X1400130Y1244578D02*
X1410869D01*
X1400141Y1264558D02*
X1410858D01*
X1400274Y1259698D02*
X1410725D01*
X1400283Y1239718D02*
X1410716D01*
X1400392Y1244038D02*
X1410607D01*
X1400400Y1264018D02*
X1410599D01*
X1400498Y1260238D02*
X1410501D01*
X1400505Y1240258D02*
X1410494D01*
X1400583Y1243498D02*
X1410416D01*
X1400589Y1263478D02*
X1410410D01*
X1400657Y1260778D02*
X1410342D01*
X1400662Y1240798D02*
X1410337D01*
X1400712Y1242958D02*
X1410287D01*
X1400716Y1262938D02*
X1410283D01*
X1400756Y1261318D02*
X1410243D01*
X1400758Y1241338D02*
X1410241D01*
X1403308Y1087978D02*
X1410218D01*
X1400783Y1242418D02*
X1410216D01*
X1400785Y1262398D02*
X1410214D01*
X1400798Y1261858D02*
X1410201D01*
X1400798Y1241878D02*
X1410201D01*
X1403270Y1077178D02*
X1409905D01*
X1403229Y1066378D02*
X1409510D01*
X1403146Y1073938D02*
X1409027D01*
X1403096Y1084738D02*
X1408822D01*
X1403043Y1095538D02*
X1408730D01*
X1403066Y1088518D02*
X1408630D01*
X1403011Y1077718D02*
X1408548D01*
X1402951Y1066918D02*
X1408396D01*
X1402832Y1073398D02*
X1408152D01*
X1402761Y1084198D02*
X1408033D01*
X1402685Y1094998D02*
X1407977D01*
X1402718Y1089058D02*
X1407915D01*
X1402639Y1078258D02*
X1407863D01*
X1402555Y1067458D02*
X1407765D01*
X1402386Y1072858D02*
X1407602D01*
X1402284Y1083658D02*
X1407520D01*
X1402174Y1094458D02*
X1407481D01*
X1402222Y1089598D02*
X1407438D01*
X1402107Y1078798D02*
X1407402D01*
X1401984Y1067998D02*
X1407333D01*
X1401729Y1072318D02*
X1407218D01*
X1401569Y1083118D02*
X1407160D01*
X1401391Y1093918D02*
X1407133D01*
X1401469Y1090138D02*
X1407103D01*
X1401278Y1079338D02*
X1407077D01*
X1401057Y1068538D02*
X1407029D01*
X1400512Y1071778D02*
X1406949D01*
X1399981Y1082578D02*
X1406910D01*
X1212800Y1093378D02*
X1406891D01*
X1212800Y1090678D02*
X1406871D01*
X1231296Y1079878D02*
X1406854D01*
X1212800Y1069078D02*
X1406823D01*
X1212800Y1071238D02*
X1406772D01*
X1230064Y1082038D02*
X1406748D01*
X1212800Y1092838D02*
X1406737D01*
X1212800Y1091218D02*
X1406726D01*
X1231261Y1080418D02*
X1406716D01*
X1212800Y1069618D02*
X1406699D01*
X1212800Y1070698D02*
X1406674D01*
X1230744Y1081498D02*
X1406665D01*
X1212800Y1092298D02*
X1406661D01*
X1212800Y1091758D02*
X1406657D01*
X1231090Y1080958D02*
X1406654D01*
X1212800Y1070158D02*
X1406651D01*
X1384881Y1214338D02*
X1405048D01*
X1397873Y1246738D02*
X1404860D01*
X1322800Y1188958D02*
X1404290D01*
X1397254Y1256998D02*
X1403738D01*
X1322800Y1137118D02*
X1403659D01*
X1322800Y1111738D02*
X1403220D01*
X1395975Y1247278D02*
X1403091D01*
X1322800Y1256458D02*
X1402634D01*
X1385398Y1213798D02*
X1402422D01*
X1322800Y1247818D02*
X1402243D01*
X1322800Y1189498D02*
X1402128D01*
X1322800Y1255918D02*
X1401931D01*
X1322800Y1248358D02*
X1401648D01*
X1322800Y1255378D02*
X1401416D01*
X1322800Y1248898D02*
X1401202D01*
X1322800Y1136578D02*
X1401160D01*
X1322800Y1254838D02*
X1401024D01*
X1385671Y1213258D02*
X1401016D01*
X1322800Y1112278D02*
X1400987D01*
X1322800Y1249438D02*
X1400859D01*
X1322800Y1190038D02*
X1400806D01*
X1322800Y1254298D02*
X1400724D01*
X1322800Y1249978D02*
X1400600D01*
X1322800Y1253758D02*
X1400500D01*
X1322800Y1250518D02*
X1400411D01*
X1322800Y1253218D02*
X1400341D01*
X1322800Y1251058D02*
X1400284D01*
X1322800Y1252678D02*
X1400243D01*
X1322800Y1251598D02*
X1400215D01*
X1322800Y1252138D02*
X1400201D01*
X1385789Y1212718D02*
X1399958D01*
X1322800Y1190578D02*
X1399790D01*
X1322800Y1136038D02*
X1399772D01*
X1322800Y1112818D02*
X1399648D01*
X1385777Y1212178D02*
X1399093D01*
X1212800Y1082578D02*
X1399018D01*
X1322800Y1191118D02*
X1398952D01*
X1322800Y1101478D02*
X1398743D01*
X1322800Y1135498D02*
X1398723D01*
X1322800Y1113358D02*
X1398624D01*
X1212800Y1071778D02*
X1398487D01*
X1385632Y1211638D02*
X1398358D01*
X1322800Y1191658D02*
X1398237D01*
X1212800Y1068538D02*
X1397942D01*
X1322800Y1134958D02*
X1397864D01*
X1322800Y1113898D02*
X1397781D01*
X1231202Y1079338D02*
X1397721D01*
X1385323Y1211098D02*
X1397720D01*
X1322800Y1192198D02*
X1397613D01*
X1212800Y1093918D02*
X1397608D01*
X1212800Y1090138D02*
X1397530D01*
X1212800Y1083118D02*
X1397430D01*
X1322800Y1100938D02*
X1397360D01*
X1212800Y1072318D02*
X1397270D01*
X1384733Y1210558D02*
X1397157D01*
X1322800Y1134418D02*
X1397133D01*
X1322800Y1192738D02*
X1397063D01*
X1322800Y1114438D02*
X1397061D01*
X1212800Y1067998D02*
X1397015D01*
X1230961Y1078798D02*
X1396892D01*
X1212800Y1094458D02*
X1396825D01*
X1212800Y1089598D02*
X1396777D01*
X1212800Y1083658D02*
X1396715D01*
X1322800Y1100398D02*
X1396671D01*
X1322800Y1210018D02*
X1396658D01*
X1212800Y1072858D02*
X1396613D01*
X1322800Y1193278D02*
X1396573D01*
X1322800Y1133878D02*
X1396497D01*
X1212800Y1067458D02*
X1396444D01*
X1322800Y1114978D02*
X1396435D01*
X1230502Y1078258D02*
X1396360D01*
X1322800Y1094998D02*
X1396314D01*
X1212800Y1089058D02*
X1396281D01*
X1212800Y1084198D02*
X1396238D01*
X1322800Y1209478D02*
X1396212D01*
X1322800Y1099858D02*
X1396207D01*
X1212800Y1073398D02*
X1396167D01*
X1322800Y1193818D02*
X1396136D01*
X1221268Y1066918D02*
X1396048D01*
X1229292Y1077718D02*
X1395988D01*
X1322800Y1095538D02*
X1395956D01*
X1322800Y1133338D02*
X1395938D01*
X1212800Y1088518D02*
X1395933D01*
X1212800Y1084738D02*
X1395903D01*
X1322800Y1115518D02*
X1395882D01*
X1322800Y1099318D02*
X1395881D01*
X1212800Y1073938D02*
X1395853D01*
X1322800Y1208938D02*
X1395812D01*
X1221841Y1066378D02*
X1395770D01*
X1322800Y1194358D02*
X1395745D01*
X1212800Y1077178D02*
X1395729D01*
X1322800Y1096078D02*
X1395707D01*
X1212800Y1087978D02*
X1395691D01*
X1212800Y1085278D02*
X1395671D01*
X1322800Y1098778D02*
X1395657D01*
X1212800Y1074478D02*
X1395638D01*
X1222141Y1065838D02*
X1395585D01*
X1212800Y1076638D02*
X1395560D01*
X1322800Y1096618D02*
X1395547D01*
X1212800Y1087438D02*
X1395537D01*
X1212800Y1085818D02*
X1395526D01*
X1322800Y1098238D02*
X1395517D01*
X1212800Y1075018D02*
X1395507D01*
X1212800Y1076098D02*
X1395469D01*
X1322800Y1097158D02*
X1395464D01*
X1212800Y1086898D02*
X1395461D01*
X1212800Y1086358D02*
X1395457D01*
X1322800Y1097698D02*
X1395454D01*
X1322800Y1208398D02*
X1395454D01*
X1212800Y1075558D02*
X1395452D01*
X1322800Y1132798D02*
X1395440D01*
X1322800Y1194898D02*
X1395394D01*
X1322800Y1116058D02*
X1395391D01*
X1322800Y1207858D02*
X1395134D01*
X1322800Y1195438D02*
X1395080D01*
X1322800Y1247278D02*
X1395024D01*
X1322800Y1132258D02*
X1394996D01*
X1322800Y1116598D02*
X1394952D01*
X1322800Y1207318D02*
X1394848D01*
X1322800Y1267258D02*
X1394839D01*
X1322800Y1195978D02*
X1394800D01*
X1322800Y1131718D02*
X1394598D01*
X1322800Y1206778D02*
X1394594D01*
X1322800Y1117138D02*
X1394558D01*
X1322800Y1196518D02*
X1394551D01*
X1322800Y1206238D02*
X1394370D01*
X1322800Y1197058D02*
X1394332D01*
X1322800Y1131178D02*
X1394242D01*
X1322800Y1117678D02*
X1394206D01*
X1322800Y1205698D02*
X1394173D01*
X1322800Y1197598D02*
X1394141D01*
X1322800Y1205158D02*
X1394004D01*
X1322800Y1198138D02*
X1393976D01*
X1322800Y1130638D02*
X1393923D01*
X1322800Y1118218D02*
X1393891D01*
X1378895Y1204618D02*
X1393861D01*
X1322800Y1198678D02*
X1393837D01*
X1322800Y1256998D02*
X1393745D01*
X1379672Y1204078D02*
X1393742D01*
X1322800Y1199218D02*
X1393723D01*
X1329753Y1237018D02*
X1393689D01*
X1380052Y1203538D02*
X1393647D01*
X1322800Y1130098D02*
X1393638D01*
X1322800Y1199758D02*
X1393633D01*
X1322800Y1118758D02*
X1393610D01*
X1380245Y1202998D02*
X1393576D01*
X1378666Y1200298D02*
X1393566D01*
X1380299Y1202458D02*
X1393528D01*
X1379590Y1200838D02*
X1393522D01*
X1380225Y1201918D02*
X1393503D01*
X1380008Y1201378D02*
X1393501D01*
X1322800Y1129558D02*
X1393385D01*
X1322800Y1119298D02*
X1393360D01*
X1322800Y1129018D02*
X1393162D01*
X1322800Y1119838D02*
X1393140D01*
X1322800Y1246738D02*
X1393126D01*
X1322800Y1266718D02*
X1393086D01*
X1322800Y1128478D02*
X1392967D01*
X1322800Y1120378D02*
X1392948D01*
X1322800Y1127938D02*
X1392798D01*
X1322800Y1120918D02*
X1392782D01*
X1322800Y1127398D02*
X1392656D01*
X1322800Y1121458D02*
X1392642D01*
X1322800Y1257538D02*
X1392638D01*
X1329243Y1237558D02*
X1392607D01*
X1322800Y1126858D02*
X1392538D01*
X1322800Y1121998D02*
X1392527D01*
X1322800Y1126318D02*
X1392444D01*
X1322800Y1122538D02*
X1392436D01*
X1322800Y1125778D02*
X1392374D01*
X1322800Y1123078D02*
X1392368D01*
X1322800Y1125238D02*
X1392327D01*
X1322800Y1123618D02*
X1392323D01*
X1322800Y1124698D02*
X1392303D01*
X1322800Y1124158D02*
X1392302D01*
X1322800Y1246198D02*
X1392265D01*
X1322800Y1266178D02*
X1392239D01*
X1322800Y1258078D02*
X1391934D01*
X1328667Y1238098D02*
X1391912D01*
X1322800Y1245658D02*
X1391665D01*
X1322800Y1265638D02*
X1391646D01*
X1322800Y1258618D02*
X1391418D01*
X1328013Y1238638D02*
X1391402D01*
X1322800Y1245118D02*
X1391214D01*
X1322800Y1265098D02*
X1391200D01*
X1322800Y1259158D02*
X1391025D01*
X1327257Y1239178D02*
X1391013D01*
X1322800Y1244578D02*
X1390869D01*
X1322800Y1264558D02*
X1390858D01*
X1322800Y1259698D02*
X1390725D01*
X1326362Y1239718D02*
X1390716D01*
X1322800Y1244038D02*
X1390607D01*
X1322800Y1264018D02*
X1390599D01*
X1322800Y1260238D02*
X1390501D01*
X1325257Y1240258D02*
X1390494D01*
X1322800Y1243498D02*
X1390416D01*
X1322800Y1263478D02*
X1390410D01*
X1322800Y1260778D02*
X1390342D01*
X1323747Y1240798D02*
X1390337D01*
X1322800Y1242958D02*
X1390287D01*
X1322800Y1262938D02*
X1390283D01*
X1322800Y1261318D02*
X1390243D01*
X1322800Y1241338D02*
X1390241D01*
X1322800Y1242418D02*
X1390216D01*
X1322800Y1262398D02*
X1390214D01*
X1322800Y1261858D02*
X1390201D01*
X1322800Y1241878D02*
X1390201D01*
X1375299Y1217038D02*
X1383798D01*
X1330439Y1220818D02*
X1383591D01*
X1375226Y1217578D02*
X1383191D01*
X1330010Y1220278D02*
X1383088D01*
X1375009Y1218118D02*
X1382875D01*
X1329531Y1219738D02*
X1382821D01*
X1374593Y1218658D02*
X1382725D01*
X1373675Y1219198D02*
X1382708D01*
X1322800Y1210558D02*
X1382266D01*
X1322800Y1214338D02*
X1382118D01*
X1322800Y1211098D02*
X1381676D01*
X1322800Y1213798D02*
X1381601D01*
X1322800Y1211638D02*
X1381367D01*
X1322800Y1213258D02*
X1381328D01*
X1322800Y1212178D02*
X1381222D01*
X1322800Y1212718D02*
X1381210D01*
X1322800Y1200298D02*
X1377333D01*
X1322800Y1204618D02*
X1377104D01*
X1322800Y1200838D02*
X1376409D01*
X1322800Y1204078D02*
X1376327D01*
X1322800Y1201378D02*
X1375991D01*
X1322800Y1203538D02*
X1375947D01*
X1322800Y1201918D02*
X1375774D01*
X1322800Y1202998D02*
X1375754D01*
X1322800Y1202458D02*
X1375700D01*
X1328993Y1219198D02*
X1372324D01*
X1322800Y1214878D02*
X1372111D01*
X1328384Y1218658D02*
X1371406D01*
X1322800Y1215418D02*
X1371329D01*
X1327687Y1218118D02*
X1370990D01*
X1322800Y1215958D02*
X1370949D01*
X1326875Y1217578D02*
X1370773D01*
X1324650Y1216498D02*
X1370755D01*
X1325899Y1217038D02*
X1370700D01*
X1332836Y1230538D02*
X1346298D01*
X1331601Y1234318D02*
X1346091D01*
X1332737Y1231078D02*
X1345691D01*
X1331860Y1233778D02*
X1345588D01*
X1332614Y1231618D02*
X1345375D01*
X1332090Y1233238D02*
X1345321D01*
X1332465Y1232158D02*
X1345225D01*
X1332291Y1232698D02*
X1345208D01*
X1212800Y1077718D02*
X1228707D01*
X1212800Y1082038D02*
X1227935D01*
X1212800Y1078258D02*
X1227497D01*
X1212800Y1081498D02*
X1227255D01*
X1212800Y1078798D02*
X1227038D01*
X1212800Y1080958D02*
X1226909D01*
X1212800Y1079338D02*
X1226797D01*
X1212800Y1080418D02*
X1226738D01*
X1212800Y1079878D02*
X1226703D01*
X1212800Y1066918D02*
X1218731D01*
X1212800Y1066378D02*
X1218158D01*
X1212800Y1065838D02*
X1217858D01*
X1068872Y1166758D02*
X1157200D01*
X1068706Y1166218D02*
X1157200D01*
X1068504Y1165678D02*
X1157200D01*
X1068261Y1165138D02*
X1157200D01*
X1067976Y1164598D02*
X1157200D01*
X1067642Y1164058D02*
X1157200D01*
X1067254Y1163518D02*
X1157200D01*
X1066802Y1162978D02*
X1157200D01*
X1066273Y1162438D02*
X1157200D01*
X1065645Y1161898D02*
X1157200D01*
X1064882Y1161358D02*
X1157200D01*
X1063905Y1160818D02*
X1157200D01*
X1062485Y1160278D02*
X1157200D01*
X802800Y1159738D02*
X1157200D01*
X802800Y1159198D02*
X1157200D01*
X802800Y1158658D02*
X1157200D01*
X802800Y1158118D02*
X1157200D01*
X802800Y1157578D02*
X1157200D01*
X802800Y1157038D02*
X1157200D01*
X802800Y1156498D02*
X1157200D01*
X802800Y1155958D02*
X1157200D01*
X802800Y1155418D02*
X1157200D01*
X802800Y1154878D02*
X1157200D01*
X802800Y1154338D02*
X1157200D01*
X802800Y1153798D02*
X1157200D01*
X802800Y1153258D02*
X1157200D01*
X802800Y1152718D02*
X1157200D01*
X802800Y1152178D02*
X1157200D01*
X802800Y1151638D02*
X1157200D01*
X802800Y1151098D02*
X1157200D01*
X802800Y1150558D02*
X1157200D01*
X802800Y1150018D02*
X1157200D01*
X802800Y1149478D02*
X1157200D01*
X802800Y1148938D02*
X1157200D01*
X802800Y1148398D02*
X1157200D01*
X802800Y1147858D02*
X1157200D01*
X802800Y1147318D02*
X1157200D01*
X802800Y1146778D02*
X1157200D01*
X802800Y1146238D02*
X1157200D01*
X802800Y1145698D02*
X1157200D01*
X802800Y1145158D02*
X1157200D01*
X802800Y1144618D02*
X1157200D01*
X802800Y1144078D02*
X1157200D01*
X802800Y1143538D02*
X1157200D01*
X802800Y1142998D02*
X1157200D01*
X802800Y1142458D02*
X1157200D01*
X802800Y1141918D02*
X1157200D01*
X802800Y1141378D02*
X1157200D01*
X802800Y1140838D02*
X1157200D01*
X802800Y1269358D02*
X1094700D01*
X802800Y1268818D02*
X1094700D01*
X802800Y1268278D02*
X1094700D01*
X802800Y1267738D02*
X1094700D01*
X802800Y1267198D02*
X1094700D01*
X802800Y1266658D02*
X1094700D01*
X802800Y1266118D02*
X1094700D01*
X802800Y1265578D02*
X1094700D01*
X802800Y1265038D02*
X1094700D01*
X802800Y1264498D02*
X1094700D01*
X802800Y1263958D02*
X1094700D01*
X802800Y1263418D02*
X1094700D01*
X802800Y1262878D02*
X1094700D01*
X802800Y1262338D02*
X1094700D01*
X802800Y1261798D02*
X1094700D01*
X802800Y1261258D02*
X1094700D01*
X802800Y1260718D02*
X1094700D01*
X802800Y1260178D02*
X1094700D01*
X802800Y1259638D02*
X1094700D01*
X802800Y1259098D02*
X1094700D01*
X802800Y1258558D02*
X1094700D01*
X802800Y1258018D02*
X1094700D01*
X802800Y1257478D02*
X1094700D01*
X802800Y1256938D02*
X1094700D01*
X802800Y1256398D02*
X1094700D01*
X802800Y1255858D02*
X1094700D01*
X802800Y1255318D02*
X1094700D01*
X802800Y1254778D02*
X1094700D01*
X802800Y1254238D02*
X1094700D01*
X802800Y1253698D02*
X1094700D01*
X802800Y1253158D02*
X1094700D01*
X802800Y1252618D02*
X1094700D01*
X802800Y1252078D02*
X1094700D01*
X802800Y1251538D02*
X1094700D01*
X802800Y1250998D02*
X1094700D01*
X802800Y1250458D02*
X1094700D01*
X802800Y1249918D02*
X1094700D01*
X802800Y1249378D02*
X1094700D01*
X802800Y1248838D02*
X1094700D01*
X802800Y1248298D02*
X1094700D01*
X1062596Y1247758D02*
X1094700D01*
X1064820Y1247218D02*
X1094700D01*
X1066156Y1246678D02*
X1094700D01*
X1067179Y1246138D02*
X1094700D01*
X1068022Y1245598D02*
X1094700D01*
X1068741Y1245058D02*
X1094700D01*
X1069367Y1244518D02*
X1094700D01*
X1069920Y1243978D02*
X1094700D01*
X1070411Y1243438D02*
X1094700D01*
X1070849Y1242898D02*
X1094700D01*
X1071242Y1242358D02*
X1094700D01*
X1071594Y1241818D02*
X1094700D01*
X1071910Y1241278D02*
X1094700D01*
X1072191Y1240738D02*
X1094700D01*
X1072440Y1240198D02*
X1094700D01*
X1072660Y1239658D02*
X1094700D01*
X1072852Y1239118D02*
X1094700D01*
X1073018Y1238578D02*
X1094700D01*
X1073158Y1238038D02*
X1094700D01*
X1073273Y1237498D02*
X1094700D01*
X1073364Y1236958D02*
X1094700D01*
X1073431Y1236418D02*
X1094700D01*
X1073476Y1235878D02*
X1094700D01*
X1073497Y1235338D02*
X1094700D01*
X1073496Y1234798D02*
X1094700D01*
X1073472Y1234258D02*
X1094700D01*
X1073425Y1233718D02*
X1094700D01*
X1073355Y1233178D02*
X1094700D01*
X1073261Y1232638D02*
X1094700D01*
X1073143Y1232098D02*
X1094700D01*
X1073000Y1231558D02*
X1094700D01*
X1072831Y1231018D02*
X1094700D01*
X1072636Y1230478D02*
X1094700D01*
X1072413Y1229938D02*
X1094700D01*
X1072160Y1229398D02*
X1094700D01*
X1071875Y1228858D02*
X1094700D01*
X1071556Y1228318D02*
X1094700D01*
X1071199Y1227778D02*
X1094700D01*
X1070801Y1227238D02*
X1094700D01*
X1070357Y1226698D02*
X1094700D01*
X1069859Y1226158D02*
X1094700D01*
X1069299Y1225618D02*
X1094700D01*
X1068663Y1225078D02*
X1094700D01*
X1067931Y1224538D02*
X1094700D01*
X1067071Y1223998D02*
X1094700D01*
X1066021Y1223458D02*
X1094700D01*
X1064631Y1222918D02*
X1094700D01*
X1062117Y1222378D02*
X1094700D01*
X802800Y1221838D02*
X1094700D01*
X802800Y1221298D02*
X1094700D01*
X802800Y1220758D02*
X1094700D01*
X802800Y1220218D02*
X1094700D01*
X802800Y1219678D02*
X1094700D01*
X802800Y1219138D02*
X1094700D01*
X802800Y1218598D02*
X1094700D01*
X802800Y1218058D02*
X1094700D01*
X802800Y1217518D02*
X1094700D01*
X802800Y1216978D02*
X1094700D01*
X802800Y1216438D02*
X1094700D01*
X802800Y1215898D02*
X1094700D01*
X802800Y1215358D02*
X1094700D01*
X802800Y1214818D02*
X1094700D01*
X1012458Y1214278D02*
X1094700D01*
X1012937Y1213738D02*
X1094700D01*
X1013191Y1213198D02*
X1094700D01*
X1013294Y1212658D02*
X1094700D01*
X1013268Y1212118D02*
X1094700D01*
X1013107Y1211578D02*
X1094700D01*
X1012776Y1211038D02*
X1094700D01*
X1012133Y1210498D02*
X1094700D01*
X833293Y1209958D02*
X1094700D01*
X1012268Y1209418D02*
X1094700D01*
X1012841Y1208878D02*
X1094700D01*
X1013141Y1208338D02*
X1094700D01*
X1013280Y1207798D02*
X1094700D01*
X1013287Y1207258D02*
X1094700D01*
X1013163Y1206718D02*
X1094700D01*
X1012882Y1206178D02*
X1094700D01*
X1012351Y1205638D02*
X1094700D01*
X835912Y1205098D02*
X1094700D01*
X1012025Y1204558D02*
X1094700D01*
X1012727Y1204018D02*
X1094700D01*
X1013081Y1203478D02*
X1094700D01*
X1013257Y1202938D02*
X1094700D01*
X1013297Y1202398D02*
X1094700D01*
X1013208Y1201858D02*
X1094700D01*
X1012973Y1201318D02*
X1094700D01*
X1012525Y1200778D02*
X1094700D01*
X1011420Y1200238D02*
X1094700D01*
X836258Y1199698D02*
X1094700D01*
X836165Y1199158D02*
X1094700D01*
X836047Y1198618D02*
X1094700D01*
X1093484Y1198078D02*
X1094700D01*
X1094209Y1197538D02*
X1094700D01*
X1094571Y1196998D02*
X1094700D01*
X1094485Y1194838D02*
X1094700D01*
X1094047Y1194298D02*
X1094700D01*
X1093016Y1193758D02*
X1094700D01*
X833274Y1193218D02*
X1094700D01*
X832778Y1192678D02*
X1094700D01*
X832221Y1192138D02*
X1094700D01*
X831588Y1191598D02*
X1094700D01*
X830860Y1191058D02*
X1094700D01*
X830006Y1190518D02*
X1094700D01*
X828965Y1189978D02*
X1094700D01*
X827592Y1189438D02*
X1094700D01*
X825186Y1188898D02*
X1094700D01*
X802800Y1188358D02*
X1094700D01*
X802800Y1187818D02*
X1094700D01*
X802800Y1187278D02*
X1094700D01*
X802800Y1186738D02*
X1094700D01*
X802800Y1186198D02*
X1094700D01*
X802800Y1185658D02*
X1094700D01*
X802800Y1185118D02*
X1094700D01*
X802800Y1184578D02*
X1094700D01*
X802800Y1184038D02*
X1094700D01*
X802800Y1183498D02*
X1094700D01*
X802800Y1182958D02*
X1094700D01*
X802800Y1182418D02*
X1094700D01*
X802800Y1181878D02*
X1094700D01*
X802800Y1181338D02*
X1094700D01*
X802800Y1180798D02*
X1094700D01*
X802800Y1180258D02*
X1094700D01*
X802800Y1179718D02*
X1094700D01*
X802800Y1179178D02*
X1094700D01*
X802800Y1178638D02*
X1094700D01*
X1062645Y1178098D02*
X1094700D01*
X1064004Y1177558D02*
X1094700D01*
X1064956Y1177018D02*
X1094700D01*
X1065706Y1176478D02*
X1094700D01*
X1066324Y1175938D02*
X1094700D01*
X1066845Y1175398D02*
X1094700D01*
X1067291Y1174858D02*
X1094700D01*
X1067674Y1174318D02*
X1094700D01*
X1068003Y1173778D02*
X1094700D01*
X1068284Y1173238D02*
X1094700D01*
X1068523Y1172698D02*
X1094700D01*
X1068722Y1172158D02*
X1094700D01*
X1068884Y1171618D02*
X1094700D01*
X1069012Y1171078D02*
X1094700D01*
X1069106Y1170538D02*
X1094700D01*
X1069168Y1169998D02*
X1094700D01*
X1069198Y1169458D02*
X1094700D01*
X1069196Y1168918D02*
X1094700D01*
X1069164Y1168378D02*
X1094700D01*
X1069099Y1167838D02*
X1094700D01*
X1069002Y1167298D02*
X1094700D01*
X1088016Y1193758D02*
X1091983D01*
X1088484Y1198078D02*
X1091515D01*
X1089047Y1194298D02*
X1090952D01*
X1089209Y1197538D02*
X1090790D01*
X1089485Y1194838D02*
X1090514D01*
X1089571Y1196998D02*
X1090428D01*
X1089714Y1195378D02*
X1090285D01*
X1089753Y1196458D02*
X1090246D01*
X1089798Y1195918D02*
X1090201D01*
X1083016Y1193758D02*
X1086983D01*
X1083484Y1198078D02*
X1086515D01*
X1084047Y1194298D02*
X1085952D01*
X1084209Y1197538D02*
X1085790D01*
X1084485Y1194838D02*
X1085514D01*
X1084571Y1196998D02*
X1085428D01*
X1084714Y1195378D02*
X1085285D01*
X1084753Y1196458D02*
X1085246D01*
X1084798Y1195918D02*
X1085201D01*
X873016Y1193758D02*
X1081983D01*
X873484Y1198078D02*
X1081515D01*
X874047Y1194298D02*
X1080952D01*
X874209Y1197538D02*
X1080790D01*
X874485Y1194838D02*
X1080514D01*
X874571Y1196998D02*
X1080428D01*
X874714Y1195378D02*
X1080285D01*
X874753Y1196458D02*
X1080246D01*
X874798Y1195918D02*
X1080201D01*
X931017Y1222378D02*
X1059282D01*
X931496Y1247758D02*
X1058803D01*
X802800Y1160278D02*
X1057317D01*
X802800Y1178098D02*
X1057157D01*
X933531Y1222918D02*
X1056768D01*
X933720Y1247218D02*
X1056579D01*
X802800Y1160818D02*
X1055897D01*
X802800Y1177558D02*
X1055798D01*
X934921Y1223458D02*
X1055378D01*
X935056Y1246678D02*
X1055243D01*
X802800Y1161358D02*
X1054920D01*
X802800Y1177018D02*
X1054846D01*
X935971Y1223998D02*
X1054328D01*
X936079Y1246138D02*
X1054220D01*
X802800Y1161898D02*
X1054157D01*
X802800Y1176478D02*
X1054096D01*
X1038843Y1162438D02*
X1053529D01*
X1039248Y1175938D02*
X1053478D01*
X936831Y1224538D02*
X1053468D01*
X936922Y1245598D02*
X1053377D01*
X1040964Y1162978D02*
X1053000D01*
X1041071Y1175398D02*
X1052957D01*
X937563Y1225078D02*
X1052736D01*
X937641Y1245058D02*
X1052658D01*
X1041965Y1163518D02*
X1052548D01*
X1042037Y1174858D02*
X1052511D01*
X1042683Y1164058D02*
X1052160D01*
X1042738Y1174318D02*
X1052128D01*
X1034456Y1225618D02*
X1052100D01*
X1029149Y1244518D02*
X1052032D01*
X1043243Y1164598D02*
X1051826D01*
X1043286Y1173778D02*
X1051799D01*
X1043692Y1165138D02*
X1051541D01*
X1035588Y1226158D02*
X1051540D01*
X1043728Y1173238D02*
X1051518D01*
X1030177Y1243978D02*
X1051479D01*
X1044057Y1165678D02*
X1051299D01*
X1044086Y1172698D02*
X1051279D01*
X1044353Y1166218D02*
X1051096D01*
X1044376Y1172158D02*
X1051080D01*
X1036224Y1226698D02*
X1051042D01*
X1030783Y1243438D02*
X1050988D01*
X1044589Y1166758D02*
X1050931D01*
X1044608Y1171618D02*
X1050918D01*
X1044773Y1167298D02*
X1050800D01*
X1044786Y1171078D02*
X1050790D01*
X1044907Y1167838D02*
X1050703D01*
X1044917Y1170538D02*
X1050696D01*
X1044996Y1168378D02*
X1050639D01*
X1045002Y1169998D02*
X1050634D01*
X1045041Y1168918D02*
X1050606D01*
X1045043Y1169458D02*
X1050604D01*
X1036659Y1227238D02*
X1050598D01*
X1031201Y1242898D02*
X1050550D01*
X1036966Y1227778D02*
X1050200D01*
X1031494Y1242358D02*
X1050157D01*
X1037173Y1228318D02*
X1049843D01*
X1031692Y1241818D02*
X1049805D01*
X1037298Y1228858D02*
X1049524D01*
X1031808Y1241278D02*
X1049489D01*
X1037348Y1229398D02*
X1049239D01*
X1031849Y1240738D02*
X1049208D01*
X1037326Y1229938D02*
X1048986D01*
X1031818Y1240198D02*
X1048959D01*
X1037229Y1230478D02*
X1048763D01*
X1031713Y1239658D02*
X1048739D01*
X1037054Y1231018D02*
X1048568D01*
X1031528Y1239118D02*
X1048547D01*
X1036787Y1231558D02*
X1048399D01*
X1031250Y1238578D02*
X1048381D01*
X1036406Y1232098D02*
X1048256D01*
X1030852Y1238038D02*
X1048241D01*
X1035859Y1232638D02*
X1048138D01*
X1030280Y1237498D02*
X1048126D01*
X1034994Y1233178D02*
X1048044D01*
X1029350Y1236958D02*
X1048035D01*
X957832Y1233718D02*
X1047974D01*
X962800Y1236418D02*
X1047968D01*
X942372Y1234258D02*
X1047927D01*
X942376Y1235878D02*
X1047923D01*
X942396Y1234798D02*
X1047903D01*
X942397Y1235338D02*
X1047902D01*
X802800Y1162438D02*
X1037652D01*
X802800Y1175938D02*
X1037248D01*
X802800Y1162978D02*
X1035531D01*
X802800Y1175398D02*
X1035424D01*
X802800Y1163518D02*
X1034530D01*
X802800Y1174858D02*
X1034458D01*
X802800Y1164058D02*
X1033812D01*
X802800Y1174318D02*
X1033757D01*
X802800Y1164598D02*
X1033252D01*
X802800Y1173778D02*
X1033209D01*
X802800Y1165138D02*
X1032803D01*
X802800Y1173238D02*
X1032767D01*
X802800Y1165678D02*
X1032438D01*
X802800Y1172698D02*
X1032409D01*
X1023556Y1225618D02*
X1032143D01*
X802800Y1166218D02*
X1032142D01*
X802800Y1172158D02*
X1032119D01*
X802800Y1166758D02*
X1031906D01*
X802800Y1171618D02*
X1031887D01*
X802800Y1167298D02*
X1031722D01*
X802800Y1171078D02*
X1031709D01*
X1024094Y1233178D02*
X1031605D01*
X802800Y1167838D02*
X1031588D01*
X802800Y1170538D02*
X1031578D01*
X802800Y1168378D02*
X1031499D01*
X802800Y1169998D02*
X1031493D01*
X802800Y1168918D02*
X1031454D01*
X802800Y1169458D02*
X1031452D01*
X1024688Y1226158D02*
X1031011D01*
X1024959Y1232638D02*
X1030740D01*
X1025324Y1226698D02*
X1030375D01*
X1025506Y1232098D02*
X1030193D01*
X1025759Y1227238D02*
X1029940D01*
X1025887Y1231558D02*
X1029812D01*
X1026066Y1227778D02*
X1029633D01*
X1026154Y1231018D02*
X1029545D01*
X1026273Y1228318D02*
X1029426D01*
X1026329Y1230478D02*
X1029370D01*
X1026398Y1228858D02*
X1029301D01*
X1026426Y1229938D02*
X1029273D01*
X1026448Y1229398D02*
X1029251D01*
X1018249Y1244518D02*
X1026450D01*
X1018450Y1236958D02*
X1026249D01*
X1019277Y1243978D02*
X1025422D01*
X1019380Y1237498D02*
X1025319D01*
X1019883Y1243438D02*
X1024816D01*
X1019952Y1238038D02*
X1024747D01*
X1020301Y1242898D02*
X1024398D01*
X1020350Y1238578D02*
X1024349D01*
X1020594Y1242358D02*
X1024105D01*
X1020628Y1239118D02*
X1024071D01*
X1020792Y1241818D02*
X1023907D01*
X1020813Y1239658D02*
X1023886D01*
X1020908Y1241278D02*
X1023791D01*
X1020918Y1240198D02*
X1023781D01*
X1020949Y1240738D02*
X1023750D01*
X1012656Y1225618D02*
X1021243D01*
X1013194Y1233178D02*
X1020705D01*
X1013788Y1226158D02*
X1020111D01*
X1014059Y1232638D02*
X1019840D01*
X1014424Y1226698D02*
X1019475D01*
X1014606Y1232098D02*
X1019293D01*
X1014859Y1227238D02*
X1019040D01*
X1014987Y1231558D02*
X1018912D01*
X1015166Y1227778D02*
X1018733D01*
X1015254Y1231018D02*
X1018645D01*
X1015373Y1228318D02*
X1018526D01*
X1015429Y1230478D02*
X1018470D01*
X1015498Y1228858D02*
X1018401D01*
X1015526Y1229938D02*
X1018373D01*
X1015548Y1229398D02*
X1018351D01*
X1007349Y1244518D02*
X1015550D01*
X1007550Y1236958D02*
X1015349D01*
X1008377Y1243978D02*
X1014522D01*
X1008480Y1237498D02*
X1014419D01*
X1008983Y1243438D02*
X1013916D01*
X1009052Y1238038D02*
X1013847D01*
X1009401Y1242898D02*
X1013498D01*
X1009450Y1238578D02*
X1013449D01*
X1009694Y1242358D02*
X1013205D01*
X1009728Y1239118D02*
X1013171D01*
X1009892Y1241818D02*
X1013007D01*
X1009913Y1239658D02*
X1012986D01*
X1010008Y1241278D02*
X1012891D01*
X1010018Y1240198D02*
X1012881D01*
X1010049Y1240738D02*
X1012850D01*
X913920Y1200238D02*
X1010579D01*
X1001756Y1225618D02*
X1010343D01*
X914525Y1204558D02*
X1009974D01*
X914633Y1210498D02*
X1009866D01*
X1002294Y1233178D02*
X1009805D01*
X914768Y1209418D02*
X1009731D01*
X914851Y1205638D02*
X1009648D01*
X914958Y1214278D02*
X1009541D01*
X915025Y1200778D02*
X1009474D01*
X915227Y1204018D02*
X1009272D01*
X915276Y1211038D02*
X1009223D01*
X1002888Y1226158D02*
X1009211D01*
X915341Y1208878D02*
X1009158D01*
X915382Y1206178D02*
X1009117D01*
X915437Y1213738D02*
X1009062D01*
X915473Y1201318D02*
X1009026D01*
X1003159Y1232638D02*
X1008940D01*
X915581Y1203478D02*
X1008918D01*
X915607Y1211578D02*
X1008892D01*
X915641Y1208338D02*
X1008858D01*
X915663Y1206718D02*
X1008836D01*
X915691Y1213198D02*
X1008808D01*
X915708Y1201858D02*
X1008791D01*
X915757Y1202938D02*
X1008742D01*
X915768Y1212118D02*
X1008731D01*
X915780Y1207798D02*
X1008719D01*
X915787Y1207258D02*
X1008712D01*
X915794Y1212658D02*
X1008705D01*
X915797Y1202398D02*
X1008702D01*
X1003524Y1226698D02*
X1008575D01*
X1003706Y1232098D02*
X1008393D01*
X1003959Y1227238D02*
X1008140D01*
X1004087Y1231558D02*
X1008012D01*
X1004266Y1227778D02*
X1007833D01*
X1004354Y1231018D02*
X1007745D01*
X1004473Y1228318D02*
X1007626D01*
X1004529Y1230478D02*
X1007570D01*
X1004598Y1228858D02*
X1007501D01*
X1004626Y1229938D02*
X1007473D01*
X1004648Y1229398D02*
X1007451D01*
X996449Y1244518D02*
X1004650D01*
X996650Y1236958D02*
X1004449D01*
X997477Y1243978D02*
X1003622D01*
X997580Y1237498D02*
X1003519D01*
X998083Y1243438D02*
X1003016D01*
X998152Y1238038D02*
X1002947D01*
X998501Y1242898D02*
X1002598D01*
X998550Y1238578D02*
X1002549D01*
X998794Y1242358D02*
X1002305D01*
X998828Y1239118D02*
X1002271D01*
X998992Y1241818D02*
X1002107D01*
X999013Y1239658D02*
X1002086D01*
X999108Y1241278D02*
X1001991D01*
X999118Y1240198D02*
X1001981D01*
X999149Y1240738D02*
X1001950D01*
X990856Y1225618D02*
X999443D01*
X991394Y1233178D02*
X998905D01*
X991988Y1226158D02*
X998311D01*
X992259Y1232638D02*
X998040D01*
X992624Y1226698D02*
X997675D01*
X992806Y1232098D02*
X997493D01*
X993059Y1227238D02*
X997240D01*
X993187Y1231558D02*
X997112D01*
X993366Y1227778D02*
X996933D01*
X993454Y1231018D02*
X996845D01*
X993573Y1228318D02*
X996726D01*
X993629Y1230478D02*
X996670D01*
X993698Y1228858D02*
X996601D01*
X993726Y1229938D02*
X996573D01*
X993748Y1229398D02*
X996551D01*
X985549Y1244518D02*
X993750D01*
X985750Y1236958D02*
X993549D01*
X986577Y1243978D02*
X992722D01*
X986680Y1237498D02*
X992619D01*
X987183Y1243438D02*
X992116D01*
X987252Y1238038D02*
X992047D01*
X987601Y1242898D02*
X991698D01*
X987650Y1238578D02*
X991649D01*
X987894Y1242358D02*
X991405D01*
X987928Y1239118D02*
X991371D01*
X988092Y1241818D02*
X991207D01*
X988113Y1239658D02*
X991186D01*
X988208Y1241278D02*
X991091D01*
X988218Y1240198D02*
X991081D01*
X988249Y1240738D02*
X991050D01*
X979956Y1225618D02*
X988543D01*
X980494Y1233178D02*
X988005D01*
X981088Y1226158D02*
X987411D01*
X981359Y1232638D02*
X987140D01*
X981724Y1226698D02*
X986775D01*
X981906Y1232098D02*
X986593D01*
X982159Y1227238D02*
X986340D01*
X982287Y1231558D02*
X986212D01*
X982466Y1227778D02*
X986033D01*
X982554Y1231018D02*
X985945D01*
X982673Y1228318D02*
X985826D01*
X982729Y1230478D02*
X985770D01*
X982798Y1228858D02*
X985701D01*
X982826Y1229938D02*
X985673D01*
X982848Y1229398D02*
X985651D01*
X974649Y1244518D02*
X982850D01*
X974850Y1236958D02*
X982649D01*
X975677Y1243978D02*
X981822D01*
X975780Y1237498D02*
X981719D01*
X976283Y1243438D02*
X981216D01*
X976352Y1238038D02*
X981147D01*
X976701Y1242898D02*
X980798D01*
X976750Y1238578D02*
X980749D01*
X976994Y1242358D02*
X980505D01*
X977028Y1239118D02*
X980471D01*
X977192Y1241818D02*
X980307D01*
X977213Y1239658D02*
X980286D01*
X977308Y1241278D02*
X980191D01*
X977318Y1240198D02*
X980181D01*
X977349Y1240738D02*
X980150D01*
X969056Y1225618D02*
X977643D01*
X969594Y1233178D02*
X977105D01*
X970188Y1226158D02*
X976511D01*
X970459Y1232638D02*
X976240D01*
X970824Y1226698D02*
X975875D01*
X971006Y1232098D02*
X975693D01*
X971259Y1227238D02*
X975440D01*
X971387Y1231558D02*
X975312D01*
X971566Y1227778D02*
X975133D01*
X971654Y1231018D02*
X975045D01*
X971773Y1228318D02*
X974926D01*
X971829Y1230478D02*
X974870D01*
X971898Y1228858D02*
X974801D01*
X971926Y1229938D02*
X974773D01*
X971948Y1229398D02*
X974751D01*
X964376Y1244518D02*
X971950D01*
X964519Y1236958D02*
X971749D01*
X965182Y1243978D02*
X970922D01*
X965270Y1237498D02*
X970819D01*
X965715Y1243438D02*
X970316D01*
X965777Y1238038D02*
X970247D01*
X966095Y1242898D02*
X969898D01*
X966140Y1238578D02*
X969849D01*
X966367Y1242358D02*
X969605D01*
X966398Y1239118D02*
X969571D01*
X966551Y1241818D02*
X969407D01*
X966572Y1239658D02*
X969386D01*
X966660Y1241278D02*
X969291D01*
X966670Y1240198D02*
X969281D01*
X966699Y1240738D02*
X969250D01*
X958850Y1225618D02*
X966743D01*
X959226Y1233178D02*
X966205D01*
X959706Y1226158D02*
X965611D01*
X959939Y1232638D02*
X965340D01*
X960262Y1226698D02*
X964975D01*
X960425Y1232098D02*
X964793D01*
X960657Y1227238D02*
X964540D01*
X960775Y1231558D02*
X964412D01*
X960940Y1227778D02*
X964233D01*
X961022Y1231018D02*
X964145D01*
X961134Y1228318D02*
X964026D01*
X961187Y1230478D02*
X963970D01*
X961251Y1228858D02*
X963901D01*
X961277Y1229938D02*
X963873D01*
X961298Y1229398D02*
X963851D01*
X942331Y1236418D02*
X961999D01*
X938267Y1244518D02*
X960423D01*
X942264Y1236958D02*
X960280D01*
X938820Y1243978D02*
X959617D01*
X942173Y1237498D02*
X959529D01*
X939311Y1243438D02*
X959084D01*
X942058Y1238038D02*
X959022D01*
X939749Y1242898D02*
X958704D01*
X941918Y1238578D02*
X958659D01*
X940142Y1242358D02*
X958432D01*
X941752Y1239118D02*
X958401D01*
X940494Y1241818D02*
X958248D01*
X941560Y1239658D02*
X958227D01*
X940810Y1241278D02*
X958139D01*
X941340Y1240198D02*
X958129D01*
X941091Y1240738D02*
X958100D01*
X942325Y1233718D02*
X956167D01*
X938199Y1225618D02*
X955149D01*
X942255Y1233178D02*
X954773D01*
X938759Y1226158D02*
X954293D01*
X942161Y1232638D02*
X954060D01*
X939257Y1226698D02*
X953737D01*
X942043Y1232098D02*
X953574D01*
X939701Y1227238D02*
X953342D01*
X941900Y1231558D02*
X953224D01*
X940099Y1227778D02*
X953059D01*
X941731Y1231018D02*
X952977D01*
X940456Y1228318D02*
X952865D01*
X941536Y1230478D02*
X952812D01*
X940775Y1228858D02*
X952748D01*
X941313Y1229938D02*
X952722D01*
X941060Y1229398D02*
X952701D01*
X802800Y1222378D02*
X928182D01*
X851468Y1247758D02*
X927703D01*
X802800Y1222918D02*
X925668D01*
X852257Y1247218D02*
X925479D01*
X802800Y1223458D02*
X924278D01*
X852667Y1246678D02*
X924143D01*
X802800Y1223998D02*
X923228D01*
X852895Y1246138D02*
X923120D01*
X802800Y1224538D02*
X922368D01*
X852992Y1245598D02*
X922277D01*
X802800Y1225078D02*
X921636D01*
X852972Y1245058D02*
X921558D01*
X802800Y1225618D02*
X921000D01*
X852833Y1244518D02*
X920932D01*
X802800Y1226158D02*
X920440D01*
X852551Y1243978D02*
X920379D01*
X802800Y1226698D02*
X919942D01*
X852052Y1243438D02*
X919888D01*
X802800Y1227238D02*
X919498D01*
X851314Y1242898D02*
X919450D01*
X802800Y1227778D02*
X919100D01*
X852194Y1242358D02*
X919057D01*
X802800Y1228318D02*
X918743D01*
X852631Y1241818D02*
X918705D01*
X802800Y1228858D02*
X918424D01*
X852877Y1241278D02*
X918389D01*
X802800Y1229398D02*
X918139D01*
X852987Y1240738D02*
X918108D01*
X802800Y1229938D02*
X917886D01*
X852980Y1240198D02*
X917859D01*
X802800Y1230478D02*
X917663D01*
X852856Y1239658D02*
X917639D01*
X802800Y1231018D02*
X917468D01*
X852592Y1239118D02*
X917447D01*
X802800Y1231558D02*
X917299D01*
X852125Y1238578D02*
X917281D01*
X802800Y1232098D02*
X917156D01*
X851115Y1238038D02*
X917141D01*
X802800Y1232638D02*
X917038D01*
X802800Y1237498D02*
X917026D01*
X802800Y1233178D02*
X916944D01*
X802800Y1236958D02*
X916935D01*
X802800Y1233718D02*
X916874D01*
X802800Y1236418D02*
X916868D01*
X802800Y1234258D02*
X916827D01*
X802800Y1235878D02*
X916823D01*
X802800Y1234798D02*
X916803D01*
X802800Y1235338D02*
X916802D01*
X836327Y1200238D02*
X913079D01*
X836053Y1204558D02*
X912474D01*
X832800Y1210498D02*
X912366D01*
X833734Y1209418D02*
X912231D01*
X835746Y1205638D02*
X912148D01*
X825358Y1214278D02*
X912041D01*
X836373Y1200778D02*
X911974D01*
X836169Y1204018D02*
X911772D01*
X832245Y1211038D02*
X911723D01*
X834129Y1208878D02*
X911658D01*
X835553Y1206178D02*
X911617D01*
X827661Y1213738D02*
X911562D01*
X836396Y1201318D02*
X911526D01*
X836261Y1203478D02*
X911418D01*
X831616Y1211578D02*
X911392D01*
X834482Y1208338D02*
X911358D01*
X835331Y1206718D02*
X911336D01*
X829013Y1213198D02*
X911308D01*
X836397Y1201858D02*
X911291D01*
X836329Y1202938D02*
X911242D01*
X830893Y1212118D02*
X911231D01*
X834798Y1207798D02*
X911219D01*
X835081Y1207258D02*
X911212D01*
X830045Y1212658D02*
X911205D01*
X836375Y1202398D02*
X911202D01*
X868016Y1193758D02*
X871983D01*
X868484Y1198078D02*
X871515D01*
X869047Y1194298D02*
X870952D01*
X869209Y1197538D02*
X870790D01*
X869485Y1194838D02*
X870514D01*
X869571Y1196998D02*
X870428D01*
X869714Y1195378D02*
X870285D01*
X869753Y1196458D02*
X870246D01*
X869798Y1195918D02*
X870201D01*
X863016Y1193758D02*
X866983D01*
X863484Y1198078D02*
X866515D01*
X864047Y1194298D02*
X865952D01*
X864209Y1197538D02*
X865790D01*
X864485Y1194838D02*
X865514D01*
X864571Y1196998D02*
X865428D01*
X864714Y1195378D02*
X865285D01*
X864753Y1196458D02*
X865246D01*
X864798Y1195918D02*
X865201D01*
X833717Y1193758D02*
X861983D01*
X835906Y1198078D02*
X861515D01*
X834113Y1194298D02*
X860952D01*
X835738Y1197538D02*
X860790D01*
X834468Y1194838D02*
X860514D01*
X835544Y1196998D02*
X860428D01*
X834786Y1195378D02*
X860285D01*
X835322Y1196458D02*
X860246D01*
X835070Y1195918D02*
X860201D01*
X846194Y1238038D02*
X849782D01*
X846546Y1247758D02*
X849429D01*
X847204Y1238578D02*
X848772D01*
X847336Y1247218D02*
X848639D01*
X847671Y1239118D02*
X848305D01*
X847746Y1246678D02*
X848230D01*
X847934Y1239658D02*
X848041D01*
X847974Y1246138D02*
X848001D01*
X841273Y1238038D02*
X844860D01*
X841625Y1247758D02*
X844508D01*
X842282Y1238578D02*
X843850D01*
X842415Y1247218D02*
X843718D01*
X842749Y1239118D02*
X843384D01*
X842824Y1246678D02*
X843309D01*
X843013Y1239658D02*
X843120D01*
X843053Y1246138D02*
X843080D01*
X836351Y1238038D02*
X839939D01*
X836704Y1247758D02*
X839586D01*
X837361Y1238578D02*
X838929D01*
X837493Y1247218D02*
X838797D01*
X837828Y1239118D02*
X838462D01*
X837903Y1246678D02*
X838387D01*
X838092Y1239658D02*
X838199D01*
X838132Y1246138D02*
X838159D01*
X831430Y1238038D02*
X835018D01*
X832305Y1247758D02*
X834665D01*
X832440Y1238578D02*
X834008D01*
X832910Y1247218D02*
X833876D01*
X832907Y1239118D02*
X833541D01*
X833265Y1246678D02*
X833466D01*
X833171Y1239658D02*
X833277D01*
X826509Y1238038D02*
X830097D01*
X826861Y1247758D02*
X829222D01*
X827519Y1238578D02*
X829087D01*
X827986Y1239118D02*
X828620D01*
X827651Y1247218D02*
X828616D01*
X828249Y1239658D02*
X828356D01*
X828060Y1246678D02*
X828261D01*
X821588Y1238038D02*
X825175D01*
X821940Y1247758D02*
X824823D01*
X822597Y1238578D02*
X824165D01*
X822730Y1247218D02*
X824033D01*
X823064Y1239118D02*
X823699D01*
X823139Y1246678D02*
X823624D01*
X823328Y1239658D02*
X823435D01*
X823368Y1246138D02*
X823395D01*
X802800Y1188898D02*
X822013D01*
X802800Y1214278D02*
X821841D01*
X816666Y1238038D02*
X820254D01*
X817019Y1247758D02*
X819901D01*
X802800Y1189438D02*
X819607D01*
X802800Y1213738D02*
X819538D01*
X817676Y1238578D02*
X819244D01*
X817808Y1247218D02*
X819112D01*
X818143Y1239118D02*
X818777D01*
X818218Y1246678D02*
X818702D01*
X818407Y1239658D02*
X818514D01*
X818447Y1246138D02*
X818474D01*
X802800Y1189978D02*
X818234D01*
X802800Y1213198D02*
X818186D01*
X802800Y1190518D02*
X817193D01*
X802800Y1212658D02*
X817154D01*
X802800Y1191058D02*
X816339D01*
X802800Y1212118D02*
X816306D01*
X802800Y1191598D02*
X815611D01*
X802800Y1211578D02*
X815583D01*
X802800Y1238038D02*
X815333D01*
X802800Y1242898D02*
X815134D01*
X802800Y1247758D02*
X814980D01*
X802800Y1192138D02*
X814978D01*
X802800Y1211038D02*
X814954D01*
X802800Y1192678D02*
X814421D01*
X802800Y1210498D02*
X814399D01*
X802800Y1243438D02*
X814396D01*
X802800Y1238578D02*
X814323D01*
X802800Y1242358D02*
X814254D01*
X802800Y1247218D02*
X814191D01*
X802800Y1193218D02*
X813925D01*
X802800Y1209958D02*
X813906D01*
X802800Y1243978D02*
X813897D01*
X802800Y1239118D02*
X813856D01*
X802800Y1241818D02*
X813817D01*
X802800Y1246678D02*
X813781D01*
X802800Y1244518D02*
X813615D01*
X802800Y1239658D02*
X813592D01*
X802800Y1241278D02*
X813571D01*
X802800Y1246138D02*
X813552D01*
X802800Y1193758D02*
X813482D01*
X802800Y1245058D02*
X813475D01*
X802800Y1240198D02*
X813467D01*
X802800Y1209418D02*
X813465D01*
X802800Y1240738D02*
X813461D01*
X802800Y1245598D02*
X813456D01*
X802800Y1194298D02*
X813086D01*
X802800Y1208878D02*
X813070D01*
X802800Y1194838D02*
X812731D01*
X802800Y1208338D02*
X812717D01*
X802800Y1195378D02*
X812413D01*
X802800Y1207798D02*
X812401D01*
X802800Y1195918D02*
X812129D01*
X802800Y1207258D02*
X812118D01*
X802800Y1196458D02*
X811877D01*
X802800Y1206718D02*
X811868D01*
X802800Y1196998D02*
X811655D01*
X802800Y1206178D02*
X811646D01*
X802800Y1197538D02*
X811461D01*
X802800Y1205638D02*
X811453D01*
X802800Y1198078D02*
X811293D01*
X802800Y1205098D02*
X811287D01*
X802800Y1198618D02*
X811152D01*
X802800Y1204558D02*
X811146D01*
X802800Y1199158D02*
X811034D01*
X802800Y1204018D02*
X811030D01*
X802800Y1199698D02*
X810941D01*
X802800Y1203478D02*
X810938D01*
X802800Y1200238D02*
X810872D01*
X802800Y1202938D02*
X810870D01*
X802800Y1200778D02*
X810826D01*
X802800Y1202398D02*
X810824D01*
X802800Y1201318D02*
X810803D01*
X802800Y1201858D02*
X810802D01*
X831889Y1242787D02*
X834559D01*
X832623Y1243327D02*
X834228D01*
X832620Y1242247D02*
X833828D01*
X833093Y1243867D02*
X833662D01*
X833009Y1241707D02*
X833439D01*
X826968Y1242787D02*
X829637D01*
X827699Y1242247D02*
X828907D01*
X827298Y1243327D02*
X828904D01*
X828088Y1241707D02*
X828518D01*
X827864Y1243867D02*
X828434D01*
G54D138*
X1198500Y1040000D03*
Y1050000D03*
Y1045000D03*
X1216000Y1086000D03*
Y1091000D03*
X1152500Y1146000D03*
X1183500Y1136000D03*
Y1151000D03*
Y1166000D03*
X1226000Y1172500D03*
X1103500Y1193500D03*
X1107500Y1191000D03*
X1111500Y1193500D03*
X1183500Y1181000D03*
X1226000Y1182500D03*
Y1177500D03*
X1236000Y1193500D03*
X883500Y1213500D03*
X887500Y1211000D03*
X891500Y1213500D03*
X956500Y1212500D03*
Y1202500D03*
Y1207500D03*
X1157000Y1203500D03*
X1148000D03*
X1233500Y1197500D03*
X1236000Y1201500D03*
X1378000Y1195000D03*
X1385000Y1236000D03*
G74*
X0Y0D02*
M02*
