*
*
G04 PADS Layout (Build Number 2005.103.1) generated Gerber (RS-274-X) file*
G04 PC Version=2.1*
*
%IN "7757.pcb"*%
*
%MOIN*%
*
%FSLAX35Y35*%
*
*
*
*
G04 PC Standard Apertures*
*
*
G04 Thermal Relief Aperture macro.*
%AMTER*
1,1,$1,0,0*
1,0,$1-$2,0,0*
21,0,$3,$4,0,0,45*
21,0,$3,$4,0,0,135*
%
*
*
G04 Annular Aperture macro.*
%AMANN*
1,1,$1,0,0*
1,0,$2,0,0*
%
*
*
G04 Odd Aperture macro.*
%AMODD*
1,1,$1,0,0*
1,0,$1-0.005,0,0*
%
*
*
G04 PC Custom Aperture Macros*
*
*
*
*
*
*
G04 PC Aperture Table*
*
%ADD014C,0.065*%
%ADD018R,0.065X0.065*%
%ADD039C,0.105*%
%ADD041C,0.07*%
%ADD042R,0.07X0.07*%
%ADD043C,0.155*%
%ADD047C,0.205*%
%ADD052C,0.01*%
%ADD053C,0.02*%
%ADD205C,0.255*%
%ADD207C,0.019*%
%ADD214C,0.043*%
*
*
*
*
G04 PC Custom Flashes*
G04 Layer Name 7757.pcb - flashes*
%LPD*%
*
*
G04 PC Circuitry*
G04 Layer Name 7757.pcb - circuitry*
%LPD*%
*
G54D14*
G01X1131500Y1223000D03*
X1141500D03*
X1151500D03*
X1161500D03*
G54D18*
X1121500D03*
G54D39*
X1415500Y1242000D03*
X1395500D03*
Y1262000D03*
X1415500D03*
X1405500Y1252000D03*
X882315Y813000D03*
X902000D03*
X921685D03*
X1235000Y1015000D03*
X1203503D03*
X1192677Y863425D03*
X1235000D03*
X897500Y870000D03*
X924074D03*
G54D41*
X1254000Y1218500D03*
X1263000D03*
X1272000D03*
X1281000D03*
X1290000D03*
X1249500Y1228500D03*
X1258500D03*
X1267500D03*
X1276500D03*
X1285500D03*
X1254000Y1238500D03*
X1263000D03*
X1272000D03*
X1281000D03*
X1290000D03*
X846000Y912400D03*
Y923300D03*
Y934200D03*
Y945100D03*
X834800Y906900D03*
Y917800D03*
Y928700D03*
Y939600D03*
X967900Y1229500D03*
X978800D03*
X989700D03*
X1000600D03*
X1011500D03*
X1022400D03*
X1033300D03*
X962400Y1240700D03*
X973300D03*
X984200D03*
X995100D03*
X1006000D03*
X1016900D03*
X1027800D03*
X1399500Y1086600D03*
Y1075700D03*
Y1064800D03*
Y1053900D03*
Y1043000D03*
Y1032100D03*
Y1021200D03*
Y1010300D03*
Y999400D03*
Y988500D03*
Y977600D03*
Y966700D03*
Y955800D03*
Y944900D03*
Y934000D03*
Y923100D03*
Y912200D03*
Y901300D03*
X1410700Y1092000D03*
Y1081150D03*
Y1070250D03*
Y1059350D03*
Y1048450D03*
Y1037550D03*
Y1026650D03*
Y1015750D03*
Y1004850D03*
Y993950D03*
Y983050D03*
Y972150D03*
Y961250D03*
Y950350D03*
Y939450D03*
Y928550D03*
Y917650D03*
Y906750D03*
G54D42*
X846000Y901500D03*
X957000Y1229500D03*
X1399500Y1097500D03*
G54D43*
X1038248Y1169212D03*
X1059901D03*
G54D47*
X1320200Y1228500D03*
X1221800D03*
X840400Y874100D03*
Y972500D03*
X929600Y1235100D03*
X1060700D03*
X1405100Y1124400D03*
Y874400D03*
G54D52*
X800000Y800000D02*
X1429900D01*
Y1272400*
X800000*
Y800000*
G54D53*
X1036909Y767812D02*
X1041909D01*
X1041909D02*
X1039181Y763312D01*
X1039181D02*
X1040545D01*
X1040545D02*
X1041454Y762750D01*
X1041454D02*
X1041909Y762187D01*
X1041909D02*
X1042363Y760500D01*
X1042363D02*
Y759375D01*
X1042363D02*
X1041909Y757687D01*
X1041909D02*
X1041000Y756562D01*
X1041000D02*
X1039636Y756000D01*
X1038272*
X1038272D02*
X1036909Y756562D01*
X1036909D02*
X1036454Y757125D01*
X1036454D02*
X1036000Y758250D01*
X1046454Y765562D02*
X1047363Y766125D01*
X1047363D02*
X1048727Y767812D01*
X1048727D02*
Y756000D01*
X1052818Y761062D02*
X1061000D01*
X1067818Y767812D02*
X1066454Y767250D01*
X1066454D02*
X1065545Y765562D01*
X1065545D02*
X1065090Y762750D01*
X1065090D02*
Y761062D01*
X1065090D02*
X1065545Y758250D01*
X1066454Y756562*
X1066454D02*
X1067818Y756000D01*
X1068727*
X1070090Y756562*
X1070090D02*
X1071000Y758250D01*
X1071454Y761062*
X1071454D02*
Y762750D01*
X1071454D02*
X1071000Y765562D01*
X1071000D02*
X1070090Y767250D01*
X1070090D02*
X1068727Y767812D01*
X1068727D02*
X1067818D01*
X1078272D02*
X1076909Y767250D01*
X1076000Y765562*
X1076000D02*
X1075545Y762750D01*
Y761062*
X1075545D02*
X1076000Y758250D01*
X1076909Y756562*
X1076909D02*
X1078272Y756000D01*
X1078272D02*
X1079181D01*
X1079181D02*
X1080545Y756562D01*
X1080545D02*
X1081454Y758250D01*
X1081454D02*
X1081909Y761062D01*
X1081909D02*
Y762750D01*
X1081454Y765562*
X1081454D02*
X1080545Y767250D01*
X1079181Y767812*
X1079181D02*
X1078272D01*
X1088727D02*
X1087363Y767250D01*
X1087363D02*
X1086454Y765562D01*
X1086454D02*
X1086000Y762750D01*
Y761062*
X1086000D02*
X1086454Y758250D01*
X1086454D02*
X1087363Y756562D01*
X1087363D02*
X1088727Y756000D01*
X1089636*
X1091000Y756562*
X1091000D02*
X1091909Y758250D01*
X1092363Y761062*
X1092363D02*
Y762750D01*
X1092363D02*
X1091909Y765562D01*
X1091909D02*
X1091000Y767250D01*
X1089636Y767812*
X1089636D02*
X1088727D01*
X1101909Y766125D02*
X1101454Y767250D01*
X1101454D02*
X1100090Y767812D01*
X1100090D02*
X1099181D01*
X1099181D02*
X1097818Y767250D01*
X1096909Y765562*
X1096909D02*
X1096454Y762750D01*
X1096454D02*
Y759937D01*
X1096454D02*
X1096909Y757687D01*
X1096909D02*
X1097818Y756562D01*
X1097818D02*
X1099181Y756000D01*
X1099181D02*
X1099636D01*
X1101000Y756562*
X1101000D02*
X1101909Y757687D01*
X1101909D02*
X1102363Y759375D01*
X1102363D02*
Y759937D01*
X1102363D02*
X1101909Y761625D01*
X1101000Y762750*
X1099636Y763312*
X1099636D02*
X1099181D01*
X1099181D02*
X1097818Y762750D01*
X1096909Y761625*
X1096454Y759937*
X1116909Y767812D02*
Y756000D01*
Y767812D02*
X1121000D01*
X1121000D02*
X1122363Y767250D01*
X1122363D02*
X1122818Y766687D01*
X1122818D02*
X1123272Y765562D01*
X1123272D02*
Y764437D01*
X1123272D02*
X1122818Y763312D01*
X1122818D02*
X1122363Y762750D01*
X1122363D02*
X1121000Y762187D01*
X1121000D02*
X1116909D01*
X1120090D02*
X1123272Y756000D01*
X1127363Y767812D02*
Y756000D01*
Y767812D02*
X1133272D01*
X1127363Y762187D02*
X1131000D01*
X1127363Y756000D02*
X1133272D01*
X1137363Y767812D02*
X1141000Y756000D01*
X1144636Y767812D02*
X1141000Y756000D01*
X1159181Y765562D02*
X1160090Y766125D01*
X1160090D02*
X1161454Y767812D01*
X1161454D02*
Y756000D01*
X1207636Y791125D02*
X1208545Y792250D01*
X1209909Y792812*
X1209909D02*
X1211727D01*
X1211727D02*
X1213090Y792250D01*
X1213090D02*
X1214000Y791125D01*
Y790000*
X1213545Y788875*
X1213090Y788312*
X1213090D02*
X1212181Y787750D01*
X1212181D02*
X1209454Y786625D01*
X1209454D02*
X1208545Y786062D01*
X1208545D02*
X1208090Y785500D01*
X1208090D02*
X1207636Y784375D01*
Y782687*
X1207636D02*
X1208545Y781562D01*
X1208545D02*
X1209909Y781000D01*
X1211727*
X1213090Y781562*
X1213090D02*
X1214000Y782687D01*
X1200818Y792812D02*
X1201727Y792250D01*
X1202636Y791125*
X1203090Y790000*
X1203090D02*
X1203545Y788312D01*
X1203545D02*
Y785500D01*
X1203090Y783812*
X1203090D02*
X1202636Y782687D01*
X1202636D02*
X1201727Y781562D01*
X1201727D02*
X1200818Y781000D01*
X1199000*
X1198090Y781562*
X1198090D02*
X1197181Y782687D01*
X1197181D02*
X1196727Y783812D01*
X1196727D02*
X1196272Y785500D01*
X1196272D02*
Y788312D01*
X1196272D02*
X1196727Y790000D01*
X1197181Y791125*
X1197181D02*
X1198090Y792250D01*
X1198090D02*
X1199000Y792812D01*
X1199000D02*
X1200818D01*
X1192181D02*
Y781000D01*
X1192181D02*
X1186727D01*
X1182636Y792812D02*
Y781000D01*
Y792812D02*
X1179454D01*
X1179454D02*
X1178090Y792250D01*
X1178090D02*
X1177181Y791125D01*
X1177181D02*
X1176727Y790000D01*
X1176272Y788312*
X1176272D02*
Y785500D01*
X1176272D02*
X1176727Y783812D01*
X1176727D02*
X1177181Y782687D01*
X1177181D02*
X1178090Y781562D01*
X1178090D02*
X1179454Y781000D01*
X1179454D02*
X1182636D01*
X1172181Y792812D02*
Y781000D01*
Y792812D02*
X1166272D01*
X1172181Y787187D02*
X1168545D01*
X1172181Y781000D02*
X1166272D01*
X1162181Y792812D02*
Y781000D01*
Y792812D02*
X1158090D01*
X1158090D02*
X1156727Y792250D01*
X1156272Y791687*
X1156272D02*
X1155818Y790562D01*
X1155818D02*
Y789437D01*
X1155818D02*
X1156272Y788312D01*
X1156272D02*
X1156727Y787750D01*
X1158090Y787187*
X1158090D02*
X1162181D01*
X1159000D02*
X1155818Y781000D01*
X1151727Y792812D02*
Y781000D01*
Y792812D02*
X1148090Y781000D01*
X1144454Y792812D02*
X1148090Y781000D01*
X1144454Y792812D02*
Y781000D01*
X1136727Y792812D02*
X1140363Y781000D01*
X1136727Y792812D02*
X1133090Y781000D01*
X1139000Y784937D02*
X1134454D01*
X1122636Y791125D02*
X1123545Y792250D01*
X1124909Y792812*
X1124909D02*
X1126727D01*
X1126727D02*
X1128090Y792250D01*
X1128090D02*
X1129000Y791125D01*
Y790000*
X1128545Y788875*
X1128090Y788312*
X1128090D02*
X1127181Y787750D01*
X1127181D02*
X1124454Y786625D01*
X1124454D02*
X1123545Y786062D01*
X1123545D02*
X1123090Y785500D01*
X1123090D02*
X1122636Y784375D01*
Y782687*
X1122636D02*
X1123545Y781562D01*
X1123545D02*
X1124909Y781000D01*
X1126727*
X1128090Y781562*
X1128090D02*
X1129000Y782687D01*
X1118545Y792812D02*
Y781000D01*
X1112181Y792812D02*
X1118545Y784937D01*
X1116272Y787750D02*
X1112181Y781000D01*
X1097636Y792812D02*
Y781000D01*
Y792812D02*
X1093545D01*
X1093545D02*
X1092181Y792250D01*
X1092181D02*
X1091727Y791687D01*
X1091727D02*
X1091272Y790562D01*
X1091272D02*
Y789437D01*
X1091272D02*
X1091727Y788312D01*
X1091727D02*
X1092181Y787750D01*
X1092181D02*
X1093545Y787187D01*
X1097636D02*
X1093545D01*
X1093545D02*
X1092181Y786625D01*
X1092181D02*
X1091727Y786062D01*
X1091727D02*
X1091272Y784937D01*
X1091272D02*
Y783250D01*
X1091272D02*
X1091727Y782125D01*
X1092181Y781562*
X1092181D02*
X1093545Y781000D01*
X1097636*
X1084454Y792812D02*
X1085363Y792250D01*
X1085363D02*
X1086272Y791125D01*
X1086272D02*
X1086727Y790000D01*
X1087181Y788312*
X1087181D02*
Y785500D01*
X1087181D02*
X1086727Y783812D01*
X1086727D02*
X1086272Y782687D01*
X1086272D02*
X1085363Y781562D01*
X1085363D02*
X1084454Y781000D01*
X1084454D02*
X1082636D01*
X1081727Y781562*
X1081727D02*
X1080818Y782687D01*
X1080818D02*
X1080363Y783812D01*
X1080363D02*
X1079909Y785500D01*
Y788312*
X1079909D02*
X1080363Y790000D01*
X1080363D02*
X1080818Y791125D01*
X1081727Y792250*
X1082636Y792812*
X1082636D02*
X1084454D01*
X1072636D02*
Y781000D01*
X1075818Y792812D02*
X1069454D01*
X1062181D02*
Y781000D01*
X1065363Y792812D02*
X1059000D01*
X1052181D02*
X1053090Y792250D01*
X1053090D02*
X1054000Y791125D01*
X1054454Y790000*
X1054454D02*
X1054909Y788312D01*
X1054909D02*
Y785500D01*
X1054454Y783812*
X1054454D02*
X1054000Y782687D01*
X1054000D02*
X1053090Y781562D01*
X1053090D02*
X1052181Y781000D01*
X1052181D02*
X1050363D01*
X1050363D02*
X1049454Y781562D01*
X1049454D02*
X1048545Y782687D01*
X1048545D02*
X1048090Y783812D01*
X1048090D02*
X1047636Y785500D01*
Y788312*
X1047636D02*
X1048090Y790000D01*
X1048090D02*
X1048545Y791125D01*
X1049454Y792250*
X1049454D02*
X1050363Y792812D01*
X1050363D02*
X1052181D01*
X1043545D02*
Y781000D01*
Y792812D02*
X1039909Y781000D01*
X1036272Y792812D02*
X1039909Y781000D01*
X1036272Y792812D02*
Y781000D01*
X1015363Y791125D02*
X1016272Y792250D01*
X1016272D02*
X1017636Y792812D01*
X1017636D02*
X1019454D01*
X1019454D02*
X1020818Y792250D01*
X1021727Y791125*
Y790000*
X1021272Y788875*
X1021272D02*
X1020818Y788312D01*
X1020818D02*
X1019909Y787750D01*
X1017181Y786625*
X1017181D02*
X1016272Y786062D01*
X1016272D02*
X1015818Y785500D01*
X1015363Y784375*
X1015363D02*
Y782687D01*
X1015363D02*
X1016272Y781562D01*
X1016272D02*
X1017636Y781000D01*
X1019454*
X1019454D02*
X1020818Y781562D01*
X1020818D02*
X1021727Y782687D01*
X1011272Y792812D02*
Y781000D01*
X1007181Y792812D02*
Y781000D01*
Y792812D02*
X1004000D01*
X1004000D02*
X1002636Y792250D01*
X1001727Y791125*
X1001272Y790000*
X1001272D02*
X1000818Y788312D01*
X1000818D02*
Y785500D01*
X1001272Y783812*
X1001272D02*
X1001727Y782687D01*
X1001727D02*
X1002636Y781562D01*
X1002636D02*
X1004000Y781000D01*
X1007181*
X996727Y792812D02*
Y781000D01*
Y792812D02*
X990818D01*
X996727Y787187D02*
X993090D01*
X996727Y781000D02*
X990818D01*
G54D205*
X823600Y823600D03*
X1406300D03*
X1115000Y1012600D03*
X1406300Y1201600D03*
X823600D03*
G54D207*
X954000Y811000D03*
X946000D03*
X950000Y808500D03*
X1198500Y1040000D03*
Y1050000D03*
Y1045000D03*
X1241500Y1050000D03*
Y1040000D03*
Y1045000D03*
X1220000Y1065000D03*
X1232500Y1057500D03*
X1216000Y1086000D03*
Y1091000D03*
X1229000Y1080000D03*
X1152500Y1124500D03*
X1172500Y1130000D03*
X1152500Y1146000D03*
X1172500Y1145000D03*
X1183500Y1136000D03*
Y1151000D03*
X1191000D03*
Y1136000D03*
X1172500Y1160000D03*
X1191000Y1166000D03*
X1183500D03*
X1226000Y1172500D03*
X1269000D03*
X1103500Y1193500D03*
X1107500Y1191000D03*
X1111500Y1193500D03*
X1172500Y1175000D03*
X1191000Y1181000D03*
X1183500D03*
X1226000Y1182500D03*
Y1177500D03*
X1236000Y1193500D03*
X1259000D03*
X1269000Y1177500D03*
Y1182500D03*
X872500Y1196000D03*
X862500D03*
X867500D03*
X883500Y1213500D03*
X887500Y1211000D03*
X891500Y1213500D03*
X913500Y1202500D03*
Y1212500D03*
Y1207500D03*
X956500Y1212500D03*
Y1202500D03*
Y1207500D03*
X1011000Y1202500D03*
Y1212500D03*
Y1207500D03*
X1092500Y1196000D03*
X1082500D03*
X1087500D03*
X1157000Y1203500D03*
X1148000D03*
X1233500Y1197500D03*
X1236000Y1201500D03*
X1259000D03*
X1261500Y1197500D03*
X1378000Y1202500D03*
Y1195000D03*
X1383500Y1212500D03*
X1347500Y1232500D03*
X1373000Y1217000D03*
X1385000Y1219000D03*
Y1236000D03*
G54D214*
X816000Y1240500D03*
Y1245421D03*
X820921Y1240500D03*
Y1245421D03*
X825842Y1240500D03*
Y1245421D03*
X830763Y1240500D03*
Y1245421D03*
X835685Y1240500D03*
Y1245421D03*
X840606Y1240500D03*
Y1245421D03*
X845527Y1240500D03*
Y1245421D03*
X850448Y1240500D03*
Y1245421D03*
X0Y0D02*
M02*
