*
*
G04 PADS Layout (Build Number 2005.103.1) generated Gerber (RS-274-X) file*
G04 PC Version=2.1*
*
%IN "7757.pcb"*%
*
%MOIN*%
*
%FSLAX35Y35*%
*
*
*
*
G04 PC Standard Apertures*
*
*
G04 Thermal Relief Aperture macro.*
%AMTER*
1,1,$1,0,0*
1,0,$1-$2,0,0*
21,0,$3,$4,0,0,45*
21,0,$3,$4,0,0,135*
%
*
*
G04 Annular Aperture macro.*
%AMANN*
1,1,$1,0,0*
1,0,$2,0,0*
%
*
*
G04 Odd Aperture macro.*
%AMODD*
1,1,$1,0,0*
1,0,$1-0.005,0,0*
%
*
*
G04 PC Custom Aperture Macros*
*
*
*
*
*
*
G04 PC Aperture Table*
*
%ADD014C,0.065*%
%ADD018R,0.065X0.065*%
%ADD025C,0.08*%
%ADD039C,0.105*%
%ADD041C,0.07*%
%ADD042R,0.07X0.07*%
%ADD043C,0.155*%
%ADD047C,0.205*%
%ADD052C,0.01*%
%ADD053C,0.02*%
%ADD107R,0.048X0.074*%
%ADD114R,0.074X0.048*%
%ADD126R,0.06X0.048*%
%ADD132R,0.041X0.039*%
%ADD154R,0.138X0.103*%
%ADD155R,0.039X0.041*%
%ADD156R,0.048X0.06*%
%ADD182R,0.113X0.067*%
%ADD192R,0.067X0.113*%
%ADD205C,0.255*%
%ADD206R,0.103X0.138*%
%ADD207C,0.019*%
%ADD211R,0.03X0.092*%
%ADD212R,0.03X0.045*%
%ADD213R,0.048X0.019*%
%ADD214C,0.043*%
%ADD215R,0.085X0.131*%
*
*
*
*
G04 PC Custom Flashes*
G04 Layer Name 7757.pcb - flashes*
%LPD*%
*
*
G04 PC Circuitry*
G04 Layer Name 7757.pcb - circuitry*
%LPD*%
*
G54D14*
G01X1131500Y1223000D03*
X1141500D03*
X1151500D03*
X1161500D03*
G54D18*
X1121500D03*
G54D25*
X815000Y845000D03*
Y1180000D03*
X1415000D03*
G54D39*
X1415500Y1242000D03*
X1395500D03*
Y1262000D03*
X1415500D03*
X1405500Y1252000D03*
X882315Y813000D03*
X902000D03*
X921685D03*
X1235000Y1015000D03*
X1203503D03*
X1192677Y863425D03*
X1235000D03*
X897500Y870000D03*
X924074D03*
G54D41*
X1254000Y1218500D03*
X1263000D03*
X1272000D03*
X1281000D03*
X1290000D03*
X1249500Y1228500D03*
X1258500D03*
X1267500D03*
X1276500D03*
X1285500D03*
X1254000Y1238500D03*
X1263000D03*
X1272000D03*
X1281000D03*
X1290000D03*
X846000Y912400D03*
Y923300D03*
Y934200D03*
Y945100D03*
X834800Y906900D03*
Y917800D03*
Y928700D03*
Y939600D03*
X967900Y1229500D03*
X978800D03*
X989700D03*
X1000600D03*
X1011500D03*
X1022400D03*
X1033300D03*
X962400Y1240700D03*
X973300D03*
X984200D03*
X995100D03*
X1006000D03*
X1016900D03*
X1027800D03*
X1399500Y1086600D03*
Y1075700D03*
Y1064800D03*
Y1053900D03*
Y1043000D03*
Y1032100D03*
Y1021200D03*
Y1010300D03*
Y999400D03*
Y988500D03*
Y977600D03*
Y966700D03*
Y955800D03*
Y944900D03*
Y934000D03*
Y923100D03*
Y912200D03*
Y901300D03*
X1410700Y1092000D03*
Y1081150D03*
Y1070250D03*
Y1059350D03*
Y1048450D03*
Y1037550D03*
Y1026650D03*
Y1015750D03*
Y1004850D03*
Y993950D03*
Y983050D03*
Y972150D03*
Y961250D03*
Y950350D03*
Y939450D03*
Y928550D03*
Y917650D03*
Y906750D03*
G54D42*
X846000Y901500D03*
X957000Y1229500D03*
X1399500Y1097500D03*
G54D43*
X1038248Y1169212D03*
X1059901D03*
G54D47*
X1320200Y1228500D03*
X1221800D03*
X840400Y874100D03*
Y972500D03*
X929600Y1235100D03*
X1060700D03*
X1405100Y1124400D03*
Y874400D03*
G54D52*
X800000Y800000D02*
X1429900D01*
Y1272400*
X800000*
Y800000*
G54D53*
X1036909Y767812D02*
X1041909D01*
X1041909D02*
X1039181Y763312D01*
X1039181D02*
X1040545D01*
X1040545D02*
X1041454Y762750D01*
X1041454D02*
X1041909Y762187D01*
X1041909D02*
X1042363Y760500D01*
X1042363D02*
Y759375D01*
X1042363D02*
X1041909Y757687D01*
X1041909D02*
X1041000Y756562D01*
X1041000D02*
X1039636Y756000D01*
X1038272*
X1038272D02*
X1036909Y756562D01*
X1036909D02*
X1036454Y757125D01*
X1036454D02*
X1036000Y758250D01*
X1046454Y765562D02*
X1047363Y766125D01*
X1047363D02*
X1048727Y767812D01*
X1048727D02*
Y756000D01*
X1052818Y761062D02*
X1061000D01*
X1067818Y767812D02*
X1066454Y767250D01*
X1066454D02*
X1065545Y765562D01*
X1065545D02*
X1065090Y762750D01*
X1065090D02*
Y761062D01*
X1065090D02*
X1065545Y758250D01*
X1066454Y756562*
X1066454D02*
X1067818Y756000D01*
X1068727*
X1070090Y756562*
X1070090D02*
X1071000Y758250D01*
X1071454Y761062*
X1071454D02*
Y762750D01*
X1071454D02*
X1071000Y765562D01*
X1071000D02*
X1070090Y767250D01*
X1070090D02*
X1068727Y767812D01*
X1068727D02*
X1067818D01*
X1078272D02*
X1076909Y767250D01*
X1076000Y765562*
X1076000D02*
X1075545Y762750D01*
Y761062*
X1075545D02*
X1076000Y758250D01*
X1076909Y756562*
X1076909D02*
X1078272Y756000D01*
X1078272D02*
X1079181D01*
X1079181D02*
X1080545Y756562D01*
X1080545D02*
X1081454Y758250D01*
X1081454D02*
X1081909Y761062D01*
X1081909D02*
Y762750D01*
X1081454Y765562*
X1081454D02*
X1080545Y767250D01*
X1079181Y767812*
X1079181D02*
X1078272D01*
X1088727D02*
X1087363Y767250D01*
X1087363D02*
X1086454Y765562D01*
X1086454D02*
X1086000Y762750D01*
Y761062*
X1086000D02*
X1086454Y758250D01*
X1086454D02*
X1087363Y756562D01*
X1087363D02*
X1088727Y756000D01*
X1089636*
X1091000Y756562*
X1091000D02*
X1091909Y758250D01*
X1092363Y761062*
X1092363D02*
Y762750D01*
X1092363D02*
X1091909Y765562D01*
X1091909D02*
X1091000Y767250D01*
X1089636Y767812*
X1089636D02*
X1088727D01*
X1101909Y766125D02*
X1101454Y767250D01*
X1101454D02*
X1100090Y767812D01*
X1100090D02*
X1099181D01*
X1099181D02*
X1097818Y767250D01*
X1096909Y765562*
X1096909D02*
X1096454Y762750D01*
X1096454D02*
Y759937D01*
X1096454D02*
X1096909Y757687D01*
X1096909D02*
X1097818Y756562D01*
X1097818D02*
X1099181Y756000D01*
X1099181D02*
X1099636D01*
X1101000Y756562*
X1101000D02*
X1101909Y757687D01*
X1101909D02*
X1102363Y759375D01*
X1102363D02*
Y759937D01*
X1102363D02*
X1101909Y761625D01*
X1101000Y762750*
X1099636Y763312*
X1099636D02*
X1099181D01*
X1099181D02*
X1097818Y762750D01*
X1096909Y761625*
X1096454Y759937*
X1116909Y767812D02*
Y756000D01*
Y767812D02*
X1121000D01*
X1121000D02*
X1122363Y767250D01*
X1122363D02*
X1122818Y766687D01*
X1122818D02*
X1123272Y765562D01*
X1123272D02*
Y764437D01*
X1123272D02*
X1122818Y763312D01*
X1122818D02*
X1122363Y762750D01*
X1122363D02*
X1121000Y762187D01*
X1121000D02*
X1116909D01*
X1120090D02*
X1123272Y756000D01*
X1127363Y767812D02*
Y756000D01*
Y767812D02*
X1133272D01*
X1127363Y762187D02*
X1131000D01*
X1127363Y756000D02*
X1133272D01*
X1137363Y767812D02*
X1141000Y756000D01*
X1144636Y767812D02*
X1141000Y756000D01*
X1159181Y765562D02*
X1160090Y766125D01*
X1160090D02*
X1161454Y767812D01*
X1161454D02*
Y756000D01*
X1007363Y791125D02*
X1006454Y792250D01*
X1006454D02*
X1005090Y792812D01*
X1005090D02*
X1003272D01*
X1003272D02*
X1001909Y792250D01*
X1001000Y791125*
Y790000*
X1001454Y788875*
X1001454D02*
X1001909Y788312D01*
X1001909D02*
X1002818Y787750D01*
X1005545Y786625*
X1006454Y786062*
X1006454D02*
X1006909Y785500D01*
X1007363Y784375*
X1007363D02*
Y782687D01*
X1007363D02*
X1006454Y781562D01*
X1006454D02*
X1005090Y781000D01*
X1005090D02*
X1003272D01*
X1003272D02*
X1001909Y781562D01*
X1001909D02*
X1001000Y782687D01*
X1014181Y792812D02*
X1013272Y792250D01*
X1013272D02*
X1012363Y791125D01*
X1012363D02*
X1011909Y790000D01*
X1011454Y788312*
X1011454D02*
Y785500D01*
X1011454D02*
X1011909Y783812D01*
X1011909D02*
X1012363Y782687D01*
X1012363D02*
X1013272Y781562D01*
X1013272D02*
X1014181Y781000D01*
X1014181D02*
X1016000D01*
X1016909Y781562*
X1016909D02*
X1017818Y782687D01*
X1017818D02*
X1018272Y783812D01*
X1018272D02*
X1018727Y785500D01*
Y788312*
X1018727D02*
X1018272Y790000D01*
X1018272D02*
X1017818Y791125D01*
X1016909Y792250*
X1016000Y792812*
X1016000D02*
X1014181D01*
X1022818D02*
Y781000D01*
X1028272*
X1032363Y792812D02*
Y781000D01*
Y792812D02*
X1035545D01*
X1035545D02*
X1036909Y792250D01*
X1037818Y791125*
X1038272Y790000*
X1038272D02*
X1038727Y788312D01*
X1038727D02*
Y785500D01*
X1038272Y783812*
X1038272D02*
X1037818Y782687D01*
X1037818D02*
X1036909Y781562D01*
X1036909D02*
X1035545Y781000D01*
X1032363*
X1042818Y792812D02*
Y781000D01*
Y792812D02*
X1048727D01*
X1042818Y787187D02*
X1046454D01*
X1042818Y781000D02*
X1048727D01*
X1052818Y792812D02*
Y781000D01*
Y792812D02*
X1056909D01*
X1056909D02*
X1058272Y792250D01*
X1058272D02*
X1058727Y791687D01*
X1058727D02*
X1059181Y790562D01*
X1059181D02*
Y789437D01*
X1059181D02*
X1058727Y788312D01*
X1058727D02*
X1058272Y787750D01*
X1058272D02*
X1056909Y787187D01*
X1056909D02*
X1052818D01*
X1056000D02*
X1059181Y781000D01*
X1063272Y792812D02*
Y781000D01*
Y792812D02*
X1066909Y781000D01*
X1070545Y792812D02*
X1066909Y781000D01*
X1070545Y792812D02*
Y781000D01*
X1078272Y792812D02*
X1074636Y781000D01*
X1078272Y792812D02*
X1081909Y781000D01*
X1076000Y784937D02*
X1080545D01*
X1092363Y791125D02*
X1091454Y792250D01*
X1091454D02*
X1090090Y792812D01*
X1090090D02*
X1088272D01*
X1088272D02*
X1086909Y792250D01*
X1086000Y791125*
Y790000*
X1086454Y788875*
X1086454D02*
X1086909Y788312D01*
X1086909D02*
X1087818Y787750D01*
X1090545Y786625*
X1091454Y786062*
X1091454D02*
X1091909Y785500D01*
X1092363Y784375*
X1092363D02*
Y782687D01*
X1092363D02*
X1091454Y781562D01*
X1091454D02*
X1090090Y781000D01*
X1090090D02*
X1088272D01*
X1088272D02*
X1086909Y781562D01*
X1086909D02*
X1086000Y782687D01*
X1096454Y792812D02*
Y781000D01*
X1102818Y792812D02*
X1096454Y784937D01*
X1098727Y787750D02*
X1102818Y781000D01*
X1120545Y792812D02*
Y781000D01*
X1117363Y792812D02*
X1123727D01*
X1130545D02*
X1129636Y792250D01*
X1128727Y791125*
X1128272Y790000*
X1128272D02*
X1127818Y788312D01*
X1127818D02*
Y785500D01*
X1128272Y783812*
X1128272D02*
X1128727Y782687D01*
X1128727D02*
X1129636Y781562D01*
X1129636D02*
X1130545Y781000D01*
X1132363*
X1132363D02*
X1133272Y781562D01*
X1133272D02*
X1134181Y782687D01*
X1134181D02*
X1134636Y783812D01*
X1134636D02*
X1135090Y785500D01*
X1135090D02*
Y788312D01*
X1135090D02*
X1134636Y790000D01*
X1134181Y791125*
X1134181D02*
X1133272Y792250D01*
X1133272D02*
X1132363Y792812D01*
X1132363D02*
X1130545D01*
X1139181D02*
Y781000D01*
Y792812D02*
X1143272D01*
X1143272D02*
X1144636Y792250D01*
X1145090Y791687*
X1145090D02*
X1145545Y790562D01*
X1145545D02*
Y788875D01*
X1145090Y787750*
X1145090D02*
X1144636Y787187D01*
X1144636D02*
X1143272Y786625D01*
X1143272D02*
X1139181D01*
X1166454Y791125D02*
X1165545Y792250D01*
X1164181Y792812*
X1164181D02*
X1162363D01*
X1162363D02*
X1161000Y792250D01*
X1160090Y791125*
X1160090D02*
Y790000D01*
X1160090D02*
X1160545Y788875D01*
X1161000Y788312*
X1161000D02*
X1161909Y787750D01*
X1164636Y786625*
X1165545Y786062*
X1165545D02*
X1166000Y785500D01*
X1166454Y784375*
X1166454D02*
Y782687D01*
X1166454D02*
X1165545Y781562D01*
X1165545D02*
X1164181Y781000D01*
X1164181D02*
X1162363D01*
X1162363D02*
X1161000Y781562D01*
X1161000D02*
X1160090Y782687D01*
X1170545Y792812D02*
Y781000D01*
X1174636Y792812D02*
Y781000D01*
Y792812D02*
X1177818D01*
X1177818D02*
X1179181Y792250D01*
X1179181D02*
X1180090Y791125D01*
X1180090D02*
X1180545Y790000D01*
X1181000Y788312*
X1181000D02*
Y785500D01*
X1180545Y783812*
X1180545D02*
X1180090Y782687D01*
X1180090D02*
X1179181Y781562D01*
X1179181D02*
X1177818Y781000D01*
X1174636*
X1185090Y792812D02*
Y781000D01*
Y792812D02*
X1191000D01*
X1185090Y787187D02*
X1188727D01*
X1185090Y781000D02*
X1191000D01*
G54D107*
X1378307Y1212500D03*
X1366692D03*
X1156692Y1210000D03*
X1168307D03*
G54D114*
X1152500Y1129192D03*
Y1140807D03*
X1375000Y1221692D03*
Y1233307D03*
G54D126*
X1197500Y1129055D03*
Y1135944D03*
Y1144055D03*
Y1150944D03*
Y1159055D03*
Y1165944D03*
Y1174055D03*
Y1180944D03*
X1385000Y1230944D03*
Y1224055D03*
X1352500Y1244055D03*
Y1250944D03*
G54D132*
X1232500Y1068051D03*
Y1061948D03*
X1177500Y1135551D03*
Y1129448D03*
Y1150551D03*
Y1144448D03*
Y1165551D03*
Y1159448D03*
Y1180551D03*
Y1174448D03*
X1352500Y1216948D03*
Y1223051D03*
Y1229448D03*
Y1235551D03*
G54D154*
X867500Y1230098D03*
Y1204901D03*
X1087500Y1230098D03*
Y1204901D03*
G54D155*
X1190551Y1127500D03*
X1184448D03*
X1190551Y1142500D03*
X1184448D03*
X1190551Y1157500D03*
X1184448D03*
X1190551Y1172500D03*
X1184448D03*
X1148051Y1210000D03*
X1141948D03*
X1373051Y1195000D03*
X1366948D03*
Y1202500D03*
X1373051D03*
G54D156*
X1216555Y1080000D03*
X1223444D03*
G54D182*
X950000Y828011D03*
Y816988D03*
X905000Y1260511D03*
Y1249488D03*
X1182500Y1260511D03*
Y1249488D03*
X1200000Y1260511D03*
Y1249488D03*
X887500Y1219488D03*
Y1230511D03*
X1107500Y1199488D03*
Y1210511D03*
G54D192*
X1253011Y1197500D03*
X1241988D03*
X1068011Y1207500D03*
X1056988D03*
G54D205*
X823600Y823600D03*
X1406300D03*
X1115000Y1012600D03*
X1406300Y1201600D03*
X823600D03*
G54D206*
X1045098Y1207500D03*
X1019901D03*
X947598D03*
X922401D03*
X1207401Y1045000D03*
X1232598D03*
X1234901Y1177500D03*
X1260098D03*
G54D207*
X954000Y811000D03*
X946000D03*
X950000Y808500D03*
X1198500Y1040000D03*
Y1050000D03*
Y1045000D03*
X1241500Y1050000D03*
Y1040000D03*
Y1045000D03*
X1220000Y1065000D03*
X1232500Y1057500D03*
X1216000Y1086000D03*
Y1091000D03*
X1229000Y1080000D03*
X1152500Y1124500D03*
X1172500Y1130000D03*
X1152500Y1146000D03*
X1172500Y1145000D03*
X1183500Y1136000D03*
Y1151000D03*
X1191000D03*
Y1136000D03*
X1172500Y1160000D03*
X1191000Y1166000D03*
X1183500D03*
X1226000Y1172500D03*
X1269000D03*
X1103500Y1193500D03*
X1107500Y1191000D03*
X1111500Y1193500D03*
X1172500Y1175000D03*
X1191000Y1181000D03*
X1183500D03*
X1226000Y1182500D03*
Y1177500D03*
X1236000Y1193500D03*
X1259000D03*
X1269000Y1177500D03*
Y1182500D03*
X872500Y1196000D03*
X862500D03*
X867500D03*
X883500Y1213500D03*
X887500Y1211000D03*
X891500Y1213500D03*
X913500Y1202500D03*
Y1212500D03*
Y1207500D03*
X956500Y1212500D03*
Y1202500D03*
Y1207500D03*
X1011000Y1202500D03*
Y1212500D03*
Y1207500D03*
X1092500Y1196000D03*
X1082500D03*
X1087500D03*
X1157000Y1203500D03*
X1148000D03*
X1233500Y1197500D03*
X1236000Y1201500D03*
X1259000D03*
X1261500Y1197500D03*
X1378000Y1202500D03*
Y1195000D03*
X1383500Y1212500D03*
X1347500Y1232500D03*
X1373000Y1217000D03*
X1385000Y1219000D03*
Y1236000D03*
G54D211*
X1107500Y1124764D03*
X1112500D03*
X1117500D03*
X1122500D03*
X1127500D03*
X1132500D03*
X1137500D03*
X1142500D03*
Y1145236D03*
X1137500D03*
X1132500D03*
X1127500D03*
X1122500D03*
X1117500D03*
X1112500D03*
X1107500D03*
G54D212*
X1216250Y1059900D03*
X1220000D03*
X1223750D03*
Y1070100D03*
X1216250D03*
G54D213*
X1359074Y1235059D03*
Y1232500D03*
Y1229940D03*
X1365925D03*
Y1232500D03*
Y1235059D03*
G54D214*
X816000Y1240500D03*
Y1245421D03*
X820921Y1240500D03*
Y1245421D03*
X825842Y1240500D03*
Y1245421D03*
X830763Y1240500D03*
Y1245421D03*
X835685Y1240500D03*
Y1245421D03*
X840606Y1240500D03*
Y1245421D03*
X845527Y1240500D03*
Y1245421D03*
X850448Y1240500D03*
Y1245421D03*
G54D215*
X855370Y1257822D03*
X811078D03*
X0Y0D02*
M02*
