*
*
G04 PADS Layout (Build Number 2005.103.1) generated Gerber (RS-274-X) file*
G04 PC Version=2.1*
*
%IN "7757.pcb"*%
*
%MOIN*%
*
%FSLAX35Y35*%
*
*
*
*
G04 PC Standard Apertures*
*
*
G04 Thermal Relief Aperture macro.*
%AMTER*
1,1,$1,0,0*
1,0,$1-$2,0,0*
21,0,$3,$4,0,0,45*
21,0,$3,$4,0,0,135*
%
*
*
G04 Annular Aperture macro.*
%AMANN*
1,1,$1,0,0*
1,0,$2,0,0*
%
*
*
G04 Odd Aperture macro.*
%AMODD*
1,1,$1,0,0*
1,0,$1-0.005,0,0*
%
*
*
G04 PC Custom Aperture Macros*
*
*
*
*
*
*
G04 PC Aperture Table*
*
%ADD052C,0.01*%
%ADD053C,0.02*%
%ADD063C,0.008*%
%ADD064C,0.006*%
*
*
*
*
G04 PC Custom Flashes*
G04 Layer Name 7757.pcb - flashes*
%LPD*%
*
*
G04 PC Circuitry*
G04 Layer Name 7757.pcb - circuitry*
%LPD*%
*
G54D52*
G01X1197893Y1132500D02*
G75*
G03X1197893I-393J0D01*
G01X1153000Y1135000D02*
G03X1153000I-500J0D01*
G01X1373000Y1212500D02*
G03X1373000I-500J0D01*
G01X1375500Y1227500D02*
G03X1375500I-500J0D01*
G01X1197893Y1147500D02*
G03X1197893I-393J0D01*
G01Y1162500D02*
G03X1197893I-393J0D01*
G01Y1177500D02*
G03X1197893I-393J0D01*
G01X1385393Y1227500D02*
G03X1385393I-393J0D01*
G01X1220393Y1080000D02*
G03X1220393I-393J0D01*
G01X1163000Y1210000D02*
G03X1163000I-500J0D01*
G01X1352893Y1247500D02*
G03X1352893I-393J0D01*
G01X854000Y862700D02*
X803000D01*
Y983900*
X854000*
Y862700*
X803000Y891200D02*
X779000D01*
Y955400*
X803000*
X800000Y800000D02*
X1429900D01*
Y1272400*
X800000*
Y800000*
G54D53*
X1057363Y791125D02*
X1056454Y792250D01*
X1056454D02*
X1055090Y792812D01*
X1055090D02*
X1053272D01*
X1053272D02*
X1051909Y792250D01*
X1051000Y791125*
Y790000*
X1051454Y788875*
X1051454D02*
X1051909Y788312D01*
X1051909D02*
X1052818Y787750D01*
X1055545Y786625*
X1056454Y786062*
X1056454D02*
X1056909Y785500D01*
X1057363Y784375*
X1057363D02*
Y782687D01*
X1057363D02*
X1056454Y781562D01*
X1056454D02*
X1055090Y781000D01*
X1055090D02*
X1053272D01*
X1053272D02*
X1051909Y781562D01*
X1051909D02*
X1051000Y782687D01*
X1061454Y792812D02*
Y781000D01*
X1065545Y792812D02*
Y781000D01*
X1071000*
X1075090Y792812D02*
Y781000D01*
X1081454Y792812D02*
X1075090Y784937D01*
X1077363Y787750D02*
X1081454Y781000D01*
X1091909Y791125D02*
X1091000Y792250D01*
X1089636Y792812*
X1089636D02*
X1087818D01*
X1087818D02*
X1086454Y792250D01*
X1086454D02*
X1085545Y791125D01*
Y790000*
X1086000Y788875*
X1086454Y788312*
X1086454D02*
X1087363Y787750D01*
X1087363D02*
X1090090Y786625D01*
X1090090D02*
X1091000Y786062D01*
X1091000D02*
X1091454Y785500D01*
X1091454D02*
X1091909Y784375D01*
Y782687*
X1091909D02*
X1091000Y781562D01*
X1091000D02*
X1089636Y781000D01*
X1087818*
X1086454Y781562*
X1086454D02*
X1085545Y782687D01*
X1102818Y790000D02*
X1102363Y791125D01*
X1102363D02*
X1101454Y792250D01*
X1101454D02*
X1100545Y792812D01*
X1100545D02*
X1098727D01*
X1098727D02*
X1097818Y792250D01*
X1096909Y791125*
X1096454Y790000*
X1096454D02*
X1096000Y788312D01*
X1096000D02*
Y785500D01*
X1096454Y783812*
X1096454D02*
X1096909Y782687D01*
X1096909D02*
X1097818Y781562D01*
X1097818D02*
X1098727Y781000D01*
X1100545*
X1101454Y781562*
X1101454D02*
X1102363Y782687D01*
X1102363D02*
X1102818Y783812D01*
X1106909Y792812D02*
Y781000D01*
Y792812D02*
X1111000D01*
X1111000D02*
X1112363Y792250D01*
X1112363D02*
X1112818Y791687D01*
X1112818D02*
X1113272Y790562D01*
X1113272D02*
Y789437D01*
X1113272D02*
X1112818Y788312D01*
X1112818D02*
X1112363Y787750D01*
X1112363D02*
X1111000Y787187D01*
X1111000D02*
X1106909D01*
X1110090D02*
X1113272Y781000D01*
X1117363Y792812D02*
Y781000D01*
Y792812D02*
X1123272D01*
X1117363Y787187D02*
X1121000D01*
X1117363Y781000D02*
X1123272D01*
X1127363Y792812D02*
Y781000D01*
Y792812D02*
X1133272D01*
X1127363Y787187D02*
X1131000D01*
X1127363Y781000D02*
X1133272D01*
X1137363Y792812D02*
Y781000D01*
Y792812D02*
X1143727Y781000D01*
Y792812D02*
Y781000D01*
X1036909Y767812D02*
X1041909D01*
X1041909D02*
X1039181Y763312D01*
X1039181D02*
X1040545D01*
X1040545D02*
X1041454Y762750D01*
X1041454D02*
X1041909Y762187D01*
X1041909D02*
X1042363Y760500D01*
X1042363D02*
Y759375D01*
X1042363D02*
X1041909Y757687D01*
X1041909D02*
X1041000Y756562D01*
X1041000D02*
X1039636Y756000D01*
X1038272*
X1038272D02*
X1036909Y756562D01*
X1036909D02*
X1036454Y757125D01*
X1036454D02*
X1036000Y758250D01*
X1046454Y765562D02*
X1047363Y766125D01*
X1047363D02*
X1048727Y767812D01*
X1048727D02*
Y756000D01*
X1052818Y761062D02*
X1061000D01*
X1067818Y767812D02*
X1066454Y767250D01*
X1066454D02*
X1065545Y765562D01*
X1065545D02*
X1065090Y762750D01*
X1065090D02*
Y761062D01*
X1065090D02*
X1065545Y758250D01*
X1066454Y756562*
X1066454D02*
X1067818Y756000D01*
X1068727*
X1070090Y756562*
X1070090D02*
X1071000Y758250D01*
X1071454Y761062*
X1071454D02*
Y762750D01*
X1071454D02*
X1071000Y765562D01*
X1071000D02*
X1070090Y767250D01*
X1070090D02*
X1068727Y767812D01*
X1068727D02*
X1067818D01*
X1078272D02*
X1076909Y767250D01*
X1076000Y765562*
X1076000D02*
X1075545Y762750D01*
Y761062*
X1075545D02*
X1076000Y758250D01*
X1076909Y756562*
X1076909D02*
X1078272Y756000D01*
X1078272D02*
X1079181D01*
X1079181D02*
X1080545Y756562D01*
X1080545D02*
X1081454Y758250D01*
X1081454D02*
X1081909Y761062D01*
X1081909D02*
Y762750D01*
X1081454Y765562*
X1081454D02*
X1080545Y767250D01*
X1079181Y767812*
X1079181D02*
X1078272D01*
X1088727D02*
X1087363Y767250D01*
X1087363D02*
X1086454Y765562D01*
X1086454D02*
X1086000Y762750D01*
Y761062*
X1086000D02*
X1086454Y758250D01*
X1086454D02*
X1087363Y756562D01*
X1087363D02*
X1088727Y756000D01*
X1089636*
X1091000Y756562*
X1091000D02*
X1091909Y758250D01*
X1092363Y761062*
X1092363D02*
Y762750D01*
X1092363D02*
X1091909Y765562D01*
X1091909D02*
X1091000Y767250D01*
X1089636Y767812*
X1089636D02*
X1088727D01*
X1101909Y766125D02*
X1101454Y767250D01*
X1101454D02*
X1100090Y767812D01*
X1100090D02*
X1099181D01*
X1099181D02*
X1097818Y767250D01*
X1096909Y765562*
X1096909D02*
X1096454Y762750D01*
X1096454D02*
Y759937D01*
X1096454D02*
X1096909Y757687D01*
X1096909D02*
X1097818Y756562D01*
X1097818D02*
X1099181Y756000D01*
X1099181D02*
X1099636D01*
X1101000Y756562*
X1101000D02*
X1101909Y757687D01*
X1101909D02*
X1102363Y759375D01*
X1102363D02*
Y759937D01*
X1102363D02*
X1101909Y761625D01*
X1101000Y762750*
X1099636Y763312*
X1099636D02*
X1099181D01*
X1099181D02*
X1097818Y762750D01*
X1096909Y761625*
X1096454Y759937*
X1116909Y767812D02*
Y756000D01*
Y767812D02*
X1121000D01*
X1121000D02*
X1122363Y767250D01*
X1122363D02*
X1122818Y766687D01*
X1122818D02*
X1123272Y765562D01*
X1123272D02*
Y764437D01*
X1123272D02*
X1122818Y763312D01*
X1122818D02*
X1122363Y762750D01*
X1122363D02*
X1121000Y762187D01*
X1121000D02*
X1116909D01*
X1120090D02*
X1123272Y756000D01*
X1127363Y767812D02*
Y756000D01*
Y767812D02*
X1133272D01*
X1127363Y762187D02*
X1131000D01*
X1127363Y756000D02*
X1133272D01*
X1137363Y767812D02*
X1141000Y756000D01*
X1144636Y767812D02*
X1141000Y756000D01*
X1159181Y765562D02*
X1160090Y766125D01*
X1160090D02*
X1161454Y767812D01*
X1161454D02*
Y756000D01*
G54D63*
X1393000Y1239500D02*
Y1264500D01*
X1418000*
Y1239500*
X1393000*
X1394500Y1264500D02*
Y1295500D01*
X1416500*
Y1264401*
X954921Y829192D02*
Y815807D01*
X945078*
X945078D02*
Y829192D01*
X945078D02*
X954921D01*
X1105000Y1140000D02*
X1145000D01*
Y1130000*
X1105000*
Y1140000*
Y1132500D02*
X1145000D01*
X1110000D02*
Y1137500D01*
X1105000*
Y1126000D02*
G03X1105000I-1500J0D01*
G01X909921Y1261692D02*
Y1248307D01*
X900078*
X900078D02*
Y1261692D01*
X900078D02*
X909921D01*
X1187421D02*
Y1248307D01*
X1177578*
X1177578D02*
Y1261692D01*
X1177578D02*
X1187421D01*
X1204921D02*
Y1248307D01*
X1195078*
X1195078D02*
Y1261692D01*
X1195078D02*
X1204921D01*
X1254192Y1192578D02*
X1240807D01*
X1240807D02*
Y1202421D01*
X1254192*
X1254192D02*
Y1192578D01*
X876555Y1232460D02*
Y1202539D01*
X858444*
X858444D02*
Y1232460D01*
X858444D02*
X876555D01*
X1047460Y1198444D02*
X1017539D01*
X1017539D02*
Y1216555D01*
X1047460*
X1047460D02*
Y1198444D01*
X1096555Y1232460D02*
Y1202539D01*
X1078444*
X1078444D02*
Y1232460D01*
X1078444D02*
X1096555D01*
X949960Y1198444D02*
X920039D01*
X920039D02*
Y1216555D01*
X949960*
X949960D02*
Y1198444D01*
X1205039Y1054055D02*
X1234960D01*
X1234960D02*
Y1035944D01*
X1234960D02*
X1205039D01*
X1205039D02*
Y1054055D01*
X1232539Y1186555D02*
X1262460D01*
X1262460D02*
Y1168444D01*
X1262460D02*
X1232539D01*
X1232539D02*
Y1186555D01*
X1232795Y1065000D02*
G03X1232795I-295J0D01*
G01X1177795Y1132500D02*
G03X1177795I-295J0D01*
G01X1187795Y1127500D02*
G03X1187795I-295J0D01*
G01X1177795Y1147500D02*
G03X1177795I-295J0D01*
G01X1187795Y1142500D02*
G03X1187795I-295J0D01*
G01X1177795Y1162500D02*
G03X1177795I-295J0D01*
G01X1187795Y1157500D02*
G03X1187795I-295J0D01*
G01X1177795Y1177500D02*
G03X1177795I-295J0D01*
G01X1187795Y1172500D02*
G03X1187795I-295J0D01*
G01X1145295Y1210000D02*
G03X1145295I-295J0D01*
G01X1352795Y1220000D02*
G03X1352795I-295J0D01*
G01X1370295Y1195000D02*
G03X1370295I-295J0D01*
G01Y1202500D02*
G03X1370295I-295J0D01*
G01X1352795Y1232500D02*
G03X1352795I-295J0D01*
G01X1210300Y1210000D02*
Y1273500D01*
X1331700*
Y1210000*
X1210300*
X1237600Y1273500D02*
X1304400D01*
Y1297500*
X1237600*
Y1273500*
X1215500D02*
X1228000D01*
Y1297500*
X1215500*
Y1273500*
X1314000D02*
X1326500D01*
Y1297500*
X1314000*
Y1273500*
X1221500Y1068000D02*
X1218500D01*
X1226000Y1061850D02*
Y1068150D01*
X1214000Y1061850D02*
Y1068150D01*
X1359499Y1237294D02*
G03X1359499I-499J0D01*
G01X1364980Y1236437D02*
X1360019D01*
X1360019D02*
Y1228562D01*
X1360019D02*
X1364980D01*
X1364980D02*
Y1236437D01*
X882578Y1218307D02*
Y1231692D01*
X882578D02*
X892421D01*
X892421D02*
Y1218307D01*
X882578*
X1069192Y1202578D02*
X1055807D01*
X1055807D02*
Y1212421D01*
X1069192*
X1069192D02*
Y1202578D01*
X1102578Y1198307D02*
Y1211692D01*
X1102578D02*
X1112421D01*
X1112421D02*
Y1198307D01*
X1102578*
X918000Y1221500D02*
Y1272500D01*
X1072300*
Y1221500*
X918000*
X946350Y1272500D02*
Y1296100D01*
X1043950*
Y1272500*
X872462Y802913D02*
Y800000D01*
Y802913D02*
X931517D01*
X931517D02*
Y800000D01*
X872462D02*
X931517D01*
X889194Y812992D02*
G03X875415I-6888J0D01*
G01X895100D02*
G03X908880I6890J0D01*
X895100I-6889J0*
G01X914785D02*
G03X928565I6890J0D01*
X914785I-6889J0*
G01X872462Y808759D02*
X874824D01*
X872462Y822716D02*
Y808759D01*
Y822716D02*
X931517D01*
X931517D02*
Y808661D01*
X931517D02*
X933801D01*
Y804724*
X931517D02*
X933801D01*
X931517D02*
Y802913D01*
X872462Y804626D02*
Y802913D01*
X875415Y812992D02*
G03X889194I6890J0D01*
G01X872462Y804626D02*
X874824D01*
Y808759D02*
Y804626D01*
X872462Y829527D02*
Y822716D01*
Y829527D02*
X931517D01*
X931517D02*
Y822716D01*
X921675Y819291D02*
G03X915527Y814366I0J-6298D01*
G01X927822D02*
G03X921675Y819291I-6146J-1373D01*
G01X923053Y814370D02*
X927821D01*
X923053Y816929D02*
Y814370D01*
Y816929D02*
X920297D01*
Y814370D02*
Y816929D01*
X915528Y814370D02*
X920297D01*
X901990Y819291D02*
G03X895842Y814366I0J-6298D01*
G01X908137D02*
G03X901990Y819291I-6146J-1373D01*
G01X903368Y814370D02*
X908136D01*
X903368Y816929D02*
Y814370D01*
Y816929D02*
X900612D01*
Y814370D02*
Y816929D01*
X895843Y814370D02*
X900612D01*
X880927Y809055D02*
X883683D01*
X882305Y806692D02*
G03X888452Y811618I0J6300D01*
G01X876157D02*
G03X882305Y806692I6148J1374D01*
G01X883683Y811614D02*
Y809055D01*
X888451Y811614D02*
X883683D01*
X880927D02*
X876158D01*
X880927Y809055D02*
Y811614D01*
X920297Y809055D02*
X923053D01*
X927821Y811614D02*
X923053D01*
X921675Y806692D02*
G03X927822Y811618I0J6300D01*
G01X915527D02*
G03X921675Y806692I6148J1374D01*
G01X920297Y811614D02*
X915528D01*
X920297Y809055D02*
Y811614D01*
X923053D02*
Y809055D01*
X882305Y819291D02*
G03X876157Y814366I0J-6298D01*
G01X888452D02*
G03X882305Y819291I-6146J-1373D01*
G01X883683Y816929D02*
X880927D01*
Y814370D02*
Y816929D01*
X876158Y814370D02*
X880927D01*
X883683D02*
X888451D01*
X883683Y816929D02*
Y814370D01*
X900612Y809055D02*
X903368D01*
X901990Y806692D02*
G03X908137Y811618I0J6300D01*
G01X895842D02*
G03X901990Y806692I6148J1374D01*
G01X908136Y811614D02*
X903368D01*
Y809055*
X900612Y811614D02*
X895843D01*
X900612Y809055D02*
Y811614D01*
X895842Y814366D02*
G03X895845Y811607I6148J-1373D01*
G01X908137Y811618D02*
G03X908135Y814377I-6146J1374D01*
G01X927822Y811618D02*
G03X927820Y814377I-6146J1374D01*
G01X915527Y814366D02*
G03X915530Y811607I6148J-1373D01*
G01X876157Y814366D02*
G03X876160Y811607I6148J-1373D01*
G01X888452Y811618D02*
G03X888450Y814377I-6146J1374D01*
G01X872462Y822440D02*
X870179D01*
X872462Y826377D02*
X870179D01*
Y822440D02*
Y826377D01*
X872462Y808759D02*
Y804626D01*
X1380100Y1136200D02*
Y863300D01*
X1430100*
Y1136200*
X1380100*
X1171500Y1219000D02*
X1111500D01*
Y1273000*
X1171500*
Y1219000*
X807535Y1240500D02*
X858913D01*
Y1264909*
X807535*
Y1240500*
X817968Y1264909D02*
X816000Y1259102D01*
X814031Y1264909*
X1148582Y1029173D02*
X1248582D01*
X1248582D02*
Y849251D01*
X1248582D02*
X1148582D01*
X1148582D02*
Y1029173D01*
X1082539Y849133D02*
X877814D01*
X877814D02*
Y1191653D01*
X877814D02*
X1082539D01*
X1082539D02*
Y849133D01*
X1382672Y1266437D02*
Y1261837D01*
X1382672D02*
X1382445Y1260975D01*
X1382218Y1260687*
X1382218D02*
X1381763Y1260400D01*
X1381763D02*
X1381309D01*
X1380854Y1260687*
X1380854D02*
X1380627Y1260975D01*
X1380400Y1261837*
X1380400D02*
Y1262412D01*
X1385854Y1266437D02*
X1385172Y1266150D01*
X1385172D02*
X1384945Y1265575D01*
Y1265000*
X1385172Y1264425*
X1385172D02*
X1385627Y1264137D01*
X1385627D02*
X1386536Y1263850D01*
X1387218Y1263562*
X1387218D02*
X1387672Y1262987D01*
X1387672D02*
X1387900Y1262412D01*
X1387900D02*
Y1261550D01*
X1387672Y1260975*
X1387672D02*
X1387445Y1260687D01*
X1387445D02*
X1386763Y1260400D01*
X1386763D02*
X1385854D01*
X1385854D02*
X1385172Y1260687D01*
X1385172D02*
X1384945Y1260975D01*
X1384718Y1261550*
Y1262412*
X1384718D02*
X1384945Y1262987D01*
X1384945D02*
X1385400Y1263562D01*
X1385400D02*
X1386081Y1263850D01*
X1386081D02*
X1386990Y1264137D01*
X1386990D02*
X1387445Y1264425D01*
X1387672Y1265000*
X1387672D02*
Y1265575D01*
X1387672D02*
X1387445Y1266150D01*
X1386763Y1266437*
X1386763D02*
X1385854D01*
X957900Y824468D02*
Y820400D01*
Y824468D02*
X959331D01*
X959331D02*
X959809Y824275D01*
X959968Y824081*
X960127Y823693*
X960127D02*
Y823306D01*
X959968Y822918*
X959968D02*
X959809Y822725D01*
X959331Y822531*
X959331D02*
X957900D01*
X959013D02*
X960127Y820400D01*
X961559Y823693D02*
X961877Y823887D01*
X961877D02*
X962354Y824468D01*
X962354D02*
Y820400D01*
X1203500Y1131786D02*
X1203112Y1131627D01*
X1203112D02*
X1202725Y1131309D01*
X1202531Y1130990*
X1202531D02*
Y1130354D01*
X1202531D02*
X1202725Y1130036D01*
X1203112Y1129718*
X1203112D02*
X1203500Y1129559D01*
X1204081Y1129400*
X1205050*
X1205631Y1129559*
X1206018Y1129718*
X1206018D02*
X1206406Y1130036D01*
X1206600Y1130354*
X1206600D02*
Y1130990D01*
X1206600D02*
X1206406Y1131309D01*
X1206018Y1131627*
X1206018D02*
X1205631Y1131786D01*
X1202531Y1133536D02*
Y1135286D01*
X1204081Y1134331*
X1204081D02*
Y1134809D01*
X1204275Y1135127*
X1204468Y1135286*
X1204468D02*
X1205050Y1135445D01*
X1205437*
X1205437D02*
X1206018Y1135286D01*
X1206018D02*
X1206406Y1134968D01*
X1206600Y1134490*
X1206600D02*
Y1134013D01*
X1206600D02*
X1206406Y1133536D01*
X1206212Y1133377*
X1206212D02*
X1205825Y1133218D01*
X1160000Y1132286D02*
X1159612Y1132127D01*
X1159612D02*
X1159225Y1131809D01*
X1159031Y1131490*
X1159031D02*
Y1130854D01*
X1159031D02*
X1159225Y1130536D01*
X1159612Y1130218*
X1159612D02*
X1160000Y1130059D01*
X1160581Y1129900*
X1161550*
X1162131Y1130059*
X1162518Y1130218*
X1162518D02*
X1162906Y1130536D01*
X1163100Y1130854*
X1163100D02*
Y1131490D01*
X1163100D02*
X1162906Y1131809D01*
X1162518Y1132127*
X1162518D02*
X1162131Y1132286D01*
X1159031Y1135945D02*
X1163100Y1134354D01*
X1159031Y1133718D02*
Y1135945D01*
X1095400Y1137468D02*
Y1134562D01*
X1095400D02*
X1095559Y1133981D01*
X1095877Y1133593*
X1095877D02*
X1096354Y1133400D01*
X1096354D02*
X1096672D01*
X1096672D02*
X1097150Y1133593D01*
X1097150D02*
X1097468Y1133981D01*
X1097627Y1134562*
X1097627D02*
Y1137468D01*
X1099377D02*
X1101127D01*
X1101127D02*
X1100172Y1135918D01*
X1100172D02*
X1100650D01*
X1100650D02*
X1100968Y1135725D01*
X1101127Y1135531*
X1101286Y1134950*
Y1134562*
X1101286D02*
X1101127Y1133981D01*
X1100809Y1133593*
X1100809D02*
X1100331Y1133400D01*
X1100331D02*
X1099854D01*
X1099854D02*
X1099377Y1133593D01*
X1099377D02*
X1099218Y1133787D01*
X1099218D02*
X1099059Y1134175D01*
X903031Y1237900D02*
X907100D01*
X903031D02*
Y1239331D01*
X903031D02*
X903225Y1239809D01*
X903418Y1239968*
X903418D02*
X903806Y1240127D01*
X904193*
X904193D02*
X904581Y1239968D01*
X904775Y1239809*
X904968Y1239331*
X904968D02*
Y1237900D01*
Y1239013D02*
X907100Y1240127D01*
X904000Y1241718D02*
X903806D01*
X903418Y1241877*
X903418D02*
X903225Y1242036D01*
X903031Y1242354*
X903031D02*
Y1242990D01*
X903031D02*
X903225Y1243309D01*
X903418Y1243468*
X903418D02*
X903806Y1243627D01*
X904193*
X904193D02*
X904581Y1243468D01*
X905162Y1243150*
X905162D02*
X907100Y1241559D01*
Y1243786*
X1180531Y1235400D02*
X1184600D01*
X1180531D02*
Y1236831D01*
X1180531D02*
X1180725Y1237309D01*
X1180918Y1237468*
X1180918D02*
X1181306Y1237627D01*
X1181693*
X1181693D02*
X1182081Y1237468D01*
X1182275Y1237309*
X1182468Y1236831*
X1182468D02*
Y1235400D01*
Y1236513D02*
X1184600Y1237627D01*
X1181306Y1239059D02*
X1181112Y1239377D01*
X1181112D02*
X1180531Y1239854D01*
X1180531D02*
X1184600D01*
X1180531Y1242081D02*
X1180725Y1241604D01*
X1180725D02*
X1181112Y1241445D01*
X1181112D02*
X1181500D01*
X1181887Y1241604*
X1181887D02*
X1182081Y1241922D01*
X1182081D02*
X1182275Y1242559D01*
X1182468Y1243036*
X1182468D02*
X1182856Y1243354D01*
X1182856D02*
X1183243Y1243513D01*
X1183243D02*
X1183825D01*
X1183825D02*
X1184212Y1243354D01*
X1184212D02*
X1184406Y1243195D01*
X1184600Y1242718*
Y1242081*
X1184600D02*
X1184406Y1241604D01*
X1184406D02*
X1184212Y1241445D01*
X1184212D02*
X1183825Y1241286D01*
X1183243*
X1183243D02*
X1182856Y1241445D01*
X1182468Y1241763*
X1182468D02*
X1182275Y1242240D01*
X1182275D02*
X1182081Y1242877D01*
X1181887Y1243195*
X1181887D02*
X1181500Y1243354D01*
X1181500D02*
X1181112D01*
X1181112D02*
X1180725Y1243195D01*
X1180531Y1242718*
Y1242081*
X1198031Y1232900D02*
X1202100D01*
X1198031D02*
Y1234331D01*
X1198031D02*
X1198225Y1234809D01*
X1198418Y1234968*
X1198418D02*
X1198806Y1235127D01*
X1199193*
X1199193D02*
X1199581Y1234968D01*
X1199775Y1234809*
X1199968Y1234331*
X1199968D02*
Y1232900D01*
Y1234013D02*
X1202100Y1235127D01*
X1199000Y1236718D02*
X1198806D01*
X1198418Y1236877*
X1198418D02*
X1198225Y1237036D01*
X1198031Y1237354*
X1198031D02*
Y1237990D01*
X1198031D02*
X1198225Y1238309D01*
X1198418Y1238468*
X1198418D02*
X1198806Y1238627D01*
X1199193*
X1199193D02*
X1199581Y1238468D01*
X1200162Y1238150*
X1200162D02*
X1202100Y1236559D01*
Y1238786*
X1198031Y1241172D02*
X1198225Y1240695D01*
X1198806Y1240377*
X1199775Y1240218*
X1200356*
X1201325Y1240377*
X1201906Y1240695*
X1202100Y1241172*
X1202100D02*
Y1241490D01*
X1202100D02*
X1201906Y1241968D01*
X1201325Y1242286*
X1200356Y1242445*
X1199775*
X1198806Y1242286*
X1198225Y1241968*
X1198031Y1241490*
X1198031D02*
Y1241172D01*
X1356786Y1212000D02*
X1356627Y1212387D01*
X1356627D02*
X1356309Y1212775D01*
X1355990Y1212968*
X1355990D02*
X1355354D01*
X1355354D02*
X1355036Y1212775D01*
X1354718Y1212387*
X1354718D02*
X1354559Y1212000D01*
X1354400Y1211418*
X1354400D02*
Y1210450D01*
X1354559Y1209868*
X1354559D02*
X1354718Y1209481D01*
X1355036Y1209093*
X1355036D02*
X1355354Y1208900D01*
X1355354D02*
X1355990D01*
X1355990D02*
X1356309Y1209093D01*
X1356309D02*
X1356627Y1209481D01*
X1356786Y1209868*
X1358218Y1212193D02*
X1358536Y1212387D01*
X1358536D02*
X1359013Y1212968D01*
X1359013D02*
Y1208900D01*
X1361400Y1212968D02*
X1360922Y1212775D01*
X1360922D02*
X1360604Y1212193D01*
X1360604D02*
X1360445Y1211225D01*
Y1210643*
X1360445D02*
X1360604Y1209675D01*
X1360604D02*
X1360922Y1209093D01*
X1360922D02*
X1361400Y1208900D01*
X1361718*
X1362195Y1209093*
X1362195D02*
X1362513Y1209675D01*
X1362513D02*
X1362672Y1210643D01*
X1362672D02*
Y1211225D01*
X1362672D02*
X1362513Y1212193D01*
X1362513D02*
X1362195Y1212775D01*
X1361718Y1212968*
X1361718D02*
X1361400D01*
X1372499Y1240786D02*
X1372112Y1240627D01*
X1371724Y1240309*
X1371724D02*
X1371531Y1239990D01*
X1371531D02*
Y1239354D01*
X1371531D02*
X1371724Y1239036D01*
X1371724D02*
X1372112Y1238718D01*
X1372499Y1238559*
X1372499D02*
X1373081Y1238400D01*
X1374049*
X1374049D02*
X1374631Y1238559D01*
X1375018Y1238718*
X1375018D02*
X1375406Y1239036D01*
X1375599Y1239354*
X1375599D02*
Y1239990D01*
X1375599D02*
X1375406Y1240309D01*
X1375018Y1240627*
X1375018D02*
X1374631Y1240786D01*
X1372306Y1242218D02*
X1372112Y1242536D01*
X1371531Y1243013*
X1371531D02*
X1375599D01*
X1372306Y1244445D02*
X1372112Y1244763D01*
X1372112D02*
X1371531Y1245240D01*
X1371531D02*
X1375599D01*
X1223786Y1199000D02*
X1223627Y1199387D01*
X1223627D02*
X1223309Y1199775D01*
X1222990Y1199968*
X1222990D02*
X1222354D01*
X1222354D02*
X1222036Y1199775D01*
X1221718Y1199387*
X1221718D02*
X1221559Y1199000D01*
X1221400Y1198418*
X1221400D02*
Y1197450D01*
X1221559Y1196868*
X1221559D02*
X1221718Y1196481D01*
X1222036Y1196093*
X1222036D02*
X1222354Y1195900D01*
X1222354D02*
X1222990D01*
X1222990D02*
X1223309Y1196093D01*
X1223309D02*
X1223627Y1196481D01*
X1223786Y1196868*
X1225218Y1199193D02*
X1225536Y1199387D01*
X1225536D02*
X1226013Y1199968D01*
X1226013D02*
Y1195900D01*
X1229672Y1199968D02*
X1228081Y1195900D01*
X1227445Y1199968D02*
X1229672D01*
X851500Y1210286D02*
X851112Y1210127D01*
X851112D02*
X850725Y1209809D01*
X850531Y1209490*
X850531D02*
Y1208854D01*
X850531D02*
X850725Y1208536D01*
X851112Y1208218*
X851112D02*
X851500Y1208059D01*
X852081Y1207900*
X853050*
X853631Y1208059*
X854018Y1208218*
X854018D02*
X854406Y1208536D01*
X854600Y1208854*
X854600D02*
Y1209490D01*
X854600D02*
X854406Y1209809D01*
X854018Y1210127*
X854018D02*
X853631Y1210286D01*
X851306Y1211718D02*
X851112Y1212036D01*
X851112D02*
X850531Y1212513D01*
X850531D02*
X854600D01*
X1010286Y1198500D02*
X1010127Y1198887D01*
X1010127D02*
X1009809Y1199275D01*
X1009490Y1199468*
X1009490D02*
X1008854D01*
X1008854D02*
X1008536Y1199275D01*
X1008218Y1198887*
X1008218D02*
X1008059Y1198500D01*
X1007900Y1197918*
X1007900D02*
Y1196950D01*
X1008059Y1196368*
X1008059D02*
X1008218Y1195981D01*
X1008536Y1195593*
X1008536D02*
X1008854Y1195400D01*
X1008854D02*
X1009490D01*
X1009490D02*
X1009809Y1195593D01*
X1009809D02*
X1010127Y1195981D01*
X1010286Y1196368*
X1011877Y1198500D02*
Y1198693D01*
X1011877D02*
X1012036Y1199081D01*
X1012195Y1199275*
X1012513Y1199468*
X1012513D02*
X1013150D01*
X1013150D02*
X1013468Y1199275D01*
X1013627Y1199081*
X1013786Y1198693*
X1013786D02*
Y1198306D01*
X1013627Y1197918*
X1013627D02*
X1013309Y1197337D01*
X1013309D02*
X1011718Y1195400D01*
X1013945*
X1099999Y1228286D02*
X1099612Y1228127D01*
X1099224Y1227809*
X1099224D02*
X1099031Y1227490D01*
X1099031D02*
Y1226854D01*
X1099031D02*
X1099224Y1226536D01*
X1099224D02*
X1099612Y1226218D01*
X1099999Y1226059*
X1099999D02*
X1100581Y1225900D01*
X1101549*
X1101549D02*
X1102131Y1226059D01*
X1102518Y1226218*
X1102518D02*
X1102906Y1226536D01*
X1103099Y1226854*
X1103099D02*
Y1227490D01*
X1103099D02*
X1102906Y1227809D01*
X1102518Y1228127*
X1102518D02*
X1102131Y1228286D01*
X1099031Y1231309D02*
X1101743Y1229718D01*
X1101743D02*
Y1232104D01*
X1099031Y1231309D02*
X1103099D01*
X1203500Y1146786D02*
X1203112Y1146627D01*
X1203112D02*
X1202725Y1146309D01*
X1202531Y1145990*
X1202531D02*
Y1145354D01*
X1202531D02*
X1202725Y1145036D01*
X1203112Y1144718*
X1203112D02*
X1203500Y1144559D01*
X1204081Y1144400*
X1205050*
X1205631Y1144559*
X1206018Y1144718*
X1206018D02*
X1206406Y1145036D01*
X1206600Y1145354*
X1206600D02*
Y1145990D01*
X1206600D02*
X1206406Y1146309D01*
X1206018Y1146627*
X1206018D02*
X1205631Y1146786D01*
X1202531Y1150286D02*
Y1148695D01*
X1204275Y1148536*
X1204081Y1148695*
X1203887Y1149172*
X1203887D02*
Y1149650D01*
X1203887D02*
X1204081Y1150127D01*
X1204468Y1150445*
X1204468D02*
X1205050Y1150604D01*
X1205050D02*
X1205437Y1150445D01*
X1205437D02*
X1206018Y1150286D01*
X1206018D02*
X1206406Y1149968D01*
X1206600Y1149490*
X1206600D02*
Y1149013D01*
X1206600D02*
X1206406Y1148536D01*
X1206212Y1148377*
X1206212D02*
X1205825Y1148218D01*
X1203500Y1161786D02*
X1203112Y1161627D01*
X1203112D02*
X1202725Y1161309D01*
X1202531Y1160990*
X1202531D02*
Y1160354D01*
X1202531D02*
X1202725Y1160036D01*
X1203112Y1159718*
X1203112D02*
X1203500Y1159559D01*
X1204081Y1159400*
X1205050*
X1205631Y1159559*
X1206018Y1159718*
X1206018D02*
X1206406Y1160036D01*
X1206600Y1160354*
X1206600D02*
Y1160990D01*
X1206600D02*
X1206406Y1161309D01*
X1206018Y1161627*
X1206018D02*
X1205631Y1161786D01*
X1203112Y1165127D02*
X1202725Y1164968D01*
X1202531Y1164490*
X1202531D02*
Y1164172D01*
X1202531D02*
X1202725Y1163695D01*
X1203306Y1163377*
X1204275Y1163218*
X1205243*
X1205243D02*
X1206018Y1163377D01*
X1206018D02*
X1206406Y1163695D01*
X1206600Y1164172*
X1206600D02*
Y1164331D01*
X1206600D02*
X1206406Y1164809D01*
X1206018Y1165127*
X1206018D02*
X1205437Y1165286D01*
X1205437D02*
X1205243D01*
X1205243D02*
X1204662Y1165127D01*
X1204662D02*
X1204275Y1164809D01*
X1204081Y1164331*
X1204081D02*
Y1164172D01*
X1204081D02*
X1204275Y1163695D01*
X1204662Y1163377*
X1204662D02*
X1205243Y1163218D01*
X956286Y1198000D02*
X956127Y1198387D01*
X956127D02*
X955809Y1198775D01*
X955490Y1198968*
X955490D02*
X954854D01*
X954854D02*
X954536Y1198775D01*
X954218Y1198387*
X954218D02*
X954059Y1198000D01*
X953900Y1197418*
X953900D02*
Y1196450D01*
X954059Y1195868*
X954059D02*
X954218Y1195481D01*
X954536Y1195093*
X954536D02*
X954854Y1194900D01*
X954854D02*
X955490D01*
X955490D02*
X955809Y1195093D01*
X955809D02*
X956127Y1195481D01*
X956286Y1195868*
X958513Y1198968D02*
X958036Y1198775D01*
X957877Y1198387*
X957877D02*
Y1198000D01*
X958036Y1197612*
X958036D02*
X958354Y1197418D01*
X958354D02*
X958990Y1197225D01*
X958990D02*
X959468Y1197031D01*
X959786Y1196643*
X959786D02*
X959945Y1196256D01*
Y1195675*
X959786Y1195287*
X959786D02*
X959627Y1195093D01*
X959627D02*
X959150Y1194900D01*
X958513*
X958513D02*
X958036Y1195093D01*
X958036D02*
X957877Y1195287D01*
X957877D02*
X957718Y1195675D01*
Y1196256*
X957877Y1196643*
X957877D02*
X958195Y1197031D01*
X958672Y1197225*
X958672D02*
X959309Y1197418D01*
X959309D02*
X959627Y1197612D01*
X959627D02*
X959786Y1198000D01*
Y1198387*
X959786D02*
X959627Y1198775D01*
X959150Y1198968*
X959150D02*
X958513D01*
X1203500Y1176786D02*
X1203112Y1176627D01*
X1203112D02*
X1202725Y1176309D01*
X1202531Y1175990*
X1202531D02*
Y1175354D01*
X1202531D02*
X1202725Y1175036D01*
X1203112Y1174718*
X1203112D02*
X1203500Y1174559D01*
X1204081Y1174400*
X1205050*
X1205631Y1174559*
X1206018Y1174718*
X1206018D02*
X1206406Y1175036D01*
X1206600Y1175354*
X1206600D02*
Y1175990D01*
X1206600D02*
X1206406Y1176309D01*
X1206018Y1176627*
X1206018D02*
X1205631Y1176786D01*
X1203887Y1180286D02*
X1204468Y1180127D01*
X1204468D02*
X1204856Y1179809D01*
X1205050Y1179331*
X1205050D02*
Y1179172D01*
X1205050D02*
X1204856Y1178695D01*
X1204468Y1178377*
X1204468D02*
X1203887Y1178218D01*
X1203887D02*
X1203693D01*
X1203693D02*
X1203112Y1178377D01*
X1203112D02*
X1202725Y1178695D01*
X1202531Y1179172*
X1202531D02*
Y1179331D01*
X1202531D02*
X1202725Y1179809D01*
X1203112Y1180127*
X1203112D02*
X1203887Y1180286D01*
X1203887D02*
X1204856D01*
X1205825Y1180127*
X1206406Y1179809*
X1206600Y1179331*
X1206600D02*
Y1179013D01*
X1206600D02*
X1206406Y1178536D01*
X1206018Y1178377*
X1390500Y1221286D02*
X1390112Y1221127D01*
X1390112D02*
X1389725Y1220809D01*
X1389531Y1220490*
X1389531D02*
Y1219854D01*
X1389531D02*
X1389725Y1219536D01*
X1390112Y1219218*
X1390112D02*
X1390500Y1219059D01*
X1391081Y1218900*
X1392050*
X1392631Y1219059*
X1393018Y1219218*
X1393018D02*
X1393406Y1219536D01*
X1393600Y1219854*
X1393600D02*
Y1220490D01*
X1393600D02*
X1393406Y1220809D01*
X1393018Y1221127*
X1393018D02*
X1392631Y1221286D01*
X1390306Y1222718D02*
X1390112Y1223036D01*
X1390112D02*
X1389531Y1223513D01*
X1389531D02*
X1393600D01*
X1390500Y1225104D02*
X1390306D01*
X1390306D02*
X1389918Y1225263D01*
X1389918D02*
X1389725Y1225422D01*
X1389725D02*
X1389531Y1225740D01*
X1389531D02*
Y1226377D01*
X1389725Y1226695*
X1389918Y1226854*
X1389918D02*
X1390306Y1227013D01*
X1390306D02*
X1390693D01*
X1390693D02*
X1391081Y1226854D01*
X1391081D02*
X1391662Y1226536D01*
X1391662D02*
X1393600Y1224945D01*
Y1227172*
X1203786Y1060000D02*
X1203627Y1060387D01*
X1203627D02*
X1203309Y1060775D01*
X1202990Y1060968*
X1202990D02*
X1202354D01*
X1202354D02*
X1202036Y1060775D01*
X1201718Y1060387*
X1201718D02*
X1201559Y1060000D01*
X1201400Y1059418*
X1201400D02*
Y1058450D01*
X1201559Y1057868*
X1201559D02*
X1201718Y1057481D01*
X1202036Y1057093*
X1202036D02*
X1202354Y1056900D01*
X1202354D02*
X1202990D01*
X1202990D02*
X1203309Y1057093D01*
X1203309D02*
X1203627Y1057481D01*
X1203786Y1057868*
X1205218Y1060193D02*
X1205536Y1060387D01*
X1205536D02*
X1206013Y1060968D01*
X1206013D02*
Y1056900D01*
X1207763Y1060968D02*
X1209513D01*
X1209513D02*
X1208559Y1059418D01*
X1208559D02*
X1209036D01*
X1209036D02*
X1209354Y1059225D01*
X1209354D02*
X1209513Y1059031D01*
X1209513D02*
X1209672Y1058450D01*
X1209672D02*
Y1058062D01*
X1209672D02*
X1209513Y1057481D01*
X1209513D02*
X1209195Y1057093D01*
X1209195D02*
X1208718Y1056900D01*
X1208240*
X1208240D02*
X1207763Y1057093D01*
X1207763D02*
X1207604Y1057287D01*
X1207604D02*
X1207445Y1057675D01*
X1225286Y1089000D02*
X1225127Y1089387D01*
X1225127D02*
X1224809Y1089775D01*
X1224490Y1089968*
X1224490D02*
X1223854D01*
X1223854D02*
X1223536Y1089775D01*
X1223218Y1089387*
X1223218D02*
X1223059Y1089000D01*
X1222900Y1088418*
X1222900D02*
Y1087450D01*
X1223059Y1086868*
X1223059D02*
X1223218Y1086481D01*
X1223536Y1086093*
X1223536D02*
X1223854Y1085900D01*
X1223854D02*
X1224490D01*
X1224490D02*
X1224809Y1086093D01*
X1224809D02*
X1225127Y1086481D01*
X1225286Y1086868*
X1226718Y1089193D02*
X1227036Y1089387D01*
X1227036D02*
X1227513Y1089968D01*
X1227513D02*
Y1085900D01*
X1230536Y1089968D02*
X1228945Y1087256D01*
X1231331*
X1230536Y1089968D02*
Y1085900D01*
X1247786Y1163500D02*
X1247627Y1163887D01*
X1247627D02*
X1247309Y1164275D01*
X1246990Y1164468*
X1246990D02*
X1246354D01*
X1246354D02*
X1246036Y1164275D01*
X1245718Y1163887*
X1245718D02*
X1245559Y1163500D01*
X1245400Y1162918*
X1245400D02*
Y1161950D01*
X1245559Y1161368*
X1245559D02*
X1245718Y1160981D01*
X1246036Y1160593*
X1246036D02*
X1246354Y1160400D01*
X1246354D02*
X1246990D01*
X1246990D02*
X1247309Y1160593D01*
X1247309D02*
X1247627Y1160981D01*
X1247786Y1161368*
X1249218Y1163693D02*
X1249536Y1163887D01*
X1249536D02*
X1250013Y1164468D01*
X1250013D02*
Y1160400D01*
X1253354Y1163887D02*
X1253195Y1164275D01*
X1252718Y1164468*
X1252718D02*
X1252400D01*
X1252400D02*
X1251922Y1164275D01*
X1251922D02*
X1251604Y1163693D01*
X1251604D02*
X1251445Y1162725D01*
Y1161756*
X1251604Y1160981*
X1251604D02*
X1251922Y1160593D01*
X1251922D02*
X1252400Y1160400D01*
X1252559*
X1253036Y1160593*
X1253036D02*
X1253354Y1160981D01*
X1253354D02*
X1253513Y1161562D01*
X1253513D02*
Y1161756D01*
X1253513D02*
X1253354Y1162337D01*
X1253354D02*
X1253036Y1162725D01*
X1252559Y1162918*
X1252559D02*
X1252400D01*
X1252400D02*
X1251922Y1162725D01*
X1251922D02*
X1251604Y1162337D01*
X1251604D02*
X1251445Y1161756D01*
X1238000Y1063786D02*
X1237612Y1063627D01*
X1237612D02*
X1237225Y1063309D01*
X1237031Y1062990*
X1237031D02*
Y1062354D01*
X1237031D02*
X1237225Y1062036D01*
X1237612Y1061718*
X1237612D02*
X1238000Y1061559D01*
X1238581Y1061400*
X1239550*
X1240131Y1061559*
X1240518Y1061718*
X1240518D02*
X1240906Y1062036D01*
X1241100Y1062354*
X1241100D02*
Y1062990D01*
X1241100D02*
X1240906Y1063309D01*
X1240518Y1063627*
X1240518D02*
X1240131Y1063786D01*
X1237806Y1065218D02*
X1237612Y1065536D01*
X1237612D02*
X1237031Y1066013D01*
X1237031D02*
X1241100D01*
X1237031Y1069513D02*
Y1067922D01*
X1237031D02*
X1238775Y1067763D01*
X1238775D02*
X1238581Y1067922D01*
X1238581D02*
X1238387Y1068400D01*
X1238387D02*
Y1068877D01*
X1238387D02*
X1238581Y1069354D01*
X1238581D02*
X1238968Y1069672D01*
X1238968D02*
X1239550Y1069831D01*
X1239550D02*
X1239937Y1069672D01*
X1239937D02*
X1240518Y1069513D01*
X1240518D02*
X1240906Y1069195D01*
X1241100Y1068718*
Y1068240*
X1241100D02*
X1240906Y1067763D01*
X1240906D02*
X1240712Y1067604D01*
X1240712D02*
X1240325Y1067445D01*
X1169031Y1133399D02*
X1173100D01*
X1169031D02*
Y1134831D01*
X1169031D02*
X1169225Y1135309D01*
X1169418Y1135468*
X1169418D02*
X1169806Y1135627D01*
X1170193*
X1170193D02*
X1170581Y1135468D01*
X1170775Y1135309*
X1170968Y1134831*
X1170968D02*
Y1133399D01*
Y1134513D02*
X1173100Y1135627D01*
X1169031Y1137377D02*
Y1139127D01*
X1170581Y1138172*
X1170581D02*
Y1138649D01*
X1170581D02*
X1170775Y1138968D01*
X1170968Y1139127*
X1170968D02*
X1171550Y1139286D01*
X1171937*
X1171937D02*
X1172518Y1139127D01*
X1172518D02*
X1172906Y1138809D01*
X1173100Y1138331*
X1173100D02*
Y1137854D01*
X1173100D02*
X1172906Y1137377D01*
X1172712Y1137218*
X1172712D02*
X1172325Y1137059D01*
X1169031Y1148399D02*
X1173100D01*
X1169031D02*
Y1149831D01*
X1169031D02*
X1169225Y1150309D01*
X1169418Y1150468*
X1169418D02*
X1169806Y1150627D01*
X1170193*
X1170193D02*
X1170581Y1150468D01*
X1170775Y1150309*
X1170968Y1149831*
X1170968D02*
Y1148399D01*
Y1149513D02*
X1173100Y1150627D01*
X1169031Y1154127D02*
Y1152536D01*
X1170775Y1152377*
X1170581Y1152536*
X1170387Y1153013*
X1170387D02*
Y1153490D01*
X1170387D02*
X1170581Y1153968D01*
X1170968Y1154286*
X1170968D02*
X1171550Y1154445D01*
X1171937Y1154286*
X1171937D02*
X1172518Y1154127D01*
X1172518D02*
X1172906Y1153809D01*
X1173100Y1153331*
X1173100D02*
Y1152854D01*
X1173100D02*
X1172906Y1152377D01*
X1172712Y1152218*
X1172712D02*
X1172325Y1152059D01*
X1169031Y1163399D02*
X1173100D01*
X1169031D02*
Y1164831D01*
X1169031D02*
X1169225Y1165309D01*
X1169418Y1165468*
X1169418D02*
X1169806Y1165627D01*
X1170193*
X1170193D02*
X1170581Y1165468D01*
X1170775Y1165309*
X1170968Y1164831*
X1170968D02*
Y1163399D01*
Y1164513D02*
X1173100Y1165627D01*
X1169031Y1169286D02*
X1173100Y1167695D01*
X1169031Y1167059D02*
Y1169286D01*
Y1178399D02*
X1173100D01*
X1169031D02*
Y1179831D01*
X1169031D02*
X1169225Y1180309D01*
X1169418Y1180468*
X1169418D02*
X1169806Y1180627D01*
X1170193*
X1170193D02*
X1170581Y1180468D01*
X1170775Y1180309*
X1170968Y1179831*
X1170968D02*
Y1178399D01*
Y1179513D02*
X1173100Y1180627D01*
X1170387Y1184127D02*
X1170968Y1183968D01*
X1170968D02*
X1171356Y1183649D01*
X1171356D02*
X1171550Y1183172D01*
X1171550D02*
Y1183013D01*
X1171550D02*
X1171356Y1182536D01*
X1170968Y1182218*
X1170968D02*
X1170387Y1182059D01*
X1170387D02*
X1170193D01*
X1170193D02*
X1169612Y1182218D01*
X1169612D02*
X1169225Y1182536D01*
X1169031Y1183013*
X1169031D02*
Y1183172D01*
X1169031D02*
X1169225Y1183649D01*
X1169225D02*
X1169612Y1183968D01*
X1169612D02*
X1170387Y1184127D01*
X1170387D02*
X1171356D01*
X1172325Y1183968*
X1172906Y1183649*
X1172906D02*
X1173100Y1183172D01*
X1173100D02*
Y1182854D01*
X1173100D02*
X1172906Y1182377D01*
X1172518Y1182218*
X1173400Y1211968D02*
Y1207900D01*
Y1211968D02*
X1174831D01*
X1174831D02*
X1175309Y1211775D01*
X1175468Y1211581*
X1175627Y1211193*
X1175627D02*
Y1210806D01*
X1175468Y1210418*
X1175468D02*
X1175309Y1210225D01*
X1174831Y1210031*
X1174831D02*
X1173400D01*
X1174513D02*
X1175627Y1207900D01*
X1177059Y1211193D02*
X1177377Y1211387D01*
X1177377D02*
X1177854Y1211968D01*
X1177854D02*
Y1207900D01*
X1179445Y1211000D02*
Y1211193D01*
X1179445D02*
X1179604Y1211581D01*
X1179604D02*
X1179763Y1211775D01*
X1179763D02*
X1180081Y1211968D01*
X1180081D02*
X1180718D01*
X1180718D02*
X1181036Y1211775D01*
X1181195Y1211581*
X1181354Y1211193*
X1181354D02*
Y1210806D01*
X1181354D02*
X1181195Y1210418D01*
X1181195D02*
X1180877Y1209837D01*
X1180877D02*
X1179286Y1207900D01*
X1181513*
X1129900Y1213468D02*
Y1209400D01*
Y1213468D02*
X1131331D01*
X1131331D02*
X1131809Y1213275D01*
X1131968Y1213081*
X1132127Y1212693*
X1132127D02*
Y1212306D01*
X1131968Y1211918*
X1131968D02*
X1131809Y1211725D01*
X1131331Y1211531*
X1131331D02*
X1129900D01*
X1131013D02*
X1132127Y1209400D01*
X1133559Y1212693D02*
X1133877Y1212887D01*
X1133877D02*
X1134354Y1213468D01*
X1134354D02*
Y1209400D01*
X1136104Y1213468D02*
X1137854D01*
X1137854D02*
X1136900Y1211918D01*
X1136900D02*
X1137377D01*
X1137377D02*
X1137695Y1211725D01*
X1137854Y1211531*
X1137854D02*
X1138013Y1210950D01*
X1138013D02*
Y1210562D01*
X1138013D02*
X1137854Y1209981D01*
X1137854D02*
X1137536Y1209593D01*
X1137536D02*
X1137059Y1209400D01*
X1136581*
X1136581D02*
X1136104Y1209593D01*
X1136104D02*
X1135945Y1209787D01*
X1135945D02*
X1135786Y1210175D01*
X1343031Y1215400D02*
X1347100D01*
X1343031D02*
Y1216831D01*
X1343031D02*
X1343225Y1217309D01*
X1343418Y1217468*
X1343418D02*
X1343806Y1217627D01*
X1344193*
X1344193D02*
X1344581Y1217468D01*
X1344775Y1217309*
X1344968Y1216831*
X1344968D02*
Y1215400D01*
Y1216513D02*
X1347100Y1217627D01*
X1343806Y1219059D02*
X1343612Y1219377D01*
X1343612D02*
X1343031Y1219854D01*
X1343031D02*
X1347100D01*
X1343031Y1222877D02*
X1345743Y1221286D01*
X1345743D02*
Y1223672D01*
X1343031Y1222877D02*
X1347100D01*
X1353900Y1196468D02*
Y1192400D01*
Y1196468D02*
X1355331D01*
X1355331D02*
X1355809Y1196275D01*
X1355968Y1196081*
X1356127Y1195693*
X1356127D02*
Y1195306D01*
X1355968Y1194918*
X1355968D02*
X1355809Y1194725D01*
X1355331Y1194531*
X1355331D02*
X1353900D01*
X1355013D02*
X1356127Y1192400D01*
X1357559Y1195693D02*
X1357877Y1195887D01*
X1357877D02*
X1358354Y1196468D01*
X1358354D02*
Y1192400D01*
X1361854Y1196468D02*
X1360263D01*
X1360263D02*
X1360104Y1194725D01*
X1360104D02*
X1360263Y1194918D01*
X1360263D02*
X1360740Y1195112D01*
X1360740D02*
X1361218D01*
X1361218D02*
X1361695Y1194918D01*
X1361695D02*
X1362013Y1194531D01*
X1362013D02*
X1362172Y1193950D01*
X1362172D02*
X1362013Y1193562D01*
X1362013D02*
X1361854Y1192981D01*
X1361854D02*
X1361536Y1192593D01*
X1361536D02*
X1361059Y1192400D01*
X1360581*
X1360581D02*
X1360104Y1192593D01*
X1360104D02*
X1359945Y1192787D01*
X1359945D02*
X1359786Y1193175D01*
X1353900Y1204968D02*
Y1200900D01*
Y1204968D02*
X1355331D01*
X1355331D02*
X1355809Y1204775D01*
X1355968Y1204581*
X1356127Y1204193*
X1356127D02*
Y1203806D01*
X1355968Y1203418*
X1355968D02*
X1355809Y1203225D01*
X1355331Y1203031*
X1355331D02*
X1353900D01*
X1355013D02*
X1356127Y1200900D01*
X1357559Y1204193D02*
X1357877Y1204387D01*
X1357877D02*
X1358354Y1204968D01*
X1358354D02*
Y1200900D01*
X1361695Y1204387D02*
X1361536Y1204775D01*
X1361059Y1204968*
X1361059D02*
X1360740D01*
X1360740D02*
X1360263Y1204775D01*
X1360263D02*
X1359945Y1204193D01*
X1359945D02*
X1359786Y1203225D01*
Y1202256*
X1359945Y1201481*
X1360263Y1201093*
X1360263D02*
X1360740Y1200900D01*
X1360740D02*
X1360900D01*
X1361377Y1201093*
X1361377D02*
X1361695Y1201481D01*
X1361854Y1202062*
X1361854D02*
Y1202256D01*
X1361854D02*
X1361695Y1202837D01*
X1361695D02*
X1361377Y1203225D01*
X1360900Y1203418*
X1360900D02*
X1360740D01*
X1360740D02*
X1360263Y1203225D01*
X1360263D02*
X1359945Y1202837D01*
X1359945D02*
X1359786Y1202256D01*
X1339531Y1229400D02*
X1343600D01*
X1339531D02*
Y1230831D01*
X1339531D02*
X1339725Y1231309D01*
X1339918Y1231468*
X1339918D02*
X1340306Y1231627D01*
X1340693*
X1340693D02*
X1341081Y1231468D01*
X1341275Y1231309*
X1341468Y1230831*
X1341468D02*
Y1229400D01*
Y1230513D02*
X1343600Y1231627D01*
X1340306Y1233059D02*
X1340112Y1233377D01*
X1340112D02*
X1339531Y1233854D01*
X1339531D02*
X1343600D01*
X1339531Y1237513D02*
X1343600Y1235922D01*
X1339531Y1235286D02*
Y1237513D01*
X1343031Y1244900D02*
X1347100D01*
X1343031D02*
Y1246331D01*
X1343031D02*
X1343225Y1246809D01*
X1343418Y1246968*
X1343418D02*
X1343806Y1247127D01*
X1344193*
X1344193D02*
X1344581Y1246968D01*
X1344775Y1246809*
X1344968Y1246331*
X1344968D02*
Y1244900D01*
Y1246013D02*
X1347100Y1247127D01*
X1343806Y1248559D02*
X1343612Y1248877D01*
X1343612D02*
X1343031Y1249354D01*
X1343031D02*
X1347100D01*
X1344387Y1252854D02*
X1344968Y1252695D01*
X1344968D02*
X1345356Y1252377D01*
X1345550Y1251900*
Y1251740*
X1345550D02*
X1345356Y1251263D01*
X1345356D02*
X1344968Y1250945D01*
X1344968D02*
X1344387Y1250786D01*
X1344387D02*
X1344193D01*
X1344193D02*
X1343612Y1250945D01*
X1343612D02*
X1343225Y1251263D01*
X1343225D02*
X1343031Y1251740D01*
X1343031D02*
Y1251900D01*
X1343225Y1252377*
X1343612Y1252695*
X1343612D02*
X1344387Y1252854D01*
X1344387D02*
X1345356D01*
X1345356D02*
X1346325Y1252695D01*
X1346906Y1252377*
X1347100Y1251900*
Y1251581*
X1347100D02*
X1346906Y1251104D01*
X1346906D02*
X1346518Y1250945D01*
X1212672Y1206437D02*
Y1201837D01*
X1212672D02*
X1212445Y1200975D01*
X1212218Y1200687*
X1212218D02*
X1211763Y1200400D01*
X1211763D02*
X1211309D01*
X1210854Y1200687*
X1210854D02*
X1210627Y1200975D01*
X1210400Y1201837*
X1210400D02*
Y1202412D01*
X1217672Y1204425D02*
X1217445Y1203562D01*
X1217445D02*
X1216990Y1202987D01*
X1216990D02*
X1216309Y1202700D01*
X1216081*
X1216081D02*
X1215400Y1202987D01*
X1215400D02*
X1214945Y1203562D01*
X1214945D02*
X1214718Y1204425D01*
Y1204712*
X1214718D02*
X1214945Y1205575D01*
X1215400Y1206150*
X1216081Y1206437*
X1216081D02*
X1216309D01*
X1216309D02*
X1216990Y1206150D01*
X1216990D02*
X1217445Y1205575D01*
X1217672Y1204425*
X1217672D02*
Y1202987D01*
X1217672D02*
X1217445Y1201550D01*
X1216990Y1200687*
X1216990D02*
X1216309Y1200400D01*
X1215854*
X1215854D02*
X1215172Y1200687D01*
X1215172D02*
X1214945Y1201262D01*
X1204900Y1069968D02*
Y1067062D01*
X1205059Y1066481*
X1205377Y1066093*
X1205377D02*
X1205854Y1065899D01*
X1205854D02*
X1206172D01*
X1206172D02*
X1206650Y1066093D01*
X1206650D02*
X1206968Y1066481D01*
X1207127Y1067062*
Y1069968*
X1210627D02*
X1209036D01*
X1209036D02*
X1208877Y1068224D01*
X1208877D02*
X1209036Y1068418D01*
X1209036D02*
X1209513Y1068612D01*
X1209513D02*
X1209990D01*
X1209990D02*
X1210468Y1068418D01*
X1210468D02*
X1210786Y1068031D01*
X1210945Y1067449*
X1210945D02*
X1210786Y1067062D01*
X1210627Y1066481*
X1210309Y1066093*
X1210309D02*
X1209831Y1065899D01*
X1209831D02*
X1209354D01*
X1209354D02*
X1208877Y1066093D01*
X1208877D02*
X1208718Y1066287D01*
X1208559Y1066674*
X1360400Y1244468D02*
Y1241562D01*
X1360400D02*
X1360559Y1240981D01*
X1360877Y1240593*
X1360877D02*
X1361354Y1240400D01*
X1361354D02*
X1361672D01*
X1361672D02*
X1362150Y1240593D01*
X1362150D02*
X1362468Y1240981D01*
X1362627Y1241562*
X1362627D02*
Y1244468D01*
X1365650D02*
X1364059Y1241756D01*
X1366445*
X1365650Y1244468D02*
Y1240400D01*
X885531Y1237900D02*
X889599D01*
X889599D02*
Y1239809D01*
X886306Y1241240D02*
X886112Y1241559D01*
X885531Y1242036*
X889599*
X1062900Y1199468D02*
Y1195400D01*
X1064809*
X1066400Y1198500D02*
Y1198693D01*
X1066400D02*
X1066559Y1199081D01*
X1066718Y1199275*
X1067036Y1199468*
X1067036D02*
X1067672D01*
X1067672D02*
X1067990Y1199275D01*
X1067990D02*
X1068150Y1199081D01*
X1068309Y1198693*
X1068309D02*
Y1198306D01*
X1068150Y1197918*
X1068150D02*
X1067831Y1197337D01*
X1067831D02*
X1066240Y1195400D01*
X1066240D02*
X1068468D01*
X1100531Y1185400D02*
X1104600D01*
Y1187309*
X1100531Y1189059D02*
Y1190809D01*
X1102081Y1189854*
X1102081D02*
Y1190331D01*
X1102081D02*
X1102275Y1190650D01*
X1102468Y1190809*
X1102468D02*
X1103050Y1190968D01*
X1103437*
X1103437D02*
X1104018Y1190809D01*
X1104018D02*
X1104406Y1190490D01*
X1104406D02*
X1104600Y1190013D01*
X1104600D02*
Y1189536D01*
X1104406Y1189059*
X1104212Y1188900*
X1104212D02*
X1103825Y1188740D01*
X840172Y856437D02*
Y851837D01*
X840172D02*
X839945Y850975D01*
X839718Y850687*
X839718D02*
X839263Y850400D01*
X839263D02*
X838809D01*
X838354Y850687*
X838354D02*
X838127Y850975D01*
X837900Y851837*
X837900D02*
Y852412D01*
X842672Y856437D02*
X845172D01*
X845172D02*
X843809Y854137D01*
X843809D02*
X844490D01*
X844490D02*
X844945Y853850D01*
X845172Y853562*
X845172D02*
X845400Y852700D01*
Y852125*
X845172Y851262*
X845172D02*
X844718Y850687D01*
X844718D02*
X844036Y850400D01*
X843354*
X843354D02*
X842672Y850687D01*
X842672D02*
X842445Y850975D01*
X842218Y851550*
X1080172Y1261437D02*
Y1256837D01*
X1080172D02*
X1079945Y1255975D01*
X1079718Y1255687*
X1079718D02*
X1079263Y1255400D01*
X1079263D02*
X1078809D01*
X1078354Y1255687*
X1078354D02*
X1078127Y1255975D01*
X1077900Y1256837*
X1077900D02*
Y1257412D01*
X1085172Y1261437D02*
X1082900D01*
X1082900D02*
X1082672Y1258850D01*
X1082672D02*
X1082900Y1259137D01*
X1082900D02*
X1083581Y1259425D01*
X1083581D02*
X1084263D01*
X1084263D02*
X1084945Y1259137D01*
X1084945D02*
X1085400Y1258562D01*
X1085400D02*
X1085627Y1257700D01*
X1085400Y1257125*
X1085172Y1256262*
X1085172D02*
X1084718Y1255687D01*
X1084718D02*
X1084036Y1255400D01*
X1083354*
X1083354D02*
X1082672Y1255687D01*
X1082672D02*
X1082445Y1255975D01*
X1082218Y1256550*
X857672Y828937D02*
Y824337D01*
X857672D02*
X857445Y823475D01*
X857218Y823187*
X857218D02*
X856763Y822900D01*
X856763D02*
X856309D01*
X855854Y823187*
X855854D02*
X855627Y823475D01*
X855400Y824337*
X855400D02*
Y824912D01*
X859718Y827787D02*
X860172Y828075D01*
X860172D02*
X860854Y828937D01*
X860854D02*
Y822900D01*
X1402172Y1148937D02*
Y1144337D01*
X1402172D02*
X1401945Y1143475D01*
X1401718Y1143187*
X1401718D02*
X1401263Y1142900D01*
X1401263D02*
X1400809D01*
X1400354Y1143187*
X1400354D02*
X1400127Y1143475D01*
X1399900Y1144337*
X1399900D02*
Y1144912D01*
X1406945Y1148075D02*
X1406718Y1148650D01*
X1406036Y1148937*
X1406036D02*
X1405581D01*
X1405581D02*
X1404900Y1148650D01*
X1404445Y1147787*
X1404445D02*
X1404218Y1146350D01*
Y1144912*
X1404218D02*
X1404445Y1143762D01*
X1404445D02*
X1404900Y1143187D01*
X1404900D02*
X1405581Y1142900D01*
X1405581D02*
X1405809D01*
X1406490Y1143187*
X1406490D02*
X1406945Y1143762D01*
X1406945D02*
X1407172Y1144625D01*
X1407172D02*
Y1144912D01*
X1407172D02*
X1406945Y1145775D01*
X1406490Y1146350*
X1406490D02*
X1405809Y1146637D01*
X1405809D02*
X1405581D01*
X1405581D02*
X1404900Y1146350D01*
X1404445Y1145775*
X1404218Y1144912*
X1102672Y1241437D02*
Y1236837D01*
X1102672D02*
X1102445Y1235974D01*
X1102445D02*
X1102218Y1235687D01*
X1101763Y1235399*
X1101763D02*
X1101309D01*
X1101309D02*
X1100854Y1235687D01*
X1100854D02*
X1100627Y1235974D01*
X1100627D02*
X1100400Y1236837D01*
Y1237412*
X1107900Y1241437D02*
X1105627Y1235399D01*
X1104718Y1241437D02*
X1107900D01*
X865172Y1263937D02*
Y1259337D01*
X865172D02*
X864945Y1258475D01*
X864718Y1258187*
X864718D02*
X864263Y1257900D01*
X864263D02*
X863809D01*
X863354Y1258187*
X863354D02*
X863127Y1258475D01*
X862900Y1259337*
X862900D02*
Y1259912D01*
X869490Y1263937D02*
X867218Y1259912D01*
X867218D02*
X870627D01*
X869490Y1263937D02*
Y1257900D01*
X1207900Y843937D02*
Y839625D01*
X1208127Y838762*
X1208127D02*
X1208581Y838187D01*
X1208581D02*
X1209263Y837900D01*
X1209263D02*
X1209718D01*
X1210400Y838187*
X1210400D02*
X1210854Y838762D01*
X1210854D02*
X1211081Y839625D01*
X1211081D02*
Y843937D01*
X1213127Y842787D02*
X1213581Y843075D01*
X1213581D02*
X1214263Y843937D01*
X1214263D02*
Y837900D01*
X987900Y843937D02*
Y839625D01*
X988127Y838762*
X988127D02*
X988581Y838187D01*
X988581D02*
X989263Y837900D01*
X989263D02*
X989718D01*
X990400Y838187*
X990400D02*
X990854Y838762D01*
X990854D02*
X991081Y839625D01*
X991081D02*
Y843937D01*
X993354Y842500D02*
Y842787D01*
X993354D02*
X993581Y843362D01*
X993581D02*
X993809Y843650D01*
X994263Y843937*
X994263D02*
X995172D01*
X995172D02*
X995627Y843650D01*
X995854Y843362*
X995854D02*
X996081Y842787D01*
X996081D02*
Y842212D01*
X996081D02*
X995854Y841637D01*
X995854D02*
X995400Y840775D01*
X993127Y837900*
X996309*
X1265400Y823937D02*
Y817900D01*
Y823937D02*
X1267445D01*
X1267445D02*
X1268127Y823650D01*
X1268354Y823362*
X1268354D02*
X1268581Y822787D01*
X1268581D02*
Y821925D01*
X1268581D02*
X1268354Y821350D01*
X1268354D02*
X1268127Y821062D01*
X1268127D02*
X1267445Y820775D01*
X1265400*
X1274036Y822500D02*
X1273809Y823075D01*
X1273354Y823650*
X1273354D02*
X1272900Y823937D01*
X1272900D02*
X1271990D01*
X1271990D02*
X1271536Y823650D01*
X1271081Y823075*
X1271081D02*
X1270854Y822500D01*
X1270854D02*
X1270627Y821637D01*
X1270627D02*
Y820200D01*
X1270854Y819337*
X1270854D02*
X1271081Y818762D01*
X1271081D02*
X1271536Y818187D01*
X1271536D02*
X1271990Y817900D01*
X1271990D02*
X1272900D01*
X1273354Y818187*
X1273354D02*
X1273809Y818762D01*
X1273809D02*
X1274036Y819337D01*
X1276081Y823937D02*
Y817900D01*
Y823937D02*
X1278127D01*
X1278127D02*
X1278809Y823650D01*
X1279036Y823362*
X1279036D02*
X1279263Y822787D01*
X1279263D02*
Y822212D01*
X1279263D02*
X1279036Y821637D01*
X1279036D02*
X1278809Y821350D01*
X1278127Y821062*
X1276081D02*
X1278127D01*
X1278127D02*
X1278809Y820775D01*
X1279036Y820487*
X1279036D02*
X1279263Y819912D01*
X1279263D02*
Y819050D01*
X1279263D02*
X1279036Y818475D01*
X1278809Y818187*
X1278809D02*
X1278127Y817900D01*
X1276081*
X1281536Y821925D02*
X1281309Y821637D01*
X1281309D02*
X1281536Y821350D01*
X1281763Y821637*
X1281763D02*
X1281536Y821925D01*
Y818475D02*
X1281309Y818187D01*
X1281309D02*
X1281536Y817900D01*
X1281763Y818187*
X1281763D02*
X1281536Y818475D01*
X1289490Y823937D02*
X1291990D01*
X1291990D02*
X1290627Y821637D01*
X1290627D02*
X1291309D01*
X1291309D02*
X1291763Y821350D01*
X1291763D02*
X1291990Y821062D01*
X1291990D02*
X1292218Y820200D01*
Y819625*
X1291990Y818762*
X1291990D02*
X1291536Y818187D01*
X1291536D02*
X1290854Y817900D01*
X1290854D02*
X1290172D01*
X1290172D02*
X1289490Y818187D01*
X1289490D02*
X1289263Y818475D01*
X1289263D02*
X1289036Y819050D01*
X1294263Y822787D02*
X1294718Y823075D01*
X1295400Y823937*
X1295400D02*
Y817900D01*
X1297445Y820487D02*
X1301536D01*
X1304945Y823937D02*
X1304263Y823650D01*
X1304263D02*
X1303809Y822787D01*
X1303809D02*
X1303581Y821350D01*
X1303581D02*
Y820487D01*
X1303581D02*
X1303809Y819050D01*
X1304263Y818187*
X1304263D02*
X1304945Y817900D01*
X1305400*
X1306081Y818187*
X1306081D02*
X1306536Y819050D01*
X1306763Y820487*
X1306763D02*
Y821350D01*
X1306763D02*
X1306536Y822787D01*
X1306536D02*
X1306081Y823650D01*
X1306081D02*
X1305400Y823937D01*
X1305400D02*
X1304945D01*
X1310172D02*
X1309490Y823650D01*
X1309490D02*
X1309036Y822787D01*
X1309036D02*
X1308809Y821350D01*
Y820487*
X1308809D02*
X1309036Y819050D01*
X1309490Y818187*
X1309490D02*
X1310172Y817900D01*
X1310172D02*
X1310627D01*
X1311309Y818187*
X1311309D02*
X1311763Y819050D01*
X1311763D02*
X1311990Y820487D01*
X1311990D02*
Y821350D01*
X1311990D02*
X1311763Y822787D01*
X1311763D02*
X1311309Y823650D01*
X1310627Y823937*
X1310627D02*
X1310172D01*
X1315400D02*
X1314718Y823650D01*
X1314263Y822787*
X1314263D02*
X1314036Y821350D01*
Y820487*
X1314036D02*
X1314263Y819050D01*
X1314263D02*
X1314718Y818187D01*
X1314718D02*
X1315400Y817900D01*
X1315854*
X1315854D02*
X1316536Y818187D01*
X1316536D02*
X1316990Y819050D01*
X1316990D02*
X1317218Y820487D01*
X1317218D02*
Y821350D01*
X1316990Y822787*
X1316990D02*
X1316536Y823650D01*
X1315854Y823937*
X1315854D02*
X1315400D01*
X1321990Y823075D02*
X1321763Y823650D01*
X1321763D02*
X1321081Y823937D01*
X1321081D02*
X1320627D01*
X1320627D02*
X1319945Y823650D01*
X1319490Y822787*
X1319490D02*
X1319263Y821350D01*
X1319263D02*
Y819912D01*
X1319263D02*
X1319490Y818762D01*
X1319490D02*
X1319945Y818187D01*
X1319945D02*
X1320627Y817900D01*
X1320854*
X1320854D02*
X1321536Y818187D01*
X1321536D02*
X1321990Y818762D01*
X1321990D02*
X1322218Y819625D01*
Y819912*
X1322218D02*
X1321990Y820775D01*
X1321990D02*
X1321536Y821350D01*
X1320854Y821637*
X1320854D02*
X1320627D01*
X1320627D02*
X1319945Y821350D01*
X1319490Y820775*
X1319490D02*
X1319263Y819912D01*
X1329490Y823937D02*
Y817900D01*
Y823937D02*
X1331536D01*
X1331536D02*
X1332218Y823650D01*
X1332445Y823362*
X1332445D02*
X1332672Y822787D01*
X1332672D02*
Y822212D01*
X1332672D02*
X1332445Y821637D01*
X1332445D02*
X1332218Y821350D01*
X1331536Y821062*
X1331536D02*
X1329490D01*
X1331081D02*
X1332672Y817900D01*
X1334718Y823937D02*
Y817900D01*
Y823937D02*
X1337672D01*
X1334718Y821062D02*
X1336536D01*
X1334718Y817900D02*
X1337672D01*
X1339718Y823937D02*
X1341536Y817900D01*
X1343354Y823937D02*
X1341536Y817900D01*
X1350627Y822787D02*
X1351081Y823075D01*
X1351081D02*
X1351763Y823937D01*
X1351763D02*
Y817900D01*
X1268809Y852500D02*
X1268581Y853075D01*
X1268581D02*
X1268127Y853650D01*
X1267672Y853937*
X1267672D02*
X1266763D01*
X1266763D02*
X1266309Y853650D01*
X1265854Y853075*
X1265854D02*
X1265627Y852500D01*
X1265400Y851637*
X1265400D02*
Y850200D01*
X1265627Y849337*
X1265627D02*
X1265854Y848762D01*
X1265854D02*
X1266309Y848187D01*
X1266309D02*
X1266763Y847900D01*
X1266763D02*
X1267672D01*
X1267672D02*
X1268127Y848187D01*
X1268127D02*
X1268581Y848762D01*
X1268581D02*
X1268809Y849337D01*
X1268809D02*
Y850200D01*
X1267672D02*
X1268809D01*
X1270854Y853937D02*
Y847900D01*
Y853937D02*
X1273809D01*
X1270854Y851062D02*
X1272672D01*
X1270854Y847900D02*
X1273809D01*
X1275854Y853937D02*
Y847900D01*
Y853937D02*
X1279036Y847900D01*
Y853937D02*
Y847900D01*
X1282672Y853937D02*
Y847900D01*
X1281081Y853937D02*
X1284263D01*
X1286309D02*
Y849625D01*
X1286536Y848762*
X1286536D02*
X1286990Y848187D01*
X1286990D02*
X1287672Y847900D01*
X1287672D02*
X1288127D01*
X1288809Y848187*
X1288809D02*
X1289263Y848762D01*
X1289263D02*
X1289490Y849625D01*
X1289490D02*
Y853937D01*
X1291536D02*
Y847900D01*
Y853937D02*
X1293581D01*
X1293581D02*
X1294263Y853650D01*
X1294263D02*
X1294490Y853362D01*
X1294490D02*
X1294718Y852787D01*
X1294718D02*
Y852212D01*
X1294718D02*
X1294490Y851637D01*
X1294490D02*
X1294263Y851350D01*
X1294263D02*
X1293581Y851062D01*
X1293581D02*
X1291536D01*
X1293127D02*
X1294718Y847900D01*
X1296763Y853937D02*
Y847900D01*
X1304036Y853937D02*
Y847900D01*
X1306081Y853937D02*
Y847900D01*
Y853937D02*
X1309263Y847900D01*
Y853937D02*
Y847900D01*
X1314718Y852500D02*
X1314490Y853075D01*
X1314490D02*
X1314036Y853650D01*
X1313581Y853937*
X1313581D02*
X1312672D01*
X1312672D02*
X1312218Y853650D01*
X1311763Y853075*
X1311763D02*
X1311536Y852500D01*
X1311309Y851637*
X1311309D02*
Y850200D01*
X1311536Y849337*
X1311536D02*
X1311763Y848762D01*
X1311763D02*
X1312218Y848187D01*
X1312218D02*
X1312672Y847900D01*
X1312672D02*
X1313581D01*
X1313581D02*
X1314036Y848187D01*
X1314036D02*
X1314490Y848762D01*
X1314490D02*
X1314718Y849337D01*
X1267218Y838937D02*
X1265400Y832900D01*
X1267218Y838937D02*
X1269036Y832900D01*
X1266081Y834912D02*
X1268354D01*
X1274263Y838075D02*
X1273809Y838650D01*
X1273127Y838937*
X1273127D02*
X1272218D01*
X1272218D02*
X1271536Y838650D01*
X1271081Y838075*
X1271081D02*
Y837500D01*
X1271081D02*
X1271309Y836925D01*
X1271536Y836637*
X1271536D02*
X1271990Y836350D01*
X1271990D02*
X1273354Y835775D01*
X1273354D02*
X1273809Y835487D01*
X1273809D02*
X1274036Y835200D01*
X1274263Y834625*
X1274263D02*
Y833762D01*
X1274263D02*
X1273809Y833187D01*
X1273809D02*
X1273127Y832900D01*
X1272218*
X1271536Y833187*
X1271536D02*
X1271081Y833762D01*
X1279490Y838075D02*
X1279036Y838650D01*
X1278354Y838937*
X1278354D02*
X1277445D01*
X1277445D02*
X1276763Y838650D01*
X1276763D02*
X1276309Y838075D01*
Y837500*
X1276536Y836925*
X1276763Y836637*
X1276763D02*
X1277218Y836350D01*
X1278581Y835775*
X1278581D02*
X1279036Y835487D01*
X1279036D02*
X1279263Y835200D01*
X1279263D02*
X1279490Y834625D01*
X1279490D02*
Y833762D01*
X1279490D02*
X1279036Y833187D01*
X1279036D02*
X1278354Y832900D01*
X1278354D02*
X1277445D01*
X1276763Y833187*
X1276763D02*
X1276309Y833762D01*
X1281536Y838937D02*
X1283354Y836062D01*
X1283354D02*
Y832900D01*
X1285172Y838937D02*
X1283354Y836062D01*
X1287445Y836925D02*
X1287218Y836637D01*
X1287218D02*
X1287445Y836350D01*
X1287672Y836637*
X1287672D02*
X1287445Y836925D01*
Y833475D02*
X1287218Y833187D01*
X1287218D02*
X1287445Y832900D01*
X1287672Y833187*
X1287672D02*
X1287445Y833475D01*
X1295400Y838937D02*
X1297900D01*
X1297900D02*
X1296536Y836637D01*
X1296536D02*
X1297218D01*
X1297218D02*
X1297672Y836350D01*
X1297672D02*
X1297900Y836062D01*
X1297900D02*
X1298127Y835200D01*
Y834625*
X1297900Y833762*
X1297900D02*
X1297445Y833187D01*
X1297445D02*
X1296763Y832900D01*
X1296763D02*
X1296081D01*
X1296081D02*
X1295400Y833187D01*
X1295400D02*
X1295172Y833475D01*
X1295172D02*
X1294945Y834050D01*
X1301536Y838937D02*
X1300854Y838650D01*
X1300854D02*
X1300400Y837787D01*
X1300400D02*
X1300172Y836350D01*
X1300172D02*
Y835487D01*
X1300172D02*
X1300400Y834050D01*
X1300854Y833187*
X1300854D02*
X1301536Y832900D01*
X1301990*
X1301990D02*
X1302672Y833187D01*
X1302672D02*
X1303127Y834050D01*
X1303354Y835487*
X1303354D02*
Y836350D01*
X1303354D02*
X1303127Y837787D01*
X1303127D02*
X1302672Y838650D01*
X1302672D02*
X1301990Y838937D01*
X1301990D02*
X1301536D01*
X1305400Y835487D02*
X1309490D01*
X1312900Y838937D02*
X1312218Y838650D01*
X1311763Y837787*
X1311763D02*
X1311536Y836350D01*
Y835487*
X1311536D02*
X1311763Y834050D01*
X1311763D02*
X1312218Y833187D01*
X1312218D02*
X1312900Y832900D01*
X1313354*
X1313354D02*
X1314036Y833187D01*
X1314036D02*
X1314490Y834050D01*
X1314490D02*
X1314718Y835487D01*
X1314718D02*
Y836350D01*
X1314490Y837787*
X1314490D02*
X1314036Y838650D01*
X1313354Y838937*
X1313354D02*
X1312900D01*
X1318127D02*
X1317445Y838650D01*
X1316990Y837787*
X1316990D02*
X1316763Y836350D01*
X1316763D02*
Y835487D01*
X1316763D02*
X1316990Y834050D01*
X1316990D02*
X1317445Y833187D01*
X1317445D02*
X1318127Y832900D01*
X1318581*
X1318581D02*
X1319263Y833187D01*
X1319263D02*
X1319718Y834050D01*
X1319945Y835487*
X1319945D02*
Y836350D01*
X1319718Y837787*
X1319718D02*
X1319263Y838650D01*
X1319263D02*
X1318581Y838937D01*
X1318581D02*
X1318127D01*
X1323354D02*
X1322672Y838650D01*
X1322672D02*
X1322218Y837787D01*
X1322218D02*
X1321990Y836350D01*
X1321990D02*
Y835487D01*
X1321990D02*
X1322218Y834050D01*
X1322672Y833187*
X1322672D02*
X1323354Y832900D01*
X1323354D02*
X1323809D01*
X1324490Y833187*
X1324490D02*
X1324945Y834050D01*
X1325172Y835487*
X1325172D02*
Y836350D01*
X1325172D02*
X1324945Y837787D01*
X1324945D02*
X1324490Y838650D01*
X1324490D02*
X1323809Y838937D01*
X1323809D02*
X1323354D01*
X1329945Y838075D02*
X1329718Y838650D01*
X1329036Y838937*
X1329036D02*
X1328581D01*
X1328581D02*
X1327900Y838650D01*
X1327445Y837787*
X1327445D02*
X1327218Y836350D01*
Y834912*
X1327218D02*
X1327445Y833762D01*
X1327445D02*
X1327900Y833187D01*
X1327900D02*
X1328581Y832900D01*
X1328581D02*
X1328809D01*
X1329490Y833187*
X1329490D02*
X1329945Y833762D01*
X1329945D02*
X1330172Y834625D01*
X1330172D02*
Y834912D01*
X1330172D02*
X1329945Y835775D01*
X1329490Y836350*
X1329490D02*
X1328809Y836637D01*
X1328809D02*
X1328581D01*
X1328581D02*
X1327900Y836350D01*
X1327445Y835775*
X1327218Y834912*
X1340400Y838937D02*
Y832900D01*
Y838937D02*
X1342445D01*
X1342445D02*
X1343127Y838650D01*
X1343354Y838362*
X1343354D02*
X1343581Y837787D01*
X1343581D02*
Y837212D01*
X1343581D02*
X1343354Y836637D01*
X1343354D02*
X1343127Y836350D01*
X1342445Y836062*
X1342445D02*
X1340400D01*
X1341990D02*
X1343581Y832900D01*
X1345627Y838937D02*
Y832900D01*
Y838937D02*
X1348581D01*
X1345627Y836062D02*
X1347445D01*
X1345627Y832900D02*
X1348581D01*
X1350627Y838937D02*
X1352445Y832900D01*
X1354263Y838937D02*
X1352445Y832900D01*
X1356309Y831750D02*
X1361081D01*
X1362445D02*
X1367218D01*
X1368581D02*
X1373354D01*
X1374718D02*
X1379490D01*
X865400Y816725D02*
X865763Y816950D01*
X865763D02*
X866309Y817625D01*
Y812900*
X1191945Y1048075D02*
Y1042900D01*
X1189900Y1045487D02*
X1193990D01*
X874718Y841437D02*
X872900Y835400D01*
X874718Y841437D02*
X876536Y835400D01*
X873581Y837412D02*
X875854D01*
X881990Y840000D02*
X881763Y840575D01*
X881763D02*
X881309Y841150D01*
X880854Y841437*
X880854D02*
X879945D01*
X879945D02*
X879490Y841150D01*
X879490D02*
X879036Y840575D01*
X878809Y840000*
X878581Y839137*
X878581D02*
Y837700D01*
X878581D02*
X878809Y836837D01*
X878809D02*
X879036Y836262D01*
X879036D02*
X879490Y835687D01*
X879490D02*
X879945Y835400D01*
X880854*
X880854D02*
X881309Y835687D01*
X881309D02*
X881763Y836262D01*
X881763D02*
X881990Y836837D01*
X889263Y841437D02*
Y835400D01*
Y841437D02*
X891309D01*
X891309D02*
X891990Y841150D01*
X891990D02*
X892218Y840862D01*
X892218D02*
X892445Y840287D01*
X892445D02*
Y839425D01*
X892218Y838850*
X891990Y838562*
X891990D02*
X891309Y838275D01*
X889263*
X895854Y841437D02*
X895400Y841150D01*
X894945Y840575*
X894718Y840000*
X894490Y839137*
X894490D02*
Y837700D01*
X894490D02*
X894718Y836837D01*
X894718D02*
X894945Y836262D01*
X894945D02*
X895400Y835687D01*
X895400D02*
X895854Y835400D01*
X895854D02*
X896763D01*
X896763D02*
X897218Y835687D01*
X897218D02*
X897672Y836262D01*
X897672D02*
X897900Y836837D01*
X897900D02*
X898127Y837700D01*
Y839137*
X898127D02*
X897900Y840000D01*
X897672Y840575*
X897672D02*
X897218Y841150D01*
X896763Y841437*
X896763D02*
X895854D01*
X900172D02*
X901309Y835400D01*
X902445Y841437D02*
X901309Y835400D01*
X902445Y841437D02*
X903581Y835400D01*
X904718Y841437D02*
X903581Y835400D01*
X906763Y841437D02*
Y835400D01*
Y841437D02*
X909718D01*
X906763Y838562D02*
X908581D01*
X906763Y835400D02*
X909718D01*
X911763Y841437D02*
Y835400D01*
Y841437D02*
X913809D01*
X913809D02*
X914490Y841150D01*
X914490D02*
X914718Y840862D01*
X914718D02*
X914945Y840287D01*
X914945D02*
Y839712D01*
X914945D02*
X914718Y839137D01*
X914718D02*
X914490Y838850D01*
X914490D02*
X913809Y838562D01*
X913809D02*
X911763D01*
X913354D02*
X914945Y835400D01*
X922218Y841437D02*
Y835400D01*
X924263Y841437D02*
Y835400D01*
Y841437D02*
X927445Y835400D01*
Y841437D02*
Y835400D01*
X975400Y1220125D02*
Y1215400D01*
Y1220125D02*
X977036D01*
X977581Y1219900*
X977581D02*
X977763Y1219675D01*
X977763D02*
X977945Y1219225D01*
Y1218775*
X977763Y1218325*
X977763D02*
X977581Y1218100D01*
X977581D02*
X977036Y1217875D01*
X975400*
X976672D02*
X977945Y1215400D01*
X979581Y1220125D02*
Y1215400D01*
X981218Y1220125D02*
Y1215400D01*
Y1220125D02*
X982490D01*
X982490D02*
X983036Y1219900D01*
X983400Y1219450*
X983581Y1219000*
X983581D02*
X983763Y1218325D01*
X983763D02*
Y1217200D01*
X983763D02*
X983581Y1216525D01*
X983581D02*
X983400Y1216075D01*
X983036Y1215625*
X982490Y1215400*
X982490D02*
X981218D01*
X985400Y1220125D02*
Y1215400D01*
Y1220125D02*
X986672D01*
X986672D02*
X987218Y1219900D01*
X987581Y1219450*
X987581D02*
X987763Y1219000D01*
X987763D02*
X987945Y1218325D01*
Y1217200*
X987763Y1216525*
X987763D02*
X987581Y1216075D01*
X987581D02*
X987218Y1215625D01*
X986672Y1215400*
X986672D02*
X985400D01*
X989581Y1220125D02*
Y1215400D01*
X989581D02*
X991763D01*
X993400Y1220125D02*
Y1215400D01*
Y1220125D02*
X995763D01*
X993400Y1217875D02*
X994854D01*
X993400Y1215400D02*
X995763D01*
X997400Y1220125D02*
Y1215400D01*
Y1220125D02*
X999036D01*
X999581Y1219900*
X999581D02*
X999763Y1219675D01*
X999763D02*
X999945Y1219225D01*
Y1218775*
X999763Y1218325*
X999763D02*
X999581Y1218100D01*
X999581D02*
X999036Y1217875D01*
X997400*
X998672D02*
X999945Y1215400D01*
X1228945Y1167575D02*
Y1162400D01*
X1226900Y1164987D02*
X1230990D01*
X962945Y1212075D02*
Y1206900D01*
X960900Y1209487D02*
X964990D01*
X869945Y1243075D02*
Y1237900D01*
X867900Y1240487D02*
X871990D01*
X1089945Y1243075D02*
Y1237900D01*
X1087900Y1240487D02*
X1091990D01*
X1052445Y1198075D02*
Y1192900D01*
X1050400Y1195487D02*
X1054490D01*
X1384945Y1244575D02*
Y1239400D01*
X1382900Y1241987D02*
X1386990D01*
X1209945Y1083075D02*
Y1077900D01*
X1207900Y1080487D02*
X1211990D01*
X857900Y901725D02*
X858263Y901950D01*
X858263D02*
X858809Y902625D01*
Y897900*
X1372900Y1099225D02*
X1373263Y1099450D01*
X1373263D02*
X1373809Y1100125D01*
Y1095400*
X1248275Y1205400D02*
X1248050Y1205763D01*
X1248050D02*
X1247375Y1206309D01*
X1252100*
X1120400Y1214225D02*
X1120763Y1214450D01*
X1120763D02*
X1121309Y1215125D01*
Y1210400*
X955775Y1217900D02*
X955550Y1218263D01*
X955550D02*
X954875Y1218809D01*
X959600*
X810400Y1236725D02*
X810763Y1236950D01*
X810763D02*
X811309Y1237625D01*
Y1232900*
X1327900Y1016437D02*
Y1012125D01*
X1328127Y1011262*
X1328127D02*
X1328581Y1010687D01*
X1328581D02*
X1329263Y1010400D01*
X1329263D02*
X1329718D01*
X1330400Y1010687*
X1330400D02*
X1330854Y1011262D01*
X1330854D02*
X1331081Y1012125D01*
X1331081D02*
Y1016437D01*
X1336309Y1015575D02*
X1335854Y1016150D01*
X1335854D02*
X1335172Y1016437D01*
X1335172D02*
X1334263D01*
X1334263D02*
X1333581Y1016150D01*
X1333581D02*
X1333127Y1015575D01*
Y1015000*
X1333354Y1014425*
X1333354D02*
X1333581Y1014137D01*
X1333581D02*
X1334036Y1013850D01*
X1335400Y1013275*
X1335854Y1012987*
X1335854D02*
X1336081Y1012700D01*
X1336081D02*
X1336309Y1012125D01*
Y1011262*
X1336309D02*
X1335854Y1010687D01*
X1335854D02*
X1335172Y1010400D01*
X1335172D02*
X1334263D01*
X1334263D02*
X1333581Y1010687D01*
X1333581D02*
X1333127Y1011262D01*
X1338354Y1016437D02*
Y1010400D01*
Y1016437D02*
X1340400D01*
X1340400D02*
X1341081Y1016150D01*
X1341081D02*
X1341309Y1015862D01*
X1341309D02*
X1341536Y1015287D01*
X1341536D02*
Y1014712D01*
X1341536D02*
X1341309Y1014137D01*
X1341309D02*
X1341081Y1013850D01*
X1341081D02*
X1340400Y1013562D01*
X1338354D02*
X1340400D01*
X1340400D02*
X1341081Y1013275D01*
X1341081D02*
X1341309Y1012987D01*
X1341309D02*
X1341536Y1012412D01*
X1341536D02*
Y1011550D01*
X1341309Y1010975*
X1341081Y1010687*
X1341081D02*
X1340400Y1010400D01*
X1338354*
X1343581Y1012987D02*
X1347672D01*
X1349718Y1016437D02*
Y1010400D01*
Y1016437D02*
X1351309D01*
X1351309D02*
X1351990Y1016150D01*
X1351990D02*
X1352445Y1015575D01*
X1352672Y1015000*
X1352672D02*
X1352900Y1014137D01*
X1352900D02*
Y1012700D01*
X1352672Y1011837*
X1352672D02*
X1352445Y1011262D01*
X1352445D02*
X1351990Y1010687D01*
X1351990D02*
X1351309Y1010400D01*
X1349718*
X1354945Y1016437D02*
Y1010400D01*
X1358354Y1016437D02*
X1357900Y1016150D01*
X1357445Y1015575*
X1357218Y1015000*
X1356990Y1014137*
X1356990D02*
Y1012700D01*
X1356990D02*
X1357218Y1011837D01*
X1357218D02*
X1357445Y1011262D01*
X1357445D02*
X1357900Y1010687D01*
X1357900D02*
X1358354Y1010400D01*
X1358354D02*
X1359263D01*
X1359263D02*
X1359718Y1010687D01*
X1359718D02*
X1360172Y1011262D01*
X1360172D02*
X1360400Y1011837D01*
X1360400D02*
X1360627Y1012700D01*
Y1014137*
X1360627D02*
X1360400Y1015000D01*
X1360172Y1015575*
X1360172D02*
X1359718Y1016150D01*
X1359263Y1016437*
X1359263D02*
X1358354D01*
X1362900Y1015000D02*
Y1015287D01*
X1362900D02*
X1363127Y1015862D01*
X1363127D02*
X1363354Y1016150D01*
X1363354D02*
X1363809Y1016437D01*
X1363809D02*
X1364718D01*
X1364718D02*
X1365172Y1016150D01*
X1365172D02*
X1365400Y1015862D01*
X1365400D02*
X1365627Y1015287D01*
X1365627D02*
Y1014712D01*
X1365627D02*
X1365400Y1014137D01*
X1365400D02*
X1364945Y1013275D01*
X1362672Y1010400*
X1362672D02*
X1365854D01*
X1370172Y1016437D02*
X1367900Y1012412D01*
X1367900D02*
X1371309D01*
X1370172Y1016437D02*
Y1010400D01*
X1327900Y1003937D02*
Y997900D01*
X1329945Y1003937D02*
Y997900D01*
Y1003937D02*
X1333127Y997900D01*
Y1003937D02*
Y997900D01*
X1336763Y1003937D02*
Y997900D01*
X1335172Y1003937D02*
X1338354D01*
X1340400D02*
Y997900D01*
Y1003937D02*
X1343354D01*
X1340400Y1001062D02*
X1342218D01*
X1340400Y997900D02*
X1343354D01*
X1345400Y1003937D02*
Y997900D01*
Y1003937D02*
X1347445D01*
X1347445D02*
X1348127Y1003650D01*
X1348354Y1003362*
X1348354D02*
X1348581Y1002787D01*
X1348581D02*
Y1002212D01*
X1348581D02*
X1348354Y1001637D01*
X1348354D02*
X1348127Y1001350D01*
X1347445Y1001062*
X1347445D02*
X1345400D01*
X1346990D02*
X1348581Y997900D01*
X1350627Y1003937D02*
Y997900D01*
Y1003937D02*
X1353581D01*
X1350627Y1001062D02*
X1352445D01*
X1357445Y1003937D02*
X1355627Y997900D01*
X1357445Y1003937D02*
X1359263Y997900D01*
X1356309Y999912D02*
X1358581D01*
X1364718Y1002500D02*
X1364490Y1003075D01*
X1364490D02*
X1364036Y1003650D01*
X1363581Y1003937*
X1363581D02*
X1362672D01*
X1362672D02*
X1362218Y1003650D01*
X1361763Y1003075*
X1361763D02*
X1361536Y1002500D01*
X1361309Y1001637*
X1361309D02*
Y1000200D01*
X1361536Y999337*
X1361536D02*
X1361763Y998762D01*
X1361763D02*
X1362218Y998187D01*
X1362218D02*
X1362672Y997900D01*
X1362672D02*
X1363581D01*
X1363581D02*
X1364036Y998187D01*
X1364036D02*
X1364490Y998762D01*
X1364490D02*
X1364718Y999337D01*
X1366763Y1003937D02*
Y997900D01*
Y1003937D02*
X1369718D01*
X1366763Y1001062D02*
X1368581D01*
X1366763Y997900D02*
X1369718D01*
X972900Y1210125D02*
Y1205400D01*
X974536Y1210125D02*
Y1205400D01*
Y1210125D02*
X977081Y1205400D01*
Y1210125D02*
Y1205400D01*
X979990Y1210125D02*
Y1205400D01*
X978718Y1210125D02*
X981263D01*
X982900D02*
Y1205400D01*
Y1210125D02*
X985263D01*
X982900Y1207875D02*
X984354D01*
X982900Y1205400D02*
X985263D01*
X986900Y1210125D02*
Y1205400D01*
Y1210125D02*
X988536D01*
X989081Y1209900*
X989081D02*
X989263Y1209675D01*
X989263D02*
X989445Y1209225D01*
Y1208775*
X989263Y1208325*
X989263D02*
X989081Y1208100D01*
X989081D02*
X988536Y1207875D01*
X986900*
X988172D02*
X989445Y1205400D01*
X991081Y1210125D02*
Y1205400D01*
Y1210125D02*
X993445D01*
X991081Y1207875D02*
X992536D01*
X996536Y1210125D02*
X995081Y1205400D01*
X996536Y1210125D02*
X997990Y1205400D01*
X995627Y1206975D02*
X997445D01*
X1002354Y1209000D02*
X1002172Y1209450D01*
X1002172D02*
X1001809Y1209900D01*
X1001445Y1210125*
X1000718*
X1000354Y1209900*
X1000354D02*
X999990Y1209450D01*
X999990D02*
X999809Y1209000D01*
X999627Y1208325*
Y1207200*
X999809Y1206525*
X999990Y1206075*
X999990D02*
X1000354Y1205625D01*
X1000354D02*
X1000718Y1205400D01*
X1001445*
X1001809Y1205625*
X1002172Y1206075*
X1002172D02*
X1002354Y1206525D01*
X1003990Y1210125D02*
Y1205400D01*
Y1210125D02*
X1006354D01*
X1003990Y1207875D02*
X1005445D01*
X1003990Y1205400D02*
X1006354D01*
X980627Y1199000D02*
X980445Y1199450D01*
X980081Y1199900*
X980081D02*
X979718Y1200125D01*
X978990*
X978990D02*
X978627Y1199900D01*
X978263Y1199450*
X978263D02*
X978081Y1199000D01*
X978081D02*
X977900Y1198325D01*
Y1197200*
X978081Y1196525*
X978081D02*
X978263Y1196075D01*
X978263D02*
X978627Y1195625D01*
X978990Y1195400*
X978990D02*
X979718D01*
X980081Y1195625*
X980081D02*
X980445Y1196075D01*
X980627Y1196525*
X983718Y1200125D02*
X982263Y1195400D01*
X983718Y1200125D02*
X985172Y1195400D01*
X982809Y1196975D02*
X984627D01*
X986809Y1200125D02*
Y1195400D01*
Y1200125D02*
X988445D01*
X988990Y1199900*
X988990D02*
X989172Y1199675D01*
X989172D02*
X989354Y1199225D01*
X989354D02*
Y1198775D01*
X989354D02*
X989172Y1198325D01*
X989172D02*
X988990Y1198100D01*
X988990D02*
X988445Y1197875D01*
X986809D02*
X988445D01*
X988990Y1197650*
X988990D02*
X989172Y1197425D01*
X989172D02*
X989354Y1196975D01*
X989354D02*
Y1196300D01*
X989354D02*
X989172Y1195850D01*
X989172D02*
X988990Y1195625D01*
X988990D02*
X988445Y1195400D01*
X986809*
X990990Y1200125D02*
Y1195400D01*
X990990D02*
X993172D01*
X994809Y1200125D02*
Y1195400D01*
Y1200125D02*
X997172D01*
X994809Y1197875D02*
X996263D01*
X994809Y1195400D02*
X997172D01*
X820400Y1021437D02*
Y1017125D01*
X820627Y1016262*
X820627D02*
X821081Y1015687D01*
X821081D02*
X821763Y1015400D01*
X821763D02*
X822218D01*
X822900Y1015687*
X822900D02*
X823354Y1016262D01*
X823354D02*
X823581Y1017125D01*
X823581D02*
Y1021437D01*
X828809Y1020575D02*
X828354Y1021150D01*
X828354D02*
X827672Y1021437D01*
X827672D02*
X826763D01*
X826763D02*
X826081Y1021150D01*
X826081D02*
X825627Y1020575D01*
Y1020000*
X825854Y1019425*
X825854D02*
X826081Y1019137D01*
X826081D02*
X826536Y1018850D01*
X827900Y1018275*
X828354Y1017987*
X828354D02*
X828581Y1017700D01*
X828581D02*
X828809Y1017125D01*
Y1016262*
X828809D02*
X828354Y1015687D01*
X828354D02*
X827672Y1015400D01*
X827672D02*
X826763D01*
X826763D02*
X826081Y1015687D01*
X826081D02*
X825627Y1016262D01*
X830854Y1021437D02*
Y1015400D01*
Y1021437D02*
X832900D01*
X832900D02*
X833581Y1021150D01*
X833581D02*
X833809Y1020862D01*
X833809D02*
X834036Y1020287D01*
X834036D02*
Y1019712D01*
X834036D02*
X833809Y1019137D01*
X833809D02*
X833581Y1018850D01*
X833581D02*
X832900Y1018562D01*
X830854D02*
X832900D01*
X832900D02*
X833581Y1018275D01*
X833581D02*
X833809Y1017987D01*
X833809D02*
X834036Y1017412D01*
X834036D02*
Y1016550D01*
X833809Y1015975*
X833581Y1015687*
X833581D02*
X832900Y1015400D01*
X830854*
X824490Y1008937D02*
Y1002900D01*
X822900Y1008937D02*
X826081D01*
X829490D02*
X829036Y1008650D01*
X828581Y1008075*
X828581D02*
X828354Y1007500D01*
X828354D02*
X828127Y1006637D01*
X828127D02*
Y1005200D01*
X828354Y1004337*
X828354D02*
X828581Y1003762D01*
X828581D02*
X829036Y1003187D01*
X829036D02*
X829490Y1002900D01*
X829490D02*
X830400D01*
X830854Y1003187*
X830854D02*
X831309Y1003762D01*
X831309D02*
X831536Y1004337D01*
X831536D02*
X831763Y1005200D01*
X831763D02*
Y1006637D01*
X831763D02*
X831536Y1007500D01*
X831309Y1008075*
X830854Y1008650*
X830854D02*
X830400Y1008937D01*
X830400D02*
X829490D01*
X815400Y996437D02*
Y990400D01*
Y996437D02*
X817445D01*
X817445D02*
X818127Y996150D01*
X818354Y995862*
X818354D02*
X818581Y995287D01*
X818581D02*
Y994712D01*
X818581D02*
X818354Y994137D01*
X818354D02*
X818127Y993850D01*
X817445Y993562*
X817445D02*
X815400D01*
X816990D02*
X818581Y990400D01*
X823809Y995575D02*
X823354Y996150D01*
X823354D02*
X822672Y996437D01*
X822672D02*
X821763D01*
X821763D02*
X821081Y996150D01*
X821081D02*
X820627Y995575D01*
Y995000*
X820854Y994425*
X820854D02*
X821081Y994137D01*
X821081D02*
X821536Y993850D01*
X822900Y993275*
X823354Y992987*
X823354D02*
X823581Y992700D01*
X823581D02*
X823809Y992125D01*
Y991262*
X823809D02*
X823354Y990687D01*
X823354D02*
X822672Y990400D01*
X822672D02*
X821763D01*
X821763D02*
X821081Y990687D01*
X821081D02*
X820627Y991262D01*
X826081Y995000D02*
Y995287D01*
X826081D02*
X826309Y995862D01*
X826309D02*
X826536Y996150D01*
X826990Y996437*
X826990D02*
X827900D01*
X827900D02*
X828354Y996150D01*
X828354D02*
X828581Y995862D01*
X828581D02*
X828809Y995287D01*
X828809D02*
Y994712D01*
X828809D02*
X828581Y994137D01*
X828581D02*
X828127Y993275D01*
X825854Y990400*
X825854D02*
X829036D01*
X831536Y996437D02*
X834036D01*
X834036D02*
X832672Y994137D01*
X832672D02*
X833354D01*
X833354D02*
X833809Y993850D01*
X834036Y993562*
X834036D02*
X834263Y992700D01*
X834263D02*
Y992125D01*
X834263D02*
X834036Y991262D01*
X834036D02*
X833581Y990687D01*
X833581D02*
X832900Y990400D01*
X832218*
X831536Y990687*
X831536D02*
X831309Y990975D01*
X831081Y991550*
X836536Y995000D02*
Y995287D01*
X836536D02*
X836763Y995862D01*
X836763D02*
X836990Y996150D01*
X836990D02*
X837445Y996437D01*
X837445D02*
X838354D01*
X838354D02*
X838809Y996150D01*
X839036Y995862*
X839036D02*
X839263Y995287D01*
X839263D02*
Y994712D01*
X839263D02*
X839036Y994137D01*
X839036D02*
X838581Y993275D01*
X838581D02*
X836309Y990400D01*
X839490*
X820400Y1235125D02*
Y1230400D01*
Y1235125D02*
X821672D01*
X821672D02*
X822218Y1234900D01*
X822581Y1234450*
X822581D02*
X822763Y1234000D01*
X822763D02*
X822945Y1233325D01*
Y1232200*
X822763Y1231525*
X822763D02*
X822581Y1231075D01*
X822581D02*
X822218Y1230625D01*
X821672Y1230400*
X821672D02*
X820400D01*
X825672Y1235125D02*
X825309Y1234900D01*
X824945Y1234450*
X824763Y1234000*
X824763D02*
X824581Y1233325D01*
X824581D02*
Y1232200D01*
X824581D02*
X824763Y1231525D01*
X824763D02*
X824945Y1231075D01*
X825309Y1230625*
X825672Y1230400*
X825672D02*
X826400D01*
X826763Y1230625*
X826763D02*
X827127Y1231075D01*
X827309Y1231525*
X827490Y1232200*
X827490D02*
Y1233325D01*
X827490D02*
X827309Y1234000D01*
X827127Y1234450*
X826763Y1234900*
X826763D02*
X826400Y1235125D01*
X825672*
X829127D02*
Y1230400D01*
Y1235125D02*
X831490D01*
X829127Y1232875D02*
X830581D01*
X833127Y1232425D02*
X836400D01*
X840400Y1235125D02*
X838581D01*
X838581D02*
X838400Y1233100D01*
X838581Y1233325*
X838581D02*
X839127Y1233550D01*
X839672*
X839672D02*
X840218Y1233325D01*
X840581Y1232875*
X840581D02*
X840763Y1232200D01*
X840763D02*
X840581Y1231750D01*
X840581D02*
X840400Y1231075D01*
X840036Y1230625*
X839490Y1230400*
X839490D02*
X838945D01*
X838400Y1230625*
X838218Y1230850*
X838036Y1231300*
X812900Y1225125D02*
Y1220400D01*
X814536Y1225125D02*
Y1220400D01*
Y1225125D02*
X817081Y1220400D01*
Y1225125D02*
Y1220400D01*
X819990Y1225125D02*
Y1220400D01*
X818718Y1225125D02*
X821263D01*
X822900D02*
Y1220400D01*
Y1225125D02*
X825263D01*
X822900Y1222875D02*
X824354D01*
X822900Y1220400D02*
X825263D01*
X826900Y1225125D02*
Y1220400D01*
Y1225125D02*
X828536D01*
X829081Y1224900*
X829081D02*
X829263Y1224675D01*
X829263D02*
X829445Y1224225D01*
Y1223775*
X829263Y1223325*
X829263D02*
X829081Y1223100D01*
X829081D02*
X828536Y1222875D01*
X826900*
X828172D02*
X829445Y1220400D01*
X831081Y1225125D02*
Y1220400D01*
Y1225125D02*
X833445D01*
X831081Y1222875D02*
X832536D01*
X836536Y1225125D02*
X835081Y1220400D01*
X836536Y1225125D02*
X837990Y1220400D01*
X835627Y1221975D02*
X837445D01*
X842354Y1224000D02*
X842172Y1224450D01*
X842172D02*
X841809Y1224900D01*
X841445Y1225125*
X840718*
X840354Y1224900*
X840354D02*
X839990Y1224450D01*
X839990D02*
X839809Y1224000D01*
X839627Y1223325*
Y1222200*
X839809Y1221525*
X839990Y1221075*
X839990D02*
X840354Y1220625D01*
X840354D02*
X840718Y1220400D01*
X841445*
X841809Y1220625*
X842172Y1221075*
X842172D02*
X842354Y1221525D01*
X843990Y1225125D02*
Y1220400D01*
Y1225125D02*
X846354D01*
X843990Y1222875D02*
X845445D01*
X843990Y1220400D02*
X846354D01*
X1120400Y1200125D02*
Y1195400D01*
Y1200125D02*
X1122036D01*
X1122581Y1199900*
X1122581D02*
X1122763Y1199675D01*
X1122763D02*
X1122945Y1199225D01*
Y1198550*
X1122763Y1198100*
X1122763D02*
X1122581Y1197875D01*
X1122581D02*
X1122036Y1197650D01*
X1120400*
X1125672Y1200125D02*
X1125309Y1199900D01*
X1124945Y1199450*
X1124763Y1199000*
X1124763D02*
X1124581Y1198325D01*
X1124581D02*
Y1197200D01*
X1124581D02*
X1124763Y1196525D01*
X1124763D02*
X1124945Y1196075D01*
X1125309Y1195625*
X1125672Y1195400*
X1125672D02*
X1126400D01*
X1126763Y1195625*
X1126763D02*
X1127127Y1196075D01*
X1127309Y1196525*
X1127490Y1197200*
X1127490D02*
Y1198325D01*
X1127490D02*
X1127309Y1199000D01*
X1127127Y1199450*
X1126763Y1199900*
X1126763D02*
X1126400Y1200125D01*
X1125672*
X1129127D02*
Y1195400D01*
X1131309*
X1132945Y1200125D02*
X1134400Y1197875D01*
Y1195400*
X1135854Y1200125D02*
X1134400Y1197875D01*
X1140218Y1199000D02*
X1140036Y1199450D01*
X1139672Y1199900*
X1139672D02*
X1139309Y1200125D01*
X1138581*
X1138581D02*
X1138218Y1199900D01*
X1137854Y1199450*
X1137854D02*
X1137672Y1199000D01*
X1137672D02*
X1137490Y1198325D01*
X1137490D02*
Y1197200D01*
X1137490D02*
X1137672Y1196525D01*
X1137672D02*
X1137854Y1196075D01*
X1137854D02*
X1138218Y1195625D01*
X1138581Y1195400*
X1138581D02*
X1139309D01*
X1139672Y1195625*
X1139672D02*
X1140036Y1196075D01*
X1140218Y1196525*
Y1197200*
X1139309D02*
X1140218D01*
X1142945Y1200125D02*
X1142581Y1199900D01*
X1142581D02*
X1142218Y1199450D01*
X1142036Y1199000*
X1141854Y1198325*
X1141854D02*
Y1197200D01*
X1141854D02*
X1142036Y1196525D01*
X1142218Y1196075*
X1142581Y1195625*
X1142581D02*
X1142945Y1195400D01*
X1143672*
X1143672D02*
X1144036Y1195625D01*
X1144400Y1196075*
X1144581Y1196525*
X1144581D02*
X1144763Y1197200D01*
X1144763D02*
Y1198325D01*
X1144763D02*
X1144581Y1199000D01*
X1144581D02*
X1144400Y1199450D01*
X1144036Y1199900*
X1143672Y1200125*
X1143672D02*
X1142945D01*
X1146400D02*
Y1195400D01*
Y1200125D02*
X1148945Y1195400D01*
Y1200125D02*
Y1195400D01*
X1120400Y1170125D02*
Y1165400D01*
X1122036Y1170125D02*
Y1165400D01*
Y1170125D02*
X1124581Y1165400D01*
Y1170125D02*
Y1165400D01*
X1127490Y1170125D02*
Y1165400D01*
X1126218Y1170125D02*
X1128763D01*
X1130400D02*
Y1165400D01*
Y1170125D02*
X1132763D01*
X1130400Y1167875D02*
X1131854D01*
X1130400Y1165400D02*
X1132763D01*
X1134400Y1170125D02*
Y1165400D01*
Y1170125D02*
X1136036D01*
X1136581Y1169900*
X1136581D02*
X1136763Y1169675D01*
X1136763D02*
X1136945Y1169225D01*
Y1168775*
X1136763Y1168325*
X1136763D02*
X1136581Y1168100D01*
X1136581D02*
X1136036Y1167875D01*
X1134400*
X1135672D02*
X1136945Y1165400D01*
X1138581Y1170125D02*
Y1165400D01*
Y1170125D02*
X1140945D01*
X1138581Y1167875D02*
X1140036D01*
X1144036Y1170125D02*
X1142581Y1165400D01*
X1144036Y1170125D02*
X1145490Y1165400D01*
X1143127Y1166975D02*
X1144945D01*
X1149854Y1169000D02*
X1149672Y1169450D01*
X1149672D02*
X1149309Y1169900D01*
X1148945Y1170125*
X1148218*
X1147854Y1169900*
X1147854D02*
X1147490Y1169450D01*
X1147490D02*
X1147309Y1169000D01*
X1147127Y1168325*
Y1167200*
X1147309Y1166525*
X1147490Y1166075*
X1147490D02*
X1147854Y1165625D01*
X1147854D02*
X1148218Y1165400D01*
X1148945*
X1149309Y1165625*
X1149672Y1166075*
X1149672D02*
X1149854Y1166525D01*
X1151490Y1170125D02*
Y1165400D01*
Y1170125D02*
X1153854D01*
X1151490Y1167875D02*
X1152945D01*
X1151490Y1165400D02*
X1153854D01*
X1125400Y1190125D02*
Y1185400D01*
X1127036Y1190125D02*
Y1185400D01*
Y1190125D02*
X1129581Y1185400D01*
Y1190125D02*
Y1185400D01*
X1131218Y1190125D02*
Y1185400D01*
Y1190125D02*
X1132490D01*
X1132490D02*
X1133036Y1189900D01*
X1133400Y1189450*
X1133581Y1189000*
X1133581D02*
X1133763Y1188325D01*
X1133763D02*
Y1187200D01*
X1133763D02*
X1133581Y1186525D01*
X1133581D02*
X1133400Y1186075D01*
X1133036Y1185625*
X1132490Y1185400*
X1132490D02*
X1131218D01*
X1135400Y1190125D02*
Y1185400D01*
Y1190125D02*
X1137763D01*
X1135400Y1187875D02*
X1136854D01*
X1135400Y1185400D02*
X1137763D01*
X1139400Y1190125D02*
X1141945Y1185400D01*
Y1190125D02*
X1139400Y1185400D01*
X1125445Y1179450D02*
X1125081Y1179900D01*
X1125081D02*
X1124536Y1180125D01*
X1123809*
X1123263Y1179900*
X1123263D02*
X1122900Y1179450D01*
Y1179000*
X1123081Y1178550*
X1123081D02*
X1123263Y1178325D01*
X1123263D02*
X1123627Y1178100D01*
X1124718Y1177650*
X1125081Y1177425*
X1125081D02*
X1125263Y1177200D01*
X1125263D02*
X1125445Y1176750D01*
Y1176075*
X1125081Y1175625*
X1125081D02*
X1124536Y1175400D01*
X1123809*
X1123263Y1175625*
X1123263D02*
X1122900Y1176075D01*
X1127081Y1180125D02*
Y1175400D01*
Y1180125D02*
X1129445D01*
X1127081Y1177875D02*
X1128536D01*
X1127081Y1175400D02*
X1129445D01*
X1131081Y1180125D02*
Y1175400D01*
Y1180125D02*
X1133627Y1175400D01*
Y1180125D02*
Y1175400D01*
X1137809Y1179450D02*
X1137445Y1179900D01*
X1136900Y1180125*
X1136172*
X1136172D02*
X1135627Y1179900D01*
X1135263Y1179450*
X1135263D02*
Y1179000D01*
X1135263D02*
X1135445Y1178550D01*
X1135627Y1178325*
X1135990Y1178100*
X1135990D02*
X1137081Y1177650D01*
X1137081D02*
X1137445Y1177425D01*
X1137627Y1177200*
X1137809Y1176750*
Y1176075*
X1137445Y1175625*
X1136900Y1175400*
X1136172*
X1136172D02*
X1135627Y1175625D01*
X1135263Y1176075*
X1140536Y1180125D02*
X1140172Y1179900D01*
X1140172D02*
X1139809Y1179450D01*
X1139627Y1179000*
X1139445Y1178325*
Y1177200*
X1139627Y1176525*
X1139809Y1176075*
X1140172Y1175625*
X1140172D02*
X1140536Y1175400D01*
X1141263*
X1141263D02*
X1141627Y1175625D01*
X1141990Y1176075*
X1141990D02*
X1142172Y1176525D01*
X1142172D02*
X1142354Y1177200D01*
X1142354D02*
Y1178325D01*
X1142354D02*
X1142172Y1179000D01*
X1142172D02*
X1141990Y1179450D01*
X1141990D02*
X1141627Y1179900D01*
X1141263Y1180125*
X1141263D02*
X1140536D01*
X1143990D02*
Y1175400D01*
Y1180125D02*
X1145627D01*
X1146172Y1179900*
X1146172D02*
X1146354Y1179675D01*
X1146354D02*
X1146536Y1179225D01*
Y1178775*
X1146354Y1178325*
X1146354D02*
X1146172Y1178100D01*
X1146172D02*
X1145627Y1177875D01*
X1143990*
X1145263D02*
X1146536Y1175400D01*
X1275400Y1205125D02*
Y1200400D01*
Y1205125D02*
X1277036D01*
X1277581Y1204900*
X1277581D02*
X1277763Y1204675D01*
X1277763D02*
X1277945Y1204225D01*
Y1203775*
X1277763Y1203325*
X1277763D02*
X1277581Y1203100D01*
X1277581D02*
X1277036Y1202875D01*
X1275400D02*
X1277036D01*
X1277581Y1202650*
X1277581D02*
X1277763Y1202425D01*
X1277763D02*
X1277945Y1201975D01*
Y1201300*
X1277763Y1200850*
X1277763D02*
X1277581Y1200625D01*
X1277581D02*
X1277036Y1200400D01*
X1275400*
X1279581Y1205125D02*
Y1200400D01*
Y1205125D02*
X1281036Y1200400D01*
X1282490Y1205125D02*
X1281036Y1200400D01*
X1282490Y1205125D02*
Y1200400D01*
X1286854Y1204000D02*
X1286672Y1204450D01*
X1286672D02*
X1286309Y1204900D01*
X1285945Y1205125*
X1285218*
X1284854Y1204900*
X1284854D02*
X1284490Y1204450D01*
X1284490D02*
X1284309Y1204000D01*
X1284127Y1203325*
Y1202200*
X1284309Y1201525*
X1284490Y1201075*
X1284490D02*
X1284854Y1200625D01*
X1284854D02*
X1285218Y1200400D01*
X1285945*
X1286309Y1200625*
X1286672Y1201075*
X1286672D02*
X1286854Y1201525D01*
X1288490Y1202425D02*
X1291763D01*
X1295945Y1205125D02*
X1294127Y1200400D01*
X1293400Y1205125D02*
X1295945D01*
X1304490Y1204000D02*
X1304309Y1204450D01*
X1303945Y1204900*
X1303581Y1205125*
X1303581D02*
X1302854D01*
X1302854D02*
X1302490Y1204900D01*
X1302490D02*
X1302127Y1204450D01*
X1301945Y1204000*
X1301763Y1203325*
X1301763D02*
Y1202200D01*
X1301763D02*
X1301945Y1201525D01*
X1302127Y1201075*
X1302490Y1200625*
X1302490D02*
X1302854Y1200400D01*
X1302854D02*
X1303581D01*
X1303581D02*
X1303945Y1200625D01*
X1304309Y1201075*
X1304490Y1201525*
X1307218Y1205125D02*
X1306854Y1204900D01*
X1306854D02*
X1306490Y1204450D01*
X1306490D02*
X1306309Y1204000D01*
X1306127Y1203325*
Y1202200*
X1306309Y1201525*
X1306490Y1201075*
X1306490D02*
X1306854Y1200625D01*
X1306854D02*
X1307218Y1200400D01*
X1307945*
X1308309Y1200625*
X1308672Y1201075*
X1308672D02*
X1308854Y1201525D01*
X1308854D02*
X1309036Y1202200D01*
Y1203325*
X1308854Y1204000*
X1308854D02*
X1308672Y1204450D01*
X1308672D02*
X1308309Y1204900D01*
X1307945Y1205125*
X1307218*
X1310672D02*
Y1200400D01*
Y1205125D02*
X1313218Y1200400D01*
Y1205125D02*
Y1200400D01*
X1316127Y1205125D02*
Y1200400D01*
X1314854Y1205125D02*
X1317400D01*
X1319036D02*
Y1200400D01*
Y1205125D02*
X1320672D01*
X1320672D02*
X1321218Y1204900D01*
X1321400Y1204675*
X1321581Y1204225*
X1321581D02*
Y1203775D01*
X1321581D02*
X1321400Y1203325D01*
X1321218Y1203100*
X1320672Y1202875*
X1320672D02*
X1319036D01*
X1320309D02*
X1321581Y1200400D01*
X1324309Y1205125D02*
X1323945Y1204900D01*
X1323581Y1204450*
X1323581D02*
X1323400Y1204000D01*
X1323218Y1203325*
Y1202200*
X1323400Y1201525*
X1323581Y1201075*
X1323581D02*
X1323945Y1200625D01*
X1324309Y1200400*
X1325036*
X1325400Y1200625*
X1325763Y1201075*
X1325763D02*
X1325945Y1201525D01*
X1326127Y1202200*
Y1203325*
X1325945Y1204000*
X1325763Y1204450*
X1325763D02*
X1325400Y1204900D01*
X1325036Y1205125*
X1324309*
X1327763D02*
Y1200400D01*
X1327763D02*
X1329945D01*
X1275445Y1194450D02*
X1275081Y1194900D01*
X1275081D02*
X1274536Y1195125D01*
X1273809*
X1273263Y1194900*
X1273263D02*
X1272900Y1194450D01*
Y1194000*
X1273081Y1193550*
X1273081D02*
X1273263Y1193325D01*
X1273263D02*
X1273627Y1193100D01*
X1274718Y1192650*
X1275081Y1192425*
X1275081D02*
X1275263Y1192200D01*
X1275263D02*
X1275445Y1191750D01*
Y1191075*
X1275081Y1190625*
X1275081D02*
X1274536Y1190400D01*
X1273809*
X1273263Y1190625*
X1273263D02*
X1272900Y1191075D01*
X1278354Y1195125D02*
Y1190400D01*
X1277081Y1195125D02*
X1279627D01*
X1282718D02*
X1281263Y1190400D01*
X1282718Y1195125D02*
X1284172Y1190400D01*
X1281809Y1191975D02*
X1283627D01*
X1287081Y1195125D02*
Y1190400D01*
X1285809Y1195125D02*
X1288354D01*
X1289990D02*
Y1191750D01*
X1289990D02*
X1290172Y1191075D01*
X1290172D02*
X1290536Y1190625D01*
X1291081Y1190400*
X1291081D02*
X1291445D01*
X1291990Y1190625*
X1291990D02*
X1292354Y1191075D01*
X1292354D02*
X1292536Y1191750D01*
Y1195125*
X1296718Y1194450D02*
X1296354Y1194900D01*
X1296354D02*
X1295809Y1195125D01*
X1295081*
X1295081D02*
X1294536Y1194900D01*
X1294172Y1194450*
X1294172D02*
Y1194000D01*
X1294172D02*
X1294354Y1193550D01*
X1294354D02*
X1294536Y1193325D01*
X1294900Y1193100*
X1295990Y1192650*
X1295990D02*
X1296354Y1192425D01*
X1296354D02*
X1296536Y1192200D01*
X1296718Y1191750*
Y1191075*
X1296354Y1190625*
X1296354D02*
X1295809Y1190400D01*
X1295081*
X1295081D02*
X1294536Y1190625D01*
X1294172Y1191075*
X1302536Y1195125D02*
Y1190400D01*
X1304172Y1195125D02*
Y1190400D01*
Y1195125D02*
X1306718Y1190400D01*
Y1195125D02*
Y1190400D01*
X1309627Y1195125D02*
Y1190400D01*
X1308354Y1195125D02*
X1310900D01*
X1312536D02*
Y1190400D01*
Y1195125D02*
X1314900D01*
X1312536Y1192875D02*
X1313990D01*
X1312536Y1190400D02*
X1314900D01*
X1316536Y1195125D02*
Y1190400D01*
Y1195125D02*
X1318172D01*
X1318172D02*
X1318718Y1194900D01*
X1318900Y1194675*
X1319081Y1194225*
X1319081D02*
Y1193775D01*
X1319081D02*
X1318900Y1193325D01*
X1318718Y1193100*
X1318172Y1192875*
X1318172D02*
X1316536D01*
X1317809D02*
X1319081Y1190400D01*
X1320718Y1195125D02*
Y1190400D01*
Y1195125D02*
X1323081D01*
X1320718Y1192875D02*
X1322172D01*
X1326172Y1195125D02*
X1324718Y1190400D01*
X1326172Y1195125D02*
X1327627Y1190400D01*
X1325263Y1191975D02*
X1327081D01*
X1331990Y1194000D02*
X1331809Y1194450D01*
X1331445Y1194900*
X1331081Y1195125*
X1331081D02*
X1330354D01*
X1330354D02*
X1329990Y1194900D01*
X1329990D02*
X1329627Y1194450D01*
X1329445Y1194000*
X1329263Y1193325*
X1329263D02*
Y1192200D01*
X1329263D02*
X1329445Y1191525D01*
X1329627Y1191075*
X1329990Y1190625*
X1329990D02*
X1330354Y1190400D01*
X1330354D02*
X1331081D01*
X1331081D02*
X1331445Y1190625D01*
X1331809Y1191075*
X1331990Y1191525*
X1333627Y1195125D02*
Y1190400D01*
Y1195125D02*
X1335990D01*
X1333627Y1192875D02*
X1335081D01*
X1333627Y1190400D02*
X1335990D01*
X1395400Y1235125D02*
Y1230400D01*
Y1235125D02*
X1397036D01*
X1397581Y1234900*
X1397581D02*
X1397763Y1234675D01*
X1397763D02*
X1397945Y1234225D01*
Y1233550*
X1397763Y1233100*
X1397763D02*
X1397581Y1232875D01*
X1397581D02*
X1397036Y1232650D01*
X1395400*
X1400672Y1235125D02*
X1400309Y1234900D01*
X1399945Y1234450*
X1399763Y1234000*
X1399763D02*
X1399581Y1233325D01*
X1399581D02*
Y1232200D01*
X1399581D02*
X1399763Y1231525D01*
X1399763D02*
X1399945Y1231075D01*
X1400309Y1230625*
X1400672Y1230400*
X1400672D02*
X1401400D01*
X1401763Y1230625*
X1401763D02*
X1402127Y1231075D01*
X1402309Y1231525*
X1402490Y1232200*
X1402490D02*
Y1233325D01*
X1402490D02*
X1402309Y1234000D01*
X1402127Y1234450*
X1401763Y1234900*
X1401763D02*
X1401400Y1235125D01*
X1400672*
X1404127D02*
Y1230400D01*
X1406309*
X1407945Y1235125D02*
X1409400Y1232875D01*
Y1230400*
X1410854Y1235125D02*
X1409400Y1232875D01*
X1415218Y1234000D02*
X1415036Y1234450D01*
X1414672Y1234900*
X1414672D02*
X1414309Y1235125D01*
X1413581*
X1413581D02*
X1413218Y1234900D01*
X1412854Y1234450*
X1412854D02*
X1412672Y1234000D01*
X1412672D02*
X1412490Y1233325D01*
X1412490D02*
Y1232200D01*
X1412490D02*
X1412672Y1231525D01*
X1412672D02*
X1412854Y1231075D01*
X1412854D02*
X1413218Y1230625D01*
X1413581Y1230400*
X1413581D02*
X1414309D01*
X1414672Y1230625*
X1414672D02*
X1415036Y1231075D01*
X1415218Y1231525*
Y1232200*
X1414309D02*
X1415218D01*
X1417945Y1235125D02*
X1417581Y1234900D01*
X1417581D02*
X1417218Y1234450D01*
X1417036Y1234000*
X1416854Y1233325*
X1416854D02*
Y1232200D01*
X1416854D02*
X1417036Y1231525D01*
X1417218Y1231075*
X1417581Y1230625*
X1417581D02*
X1417945Y1230400D01*
X1418672*
X1418672D02*
X1419036Y1230625D01*
X1419400Y1231075*
X1419581Y1231525*
X1419581D02*
X1419763Y1232200D01*
X1419763D02*
Y1233325D01*
X1419763D02*
X1419581Y1234000D01*
X1419581D02*
X1419400Y1234450D01*
X1419036Y1234900*
X1418672Y1235125*
X1418672D02*
X1417945D01*
X1421400D02*
Y1230400D01*
Y1235125D02*
X1423945Y1230400D01*
Y1235125D02*
Y1230400D01*
X1400400Y1225125D02*
Y1220400D01*
X1402036Y1225125D02*
Y1220400D01*
Y1225125D02*
X1404581Y1220400D01*
Y1225125D02*
Y1220400D01*
X1406218Y1225125D02*
Y1220400D01*
Y1225125D02*
X1407490D01*
X1407490D02*
X1408036Y1224900D01*
X1408400Y1224450*
X1408581Y1224000*
X1408581D02*
X1408763Y1223325D01*
X1408763D02*
Y1222200D01*
X1408763D02*
X1408581Y1221525D01*
X1408581D02*
X1408400Y1221075D01*
X1408036Y1220625*
X1407490Y1220400*
X1407490D02*
X1406218D01*
X1410400Y1225125D02*
Y1220400D01*
Y1225125D02*
X1412763D01*
X1410400Y1222875D02*
X1411854D01*
X1410400Y1220400D02*
X1412763D01*
X1414400Y1225125D02*
X1416945Y1220400D01*
Y1225125D02*
X1414400Y1220400D01*
G54D64*
X1183300Y1133187D02*
Y1130299D01*
Y1133187D02*
X1184322D01*
X1184322D02*
X1184663Y1133049D01*
X1184663D02*
X1184777Y1132912D01*
X1184890Y1132637*
X1184890D02*
Y1132362D01*
X1184890D02*
X1184777Y1132087D01*
X1184663Y1131949*
X1184663D02*
X1184322Y1131812D01*
X1184322D02*
X1183300D01*
X1184095D02*
X1184890Y1130299D01*
X1187050Y1133187D02*
X1185913Y1131262D01*
X1185913D02*
X1187618D01*
X1187050Y1133187D02*
Y1130299D01*
X1183300Y1148187D02*
Y1145299D01*
Y1148187D02*
X1184322D01*
X1184322D02*
X1184663Y1148049D01*
X1184663D02*
X1184777Y1147912D01*
X1184890Y1147637*
X1184890D02*
Y1147362D01*
X1184890D02*
X1184777Y1147087D01*
X1184663Y1146949*
X1184663D02*
X1184322Y1146812D01*
X1184322D02*
X1183300D01*
X1184095D02*
X1184890Y1145299D01*
X1187277Y1147774D02*
X1187163Y1148049D01*
X1187163D02*
X1186822Y1148187D01*
X1186822D02*
X1186595D01*
X1186254Y1148049*
X1186254D02*
X1186027Y1147637D01*
X1185913Y1146949*
X1185913D02*
Y1146262D01*
X1185913D02*
X1186027Y1145712D01*
X1186254Y1145437*
X1186254D02*
X1186595Y1145299D01*
X1186595D02*
X1186709D01*
X1186709D02*
X1187050Y1145437D01*
X1187277Y1145712*
X1187390Y1146124*
X1187390D02*
Y1146262D01*
X1187390D02*
X1187277Y1146674D01*
X1187277D02*
X1187050Y1146949D01*
X1187050D02*
X1186709Y1147087D01*
X1186595*
X1186254Y1146949*
X1186254D02*
X1186027Y1146674D01*
X1186027D02*
X1185913Y1146262D01*
X1183300Y1163187D02*
Y1160299D01*
Y1163187D02*
X1184322D01*
X1184322D02*
X1184663Y1163049D01*
X1184663D02*
X1184777Y1162912D01*
X1184890Y1162637*
X1184890D02*
Y1162362D01*
X1184890D02*
X1184777Y1162087D01*
X1184663Y1161949*
X1184663D02*
X1184322Y1161812D01*
X1184322D02*
X1183300D01*
X1184095D02*
X1184890Y1160299D01*
X1186481Y1163187D02*
X1186140Y1163049D01*
X1186140D02*
X1186027Y1162774D01*
X1186027D02*
Y1162499D01*
X1186027D02*
X1186140Y1162224D01*
X1186140D02*
X1186368Y1162087D01*
X1186822Y1161949*
X1186822D02*
X1187163Y1161812D01*
X1187163D02*
X1187390Y1161537D01*
X1187390D02*
X1187504Y1161262D01*
X1187504D02*
Y1160849D01*
X1187504D02*
X1187390Y1160574D01*
X1187390D02*
X1187277Y1160437D01*
X1186936Y1160299*
X1186936D02*
X1186481D01*
X1186481D02*
X1186140Y1160437D01*
X1186140D02*
X1186027Y1160574D01*
X1186027D02*
X1185913Y1160849D01*
X1185913D02*
Y1161262D01*
X1185913D02*
X1186027Y1161537D01*
X1186254Y1161812*
X1186254D02*
X1186595Y1161949D01*
X1186595D02*
X1187050Y1162087D01*
X1187277Y1162224*
X1187277D02*
X1187390Y1162499D01*
X1187390D02*
Y1162774D01*
X1187390D02*
X1187277Y1163049D01*
X1187277D02*
X1186936Y1163187D01*
X1186481*
X1183300Y1178187D02*
Y1175299D01*
Y1178187D02*
X1184322D01*
X1184322D02*
X1184663Y1178049D01*
X1184663D02*
X1184777Y1177912D01*
X1184890Y1177637*
X1184890D02*
Y1177362D01*
X1184890D02*
X1184777Y1177087D01*
X1184663Y1176949*
X1184663D02*
X1184322Y1176812D01*
X1184322D02*
X1183300D01*
X1184095D02*
X1184890Y1175299D01*
X1185913Y1177637D02*
X1186140Y1177774D01*
X1186140D02*
X1186481Y1178187D01*
X1186481D02*
Y1175299D01*
X1188186Y1178187D02*
X1187845Y1178049D01*
X1187845D02*
X1187618Y1177637D01*
X1187504Y1176949*
X1187504D02*
Y1176537D01*
X1187504D02*
X1187618Y1175849D01*
X1187618D02*
X1187845Y1175437D01*
X1188186Y1175299*
X1188186D02*
X1188413D01*
X1188413D02*
X1188754Y1175437D01*
X1188754D02*
X1188981Y1175849D01*
X1188981D02*
X1189095Y1176537D01*
Y1176949*
X1189095D02*
X1188981Y1177637D01*
X1188981D02*
X1188754Y1178049D01*
X1188754D02*
X1188413Y1178187D01*
X1188413D02*
X1188186D01*
G74*
X0Y0D02*
M02*
