M48
%
T1C.015
X0244Y04435
X02465Y04475
X0244Y04515
X02505Y047
X02555Y047
X0261Y047
X0304Y047
X03095Y047
X03145Y047
X03675Y04445
X03575Y04485
X03875Y04525
X04185Y0465
X04185Y0475
X0563Y05275
X0563Y05125
X055Y04985
X0565Y04885
X057Y04885
X057Y04815
X055Y04765
X0558Y04635
X0558Y04585
X05495Y0455
X0564Y04425
X0586Y04425
X059Y0453
X05745Y0456
X0584Y04645
X0595Y04725
X0585Y04815
X059Y0502
X0575Y0502
X0586Y05275
X06065Y04775
X06015Y0475
X07935Y0465
X07935Y0475
T2C.043
X02675Y04475
X02775Y04475
X02875Y04475
X02825Y0505
X02525Y0505
X02825Y0535
X02825Y0555
X02525Y0555
X03325Y0555
X03625Y0555
X03625Y0535
X03625Y0505
X03325Y0505
X02975Y04475
X04125Y0505
X04425Y0505
X04425Y0535
X04125Y0555
X04425Y0555
X04925Y0555
X04925Y0505
X05085Y04305
X05185Y04305
X05185Y04205
X05085Y04205
X05285Y04205
X05385Y04205
X05485Y04205
X05385Y04305
X05285Y04305
X05485Y04305
X05225Y0505
X05225Y0535
X05225Y0555
X06275Y0555
X06575Y0555
X06575Y0535
X06575Y0505
X06275Y0505
X07075Y0505
X07375Y0505
X07375Y0535
X07075Y0555
X07375Y0555
X07875Y0555
X07875Y0505
X07647Y044681
X078832Y044681
X077651Y044681
X077651Y0435
X07647Y0435
X078832Y0435
X081194Y0435
X080013Y0435
X083556Y0435
X082375Y0435
X081194Y044681
X080013Y044681
X083556Y044681
X082375Y044681
X08175Y0505
X08175Y0535
X08175Y0555
X08675Y0555
X08675Y0505
X084737Y044681
X085918Y044681
X0871Y044681
X085918Y0435
X084737Y0435
X0871Y0435
X08975Y0505
X08975Y0535
X08975Y0555
T3C.059
X0231Y0616
X0294Y0616
X0357Y0616
X042Y0616
X0483Y0616
X0546Y0616
X0609Y0616
X0672Y0616
X0735Y0616
X0798Y0616
X0861Y0616
X0924Y0616
T4C.063
X0241Y0606
X0221Y0606
X0284Y0606
X0241Y0626
X0221Y0626
X0284Y0626
X0304Y0626
X0347Y0626
X0367Y0626
X0367Y0606
X0347Y0606
X0304Y0606
X041Y0606
X043Y0606
X041Y0626
X043Y0626
X0473Y0626
X0493Y0626
X0493Y0606
X0473Y0606
X0536Y0606
X0556Y0606
X0536Y0626
X0556Y0626
X0599Y0626
X0619Y0626
X0662Y0626
X0599Y0606
X0662Y0606
X0619Y0606
X0682Y0606
X0745Y0606
X0725Y0606
X0682Y0626
X0725Y0626
X0745Y0626
X0788Y0626
X0808Y0626
X0808Y0606
X0788Y0606
X0851Y0606
X0871Y0606
X0851Y0626
X0871Y0626
X0914Y0626
X0934Y0626
X0934Y0606
X0914Y0606
T5C.095
X075623Y041799
X087946Y041799
T6C.142
X02236Y04236
X02236Y05654
X09244Y05654
X09244Y04236
M30
