*
*
G04 PADS Layout (Build Number 2005.103.1) generated Gerber (RS-274-X) file*
G04 PC Version=2.1*
*
%IN "7756.pcb"*%
*
%MOIN*%
*
%FSLAX35Y35*%
*
*
*
*
G04 PC Standard Apertures*
*
*
G04 Thermal Relief Aperture macro.*
%AMTER*
1,1,$1,0,0*
1,0,$1-$2,0,0*
21,0,$3,$4,0,0,45*
21,0,$3,$4,0,0,135*
%
*
*
G04 Annular Aperture macro.*
%AMANN*
1,1,$1,0,0*
1,0,$2,0,0*
%
*
*
G04 Odd Aperture macro.*
%AMODD*
1,1,$1,0,0*
1,0,$1-0.005,0,0*
%
*
*
G04 PC Custom Aperture Macros*
*
*
*
*
*
*
G04 PC Aperture Table*
*
%ADD011C,0.1*%
%ADD012R,0.075X0.075*%
%ADD013C,0.075*%
%ADD014C,0.065*%
%ADD018R,0.065X0.065*%
%ADD020C,0.15*%
%ADD030C,0.04*%
%ADD052C,0.01*%
%ADD053C,0.02*%
%ADD054C,0.015*%
%ADD056C,0.05*%
%ADD058C,0.025*%
%ADD074R,0.045X0.071*%
%ADD081R,0.071X0.045*%
%ADD092R,0.057X0.045*%
%ADD138C,0.03*%
%ADD180R,0.064X0.11*%
%ADD193C,0.25*%
%ADD208R,0.138X0.063*%
%ADD209R,0.025X0.087*%
%ADD210R,0.06X0.024*%
%ADD211R,0.045X0.016*%
*
*
*
*
G04 PC Custom Flashes*
G04 Layer Name 7756.pcb - flashes*
%LPD*%
*
*
G04 PC Circuitry*
G04 Layer Name 7756.pcb - circuitry*
%LPD*%
*
G54D11*
G01X1030000Y1006000D03*
X1010000D03*
Y1026000D03*
X1030000D03*
X1020000Y1016000D03*
X967000Y1006000D03*
X947000D03*
Y1026000D03*
X967000D03*
X957000Y1016000D03*
X904000Y1006000D03*
X884000D03*
Y1026000D03*
X904000D03*
X894000Y1016000D03*
X841000Y1006000D03*
X821000D03*
Y1026000D03*
X841000D03*
X831000Y1016000D03*
X1093000Y1006000D03*
X1073000D03*
Y1026000D03*
X1093000D03*
X1083000Y1016000D03*
X1156000Y1006000D03*
X1136000D03*
Y1026000D03*
X1156000D03*
X1146000Y1016000D03*
X1219000Y1006000D03*
X1199000D03*
Y1026000D03*
X1219000D03*
X1209000Y1016000D03*
X1471000Y1006000D03*
X1451000D03*
Y1026000D03*
X1471000D03*
X1461000Y1016000D03*
X1282000Y1006000D03*
X1262000D03*
Y1026000D03*
X1282000D03*
X1272000Y1016000D03*
X1534000Y1006000D03*
X1514000D03*
Y1026000D03*
X1534000D03*
X1524000Y1016000D03*
X1345000Y1006000D03*
X1325000D03*
Y1026000D03*
X1345000D03*
X1335000Y1016000D03*
X1408000Y1006000D03*
X1388000D03*
Y1026000D03*
X1408000D03*
X1398000Y1016000D03*
G54D12*
X852500Y955000D03*
X932500D03*
X1012500D03*
X1092500D03*
X1227500D03*
X1307500D03*
X1387500D03*
X1467500D03*
X1471000Y835000D03*
G54D13*
X852500Y905000D03*
X882500D03*
Y935000D03*
Y955000D03*
X932500Y905000D03*
X962500D03*
Y935000D03*
Y955000D03*
X1012500Y905000D03*
X1042500D03*
Y935000D03*
Y955000D03*
X1092500Y905000D03*
X1122500D03*
Y935000D03*
Y955000D03*
X1227500Y905000D03*
X1257500D03*
Y935000D03*
Y955000D03*
X1307500Y905000D03*
X1337500D03*
Y935000D03*
Y955000D03*
X1387500Y905000D03*
X1417500D03*
Y935000D03*
Y955000D03*
X1467500Y905000D03*
X1497500D03*
Y935000D03*
Y955000D03*
X1459188Y835000D03*
X1447377D03*
X1435566D03*
X1423755D03*
X1411944D03*
X1400133D03*
X1388322D03*
X1376511D03*
X1364700D03*
X1471000Y846811D03*
X1459188D03*
X1447377D03*
X1435566D03*
X1423755D03*
X1411944D03*
X1400133D03*
X1388322D03*
X1376511D03*
X1364700D03*
G54D14*
X1108500Y830500D03*
X1118500Y820500D03*
Y830500D03*
X1128500Y820500D03*
Y830500D03*
X1138500Y820500D03*
Y830500D03*
X1148500Y820500D03*
Y830500D03*
X877500Y847500D03*
X887500D03*
X897500D03*
G54D18*
X1108500Y820500D03*
X867500Y847500D03*
G54D20*
X1356236Y817992D03*
X1479464D03*
G54D30*
X810000Y810000D03*
Y995000D03*
X1540000D03*
G54D52*
X800000Y800000D02*
X1548000D01*
Y1036200*
X800000*
Y800000*
G54D53*
X1144181Y792812D02*
Y781000D01*
X1141000Y792812D02*
X1147363D01*
X1154181D02*
X1153272Y792250D01*
X1153272D02*
X1152363Y791125D01*
X1152363D02*
X1151909Y790000D01*
X1151454Y788312*
X1151454D02*
Y785500D01*
X1151454D02*
X1151909Y783812D01*
X1151909D02*
X1152363Y782687D01*
X1152363D02*
X1153272Y781562D01*
X1153272D02*
X1154181Y781000D01*
X1154181D02*
X1156000D01*
X1156909Y781562*
X1156909D02*
X1157818Y782687D01*
X1157818D02*
X1158272Y783812D01*
X1158272D02*
X1158727Y785500D01*
Y788312*
X1158727D02*
X1158272Y790000D01*
X1158272D02*
X1157818Y791125D01*
X1156909Y792250*
X1156000Y792812*
X1156000D02*
X1154181D01*
X1162818D02*
Y781000D01*
Y792812D02*
X1166909D01*
X1166909D02*
X1168272Y792250D01*
X1168272D02*
X1168727Y791687D01*
X1168727D02*
X1169181Y790562D01*
X1169181D02*
Y788875D01*
X1169181D02*
X1168727Y787750D01*
X1168272Y787187*
X1168272D02*
X1166909Y786625D01*
X1162818*
X1190090Y791125D02*
X1189181Y792250D01*
X1189181D02*
X1187818Y792812D01*
X1187818D02*
X1186000D01*
X1186000D02*
X1184636Y792250D01*
X1183727Y791125*
Y790000*
X1184181Y788875*
X1184181D02*
X1184636Y788312D01*
X1184636D02*
X1185545Y787750D01*
X1188272Y786625*
X1188272D02*
X1189181Y786062D01*
X1189181D02*
X1189636Y785500D01*
X1190090Y784375*
X1190090D02*
Y782687D01*
X1190090D02*
X1189181Y781562D01*
X1189181D02*
X1187818Y781000D01*
X1186000*
X1184636Y781562*
X1184636D02*
X1183727Y782687D01*
X1194181Y792812D02*
Y781000D01*
X1198272Y792812D02*
Y781000D01*
Y792812D02*
X1201454D01*
X1201454D02*
X1202818Y792250D01*
X1203727Y791125*
X1204181Y790000*
X1204181D02*
X1204636Y788312D01*
X1204636D02*
Y785500D01*
X1204181Y783812*
X1204181D02*
X1203727Y782687D01*
X1203727D02*
X1202818Y781562D01*
X1202818D02*
X1201454Y781000D01*
X1201454D02*
X1198272D01*
X1208727Y792812D02*
Y781000D01*
Y792812D02*
X1214636D01*
X1208727Y787187D02*
X1212363D01*
X1208727Y781000D02*
X1214636D01*
X1116909Y767812D02*
X1121909D01*
X1121909D02*
X1119181Y763312D01*
X1119181D02*
X1120545D01*
X1120545D02*
X1121454Y762750D01*
X1121454D02*
X1121909Y762187D01*
X1121909D02*
X1122363Y760500D01*
X1122363D02*
Y759375D01*
X1122363D02*
X1121909Y757687D01*
X1121909D02*
X1121000Y756562D01*
X1121000D02*
X1119636Y756000D01*
X1118272*
X1118272D02*
X1116909Y756562D01*
X1116909D02*
X1116454Y757125D01*
X1116454D02*
X1116000Y758250D01*
X1126454Y765562D02*
X1127363Y766125D01*
X1127363D02*
X1128727Y767812D01*
X1128727D02*
Y756000D01*
X1132818Y761062D02*
X1141000D01*
X1147818Y767812D02*
X1146454Y767250D01*
X1146454D02*
X1145545Y765562D01*
X1145545D02*
X1145090Y762750D01*
X1145090D02*
Y761062D01*
X1145090D02*
X1145545Y758250D01*
X1146454Y756562*
X1146454D02*
X1147818Y756000D01*
X1148727*
X1150090Y756562*
X1150090D02*
X1151000Y758250D01*
X1151454Y761062*
X1151454D02*
Y762750D01*
X1151454D02*
X1151000Y765562D01*
X1151000D02*
X1150090Y767250D01*
X1150090D02*
X1148727Y767812D01*
X1148727D02*
X1147818D01*
X1158272D02*
X1156909Y767250D01*
X1156000Y765562*
X1156000D02*
X1155545Y762750D01*
Y761062*
X1155545D02*
X1156000Y758250D01*
X1156909Y756562*
X1156909D02*
X1158272Y756000D01*
X1158272D02*
X1159181D01*
X1159181D02*
X1160545Y756562D01*
X1160545D02*
X1161454Y758250D01*
X1161454D02*
X1161909Y761062D01*
X1161909D02*
Y762750D01*
X1161454Y765562*
X1161454D02*
X1160545Y767250D01*
X1159181Y767812*
X1159181D02*
X1158272D01*
X1168727D02*
X1167363Y767250D01*
X1167363D02*
X1166454Y765562D01*
X1166454D02*
X1166000Y762750D01*
Y761062*
X1166000D02*
X1166454Y758250D01*
X1166454D02*
X1167363Y756562D01*
X1167363D02*
X1168727Y756000D01*
X1169636*
X1171000Y756562*
X1171000D02*
X1171909Y758250D01*
X1172363Y761062*
X1172363D02*
Y762750D01*
X1172363D02*
X1171909Y765562D01*
X1171909D02*
X1171000Y767250D01*
X1169636Y767812*
X1169636D02*
X1168727D01*
X1182363D02*
X1177818D01*
X1177818D02*
X1177363Y762750D01*
X1177363D02*
X1177818Y763312D01*
X1177818D02*
X1179181Y763875D01*
X1179181D02*
X1180545D01*
X1181909Y763312*
X1181909D02*
X1182818Y762187D01*
X1182818D02*
X1183272Y760500D01*
X1183272D02*
X1182818Y759375D01*
X1182363Y757687*
X1182363D02*
X1181454Y756562D01*
X1181454D02*
X1180090Y756000D01*
X1180090D02*
X1178727D01*
X1177363Y756562*
X1177363D02*
X1176909Y757125D01*
X1176454Y758250*
X1197818Y767812D02*
Y756000D01*
Y767812D02*
X1201909D01*
X1201909D02*
X1203272Y767250D01*
X1203272D02*
X1203727Y766687D01*
X1203727D02*
X1204181Y765562D01*
X1204181D02*
Y764437D01*
X1204181D02*
X1203727Y763312D01*
X1203727D02*
X1203272Y762750D01*
X1203272D02*
X1201909Y762187D01*
X1201909D02*
X1197818D01*
X1201000D02*
X1204181Y756000D01*
X1208272Y767812D02*
Y756000D01*
Y767812D02*
X1214181D01*
X1208272Y762187D02*
X1211909D01*
X1208272Y756000D02*
X1214181D01*
X1218272Y767812D02*
X1221909Y756000D01*
X1225545Y767812D02*
X1221909Y756000D01*
X1240090Y765562D02*
X1241000Y766125D01*
X1242363Y767812*
X1242363D02*
Y756000D01*
G54D54*
X1376511Y835000D02*
X1383511Y828000D01*
X1383511D02*
X1415000D01*
X1418000Y831000*
Y851500*
X1426000Y859500*
X1496500*
X1508000Y871000*
Y944500*
X1400133Y835000D02*
X1406000Y840866D01*
Y852000*
X1421000Y867000*
X1466500*
X1478000Y878500*
Y911000*
X967500Y844500D02*
Y859764D01*
X957500Y848500D02*
Y859764D01*
X987500Y852500D02*
Y859764D01*
X977500D02*
Y854000D01*
X979000Y852500*
X987500*
X1158000Y863500D02*
X1161000Y861339D01*
X1167125*
X1149500Y855000D02*
X1160280D01*
X1161500Y856220*
X1167125*
X1158000Y858500D02*
Y858780D01*
X1167125*
X1143500Y875000D02*
X1147000Y871500D01*
X1160000*
Y874764*
X1143500Y875000D02*
Y906000D01*
X1154000Y916500*
X1169094*
Y916240*
X1167125Y853661D02*
X1168500D01*
Y842500*
X1169192*
X1170000Y874764D02*
Y881500D01*
X1165000Y874764D02*
Y869000D01*
X1166500Y867500*
X1177500*
X1160000Y874764D02*
Y867500D01*
X1163000Y864500*
X1172500*
X1174500Y862500*
Y856000*
X1176839Y853661*
X1182874*
X1201500Y875000D02*
X1219000Y857500D01*
X1332500*
Y859764*
X1177500Y867500D02*
Y858220D01*
X1179500Y856220*
X1182874*
X1177500Y867500D02*
X1180000Y872000D01*
Y874764*
X1182874Y861339D02*
X1184000D01*
Y864500*
X1182874Y858780D02*
X1203000D01*
X1210780Y851000*
X1340000*
X1342500Y853500*
Y859764*
X1182874Y856220D02*
X1186500D01*
X1190000Y853000*
X1185000Y874764D02*
Y881500D01*
X1175000Y874764D02*
Y882500D01*
X1178000Y885500*
X1194500*
X1197500Y888500*
Y911500*
X1352500Y867500D02*
X1360500D01*
X1362500Y865500*
Y859764*
X1352500D02*
Y867500D01*
X1165000Y888500D02*
Y895236D01*
X1170000Y888500D02*
X1179000D01*
X1180000Y889500*
Y895236*
X1163000Y912500D02*
X1169094D01*
X1165000Y895236D02*
Y901500D01*
X1167500Y904000*
Y908760*
X1169094*
X1170000Y895236D02*
Y888500D01*
X1206500Y877500D02*
X1216500Y867500D01*
X1352500*
X1175000Y913500D02*
X1176000Y912500D01*
X1180906*
X1175000Y913500D02*
Y920500D01*
X1180000Y925500*
Y927500*
X1180807*
X1180906Y908760D02*
X1183000D01*
Y905000*
X1185000Y903000*
Y895236*
X1175000D02*
Y902000D01*
X1190000Y895236D02*
Y902000D01*
X1042500Y955000D02*
X1060500D01*
X1106249Y909250*
X1106249D02*
Y875250D01*
X1106249D02*
X1139500Y842000D01*
X1148500*
X1158500Y832000*
X1219000*
X1224000Y837000*
X1353500*
X1368500Y822000*
X1434377*
X1434377D02*
X1447377Y835000D01*
X1122500Y955000D02*
X1135000Y942500D01*
Y854500*
X1144000Y845500*
X1150500*
X1160500Y835500*
X1216500*
X1221500Y840500*
X1368000*
X1370500Y838000*
Y828000*
X1373500Y825000*
X1421755*
X1421755D02*
X1423755Y827000D01*
X1423755D02*
Y835000D01*
X1180906Y916240D02*
Y916500D01*
X1192500*
X1197500Y911500*
X1417500Y955000D02*
X1434000D01*
X1478000Y911000*
X1497500Y955000D02*
X1508000Y944500D01*
G54D56*
X823600Y823600D02*
X842200Y805000D01*
X1505800*
X1524400Y823600*
Y965400*
X823600Y847500D02*
Y823600D01*
X850500Y870000D02*
X855500D01*
X861000*
X871476*
X887500Y847500D02*
Y856000D01*
X889500Y858000*
Y870000*
X893523*
X867500Y847500D02*
Y870000D01*
X871476*
X875500*
Y858000*
X877500Y856000*
Y847500*
X904000Y870000D02*
X909500D01*
X914500*
X893523D02*
X897500D01*
Y847500*
X893523Y870000D02*
X904000D01*
X962500Y905000D02*
X980000Y922500D01*
Y953500*
X1010000Y983500*
X1030500*
X1063000Y1016000*
X1083000*
X1337500Y905000D02*
X1357500Y925000D01*
Y953000*
X1379000Y974500*
X1410000*
X1428000Y992500*
Y1003000*
X1441000Y1016000*
X1461000*
X1107500Y928500D02*
X1122500Y913500D01*
Y905000*
X1107500Y928500D02*
Y963500D01*
X1136000Y992000*
Y1006000*
X1483000Y930000D02*
X1497500Y915500D01*
Y905000*
X1483000Y930000D02*
Y975000D01*
X1514000Y1006000*
X823600Y965400D02*
Y847500D01*
X1093000Y1006000D02*
X1109500D01*
X1110000Y1005500*
X1120500Y1016000*
X1146000*
X1471000Y1006000D02*
X1487500D01*
X1497500Y1016000*
X1524000*
G54D58*
X823600Y847500D02*
X826988D01*
X846500D02*
X838011D01*
X838011D02*
Y851500D01*
X838011D02*
X844000D01*
X838011Y847500D02*
Y843500D01*
X838011D02*
X844000D01*
X997000Y875000D02*
X1002500D01*
Y875807*
X997000Y875000D02*
X1012500D01*
X998000Y865000D02*
X1002500D01*
Y864192*
X998000Y865000D02*
X1012500D01*
X992500Y859764D02*
Y863000D01*
X994500Y865000*
X998000*
X1018500D02*
X1012500D01*
Y866555*
X1018500Y875000D02*
X1012500D01*
Y873444*
X1164000Y842500D02*
X1169192D01*
X1190000Y874764D02*
Y872500D01*
X1195000*
X1180807Y842500D02*
X1186000D01*
X1367500Y859764D02*
Y863000D01*
X1369500Y865000*
X1377500*
Y864192*
X1387500Y865000D02*
X1377000D01*
Y864692*
X1377000D02*
X1377500Y864192D01*
X1387500Y875000D02*
X1393500D01*
X1372000D02*
X1377500D01*
Y875807*
X1372000Y875000D02*
X1387500D01*
Y866555D02*
Y865000D01*
X1393500*
X1387500Y873444D02*
Y875000D01*
X852500Y905000D02*
X875000Y882500D01*
X957500*
Y880236*
X932500Y905000D02*
X947500Y890000D01*
X965000*
X967500Y887500*
Y880236*
X977500D02*
Y890000D01*
X992500Y905000*
X1012500*
X987500Y880236D02*
Y887500D01*
X990000Y890000*
X1077500*
X1092500Y905000*
X992500Y880236D02*
Y877000D01*
X994500Y875000*
X997000*
X1150000Y876500D02*
Y881692D01*
Y898500D02*
Y893307D01*
Y893500*
X1160000*
Y895236*
X1227500Y905000D02*
X1250000Y882500D01*
X1332500*
Y880236*
X1307500Y905000D02*
X1322500Y890000D01*
X1340000*
X1342500Y887500*
Y880236*
X1352500D02*
Y890000D01*
X1367500Y905000*
X1387500*
X1362500Y880236D02*
Y887500D01*
X1365000Y890000*
X1452500*
X1467500Y905000*
X1367500Y880236D02*
Y877000D01*
X1369500Y875000*
X1372000*
X1163000Y927500D02*
X1169192D01*
X1180807D02*
X1186000D01*
G54D74*
X1169192D03*
X1180807D03*
Y842500D03*
X1169192D03*
G54D81*
X1002500Y864192D03*
Y875807D03*
X1377500Y864192D03*
Y875807D03*
X1150000Y881692D03*
Y893307D03*
G54D92*
X1012500Y873444D03*
Y866555D03*
X1387500Y873444D03*
Y866555D03*
G54D138*
X844000Y843500D03*
X846500Y847500D03*
X850500Y870000D03*
X844000Y851500D03*
X855500Y870000D03*
X861000D03*
X904000D03*
X909500D03*
X914500D03*
X967500Y844500D03*
X957500Y848500D03*
X987500Y852500D03*
X1018500Y865000D03*
Y875000D03*
X1158000Y863500D03*
X1149500Y855000D03*
X1158000Y858500D03*
X1164000Y842500D03*
X1174500Y856000D03*
X1201500Y875000D03*
X1190000Y853000D03*
X1186000Y842500D03*
X1184000Y864500D03*
X1195000Y872500D03*
X1393500Y865000D03*
Y875000D03*
X1165000Y888500D03*
X1170000D03*
Y881500D03*
X1163000Y912500D03*
X1150000Y876500D03*
Y898500D03*
X1206500Y877500D03*
X1190000Y902000D03*
X1185000Y881500D03*
X1175000Y902000D03*
X1163000Y927500D03*
X1186000D03*
G54D180*
X838011Y847500D03*
X826988D03*
G54D193*
X823600Y823600D03*
X1524400D03*
Y965400D03*
X823600D03*
G54D208*
X871476Y870000D03*
X893523D03*
G54D209*
X957500Y859764D03*
X962500D03*
X967500D03*
X972500D03*
X977500D03*
X982500D03*
X987500D03*
X992500D03*
Y880236D03*
X987500D03*
X982500D03*
X977500D03*
X972500D03*
X967500D03*
X962500D03*
X957500D03*
X1332500Y859764D03*
X1337500D03*
X1342500D03*
X1347500D03*
X1352500D03*
X1357500D03*
X1362500D03*
X1367500D03*
Y880236D03*
X1362500D03*
X1357500D03*
X1352500D03*
X1347500D03*
X1342500D03*
X1337500D03*
X1332500D03*
X1160000Y874764D03*
X1165000D03*
X1170000D03*
X1175000D03*
X1180000D03*
X1185000D03*
X1190000D03*
Y895236D03*
X1185000D03*
X1180000D03*
X1175000D03*
X1170000D03*
X1165000D03*
X1160000D03*
G54D210*
X1169094Y916240D03*
Y912500D03*
Y908760D03*
X1180906D03*
Y912500D03*
Y916240D03*
G54D211*
X1182874Y853661D03*
Y856220D03*
Y858780D03*
Y861339D03*
X1167125D03*
Y858780D03*
Y856220D03*
Y853661D03*
X0Y0D02*
M02*
