*
*
G04 PADS Layout (Build Number 2005.103.1) generated Gerber (RS-274-X) file*
G04 PC Version=2.1*
*
%IN "7756.pcb"*%
*
%MOIN*%
*
%FSLAX35Y35*%
*
*
*
*
G04 PC Standard Apertures*
*
*
G04 Thermal Relief Aperture macro.*
%AMTER*
1,1,$1,0,0*
1,0,$1-$2,0,0*
21,0,$3,$4,0,0,45*
21,0,$3,$4,0,0,135*
%
*
*
G04 Annular Aperture macro.*
%AMANN*
1,1,$1,0,0*
1,0,$2,0,0*
%
*
*
G04 Odd Aperture macro.*
%AMODD*
1,1,$1,0,0*
1,0,$1-0.005,0,0*
%
*
*
G04 PC Custom Aperture Macros*
*
*
*
*
*
*
G04 PC Aperture Table*
*
%ADD013C,0.075*%
%ADD014C,0.065*%
%ADD052C,0.01*%
%ADD053C,0.02*%
%ADD058C,0.025*%
%ADD064C,0.006*%
%ADD138C,0.03*%
*
*
*
*
G04 PC Custom Flashes*
G04 Layer Name 7756.pcb - flashes*
%LPD*%
*
*
G04 PC Circuitry*
G04 Layer Name 7756.pcb - circuitry*
%LPD*%
*
G54D13*
G01X852500Y955000D03*
X932500D03*
X1012500D03*
X1092500D03*
X1227500D03*
X1307500D03*
X1387500D03*
X1467500D03*
G54D14*
X1108500Y820500D03*
Y830500D03*
X867500Y847500D03*
X877500D03*
G54D52*
X800000Y800000D02*
X1548000D01*
Y1036200*
X800000*
Y800000*
G54D53*
X1116909Y767812D02*
X1121909D01*
X1121909D02*
X1119181Y763312D01*
X1119181D02*
X1120545D01*
X1120545D02*
X1121454Y762750D01*
X1121454D02*
X1121909Y762187D01*
X1121909D02*
X1122363Y760500D01*
X1122363D02*
Y759375D01*
X1122363D02*
X1121909Y757687D01*
X1121909D02*
X1121000Y756562D01*
X1121000D02*
X1119636Y756000D01*
X1118272*
X1118272D02*
X1116909Y756562D01*
X1116909D02*
X1116454Y757125D01*
X1116454D02*
X1116000Y758250D01*
X1126454Y765562D02*
X1127363Y766125D01*
X1127363D02*
X1128727Y767812D01*
X1128727D02*
Y756000D01*
X1132818Y761062D02*
X1141000D01*
X1147818Y767812D02*
X1146454Y767250D01*
X1146454D02*
X1145545Y765562D01*
X1145545D02*
X1145090Y762750D01*
X1145090D02*
Y761062D01*
X1145090D02*
X1145545Y758250D01*
X1146454Y756562*
X1146454D02*
X1147818Y756000D01*
X1148727*
X1150090Y756562*
X1150090D02*
X1151000Y758250D01*
X1151454Y761062*
X1151454D02*
Y762750D01*
X1151454D02*
X1151000Y765562D01*
X1151000D02*
X1150090Y767250D01*
X1150090D02*
X1148727Y767812D01*
X1148727D02*
X1147818D01*
X1158272D02*
X1156909Y767250D01*
X1156000Y765562*
X1156000D02*
X1155545Y762750D01*
Y761062*
X1155545D02*
X1156000Y758250D01*
X1156909Y756562*
X1156909D02*
X1158272Y756000D01*
X1158272D02*
X1159181D01*
X1159181D02*
X1160545Y756562D01*
X1160545D02*
X1161454Y758250D01*
X1161454D02*
X1161909Y761062D01*
X1161909D02*
Y762750D01*
X1161454Y765562*
X1161454D02*
X1160545Y767250D01*
X1159181Y767812*
X1159181D02*
X1158272D01*
X1168727D02*
X1167363Y767250D01*
X1167363D02*
X1166454Y765562D01*
X1166454D02*
X1166000Y762750D01*
Y761062*
X1166000D02*
X1166454Y758250D01*
X1166454D02*
X1167363Y756562D01*
X1167363D02*
X1168727Y756000D01*
X1169636*
X1171000Y756562*
X1171000D02*
X1171909Y758250D01*
X1172363Y761062*
X1172363D02*
Y762750D01*
X1172363D02*
X1171909Y765562D01*
X1171909D02*
X1171000Y767250D01*
X1169636Y767812*
X1169636D02*
X1168727D01*
X1182363D02*
X1177818D01*
X1177818D02*
X1177363Y762750D01*
X1177363D02*
X1177818Y763312D01*
X1177818D02*
X1179181Y763875D01*
X1179181D02*
X1180545D01*
X1181909Y763312*
X1181909D02*
X1182818Y762187D01*
X1182818D02*
X1183272Y760500D01*
X1183272D02*
X1182818Y759375D01*
X1182363Y757687*
X1182363D02*
X1181454Y756562D01*
X1181454D02*
X1180090Y756000D01*
X1180090D02*
X1178727D01*
X1177363Y756562*
X1177363D02*
X1176909Y757125D01*
X1176454Y758250*
X1197818Y767812D02*
Y756000D01*
Y767812D02*
X1201909D01*
X1201909D02*
X1203272Y767250D01*
X1203272D02*
X1203727Y766687D01*
X1203727D02*
X1204181Y765562D01*
X1204181D02*
Y764437D01*
X1204181D02*
X1203727Y763312D01*
X1203727D02*
X1203272Y762750D01*
X1203272D02*
X1201909Y762187D01*
X1201909D02*
X1197818D01*
X1201000D02*
X1204181Y756000D01*
X1208272Y767812D02*
Y756000D01*
Y767812D02*
X1214181D01*
X1208272Y762187D02*
X1211909D01*
X1208272Y756000D02*
X1214181D01*
X1218272Y767812D02*
X1221909Y756000D01*
X1225545Y767812D02*
X1221909Y756000D01*
X1240090Y765562D02*
X1241000Y766125D01*
X1242363Y767812*
X1242363D02*
Y756000D01*
X1111000Y792812D02*
Y781000D01*
X1116454*
X1124181Y792812D02*
X1120545Y781000D01*
X1124181Y792812D02*
X1127818Y781000D01*
X1121909Y784937D02*
X1126454D01*
X1131909Y792812D02*
X1135545Y787187D01*
X1135545D02*
Y781000D01*
X1139181Y792812D02*
X1135545Y787187D01*
X1143272Y792812D02*
Y781000D01*
Y792812D02*
X1149181D01*
X1143272Y787187D02*
X1146909D01*
X1143272Y781000D02*
X1149181D01*
X1153272Y792812D02*
Y781000D01*
Y792812D02*
X1157363D01*
X1157363D02*
X1158727Y792250D01*
X1159181Y791687*
X1159181D02*
X1159636Y790562D01*
X1159636D02*
Y789437D01*
X1159636D02*
X1159181Y788312D01*
X1159181D02*
X1158727Y787750D01*
X1157363Y787187*
X1157363D02*
X1153272D01*
X1156454D02*
X1159636Y781000D01*
X1175090Y792812D02*
X1180090D01*
X1180090D02*
X1177363Y788312D01*
X1177363D02*
X1178727D01*
X1178727D02*
X1179636Y787750D01*
X1180090Y787187*
X1180090D02*
X1180545Y785500D01*
Y784375*
X1180090Y782687*
X1180090D02*
X1179181Y781562D01*
X1179181D02*
X1177818Y781000D01*
X1176454*
X1176454D02*
X1175090Y781562D01*
X1175090D02*
X1174636Y782125D01*
X1174181Y783250*
X1195090Y792812D02*
Y781000D01*
Y792812D02*
X1199181D01*
X1199181D02*
X1200545Y792250D01*
X1201000Y791687*
X1201000D02*
X1201454Y790562D01*
X1201454D02*
Y788875D01*
X1201454D02*
X1201000Y787750D01*
X1200545Y787187*
X1200545D02*
X1199181Y786625D01*
X1199181D02*
X1195090D01*
X1208272Y792812D02*
X1207363Y792250D01*
X1207363D02*
X1206454Y791125D01*
X1206454D02*
X1206000Y790000D01*
X1205545Y788312*
X1205545D02*
Y785500D01*
X1206000Y783812*
X1206000D02*
X1206454Y782687D01*
X1206454D02*
X1207363Y781562D01*
X1207363D02*
X1208272Y781000D01*
X1208272D02*
X1210090D01*
X1210090D02*
X1211000Y781562D01*
X1211000D02*
X1211909Y782687D01*
X1211909D02*
X1212363Y783812D01*
X1212363D02*
X1212818Y785500D01*
Y788312*
X1212818D02*
X1212363Y790000D01*
X1212363D02*
X1211909Y791125D01*
X1211000Y792250*
X1210090Y792812*
X1210090D02*
X1208272D01*
X1216909D02*
X1219181Y781000D01*
X1221454Y792812D02*
X1219181Y781000D01*
X1221454Y792812D02*
X1223727Y781000D01*
X1226000Y792812D02*
X1223727Y781000D01*
X1230090Y792812D02*
Y781000D01*
Y792812D02*
X1236000D01*
X1230090Y787187D02*
X1233727D01*
X1230090Y781000D02*
X1236000D01*
X1240090Y792812D02*
Y781000D01*
Y792812D02*
X1244181D01*
X1244181D02*
X1245545Y792250D01*
X1246000Y791687*
X1246000D02*
X1246454Y790562D01*
X1246454D02*
Y789437D01*
X1246454D02*
X1246000Y788312D01*
X1246000D02*
X1245545Y787750D01*
X1244181Y787187*
X1244181D02*
X1240090D01*
X1243272D02*
X1246454Y781000D01*
X880540Y850540D02*
X879798Y849798D01*
X874459Y850540D02*
X875201Y849798D01*
X874459Y844459D02*
X875201Y845201D01*
X880540Y844459D02*
X879798Y845201D01*
X870540Y850540D02*
X869798Y849798D01*
X864459Y850540D02*
X865201Y849798D01*
X864459Y844459D02*
X865201Y845201D01*
X870540Y844459D02*
X869798Y845201D01*
X1111540Y823540D02*
X1110798Y822798D01*
X1105459Y823540D02*
X1106201Y822798D01*
X1105459Y817459D02*
X1106201Y818201D01*
X1111540Y817459D02*
X1110798Y818201D01*
X1111540Y833540D02*
X1110798Y832798D01*
X1105459Y833540D02*
X1106201Y832798D01*
X1105459Y827459D02*
X1106201Y828201D01*
X1111540Y827459D02*
X1110798Y828201D01*
G54D58*
X1390894Y951605D02*
X1390151Y952348D01*
X1390894Y958394D02*
X1390151Y957651D01*
X1384105Y958394D02*
X1384848Y957651D01*
X1384105Y951605D02*
X1384848Y952348D01*
X1470894Y951605D02*
X1470151Y952348D01*
X1470894Y958394D02*
X1470151Y957651D01*
X1464105Y958394D02*
X1464848Y957651D01*
X1464105Y951605D02*
X1464848Y952348D01*
X1310894Y951605D02*
X1310151Y952348D01*
X1310894Y958394D02*
X1310151Y957651D01*
X1304105Y958394D02*
X1304848Y957651D01*
X1304105Y951605D02*
X1304848Y952348D01*
X1015894Y951605D02*
X1015151Y952348D01*
X1015894Y958394D02*
X1015151Y957651D01*
X1009105Y958394D02*
X1009848Y957651D01*
X1009105Y951605D02*
X1009848Y952348D01*
X1230894Y951605D02*
X1230151Y952348D01*
X1230894Y958394D02*
X1230151Y957651D01*
X1224105Y958394D02*
X1224848Y957651D01*
X1224105Y951605D02*
X1224848Y952348D01*
X855894Y951605D02*
X855151Y952348D01*
X855894Y958394D02*
X855151Y957651D01*
X849105Y958394D02*
X849848Y957651D01*
X849105Y951605D02*
X849848Y952348D01*
X935894Y951605D02*
X935151Y952348D01*
X935894Y958394D02*
X935151Y957651D01*
X929105Y958394D02*
X929848Y957651D01*
X929105Y951605D02*
X929848Y952348D01*
X1095894Y951605D02*
X1095151Y952348D01*
X1095894Y958394D02*
X1095151Y957651D01*
X1089105Y958394D02*
X1089848Y957651D01*
X1089105Y951605D02*
X1089848Y952348D01*
G54D64*
X1537200Y823600D02*
G75*
G03X1537200I-12800J0D01*
G01Y965400D02*
G03X1537200I-12800J0D01*
G01X1539300Y1006000D02*
G03X1539300I-5300J0D01*
G01X1519300D02*
G03X1519300I-5300J0D01*
G01X1529300Y1016000D02*
G03X1529300I-5300J0D01*
G01X1539300Y1026000D02*
G03X1539300I-5300J0D01*
G01X1519300D02*
G03X1519300I-5300J0D01*
G01X1501550Y905000D02*
G03X1501550I-4050J0D01*
G01Y935000D02*
G03X1501550I-4050J0D01*
G01Y955000D02*
G03X1501550I-4050J0D01*
G01X1487264Y817992D02*
G03X1487264I-7799J0D01*
G01X1475050Y835000D02*
G03X1475050I-4050J0D01*
G01Y846811D02*
G03X1475050I-4050J0D01*
G01X1471550Y905000D02*
G03X1471550I-4050J0D01*
G01X1463238Y835000D02*
G03X1463238I-4049J0D01*
G01Y846811D02*
G03X1463238I-4049J0D01*
G01X1472300Y955000D02*
G03X1472300I-4800J0D01*
G01X1476300Y1006000D02*
G03X1476300I-5300J0D01*
G01X1451427Y835000D02*
G03X1451427I-4049J0D01*
G01Y846811D02*
G03X1451427I-4049J0D01*
G01X1456300Y1006000D02*
G03X1456300I-5300J0D01*
G01X1466300Y1016000D02*
G03X1466300I-5300J0D01*
G01X1476300Y1026000D02*
G03X1476300I-5300J0D01*
G01X1456300D02*
G03X1456300I-5300J0D01*
G01X1439616Y835000D02*
G03X1439616I-4049J0D01*
G01Y846811D02*
G03X1439616I-4049J0D01*
G01X1427805Y835000D02*
G03X1427805I-4049J0D01*
G01Y846811D02*
G03X1427805I-4049J0D01*
G01X1415994Y835000D02*
G03X1415994I-4049J0D01*
G01Y846811D02*
G03X1415994I-4049J0D01*
G01X1421550Y905000D02*
G03X1421550I-4050J0D01*
G01Y935000D02*
G03X1421550I-4050J0D01*
G01Y955000D02*
G03X1421550I-4050J0D01*
G01X1404183Y835000D02*
G03X1404183I-4049J0D01*
G01Y846811D02*
G03X1404183I-4049J0D01*
G01X1413300Y1006000D02*
G03X1413300I-5300J0D01*
G01X1392372Y835000D02*
G03X1392372I-4049J0D01*
G01Y846811D02*
G03X1392372I-4049J0D01*
G01X1395800Y865000D02*
G03X1395800I-2300J0D01*
G01X1391550Y905000D02*
G03X1391550I-4050J0D01*
G01X1392300Y955000D02*
G03X1392300I-4800J0D01*
G01X1393300Y1006000D02*
G03X1393300I-5300J0D01*
G01X1403300Y1016000D02*
G03X1403300I-5300J0D01*
G01X1413300Y1026000D02*
G03X1413300I-5300J0D01*
G01X1393300D02*
G03X1393300I-5300J0D01*
G01X1380561Y835000D02*
G03X1380561I-4049J0D01*
G01Y846811D02*
G03X1380561I-4049J0D01*
G01X1364036Y817992D02*
G03X1364036I-7799J0D01*
G01X1368750Y835000D02*
G03X1368750I-4049J0D01*
G01Y846811D02*
G03X1368750I-4049J0D01*
G01X1341550Y905000D02*
G03X1341550I-4050J0D01*
G01Y935000D02*
G03X1341550I-4050J0D01*
G01Y955000D02*
G03X1341550I-4050J0D01*
G01X1350300Y1006000D02*
G03X1350300I-5300J0D01*
G01X1330300D02*
G03X1330300I-5300J0D01*
G01X1340300Y1016000D02*
G03X1340300I-5300J0D01*
G01X1350300Y1026000D02*
G03X1350300I-5300J0D01*
G01X1330300D02*
G03X1330300I-5300J0D01*
G01X1311550Y905000D02*
G03X1311550I-4050J0D01*
G01X1312300Y955000D02*
G03X1312300I-4800J0D01*
G01X1287300Y1006000D02*
G03X1287300I-5300J0D01*
G01X1261550Y905000D02*
G03X1261550I-4050J0D01*
G01Y935000D02*
G03X1261550I-4050J0D01*
G01Y955000D02*
G03X1261550I-4050J0D01*
G01X1267300Y1006000D02*
G03X1267300I-5300J0D01*
G01X1277300Y1016000D02*
G03X1277300I-5300J0D01*
G01X1287300Y1026000D02*
G03X1287300I-5300J0D01*
G01X1267300D02*
G03X1267300I-5300J0D01*
G01X1231550Y905000D02*
G03X1231550I-4050J0D01*
G01X1232300Y955000D02*
G03X1232300I-4800J0D01*
G01X1224300Y1006000D02*
G03X1224300I-5300J0D01*
G01X1208800Y877500D02*
G03X1208800I-2300J0D01*
G01X1203800Y875000D02*
G03X1203800I-2300J0D01*
G01X1197300Y872500D02*
G03X1197300I-2300J0D01*
G01X1204300Y1006000D02*
G03X1204300I-5300J0D01*
G01X1214300Y1016000D02*
G03X1214300I-5300J0D01*
G01X1224300Y1026000D02*
G03X1224300I-5300J0D01*
G01X1204300D02*
G03X1204300I-5300J0D01*
G01X1188300Y842500D02*
G03X1188300I-2300J0D01*
G01X1192300Y853000D02*
G03X1192300I-2300J0D01*
G01Y902000D02*
G03X1192300I-2300J0D01*
G01X1186300Y864500D02*
G03X1186300I-2300J0D01*
G01X1187300Y881500D02*
G03X1187300I-2300J0D01*
G01X1176800Y856000D02*
G03X1176800I-2300J0D01*
G01X1177300Y902000D02*
G03X1177300I-2300J0D01*
G01X1172300Y881500D02*
G03X1172300I-2300J0D01*
G01Y888500D02*
G03X1172300I-2300J0D01*
G01X1167300D02*
G03X1167300I-2300J0D01*
G01X1165300Y912500D02*
G03X1165300I-2300J0D01*
G01Y927500D02*
G03X1165300I-2300J0D01*
G01X1160300Y858500D02*
G03X1160300I-2300J0D01*
G01Y863500D02*
G03X1160300I-2300J0D01*
G01X1152550Y820500D02*
G03X1152550I-4050J0D01*
G01Y830500D02*
G03X1152550I-4050J0D01*
G01X1151800Y855000D02*
G03X1151800I-2300J0D01*
G01X1152300Y876500D02*
G03X1152300I-2300J0D01*
G01X1161300Y1006000D02*
G03X1161300I-5300J0D01*
G01X1142550Y820500D02*
G03X1142550I-4050J0D01*
G01Y830500D02*
G03X1142550I-4050J0D01*
G01X1132550Y820500D02*
G03X1132550I-4050J0D01*
G01Y830500D02*
G03X1132550I-4050J0D01*
G01X1141300Y1006000D02*
G03X1141300I-5300J0D01*
G01X1151300Y1016000D02*
G03X1151300I-5300J0D01*
G01X1161300Y1026000D02*
G03X1161300I-5300J0D01*
G01X1141300D02*
G03X1141300I-5300J0D01*
G01X1122550Y820500D02*
G03X1122550I-4050J0D01*
G01Y830500D02*
G03X1122550I-4050J0D01*
G01X1126550Y905000D02*
G03X1126550I-4050J0D01*
G01Y935000D02*
G03X1126550I-4050J0D01*
G01Y955000D02*
G03X1126550I-4050J0D01*
G01X1112800Y820500D02*
G03X1112800I-4300J0D01*
G01Y830500D02*
G03X1112800I-4300J0D01*
G01X1096550Y905000D02*
G03X1096550I-4050J0D01*
G01X1097300Y955000D02*
G03X1097300I-4800J0D01*
G01X1098300Y1006000D02*
G03X1098300I-5300J0D01*
G01X1078300D02*
G03X1078300I-5300J0D01*
G01X1088300Y1016000D02*
G03X1088300I-5300J0D01*
G01X1098300Y1026000D02*
G03X1098300I-5300J0D01*
G01X1078300D02*
G03X1078300I-5300J0D01*
G01X1046550Y905000D02*
G03X1046550I-4050J0D01*
G01Y935000D02*
G03X1046550I-4050J0D01*
G01Y955000D02*
G03X1046550I-4050J0D01*
G01X1035300Y1006000D02*
G03X1035300I-5300J0D01*
G01X1020800Y865000D02*
G03X1020800I-2300J0D01*
G01X1016550Y905000D02*
G03X1016550I-4050J0D01*
G01X1017300Y955000D02*
G03X1017300I-4800J0D01*
G01X1015300Y1006000D02*
G03X1015300I-5300J0D01*
G01X1025300Y1016000D02*
G03X1025300I-5300J0D01*
G01X1035300Y1026000D02*
G03X1035300I-5300J0D01*
G01X1015300D02*
G03X1015300I-5300J0D01*
G01X989800Y852500D02*
G03X989800I-2300J0D01*
G01X969800Y844500D02*
G03X969800I-2300J0D01*
G01X959800Y848500D02*
G03X959800I-2300J0D01*
G01X966550Y905000D02*
G03X966550I-4050J0D01*
G01Y935000D02*
G03X966550I-4050J0D01*
G01Y955000D02*
G03X966550I-4050J0D01*
G01X972300Y1006000D02*
G03X972300I-5300J0D01*
G01X952300D02*
G03X952300I-5300J0D01*
G01X962300Y1016000D02*
G03X962300I-5300J0D01*
G01X972300Y1026000D02*
G03X972300I-5300J0D01*
G01X952300D02*
G03X952300I-5300J0D01*
G01X936550Y905000D02*
G03X936550I-4050J0D01*
G01X937300Y955000D02*
G03X937300I-4800J0D01*
G01X916800Y870000D02*
G03X916800I-2300J0D01*
G01X911800D02*
G03X911800I-2300J0D01*
G01X906300D02*
G03X906300I-2300J0D01*
G01X901550Y847500D02*
G03X901550I-4050J0D01*
G01X909300Y1006000D02*
G03X909300I-5300J0D01*
G01X891550Y847500D02*
G03X891550I-4050J0D01*
G01X881800D02*
G03X881800I-4300J0D01*
G01X886550Y905000D02*
G03X886550I-4050J0D01*
G01Y935000D02*
G03X886550I-4050J0D01*
G01Y955000D02*
G03X886550I-4050J0D01*
G01X889300Y1006000D02*
G03X889300I-5300J0D01*
G01X899300Y1016000D02*
G03X899300I-5300J0D01*
G01X909300Y1026000D02*
G03X909300I-5300J0D01*
G01X889300D02*
G03X889300I-5300J0D01*
G01X871800Y847500D02*
G03X871800I-4300J0D01*
G01X846300Y843500D02*
G03X846300I-2300J0D01*
G01X848800Y847500D02*
G03X848800I-2300J0D01*
G01X856550Y905000D02*
G03X856550I-4050J0D01*
G01X857300Y955000D02*
G03X857300I-4800J0D01*
G01X846300Y851500D02*
G03X846300I-2300J0D01*
G01X836400Y823600D02*
G03X836400I-12800J0D01*
G01Y965400D02*
G03X836400I-12800J0D01*
G01X846300Y1006000D02*
G03X846300I-5300J0D01*
G01X826300D02*
G03X826300I-5300J0D01*
G01X836300Y1016000D02*
G03X836300I-5300J0D01*
G01X846300Y1026000D02*
G03X846300I-5300J0D01*
G01X826300D02*
G03X826300I-5300J0D01*
G01X1545199Y802800D02*
Y1033399D01*
X1545199D02*
X802800D01*
X802800D02*
Y802800D01*
X1545199*
X1537200Y823600D02*
G03X1537200I-12800J0D01*
G01Y965400D02*
G03X1537200I-12800J0D01*
G01X1539300Y1006000D02*
G03X1539300I-5300J0D01*
G01X1519300D02*
G03X1519300I-5300J0D01*
G01X1529300Y1016000D02*
G03X1529300I-5300J0D01*
G01X1539300Y1026000D02*
G03X1539300I-5300J0D01*
G01X1519300D02*
G03X1519300I-5300J0D01*
G01X1501550Y905000D02*
G03X1501550I-4050J0D01*
G01Y935000D02*
G03X1501550I-4050J0D01*
G01Y955000D02*
G03X1501550I-4050J0D01*
G01X1487264Y817992D02*
G03X1487264I-7799J0D01*
G01X1475050Y835000D02*
G03X1475050I-4050J0D01*
G01Y846811D02*
G03X1475050I-4050J0D01*
G01X1471550Y905000D02*
G03X1471550I-4050J0D01*
G01X1463238Y835000D02*
G03X1463238I-4049J0D01*
G01Y846811D02*
G03X1463238I-4049J0D01*
G01X1472300Y955000D02*
G03X1472300I-4800J0D01*
G01X1476300Y1006000D02*
G03X1476300I-5300J0D01*
G01X1451427Y835000D02*
G03X1451427I-4049J0D01*
G01Y846811D02*
G03X1451427I-4049J0D01*
G01X1456300Y1006000D02*
G03X1456300I-5300J0D01*
G01X1466300Y1016000D02*
G03X1466300I-5300J0D01*
G01X1476300Y1026000D02*
G03X1476300I-5300J0D01*
G01X1456300D02*
G03X1456300I-5300J0D01*
G01X1439616Y835000D02*
G03X1439616I-4049J0D01*
G01Y846811D02*
G03X1439616I-4049J0D01*
G01X1427805Y835000D02*
G03X1427805I-4049J0D01*
G01Y846811D02*
G03X1427805I-4049J0D01*
G01X1415994Y835000D02*
G03X1415994I-4049J0D01*
G01Y846811D02*
G03X1415994I-4049J0D01*
G01X1421550Y905000D02*
G03X1421550I-4050J0D01*
G01Y935000D02*
G03X1421550I-4050J0D01*
G01Y955000D02*
G03X1421550I-4050J0D01*
G01X1404183Y835000D02*
G03X1404183I-4049J0D01*
G01Y846811D02*
G03X1404183I-4049J0D01*
G01X1413300Y1006000D02*
G03X1413300I-5300J0D01*
G01X1392372Y835000D02*
G03X1392372I-4049J0D01*
G01Y846811D02*
G03X1392372I-4049J0D01*
G01X1395800Y865000D02*
G03X1395800I-2300J0D01*
G01X1391550Y905000D02*
G03X1391550I-4050J0D01*
G01X1392300Y955000D02*
G03X1392300I-4800J0D01*
G01X1393300Y1006000D02*
G03X1393300I-5300J0D01*
G01X1403300Y1016000D02*
G03X1403300I-5300J0D01*
G01X1413300Y1026000D02*
G03X1413300I-5300J0D01*
G01X1393300D02*
G03X1393300I-5300J0D01*
G01X1380561Y835000D02*
G03X1380561I-4049J0D01*
G01Y846811D02*
G03X1380561I-4049J0D01*
G01X1364036Y817992D02*
G03X1364036I-7799J0D01*
G01X1368750Y835000D02*
G03X1368750I-4049J0D01*
G01Y846811D02*
G03X1368750I-4049J0D01*
G01X1341550Y905000D02*
G03X1341550I-4050J0D01*
G01Y935000D02*
G03X1341550I-4050J0D01*
G01Y955000D02*
G03X1341550I-4050J0D01*
G01X1350300Y1006000D02*
G03X1350300I-5300J0D01*
G01X1330300D02*
G03X1330300I-5300J0D01*
G01X1340300Y1016000D02*
G03X1340300I-5300J0D01*
G01X1350300Y1026000D02*
G03X1350300I-5300J0D01*
G01X1330300D02*
G03X1330300I-5300J0D01*
G01X1311550Y905000D02*
G03X1311550I-4050J0D01*
G01X1312300Y955000D02*
G03X1312300I-4800J0D01*
G01X1287300Y1006000D02*
G03X1287300I-5300J0D01*
G01X1261550Y905000D02*
G03X1261550I-4050J0D01*
G01Y935000D02*
G03X1261550I-4050J0D01*
G01Y955000D02*
G03X1261550I-4050J0D01*
G01X1267300Y1006000D02*
G03X1267300I-5300J0D01*
G01X1277300Y1016000D02*
G03X1277300I-5300J0D01*
G01X1287300Y1026000D02*
G03X1287300I-5300J0D01*
G01X1267300D02*
G03X1267300I-5300J0D01*
G01X1231550Y905000D02*
G03X1231550I-4050J0D01*
G01X1232300Y955000D02*
G03X1232300I-4800J0D01*
G01X1224300Y1006000D02*
G03X1224300I-5300J0D01*
G01X1208800Y877500D02*
G03X1208800I-2300J0D01*
G01X1203800Y875000D02*
G03X1203800I-2300J0D01*
G01X1197300Y872500D02*
G03X1197300I-2300J0D01*
G01X1204300Y1006000D02*
G03X1204300I-5300J0D01*
G01X1214300Y1016000D02*
G03X1214300I-5300J0D01*
G01X1224300Y1026000D02*
G03X1224300I-5300J0D01*
G01X1204300D02*
G03X1204300I-5300J0D01*
G01X1188300Y842500D02*
G03X1188300I-2300J0D01*
G01X1192300Y853000D02*
G03X1192300I-2300J0D01*
G01Y902000D02*
G03X1192300I-2300J0D01*
G01X1186300Y864500D02*
G03X1186300I-2300J0D01*
G01X1187300Y881500D02*
G03X1187300I-2300J0D01*
G01X1176800Y856000D02*
G03X1176800I-2300J0D01*
G01X1177300Y902000D02*
G03X1177300I-2300J0D01*
G01X1172300Y881500D02*
G03X1172300I-2300J0D01*
G01Y888500D02*
G03X1172300I-2300J0D01*
G01X1167300D02*
G03X1167300I-2300J0D01*
G01X1165300Y912500D02*
G03X1165300I-2300J0D01*
G01Y927500D02*
G03X1165300I-2300J0D01*
G01X1160300Y858500D02*
G03X1160300I-2300J0D01*
G01Y863500D02*
G03X1160300I-2300J0D01*
G01X1152550Y820500D02*
G03X1152550I-4050J0D01*
G01Y830500D02*
G03X1152550I-4050J0D01*
G01X1151800Y855000D02*
G03X1151800I-2300J0D01*
G01X1152300Y876500D02*
G03X1152300I-2300J0D01*
G01X1161300Y1006000D02*
G03X1161300I-5300J0D01*
G01X1142550Y820500D02*
G03X1142550I-4050J0D01*
G01Y830500D02*
G03X1142550I-4050J0D01*
G01X1132550Y820500D02*
G03X1132550I-4050J0D01*
G01Y830500D02*
G03X1132550I-4050J0D01*
G01X1141300Y1006000D02*
G03X1141300I-5300J0D01*
G01X1151300Y1016000D02*
G03X1151300I-5300J0D01*
G01X1161300Y1026000D02*
G03X1161300I-5300J0D01*
G01X1141300D02*
G03X1141300I-5300J0D01*
G01X1122550Y820500D02*
G03X1122550I-4050J0D01*
G01Y830500D02*
G03X1122550I-4050J0D01*
G01X1126550Y905000D02*
G03X1126550I-4050J0D01*
G01Y935000D02*
G03X1126550I-4050J0D01*
G01Y955000D02*
G03X1126550I-4050J0D01*
G01X1112800Y820500D02*
G03X1112800I-4300J0D01*
G01Y830500D02*
G03X1112800I-4300J0D01*
G01X1096550Y905000D02*
G03X1096550I-4050J0D01*
G01X1097300Y955000D02*
G03X1097300I-4800J0D01*
G01X1098300Y1006000D02*
G03X1098300I-5300J0D01*
G01X1078300D02*
G03X1078300I-5300J0D01*
G01X1088300Y1016000D02*
G03X1088300I-5300J0D01*
G01X1098300Y1026000D02*
G03X1098300I-5300J0D01*
G01X1078300D02*
G03X1078300I-5300J0D01*
G01X1046550Y905000D02*
G03X1046550I-4050J0D01*
G01Y935000D02*
G03X1046550I-4050J0D01*
G01Y955000D02*
G03X1046550I-4050J0D01*
G01X1035300Y1006000D02*
G03X1035300I-5300J0D01*
G01X1020800Y865000D02*
G03X1020800I-2300J0D01*
G01X1016550Y905000D02*
G03X1016550I-4050J0D01*
G01X1017300Y955000D02*
G03X1017300I-4800J0D01*
G01X1015300Y1006000D02*
G03X1015300I-5300J0D01*
G01X1025300Y1016000D02*
G03X1025300I-5300J0D01*
G01X1035300Y1026000D02*
G03X1035300I-5300J0D01*
G01X1015300D02*
G03X1015300I-5300J0D01*
G01X989800Y852500D02*
G03X989800I-2300J0D01*
G01X969800Y844500D02*
G03X969800I-2300J0D01*
G01X959800Y848500D02*
G03X959800I-2300J0D01*
G01X966550Y905000D02*
G03X966550I-4050J0D01*
G01Y935000D02*
G03X966550I-4050J0D01*
G01Y955000D02*
G03X966550I-4050J0D01*
G01X972300Y1006000D02*
G03X972300I-5300J0D01*
G01X952300D02*
G03X952300I-5300J0D01*
G01X962300Y1016000D02*
G03X962300I-5300J0D01*
G01X972300Y1026000D02*
G03X972300I-5300J0D01*
G01X952300D02*
G03X952300I-5300J0D01*
G01X936550Y905000D02*
G03X936550I-4050J0D01*
G01X937300Y955000D02*
G03X937300I-4800J0D01*
G01X916800Y870000D02*
G03X916800I-2300J0D01*
G01X911800D02*
G03X911800I-2300J0D01*
G01X906300D02*
G03X906300I-2300J0D01*
G01X901550Y847500D02*
G03X901550I-4050J0D01*
G01X909300Y1006000D02*
G03X909300I-5300J0D01*
G01X891550Y847500D02*
G03X891550I-4050J0D01*
G01X881800D02*
G03X881800I-4300J0D01*
G01X886550Y905000D02*
G03X886550I-4050J0D01*
G01Y935000D02*
G03X886550I-4050J0D01*
G01Y955000D02*
G03X886550I-4050J0D01*
G01X889300Y1006000D02*
G03X889300I-5300J0D01*
G01X899300Y1016000D02*
G03X899300I-5300J0D01*
G01X909300Y1026000D02*
G03X909300I-5300J0D01*
G01X889300D02*
G03X889300I-5300J0D01*
G01X871800Y847500D02*
G03X871800I-4300J0D01*
G01X846300Y843500D02*
G03X846300I-2300J0D01*
G01X848800Y847500D02*
G03X848800I-2300J0D01*
G01X856550Y905000D02*
G03X856550I-4050J0D01*
G01X857300Y955000D02*
G03X857300I-4800J0D01*
G01X846300Y851500D02*
G03X846300I-2300J0D01*
G01X836400Y823600D02*
G03X836400I-12800J0D01*
G01Y965400D02*
G03X836400I-12800J0D01*
G01X846300Y1006000D02*
G03X846300I-5300J0D01*
G01X826300D02*
G03X826300I-5300J0D01*
G01X836300Y1016000D02*
G03X836300I-5300J0D01*
G01X846300Y1026000D02*
G03X846300I-5300J0D01*
G01X826300D02*
G03X826300I-5300J0D01*
G01X802800Y1033378D02*
X1545199D01*
X802800Y1032838D02*
X1545199D01*
X802800Y1032298D02*
X1545199D01*
X802800Y1031758D02*
X1545199D01*
X1534924Y1031218D02*
X1545199D01*
X1536489Y1030678D02*
X1545199D01*
X1537310Y1030138D02*
X1545199D01*
X1537890Y1029598D02*
X1545199D01*
X1538328Y1029058D02*
X1545199D01*
X1538663Y1028518D02*
X1545199D01*
X1538916Y1027978D02*
X1545199D01*
X1539101Y1027438D02*
X1545199D01*
X1539223Y1026898D02*
X1545199D01*
X1539287Y1026358D02*
X1545199D01*
X1539296Y1025818D02*
X1545199D01*
X1539250Y1025278D02*
X1545199D01*
X1539147Y1024738D02*
X1545199D01*
X1538984Y1024198D02*
X1545199D01*
X1538754Y1023658D02*
X1545199D01*
X1538448Y1023118D02*
X1545199D01*
X1538047Y1022578D02*
X1545199D01*
X1537521Y1022038D02*
X1545199D01*
X1536797Y1021498D02*
X1545199D01*
X1535635Y1020958D02*
X1545199D01*
X1526926Y1020418D02*
X1545199D01*
X1527611Y1019878D02*
X1545199D01*
X1528116Y1019338D02*
X1545199D01*
X1528500Y1018798D02*
X1545199D01*
X1528794Y1018258D02*
X1545199D01*
X1529013Y1017718D02*
X1545199D01*
X1529167Y1017178D02*
X1545199D01*
X1529261Y1016638D02*
X1545199D01*
X1529299Y1016098D02*
X1545199D01*
X1529281Y1015558D02*
X1545199D01*
X1529208Y1015018D02*
X1545199D01*
X1529076Y1014478D02*
X1545199D01*
X1528882Y1013938D02*
X1545199D01*
X1528617Y1013398D02*
X1545199D01*
X1528268Y1012858D02*
X1545199D01*
X1527812Y1012318D02*
X1545199D01*
X1527204Y1011778D02*
X1545199D01*
X1534803Y1011238D02*
X1545199D01*
X1536452Y1010698D02*
X1545199D01*
X1537285Y1010158D02*
X1545199D01*
X1537872Y1009618D02*
X1545199D01*
X1538314Y1009078D02*
X1545199D01*
X1538652Y1008538D02*
X1545199D01*
X1538908Y1007998D02*
X1545199D01*
X1539095Y1007458D02*
X1545199D01*
X1539219Y1006918D02*
X1545199D01*
X1539286Y1006378D02*
X1545199D01*
X1539297Y1005838D02*
X1545199D01*
X1539253Y1005298D02*
X1545199D01*
X1539152Y1004758D02*
X1545199D01*
X1538991Y1004218D02*
X1545199D01*
X1538764Y1003678D02*
X1545199D01*
X1538461Y1003138D02*
X1545199D01*
X1538064Y1002598D02*
X1545199D01*
X1537543Y1002058D02*
X1545199D01*
X1536829Y1001518D02*
X1545199D01*
X1535696Y1000978D02*
X1545199D01*
X802800Y1000438D02*
X1545199D01*
X802800Y999898D02*
X1545199D01*
X802800Y999358D02*
X1545199D01*
X802800Y998818D02*
X1545199D01*
X802800Y998278D02*
X1545199D01*
X802800Y997738D02*
X1545199D01*
X802800Y997198D02*
X1545199D01*
X802800Y996658D02*
X1545199D01*
X802800Y996118D02*
X1545199D01*
X802800Y995578D02*
X1545199D01*
X802800Y995038D02*
X1545199D01*
X802800Y994498D02*
X1545199D01*
X802800Y993958D02*
X1545199D01*
X802800Y993418D02*
X1545199D01*
X802800Y992878D02*
X1545199D01*
X802800Y992338D02*
X1545199D01*
X802800Y991798D02*
X1545199D01*
X802800Y991258D02*
X1545199D01*
X802800Y990718D02*
X1545199D01*
X802800Y990178D02*
X1545199D01*
X802800Y989638D02*
X1545199D01*
X802800Y989098D02*
X1545199D01*
X802800Y988558D02*
X1545199D01*
X802800Y988018D02*
X1545199D01*
X802800Y987478D02*
X1545199D01*
X802800Y986938D02*
X1545199D01*
X802800Y986398D02*
X1545199D01*
X802800Y985858D02*
X1545199D01*
X802800Y985318D02*
X1545199D01*
X802800Y984778D02*
X1545199D01*
X802800Y984238D02*
X1545199D01*
X802800Y983698D02*
X1545199D01*
X802800Y983158D02*
X1545199D01*
X802800Y982618D02*
X1545199D01*
X802800Y982078D02*
X1545199D01*
X802800Y981538D02*
X1545199D01*
X802800Y980998D02*
X1545199D01*
X802800Y980458D02*
X1545199D01*
X802800Y979918D02*
X1545199D01*
X802800Y979378D02*
X1545199D01*
X802800Y978838D02*
X1545199D01*
X802800Y978298D02*
X1545199D01*
X1527732Y977758D02*
X1545199D01*
X1529315Y977218D02*
X1545199D01*
X1530452Y976678D02*
X1545199D01*
X1531365Y976138D02*
X1545199D01*
X1532134Y975598D02*
X1545199D01*
X1532799Y975058D02*
X1545199D01*
X1533382Y974518D02*
X1545199D01*
X1533899Y973978D02*
X1545199D01*
X1534360Y973438D02*
X1545199D01*
X1534773Y972898D02*
X1545199D01*
X1535143Y972358D02*
X1545199D01*
X1535474Y971818D02*
X1545199D01*
X1535770Y971278D02*
X1545199D01*
X1536033Y970738D02*
X1545199D01*
X1536266Y970198D02*
X1545199D01*
X1536470Y969658D02*
X1545199D01*
X1536647Y969118D02*
X1545199D01*
X1536799Y968578D02*
X1545199D01*
X1536925Y968038D02*
X1545199D01*
X1537026Y967498D02*
X1545199D01*
X1537104Y966958D02*
X1545199D01*
X1537159Y966418D02*
X1545199D01*
X1537191Y965878D02*
X1545199D01*
X1537199Y965338D02*
X1545199D01*
X1537185Y964798D02*
X1545199D01*
X1537149Y964258D02*
X1545199D01*
X1537089Y963718D02*
X1545199D01*
X1537005Y963178D02*
X1545199D01*
X1536898Y962638D02*
X1545199D01*
X1536766Y962098D02*
X1545199D01*
X1536610Y961558D02*
X1545199D01*
X1536426Y961018D02*
X1545199D01*
X1536216Y960478D02*
X1545199D01*
X1535976Y959938D02*
X1545199D01*
X1535705Y959398D02*
X1545199D01*
X1535402Y958858D02*
X1545199D01*
X1535062Y958318D02*
X1545199D01*
X1534683Y957778D02*
X1545199D01*
X1534260Y957238D02*
X1545199D01*
X1533787Y956698D02*
X1545199D01*
X1533256Y956158D02*
X1545199D01*
X1532656Y955618D02*
X1545199D01*
X1531970Y955078D02*
X1545199D01*
X1531172Y954538D02*
X1545199D01*
X1530218Y953998D02*
X1545199D01*
X1529009Y953458D02*
X1545199D01*
X1527238Y952918D02*
X1545199D01*
X1500587Y952378D02*
X1545199D01*
X1500031Y951838D02*
X1545199D01*
X1499144Y951298D02*
X1545199D01*
X1469747Y950758D02*
X1545199D01*
X1467923Y950218D02*
X1545199D01*
X802800Y949678D02*
X1545199D01*
X802800Y949138D02*
X1545199D01*
X802800Y948598D02*
X1545199D01*
X802800Y948058D02*
X1545199D01*
X802800Y947518D02*
X1545199D01*
X802800Y946978D02*
X1545199D01*
X802800Y946438D02*
X1545199D01*
X802800Y945898D02*
X1545199D01*
X802800Y945358D02*
X1545199D01*
X802800Y944818D02*
X1545199D01*
X802800Y944278D02*
X1545199D01*
X802800Y943738D02*
X1545199D01*
X802800Y943198D02*
X1545199D01*
X802800Y942658D02*
X1545199D01*
X802800Y942118D02*
X1545199D01*
X802800Y941578D02*
X1545199D01*
X802800Y941038D02*
X1545199D01*
X802800Y940498D02*
X1545199D01*
X802800Y939958D02*
X1545199D01*
X802800Y939418D02*
X1545199D01*
X1498665Y938878D02*
X1545199D01*
X1499792Y938338D02*
X1545199D01*
X1500427Y937798D02*
X1545199D01*
X1500861Y937258D02*
X1545199D01*
X1501167Y936718D02*
X1545199D01*
X1501374Y936178D02*
X1545199D01*
X1501499Y935638D02*
X1545199D01*
X1501548Y935098D02*
X1545199D01*
X1501525Y934558D02*
X1545199D01*
X1501429Y934018D02*
X1545199D01*
X1501253Y933478D02*
X1545199D01*
X1500986Y932938D02*
X1545199D01*
X1500604Y932398D02*
X1545199D01*
X1500056Y931858D02*
X1545199D01*
X1499188Y931318D02*
X1545199D01*
X802800Y930778D02*
X1545199D01*
X802800Y930238D02*
X1545199D01*
X1163675Y929698D02*
X1545199D01*
X1164593Y929158D02*
X1545199D01*
X1165009Y928618D02*
X1545199D01*
X1165226Y928078D02*
X1545199D01*
X1165299Y927538D02*
X1545199D01*
X1165244Y926998D02*
X1545199D01*
X1165050Y926458D02*
X1545199D01*
X1164670Y925918D02*
X1545199D01*
X1163888Y925378D02*
X1545199D01*
X802800Y924838D02*
X1545199D01*
X802800Y924298D02*
X1545199D01*
X802800Y923758D02*
X1545199D01*
X802800Y923218D02*
X1545199D01*
X802800Y922678D02*
X1545199D01*
X802800Y922138D02*
X1545199D01*
X802800Y921598D02*
X1545199D01*
X802800Y921058D02*
X1545199D01*
X802800Y920518D02*
X1545199D01*
X802800Y919978D02*
X1545199D01*
X802800Y919438D02*
X1545199D01*
X802800Y918898D02*
X1545199D01*
X802800Y918358D02*
X1545199D01*
X802800Y917818D02*
X1545199D01*
X802800Y917278D02*
X1545199D01*
X802800Y916738D02*
X1545199D01*
X802800Y916198D02*
X1545199D01*
X802800Y915658D02*
X1545199D01*
X802800Y915118D02*
X1545199D01*
X1163984Y914578D02*
X1545199D01*
X1164709Y914038D02*
X1545199D01*
X1165071Y913498D02*
X1545199D01*
X1165253Y912958D02*
X1545199D01*
X1165298Y912418D02*
X1545199D01*
X1165214Y911878D02*
X1545199D01*
X1164985Y911338D02*
X1545199D01*
X1164547Y910798D02*
X1545199D01*
X1163516Y910258D02*
X1545199D01*
X802800Y909718D02*
X1545199D01*
X802800Y909178D02*
X1545199D01*
X1499278Y908638D02*
X1545199D01*
X1500107Y908098D02*
X1545199D01*
X1500639Y907558D02*
X1545199D01*
X1501011Y907018D02*
X1545199D01*
X1501270Y906478D02*
X1545199D01*
X1501439Y905938D02*
X1545199D01*
X1501530Y905398D02*
X1545199D01*
X1501547Y904858D02*
X1545199D01*
X1501492Y904318D02*
X1545199D01*
X1501361Y903778D02*
X1545199D01*
X1501146Y903238D02*
X1545199D01*
X1500832Y902698D02*
X1545199D01*
X1500386Y902158D02*
X1545199D01*
X1499729Y901618D02*
X1545199D01*
X1498512Y901078D02*
X1545199D01*
X1191776Y900538D02*
X1545199D01*
X1191133Y899998D02*
X1545199D01*
X802800Y899458D02*
X1545199D01*
X802800Y898918D02*
X1545199D01*
X802800Y898378D02*
X1545199D01*
X802800Y897838D02*
X1545199D01*
X802800Y897298D02*
X1545199D01*
X802800Y896758D02*
X1545199D01*
X802800Y896218D02*
X1545199D01*
X802800Y895678D02*
X1545199D01*
X802800Y895138D02*
X1545199D01*
X802800Y894598D02*
X1545199D01*
X802800Y894058D02*
X1545199D01*
X802800Y893518D02*
X1545199D01*
X802800Y892978D02*
X1545199D01*
X802800Y892438D02*
X1545199D01*
X802800Y891898D02*
X1545199D01*
X802800Y891358D02*
X1545199D01*
X802800Y890818D02*
X1545199D01*
X1171458Y890278D02*
X1545199D01*
X1171937Y889738D02*
X1545199D01*
X1172191Y889198D02*
X1545199D01*
X1172294Y888658D02*
X1545199D01*
X1172268Y888118D02*
X1545199D01*
X1172107Y887578D02*
X1545199D01*
X1171776Y887038D02*
X1545199D01*
X1171133Y886498D02*
X1545199D01*
X802800Y885958D02*
X1545199D01*
X802800Y885418D02*
X1545199D01*
X802800Y884878D02*
X1545199D01*
X802800Y884338D02*
X1545199D01*
X1185077Y883798D02*
X1545199D01*
X1186482Y883258D02*
X1545199D01*
X1186950Y882718D02*
X1545199D01*
X1187197Y882178D02*
X1545199D01*
X1187295Y881638D02*
X1545199D01*
X1187264Y881098D02*
X1545199D01*
X1187098Y880558D02*
X1545199D01*
X1186759Y880018D02*
X1545199D01*
X1207672Y879478D02*
X1545199D01*
X1208294Y878938D02*
X1545199D01*
X1208617Y878398D02*
X1545199D01*
X1208771Y877858D02*
X1545199D01*
X1208792Y877318D02*
X1545199D01*
X1208683Y876778D02*
X1545199D01*
X1208423Y876238D02*
X1545199D01*
X1207930Y875698D02*
X1545199D01*
X1203794Y875158D02*
X1545199D01*
X1203768Y874618D02*
X1545199D01*
X1203607Y874078D02*
X1545199D01*
X1203276Y873538D02*
X1545199D01*
X1202633Y872998D02*
X1545199D01*
X1197299Y872458D02*
X1545199D01*
X1197225Y871918D02*
X1545199D01*
X1197008Y871378D02*
X1545199D01*
X1196590Y870838D02*
X1545199D01*
X1195666Y870298D02*
X1545199D01*
X916787Y869758D02*
X1545199D01*
X916663Y869218D02*
X1545199D01*
X916382Y868678D02*
X1545199D01*
X915851Y868138D02*
X1545199D01*
X802800Y867598D02*
X1545199D01*
X1394525Y867058D02*
X1545199D01*
X1395227Y866518D02*
X1545199D01*
X1395581Y865978D02*
X1545199D01*
X1395757Y865438D02*
X1545199D01*
X1395797Y864898D02*
X1545199D01*
X1395708Y864358D02*
X1545199D01*
X1395473Y863818D02*
X1545199D01*
X1395025Y863278D02*
X1545199D01*
X1393920Y862738D02*
X1545199D01*
X1159896Y862198D02*
X1545199D01*
X1159378Y861658D02*
X1545199D01*
X802800Y861118D02*
X1545199D01*
X1158984Y860578D02*
X1545199D01*
X1159709Y860038D02*
X1545199D01*
X1160071Y859498D02*
X1545199D01*
X1160253Y858958D02*
X1545199D01*
X1160298Y858418D02*
X1545199D01*
X1175826Y857878D02*
X1545199D01*
X1176370Y857338D02*
X1545199D01*
X1176656Y856798D02*
X1545199D01*
X1176785Y856258D02*
X1545199D01*
X1176782Y855718D02*
X1545199D01*
X1190737Y855178D02*
X1545199D01*
X1191613Y854638D02*
X1545199D01*
X1192020Y854098D02*
X1545199D01*
X1192231Y853558D02*
X1545199D01*
X1192299Y853018D02*
X1545199D01*
X1192240Y852478D02*
X1545199D01*
X1192040Y851938D02*
X1545199D01*
X1191651Y851398D02*
X1545199D01*
X1471137Y850858D02*
X1545199D01*
X1473024Y850318D02*
X1545199D01*
X1473755Y849778D02*
X1545199D01*
X1474241Y849238D02*
X1545199D01*
X1474583Y848698D02*
X1545199D01*
X1474819Y848158D02*
X1545199D01*
X1474968Y847618D02*
X1545199D01*
X1475041Y847078D02*
X1545199D01*
X1475040Y846538D02*
X1545199D01*
X1474967Y845998D02*
X1545199D01*
X1474817Y845458D02*
X1545199D01*
X1474580Y844918D02*
X1545199D01*
X1474238Y844378D02*
X1545199D01*
X1473751Y843838D02*
X1545199D01*
X1473016Y843298D02*
X1545199D01*
X1188285Y842758D02*
X1545199D01*
X1188282Y842218D02*
X1545199D01*
X1188148Y841678D02*
X1545199D01*
X1187853Y841138D02*
X1545199D01*
X1187294Y840598D02*
X1545199D01*
X802800Y840058D02*
X1545199D01*
X802800Y839518D02*
X1545199D01*
X1471756Y838978D02*
X1545199D01*
X1473139Y838438D02*
X1545199D01*
X1473828Y837898D02*
X1545199D01*
X1474292Y837358D02*
X1545199D01*
X1474618Y836818D02*
X1545199D01*
X1526158Y836278D02*
X1545199D01*
X1528461Y835738D02*
X1545199D01*
X1529813Y835198D02*
X1545199D01*
X1530845Y834658D02*
X1545199D01*
X1531693Y834118D02*
X1545199D01*
X1532416Y833578D02*
X1545199D01*
X1533045Y833038D02*
X1545199D01*
X1533600Y832498D02*
X1545199D01*
X1534093Y831958D02*
X1545199D01*
X1534534Y831418D02*
X1545199D01*
X1534929Y830878D02*
X1545199D01*
X1535282Y830338D02*
X1545199D01*
X1535598Y829798D02*
X1545199D01*
X1535881Y829258D02*
X1545199D01*
X1536131Y828718D02*
X1545199D01*
X1536353Y828178D02*
X1545199D01*
X1536546Y827638D02*
X1545199D01*
X1536712Y827098D02*
X1545199D01*
X1536853Y826558D02*
X1545199D01*
X1536969Y826018D02*
X1545199D01*
X1537061Y825478D02*
X1545199D01*
X1537129Y824938D02*
X1545199D01*
X1537175Y824398D02*
X1545199D01*
X1537197Y823858D02*
X1545199D01*
X1537196Y823318D02*
X1545199D01*
X1537173Y822778D02*
X1545199D01*
X1537127Y822238D02*
X1545199D01*
X1537058Y821698D02*
X1545199D01*
X1536965Y821158D02*
X1545199D01*
X1536847Y820618D02*
X1545199D01*
X1536706Y820078D02*
X1545199D01*
X1536538Y819538D02*
X1545199D01*
X1536344Y818998D02*
X1545199D01*
X1536122Y818458D02*
X1545199D01*
X1535870Y817918D02*
X1545199D01*
X1535586Y817378D02*
X1545199D01*
X1535268Y816838D02*
X1545199D01*
X1534913Y816298D02*
X1545199D01*
X1534517Y815758D02*
X1545199D01*
X1534074Y815218D02*
X1545199D01*
X1533578Y814678D02*
X1545199D01*
X1533021Y814138D02*
X1545199D01*
X1532388Y813598D02*
X1545199D01*
X1531660Y813058D02*
X1545199D01*
X1530806Y812518D02*
X1545199D01*
X1529765Y811978D02*
X1545199D01*
X1528392Y811438D02*
X1545199D01*
X1525986Y810898D02*
X1545199D01*
X1481068Y810358D02*
X1545199D01*
X802800Y809818D02*
X1545199D01*
X802800Y809278D02*
X1545199D01*
X802800Y808738D02*
X1545199D01*
X802800Y808198D02*
X1545199D01*
X802800Y807658D02*
X1545199D01*
X802800Y807118D02*
X1545199D01*
X802800Y806578D02*
X1545199D01*
X802800Y806038D02*
X1545199D01*
X802800Y805498D02*
X1545199D01*
X802800Y804958D02*
X1545199D01*
X802800Y804418D02*
X1545199D01*
X802800Y803878D02*
X1545199D01*
X802800Y803338D02*
X1545199D01*
X1526328Y1011238D02*
X1533196D01*
X1514924Y1031218D02*
X1533075D01*
X1525871Y1020958D02*
X1532364D01*
X1515696Y1000978D02*
X1532303D01*
X1516452Y1010698D02*
X1531547D01*
X1516489Y1030678D02*
X1531510D01*
X1516797Y1021498D02*
X1531202D01*
X1516829Y1001518D02*
X1531170D01*
X1517285Y1010158D02*
X1530714D01*
X1517310Y1030138D02*
X1530689D01*
X1517521Y1022038D02*
X1530478D01*
X1517543Y1002058D02*
X1530456D01*
X1517872Y1009618D02*
X1530127D01*
X1517890Y1029598D02*
X1530109D01*
X1518047Y1022578D02*
X1529952D01*
X1518064Y1002598D02*
X1529935D01*
X1518314Y1009078D02*
X1529685D01*
X1518328Y1029058D02*
X1529671D01*
X1518448Y1023118D02*
X1529551D01*
X1518461Y1003138D02*
X1529538D01*
X1518652Y1008538D02*
X1529347D01*
X1518663Y1028518D02*
X1529336D01*
X1518754Y1023658D02*
X1529245D01*
X1518764Y1003678D02*
X1529235D01*
X1518908Y1007998D02*
X1529091D01*
X1518916Y1027978D02*
X1529083D01*
X1518984Y1024198D02*
X1529015D01*
X1518991Y1004218D02*
X1529008D01*
X1519095Y1007458D02*
X1528904D01*
X1519101Y1027438D02*
X1528898D01*
X1519147Y1024738D02*
X1528852D01*
X1519152Y1004758D02*
X1528847D01*
X1519219Y1006918D02*
X1528780D01*
X1519223Y1026898D02*
X1528776D01*
X1519250Y1025278D02*
X1528749D01*
X1519253Y1005298D02*
X1528746D01*
X1519286Y1006378D02*
X1528713D01*
X1519287Y1026358D02*
X1528712D01*
X1519296Y1025818D02*
X1528703D01*
X1519297Y1005838D02*
X1528702D01*
X1482708Y810898D02*
X1522813D01*
X1474842Y836278D02*
X1522641D01*
X1515635Y1020958D02*
X1522128D01*
X1514803Y1011238D02*
X1521671D01*
X1500974Y952918D02*
X1521561D01*
X1463926Y1020418D02*
X1521073D01*
X826932Y977758D02*
X1521067D01*
X1464204Y1011778D02*
X1520795D01*
X1483694Y811438D02*
X1520407D01*
X1464611Y1019878D02*
X1520388D01*
X1474982Y835738D02*
X1520338D01*
X1464812Y1012318D02*
X1520187D01*
X1465116Y1019338D02*
X1519883D01*
X1501245Y953458D02*
X1519790D01*
X1465268Y1012858D02*
X1519731D01*
X1465500Y1018798D02*
X1519499D01*
X828515Y977218D02*
X1519484D01*
X1465617Y1013398D02*
X1519382D01*
X1465794Y1018258D02*
X1519205D01*
X1465882Y1013938D02*
X1519117D01*
X1484432Y811978D02*
X1519034D01*
X1466013Y1017718D02*
X1518986D01*
X1475045Y835198D02*
X1518986D01*
X1466076Y1014478D02*
X1518923D01*
X1466167Y1017178D02*
X1518832D01*
X1466208Y1015018D02*
X1518791D01*
X1466261Y1016638D02*
X1518738D01*
X1466281Y1015558D02*
X1518718D01*
X1466299Y1016098D02*
X1518700D01*
X1501424Y953998D02*
X1518581D01*
X829652Y976678D02*
X1518347D01*
X1485021Y812518D02*
X1517993D01*
X1475035Y834658D02*
X1517954D01*
X1501523Y954538D02*
X1517627D01*
X830565Y976138D02*
X1517434D01*
X1485506Y813058D02*
X1517139D01*
X1474952Y834118D02*
X1517106D01*
X1501549Y955078D02*
X1516829D01*
X831334Y975598D02*
X1516665D01*
X1485909Y813598D02*
X1516411D01*
X1474792Y833578D02*
X1516383D01*
X1501502Y955618D02*
X1516143D01*
X831999Y975058D02*
X1516000D01*
X1486246Y814138D02*
X1515778D01*
X1474543Y833038D02*
X1515754D01*
X1501380Y956158D02*
X1515543D01*
X832582Y974518D02*
X1515417D01*
X1486525Y814678D02*
X1515221D01*
X1474185Y832498D02*
X1515199D01*
X1501176Y956698D02*
X1515012D01*
X833099Y973978D02*
X1514900D01*
X1486754Y815218D02*
X1514725D01*
X1473674Y831958D02*
X1514706D01*
X1500875Y957238D02*
X1514539D01*
X833560Y973438D02*
X1514439D01*
X1486937Y815758D02*
X1514282D01*
X1472891Y831418D02*
X1514265D01*
X1500446Y957778D02*
X1514116D01*
X833973Y972898D02*
X1514026D01*
X1487078Y816298D02*
X1513886D01*
X1152532Y830878D02*
X1513870D01*
X1499821Y958318D02*
X1513737D01*
X834343Y972358D02*
X1513656D01*
X1487178Y816838D02*
X1513531D01*
X1152546Y830338D02*
X1513517D01*
X1498730Y958858D02*
X1513397D01*
X834674Y971818D02*
X1513325D01*
X1487240Y817378D02*
X1513213D01*
X1152488Y829798D02*
X1513201D01*
X1471803Y1011238D02*
X1513196D01*
X1469421Y959398D02*
X1513094D01*
X1471924Y1031218D02*
X1513075D01*
X834970Y971278D02*
X1513029D01*
X1487264Y817918D02*
X1512929D01*
X1152355Y829258D02*
X1512918D01*
X835176Y959938D02*
X1512823D01*
X835233Y970738D02*
X1512766D01*
X1487250Y818458D02*
X1512677D01*
X1152137Y828718D02*
X1512668D01*
X835416Y960478D02*
X1512583D01*
X835466Y970198D02*
X1512533D01*
X1487199Y818998D02*
X1512455D01*
X1151818Y828178D02*
X1512446D01*
X835626Y961018D02*
X1512373D01*
X1472635Y1020958D02*
X1512364D01*
X835670Y969658D02*
X1512329D01*
X1472696Y1000978D02*
X1512303D01*
X1487109Y819538D02*
X1512261D01*
X1151366Y827638D02*
X1512253D01*
X835810Y961558D02*
X1512189D01*
X835847Y969118D02*
X1512152D01*
X1486980Y820078D02*
X1512093D01*
X1150698Y827098D02*
X1512087D01*
X835966Y962098D02*
X1512033D01*
X835999Y968578D02*
X1512000D01*
X1486809Y820618D02*
X1511952D01*
X1149432Y826558D02*
X1511946D01*
X836098Y962638D02*
X1511901D01*
X836125Y968038D02*
X1511874D01*
X1486592Y821158D02*
X1511834D01*
X836169Y826018D02*
X1511830D01*
X836205Y963178D02*
X1511794D01*
X836226Y967498D02*
X1511773D01*
X1486327Y821698D02*
X1511741D01*
X1481653Y825478D02*
X1511738D01*
X836289Y963718D02*
X1511710D01*
X836304Y966958D02*
X1511695D01*
X1486007Y822238D02*
X1511672D01*
X1483012Y824938D02*
X1511670D01*
X836349Y964258D02*
X1511650D01*
X836359Y966418D02*
X1511640D01*
X1485623Y822778D02*
X1511626D01*
X1483913Y824398D02*
X1511624D01*
X836385Y964798D02*
X1511614D01*
X836391Y965878D02*
X1511608D01*
X1485162Y823318D02*
X1511603D01*
X1484604Y823858D02*
X1511602D01*
X836399Y965338D02*
X1511600D01*
X1473452Y1010698D02*
X1511547D01*
X1473489Y1030678D02*
X1511510D01*
X1473797Y1021498D02*
X1511202D01*
X1473829Y1001518D02*
X1511170D01*
X1474285Y1010158D02*
X1510714D01*
X1474310Y1030138D02*
X1510689D01*
X1474521Y1022038D02*
X1510478D01*
X1474543Y1002058D02*
X1510456D01*
X1474872Y1009618D02*
X1510127D01*
X1474890Y1029598D02*
X1510109D01*
X1475047Y1022578D02*
X1509952D01*
X1475064Y1002598D02*
X1509935D01*
X1475314Y1009078D02*
X1509685D01*
X1475328Y1029058D02*
X1509671D01*
X1475448Y1023118D02*
X1509551D01*
X1475461Y1003138D02*
X1509538D01*
X1475652Y1008538D02*
X1509347D01*
X1475663Y1028518D02*
X1509336D01*
X1475754Y1023658D02*
X1509245D01*
X1475764Y1003678D02*
X1509235D01*
X1475908Y1007998D02*
X1509091D01*
X1475916Y1027978D02*
X1509083D01*
X1475984Y1024198D02*
X1509015D01*
X1475991Y1004218D02*
X1509008D01*
X1476095Y1007458D02*
X1508904D01*
X1476101Y1027438D02*
X1508898D01*
X1476147Y1024738D02*
X1508852D01*
X1476152Y1004758D02*
X1508847D01*
X1476219Y1006918D02*
X1508780D01*
X1476223Y1026898D02*
X1508776D01*
X1476250Y1025278D02*
X1508749D01*
X1476253Y1005298D02*
X1508746D01*
X1476286Y1006378D02*
X1508713D01*
X1476287Y1026358D02*
X1508712D01*
X1476296Y1025818D02*
X1508703D01*
X1476297Y1005838D02*
X1508702D01*
X1468512Y901078D02*
X1496487D01*
X1418665Y938878D02*
X1496334D01*
X1470354Y958858D02*
X1496269D01*
X1470556Y951298D02*
X1495855D01*
X1419188Y931318D02*
X1495811D01*
X1469278Y908638D02*
X1495721D01*
X1469729Y901618D02*
X1495270D01*
X1419792Y938338D02*
X1495207D01*
X1470967Y958318D02*
X1495178D01*
X1471111Y951838D02*
X1494968D01*
X1420056Y931858D02*
X1494943D01*
X1470107Y908098D02*
X1494892D01*
X1470386Y902158D02*
X1494613D01*
X1420427Y937798D02*
X1494572D01*
X1471413Y957778D02*
X1494553D01*
X1471521Y952378D02*
X1494412D01*
X1420604Y932398D02*
X1494395D01*
X1470639Y907558D02*
X1494360D01*
X1470832Y902698D02*
X1494167D01*
X1420861Y937258D02*
X1494138D01*
X1471745Y957238D02*
X1494124D01*
X1471825Y952918D02*
X1494025D01*
X1420986Y932938D02*
X1494013D01*
X1471011Y907018D02*
X1493988D01*
X1471146Y903238D02*
X1493853D01*
X1421167Y936718D02*
X1493832D01*
X1471989Y956698D02*
X1493823D01*
X1472045Y953458D02*
X1493754D01*
X1421253Y933478D02*
X1493746D01*
X1471270Y906478D02*
X1493729D01*
X1471361Y903778D02*
X1493638D01*
X1421374Y936178D02*
X1493625D01*
X1472158Y956158D02*
X1493619D01*
X1472194Y953998D02*
X1493575D01*
X1421429Y934018D02*
X1493570D01*
X1471439Y905938D02*
X1493560D01*
X1471492Y904318D02*
X1493507D01*
X1421499Y935638D02*
X1493500D01*
X1472259Y955618D02*
X1493497D01*
X1472277Y954538D02*
X1493476D01*
X1421525Y934558D02*
X1493474D01*
X1471530Y905398D02*
X1493469D01*
X1471547Y904858D02*
X1493452D01*
X1421548Y935098D02*
X1493451D01*
X1472299Y955078D02*
X1493450D01*
X1357839Y810358D02*
X1477861D01*
X1358425Y825478D02*
X1477275D01*
X1359480Y810898D02*
X1476220D01*
X1359783Y824938D02*
X1475916D01*
X1360466Y811438D02*
X1475234D01*
X1360685Y824398D02*
X1475015D01*
X1361204Y811978D02*
X1474496D01*
X1361376Y823858D02*
X1474324D01*
X1361793Y812518D02*
X1473907D01*
X1361934Y823318D02*
X1473766D01*
X1362277Y813058D02*
X1473422D01*
X1362394Y822778D02*
X1473305D01*
X1362681Y813598D02*
X1473019D01*
X1362778Y822238D02*
X1472921D01*
X1363017Y814138D02*
X1472682D01*
X1363099Y821698D02*
X1472601D01*
X1363297Y814678D02*
X1472403D01*
X1363364Y821158D02*
X1472336D01*
X1363526Y815218D02*
X1472174D01*
X1363580Y820618D02*
X1472120D01*
X1363709Y815758D02*
X1471991D01*
X1363751Y820078D02*
X1471948D01*
X1363850Y816298D02*
X1471850D01*
X1363881Y819538D02*
X1471819D01*
X1363950Y816838D02*
X1471750D01*
X1363971Y818998D02*
X1471729D01*
X1364012Y817378D02*
X1471688D01*
X1364022Y818458D02*
X1471678D01*
X1364035Y817918D02*
X1471664D01*
X1459326Y850858D02*
X1470862D01*
X1459945Y838978D02*
X1470243D01*
X1463328Y1011238D02*
X1470196D01*
X1451924Y1031218D02*
X1470075D01*
X1462871Y1020958D02*
X1469364D01*
X1452696Y1000978D02*
X1469303D01*
X1461080Y831418D02*
X1469108D01*
X1461205Y843298D02*
X1468983D01*
X1461213Y850318D02*
X1468975D01*
X1461328Y838438D02*
X1468860D01*
X1453452Y1010698D02*
X1468547D01*
X1453489Y1030678D02*
X1468510D01*
X1461863Y831958D02*
X1468325D01*
X1461939Y843838D02*
X1468248D01*
X1461944Y849778D02*
X1468244D01*
X1453797Y1021498D02*
X1468202D01*
X1462017Y837898D02*
X1468171D01*
X1453829Y1001518D02*
X1468170D01*
X1462374Y832498D02*
X1467814D01*
X1462427Y844378D02*
X1467761D01*
X1462430Y849238D02*
X1467758D01*
X1454285Y1010158D02*
X1467714D01*
X1462481Y837358D02*
X1467707D01*
X1454310Y1030138D02*
X1467689D01*
X1454521Y1022038D02*
X1467478D01*
X1462732Y833038D02*
X1467456D01*
X1454543Y1002058D02*
X1467456D01*
X1462769Y844918D02*
X1467419D01*
X1462772Y848698D02*
X1467416D01*
X1462807Y836818D02*
X1467381D01*
X1462981Y833578D02*
X1467207D01*
X1463006Y845458D02*
X1467182D01*
X1463008Y848158D02*
X1467180D01*
X1463031Y836278D02*
X1467157D01*
X1454872Y1009618D02*
X1467127D01*
X1454890Y1029598D02*
X1467109D01*
X1387923Y950218D02*
X1467076D01*
X1463141Y834118D02*
X1467047D01*
X1463156Y845998D02*
X1467032D01*
X1463157Y847618D02*
X1467031D01*
X1463171Y835738D02*
X1467017D01*
X1463224Y834658D02*
X1466964D01*
X1463229Y846538D02*
X1466959D01*
X1463230Y847078D02*
X1466958D01*
X1463234Y835198D02*
X1466954D01*
X1455047Y1022578D02*
X1466952D01*
X1455064Y1002598D02*
X1466935D01*
X1455314Y1009078D02*
X1466685D01*
X1455328Y1029058D02*
X1466671D01*
X1455448Y1023118D02*
X1466551D01*
X1455461Y1003138D02*
X1466538D01*
X1418512Y901078D02*
X1466487D01*
X1455652Y1008538D02*
X1466347D01*
X1455663Y1028518D02*
X1466336D01*
X1455754Y1023658D02*
X1466245D01*
X1455764Y1003678D02*
X1466235D01*
X1455908Y1007998D02*
X1466091D01*
X1455916Y1027978D02*
X1466083D01*
X1455984Y1024198D02*
X1466015D01*
X1455991Y1004218D02*
X1466008D01*
X1456095Y1007458D02*
X1465904D01*
X1456101Y1027438D02*
X1465898D01*
X1456147Y1024738D02*
X1465852D01*
X1456152Y1004758D02*
X1465847D01*
X1456219Y1006918D02*
X1465780D01*
X1456223Y1026898D02*
X1465776D01*
X1456250Y1025278D02*
X1465749D01*
X1456253Y1005298D02*
X1465746D01*
X1419278Y908638D02*
X1465721D01*
X1456286Y1006378D02*
X1465713D01*
X1456287Y1026358D02*
X1465712D01*
X1456296Y1025818D02*
X1465703D01*
X1456297Y1005838D02*
X1465702D01*
X1389421Y959398D02*
X1465578D01*
X1419729Y901618D02*
X1465270D01*
X1389747Y950758D02*
X1465252D01*
X1420107Y908098D02*
X1464892D01*
X1418730Y958858D02*
X1464645D01*
X1420386Y902158D02*
X1464613D01*
X1419144Y951298D02*
X1464443D01*
X1420639Y907558D02*
X1464360D01*
X1420832Y902698D02*
X1464167D01*
X1419821Y958318D02*
X1464032D01*
X1421011Y907018D02*
X1463988D01*
X1420031Y951838D02*
X1463888D01*
X1421146Y903238D02*
X1463853D01*
X1421270Y906478D02*
X1463729D01*
X1421361Y903778D02*
X1463638D01*
X1420446Y957778D02*
X1463586D01*
X1421439Y905938D02*
X1463560D01*
X1421492Y904318D02*
X1463507D01*
X1420587Y952378D02*
X1463478D01*
X1421530Y905398D02*
X1463469D01*
X1421547Y904858D02*
X1463452D01*
X1420875Y957238D02*
X1463254D01*
X1420974Y952918D02*
X1463174D01*
X1421176Y956698D02*
X1463010D01*
X1421245Y953458D02*
X1462954D01*
X1421380Y956158D02*
X1462841D01*
X1421424Y953998D02*
X1462805D01*
X1421502Y955618D02*
X1462740D01*
X1421523Y954538D02*
X1462722D01*
X1421549Y955078D02*
X1462700D01*
X1452635Y1020958D02*
X1459128D01*
X1447515Y850858D02*
X1459051D01*
X1451803Y1011238D02*
X1458671D01*
X1448134Y838978D02*
X1458432D01*
X1400926Y1020418D02*
X1458073D01*
X1401204Y1011778D02*
X1457795D01*
X1401611Y1019878D02*
X1457388D01*
X1449269Y831418D02*
X1457297D01*
X1401812Y1012318D02*
X1457187D01*
X1449394Y843298D02*
X1457172D01*
X1449402Y850318D02*
X1457164D01*
X1449517Y838438D02*
X1457049D01*
X1402116Y1019338D02*
X1456883D01*
X1402268Y1012858D02*
X1456731D01*
X1450052Y831958D02*
X1456514D01*
X1402500Y1018798D02*
X1456499D01*
X1450128Y843838D02*
X1456437D01*
X1450133Y849778D02*
X1456432D01*
X1402617Y1013398D02*
X1456382D01*
X1450206Y837898D02*
X1456360D01*
X1402794Y1018258D02*
X1456205D01*
X1402882Y1013938D02*
X1456117D01*
X1450563Y832498D02*
X1456003D01*
X1403013Y1017718D02*
X1455986D01*
X1450616Y844378D02*
X1455950D01*
X1450619Y849238D02*
X1455947D01*
X1403076Y1014478D02*
X1455923D01*
X1450670Y837358D02*
X1455896D01*
X1403167Y1017178D02*
X1455832D01*
X1403208Y1015018D02*
X1455791D01*
X1403261Y1016638D02*
X1455738D01*
X1403281Y1015558D02*
X1455718D01*
X1403299Y1016098D02*
X1455700D01*
X1450921Y833038D02*
X1455645D01*
X1450958Y844918D02*
X1455608D01*
X1450961Y848698D02*
X1455605D01*
X1450996Y836818D02*
X1455570D01*
X1451170Y833578D02*
X1455396D01*
X1451195Y845458D02*
X1455371D01*
X1451197Y848158D02*
X1455369D01*
X1451220Y836278D02*
X1455346D01*
X1451330Y834118D02*
X1455236D01*
X1451345Y845998D02*
X1455221D01*
X1451346Y847618D02*
X1455220D01*
X1451360Y835738D02*
X1455206D01*
X1451413Y834658D02*
X1455153D01*
X1451418Y846538D02*
X1455148D01*
X1451419Y847078D02*
X1455147D01*
X1451423Y835198D02*
X1455143D01*
X1408803Y1011238D02*
X1450196D01*
X1408924Y1031218D02*
X1450075D01*
X1409635Y1020958D02*
X1449364D01*
X1409696Y1000978D02*
X1449303D01*
X1410452Y1010698D02*
X1448547D01*
X1410489Y1030678D02*
X1448510D01*
X1410797Y1021498D02*
X1448202D01*
X1410829Y1001518D02*
X1448170D01*
X1411285Y1010158D02*
X1447714D01*
X1411310Y1030138D02*
X1447689D01*
X1411521Y1022038D02*
X1447478D01*
X1411543Y1002058D02*
X1447456D01*
X1435704Y850858D02*
X1447240D01*
X1411872Y1009618D02*
X1447127D01*
X1411890Y1029598D02*
X1447109D01*
X1412047Y1022578D02*
X1446952D01*
X1412064Y1002598D02*
X1446935D01*
X1412314Y1009078D02*
X1446685D01*
X1412328Y1029058D02*
X1446671D01*
X1436323Y838978D02*
X1446621D01*
X1412448Y1023118D02*
X1446551D01*
X1412461Y1003138D02*
X1446538D01*
X1412652Y1008538D02*
X1446347D01*
X1412663Y1028518D02*
X1446336D01*
X1412754Y1023658D02*
X1446245D01*
X1412764Y1003678D02*
X1446235D01*
X1412908Y1007998D02*
X1446091D01*
X1412916Y1027978D02*
X1446083D01*
X1412984Y1024198D02*
X1446015D01*
X1412991Y1004218D02*
X1446008D01*
X1413095Y1007458D02*
X1445904D01*
X1413101Y1027438D02*
X1445898D01*
X1413147Y1024738D02*
X1445852D01*
X1413152Y1004758D02*
X1445847D01*
X1413219Y1006918D02*
X1445780D01*
X1413223Y1026898D02*
X1445776D01*
X1413250Y1025278D02*
X1445749D01*
X1413253Y1005298D02*
X1445746D01*
X1413286Y1006378D02*
X1445713D01*
X1413287Y1026358D02*
X1445712D01*
X1413296Y1025818D02*
X1445703D01*
X1413297Y1005838D02*
X1445702D01*
X1437458Y831418D02*
X1445486D01*
X1437583Y843298D02*
X1445361D01*
X1437591Y850318D02*
X1445353D01*
X1437706Y838438D02*
X1445238D01*
X1438241Y831958D02*
X1444703D01*
X1438317Y843838D02*
X1444626D01*
X1438322Y849778D02*
X1444621D01*
X1438395Y837898D02*
X1444549D01*
X1438752Y832498D02*
X1444192D01*
X1438805Y844378D02*
X1444139D01*
X1438808Y849238D02*
X1444136D01*
X1438859Y837358D02*
X1444085D01*
X1439110Y833038D02*
X1443834D01*
X1439147Y844918D02*
X1443797D01*
X1439150Y848698D02*
X1443794D01*
X1439185Y836818D02*
X1443759D01*
X1439359Y833578D02*
X1443585D01*
X1439384Y845458D02*
X1443560D01*
X1439386Y848158D02*
X1443558D01*
X1439409Y836278D02*
X1443535D01*
X1439519Y834118D02*
X1443424D01*
X1439534Y845998D02*
X1443410D01*
X1439535Y847618D02*
X1443409D01*
X1439549Y835738D02*
X1443395D01*
X1439602Y834658D02*
X1443342D01*
X1439607Y846538D02*
X1443337D01*
X1439608Y847078D02*
X1443336D01*
X1439612Y835198D02*
X1443332D01*
X1423893Y850858D02*
X1435429D01*
X1424512Y838978D02*
X1434810D01*
X1425647Y831418D02*
X1433675D01*
X1425772Y843298D02*
X1433550D01*
X1425780Y850318D02*
X1433542D01*
X1425895Y838438D02*
X1433427D01*
X1426430Y831958D02*
X1432892D01*
X1426506Y843838D02*
X1432815D01*
X1426511Y849778D02*
X1432810D01*
X1426584Y837898D02*
X1432738D01*
X1426941Y832498D02*
X1432381D01*
X1426994Y844378D02*
X1432328D01*
X1426997Y849238D02*
X1432325D01*
X1427048Y837358D02*
X1432274D01*
X1427299Y833038D02*
X1432023D01*
X1427336Y844918D02*
X1431986D01*
X1427339Y848698D02*
X1431983D01*
X1427374Y836818D02*
X1431948D01*
X1427548Y833578D02*
X1431774D01*
X1427573Y845458D02*
X1431749D01*
X1427575Y848158D02*
X1431747D01*
X1427598Y836278D02*
X1431724D01*
X1427708Y834118D02*
X1431613D01*
X1427723Y845998D02*
X1431599D01*
X1427724Y847618D02*
X1431598D01*
X1427737Y835738D02*
X1431584D01*
X1427791Y834658D02*
X1431531D01*
X1427796Y846538D02*
X1431526D01*
X1427797Y847078D02*
X1431525D01*
X1427801Y835198D02*
X1431521D01*
X1412082Y850858D02*
X1423618D01*
X1412701Y838978D02*
X1422999D01*
X1413836Y831418D02*
X1421864D01*
X1413961Y843298D02*
X1421739D01*
X1413969Y850318D02*
X1421731D01*
X1414084Y838438D02*
X1421616D01*
X1414619Y831958D02*
X1421081D01*
X1414695Y843838D02*
X1421004D01*
X1414700Y849778D02*
X1420999D01*
X1414773Y837898D02*
X1420927D01*
X1415130Y832498D02*
X1420570D01*
X1415183Y844378D02*
X1420517D01*
X1415186Y849238D02*
X1420514D01*
X1415237Y837358D02*
X1420463D01*
X1415488Y833038D02*
X1420212D01*
X1415525Y844918D02*
X1420175D01*
X1415528Y848698D02*
X1420172D01*
X1415563Y836818D02*
X1420137D01*
X1415737Y833578D02*
X1419963D01*
X1415762Y845458D02*
X1419938D01*
X1415764Y848158D02*
X1419936D01*
X1415787Y836278D02*
X1419913D01*
X1415897Y834118D02*
X1419802D01*
X1415912Y845998D02*
X1419788D01*
X1415913Y847618D02*
X1419787D01*
X1415926Y835738D02*
X1419773D01*
X1415980Y834658D02*
X1419720D01*
X1415985Y846538D02*
X1419715D01*
X1415986Y847078D02*
X1419714D01*
X1415990Y835198D02*
X1419710D01*
X1388512Y901078D02*
X1416487D01*
X1338665Y938878D02*
X1416334D01*
X1390354Y958858D02*
X1416269D01*
X1390556Y951298D02*
X1415855D01*
X1339188Y931318D02*
X1415811D01*
X1389278Y908638D02*
X1415721D01*
X1389729Y901618D02*
X1415270D01*
X1339792Y938338D02*
X1415207D01*
X1390967Y958318D02*
X1415178D01*
X1391111Y951838D02*
X1414968D01*
X1340056Y931858D02*
X1414943D01*
X1390107Y908098D02*
X1414892D01*
X1390386Y902158D02*
X1414613D01*
X1340427Y937798D02*
X1414572D01*
X1391413Y957778D02*
X1414553D01*
X1391521Y952378D02*
X1414412D01*
X1340604Y932398D02*
X1414395D01*
X1390639Y907558D02*
X1414360D01*
X1390832Y902698D02*
X1414167D01*
X1340861Y937258D02*
X1414138D01*
X1391745Y957238D02*
X1414124D01*
X1391825Y952918D02*
X1414025D01*
X1340986Y932938D02*
X1414013D01*
X1391011Y907018D02*
X1413988D01*
X1391146Y903238D02*
X1413853D01*
X1341167Y936718D02*
X1413832D01*
X1391989Y956698D02*
X1413823D01*
X1392045Y953458D02*
X1413754D01*
X1341253Y933478D02*
X1413746D01*
X1391270Y906478D02*
X1413729D01*
X1391361Y903778D02*
X1413638D01*
X1341374Y936178D02*
X1413625D01*
X1392158Y956158D02*
X1413619D01*
X1392194Y953998D02*
X1413575D01*
X1341429Y934018D02*
X1413570D01*
X1391439Y905938D02*
X1413560D01*
X1391492Y904318D02*
X1413507D01*
X1341499Y935638D02*
X1413500D01*
X1392259Y955618D02*
X1413497D01*
X1392277Y954538D02*
X1413476D01*
X1341525Y934558D02*
X1413474D01*
X1391530Y905398D02*
X1413469D01*
X1391547Y904858D02*
X1413452D01*
X1341548Y935098D02*
X1413451D01*
X1392299Y955078D02*
X1413450D01*
X1400271Y850858D02*
X1411807D01*
X1400890Y838978D02*
X1411188D01*
X1402025Y831418D02*
X1410053D01*
X1402150Y843298D02*
X1409928D01*
X1402158Y850318D02*
X1409920D01*
X1402273Y838438D02*
X1409805D01*
X1402808Y831958D02*
X1409270D01*
X1402884Y843838D02*
X1409193D01*
X1402889Y849778D02*
X1409188D01*
X1402962Y837898D02*
X1409116D01*
X1403319Y832498D02*
X1408759D01*
X1403372Y844378D02*
X1408706D01*
X1403375Y849238D02*
X1408703D01*
X1403426Y837358D02*
X1408652D01*
X1403677Y833038D02*
X1408401D01*
X1403714Y844918D02*
X1408364D01*
X1403717Y848698D02*
X1408361D01*
X1403752Y836818D02*
X1408326D01*
X1403926Y833578D02*
X1408152D01*
X1403951Y845458D02*
X1408127D01*
X1403953Y848158D02*
X1408125D01*
X1403976Y836278D02*
X1408102D01*
X1404086Y834118D02*
X1407991D01*
X1404101Y845998D02*
X1407977D01*
X1404102Y847618D02*
X1407976D01*
X1404115Y835738D02*
X1407962D01*
X1404169Y834658D02*
X1407909D01*
X1404174Y846538D02*
X1407904D01*
X1404175Y847078D02*
X1407903D01*
X1404179Y835198D02*
X1407899D01*
X1400328Y1011238D02*
X1407196D01*
X1388924Y1031218D02*
X1407075D01*
X1399871Y1020958D02*
X1406364D01*
X1389696Y1000978D02*
X1406303D01*
X1390452Y1010698D02*
X1405547D01*
X1390489Y1030678D02*
X1405510D01*
X1390797Y1021498D02*
X1405202D01*
X1390829Y1001518D02*
X1405170D01*
X1391285Y1010158D02*
X1404714D01*
X1391310Y1030138D02*
X1404689D01*
X1391521Y1022038D02*
X1404478D01*
X1391543Y1002058D02*
X1404456D01*
X1391872Y1009618D02*
X1404127D01*
X1391890Y1029598D02*
X1404109D01*
X1392047Y1022578D02*
X1403952D01*
X1392064Y1002598D02*
X1403935D01*
X1392314Y1009078D02*
X1403685D01*
X1392328Y1029058D02*
X1403671D01*
X1392448Y1023118D02*
X1403551D01*
X1392461Y1003138D02*
X1403538D01*
X1392652Y1008538D02*
X1403347D01*
X1392663Y1028518D02*
X1403336D01*
X1392754Y1023658D02*
X1403245D01*
X1392764Y1003678D02*
X1403235D01*
X1392908Y1007998D02*
X1403091D01*
X1392916Y1027978D02*
X1403083D01*
X1392984Y1024198D02*
X1403015D01*
X1392991Y1004218D02*
X1403008D01*
X1393095Y1007458D02*
X1402904D01*
X1393101Y1027438D02*
X1402898D01*
X1393147Y1024738D02*
X1402852D01*
X1393152Y1004758D02*
X1402847D01*
X1393219Y1006918D02*
X1402780D01*
X1393223Y1026898D02*
X1402776D01*
X1393250Y1025278D02*
X1402749D01*
X1393253Y1005298D02*
X1402746D01*
X1393286Y1006378D02*
X1402713D01*
X1393287Y1026358D02*
X1402712D01*
X1393296Y1025818D02*
X1402703D01*
X1393297Y1005838D02*
X1402702D01*
X1388460Y850858D02*
X1399996D01*
X1389079Y838978D02*
X1399377D01*
X1390214Y831418D02*
X1398242D01*
X1390339Y843298D02*
X1398117D01*
X1390347Y850318D02*
X1398109D01*
X1390462Y838438D02*
X1397994D01*
X1390997Y831958D02*
X1397459D01*
X1391073Y843838D02*
X1397382D01*
X1391078Y849778D02*
X1397377D01*
X1391151Y837898D02*
X1397305D01*
X1391508Y832498D02*
X1396948D01*
X1391561Y844378D02*
X1396895D01*
X1391564Y849238D02*
X1396892D01*
X1391615Y837358D02*
X1396841D01*
X1391866Y833038D02*
X1396590D01*
X1391903Y844918D02*
X1396553D01*
X1391906Y848698D02*
X1396550D01*
X1391941Y836818D02*
X1396515D01*
X1392115Y833578D02*
X1396341D01*
X1392140Y845458D02*
X1396316D01*
X1392142Y848158D02*
X1396314D01*
X1392165Y836278D02*
X1396290D01*
X1392275Y834118D02*
X1396180D01*
X1392290Y845998D02*
X1396166D01*
X1392291Y847618D02*
X1396165D01*
X1392304Y835738D02*
X1396151D01*
X1389635Y1020958D02*
X1396128D01*
X1392358Y834658D02*
X1396098D01*
X1392363Y846538D02*
X1396093D01*
X1392364Y847078D02*
X1396092D01*
X1392367Y835198D02*
X1396088D01*
X1388803Y1011238D02*
X1395671D01*
X1337926Y1020418D02*
X1395073D01*
X1338204Y1011778D02*
X1394795D01*
X1338611Y1019878D02*
X1394388D01*
X1338812Y1012318D02*
X1394187D01*
X1339116Y1019338D02*
X1393883D01*
X1339268Y1012858D02*
X1393731D01*
X1339500Y1018798D02*
X1393499D01*
X1339617Y1013398D02*
X1393382D01*
X1339794Y1018258D02*
X1393205D01*
X1339882Y1013938D02*
X1393117D01*
X1185479Y862738D02*
X1393079D01*
X1340013Y1017718D02*
X1392986D01*
X1340076Y1014478D02*
X1392923D01*
X1340167Y1017178D02*
X1392832D01*
X1340208Y1015018D02*
X1392791D01*
X1340261Y1016638D02*
X1392738D01*
X1340281Y1015558D02*
X1392718D01*
X1340299Y1016098D02*
X1392700D01*
X1019525Y867058D02*
X1392474D01*
X1185948Y863278D02*
X1391974D01*
X1185102Y866518D02*
X1391772D01*
X1186196Y863818D02*
X1391526D01*
X1185761Y865978D02*
X1391418D01*
X1186295Y864358D02*
X1391291D01*
X1186099Y865438D02*
X1391242D01*
X1186265Y864898D02*
X1391202D01*
X1376649Y850858D02*
X1388185D01*
X1377268Y838978D02*
X1387566D01*
X1345803Y1011238D02*
X1387196D01*
X1307923Y950218D02*
X1387076D01*
X1345924Y1031218D02*
X1387075D01*
X1338512Y901078D02*
X1386487D01*
X1378403Y831418D02*
X1386431D01*
X1346635Y1020958D02*
X1386364D01*
X1378528Y843298D02*
X1386306D01*
X1346696Y1000978D02*
X1386303D01*
X1378536Y850318D02*
X1386298D01*
X1378651Y838438D02*
X1386183D01*
X1339278Y908638D02*
X1385721D01*
X1379186Y831958D02*
X1385648D01*
X1309421Y959398D02*
X1385578D01*
X1379262Y843838D02*
X1385571D01*
X1379267Y849778D02*
X1385566D01*
X1347452Y1010698D02*
X1385547D01*
X1347489Y1030678D02*
X1385510D01*
X1379340Y837898D02*
X1385494D01*
X1339729Y901618D02*
X1385270D01*
X1309747Y950758D02*
X1385252D01*
X1347797Y1021498D02*
X1385202D01*
X1347829Y1001518D02*
X1385170D01*
X1379697Y832498D02*
X1385137D01*
X1379750Y844378D02*
X1385084D01*
X1379753Y849238D02*
X1385081D01*
X1379804Y837358D02*
X1385030D01*
X1340107Y908098D02*
X1384892D01*
X1380055Y833038D02*
X1384779D01*
X1380092Y844918D02*
X1384742D01*
X1380095Y848698D02*
X1384739D01*
X1348285Y1010158D02*
X1384714D01*
X1380130Y836818D02*
X1384704D01*
X1348310Y1030138D02*
X1384689D01*
X1338730Y958858D02*
X1384645D01*
X1340386Y902158D02*
X1384613D01*
X1380304Y833578D02*
X1384530D01*
X1380329Y845458D02*
X1384505D01*
X1380331Y848158D02*
X1384503D01*
X1380354Y836278D02*
X1384479D01*
X1348521Y1022038D02*
X1384478D01*
X1348543Y1002058D02*
X1384456D01*
X1339144Y951298D02*
X1384443D01*
X1380464Y834118D02*
X1384369D01*
X1340639Y907558D02*
X1384360D01*
X1380479Y845998D02*
X1384355D01*
X1380480Y847618D02*
X1384354D01*
X1380493Y835738D02*
X1384340D01*
X1380547Y834658D02*
X1384287D01*
X1380552Y846538D02*
X1384281D01*
X1380552Y847078D02*
X1384281D01*
X1380556Y835198D02*
X1384277D01*
X1340832Y902698D02*
X1384167D01*
X1348872Y1009618D02*
X1384127D01*
X1348890Y1029598D02*
X1384109D01*
X1339821Y958318D02*
X1384032D01*
X1341011Y907018D02*
X1383988D01*
X1349047Y1022578D02*
X1383952D01*
X1349064Y1002598D02*
X1383935D01*
X1340031Y951838D02*
X1383888D01*
X1341146Y903238D02*
X1383853D01*
X1341270Y906478D02*
X1383729D01*
X1349314Y1009078D02*
X1383685D01*
X1349328Y1029058D02*
X1383671D01*
X1341361Y903778D02*
X1383638D01*
X1340446Y957778D02*
X1383586D01*
X1341439Y905938D02*
X1383560D01*
X1349448Y1023118D02*
X1383551D01*
X1349461Y1003138D02*
X1383538D01*
X1341492Y904318D02*
X1383507D01*
X1340587Y952378D02*
X1383478D01*
X1341530Y905398D02*
X1383469D01*
X1341547Y904858D02*
X1383452D01*
X1349652Y1008538D02*
X1383347D01*
X1349663Y1028518D02*
X1383336D01*
X1340875Y957238D02*
X1383254D01*
X1349754Y1023658D02*
X1383245D01*
X1349764Y1003678D02*
X1383235D01*
X1340974Y952918D02*
X1383174D01*
X1349908Y1007998D02*
X1383091D01*
X1349916Y1027978D02*
X1383083D01*
X1349984Y1024198D02*
X1383015D01*
X1341176Y956698D02*
X1383010D01*
X1349991Y1004218D02*
X1383008D01*
X1341245Y953458D02*
X1382954D01*
X1350095Y1007458D02*
X1382904D01*
X1350101Y1027438D02*
X1382898D01*
X1350147Y1024738D02*
X1382852D01*
X1350152Y1004758D02*
X1382847D01*
X1341380Y956158D02*
X1382841D01*
X1341424Y953998D02*
X1382805D01*
X1350219Y1006918D02*
X1382780D01*
X1350223Y1026898D02*
X1382776D01*
X1350250Y1025278D02*
X1382749D01*
X1350253Y1005298D02*
X1382746D01*
X1341502Y955618D02*
X1382740D01*
X1341523Y954538D02*
X1382722D01*
X1350286Y1006378D02*
X1382713D01*
X1350287Y1026358D02*
X1382712D01*
X1350296Y1025818D02*
X1382703D01*
X1350297Y1005838D02*
X1382702D01*
X1341549Y955078D02*
X1382700D01*
X1364838Y850858D02*
X1376374D01*
X1365457Y838978D02*
X1375755D01*
X1366592Y831418D02*
X1374620D01*
X1366717Y843298D02*
X1374495D01*
X1366725Y850318D02*
X1374487D01*
X1366840Y838438D02*
X1374372D01*
X1367375Y831958D02*
X1373837D01*
X1367451Y843838D02*
X1373760D01*
X1367456Y849778D02*
X1373755D01*
X1367529Y837898D02*
X1373683D01*
X1367886Y832498D02*
X1373326D01*
X1367939Y844378D02*
X1373273D01*
X1367942Y849238D02*
X1373270D01*
X1367993Y837358D02*
X1373219D01*
X1368244Y833038D02*
X1372968D01*
X1368281Y844918D02*
X1372931D01*
X1368283Y848698D02*
X1372928D01*
X1368319Y836818D02*
X1372893D01*
X1368493Y833578D02*
X1372719D01*
X1368518Y845458D02*
X1372694D01*
X1368520Y848158D02*
X1372692D01*
X1368543Y836278D02*
X1372668D01*
X1368653Y834118D02*
X1372558D01*
X1368668Y845998D02*
X1372544D01*
X1368669Y847618D02*
X1372543D01*
X1368682Y835738D02*
X1372529D01*
X1368736Y834658D02*
X1372476D01*
X1368741Y846538D02*
X1372470D01*
X1368741Y847078D02*
X1372470D01*
X1368745Y835198D02*
X1372466D01*
X1190839Y850858D02*
X1364563D01*
X802800Y838978D02*
X1363944D01*
X1152444Y831418D02*
X1362809D01*
X1188156Y843298D02*
X1362684D01*
X988229Y850318D02*
X1362676D01*
X802800Y838438D02*
X1362561D01*
X1152278Y831958D02*
X1362026D01*
X1187870Y843838D02*
X1361949D01*
X959411Y849778D02*
X1361944D01*
X802800Y837898D02*
X1361872D01*
X1152022Y832498D02*
X1361515D01*
X1187326Y844378D02*
X1361462D01*
X959678Y849238D02*
X1361459D01*
X802800Y837358D02*
X1361408D01*
X1151655Y833038D02*
X1361157D01*
X969761Y844918D02*
X1361120D01*
X959791Y848698D02*
X1361117D01*
X802800Y836818D02*
X1361082D01*
X1151131Y833578D02*
X1360908D01*
X969590Y845458D02*
X1360883D01*
X959774Y848158D02*
X1360881D01*
X825358Y836278D02*
X1360857D01*
X1150318Y834118D02*
X1360747D01*
X969244Y845998D02*
X1360733D01*
X959624Y847618D02*
X1360732D01*
X827661Y835738D02*
X1360718D01*
X1109593Y834658D02*
X1360665D01*
X968564Y846538D02*
X1360659D01*
X959308Y847078D02*
X1360659D01*
X829013Y835198D02*
X1360655D01*
X802800Y810358D02*
X1354632D01*
X836261Y825478D02*
X1354047D01*
X825186Y810898D02*
X1352992D01*
X836329Y824938D02*
X1352688D01*
X827592Y811438D02*
X1352006D01*
X1149596Y824398D02*
X1351786D01*
X828965Y811978D02*
X1351268D01*
X1150763Y823858D02*
X1351095D01*
X830006Y812518D02*
X1350679D01*
X1151408Y823318D02*
X1350538D01*
X830860Y813058D02*
X1350194D01*
X1151848Y822778D02*
X1350077D01*
X831588Y813598D02*
X1349791D01*
X1152157Y822238D02*
X1349693D01*
X832221Y814138D02*
X1349454D01*
X1152368Y821698D02*
X1349373D01*
X832778Y814678D02*
X1349174D01*
X1152496Y821158D02*
X1349107D01*
X833274Y815218D02*
X1348945D01*
X1152548Y820618D02*
X1348891D01*
X833717Y815758D02*
X1348762D01*
X1152528Y820078D02*
X1348720D01*
X1109416Y816298D02*
X1348622D01*
X1152434Y819538D02*
X1348591D01*
X1150231Y816838D02*
X1348521D01*
X1152261Y818998D02*
X1348501D01*
X1151080Y817378D02*
X1348460D01*
X1151997Y818458D02*
X1348450D01*
X1151620Y817918D02*
X1348436D01*
X1337328Y1011238D02*
X1344196D01*
X1325924Y1031218D02*
X1344075D01*
X1336871Y1020958D02*
X1343364D01*
X1326696Y1000978D02*
X1343303D01*
X1327452Y1010698D02*
X1342547D01*
X1327489Y1030678D02*
X1342510D01*
X1327797Y1021498D02*
X1342202D01*
X1327829Y1001518D02*
X1342170D01*
X1328285Y1010158D02*
X1341714D01*
X1328310Y1030138D02*
X1341689D01*
X1328521Y1022038D02*
X1341478D01*
X1328543Y1002058D02*
X1341456D01*
X1328872Y1009618D02*
X1341127D01*
X1328890Y1029598D02*
X1341109D01*
X1329047Y1022578D02*
X1340952D01*
X1329064Y1002598D02*
X1340935D01*
X1329314Y1009078D02*
X1340685D01*
X1329328Y1029058D02*
X1340671D01*
X1329448Y1023118D02*
X1340551D01*
X1329461Y1003138D02*
X1340538D01*
X1329652Y1008538D02*
X1340347D01*
X1329663Y1028518D02*
X1340336D01*
X1329754Y1023658D02*
X1340245D01*
X1329764Y1003678D02*
X1340235D01*
X1329908Y1007998D02*
X1340091D01*
X1329916Y1027978D02*
X1340083D01*
X1329984Y1024198D02*
X1340015D01*
X1329991Y1004218D02*
X1340008D01*
X1330095Y1007458D02*
X1339904D01*
X1330101Y1027438D02*
X1339898D01*
X1330147Y1024738D02*
X1339852D01*
X1330152Y1004758D02*
X1339847D01*
X1330219Y1006918D02*
X1339780D01*
X1330223Y1026898D02*
X1339776D01*
X1330250Y1025278D02*
X1339749D01*
X1330253Y1005298D02*
X1339746D01*
X1330286Y1006378D02*
X1339713D01*
X1330287Y1026358D02*
X1339712D01*
X1330296Y1025818D02*
X1339703D01*
X1330297Y1005838D02*
X1339702D01*
X1308512Y901078D02*
X1336487D01*
X1258665Y938878D02*
X1336334D01*
X1310354Y958858D02*
X1336269D01*
X1310556Y951298D02*
X1335855D01*
X1259188Y931318D02*
X1335811D01*
X1309278Y908638D02*
X1335721D01*
X1309729Y901618D02*
X1335270D01*
X1259792Y938338D02*
X1335207D01*
X1310967Y958318D02*
X1335178D01*
X1311111Y951838D02*
X1334968D01*
X1260056Y931858D02*
X1334943D01*
X1310107Y908098D02*
X1334892D01*
X1310386Y902158D02*
X1334613D01*
X1260427Y937798D02*
X1334572D01*
X1311413Y957778D02*
X1334553D01*
X1311521Y952378D02*
X1334412D01*
X1260604Y932398D02*
X1334395D01*
X1310639Y907558D02*
X1334360D01*
X1310832Y902698D02*
X1334167D01*
X1260861Y937258D02*
X1334138D01*
X1311745Y957238D02*
X1334124D01*
X1311825Y952918D02*
X1334025D01*
X1260986Y932938D02*
X1334013D01*
X1311011Y907018D02*
X1333988D01*
X1311146Y903238D02*
X1333853D01*
X1261167Y936718D02*
X1333832D01*
X1311989Y956698D02*
X1333823D01*
X1312045Y953458D02*
X1333754D01*
X1261253Y933478D02*
X1333746D01*
X1311270Y906478D02*
X1333729D01*
X1311361Y903778D02*
X1333638D01*
X1261374Y936178D02*
X1333625D01*
X1312158Y956158D02*
X1333619D01*
X1312194Y953998D02*
X1333575D01*
X1261429Y934018D02*
X1333570D01*
X1311439Y905938D02*
X1333560D01*
X1311492Y904318D02*
X1333507D01*
X1261499Y935638D02*
X1333500D01*
X1312259Y955618D02*
X1333497D01*
X1312277Y954538D02*
X1333476D01*
X1261525Y934558D02*
X1333474D01*
X1311530Y905398D02*
X1333469D01*
X1311547Y904858D02*
X1333452D01*
X1261548Y935098D02*
X1333451D01*
X1312299Y955078D02*
X1333450D01*
X1326635Y1020958D02*
X1333128D01*
X1325803Y1011238D02*
X1332671D01*
X1274926Y1020418D02*
X1332073D01*
X1275204Y1011778D02*
X1331795D01*
X1275611Y1019878D02*
X1331388D01*
X1275812Y1012318D02*
X1331187D01*
X1276116Y1019338D02*
X1330883D01*
X1276268Y1012858D02*
X1330731D01*
X1276500Y1018798D02*
X1330499D01*
X1276617Y1013398D02*
X1330382D01*
X1276794Y1018258D02*
X1330205D01*
X1276882Y1013938D02*
X1330117D01*
X1277013Y1017718D02*
X1329986D01*
X1277076Y1014478D02*
X1329923D01*
X1277167Y1017178D02*
X1329832D01*
X1277208Y1015018D02*
X1329791D01*
X1277261Y1016638D02*
X1329738D01*
X1277281Y1015558D02*
X1329718D01*
X1277299Y1016098D02*
X1329700D01*
X1282803Y1011238D02*
X1324196D01*
X1282924Y1031218D02*
X1324075D01*
X1283635Y1020958D02*
X1323364D01*
X1283696Y1000978D02*
X1323303D01*
X1284452Y1010698D02*
X1322547D01*
X1284489Y1030678D02*
X1322510D01*
X1284797Y1021498D02*
X1322202D01*
X1284829Y1001518D02*
X1322170D01*
X1285285Y1010158D02*
X1321714D01*
X1285310Y1030138D02*
X1321689D01*
X1285521Y1022038D02*
X1321478D01*
X1285543Y1002058D02*
X1321456D01*
X1285872Y1009618D02*
X1321127D01*
X1285890Y1029598D02*
X1321109D01*
X1286047Y1022578D02*
X1320952D01*
X1286064Y1002598D02*
X1320935D01*
X1286314Y1009078D02*
X1320685D01*
X1286328Y1029058D02*
X1320671D01*
X1286448Y1023118D02*
X1320551D01*
X1286461Y1003138D02*
X1320538D01*
X1286652Y1008538D02*
X1320347D01*
X1286663Y1028518D02*
X1320336D01*
X1286754Y1023658D02*
X1320245D01*
X1286764Y1003678D02*
X1320235D01*
X1286908Y1007998D02*
X1320091D01*
X1286916Y1027978D02*
X1320083D01*
X1286984Y1024198D02*
X1320015D01*
X1286991Y1004218D02*
X1320008D01*
X1287095Y1007458D02*
X1319904D01*
X1287101Y1027438D02*
X1319898D01*
X1287147Y1024738D02*
X1319852D01*
X1287152Y1004758D02*
X1319847D01*
X1287219Y1006918D02*
X1319780D01*
X1287223Y1026898D02*
X1319776D01*
X1287250Y1025278D02*
X1319749D01*
X1287253Y1005298D02*
X1319746D01*
X1287286Y1006378D02*
X1319713D01*
X1287287Y1026358D02*
X1319712D01*
X1287296Y1025818D02*
X1319703D01*
X1287297Y1005838D02*
X1319702D01*
X1227923Y950218D02*
X1307076D01*
X1258512Y901078D02*
X1306487D01*
X1259278Y908638D02*
X1305721D01*
X1229421Y959398D02*
X1305578D01*
X1259729Y901618D02*
X1305270D01*
X1229747Y950758D02*
X1305252D01*
X1260107Y908098D02*
X1304892D01*
X1258730Y958858D02*
X1304645D01*
X1260386Y902158D02*
X1304613D01*
X1259144Y951298D02*
X1304443D01*
X1260639Y907558D02*
X1304360D01*
X1260832Y902698D02*
X1304167D01*
X1259821Y958318D02*
X1304032D01*
X1261011Y907018D02*
X1303988D01*
X1260031Y951838D02*
X1303888D01*
X1261146Y903238D02*
X1303853D01*
X1261270Y906478D02*
X1303729D01*
X1261361Y903778D02*
X1303638D01*
X1260446Y957778D02*
X1303586D01*
X1261439Y905938D02*
X1303560D01*
X1261492Y904318D02*
X1303507D01*
X1260587Y952378D02*
X1303478D01*
X1261530Y905398D02*
X1303469D01*
X1261547Y904858D02*
X1303452D01*
X1260875Y957238D02*
X1303254D01*
X1260974Y952918D02*
X1303174D01*
X1261176Y956698D02*
X1303010D01*
X1261245Y953458D02*
X1302954D01*
X1261380Y956158D02*
X1302841D01*
X1261424Y953998D02*
X1302805D01*
X1261502Y955618D02*
X1302740D01*
X1261523Y954538D02*
X1302722D01*
X1261549Y955078D02*
X1302700D01*
X1274328Y1011238D02*
X1281196D01*
X1262924Y1031218D02*
X1281075D01*
X1273871Y1020958D02*
X1280364D01*
X1263696Y1000978D02*
X1280303D01*
X1264452Y1010698D02*
X1279547D01*
X1264489Y1030678D02*
X1279510D01*
X1264797Y1021498D02*
X1279202D01*
X1264829Y1001518D02*
X1279170D01*
X1265285Y1010158D02*
X1278714D01*
X1265310Y1030138D02*
X1278689D01*
X1265521Y1022038D02*
X1278478D01*
X1265543Y1002058D02*
X1278456D01*
X1265872Y1009618D02*
X1278127D01*
X1265890Y1029598D02*
X1278109D01*
X1266047Y1022578D02*
X1277952D01*
X1266064Y1002598D02*
X1277935D01*
X1266314Y1009078D02*
X1277685D01*
X1266328Y1029058D02*
X1277671D01*
X1266448Y1023118D02*
X1277551D01*
X1266461Y1003138D02*
X1277538D01*
X1266652Y1008538D02*
X1277347D01*
X1266663Y1028518D02*
X1277336D01*
X1266754Y1023658D02*
X1277245D01*
X1266764Y1003678D02*
X1277235D01*
X1266908Y1007998D02*
X1277091D01*
X1266916Y1027978D02*
X1277083D01*
X1266984Y1024198D02*
X1277015D01*
X1266991Y1004218D02*
X1277008D01*
X1267095Y1007458D02*
X1276904D01*
X1267101Y1027438D02*
X1276898D01*
X1267147Y1024738D02*
X1276852D01*
X1267152Y1004758D02*
X1276847D01*
X1267219Y1006918D02*
X1276780D01*
X1267223Y1026898D02*
X1276776D01*
X1267250Y1025278D02*
X1276749D01*
X1267253Y1005298D02*
X1276746D01*
X1267286Y1006378D02*
X1276713D01*
X1267287Y1026358D02*
X1276712D01*
X1267296Y1025818D02*
X1276703D01*
X1267297Y1005838D02*
X1276702D01*
X1263635Y1020958D02*
X1270128D01*
X1262803Y1011238D02*
X1269671D01*
X1211926Y1020418D02*
X1269073D01*
X1212204Y1011778D02*
X1268795D01*
X1212611Y1019878D02*
X1268388D01*
X1212812Y1012318D02*
X1268187D01*
X1213116Y1019338D02*
X1267883D01*
X1213268Y1012858D02*
X1267731D01*
X1213500Y1018798D02*
X1267499D01*
X1213617Y1013398D02*
X1267382D01*
X1213794Y1018258D02*
X1267205D01*
X1213882Y1013938D02*
X1267117D01*
X1214013Y1017718D02*
X1266986D01*
X1214076Y1014478D02*
X1266923D01*
X1214167Y1017178D02*
X1266832D01*
X1214208Y1015018D02*
X1266791D01*
X1214261Y1016638D02*
X1266738D01*
X1214281Y1015558D02*
X1266718D01*
X1214299Y1016098D02*
X1266700D01*
X1219803Y1011238D02*
X1261196D01*
X1219924Y1031218D02*
X1261075D01*
X1220635Y1020958D02*
X1260364D01*
X1220696Y1000978D02*
X1260303D01*
X1221452Y1010698D02*
X1259547D01*
X1221489Y1030678D02*
X1259510D01*
X1221797Y1021498D02*
X1259202D01*
X1221829Y1001518D02*
X1259170D01*
X1222285Y1010158D02*
X1258714D01*
X1222310Y1030138D02*
X1258689D01*
X1222521Y1022038D02*
X1258478D01*
X1222543Y1002058D02*
X1258456D01*
X1222872Y1009618D02*
X1258127D01*
X1222890Y1029598D02*
X1258109D01*
X1223047Y1022578D02*
X1257952D01*
X1223064Y1002598D02*
X1257935D01*
X1223314Y1009078D02*
X1257685D01*
X1223328Y1029058D02*
X1257671D01*
X1223448Y1023118D02*
X1257551D01*
X1223461Y1003138D02*
X1257538D01*
X1223652Y1008538D02*
X1257347D01*
X1223663Y1028518D02*
X1257336D01*
X1223754Y1023658D02*
X1257245D01*
X1223764Y1003678D02*
X1257235D01*
X1223908Y1007998D02*
X1257091D01*
X1223916Y1027978D02*
X1257083D01*
X1223984Y1024198D02*
X1257015D01*
X1223991Y1004218D02*
X1257008D01*
X1224095Y1007458D02*
X1256904D01*
X1224101Y1027438D02*
X1256898D01*
X1224147Y1024738D02*
X1256852D01*
X1224152Y1004758D02*
X1256847D01*
X1224219Y1006918D02*
X1256780D01*
X1224223Y1026898D02*
X1256776D01*
X1224250Y1025278D02*
X1256749D01*
X1224253Y1005298D02*
X1256746D01*
X1224286Y1006378D02*
X1256713D01*
X1224287Y1026358D02*
X1256712D01*
X1224296Y1025818D02*
X1256703D01*
X1224297Y1005838D02*
X1256702D01*
X1228512Y901078D02*
X1256487D01*
X1123665Y938878D02*
X1256334D01*
X1230354Y958858D02*
X1256269D01*
X1230556Y951298D02*
X1255855D01*
X1124188Y931318D02*
X1255811D01*
X1229278Y908638D02*
X1255721D01*
X1229729Y901618D02*
X1255270D01*
X1124792Y938338D02*
X1255207D01*
X1230967Y958318D02*
X1255178D01*
X1231111Y951838D02*
X1254968D01*
X1125056Y931858D02*
X1254943D01*
X1230107Y908098D02*
X1254892D01*
X1230386Y902158D02*
X1254613D01*
X1125427Y937798D02*
X1254572D01*
X1231413Y957778D02*
X1254553D01*
X1231521Y952378D02*
X1254412D01*
X1125604Y932398D02*
X1254395D01*
X1230639Y907558D02*
X1254360D01*
X1230832Y902698D02*
X1254167D01*
X1125861Y937258D02*
X1254138D01*
X1231745Y957238D02*
X1254124D01*
X1231825Y952918D02*
X1254025D01*
X1125986Y932938D02*
X1254013D01*
X1231011Y907018D02*
X1253988D01*
X1231146Y903238D02*
X1253853D01*
X1126167Y936718D02*
X1253832D01*
X1231989Y956698D02*
X1253823D01*
X1232045Y953458D02*
X1253754D01*
X1126253Y933478D02*
X1253746D01*
X1231270Y906478D02*
X1253729D01*
X1231361Y903778D02*
X1253638D01*
X1126374Y936178D02*
X1253625D01*
X1232158Y956158D02*
X1253619D01*
X1232194Y953998D02*
X1253575D01*
X1126429Y934018D02*
X1253570D01*
X1231439Y905938D02*
X1253560D01*
X1231492Y904318D02*
X1253507D01*
X1126499Y935638D02*
X1253500D01*
X1232259Y955618D02*
X1253497D01*
X1232277Y954538D02*
X1253476D01*
X1126525Y934558D02*
X1253474D01*
X1231530Y905398D02*
X1253469D01*
X1231547Y904858D02*
X1253452D01*
X1126548Y935098D02*
X1253451D01*
X1232299Y955078D02*
X1253450D01*
X1092923Y950218D02*
X1227076D01*
X1192107Y901078D02*
X1226487D01*
X1124278Y908638D02*
X1225721D01*
X1094421Y959398D02*
X1225578D01*
X1192268Y901618D02*
X1225270D01*
X1094747Y950758D02*
X1225252D01*
X1125107Y908098D02*
X1224892D01*
X1123730Y958858D02*
X1224645D01*
X1192294Y902158D02*
X1224613D01*
X1124144Y951298D02*
X1224443D01*
X1125639Y907558D02*
X1224360D01*
X1192191Y902698D02*
X1224167D01*
X1124821Y958318D02*
X1224032D01*
X1126011Y907018D02*
X1223988D01*
X1125031Y951838D02*
X1223888D01*
X1191937Y903238D02*
X1223853D01*
X1126270Y906478D02*
X1223729D01*
X1191458Y903778D02*
X1223638D01*
X1125446Y957778D02*
X1223586D01*
X1126439Y905938D02*
X1223560D01*
X1126492Y904318D02*
X1223507D01*
X1125587Y952378D02*
X1223478D01*
X1126530Y905398D02*
X1223469D01*
X1126547Y904858D02*
X1223452D01*
X1125875Y957238D02*
X1223254D01*
X1125974Y952918D02*
X1223174D01*
X1126176Y956698D02*
X1223010D01*
X1126245Y953458D02*
X1222954D01*
X1126380Y956158D02*
X1222841D01*
X1126424Y953998D02*
X1222805D01*
X1126502Y955618D02*
X1222740D01*
X1126523Y954538D02*
X1222722D01*
X1126549Y955078D02*
X1222700D01*
X1211328Y1011238D02*
X1218196D01*
X1199924Y1031218D02*
X1218075D01*
X1210871Y1020958D02*
X1217364D01*
X1200696Y1000978D02*
X1217303D01*
X1201452Y1010698D02*
X1216547D01*
X1201489Y1030678D02*
X1216510D01*
X1201797Y1021498D02*
X1216202D01*
X1201829Y1001518D02*
X1216170D01*
X1202285Y1010158D02*
X1215714D01*
X1202310Y1030138D02*
X1215689D01*
X1202521Y1022038D02*
X1215478D01*
X1202543Y1002058D02*
X1215456D01*
X1202872Y1009618D02*
X1215127D01*
X1202890Y1029598D02*
X1215109D01*
X1203047Y1022578D02*
X1214952D01*
X1203064Y1002598D02*
X1214935D01*
X1203314Y1009078D02*
X1214685D01*
X1203328Y1029058D02*
X1214671D01*
X1203448Y1023118D02*
X1214551D01*
X1203461Y1003138D02*
X1214538D01*
X1203652Y1008538D02*
X1214347D01*
X1203663Y1028518D02*
X1214336D01*
X1203754Y1023658D02*
X1214245D01*
X1203764Y1003678D02*
X1214235D01*
X1203908Y1007998D02*
X1214091D01*
X1203916Y1027978D02*
X1214083D01*
X1203984Y1024198D02*
X1214015D01*
X1203991Y1004218D02*
X1214008D01*
X1204095Y1007458D02*
X1213904D01*
X1204101Y1027438D02*
X1213898D01*
X1204147Y1024738D02*
X1213852D01*
X1204152Y1004758D02*
X1213847D01*
X1204219Y1006918D02*
X1213780D01*
X1204223Y1026898D02*
X1213776D01*
X1204250Y1025278D02*
X1213749D01*
X1204253Y1005298D02*
X1213746D01*
X1204286Y1006378D02*
X1213713D01*
X1204287Y1026358D02*
X1213712D01*
X1204296Y1025818D02*
X1213703D01*
X1204297Y1005838D02*
X1213702D01*
X1200635Y1020958D02*
X1207128D01*
X1199803Y1011238D02*
X1206671D01*
X1148926Y1020418D02*
X1206073D01*
X1149204Y1011778D02*
X1205795D01*
X1149611Y1019878D02*
X1205388D01*
X1186097Y879478D02*
X1205327D01*
X1149812Y1012318D02*
X1205187D01*
X1203691Y875698D02*
X1205069D01*
X1150116Y1019338D02*
X1204883D01*
X1150268Y1012858D02*
X1204731D01*
X802800Y878938D02*
X1204705D01*
X1203437Y876238D02*
X1204576D01*
X1150500Y1018798D02*
X1204499D01*
X1151298Y878398D02*
X1204382D01*
X1150617Y1013398D02*
X1204382D01*
X1202958Y876778D02*
X1204316D01*
X1151855Y877858D02*
X1204228D01*
X1152149Y877318D02*
X1204207D01*
X1150794Y1018258D02*
X1204205D01*
X1150882Y1013938D02*
X1204117D01*
X1151013Y1017718D02*
X1203986D01*
X1151076Y1014478D02*
X1203923D01*
X1151167Y1017178D02*
X1203832D01*
X1151208Y1015018D02*
X1203791D01*
X1151261Y1016638D02*
X1203738D01*
X1151281Y1015558D02*
X1203718D01*
X1151299Y1016098D02*
X1203700D01*
X1197245Y872998D02*
X1200366D01*
X1152283Y876778D02*
X1200041D01*
X1197052Y873538D02*
X1199723D01*
X1152285Y876238D02*
X1199562D01*
X1196672Y874078D02*
X1199392D01*
X1152155Y875698D02*
X1199308D01*
X1195895Y874618D02*
X1199231D01*
X1151868Y875158D02*
X1199205D01*
X1156803Y1011238D02*
X1198196D01*
X1156924Y1031218D02*
X1198075D01*
X1157635Y1020958D02*
X1197364D01*
X1157696Y1000978D02*
X1197303D01*
X1158452Y1010698D02*
X1196547D01*
X1158489Y1030678D02*
X1196510D01*
X1158797Y1021498D02*
X1196202D01*
X1158829Y1001518D02*
X1196170D01*
X1159285Y1010158D02*
X1195714D01*
X1159310Y1030138D02*
X1195689D01*
X1159521Y1022038D02*
X1195478D01*
X1159543Y1002058D02*
X1195456D01*
X1159872Y1009618D02*
X1195127D01*
X1159890Y1029598D02*
X1195109D01*
X1160047Y1022578D02*
X1194952D01*
X1160064Y1002598D02*
X1194935D01*
X1160314Y1009078D02*
X1194685D01*
X1160328Y1029058D02*
X1194671D01*
X1160448Y1023118D02*
X1194551D01*
X1160461Y1003138D02*
X1194538D01*
X1160652Y1008538D02*
X1194347D01*
X1160663Y1028518D02*
X1194336D01*
X916780Y870298D02*
X1194333D01*
X1160754Y1023658D02*
X1194245D01*
X1160764Y1003678D02*
X1194235D01*
X1151323Y874618D02*
X1194104D01*
X1160908Y1007998D02*
X1194091D01*
X1160916Y1027978D02*
X1194083D01*
X1160984Y1024198D02*
X1194015D01*
X1160991Y1004218D02*
X1194008D01*
X1161095Y1007458D02*
X1193904D01*
X1161101Y1027438D02*
X1193898D01*
X1161147Y1024738D02*
X1193852D01*
X1161152Y1004758D02*
X1193847D01*
X1161219Y1006918D02*
X1193780D01*
X1161223Y1026898D02*
X1193776D01*
X1161250Y1025278D02*
X1193749D01*
X1161253Y1005298D02*
X1193746D01*
X1161286Y1006378D02*
X1193713D01*
X1161287Y1026358D02*
X1193712D01*
X1161296Y1025818D02*
X1193703D01*
X1161297Y1005838D02*
X1193702D01*
X916641Y870838D02*
X1193409D01*
X802800Y874078D02*
X1193327D01*
X916340Y871378D02*
X1192991D01*
X802800Y873538D02*
X1192947D01*
X915768Y871918D02*
X1192774D01*
X802800Y872998D02*
X1192754D01*
X802800Y872458D02*
X1192700D01*
X1176648Y855178D02*
X1189262D01*
X989111Y850858D02*
X1189160D01*
X1176133Y899998D02*
X1188866D01*
X1176458Y903778D02*
X1188541D01*
X1176353Y854638D02*
X1188386D01*
X989519Y851398D02*
X1188348D01*
X1176776Y900538D02*
X1188223D01*
X1176937Y903238D02*
X1188062D01*
X1175794Y854098D02*
X1187979D01*
X989730Y851938D02*
X1187959D01*
X1177107Y901078D02*
X1187892D01*
X1177191Y902698D02*
X1187808D01*
X1151292Y853558D02*
X1187768D01*
X989799Y852478D02*
X1187759D01*
X1177268Y901618D02*
X1187731D01*
X1177294Y902158D02*
X1187705D01*
X1150668Y853018D02*
X1187700D01*
X1170077Y883798D02*
X1184922D01*
X802800Y840598D02*
X1184705D01*
X969796Y844378D02*
X1184673D01*
X802800Y841138D02*
X1184146D01*
X969702Y843838D02*
X1184129D01*
X1171097Y879478D02*
X1183902D01*
X845404Y841678D02*
X1183851D01*
X969461Y843298D02*
X1183843D01*
X967792Y842218D02*
X1183717D01*
X969002Y842758D02*
X1183714D01*
X1171482Y883258D02*
X1183517D01*
X1171759Y880018D02*
X1183240D01*
X1171950Y882718D02*
X1183049D01*
X1172098Y880558D02*
X1182901D01*
X1020227Y866518D02*
X1182897D01*
X1172197Y882178D02*
X1182802D01*
X1172264Y881098D02*
X1182735D01*
X1172295Y881638D02*
X1182704D01*
X1160170Y862738D02*
X1182520D01*
X1020581Y865978D02*
X1182238D01*
X1160289Y863278D02*
X1182051D01*
X1159237Y865438D02*
X1181900D01*
X1160277Y863818D02*
X1181803D01*
X1159825Y864898D02*
X1181734D01*
X1160133Y864358D02*
X1181704D01*
X802800Y899998D02*
X1173866D01*
X1126361Y903778D02*
X1173541D01*
X802800Y900538D02*
X1173223D01*
X1151616Y854098D02*
X1173205D01*
X1160214Y857878D02*
X1173173D01*
X1126146Y903238D02*
X1173062D01*
X1123512Y901078D02*
X1172892D01*
X1125832Y902698D02*
X1172808D01*
X1124729Y901618D02*
X1172731D01*
X1125386Y902158D02*
X1172705D01*
X1151771Y854638D02*
X1172646D01*
X1159985Y857338D02*
X1172629D01*
X1151793Y855178D02*
X1172351D01*
X1159547Y856798D02*
X1172343D01*
X1151684Y855718D02*
X1172217D01*
X1158516Y856258D02*
X1172214D01*
X802800Y883798D02*
X1169922D01*
X802800Y879478D02*
X1168902D01*
X1166133Y886498D02*
X1168866D01*
X1166458Y890278D02*
X1168541D01*
X802800Y883258D02*
X1168517D01*
X802800Y880018D02*
X1168240D01*
X1166776Y887038D02*
X1168223D01*
X1166937Y889738D02*
X1168062D01*
X802800Y882718D02*
X1168049D01*
X802800Y880558D02*
X1167901D01*
X1167107Y887578D02*
X1167892D01*
X1167191Y889198D02*
X1167808D01*
X802800Y882178D02*
X1167802D01*
X802800Y881098D02*
X1167735D01*
X1167268Y888118D02*
X1167731D01*
X1167294Y888658D02*
X1167705D01*
X802800Y881638D02*
X1167704D01*
X802800Y886498D02*
X1163866D01*
X802800Y890278D02*
X1163541D01*
X802800Y887038D02*
X1163223D01*
X802800Y889738D02*
X1163062D01*
X802800Y887578D02*
X1162892D01*
X802800Y889198D02*
X1162808D01*
X802800Y888118D02*
X1162731D01*
X802800Y888658D02*
X1162705D01*
X802800Y910258D02*
X1162483D01*
X802800Y929698D02*
X1162324D01*
X802800Y925378D02*
X1162111D01*
X802800Y914578D02*
X1162015D01*
X802800Y910798D02*
X1161452D01*
X802800Y929158D02*
X1161406D01*
X802800Y925918D02*
X1161329D01*
X802800Y914038D02*
X1161290D01*
X802800Y911338D02*
X1161014D01*
X802800Y928618D02*
X1160990D01*
X802800Y926458D02*
X1160949D01*
X802800Y913498D02*
X1160928D01*
X802800Y911878D02*
X1160785D01*
X802800Y928078D02*
X1160773D01*
X802800Y926998D02*
X1160755D01*
X802800Y912958D02*
X1160746D01*
X802800Y912418D02*
X1160701D01*
X802800Y927538D02*
X1160700D01*
X1151425Y856258D02*
X1157483D01*
X802800Y860578D02*
X1157015D01*
X1020757Y865438D02*
X1156762D01*
X802800Y861658D02*
X1156621D01*
X1150933Y856798D02*
X1156452D01*
X802800Y860038D02*
X1156290D01*
X1020797Y864898D02*
X1156174D01*
X802800Y862198D02*
X1156103D01*
X802800Y857338D02*
X1156014D01*
X802800Y859498D02*
X1155928D01*
X1020708Y864358D02*
X1155866D01*
X1018920Y862738D02*
X1155829D01*
X802800Y857878D02*
X1155785D01*
X802800Y858958D02*
X1155746D01*
X1020473Y863818D02*
X1155722D01*
X1020025Y863278D02*
X1155710D01*
X802800Y858418D02*
X1155701D01*
X1148328Y1011238D02*
X1155196D01*
X1136924Y1031218D02*
X1155075D01*
X1147871Y1020958D02*
X1154364D01*
X1137696Y1000978D02*
X1154303D01*
X1138452Y1010698D02*
X1153547D01*
X1138489Y1030678D02*
X1153510D01*
X1138797Y1021498D02*
X1153202D01*
X1138829Y1001518D02*
X1153170D01*
X1139285Y1010158D02*
X1152714D01*
X1139310Y1030138D02*
X1152689D01*
X1139521Y1022038D02*
X1152478D01*
X1139543Y1002058D02*
X1152456D01*
X1139872Y1009618D02*
X1152127D01*
X1139890Y1029598D02*
X1152109D01*
X1140047Y1022578D02*
X1151952D01*
X1140064Y1002598D02*
X1151935D01*
X1140314Y1009078D02*
X1151685D01*
X1140328Y1029058D02*
X1151671D01*
X1140448Y1023118D02*
X1151551D01*
X1140461Y1003138D02*
X1151538D01*
X1140652Y1008538D02*
X1151347D01*
X1140663Y1028518D02*
X1151336D01*
X1140754Y1023658D02*
X1151245D01*
X1140764Y1003678D02*
X1151235D01*
X1140908Y1007998D02*
X1151091D01*
X1140916Y1027978D02*
X1151083D01*
X1140984Y1024198D02*
X1151015D01*
X1140991Y1004218D02*
X1151008D01*
X1141095Y1007458D02*
X1150904D01*
X1141101Y1027438D02*
X1150898D01*
X1141147Y1024738D02*
X1150852D01*
X1141152Y1004758D02*
X1150847D01*
X1141219Y1006918D02*
X1150780D01*
X1141223Y1026898D02*
X1150776D01*
X1141250Y1025278D02*
X1150749D01*
X1141253Y1005298D02*
X1150746D01*
X1141286Y1006378D02*
X1150713D01*
X1141287Y1026358D02*
X1150712D01*
X1141296Y1025818D02*
X1150703D01*
X1141297Y1005838D02*
X1150702D01*
X802800Y878398D02*
X1148701D01*
X802800Y874618D02*
X1148676D01*
X989740Y853018D02*
X1148331D01*
X802800Y877858D02*
X1148144D01*
X802800Y875158D02*
X1148131D01*
X802800Y856798D02*
X1148066D01*
X802800Y877318D02*
X1147850D01*
X802800Y875698D02*
X1147844D01*
X802800Y876778D02*
X1147716D01*
X802800Y876238D02*
X1147714D01*
X989541Y853558D02*
X1147707D01*
X802800Y856258D02*
X1147574D01*
X1139432Y826558D02*
X1147567D01*
X1139596Y824398D02*
X1147403D01*
X989153Y854098D02*
X1147383D01*
X802800Y855718D02*
X1147315D01*
X988346Y854638D02*
X1147228D01*
X802800Y855178D02*
X1147206D01*
X1140231Y816838D02*
X1146768D01*
X1140318Y834118D02*
X1146681D01*
X1140698Y827098D02*
X1146301D01*
X1140763Y823858D02*
X1146236D01*
X1141080Y817378D02*
X1145919D01*
X1141131Y833578D02*
X1145868D01*
X1141366Y827638D02*
X1145633D01*
X1141408Y823318D02*
X1145591D01*
X1141620Y817918D02*
X1145379D01*
X1141655Y833038D02*
X1145344D01*
X1141818Y828178D02*
X1145181D01*
X1141848Y822778D02*
X1145151D01*
X1141997Y818458D02*
X1145002D01*
X1142022Y832498D02*
X1144977D01*
X1142137Y828718D02*
X1144862D01*
X1142157Y822238D02*
X1144842D01*
X1142261Y818998D02*
X1144738D01*
X1142278Y831958D02*
X1144721D01*
X1142355Y829258D02*
X1144644D01*
X1142368Y821698D02*
X1144631D01*
X1142434Y819538D02*
X1144565D01*
X1142444Y831418D02*
X1144555D01*
X1142488Y829798D02*
X1144511D01*
X1142496Y821158D02*
X1144503D01*
X1142528Y820078D02*
X1144471D01*
X1142532Y830878D02*
X1144467D01*
X1142546Y830338D02*
X1144453D01*
X1142548Y820618D02*
X1144451D01*
X1137635Y1020958D02*
X1144128D01*
X1136803Y1011238D02*
X1143671D01*
X1085926Y1020418D02*
X1143073D01*
X1086204Y1011778D02*
X1142795D01*
X1086611Y1019878D02*
X1142388D01*
X1086812Y1012318D02*
X1142187D01*
X1087116Y1019338D02*
X1141883D01*
X1087268Y1012858D02*
X1141731D01*
X1087500Y1018798D02*
X1141499D01*
X1087617Y1013398D02*
X1141382D01*
X1087794Y1018258D02*
X1141205D01*
X1087882Y1013938D02*
X1141117D01*
X1088013Y1017718D02*
X1140986D01*
X1088076Y1014478D02*
X1140923D01*
X1088167Y1017178D02*
X1140832D01*
X1088208Y1015018D02*
X1140791D01*
X1088261Y1016638D02*
X1140738D01*
X1088281Y1015558D02*
X1140718D01*
X1088299Y1016098D02*
X1140700D01*
X1129432Y826558D02*
X1137567D01*
X1129596Y824398D02*
X1137403D01*
X1130231Y816838D02*
X1136768D01*
X1130318Y834118D02*
X1136681D01*
X1130698Y827098D02*
X1136301D01*
X1130763Y823858D02*
X1136236D01*
X1131080Y817378D02*
X1135919D01*
X1131131Y833578D02*
X1135868D01*
X1131366Y827638D02*
X1135633D01*
X1131408Y823318D02*
X1135591D01*
X1131620Y817918D02*
X1135379D01*
X1131655Y833038D02*
X1135344D01*
X1093803Y1011238D02*
X1135196D01*
X1131818Y828178D02*
X1135181D01*
X1131848Y822778D02*
X1135151D01*
X1093924Y1031218D02*
X1135075D01*
X1131997Y818458D02*
X1135002D01*
X1132022Y832498D02*
X1134977D01*
X1132137Y828718D02*
X1134862D01*
X1132157Y822238D02*
X1134842D01*
X1132261Y818998D02*
X1134738D01*
X1132278Y831958D02*
X1134721D01*
X1132355Y829258D02*
X1134644D01*
X1132368Y821698D02*
X1134631D01*
X1132434Y819538D02*
X1134565D01*
X1132444Y831418D02*
X1134555D01*
X1132488Y829798D02*
X1134511D01*
X1132496Y821158D02*
X1134503D01*
X1132528Y820078D02*
X1134471D01*
X1132532Y830878D02*
X1134467D01*
X1132546Y830338D02*
X1134453D01*
X1132548Y820618D02*
X1134451D01*
X1094635Y1020958D02*
X1134364D01*
X1094696Y1000978D02*
X1134303D01*
X1095452Y1010698D02*
X1133547D01*
X1095489Y1030678D02*
X1133510D01*
X1095797Y1021498D02*
X1133202D01*
X1095829Y1001518D02*
X1133170D01*
X1096285Y1010158D02*
X1132714D01*
X1096310Y1030138D02*
X1132689D01*
X1096521Y1022038D02*
X1132478D01*
X1096543Y1002058D02*
X1132456D01*
X1096872Y1009618D02*
X1132127D01*
X1096890Y1029598D02*
X1132109D01*
X1097047Y1022578D02*
X1131952D01*
X1097064Y1002598D02*
X1131935D01*
X1097314Y1009078D02*
X1131685D01*
X1097328Y1029058D02*
X1131671D01*
X1097448Y1023118D02*
X1131551D01*
X1097461Y1003138D02*
X1131538D01*
X1097652Y1008538D02*
X1131347D01*
X1097663Y1028518D02*
X1131336D01*
X1097754Y1023658D02*
X1131245D01*
X1097764Y1003678D02*
X1131235D01*
X1097908Y1007998D02*
X1131091D01*
X1097916Y1027978D02*
X1131083D01*
X1097984Y1024198D02*
X1131015D01*
X1097991Y1004218D02*
X1131008D01*
X1098095Y1007458D02*
X1130904D01*
X1098101Y1027438D02*
X1130898D01*
X1098147Y1024738D02*
X1130852D01*
X1098152Y1004758D02*
X1130847D01*
X1098219Y1006918D02*
X1130780D01*
X1098223Y1026898D02*
X1130776D01*
X1098250Y1025278D02*
X1130749D01*
X1098253Y1005298D02*
X1130746D01*
X1098286Y1006378D02*
X1130713D01*
X1098287Y1026358D02*
X1130712D01*
X1098296Y1025818D02*
X1130703D01*
X1098297Y1005838D02*
X1130702D01*
X1119432Y826558D02*
X1127567D01*
X1119596Y824398D02*
X1127403D01*
X1120231Y816838D02*
X1126768D01*
X1120318Y834118D02*
X1126681D01*
X1120698Y827098D02*
X1126301D01*
X1120763Y823858D02*
X1126236D01*
X1121080Y817378D02*
X1125919D01*
X1121131Y833578D02*
X1125868D01*
X1121366Y827638D02*
X1125633D01*
X1121408Y823318D02*
X1125591D01*
X1121620Y817918D02*
X1125379D01*
X1121655Y833038D02*
X1125344D01*
X1121818Y828178D02*
X1125181D01*
X1121848Y822778D02*
X1125151D01*
X1121997Y818458D02*
X1125002D01*
X1122022Y832498D02*
X1124977D01*
X1122137Y828718D02*
X1124862D01*
X1122157Y822238D02*
X1124842D01*
X1122261Y818998D02*
X1124738D01*
X1122278Y831958D02*
X1124721D01*
X1122355Y829258D02*
X1124644D01*
X1122368Y821698D02*
X1124631D01*
X1122434Y819538D02*
X1124565D01*
X1122444Y831418D02*
X1124555D01*
X1122488Y829798D02*
X1124511D01*
X1122496Y821158D02*
X1124503D01*
X1122528Y820078D02*
X1124471D01*
X1122532Y830878D02*
X1124467D01*
X1122546Y830338D02*
X1124453D01*
X1122548Y820618D02*
X1124451D01*
X1093512Y901078D02*
X1121487D01*
X1043665Y938878D02*
X1121334D01*
X1095354Y958858D02*
X1121269D01*
X1095556Y951298D02*
X1120855D01*
X1044188Y931318D02*
X1120811D01*
X1094278Y908638D02*
X1120721D01*
X1094729Y901618D02*
X1120270D01*
X1044792Y938338D02*
X1120207D01*
X1095967Y958318D02*
X1120178D01*
X1096111Y951838D02*
X1119968D01*
X1045056Y931858D02*
X1119943D01*
X1095107Y908098D02*
X1119892D01*
X1095386Y902158D02*
X1119613D01*
X1045427Y937798D02*
X1119572D01*
X1096413Y957778D02*
X1119553D01*
X1096521Y952378D02*
X1119412D01*
X1045604Y932398D02*
X1119395D01*
X1095639Y907558D02*
X1119360D01*
X1095832Y902698D02*
X1119167D01*
X1045861Y937258D02*
X1119138D01*
X1096745Y957238D02*
X1119124D01*
X1096825Y952918D02*
X1119025D01*
X1045986Y932938D02*
X1119013D01*
X1096011Y907018D02*
X1118988D01*
X1096146Y903238D02*
X1118853D01*
X1046167Y936718D02*
X1118832D01*
X1096989Y956698D02*
X1118823D01*
X1097045Y953458D02*
X1118754D01*
X1046253Y933478D02*
X1118746D01*
X1096270Y906478D02*
X1118729D01*
X1096361Y903778D02*
X1118638D01*
X1046374Y936178D02*
X1118625D01*
X1097158Y956158D02*
X1118619D01*
X1097194Y953998D02*
X1118575D01*
X1046429Y934018D02*
X1118570D01*
X1096439Y905938D02*
X1118560D01*
X1096492Y904318D02*
X1118507D01*
X1046499Y935638D02*
X1118500D01*
X1097259Y955618D02*
X1118497D01*
X1097277Y954538D02*
X1118476D01*
X1046525Y934558D02*
X1118474D01*
X1096530Y905398D02*
X1118469D01*
X1096547Y904858D02*
X1118452D01*
X1046548Y935098D02*
X1118451D01*
X1097299Y955078D02*
X1118450D01*
X1110219Y826558D02*
X1117567D01*
X1110313Y824398D02*
X1117403D01*
X1110755Y816838D02*
X1116768D01*
X1110822Y834118D02*
X1116681D01*
X1111130Y827098D02*
X1116301D01*
X1111185Y823858D02*
X1116236D01*
X1111457Y817378D02*
X1115919D01*
X1111501Y833578D02*
X1115868D01*
X1111709Y827638D02*
X1115633D01*
X1111747Y823318D02*
X1115591D01*
X1111939Y817918D02*
X1115379D01*
X1111970Y833038D02*
X1115344D01*
X1112119Y828178D02*
X1115181D01*
X1112146Y822778D02*
X1115151D01*
X1112284Y818458D02*
X1115002D01*
X1112307Y832498D02*
X1114977D01*
X1112413Y828718D02*
X1114862D01*
X1112432Y822238D02*
X1114842D01*
X1112529Y818998D02*
X1114738D01*
X1112545Y831958D02*
X1114721D01*
X1112616Y829258D02*
X1114644D01*
X1112629Y821698D02*
X1114631D01*
X1112691Y819538D02*
X1114565D01*
X1112700Y831418D02*
X1114555D01*
X1112742Y829798D02*
X1114511D01*
X1112749Y821158D02*
X1114503D01*
X1112779Y820078D02*
X1114471D01*
X1112783Y830878D02*
X1114467D01*
X1112796Y830338D02*
X1114453D01*
X1112798Y820618D02*
X1114451D01*
X834113Y816298D02*
X1107583D01*
X830045Y834658D02*
X1107406D01*
X836053Y826558D02*
X1106780D01*
X836375Y824398D02*
X1106686D01*
X834468Y816838D02*
X1106244D01*
X830893Y834118D02*
X1106177D01*
X835912Y827098D02*
X1105869D01*
X836397Y823858D02*
X1105814D01*
X834786Y817378D02*
X1105542D01*
X831616Y833578D02*
X1105498D01*
X835746Y827638D02*
X1105290D01*
X836396Y823318D02*
X1105252D01*
X835070Y817918D02*
X1105060D01*
X832245Y833038D02*
X1105029D01*
X835553Y828178D02*
X1104880D01*
X836373Y822778D02*
X1104853D01*
X835322Y818458D02*
X1104715D01*
X832800Y832498D02*
X1104692D01*
X835331Y828718D02*
X1104586D01*
X836327Y822238D02*
X1104567D01*
X835544Y818998D02*
X1104470D01*
X833293Y831958D02*
X1104454D01*
X835081Y829258D02*
X1104383D01*
X836258Y821698D02*
X1104370D01*
X835738Y819538D02*
X1104308D01*
X833734Y831418D02*
X1104299D01*
X834798Y829798D02*
X1104257D01*
X836165Y821158D02*
X1104250D01*
X835906Y820078D02*
X1104220D01*
X834129Y830878D02*
X1104216D01*
X834482Y830338D02*
X1104203D01*
X836047Y820618D02*
X1104201D01*
X1085328Y1011238D02*
X1092196D01*
X1012923Y950218D02*
X1092076D01*
X1073924Y1031218D02*
X1092075D01*
X1043512Y901078D02*
X1091487D01*
X1084871Y1020958D02*
X1091364D01*
X1074696Y1000978D02*
X1091303D01*
X1044278Y908638D02*
X1090721D01*
X1014421Y959398D02*
X1090578D01*
X1075452Y1010698D02*
X1090547D01*
X1075489Y1030678D02*
X1090510D01*
X1044729Y901618D02*
X1090270D01*
X1014747Y950758D02*
X1090252D01*
X1075797Y1021498D02*
X1090202D01*
X1075829Y1001518D02*
X1090170D01*
X1045107Y908098D02*
X1089892D01*
X1076285Y1010158D02*
X1089714D01*
X1076310Y1030138D02*
X1089689D01*
X1043730Y958858D02*
X1089645D01*
X1045386Y902158D02*
X1089613D01*
X1076521Y1022038D02*
X1089478D01*
X1076543Y1002058D02*
X1089456D01*
X1044144Y951298D02*
X1089443D01*
X1045639Y907558D02*
X1089360D01*
X1045832Y902698D02*
X1089167D01*
X1076872Y1009618D02*
X1089127D01*
X1076890Y1029598D02*
X1089109D01*
X1044821Y958318D02*
X1089032D01*
X1046011Y907018D02*
X1088988D01*
X1077047Y1022578D02*
X1088952D01*
X1077064Y1002598D02*
X1088935D01*
X1045031Y951838D02*
X1088888D01*
X1046146Y903238D02*
X1088853D01*
X1046270Y906478D02*
X1088729D01*
X1077314Y1009078D02*
X1088685D01*
X1077328Y1029058D02*
X1088671D01*
X1046361Y903778D02*
X1088638D01*
X1045446Y957778D02*
X1088586D01*
X1046439Y905938D02*
X1088560D01*
X1077448Y1023118D02*
X1088551D01*
X1077461Y1003138D02*
X1088538D01*
X1046492Y904318D02*
X1088507D01*
X1045587Y952378D02*
X1088478D01*
X1046530Y905398D02*
X1088469D01*
X1046547Y904858D02*
X1088452D01*
X1077652Y1008538D02*
X1088347D01*
X1077663Y1028518D02*
X1088336D01*
X1045875Y957238D02*
X1088254D01*
X1077754Y1023658D02*
X1088245D01*
X1077764Y1003678D02*
X1088235D01*
X1045974Y952918D02*
X1088174D01*
X1077908Y1007998D02*
X1088091D01*
X1077916Y1027978D02*
X1088083D01*
X1077984Y1024198D02*
X1088015D01*
X1046176Y956698D02*
X1088010D01*
X1077991Y1004218D02*
X1088008D01*
X1046245Y953458D02*
X1087954D01*
X1078095Y1007458D02*
X1087904D01*
X1078101Y1027438D02*
X1087898D01*
X1078147Y1024738D02*
X1087852D01*
X1078152Y1004758D02*
X1087847D01*
X1046380Y956158D02*
X1087841D01*
X1046424Y953998D02*
X1087805D01*
X1078219Y1006918D02*
X1087780D01*
X1078223Y1026898D02*
X1087776D01*
X1078250Y1025278D02*
X1087749D01*
X1078253Y1005298D02*
X1087746D01*
X1046502Y955618D02*
X1087740D01*
X1046523Y954538D02*
X1087722D01*
X1078286Y1006378D02*
X1087713D01*
X1078287Y1026358D02*
X1087712D01*
X1078296Y1025818D02*
X1087703D01*
X1078297Y1005838D02*
X1087702D01*
X1046549Y955078D02*
X1087700D01*
X1074635Y1020958D02*
X1081128D01*
X1073803Y1011238D02*
X1080671D01*
X1022926Y1020418D02*
X1080073D01*
X1023204Y1011778D02*
X1079795D01*
X1023611Y1019878D02*
X1079388D01*
X1023812Y1012318D02*
X1079187D01*
X1024116Y1019338D02*
X1078883D01*
X1024268Y1012858D02*
X1078731D01*
X1024500Y1018798D02*
X1078499D01*
X1024617Y1013398D02*
X1078382D01*
X1024794Y1018258D02*
X1078205D01*
X1024882Y1013938D02*
X1078117D01*
X1025013Y1017718D02*
X1077986D01*
X1025076Y1014478D02*
X1077923D01*
X1025167Y1017178D02*
X1077832D01*
X1025208Y1015018D02*
X1077791D01*
X1025261Y1016638D02*
X1077738D01*
X1025281Y1015558D02*
X1077718D01*
X1025299Y1016098D02*
X1077700D01*
X1030803Y1011238D02*
X1072196D01*
X1030924Y1031218D02*
X1072075D01*
X1031635Y1020958D02*
X1071364D01*
X1031696Y1000978D02*
X1071303D01*
X1032452Y1010698D02*
X1070547D01*
X1032489Y1030678D02*
X1070510D01*
X1032797Y1021498D02*
X1070202D01*
X1032829Y1001518D02*
X1070170D01*
X1033285Y1010158D02*
X1069714D01*
X1033310Y1030138D02*
X1069689D01*
X1033521Y1022038D02*
X1069478D01*
X1033543Y1002058D02*
X1069456D01*
X1033872Y1009618D02*
X1069127D01*
X1033890Y1029598D02*
X1069109D01*
X1034047Y1022578D02*
X1068952D01*
X1034064Y1002598D02*
X1068935D01*
X1034314Y1009078D02*
X1068685D01*
X1034328Y1029058D02*
X1068671D01*
X1034448Y1023118D02*
X1068551D01*
X1034461Y1003138D02*
X1068538D01*
X1034652Y1008538D02*
X1068347D01*
X1034663Y1028518D02*
X1068336D01*
X1034754Y1023658D02*
X1068245D01*
X1034764Y1003678D02*
X1068235D01*
X1034908Y1007998D02*
X1068091D01*
X1034916Y1027978D02*
X1068083D01*
X1034984Y1024198D02*
X1068015D01*
X1034991Y1004218D02*
X1068008D01*
X1035095Y1007458D02*
X1067904D01*
X1035101Y1027438D02*
X1067898D01*
X1035147Y1024738D02*
X1067852D01*
X1035152Y1004758D02*
X1067847D01*
X1035219Y1006918D02*
X1067780D01*
X1035223Y1026898D02*
X1067776D01*
X1035250Y1025278D02*
X1067749D01*
X1035253Y1005298D02*
X1067746D01*
X1035286Y1006378D02*
X1067713D01*
X1035287Y1026358D02*
X1067712D01*
X1035296Y1025818D02*
X1067703D01*
X1035297Y1005838D02*
X1067702D01*
X1013512Y901078D02*
X1041487D01*
X963665Y938878D02*
X1041334D01*
X1015354Y958858D02*
X1041269D01*
X1015556Y951298D02*
X1040855D01*
X964188Y931318D02*
X1040811D01*
X1014278Y908638D02*
X1040721D01*
X1014729Y901618D02*
X1040270D01*
X964792Y938338D02*
X1040207D01*
X1015967Y958318D02*
X1040178D01*
X1016111Y951838D02*
X1039968D01*
X965056Y931858D02*
X1039943D01*
X1015107Y908098D02*
X1039892D01*
X1015386Y902158D02*
X1039613D01*
X965427Y937798D02*
X1039572D01*
X1016413Y957778D02*
X1039553D01*
X1016521Y952378D02*
X1039412D01*
X965604Y932398D02*
X1039395D01*
X1015639Y907558D02*
X1039360D01*
X1015832Y902698D02*
X1039167D01*
X965861Y937258D02*
X1039138D01*
X1016745Y957238D02*
X1039124D01*
X1016825Y952918D02*
X1039025D01*
X965986Y932938D02*
X1039013D01*
X1016011Y907018D02*
X1038988D01*
X1016146Y903238D02*
X1038853D01*
X966167Y936718D02*
X1038832D01*
X1016989Y956698D02*
X1038823D01*
X1017045Y953458D02*
X1038754D01*
X966253Y933478D02*
X1038746D01*
X1016270Y906478D02*
X1038729D01*
X1016361Y903778D02*
X1038638D01*
X966374Y936178D02*
X1038625D01*
X1017158Y956158D02*
X1038619D01*
X1017194Y953998D02*
X1038575D01*
X966429Y934018D02*
X1038570D01*
X1016439Y905938D02*
X1038560D01*
X1016492Y904318D02*
X1038507D01*
X966499Y935638D02*
X1038500D01*
X1017259Y955618D02*
X1038497D01*
X1017277Y954538D02*
X1038476D01*
X966525Y934558D02*
X1038474D01*
X1016530Y905398D02*
X1038469D01*
X1016547Y904858D02*
X1038452D01*
X966548Y935098D02*
X1038451D01*
X1017299Y955078D02*
X1038450D01*
X1022328Y1011238D02*
X1029196D01*
X1010924Y1031218D02*
X1029075D01*
X1021871Y1020958D02*
X1028364D01*
X1011696Y1000978D02*
X1028303D01*
X1012452Y1010698D02*
X1027547D01*
X1012489Y1030678D02*
X1027510D01*
X1012797Y1021498D02*
X1027202D01*
X1012829Y1001518D02*
X1027170D01*
X1013285Y1010158D02*
X1026714D01*
X1013310Y1030138D02*
X1026689D01*
X1013521Y1022038D02*
X1026478D01*
X1013543Y1002058D02*
X1026456D01*
X1013872Y1009618D02*
X1026127D01*
X1013890Y1029598D02*
X1026109D01*
X1014047Y1022578D02*
X1025952D01*
X1014064Y1002598D02*
X1025935D01*
X1014314Y1009078D02*
X1025685D01*
X1014328Y1029058D02*
X1025671D01*
X1014448Y1023118D02*
X1025551D01*
X1014461Y1003138D02*
X1025538D01*
X1014652Y1008538D02*
X1025347D01*
X1014663Y1028518D02*
X1025336D01*
X1014754Y1023658D02*
X1025245D01*
X1014764Y1003678D02*
X1025235D01*
X1014908Y1007998D02*
X1025091D01*
X1014916Y1027978D02*
X1025083D01*
X1014984Y1024198D02*
X1025015D01*
X1014991Y1004218D02*
X1025008D01*
X1015095Y1007458D02*
X1024904D01*
X1015101Y1027438D02*
X1024898D01*
X1015147Y1024738D02*
X1024852D01*
X1015152Y1004758D02*
X1024847D01*
X1015219Y1006918D02*
X1024780D01*
X1015223Y1026898D02*
X1024776D01*
X1015250Y1025278D02*
X1024749D01*
X1015253Y1005298D02*
X1024746D01*
X1015286Y1006378D02*
X1024713D01*
X1015287Y1026358D02*
X1024712D01*
X1015296Y1025818D02*
X1024703D01*
X1015297Y1005838D02*
X1024702D01*
X1011635Y1020958D02*
X1018128D01*
X802800Y862738D02*
X1018079D01*
X1010803Y1011238D02*
X1017671D01*
X802800Y867058D02*
X1017474D01*
X959926Y1020418D02*
X1017073D01*
X802800Y863278D02*
X1016974D01*
X960204Y1011778D02*
X1016795D01*
X802800Y866518D02*
X1016772D01*
X802800Y863818D02*
X1016526D01*
X802800Y865978D02*
X1016418D01*
X960611Y1019878D02*
X1016388D01*
X802800Y864358D02*
X1016291D01*
X802800Y865438D02*
X1016242D01*
X802800Y864898D02*
X1016202D01*
X960812Y1012318D02*
X1016187D01*
X961116Y1019338D02*
X1015883D01*
X961268Y1012858D02*
X1015731D01*
X961500Y1018798D02*
X1015499D01*
X961617Y1013398D02*
X1015382D01*
X961794Y1018258D02*
X1015205D01*
X961882Y1013938D02*
X1015117D01*
X962013Y1017718D02*
X1014986D01*
X962076Y1014478D02*
X1014923D01*
X962167Y1017178D02*
X1014832D01*
X962208Y1015018D02*
X1014791D01*
X962261Y1016638D02*
X1014738D01*
X962281Y1015558D02*
X1014718D01*
X962299Y1016098D02*
X1014700D01*
X932923Y950218D02*
X1012076D01*
X963512Y901078D02*
X1011487D01*
X964278Y908638D02*
X1010721D01*
X934421Y959398D02*
X1010578D01*
X964729Y901618D02*
X1010270D01*
X934747Y950758D02*
X1010252D01*
X965107Y908098D02*
X1009892D01*
X963730Y958858D02*
X1009645D01*
X965386Y902158D02*
X1009613D01*
X964144Y951298D02*
X1009443D01*
X965639Y907558D02*
X1009360D01*
X967803Y1011238D02*
X1009196D01*
X965832Y902698D02*
X1009167D01*
X967924Y1031218D02*
X1009075D01*
X964821Y958318D02*
X1009032D01*
X966011Y907018D02*
X1008988D01*
X965031Y951838D02*
X1008888D01*
X966146Y903238D02*
X1008853D01*
X966270Y906478D02*
X1008729D01*
X966361Y903778D02*
X1008638D01*
X965446Y957778D02*
X1008586D01*
X966439Y905938D02*
X1008560D01*
X966492Y904318D02*
X1008507D01*
X965587Y952378D02*
X1008478D01*
X966530Y905398D02*
X1008469D01*
X966547Y904858D02*
X1008452D01*
X968635Y1020958D02*
X1008364D01*
X968696Y1000978D02*
X1008303D01*
X965875Y957238D02*
X1008254D01*
X965974Y952918D02*
X1008174D01*
X966176Y956698D02*
X1008010D01*
X966245Y953458D02*
X1007954D01*
X966380Y956158D02*
X1007841D01*
X966424Y953998D02*
X1007805D01*
X966502Y955618D02*
X1007740D01*
X966523Y954538D02*
X1007722D01*
X966549Y955078D02*
X1007700D01*
X969452Y1010698D02*
X1007547D01*
X969489Y1030678D02*
X1007510D01*
X969797Y1021498D02*
X1007202D01*
X969829Y1001518D02*
X1007170D01*
X970285Y1010158D02*
X1006714D01*
X970310Y1030138D02*
X1006689D01*
X970521Y1022038D02*
X1006478D01*
X970543Y1002058D02*
X1006456D01*
X970872Y1009618D02*
X1006127D01*
X970890Y1029598D02*
X1006109D01*
X971047Y1022578D02*
X1005952D01*
X971064Y1002598D02*
X1005935D01*
X971314Y1009078D02*
X1005685D01*
X971328Y1029058D02*
X1005671D01*
X971448Y1023118D02*
X1005551D01*
X971461Y1003138D02*
X1005538D01*
X971652Y1008538D02*
X1005347D01*
X971663Y1028518D02*
X1005336D01*
X971754Y1023658D02*
X1005245D01*
X971764Y1003678D02*
X1005235D01*
X971908Y1007998D02*
X1005091D01*
X971916Y1027978D02*
X1005083D01*
X971984Y1024198D02*
X1005015D01*
X971991Y1004218D02*
X1005008D01*
X972095Y1007458D02*
X1004904D01*
X972101Y1027438D02*
X1004898D01*
X972147Y1024738D02*
X1004852D01*
X972152Y1004758D02*
X1004847D01*
X972219Y1006918D02*
X1004780D01*
X972223Y1026898D02*
X1004776D01*
X972250Y1025278D02*
X1004749D01*
X972253Y1005298D02*
X1004746D01*
X972286Y1006378D02*
X1004713D01*
X972287Y1026358D02*
X1004712D01*
X972296Y1025818D02*
X1004703D01*
X972297Y1005838D02*
X1004702D01*
X958907Y850318D02*
X986770D01*
X802800Y854638D02*
X986653D01*
X899763Y850858D02*
X985888D01*
X802800Y854098D02*
X985846D01*
X898596Y851398D02*
X985480D01*
X845025Y853558D02*
X985458D01*
X846257Y851938D02*
X985269D01*
X845727Y853018D02*
X985259D01*
X846081Y852478D02*
X985200D01*
X845910Y842218D02*
X967207D01*
X958701Y846538D02*
X966435D01*
X959328Y1011238D02*
X966196D01*
X947924Y1031218D02*
X966075D01*
X846177Y842758D02*
X965997D01*
X901261Y845998D02*
X965755D01*
X878416Y843298D02*
X965538D01*
X900997Y845458D02*
X965409D01*
X958871Y1020958D02*
X965364D01*
X948696Y1000978D02*
X965303D01*
X899231Y843838D02*
X965297D01*
X900620Y844918D02*
X965238D01*
X900080Y844378D02*
X965203D01*
X949452Y1010698D02*
X964547D01*
X949489Y1030678D02*
X964510D01*
X949797Y1021498D02*
X964202D01*
X949829Y1001518D02*
X964170D01*
X950285Y1010158D02*
X963714D01*
X950310Y1030138D02*
X963689D01*
X950521Y1022038D02*
X963478D01*
X950543Y1002058D02*
X963456D01*
X950872Y1009618D02*
X963127D01*
X950890Y1029598D02*
X963109D01*
X951047Y1022578D02*
X962952D01*
X951064Y1002598D02*
X962935D01*
X951314Y1009078D02*
X962685D01*
X951328Y1029058D02*
X962671D01*
X951448Y1023118D02*
X962551D01*
X951461Y1003138D02*
X962538D01*
X951652Y1008538D02*
X962347D01*
X951663Y1028518D02*
X962336D01*
X951754Y1023658D02*
X962245D01*
X951764Y1003678D02*
X962235D01*
X951908Y1007998D02*
X962091D01*
X951916Y1027978D02*
X962083D01*
X951984Y1024198D02*
X962015D01*
X951991Y1004218D02*
X962008D01*
X952095Y1007458D02*
X961904D01*
X952101Y1027438D02*
X961898D01*
X952147Y1024738D02*
X961852D01*
X952152Y1004758D02*
X961847D01*
X952219Y1006918D02*
X961780D01*
X952223Y1026898D02*
X961776D01*
X952250Y1025278D02*
X961749D01*
X952253Y1005298D02*
X961746D01*
X952286Y1006378D02*
X961713D01*
X952287Y1026358D02*
X961712D01*
X952296Y1025818D02*
X961703D01*
X952297Y1005838D02*
X961702D01*
X933512Y901078D02*
X961487D01*
X883665Y938878D02*
X961334D01*
X935354Y958858D02*
X961269D01*
X935556Y951298D02*
X960855D01*
X884188Y931318D02*
X960811D01*
X934278Y908638D02*
X960721D01*
X934729Y901618D02*
X960270D01*
X884792Y938338D02*
X960207D01*
X935967Y958318D02*
X960178D01*
X936111Y951838D02*
X959968D01*
X885056Y931858D02*
X959943D01*
X935107Y908098D02*
X959892D01*
X935386Y902158D02*
X959613D01*
X885427Y937798D02*
X959572D01*
X936413Y957778D02*
X959553D01*
X936521Y952378D02*
X959412D01*
X885604Y932398D02*
X959395D01*
X935639Y907558D02*
X959360D01*
X935832Y902698D02*
X959167D01*
X885861Y937258D02*
X959138D01*
X936745Y957238D02*
X959124D01*
X936825Y952918D02*
X959025D01*
X885986Y932938D02*
X959013D01*
X936011Y907018D02*
X958988D01*
X936146Y903238D02*
X958853D01*
X886167Y936718D02*
X958832D01*
X936989Y956698D02*
X958823D01*
X937045Y953458D02*
X958754D01*
X886253Y933478D02*
X958746D01*
X936270Y906478D02*
X958729D01*
X936361Y903778D02*
X958638D01*
X886374Y936178D02*
X958625D01*
X937158Y956158D02*
X958619D01*
X937194Y953998D02*
X958575D01*
X886429Y934018D02*
X958570D01*
X936439Y905938D02*
X958560D01*
X936492Y904318D02*
X958507D01*
X886499Y935638D02*
X958500D01*
X937259Y955618D02*
X958497D01*
X937277Y954538D02*
X958476D01*
X886525Y934558D02*
X958474D01*
X936530Y905398D02*
X958469D01*
X936547Y904858D02*
X958452D01*
X886548Y935098D02*
X958451D01*
X937299Y955078D02*
X958450D01*
X901434Y846538D02*
X956298D01*
X900408Y850318D02*
X956092D01*
X901528Y847078D02*
X955691D01*
X900848Y849778D02*
X955588D01*
X901548Y847618D02*
X955375D01*
X901157Y849238D02*
X955321D01*
X901496Y848158D02*
X955225D01*
X901368Y848698D02*
X955208D01*
X948635Y1020958D02*
X955128D01*
X947803Y1011238D02*
X954671D01*
X896926Y1020418D02*
X954073D01*
X897204Y1011778D02*
X953795D01*
X897611Y1019878D02*
X953388D01*
X897812Y1012318D02*
X953187D01*
X898116Y1019338D02*
X952883D01*
X898268Y1012858D02*
X952731D01*
X898500Y1018798D02*
X952499D01*
X898617Y1013398D02*
X952382D01*
X898794Y1018258D02*
X952205D01*
X898882Y1013938D02*
X952117D01*
X899013Y1017718D02*
X951986D01*
X899076Y1014478D02*
X951923D01*
X899167Y1017178D02*
X951832D01*
X899208Y1015018D02*
X951791D01*
X899261Y1016638D02*
X951738D01*
X899281Y1015558D02*
X951718D01*
X899299Y1016098D02*
X951700D01*
X904803Y1011238D02*
X946196D01*
X904924Y1031218D02*
X946075D01*
X905635Y1020958D02*
X945364D01*
X905696Y1000978D02*
X945303D01*
X906452Y1010698D02*
X944547D01*
X906489Y1030678D02*
X944510D01*
X906797Y1021498D02*
X944202D01*
X906829Y1001518D02*
X944170D01*
X907285Y1010158D02*
X943714D01*
X907310Y1030138D02*
X943689D01*
X907521Y1022038D02*
X943478D01*
X907543Y1002058D02*
X943456D01*
X907872Y1009618D02*
X943127D01*
X907890Y1029598D02*
X943109D01*
X908047Y1022578D02*
X942952D01*
X908064Y1002598D02*
X942935D01*
X908314Y1009078D02*
X942685D01*
X908328Y1029058D02*
X942671D01*
X908448Y1023118D02*
X942551D01*
X908461Y1003138D02*
X942538D01*
X908652Y1008538D02*
X942347D01*
X908663Y1028518D02*
X942336D01*
X908754Y1023658D02*
X942245D01*
X908764Y1003678D02*
X942235D01*
X908908Y1007998D02*
X942091D01*
X908916Y1027978D02*
X942083D01*
X908984Y1024198D02*
X942015D01*
X908991Y1004218D02*
X942008D01*
X909095Y1007458D02*
X941904D01*
X909101Y1027438D02*
X941898D01*
X909147Y1024738D02*
X941852D01*
X909152Y1004758D02*
X941847D01*
X909219Y1006918D02*
X941780D01*
X909223Y1026898D02*
X941776D01*
X909250Y1025278D02*
X941749D01*
X909253Y1005298D02*
X941746D01*
X909286Y1006378D02*
X941713D01*
X909287Y1026358D02*
X941712D01*
X909296Y1025818D02*
X941703D01*
X909297Y1005838D02*
X941702D01*
X852923Y950218D02*
X932076D01*
X883512Y901078D02*
X931487D01*
X884278Y908638D02*
X930721D01*
X854421Y959398D02*
X930578D01*
X884729Y901618D02*
X930270D01*
X854747Y950758D02*
X930252D01*
X885107Y908098D02*
X929892D01*
X883730Y958858D02*
X929645D01*
X885386Y902158D02*
X929613D01*
X884144Y951298D02*
X929443D01*
X885639Y907558D02*
X929360D01*
X885832Y902698D02*
X929167D01*
X884821Y958318D02*
X929032D01*
X886011Y907018D02*
X928988D01*
X885031Y951838D02*
X928888D01*
X886146Y903238D02*
X928853D01*
X886270Y906478D02*
X928729D01*
X886361Y903778D02*
X928638D01*
X885446Y957778D02*
X928586D01*
X886439Y905938D02*
X928560D01*
X886492Y904318D02*
X928507D01*
X885587Y952378D02*
X928478D01*
X886530Y905398D02*
X928469D01*
X886547Y904858D02*
X928452D01*
X885875Y957238D02*
X928254D01*
X885974Y952918D02*
X928174D01*
X886176Y956698D02*
X928010D01*
X886245Y953458D02*
X927954D01*
X886380Y956158D02*
X927841D01*
X886424Y953998D02*
X927805D01*
X886502Y955618D02*
X927740D01*
X886523Y954538D02*
X927722D01*
X886549Y955078D02*
X927700D01*
X910768Y871918D02*
X913231D01*
X910851Y868138D02*
X913148D01*
X911340Y871378D02*
X912659D01*
X911382Y868678D02*
X912617D01*
X911641Y870838D02*
X912358D01*
X911663Y869218D02*
X912336D01*
X911780Y870298D02*
X912219D01*
X911787Y869758D02*
X912212D01*
X905268Y871918D02*
X908231D01*
X905351Y868138D02*
X908148D01*
X905840Y871378D02*
X907659D01*
X905882Y868678D02*
X907617D01*
X906141Y870838D02*
X907358D01*
X906163Y869218D02*
X907336D01*
X906280Y870298D02*
X907219D01*
X906287Y869758D02*
X907212D01*
X896328Y1011238D02*
X903196D01*
X884924Y1031218D02*
X903075D01*
X802800Y871918D02*
X902731D01*
X802800Y868138D02*
X902648D01*
X895871Y1020958D02*
X902364D01*
X885696Y1000978D02*
X902303D01*
X802800Y871378D02*
X902159D01*
X802800Y868678D02*
X902117D01*
X802800Y870838D02*
X901858D01*
X802800Y869218D02*
X901836D01*
X802800Y870298D02*
X901719D01*
X802800Y869758D02*
X901712D01*
X886452Y1010698D02*
X901547D01*
X886489Y1030678D02*
X901510D01*
X886797Y1021498D02*
X901202D01*
X886829Y1001518D02*
X901170D01*
X887285Y1010158D02*
X900714D01*
X887310Y1030138D02*
X900689D01*
X887521Y1022038D02*
X900478D01*
X887543Y1002058D02*
X900456D01*
X887872Y1009618D02*
X900127D01*
X887890Y1029598D02*
X900109D01*
X888047Y1022578D02*
X899952D01*
X888064Y1002598D02*
X899935D01*
X888314Y1009078D02*
X899685D01*
X888328Y1029058D02*
X899671D01*
X888448Y1023118D02*
X899551D01*
X888461Y1003138D02*
X899538D01*
X888652Y1008538D02*
X899347D01*
X888663Y1028518D02*
X899336D01*
X888754Y1023658D02*
X899245D01*
X888764Y1003678D02*
X899235D01*
X888908Y1007998D02*
X899091D01*
X888916Y1027978D02*
X899083D01*
X888984Y1024198D02*
X899015D01*
X888991Y1004218D02*
X899008D01*
X889095Y1007458D02*
X898904D01*
X889101Y1027438D02*
X898898D01*
X889147Y1024738D02*
X898852D01*
X889152Y1004758D02*
X898847D01*
X889219Y1006918D02*
X898780D01*
X889223Y1026898D02*
X898776D01*
X889250Y1025278D02*
X898749D01*
X889253Y1005298D02*
X898746D01*
X889286Y1006378D02*
X898713D01*
X889287Y1026358D02*
X898712D01*
X889296Y1025818D02*
X898703D01*
X889297Y1005838D02*
X898702D01*
X888596Y851398D02*
X896403D01*
X889231Y843838D02*
X895768D01*
X889763Y850858D02*
X895236D01*
X890080Y844378D02*
X894919D01*
X890408Y850318D02*
X894591D01*
X890620Y844918D02*
X894379D01*
X890848Y849778D02*
X894151D01*
X890997Y845458D02*
X894002D01*
X891157Y849238D02*
X893842D01*
X891261Y845998D02*
X893738D01*
X891368Y848698D02*
X893631D01*
X891434Y846538D02*
X893565D01*
X891496Y848158D02*
X893503D01*
X891528Y847078D02*
X893471D01*
X891548Y847618D02*
X893451D01*
X885635Y1020958D02*
X892128D01*
X884803Y1011238D02*
X891671D01*
X833926Y1020418D02*
X891073D01*
X834204Y1011778D02*
X890795D01*
X834611Y1019878D02*
X890388D01*
X834812Y1012318D02*
X890187D01*
X835116Y1019338D02*
X889883D01*
X835268Y1012858D02*
X889731D01*
X835500Y1018798D02*
X889499D01*
X835617Y1013398D02*
X889382D01*
X835794Y1018258D02*
X889205D01*
X835882Y1013938D02*
X889117D01*
X836013Y1017718D02*
X888986D01*
X836076Y1014478D02*
X888923D01*
X836167Y1017178D02*
X888832D01*
X836208Y1015018D02*
X888791D01*
X836261Y1016638D02*
X888738D01*
X836281Y1015558D02*
X888718D01*
X836299Y1016098D02*
X888700D01*
X879313Y851398D02*
X886403D01*
X879755Y843838D02*
X885768D01*
X880185Y850858D02*
X885236D01*
X880457Y844378D02*
X884919D01*
X880747Y850318D02*
X884591D01*
X880939Y844918D02*
X884379D01*
X881146Y849778D02*
X884151D01*
X881284Y845458D02*
X884002D01*
X881432Y849238D02*
X883842D01*
X881529Y845998D02*
X883738D01*
X881629Y848698D02*
X883631D01*
X881691Y846538D02*
X883565D01*
X881749Y848158D02*
X883503D01*
X881779Y847078D02*
X883471D01*
X881798Y847618D02*
X883451D01*
X841803Y1011238D02*
X883196D01*
X841924Y1031218D02*
X883075D01*
X842635Y1020958D02*
X882364D01*
X842696Y1000978D02*
X882303D01*
X843452Y1010698D02*
X881547D01*
X843489Y1030678D02*
X881510D01*
X853512Y901078D02*
X881487D01*
X802800Y938878D02*
X881334D01*
X855354Y958858D02*
X881269D01*
X843797Y1021498D02*
X881202D01*
X843829Y1001518D02*
X881170D01*
X855556Y951298D02*
X880855D01*
X802800Y931318D02*
X880811D01*
X854278Y908638D02*
X880721D01*
X844285Y1010158D02*
X880714D01*
X844310Y1030138D02*
X880689D01*
X844521Y1022038D02*
X880478D01*
X844543Y1002058D02*
X880456D01*
X854729Y901618D02*
X880270D01*
X802800Y938338D02*
X880207D01*
X855967Y958318D02*
X880178D01*
X844872Y1009618D02*
X880127D01*
X844890Y1029598D02*
X880109D01*
X856111Y951838D02*
X879968D01*
X845047Y1022578D02*
X879952D01*
X802800Y931858D02*
X879943D01*
X845064Y1002598D02*
X879935D01*
X855107Y908098D02*
X879892D01*
X845314Y1009078D02*
X879685D01*
X845328Y1029058D02*
X879671D01*
X855386Y902158D02*
X879613D01*
X802800Y937798D02*
X879572D01*
X856413Y957778D02*
X879553D01*
X845448Y1023118D02*
X879551D01*
X845461Y1003138D02*
X879538D01*
X856521Y952378D02*
X879412D01*
X802800Y932398D02*
X879395D01*
X855639Y907558D02*
X879360D01*
X845652Y1008538D02*
X879347D01*
X845663Y1028518D02*
X879336D01*
X845754Y1023658D02*
X879245D01*
X845764Y1003678D02*
X879235D01*
X855832Y902698D02*
X879167D01*
X802800Y937258D02*
X879138D01*
X856745Y957238D02*
X879124D01*
X845908Y1007998D02*
X879091D01*
X845916Y1027978D02*
X879083D01*
X856825Y952918D02*
X879025D01*
X845984Y1024198D02*
X879015D01*
X802800Y932938D02*
X879013D01*
X845991Y1004218D02*
X879008D01*
X856011Y907018D02*
X878988D01*
X846095Y1007458D02*
X878904D01*
X846101Y1027438D02*
X878898D01*
X856146Y903238D02*
X878853D01*
X846147Y1024738D02*
X878852D01*
X846152Y1004758D02*
X878847D01*
X802800Y936718D02*
X878832D01*
X856989Y956698D02*
X878823D01*
X846219Y1006918D02*
X878780D01*
X846223Y1026898D02*
X878776D01*
X857045Y953458D02*
X878754D01*
X846250Y1025278D02*
X878749D01*
X846253Y1005298D02*
X878746D01*
X802800Y933478D02*
X878746D01*
X856270Y906478D02*
X878729D01*
X846286Y1006378D02*
X878713D01*
X846287Y1026358D02*
X878712D01*
X846296Y1025818D02*
X878703D01*
X846297Y1005838D02*
X878702D01*
X856361Y903778D02*
X878638D01*
X802800Y936178D02*
X878625D01*
X857158Y956158D02*
X878619D01*
X857194Y953998D02*
X878575D01*
X802800Y934018D02*
X878570D01*
X856439Y905938D02*
X878560D01*
X856492Y904318D02*
X878507D01*
X802800Y935638D02*
X878500D01*
X857259Y955618D02*
X878497D01*
X857277Y954538D02*
X878476D01*
X802800Y934558D02*
X878474D01*
X856530Y905398D02*
X878469D01*
X856547Y904858D02*
X878452D01*
X802800Y935098D02*
X878451D01*
X857299Y955078D02*
X878450D01*
X868416Y843298D02*
X876583D01*
X869313Y851398D02*
X875686D01*
X869755Y843838D02*
X875244D01*
X870185Y850858D02*
X874814D01*
X870457Y844378D02*
X874542D01*
X870747Y850318D02*
X874252D01*
X870939Y844918D02*
X874060D01*
X871146Y849778D02*
X873853D01*
X871284Y845458D02*
X873715D01*
X871432Y849238D02*
X873567D01*
X871529Y845998D02*
X873470D01*
X871629Y848698D02*
X873370D01*
X871691Y846538D02*
X873308D01*
X871749Y848158D02*
X873250D01*
X871779Y847078D02*
X873220D01*
X871798Y847618D02*
X873201D01*
X846291Y843298D02*
X866583D01*
X846297Y851398D02*
X865686D01*
X846274Y843838D02*
X865244D01*
X846208Y850858D02*
X864814D01*
X846125Y844378D02*
X864542D01*
X845973Y850318D02*
X864252D01*
X845810Y844918D02*
X864060D01*
X846812Y849778D02*
X863853D01*
X847559Y845458D02*
X863715D01*
X848005Y849238D02*
X863567D01*
X848242Y845998D02*
X863470D01*
X848462Y848698D02*
X863370D01*
X848589Y846538D02*
X863308D01*
X848703Y848158D02*
X863250D01*
X848761Y847078D02*
X863220D01*
X848796Y847618D02*
X863201D01*
X802800Y950218D02*
X852076D01*
X802800Y901078D02*
X851487D01*
X802800Y908638D02*
X850721D01*
X834905Y959398D02*
X850578D01*
X802800Y901618D02*
X850270D01*
X802800Y950758D02*
X850252D01*
X802800Y908098D02*
X849892D01*
X834602Y958858D02*
X849645D01*
X802800Y902158D02*
X849613D01*
X802800Y951298D02*
X849443D01*
X802800Y907558D02*
X849360D01*
X802800Y902698D02*
X849167D01*
X834262Y958318D02*
X849032D01*
X802800Y907018D02*
X848988D01*
X802800Y951838D02*
X848888D01*
X802800Y903238D02*
X848853D01*
X802800Y906478D02*
X848729D01*
X802800Y903778D02*
X848638D01*
X833883Y957778D02*
X848586D01*
X802800Y905938D02*
X848560D01*
X802800Y904318D02*
X848507D01*
X802800Y952378D02*
X848478D01*
X802800Y905398D02*
X848469D01*
X802800Y904858D02*
X848452D01*
X833460Y957238D02*
X848254D01*
X826438Y952918D02*
X848174D01*
X832987Y956698D02*
X848010D01*
X828209Y953458D02*
X847954D01*
X832456Y956158D02*
X847841D01*
X829418Y953998D02*
X847805D01*
X831856Y955618D02*
X847740D01*
X830372Y954538D02*
X847722D01*
X831170Y955078D02*
X847700D01*
X845525Y849778D02*
X846187D01*
X845205Y845458D02*
X845440D01*
X844420Y849238D02*
X844994D01*
X802800Y845998D02*
X844757D01*
X802800Y848698D02*
X844537D01*
X802800Y846538D02*
X844410D01*
X802800Y848158D02*
X844296D01*
X802800Y847078D02*
X844238D01*
X802800Y847618D02*
X844203D01*
X802800Y849238D02*
X843579D01*
X802800Y853558D02*
X842974D01*
X802800Y845458D02*
X842794D01*
X802800Y841678D02*
X842595D01*
X802800Y849778D02*
X842474D01*
X802800Y853018D02*
X842272D01*
X802800Y844918D02*
X842189D01*
X802800Y842218D02*
X842089D01*
X802800Y850318D02*
X842026D01*
X802800Y852478D02*
X841918D01*
X802800Y844378D02*
X841874D01*
X802800Y842758D02*
X841822D01*
X802800Y850858D02*
X841791D01*
X802800Y851938D02*
X841742D01*
X802800Y843838D02*
X841725D01*
X802800Y843298D02*
X841708D01*
X802800Y851398D02*
X841702D01*
X833328Y1011238D02*
X840196D01*
X821924Y1031218D02*
X840075D01*
X832871Y1020958D02*
X839364D01*
X822696Y1000978D02*
X839303D01*
X823452Y1010698D02*
X838547D01*
X823489Y1030678D02*
X838510D01*
X823797Y1021498D02*
X838202D01*
X823829Y1001518D02*
X838170D01*
X824285Y1010158D02*
X837714D01*
X824310Y1030138D02*
X837689D01*
X824521Y1022038D02*
X837478D01*
X824543Y1002058D02*
X837456D01*
X824872Y1009618D02*
X837127D01*
X824890Y1029598D02*
X837109D01*
X825047Y1022578D02*
X836952D01*
X825064Y1002598D02*
X836935D01*
X825314Y1009078D02*
X836685D01*
X825328Y1029058D02*
X836671D01*
X825448Y1023118D02*
X836551D01*
X825461Y1003138D02*
X836538D01*
X825652Y1008538D02*
X836347D01*
X825663Y1028518D02*
X836336D01*
X825754Y1023658D02*
X836245D01*
X825764Y1003678D02*
X836235D01*
X825908Y1007998D02*
X836091D01*
X825916Y1027978D02*
X836083D01*
X825984Y1024198D02*
X836015D01*
X825991Y1004218D02*
X836008D01*
X826095Y1007458D02*
X835904D01*
X826101Y1027438D02*
X835898D01*
X826147Y1024738D02*
X835852D01*
X826152Y1004758D02*
X835847D01*
X826219Y1006918D02*
X835780D01*
X826223Y1026898D02*
X835776D01*
X826250Y1025278D02*
X835749D01*
X826253Y1005298D02*
X835746D01*
X826286Y1006378D02*
X835713D01*
X826287Y1026358D02*
X835712D01*
X826296Y1025818D02*
X835703D01*
X826297Y1005838D02*
X835702D01*
X822635Y1020958D02*
X829128D01*
X821803Y1011238D02*
X828671D01*
X802800Y1020418D02*
X828073D01*
X802800Y1011778D02*
X827795D01*
X802800Y1019878D02*
X827388D01*
X802800Y1012318D02*
X827187D01*
X802800Y1019338D02*
X826883D01*
X802800Y1012858D02*
X826731D01*
X802800Y1018798D02*
X826499D01*
X802800Y1013398D02*
X826382D01*
X802800Y1018258D02*
X826205D01*
X802800Y1013938D02*
X826117D01*
X802800Y1017718D02*
X825986D01*
X802800Y1014478D02*
X825923D01*
X802800Y1017178D02*
X825832D01*
X802800Y1015018D02*
X825791D01*
X802800Y1016638D02*
X825738D01*
X802800Y1015558D02*
X825718D01*
X802800Y1016098D02*
X825700D01*
X802800Y810898D02*
X822013D01*
X802800Y836278D02*
X821841D01*
X802800Y952918D02*
X820761D01*
X802800Y977758D02*
X820267D01*
X802800Y1011238D02*
X820196D01*
X802800Y1031218D02*
X820075D01*
X802800Y811438D02*
X819607D01*
X802800Y835738D02*
X819538D01*
X802800Y1020958D02*
X819364D01*
X802800Y1000978D02*
X819303D01*
X802800Y953458D02*
X818990D01*
X802800Y977218D02*
X818684D01*
X802800Y1010698D02*
X818547D01*
X802800Y1030678D02*
X818510D01*
X802800Y811978D02*
X818234D01*
X802800Y1021498D02*
X818202D01*
X802800Y835198D02*
X818186D01*
X802800Y1001518D02*
X818170D01*
X802800Y953998D02*
X817781D01*
X802800Y1010158D02*
X817714D01*
X802800Y1030138D02*
X817689D01*
X802800Y976678D02*
X817547D01*
X802800Y1022038D02*
X817478D01*
X802800Y1002058D02*
X817456D01*
X802800Y812518D02*
X817193D01*
X802800Y834658D02*
X817154D01*
X802800Y1009618D02*
X817127D01*
X802800Y1029598D02*
X817109D01*
X802800Y1022578D02*
X816952D01*
X802800Y1002598D02*
X816935D01*
X802800Y954538D02*
X816827D01*
X802800Y1009078D02*
X816685D01*
X802800Y1029058D02*
X816671D01*
X802800Y976138D02*
X816634D01*
X802800Y1023118D02*
X816551D01*
X802800Y1003138D02*
X816538D01*
X802800Y1008538D02*
X816347D01*
X802800Y813058D02*
X816339D01*
X802800Y1028518D02*
X816336D01*
X802800Y834118D02*
X816306D01*
X802800Y1023658D02*
X816245D01*
X802800Y1003678D02*
X816235D01*
X802800Y1007998D02*
X816091D01*
X802800Y1027978D02*
X816083D01*
X802800Y955078D02*
X816029D01*
X802800Y1024198D02*
X816015D01*
X802800Y1004218D02*
X816008D01*
X802800Y1007458D02*
X815904D01*
X802800Y1027438D02*
X815898D01*
X802800Y975598D02*
X815865D01*
X802800Y1024738D02*
X815852D01*
X802800Y1004758D02*
X815847D01*
X802800Y1006918D02*
X815780D01*
X802800Y1026898D02*
X815776D01*
X802800Y1025278D02*
X815749D01*
X802800Y1005298D02*
X815746D01*
X802800Y1006378D02*
X815713D01*
X802800Y1026358D02*
X815712D01*
X802800Y1025818D02*
X815703D01*
X802800Y1005838D02*
X815702D01*
X802800Y813598D02*
X815611D01*
X802800Y833578D02*
X815583D01*
X802800Y955618D02*
X815343D01*
X802800Y975058D02*
X815200D01*
X802800Y814138D02*
X814978D01*
X802800Y833038D02*
X814954D01*
X802800Y956158D02*
X814743D01*
X802800Y974518D02*
X814617D01*
X802800Y814678D02*
X814421D01*
X802800Y832498D02*
X814399D01*
X802800Y956698D02*
X814212D01*
X802800Y973978D02*
X814100D01*
X802800Y815218D02*
X813925D01*
X802800Y831958D02*
X813906D01*
X802800Y957238D02*
X813739D01*
X802800Y973438D02*
X813639D01*
X802800Y815758D02*
X813482D01*
X802800Y831418D02*
X813465D01*
X802800Y957778D02*
X813316D01*
X802800Y972898D02*
X813226D01*
X802800Y816298D02*
X813086D01*
X802800Y830878D02*
X813070D01*
X802800Y958318D02*
X812937D01*
X802800Y972358D02*
X812856D01*
X802800Y816838D02*
X812731D01*
X802800Y830338D02*
X812717D01*
X802800Y958858D02*
X812597D01*
X802800Y971818D02*
X812525D01*
X802800Y817378D02*
X812413D01*
X802800Y829798D02*
X812401D01*
X802800Y959398D02*
X812294D01*
X802800Y971278D02*
X812229D01*
X802800Y817918D02*
X812129D01*
X802800Y829258D02*
X812118D01*
X802800Y959938D02*
X812023D01*
X802800Y970738D02*
X811966D01*
X802800Y818458D02*
X811877D01*
X802800Y828718D02*
X811868D01*
X802800Y960478D02*
X811783D01*
X802800Y970198D02*
X811733D01*
X802800Y818998D02*
X811655D01*
X802800Y828178D02*
X811646D01*
X802800Y961018D02*
X811573D01*
X802800Y969658D02*
X811529D01*
X802800Y819538D02*
X811461D01*
X802800Y827638D02*
X811453D01*
X802800Y961558D02*
X811389D01*
X802800Y969118D02*
X811352D01*
X802800Y820078D02*
X811293D01*
X802800Y827098D02*
X811287D01*
X802800Y962098D02*
X811233D01*
X802800Y968578D02*
X811200D01*
X802800Y820618D02*
X811152D01*
X802800Y826558D02*
X811146D01*
X802800Y962638D02*
X811101D01*
X802800Y968038D02*
X811074D01*
X802800Y821158D02*
X811034D01*
X802800Y826018D02*
X811030D01*
X802800Y963178D02*
X810994D01*
X802800Y967498D02*
X810973D01*
X802800Y821698D02*
X810941D01*
X802800Y825478D02*
X810938D01*
X802800Y963718D02*
X810910D01*
X802800Y966958D02*
X810895D01*
X802800Y822238D02*
X810872D01*
X802800Y824938D02*
X810870D01*
X802800Y964258D02*
X810850D01*
X802800Y966418D02*
X810840D01*
X802800Y822778D02*
X810826D01*
X802800Y824398D02*
X810824D01*
X802800Y964798D02*
X810814D01*
X802800Y965878D02*
X810808D01*
X802800Y823318D02*
X810803D01*
X802800Y823858D02*
X810802D01*
X802800Y965338D02*
X810800D01*
G54D138*
X850500Y870000D03*
X855500D03*
X861000D03*
X1018500Y875000D03*
X1164000Y842500D03*
X1393500Y875000D03*
X1150000Y898500D03*
X1186000Y927500D03*
G74*
X0Y0D02*
M02*
