*
*
G04 PADS Layout (Build Number 2005.103.1) generated Gerber (RS-274-X) file*
G04 PC Version=2.1*
*
%IN "7756.pcb"*%
*
%MOIN*%
*
%FSLAX35Y35*%
*
*
*
*
G04 PC Standard Apertures*
*
*
G04 Thermal Relief Aperture macro.*
%AMTER*
1,1,$1,0,0*
1,0,$1-$2,0,0*
21,0,$3,$4,0,0,45*
21,0,$3,$4,0,0,135*
%
*
*
G04 Annular Aperture macro.*
%AMANN*
1,1,$1,0,0*
1,0,$2,0,0*
%
*
*
G04 Odd Aperture macro.*
%AMODD*
1,1,$1,0,0*
1,0,$1-0.005,0,0*
%
*
*
G04 PC Custom Aperture Macros*
*
*
*
*
*
*
G04 PC Aperture Table*
*
%ADD011C,0.1*%
%ADD012R,0.075X0.075*%
%ADD013C,0.075*%
%ADD014C,0.065*%
%ADD018R,0.065X0.065*%
%ADD020C,0.15*%
%ADD052C,0.01*%
%ADD053C,0.02*%
%ADD054C,0.015*%
%ADD056C,0.05*%
%ADD138C,0.03*%
%ADD193C,0.25*%
*
*
*
*
G04 PC Custom Flashes*
G04 Layer Name 7756.pcb - flashes*
%LPD*%
*
*
G04 PC Circuitry*
G04 Layer Name 7756.pcb - circuitry*
%LPD*%
*
G54D11*
G01X1030000Y1006000D03*
X1010000D03*
Y1026000D03*
X1030000D03*
X1020000Y1016000D03*
X967000Y1006000D03*
X947000D03*
Y1026000D03*
X967000D03*
X957000Y1016000D03*
X904000Y1006000D03*
X884000D03*
Y1026000D03*
X904000D03*
X894000Y1016000D03*
X841000Y1006000D03*
X821000D03*
Y1026000D03*
X841000D03*
X831000Y1016000D03*
X1093000Y1006000D03*
X1073000D03*
Y1026000D03*
X1093000D03*
X1083000Y1016000D03*
X1156000Y1006000D03*
X1136000D03*
Y1026000D03*
X1156000D03*
X1146000Y1016000D03*
X1219000Y1006000D03*
X1199000D03*
Y1026000D03*
X1219000D03*
X1209000Y1016000D03*
X1471000Y1006000D03*
X1451000D03*
Y1026000D03*
X1471000D03*
X1461000Y1016000D03*
X1282000Y1006000D03*
X1262000D03*
Y1026000D03*
X1282000D03*
X1272000Y1016000D03*
X1534000Y1006000D03*
X1514000D03*
Y1026000D03*
X1534000D03*
X1524000Y1016000D03*
X1345000Y1006000D03*
X1325000D03*
Y1026000D03*
X1345000D03*
X1335000Y1016000D03*
X1408000Y1006000D03*
X1388000D03*
Y1026000D03*
X1408000D03*
X1398000Y1016000D03*
G54D12*
X852500Y955000D03*
X932500D03*
X1012500D03*
X1092500D03*
X1227500D03*
X1307500D03*
X1387500D03*
X1467500D03*
X1471000Y835000D03*
G54D13*
X852500Y905000D03*
X882500D03*
Y935000D03*
Y955000D03*
X932500Y905000D03*
X962500D03*
Y935000D03*
Y955000D03*
X1012500Y905000D03*
X1042500D03*
Y935000D03*
Y955000D03*
X1092500Y905000D03*
X1122500D03*
Y935000D03*
Y955000D03*
X1227500Y905000D03*
X1257500D03*
Y935000D03*
Y955000D03*
X1307500Y905000D03*
X1337500D03*
Y935000D03*
Y955000D03*
X1387500Y905000D03*
X1417500D03*
Y935000D03*
Y955000D03*
X1467500Y905000D03*
X1497500D03*
Y935000D03*
Y955000D03*
X1459188Y835000D03*
X1447377D03*
X1435566D03*
X1423755D03*
X1411944D03*
X1400133D03*
X1388322D03*
X1376511D03*
X1364700D03*
X1471000Y846811D03*
X1459188D03*
X1447377D03*
X1435566D03*
X1423755D03*
X1411944D03*
X1400133D03*
X1388322D03*
X1376511D03*
X1364700D03*
G54D14*
X1108500Y830500D03*
X1118500Y820500D03*
Y830500D03*
X1128500Y820500D03*
Y830500D03*
X1138500Y820500D03*
Y830500D03*
X1148500Y820500D03*
Y830500D03*
X877500Y847500D03*
X887500D03*
X897500D03*
G54D18*
X1108500Y820500D03*
X867500Y847500D03*
G54D20*
X1356236Y817992D03*
X1479464D03*
G54D52*
X800000Y800000D02*
X1548000D01*
Y1036200*
X800000*
Y800000*
G54D53*
X1234000Y792812D02*
Y781000D01*
Y792812D02*
X1229909D01*
X1229909D02*
X1228545Y792250D01*
X1228090Y791687*
X1228090D02*
X1227636Y790562D01*
X1227636D02*
Y789437D01*
X1227636D02*
X1228090Y788312D01*
X1228090D02*
X1228545Y787750D01*
X1229909Y787187*
X1234000D02*
X1229909D01*
X1229909D02*
X1228545Y786625D01*
X1228090Y786062*
X1228090D02*
X1227636Y784937D01*
X1227636D02*
Y783250D01*
X1228090Y782125*
X1228090D02*
X1228545Y781562D01*
X1228545D02*
X1229909Y781000D01*
X1234000*
X1220818Y792812D02*
X1221727Y792250D01*
X1222636Y791125*
X1223090Y790000*
X1223090D02*
X1223545Y788312D01*
X1223545D02*
Y785500D01*
X1223090Y783812*
X1223090D02*
X1222636Y782687D01*
X1222636D02*
X1221727Y781562D01*
X1221727D02*
X1220818Y781000D01*
X1219000*
X1218090Y781562*
X1218090D02*
X1217181Y782687D01*
X1217181D02*
X1216727Y783812D01*
X1216727D02*
X1216272Y785500D01*
X1216272D02*
Y788312D01*
X1216272D02*
X1216727Y790000D01*
X1217181Y791125*
X1217181D02*
X1218090Y792250D01*
X1218090D02*
X1219000Y792812D01*
X1219000D02*
X1220818D01*
X1209000D02*
Y781000D01*
X1212181Y792812D02*
X1205818D01*
X1198545D02*
Y781000D01*
X1201727Y792812D02*
X1195363D01*
X1188545D02*
X1189454Y792250D01*
X1189454D02*
X1190363Y791125D01*
X1190363D02*
X1190818Y790000D01*
X1191272Y788312*
X1191272D02*
Y785500D01*
X1191272D02*
X1190818Y783812D01*
X1190818D02*
X1190363Y782687D01*
X1190363D02*
X1189454Y781562D01*
X1189454D02*
X1188545Y781000D01*
X1186727*
X1185818Y781562*
X1185818D02*
X1184909Y782687D01*
X1184909D02*
X1184454Y783812D01*
X1184454D02*
X1184000Y785500D01*
Y788312*
X1184000D02*
X1184454Y790000D01*
X1184454D02*
X1184909Y791125D01*
X1185818Y792250*
X1186727Y792812*
X1186727D02*
X1188545D01*
X1179909D02*
Y781000D01*
Y792812D02*
X1176272Y781000D01*
X1172636Y792812D02*
X1176272Y781000D01*
X1172636Y792812D02*
Y781000D01*
X1151727Y791125D02*
X1152636Y792250D01*
X1154000Y792812*
X1154000D02*
X1155818D01*
X1155818D02*
X1157181Y792250D01*
X1157181D02*
X1158090Y791125D01*
X1158090D02*
Y790000D01*
X1158090D02*
X1157636Y788875D01*
X1157181Y788312*
X1157181D02*
X1156272Y787750D01*
X1156272D02*
X1153545Y786625D01*
X1152636Y786062*
X1152636D02*
X1152181Y785500D01*
X1152181D02*
X1151727Y784375D01*
Y782687*
X1151727D02*
X1152636Y781562D01*
X1152636D02*
X1154000Y781000D01*
X1155818*
X1157181Y781562*
X1157181D02*
X1158090Y782687D01*
X1147636Y792812D02*
Y781000D01*
X1143545Y792812D02*
Y781000D01*
Y792812D02*
X1140363D01*
X1140363D02*
X1139000Y792250D01*
X1138090Y791125*
X1138090D02*
X1137636Y790000D01*
X1137181Y788312*
X1137181D02*
Y785500D01*
X1137181D02*
X1137636Y783812D01*
X1137636D02*
X1138090Y782687D01*
X1138090D02*
X1139000Y781562D01*
X1139000D02*
X1140363Y781000D01*
X1140363D02*
X1143545D01*
X1133090Y792812D02*
Y781000D01*
Y792812D02*
X1127181D01*
X1133090Y787187D02*
X1129454D01*
X1133090Y781000D02*
X1127181D01*
X1116909Y767812D02*
X1121909D01*
X1121909D02*
X1119181Y763312D01*
X1119181D02*
X1120545D01*
X1120545D02*
X1121454Y762750D01*
X1121454D02*
X1121909Y762187D01*
X1121909D02*
X1122363Y760500D01*
X1122363D02*
Y759375D01*
X1122363D02*
X1121909Y757687D01*
X1121909D02*
X1121000Y756562D01*
X1121000D02*
X1119636Y756000D01*
X1118272*
X1118272D02*
X1116909Y756562D01*
X1116909D02*
X1116454Y757125D01*
X1116454D02*
X1116000Y758250D01*
X1126454Y765562D02*
X1127363Y766125D01*
X1127363D02*
X1128727Y767812D01*
X1128727D02*
Y756000D01*
X1132818Y761062D02*
X1141000D01*
X1147818Y767812D02*
X1146454Y767250D01*
X1146454D02*
X1145545Y765562D01*
X1145545D02*
X1145090Y762750D01*
X1145090D02*
Y761062D01*
X1145090D02*
X1145545Y758250D01*
X1146454Y756562*
X1146454D02*
X1147818Y756000D01*
X1148727*
X1150090Y756562*
X1150090D02*
X1151000Y758250D01*
X1151454Y761062*
X1151454D02*
Y762750D01*
X1151454D02*
X1151000Y765562D01*
X1151000D02*
X1150090Y767250D01*
X1150090D02*
X1148727Y767812D01*
X1148727D02*
X1147818D01*
X1158272D02*
X1156909Y767250D01*
X1156000Y765562*
X1156000D02*
X1155545Y762750D01*
Y761062*
X1155545D02*
X1156000Y758250D01*
X1156909Y756562*
X1156909D02*
X1158272Y756000D01*
X1158272D02*
X1159181D01*
X1159181D02*
X1160545Y756562D01*
X1160545D02*
X1161454Y758250D01*
X1161454D02*
X1161909Y761062D01*
X1161909D02*
Y762750D01*
X1161454Y765562*
X1161454D02*
X1160545Y767250D01*
X1159181Y767812*
X1159181D02*
X1158272D01*
X1168727D02*
X1167363Y767250D01*
X1167363D02*
X1166454Y765562D01*
X1166454D02*
X1166000Y762750D01*
Y761062*
X1166000D02*
X1166454Y758250D01*
X1166454D02*
X1167363Y756562D01*
X1167363D02*
X1168727Y756000D01*
X1169636*
X1171000Y756562*
X1171000D02*
X1171909Y758250D01*
X1172363Y761062*
X1172363D02*
Y762750D01*
X1172363D02*
X1171909Y765562D01*
X1171909D02*
X1171000Y767250D01*
X1169636Y767812*
X1169636D02*
X1168727D01*
X1182363D02*
X1177818D01*
X1177818D02*
X1177363Y762750D01*
X1177363D02*
X1177818Y763312D01*
X1177818D02*
X1179181Y763875D01*
X1179181D02*
X1180545D01*
X1181909Y763312*
X1181909D02*
X1182818Y762187D01*
X1182818D02*
X1183272Y760500D01*
X1183272D02*
X1182818Y759375D01*
X1182363Y757687*
X1182363D02*
X1181454Y756562D01*
X1181454D02*
X1180090Y756000D01*
X1180090D02*
X1178727D01*
X1177363Y756562*
X1177363D02*
X1176909Y757125D01*
X1176454Y758250*
X1197818Y767812D02*
Y756000D01*
Y767812D02*
X1201909D01*
X1201909D02*
X1203272Y767250D01*
X1203272D02*
X1203727Y766687D01*
X1203727D02*
X1204181Y765562D01*
X1204181D02*
Y764437D01*
X1204181D02*
X1203727Y763312D01*
X1203727D02*
X1203272Y762750D01*
X1203272D02*
X1201909Y762187D01*
X1201909D02*
X1197818D01*
X1201000D02*
X1204181Y756000D01*
X1208272Y767812D02*
Y756000D01*
Y767812D02*
X1214181D01*
X1208272Y762187D02*
X1211909D01*
X1208272Y756000D02*
X1214181D01*
X1218272Y767812D02*
X1221909Y756000D01*
X1225545Y767812D02*
X1221909Y756000D01*
X1240090Y765562D02*
X1241000Y766125D01*
X1242363Y767812*
X1242363D02*
Y756000D01*
G54D54*
X1123500Y817000D02*
Y825500D01*
X1128500Y830500*
X1123500Y817000D02*
X1125500Y815000D01*
X1188000*
X1226500Y853500*
X1369822*
X1369822D02*
X1376511Y846811D01*
X1118500Y820500D02*
X1113500Y825500D01*
Y834500*
X1118000Y839000*
X1198000*
X1220000Y861000*
X1397755*
X1397755D02*
X1411944Y846811D01*
X1128500Y820500D02*
X1133500Y825500D01*
X1193500*
X1224000Y856000*
X1379133*
X1379133D02*
X1388322Y846811D01*
X1118500Y830500D02*
X1124000Y836000D01*
X1199500*
X1222000Y858500*
X1388444*
X1388444D02*
X1400133Y846811D01*
X967500Y844500D02*
X1139000D01*
X1149500Y855000*
X957500Y848500D02*
X1133500D01*
X1166500Y881500*
X1170000*
X987500Y852500D02*
X1133000D01*
X1165500Y885000*
X1181500*
X1185000Y881500*
X1158000Y863500D02*
X1165500D01*
X1174000Y872000*
X1181500*
X1189000Y879500*
Y886000*
X1158000Y858500D02*
X1166500D01*
X1176500Y868500*
X1183000*
X1192500Y878000*
Y888000*
X1158000Y858500D02*
Y854000D01*
X1162500Y849500*
X1197500*
X1219000Y871000*
X1411377*
X1411377D02*
X1435566Y846811D01*
X1154000Y852000D02*
Y861500D01*
X1156000Y863500*
X1158000*
X1154000Y852000D02*
X1159500Y846500D01*
X1199000*
X1221000Y868500*
X1402066*
X1402066D02*
X1423755Y846811D01*
X1174500Y856000D02*
X1178500Y860000D01*
X1199000*
X1220500Y881500*
X1424500*
X1459188Y846811*
X1190000Y853000D02*
X1196500D01*
X1222500Y879000*
X1415188*
X1415188D02*
X1447377Y846811D01*
X1165000Y888500D02*
Y891000D01*
X1167000Y893000*
X1187500*
X1192500Y888000*
X1170000Y888500D02*
X1186500D01*
X1189000Y886000*
X1190000Y902000D02*
X1193500D01*
X1206500Y889000*
Y877500*
X1175000Y902000D02*
X1180500Y896500D01*
X1191000*
X1201500Y886000*
Y875000*
G54D56*
X823600Y823600D02*
X842200Y805000D01*
X1505800*
X1524400Y823600*
Y965400*
X882500Y905000D02*
X895000D01*
X925000Y935000*
X962500*
X1257500Y905000D02*
X1269500D01*
X1299500Y935000*
X1337500*
X962500Y955000D02*
X997500Y920000D01*
X1027500*
X1042500Y905000*
X1337500Y955000D02*
X1371500Y921000D01*
X1401500*
X1417500Y905000*
X823600Y965400D02*
Y823600D01*
X831000Y1016000D02*
Y996500D01*
X840000Y987500*
X849500*
X850000*
X882500Y955000*
X894000Y1016000D02*
Y995500D01*
X917000Y972500*
X971500*
X1009000Y935000*
X1042500*
X957000Y1016000D02*
Y996500D01*
X966000Y987500*
X989000*
X1005500Y971000*
X1027000*
X1042500Y955500*
Y955000*
X1020000Y1016000D02*
Y997000D01*
X1033000Y984000*
X1093500*
X1122500Y955000*
X1073000Y1026000D02*
X1093000D01*
Y1006000D02*
X1073000D01*
Y1026000*
X1093000Y1006000D02*
Y1026000D01*
X1136000D02*
X1156000D01*
Y1006000D02*
X1136000D01*
Y1026000*
X1156000Y1006000D02*
Y1026000D01*
X1209000Y1016000D02*
Y990500D01*
X1222000Y977500*
X1235000*
X1257500Y955000*
X1272000Y1016000D02*
Y988500D01*
X1289000Y971500*
X1347000*
X1383500Y935000*
X1417500*
X1335000Y1016000D02*
Y993500D01*
X1342000Y986500*
X1361500*
X1377500Y970500*
X1402000*
X1417500Y955000*
X1398000Y1016000D02*
Y995000D01*
X1410500Y982500*
X1470000*
X1497500Y955000*
X1471000Y1026000D02*
X1451000D01*
Y1006000*
X1471000*
Y1026000*
X1534000D02*
X1514000D01*
Y1006000*
X1534000*
Y1026000*
G54D138*
X844000Y843500D03*
X846500Y847500D03*
X850500Y870000D03*
X844000Y851500D03*
X855500Y870000D03*
X861000D03*
X904000D03*
X909500D03*
X914500D03*
X967500Y844500D03*
X957500Y848500D03*
X987500Y852500D03*
X1018500Y865000D03*
Y875000D03*
X1158000Y863500D03*
X1149500Y855000D03*
X1158000Y858500D03*
X1164000Y842500D03*
X1174500Y856000D03*
X1201500Y875000D03*
X1190000Y853000D03*
X1186000Y842500D03*
X1184000Y864500D03*
X1195000Y872500D03*
X1393500Y865000D03*
Y875000D03*
X1165000Y888500D03*
X1170000D03*
Y881500D03*
X1163000Y912500D03*
X1150000Y876500D03*
Y898500D03*
X1206500Y877500D03*
X1190000Y902000D03*
X1185000Y881500D03*
X1175000Y902000D03*
X1163000Y927500D03*
X1186000D03*
G54D193*
X823600Y823600D03*
X1524400D03*
Y965400D03*
X823600D03*
X0Y0D02*
M02*
