*
*
G04 PADS Layout (Build Number 2005.103.1) generated Gerber (RS-274-X) file*
G04 PC Version=2.1*
*
%IN "7756.pcb"*%
*
%MOIN*%
*
%FSLAX35Y35*%
*
*
*
*
G04 PC Standard Apertures*
*
*
G04 Thermal Relief Aperture macro.*
%AMTER*
1,1,$1,0,0*
1,0,$1-$2,0,0*
21,0,$3,$4,0,0,45*
21,0,$3,$4,0,0,135*
%
*
*
G04 Annular Aperture macro.*
%AMANN*
1,1,$1,0,0*
1,0,$2,0,0*
%
*
*
G04 Odd Aperture macro.*
%AMODD*
1,1,$1,0,0*
1,0,$1-0.005,0,0*
%
*
*
G04 PC Custom Aperture Macros*
*
*
*
*
*
*
G04 PC Aperture Table*
*
%ADD030C,0.04*%
%ADD052C,0.01*%
%ADD053C,0.02*%
%ADD074R,0.045X0.071*%
%ADD081R,0.071X0.045*%
%ADD092R,0.057X0.045*%
%ADD180R,0.064X0.11*%
%ADD208R,0.138X0.063*%
%ADD209R,0.025X0.087*%
%ADD210R,0.06X0.024*%
%ADD211R,0.045X0.016*%
*
*
*
*
G04 PC Custom Flashes*
G04 Layer Name 7756.pcb - flashes*
%LPD*%
*
*
G04 PC Circuitry*
G04 Layer Name 7756.pcb - circuitry*
%LPD*%
*
G54D30*
G01X810000Y810000D03*
Y995000D03*
X1540000D03*
G54D52*
X800000Y800000D02*
X1548000D01*
Y1036200*
X800000*
Y800000*
G54D53*
X1116909Y767812D02*
X1121909D01*
X1121909D02*
X1119181Y763312D01*
X1119181D02*
X1120545D01*
X1120545D02*
X1121454Y762750D01*
X1121454D02*
X1121909Y762187D01*
X1121909D02*
X1122363Y760500D01*
X1122363D02*
Y759375D01*
X1122363D02*
X1121909Y757687D01*
X1121909D02*
X1121000Y756562D01*
X1121000D02*
X1119636Y756000D01*
X1118272*
X1118272D02*
X1116909Y756562D01*
X1116909D02*
X1116454Y757125D01*
X1116454D02*
X1116000Y758250D01*
X1126454Y765562D02*
X1127363Y766125D01*
X1127363D02*
X1128727Y767812D01*
X1128727D02*
Y756000D01*
X1132818Y761062D02*
X1141000D01*
X1147818Y767812D02*
X1146454Y767250D01*
X1146454D02*
X1145545Y765562D01*
X1145545D02*
X1145090Y762750D01*
X1145090D02*
Y761062D01*
X1145090D02*
X1145545Y758250D01*
X1146454Y756562*
X1146454D02*
X1147818Y756000D01*
X1148727*
X1150090Y756562*
X1150090D02*
X1151000Y758250D01*
X1151454Y761062*
X1151454D02*
Y762750D01*
X1151454D02*
X1151000Y765562D01*
X1151000D02*
X1150090Y767250D01*
X1150090D02*
X1148727Y767812D01*
X1148727D02*
X1147818D01*
X1158272D02*
X1156909Y767250D01*
X1156000Y765562*
X1156000D02*
X1155545Y762750D01*
Y761062*
X1155545D02*
X1156000Y758250D01*
X1156909Y756562*
X1156909D02*
X1158272Y756000D01*
X1158272D02*
X1159181D01*
X1159181D02*
X1160545Y756562D01*
X1160545D02*
X1161454Y758250D01*
X1161454D02*
X1161909Y761062D01*
X1161909D02*
Y762750D01*
X1161454Y765562*
X1161454D02*
X1160545Y767250D01*
X1159181Y767812*
X1159181D02*
X1158272D01*
X1168727D02*
X1167363Y767250D01*
X1167363D02*
X1166454Y765562D01*
X1166454D02*
X1166000Y762750D01*
Y761062*
X1166000D02*
X1166454Y758250D01*
X1166454D02*
X1167363Y756562D01*
X1167363D02*
X1168727Y756000D01*
X1169636*
X1171000Y756562*
X1171000D02*
X1171909Y758250D01*
X1172363Y761062*
X1172363D02*
Y762750D01*
X1172363D02*
X1171909Y765562D01*
X1171909D02*
X1171000Y767250D01*
X1169636Y767812*
X1169636D02*
X1168727D01*
X1182363D02*
X1177818D01*
X1177818D02*
X1177363Y762750D01*
X1177363D02*
X1177818Y763312D01*
X1177818D02*
X1179181Y763875D01*
X1179181D02*
X1180545D01*
X1181909Y763312*
X1181909D02*
X1182818Y762187D01*
X1182818D02*
X1183272Y760500D01*
X1183272D02*
X1182818Y759375D01*
X1182363Y757687*
X1182363D02*
X1181454Y756562D01*
X1181454D02*
X1180090Y756000D01*
X1180090D02*
X1178727D01*
X1177363Y756562*
X1177363D02*
X1176909Y757125D01*
X1176454Y758250*
X1197818Y767812D02*
Y756000D01*
Y767812D02*
X1201909D01*
X1201909D02*
X1203272Y767250D01*
X1203272D02*
X1203727Y766687D01*
X1203727D02*
X1204181Y765562D01*
X1204181D02*
Y764437D01*
X1204181D02*
X1203727Y763312D01*
X1203727D02*
X1203272Y762750D01*
X1203272D02*
X1201909Y762187D01*
X1201909D02*
X1197818D01*
X1201000D02*
X1204181Y756000D01*
X1208272Y767812D02*
Y756000D01*
Y767812D02*
X1214181D01*
X1208272Y762187D02*
X1211909D01*
X1208272Y756000D02*
X1214181D01*
X1218272Y767812D02*
X1221909Y756000D01*
X1225545Y767812D02*
X1221909Y756000D01*
X1240090Y765562D02*
X1241000Y766125D01*
X1242363Y767812*
X1242363D02*
Y756000D01*
X1127363Y791125D02*
X1126454Y792250D01*
X1126454D02*
X1125090Y792812D01*
X1125090D02*
X1123272D01*
X1123272D02*
X1121909Y792250D01*
X1121000Y791125*
Y790000*
X1121454Y788875*
X1121454D02*
X1121909Y788312D01*
X1121909D02*
X1122818Y787750D01*
X1125545Y786625*
X1126454Y786062*
X1126454D02*
X1126909Y785500D01*
X1127363Y784375*
X1127363D02*
Y782687D01*
X1127363D02*
X1126454Y781562D01*
X1126454D02*
X1125090Y781000D01*
X1125090D02*
X1123272D01*
X1123272D02*
X1121909Y781562D01*
X1121909D02*
X1121000Y782687D01*
X1134181Y792812D02*
X1133272Y792250D01*
X1133272D02*
X1132363Y791125D01*
X1132363D02*
X1131909Y790000D01*
X1131454Y788312*
X1131454D02*
Y785500D01*
X1131454D02*
X1131909Y783812D01*
X1131909D02*
X1132363Y782687D01*
X1132363D02*
X1133272Y781562D01*
X1133272D02*
X1134181Y781000D01*
X1134181D02*
X1136000D01*
X1136909Y781562*
X1136909D02*
X1137818Y782687D01*
X1137818D02*
X1138272Y783812D01*
X1138272D02*
X1138727Y785500D01*
Y788312*
X1138727D02*
X1138272Y790000D01*
X1138272D02*
X1137818Y791125D01*
X1136909Y792250*
X1136000Y792812*
X1136000D02*
X1134181D01*
X1142818D02*
Y781000D01*
X1148272*
X1152363Y792812D02*
Y781000D01*
Y792812D02*
X1155545D01*
X1155545D02*
X1156909Y792250D01*
X1157818Y791125*
X1158272Y790000*
X1158272D02*
X1158727Y788312D01*
X1158727D02*
Y785500D01*
X1158272Y783812*
X1158272D02*
X1157818Y782687D01*
X1157818D02*
X1156909Y781562D01*
X1156909D02*
X1155545Y781000D01*
X1152363*
X1162818Y792812D02*
Y781000D01*
Y792812D02*
X1168727D01*
X1162818Y787187D02*
X1166454D01*
X1162818Y781000D02*
X1168727D01*
X1172818Y792812D02*
Y781000D01*
Y792812D02*
X1176909D01*
X1176909D02*
X1178272Y792250D01*
X1178272D02*
X1178727Y791687D01*
X1178727D02*
X1179181Y790562D01*
X1179181D02*
Y789437D01*
X1179181D02*
X1178727Y788312D01*
X1178727D02*
X1178272Y787750D01*
X1178272D02*
X1176909Y787187D01*
X1176909D02*
X1172818D01*
X1176000D02*
X1179181Y781000D01*
X1183272Y792812D02*
Y781000D01*
Y792812D02*
X1187363D01*
X1187363D02*
X1188727Y792250D01*
X1189181Y791687*
X1189181D02*
X1189636Y790562D01*
X1189636D02*
Y788875D01*
X1189181Y787750*
X1189181D02*
X1188727Y787187D01*
X1188727D02*
X1187363Y786625D01*
X1187363D02*
X1183272D01*
X1197363Y792812D02*
X1193727Y781000D01*
X1197363Y792812D02*
X1201000Y781000D01*
X1195090Y784937D02*
X1199636D01*
X1211454Y791125D02*
X1210545Y792250D01*
X1209181Y792812*
X1209181D02*
X1207363D01*
X1207363D02*
X1206000Y792250D01*
X1205090Y791125*
X1205090D02*
Y790000D01*
X1205090D02*
X1205545Y788875D01*
X1206000Y788312*
X1206000D02*
X1206909Y787750D01*
X1209636Y786625*
X1210545Y786062*
X1210545D02*
X1211000Y785500D01*
X1211454Y784375*
X1211454D02*
Y782687D01*
X1211454D02*
X1210545Y781562D01*
X1210545D02*
X1209181Y781000D01*
X1209181D02*
X1207363D01*
X1207363D02*
X1206000Y781562D01*
X1206000D02*
X1205090Y782687D01*
X1218727Y792812D02*
Y781000D01*
X1215545Y792812D02*
X1221909D01*
X1226000D02*
Y781000D01*
Y792812D02*
X1231909D01*
X1226000Y787187D02*
X1229636D01*
X1226000Y781000D02*
X1231909D01*
G54D74*
X1169192Y927500D03*
X1180807D03*
Y842500D03*
X1169192D03*
G54D81*
X1002500Y864192D03*
Y875807D03*
X1377500Y864192D03*
Y875807D03*
X1150000Y881692D03*
Y893307D03*
G54D92*
X1012500Y873444D03*
Y866555D03*
X1387500Y873444D03*
Y866555D03*
G54D180*
X838011Y847500D03*
X826988D03*
G54D208*
X871476Y870000D03*
X893523D03*
G54D209*
X957500Y859764D03*
X962500D03*
X967500D03*
X972500D03*
X977500D03*
X982500D03*
X987500D03*
X992500D03*
Y880236D03*
X987500D03*
X982500D03*
X977500D03*
X972500D03*
X967500D03*
X962500D03*
X957500D03*
X1332500Y859764D03*
X1337500D03*
X1342500D03*
X1347500D03*
X1352500D03*
X1357500D03*
X1362500D03*
X1367500D03*
Y880236D03*
X1362500D03*
X1357500D03*
X1352500D03*
X1347500D03*
X1342500D03*
X1337500D03*
X1332500D03*
X1160000Y874764D03*
X1165000D03*
X1170000D03*
X1175000D03*
X1180000D03*
X1185000D03*
X1190000D03*
Y895236D03*
X1185000D03*
X1180000D03*
X1175000D03*
X1170000D03*
X1165000D03*
X1160000D03*
G54D210*
X1169094Y916240D03*
Y912500D03*
Y908760D03*
X1180906D03*
Y912500D03*
Y916240D03*
G54D211*
X1182874Y853661D03*
Y856220D03*
Y858780D03*
Y861339D03*
X1167125D03*
Y858780D03*
Y856220D03*
Y853661D03*
X0Y0D02*
M02*
