*
*
G04 PADS Layout (Build Number 2005.103.1) generated Gerber (RS-274-X) file*
G04 PC Version=2.1*
*
%IN "7756.pcb"*%
*
%MOIN*%
*
%FSLAX35Y35*%
*
*
*
*
G04 PC Standard Apertures*
*
*
G04 Thermal Relief Aperture macro.*
%AMTER*
1,1,$1,0,0*
1,0,$1-$2,0,0*
21,0,$3,$4,0,0,45*
21,0,$3,$4,0,0,135*
%
*
*
G04 Annular Aperture macro.*
%AMANN*
1,1,$1,0,0*
1,0,$2,0,0*
%
*
*
G04 Odd Aperture macro.*
%AMODD*
1,1,$1,0,0*
1,0,$1-0.005,0,0*
%
*
*
G04 PC Custom Aperture Macros*
*
*
*
*
*
*
G04 PC Aperture Table*
*
%ADD025C,0.08*%
%ADD039C,0.105*%
%ADD040R,0.08X0.08*%
%ADD041C,0.07*%
%ADD042R,0.07X0.07*%
%ADD043C,0.155*%
%ADD052C,0.01*%
%ADD053C,0.02*%
%ADD205C,0.255*%
%ADD207C,0.019*%
*
*
*
*
G04 PC Custom Flashes*
G04 Layer Name 7756.pcb - flashes*
%LPD*%
*
*
G04 PC Circuitry*
G04 Layer Name 7756.pcb - circuitry*
%LPD*%
*
G54D25*
G01X852500Y905000D03*
X882500D03*
Y935000D03*
Y955000D03*
X932500Y905000D03*
X962500D03*
Y935000D03*
Y955000D03*
X1012500Y905000D03*
X1042500D03*
Y935000D03*
Y955000D03*
X1092500Y905000D03*
X1122500D03*
Y935000D03*
Y955000D03*
X1227500Y905000D03*
X1257500D03*
Y935000D03*
Y955000D03*
X1307500Y905000D03*
X1337500D03*
Y935000D03*
Y955000D03*
X1387500Y905000D03*
X1417500D03*
Y935000D03*
Y955000D03*
X1467500Y905000D03*
X1497500D03*
Y935000D03*
Y955000D03*
X1459188Y835000D03*
X1447377D03*
X1435566D03*
X1423755D03*
X1411944D03*
X1400133D03*
X1388322D03*
X1376511D03*
X1364700D03*
X1471000Y846811D03*
X1459188D03*
X1447377D03*
X1435566D03*
X1423755D03*
X1411944D03*
X1400133D03*
X1388322D03*
X1376511D03*
X1364700D03*
G54D39*
X1030000Y1006000D03*
X1010000D03*
Y1026000D03*
X1030000D03*
X1020000Y1016000D03*
X967000Y1006000D03*
X947000D03*
Y1026000D03*
X967000D03*
X957000Y1016000D03*
X904000Y1006000D03*
X884000D03*
Y1026000D03*
X904000D03*
X894000Y1016000D03*
X841000Y1006000D03*
X821000D03*
Y1026000D03*
X841000D03*
X831000Y1016000D03*
X1093000Y1006000D03*
X1073000D03*
Y1026000D03*
X1093000D03*
X1083000Y1016000D03*
X1156000Y1006000D03*
X1136000D03*
Y1026000D03*
X1156000D03*
X1146000Y1016000D03*
X1219000Y1006000D03*
X1199000D03*
Y1026000D03*
X1219000D03*
X1209000Y1016000D03*
X1471000Y1006000D03*
X1451000D03*
Y1026000D03*
X1471000D03*
X1461000Y1016000D03*
X1282000Y1006000D03*
X1262000D03*
Y1026000D03*
X1282000D03*
X1272000Y1016000D03*
X1534000Y1006000D03*
X1514000D03*
Y1026000D03*
X1534000D03*
X1524000Y1016000D03*
X1345000Y1006000D03*
X1325000D03*
Y1026000D03*
X1345000D03*
X1335000Y1016000D03*
X1408000Y1006000D03*
X1388000D03*
Y1026000D03*
X1408000D03*
X1398000Y1016000D03*
G54D40*
X852500Y955000D03*
X932500D03*
X1012500D03*
X1092500D03*
X1227500D03*
X1307500D03*
X1387500D03*
X1467500D03*
X1471000Y835000D03*
G54D41*
X1108500Y830500D03*
X1118500Y820500D03*
Y830500D03*
X1128500Y820500D03*
Y830500D03*
X1138500Y820500D03*
Y830500D03*
X1148500Y820500D03*
Y830500D03*
X877500Y847500D03*
X887500D03*
X897500D03*
G54D42*
X1108500Y820500D03*
X867500Y847500D03*
G54D43*
X1356236Y817992D03*
X1479464D03*
G54D52*
X800000Y800000D02*
X1548000D01*
Y1036200*
X800000*
Y800000*
G54D53*
X1116909Y767812D02*
X1121909D01*
X1121909D02*
X1119181Y763312D01*
X1119181D02*
X1120545D01*
X1120545D02*
X1121454Y762750D01*
X1121454D02*
X1121909Y762187D01*
X1121909D02*
X1122363Y760500D01*
X1122363D02*
Y759375D01*
X1122363D02*
X1121909Y757687D01*
X1121909D02*
X1121000Y756562D01*
X1121000D02*
X1119636Y756000D01*
X1118272*
X1118272D02*
X1116909Y756562D01*
X1116909D02*
X1116454Y757125D01*
X1116454D02*
X1116000Y758250D01*
X1126454Y765562D02*
X1127363Y766125D01*
X1127363D02*
X1128727Y767812D01*
X1128727D02*
Y756000D01*
X1132818Y761062D02*
X1141000D01*
X1147818Y767812D02*
X1146454Y767250D01*
X1146454D02*
X1145545Y765562D01*
X1145545D02*
X1145090Y762750D01*
X1145090D02*
Y761062D01*
X1145090D02*
X1145545Y758250D01*
X1146454Y756562*
X1146454D02*
X1147818Y756000D01*
X1148727*
X1150090Y756562*
X1150090D02*
X1151000Y758250D01*
X1151454Y761062*
X1151454D02*
Y762750D01*
X1151454D02*
X1151000Y765562D01*
X1151000D02*
X1150090Y767250D01*
X1150090D02*
X1148727Y767812D01*
X1148727D02*
X1147818D01*
X1158272D02*
X1156909Y767250D01*
X1156000Y765562*
X1156000D02*
X1155545Y762750D01*
Y761062*
X1155545D02*
X1156000Y758250D01*
X1156909Y756562*
X1156909D02*
X1158272Y756000D01*
X1158272D02*
X1159181D01*
X1159181D02*
X1160545Y756562D01*
X1160545D02*
X1161454Y758250D01*
X1161454D02*
X1161909Y761062D01*
X1161909D02*
Y762750D01*
X1161454Y765562*
X1161454D02*
X1160545Y767250D01*
X1159181Y767812*
X1159181D02*
X1158272D01*
X1168727D02*
X1167363Y767250D01*
X1167363D02*
X1166454Y765562D01*
X1166454D02*
X1166000Y762750D01*
Y761062*
X1166000D02*
X1166454Y758250D01*
X1166454D02*
X1167363Y756562D01*
X1167363D02*
X1168727Y756000D01*
X1169636*
X1171000Y756562*
X1171000D02*
X1171909Y758250D01*
X1172363Y761062*
X1172363D02*
Y762750D01*
X1172363D02*
X1171909Y765562D01*
X1171909D02*
X1171000Y767250D01*
X1169636Y767812*
X1169636D02*
X1168727D01*
X1182363D02*
X1177818D01*
X1177818D02*
X1177363Y762750D01*
X1177363D02*
X1177818Y763312D01*
X1177818D02*
X1179181Y763875D01*
X1179181D02*
X1180545D01*
X1181909Y763312*
X1181909D02*
X1182818Y762187D01*
X1182818D02*
X1183272Y760500D01*
X1183272D02*
X1182818Y759375D01*
X1182363Y757687*
X1182363D02*
X1181454Y756562D01*
X1181454D02*
X1180090Y756000D01*
X1180090D02*
X1178727D01*
X1177363Y756562*
X1177363D02*
X1176909Y757125D01*
X1176454Y758250*
X1197818Y767812D02*
Y756000D01*
Y767812D02*
X1201909D01*
X1201909D02*
X1203272Y767250D01*
X1203272D02*
X1203727Y766687D01*
X1203727D02*
X1204181Y765562D01*
X1204181D02*
Y764437D01*
X1204181D02*
X1203727Y763312D01*
X1203727D02*
X1203272Y762750D01*
X1203272D02*
X1201909Y762187D01*
X1201909D02*
X1197818D01*
X1201000D02*
X1204181Y756000D01*
X1208272Y767812D02*
Y756000D01*
Y767812D02*
X1214181D01*
X1208272Y762187D02*
X1211909D01*
X1208272Y756000D02*
X1214181D01*
X1218272Y767812D02*
X1221909Y756000D01*
X1225545Y767812D02*
X1221909Y756000D01*
X1240090Y765562D02*
X1241000Y766125D01*
X1242363Y767812*
X1242363D02*
Y756000D01*
X1287636Y791125D02*
X1288545Y792250D01*
X1289909Y792812*
X1289909D02*
X1291727D01*
X1291727D02*
X1293090Y792250D01*
X1293090D02*
X1294000Y791125D01*
Y790000*
X1293545Y788875*
X1293090Y788312*
X1293090D02*
X1292181Y787750D01*
X1292181D02*
X1289454Y786625D01*
X1289454D02*
X1288545Y786062D01*
X1288545D02*
X1288090Y785500D01*
X1288090D02*
X1287636Y784375D01*
Y782687*
X1287636D02*
X1288545Y781562D01*
X1288545D02*
X1289909Y781000D01*
X1291727*
X1293090Y781562*
X1293090D02*
X1294000Y782687D01*
X1280818Y792812D02*
X1281727Y792250D01*
X1282636Y791125*
X1283090Y790000*
X1283090D02*
X1283545Y788312D01*
X1283545D02*
Y785500D01*
X1283090Y783812*
X1283090D02*
X1282636Y782687D01*
X1282636D02*
X1281727Y781562D01*
X1281727D02*
X1280818Y781000D01*
X1279000*
X1278090Y781562*
X1278090D02*
X1277181Y782687D01*
X1277181D02*
X1276727Y783812D01*
X1276727D02*
X1276272Y785500D01*
X1276272D02*
Y788312D01*
X1276272D02*
X1276727Y790000D01*
X1277181Y791125*
X1277181D02*
X1278090Y792250D01*
X1278090D02*
X1279000Y792812D01*
X1279000D02*
X1280818D01*
X1272181D02*
Y781000D01*
X1272181D02*
X1266727D01*
X1262636Y792812D02*
Y781000D01*
Y792812D02*
X1259454D01*
X1259454D02*
X1258090Y792250D01*
X1258090D02*
X1257181Y791125D01*
X1257181D02*
X1256727Y790000D01*
X1256272Y788312*
X1256272D02*
Y785500D01*
X1256272D02*
X1256727Y783812D01*
X1256727D02*
X1257181Y782687D01*
X1257181D02*
X1258090Y781562D01*
X1258090D02*
X1259454Y781000D01*
X1259454D02*
X1262636D01*
X1252181Y792812D02*
Y781000D01*
Y792812D02*
X1246272D01*
X1252181Y787187D02*
X1248545D01*
X1252181Y781000D02*
X1246272D01*
X1242181Y792812D02*
Y781000D01*
Y792812D02*
X1238090D01*
X1238090D02*
X1236727Y792250D01*
X1236272Y791687*
X1236272D02*
X1235818Y790562D01*
X1235818D02*
Y789437D01*
X1235818D02*
X1236272Y788312D01*
X1236272D02*
X1236727Y787750D01*
X1238090Y787187*
X1238090D02*
X1242181D01*
X1239000D02*
X1235818Y781000D01*
X1231727Y792812D02*
Y781000D01*
Y792812D02*
X1228090Y781000D01*
X1224454Y792812D02*
X1228090Y781000D01*
X1224454Y792812D02*
Y781000D01*
X1216727Y792812D02*
X1220363Y781000D01*
X1216727Y792812D02*
X1213090Y781000D01*
X1219000Y784937D02*
X1214454D01*
X1202636Y791125D02*
X1203545Y792250D01*
X1204909Y792812*
X1204909D02*
X1206727D01*
X1206727D02*
X1208090Y792250D01*
X1208090D02*
X1209000Y791125D01*
Y790000*
X1208545Y788875*
X1208090Y788312*
X1208090D02*
X1207181Y787750D01*
X1207181D02*
X1204454Y786625D01*
X1204454D02*
X1203545Y786062D01*
X1203545D02*
X1203090Y785500D01*
X1203090D02*
X1202636Y784375D01*
Y782687*
X1202636D02*
X1203545Y781562D01*
X1203545D02*
X1204909Y781000D01*
X1206727*
X1208090Y781562*
X1208090D02*
X1209000Y782687D01*
X1198545Y792812D02*
Y781000D01*
X1192181Y792812D02*
X1198545Y784937D01*
X1196272Y787750D02*
X1192181Y781000D01*
X1177636Y792812D02*
Y781000D01*
Y792812D02*
X1173545D01*
X1173545D02*
X1172181Y792250D01*
X1172181D02*
X1171727Y791687D01*
X1171727D02*
X1171272Y790562D01*
X1171272D02*
Y789437D01*
X1171272D02*
X1171727Y788312D01*
X1171727D02*
X1172181Y787750D01*
X1172181D02*
X1173545Y787187D01*
X1177636D02*
X1173545D01*
X1173545D02*
X1172181Y786625D01*
X1172181D02*
X1171727Y786062D01*
X1171727D02*
X1171272Y784937D01*
X1171272D02*
Y783250D01*
X1171272D02*
X1171727Y782125D01*
X1172181Y781562*
X1172181D02*
X1173545Y781000D01*
X1177636*
X1164454Y792812D02*
X1165363Y792250D01*
X1165363D02*
X1166272Y791125D01*
X1166272D02*
X1166727Y790000D01*
X1167181Y788312*
X1167181D02*
Y785500D01*
X1167181D02*
X1166727Y783812D01*
X1166727D02*
X1166272Y782687D01*
X1166272D02*
X1165363Y781562D01*
X1165363D02*
X1164454Y781000D01*
X1164454D02*
X1162636D01*
X1161727Y781562*
X1161727D02*
X1160818Y782687D01*
X1160818D02*
X1160363Y783812D01*
X1160363D02*
X1159909Y785500D01*
Y788312*
X1159909D02*
X1160363Y790000D01*
X1160363D02*
X1160818Y791125D01*
X1161727Y792250*
X1162636Y792812*
X1162636D02*
X1164454D01*
X1152636D02*
Y781000D01*
X1155818Y792812D02*
X1149454D01*
X1142181D02*
Y781000D01*
X1145363Y792812D02*
X1139000D01*
X1132181D02*
X1133090Y792250D01*
X1133090D02*
X1134000Y791125D01*
X1134454Y790000*
X1134454D02*
X1134909Y788312D01*
X1134909D02*
Y785500D01*
X1134454Y783812*
X1134454D02*
X1134000Y782687D01*
X1134000D02*
X1133090Y781562D01*
X1133090D02*
X1132181Y781000D01*
X1132181D02*
X1130363D01*
X1130363D02*
X1129454Y781562D01*
X1129454D02*
X1128545Y782687D01*
X1128545D02*
X1128090Y783812D01*
X1128090D02*
X1127636Y785500D01*
Y788312*
X1127636D02*
X1128090Y790000D01*
X1128090D02*
X1128545Y791125D01*
X1129454Y792250*
X1129454D02*
X1130363Y792812D01*
X1130363D02*
X1132181D01*
X1123545D02*
Y781000D01*
Y792812D02*
X1119909Y781000D01*
X1116272Y792812D02*
X1119909Y781000D01*
X1116272Y792812D02*
Y781000D01*
X1095363Y791125D02*
X1096272Y792250D01*
X1096272D02*
X1097636Y792812D01*
X1097636D02*
X1099454D01*
X1099454D02*
X1100818Y792250D01*
X1101727Y791125*
Y790000*
X1101272Y788875*
X1101272D02*
X1100818Y788312D01*
X1100818D02*
X1099909Y787750D01*
X1097181Y786625*
X1097181D02*
X1096272Y786062D01*
X1096272D02*
X1095818Y785500D01*
X1095363Y784375*
X1095363D02*
Y782687D01*
X1095363D02*
X1096272Y781562D01*
X1096272D02*
X1097636Y781000D01*
X1099454*
X1099454D02*
X1100818Y781562D01*
X1100818D02*
X1101727Y782687D01*
X1091272Y792812D02*
Y781000D01*
X1087181Y792812D02*
Y781000D01*
Y792812D02*
X1084000D01*
X1084000D02*
X1082636Y792250D01*
X1081727Y791125*
X1081272Y790000*
X1081272D02*
X1080818Y788312D01*
X1080818D02*
Y785500D01*
X1081272Y783812*
X1081272D02*
X1081727Y782687D01*
X1081727D02*
X1082636Y781562D01*
X1082636D02*
X1084000Y781000D01*
X1087181*
X1076727Y792812D02*
Y781000D01*
Y792812D02*
X1070818D01*
X1076727Y787187D02*
X1073090D01*
X1076727Y781000D02*
X1070818D01*
G54D205*
X823600Y823600D03*
X1524400D03*
Y965400D03*
X823600D03*
G54D207*
X844000Y843500D03*
X846500Y847500D03*
X850500Y870000D03*
X844000Y851500D03*
X855500Y870000D03*
X861000D03*
X904000D03*
X909500D03*
X914500D03*
X967500Y844500D03*
X957500Y848500D03*
X987500Y852500D03*
X1018500Y865000D03*
Y875000D03*
X1158000Y863500D03*
X1149500Y855000D03*
X1158000Y858500D03*
X1164000Y842500D03*
X1174500Y856000D03*
X1201500Y875000D03*
X1190000Y853000D03*
X1186000Y842500D03*
X1184000Y864500D03*
X1195000Y872500D03*
X1393500Y865000D03*
Y875000D03*
X1165000Y888500D03*
X1170000D03*
Y881500D03*
X1163000Y912500D03*
X1150000Y876500D03*
Y898500D03*
X1206500Y877500D03*
X1190000Y902000D03*
X1185000Y881500D03*
X1175000Y902000D03*
X1163000Y927500D03*
X1186000D03*
X0Y0D02*
M02*
