*
*
G04 PADS Layout (Build Number 2005.103.1) generated Gerber (RS-274-X) file*
G04 PC Version=2.1*
*
%IN "7756.pcb"*%
*
%MOIN*%
*
%FSLAX35Y35*%
*
*
*
*
G04 PC Standard Apertures*
*
*
G04 Thermal Relief Aperture macro.*
%AMTER*
1,1,$1,0,0*
1,0,$1-$2,0,0*
21,0,$3,$4,0,0,45*
21,0,$3,$4,0,0,135*
%
*
*
G04 Annular Aperture macro.*
%AMANN*
1,1,$1,0,0*
1,0,$2,0,0*
%
*
*
G04 Odd Aperture macro.*
%AMODD*
1,1,$1,0,0*
1,0,$1-0.005,0,0*
%
*
*
G04 PC Custom Aperture Macros*
*
*
*
*
*
*
G04 PC Aperture Table*
*
%ADD025C,0.08*%
%ADD039C,0.105*%
%ADD040R,0.08X0.08*%
%ADD041C,0.07*%
%ADD042R,0.07X0.07*%
%ADD043C,0.155*%
%ADD052C,0.01*%
%ADD053C,0.02*%
%ADD107R,0.048X0.074*%
%ADD114R,0.074X0.048*%
%ADD126R,0.06X0.048*%
%ADD192R,0.067X0.113*%
%ADD205C,0.255*%
%ADD207C,0.019*%
%ADD212R,0.143X0.068*%
%ADD213R,0.03X0.092*%
%ADD214R,0.063X0.027*%
%ADD215R,0.048X0.019*%
*
*
*
*
G04 PC Custom Flashes*
G04 Layer Name 7756.pcb - flashes*
%LPD*%
*
*
G04 PC Circuitry*
G04 Layer Name 7756.pcb - circuitry*
%LPD*%
*
G54D25*
G01X810000Y810000D03*
Y995000D03*
X1540000D03*
X852500Y905000D03*
X882500D03*
Y935000D03*
Y955000D03*
X932500Y905000D03*
X962500D03*
Y935000D03*
Y955000D03*
X1012500Y905000D03*
X1042500D03*
Y935000D03*
Y955000D03*
X1092500Y905000D03*
X1122500D03*
Y935000D03*
Y955000D03*
X1227500Y905000D03*
X1257500D03*
Y935000D03*
Y955000D03*
X1307500Y905000D03*
X1337500D03*
Y935000D03*
Y955000D03*
X1387500Y905000D03*
X1417500D03*
Y935000D03*
Y955000D03*
X1467500Y905000D03*
X1497500D03*
Y935000D03*
Y955000D03*
X1459188Y835000D03*
X1447377D03*
X1435566D03*
X1423755D03*
X1411944D03*
X1400133D03*
X1388322D03*
X1376511D03*
X1364700D03*
X1471000Y846811D03*
X1459188D03*
X1447377D03*
X1435566D03*
X1423755D03*
X1411944D03*
X1400133D03*
X1388322D03*
X1376511D03*
X1364700D03*
G54D39*
X1030000Y1006000D03*
X1010000D03*
Y1026000D03*
X1030000D03*
X1020000Y1016000D03*
X967000Y1006000D03*
X947000D03*
Y1026000D03*
X967000D03*
X957000Y1016000D03*
X904000Y1006000D03*
X884000D03*
Y1026000D03*
X904000D03*
X894000Y1016000D03*
X841000Y1006000D03*
X821000D03*
Y1026000D03*
X841000D03*
X831000Y1016000D03*
X1093000Y1006000D03*
X1073000D03*
Y1026000D03*
X1093000D03*
X1083000Y1016000D03*
X1156000Y1006000D03*
X1136000D03*
Y1026000D03*
X1156000D03*
X1146000Y1016000D03*
X1219000Y1006000D03*
X1199000D03*
Y1026000D03*
X1219000D03*
X1209000Y1016000D03*
X1471000Y1006000D03*
X1451000D03*
Y1026000D03*
X1471000D03*
X1461000Y1016000D03*
X1282000Y1006000D03*
X1262000D03*
Y1026000D03*
X1282000D03*
X1272000Y1016000D03*
X1534000Y1006000D03*
X1514000D03*
Y1026000D03*
X1534000D03*
X1524000Y1016000D03*
X1345000Y1006000D03*
X1325000D03*
Y1026000D03*
X1345000D03*
X1335000Y1016000D03*
X1408000Y1006000D03*
X1388000D03*
Y1026000D03*
X1408000D03*
X1398000Y1016000D03*
G54D40*
X852500Y955000D03*
X932500D03*
X1012500D03*
X1092500D03*
X1227500D03*
X1307500D03*
X1387500D03*
X1467500D03*
X1471000Y835000D03*
G54D41*
X1108500Y830500D03*
X1118500Y820500D03*
Y830500D03*
X1128500Y820500D03*
Y830500D03*
X1138500Y820500D03*
Y830500D03*
X1148500Y820500D03*
Y830500D03*
X877500Y847500D03*
X887500D03*
X897500D03*
G54D42*
X1108500Y820500D03*
X867500Y847500D03*
G54D43*
X1356236Y817992D03*
X1479464D03*
G54D52*
X800000Y800000D02*
X1548000D01*
Y1036200*
X800000*
Y800000*
G54D53*
X1116909Y767812D02*
X1121909D01*
X1121909D02*
X1119181Y763312D01*
X1119181D02*
X1120545D01*
X1120545D02*
X1121454Y762750D01*
X1121454D02*
X1121909Y762187D01*
X1121909D02*
X1122363Y760500D01*
X1122363D02*
Y759375D01*
X1122363D02*
X1121909Y757687D01*
X1121909D02*
X1121000Y756562D01*
X1121000D02*
X1119636Y756000D01*
X1118272*
X1118272D02*
X1116909Y756562D01*
X1116909D02*
X1116454Y757125D01*
X1116454D02*
X1116000Y758250D01*
X1126454Y765562D02*
X1127363Y766125D01*
X1127363D02*
X1128727Y767812D01*
X1128727D02*
Y756000D01*
X1132818Y761062D02*
X1141000D01*
X1147818Y767812D02*
X1146454Y767250D01*
X1146454D02*
X1145545Y765562D01*
X1145545D02*
X1145090Y762750D01*
X1145090D02*
Y761062D01*
X1145090D02*
X1145545Y758250D01*
X1146454Y756562*
X1146454D02*
X1147818Y756000D01*
X1148727*
X1150090Y756562*
X1150090D02*
X1151000Y758250D01*
X1151454Y761062*
X1151454D02*
Y762750D01*
X1151454D02*
X1151000Y765562D01*
X1151000D02*
X1150090Y767250D01*
X1150090D02*
X1148727Y767812D01*
X1148727D02*
X1147818D01*
X1158272D02*
X1156909Y767250D01*
X1156000Y765562*
X1156000D02*
X1155545Y762750D01*
Y761062*
X1155545D02*
X1156000Y758250D01*
X1156909Y756562*
X1156909D02*
X1158272Y756000D01*
X1158272D02*
X1159181D01*
X1159181D02*
X1160545Y756562D01*
X1160545D02*
X1161454Y758250D01*
X1161454D02*
X1161909Y761062D01*
X1161909D02*
Y762750D01*
X1161454Y765562*
X1161454D02*
X1160545Y767250D01*
X1159181Y767812*
X1159181D02*
X1158272D01*
X1168727D02*
X1167363Y767250D01*
X1167363D02*
X1166454Y765562D01*
X1166454D02*
X1166000Y762750D01*
Y761062*
X1166000D02*
X1166454Y758250D01*
X1166454D02*
X1167363Y756562D01*
X1167363D02*
X1168727Y756000D01*
X1169636*
X1171000Y756562*
X1171000D02*
X1171909Y758250D01*
X1172363Y761062*
X1172363D02*
Y762750D01*
X1172363D02*
X1171909Y765562D01*
X1171909D02*
X1171000Y767250D01*
X1169636Y767812*
X1169636D02*
X1168727D01*
X1182363D02*
X1177818D01*
X1177818D02*
X1177363Y762750D01*
X1177363D02*
X1177818Y763312D01*
X1177818D02*
X1179181Y763875D01*
X1179181D02*
X1180545D01*
X1181909Y763312*
X1181909D02*
X1182818Y762187D01*
X1182818D02*
X1183272Y760500D01*
X1183272D02*
X1182818Y759375D01*
X1182363Y757687*
X1182363D02*
X1181454Y756562D01*
X1181454D02*
X1180090Y756000D01*
X1180090D02*
X1178727D01*
X1177363Y756562*
X1177363D02*
X1176909Y757125D01*
X1176454Y758250*
X1197818Y767812D02*
Y756000D01*
Y767812D02*
X1201909D01*
X1201909D02*
X1203272Y767250D01*
X1203272D02*
X1203727Y766687D01*
X1203727D02*
X1204181Y765562D01*
X1204181D02*
Y764437D01*
X1204181D02*
X1203727Y763312D01*
X1203727D02*
X1203272Y762750D01*
X1203272D02*
X1201909Y762187D01*
X1201909D02*
X1197818D01*
X1201000D02*
X1204181Y756000D01*
X1208272Y767812D02*
Y756000D01*
Y767812D02*
X1214181D01*
X1208272Y762187D02*
X1211909D01*
X1208272Y756000D02*
X1214181D01*
X1218272Y767812D02*
X1221909Y756000D01*
X1225545Y767812D02*
X1221909Y756000D01*
X1240090Y765562D02*
X1241000Y766125D01*
X1242363Y767812*
X1242363D02*
Y756000D01*
X1087363Y791125D02*
X1086454Y792250D01*
X1086454D02*
X1085090Y792812D01*
X1085090D02*
X1083272D01*
X1083272D02*
X1081909Y792250D01*
X1081000Y791125*
Y790000*
X1081454Y788875*
X1081454D02*
X1081909Y788312D01*
X1081909D02*
X1082818Y787750D01*
X1085545Y786625*
X1086454Y786062*
X1086454D02*
X1086909Y785500D01*
X1087363Y784375*
X1087363D02*
Y782687D01*
X1087363D02*
X1086454Y781562D01*
X1086454D02*
X1085090Y781000D01*
X1085090D02*
X1083272D01*
X1083272D02*
X1081909Y781562D01*
X1081909D02*
X1081000Y782687D01*
X1094181Y792812D02*
X1093272Y792250D01*
X1093272D02*
X1092363Y791125D01*
X1092363D02*
X1091909Y790000D01*
X1091454Y788312*
X1091454D02*
Y785500D01*
X1091454D02*
X1091909Y783812D01*
X1091909D02*
X1092363Y782687D01*
X1092363D02*
X1093272Y781562D01*
X1093272D02*
X1094181Y781000D01*
X1094181D02*
X1096000D01*
X1096909Y781562*
X1096909D02*
X1097818Y782687D01*
X1097818D02*
X1098272Y783812D01*
X1098272D02*
X1098727Y785500D01*
Y788312*
X1098727D02*
X1098272Y790000D01*
X1098272D02*
X1097818Y791125D01*
X1096909Y792250*
X1096000Y792812*
X1096000D02*
X1094181D01*
X1102818D02*
Y781000D01*
X1108272*
X1112363Y792812D02*
Y781000D01*
Y792812D02*
X1115545D01*
X1115545D02*
X1116909Y792250D01*
X1117818Y791125*
X1118272Y790000*
X1118272D02*
X1118727Y788312D01*
X1118727D02*
Y785500D01*
X1118272Y783812*
X1118272D02*
X1117818Y782687D01*
X1117818D02*
X1116909Y781562D01*
X1116909D02*
X1115545Y781000D01*
X1112363*
X1122818Y792812D02*
Y781000D01*
Y792812D02*
X1128727D01*
X1122818Y787187D02*
X1126454D01*
X1122818Y781000D02*
X1128727D01*
X1132818Y792812D02*
Y781000D01*
Y792812D02*
X1136909D01*
X1136909D02*
X1138272Y792250D01*
X1138272D02*
X1138727Y791687D01*
X1138727D02*
X1139181Y790562D01*
X1139181D02*
Y789437D01*
X1139181D02*
X1138727Y788312D01*
X1138727D02*
X1138272Y787750D01*
X1138272D02*
X1136909Y787187D01*
X1136909D02*
X1132818D01*
X1136000D02*
X1139181Y781000D01*
X1143272Y792812D02*
Y781000D01*
Y792812D02*
X1146909Y781000D01*
X1150545Y792812D02*
X1146909Y781000D01*
X1150545Y792812D02*
Y781000D01*
X1158272Y792812D02*
X1154636Y781000D01*
X1158272Y792812D02*
X1161909Y781000D01*
X1156000Y784937D02*
X1160545D01*
X1172363Y791125D02*
X1171454Y792250D01*
X1171454D02*
X1170090Y792812D01*
X1170090D02*
X1168272D01*
X1168272D02*
X1166909Y792250D01*
X1166000Y791125*
Y790000*
X1166454Y788875*
X1166454D02*
X1166909Y788312D01*
X1166909D02*
X1167818Y787750D01*
X1170545Y786625*
X1171454Y786062*
X1171454D02*
X1171909Y785500D01*
X1172363Y784375*
X1172363D02*
Y782687D01*
X1172363D02*
X1171454Y781562D01*
X1171454D02*
X1170090Y781000D01*
X1170090D02*
X1168272D01*
X1168272D02*
X1166909Y781562D01*
X1166909D02*
X1166000Y782687D01*
X1176454Y792812D02*
Y781000D01*
X1182818Y792812D02*
X1176454Y784937D01*
X1178727Y787750D02*
X1182818Y781000D01*
X1200545Y792812D02*
Y781000D01*
X1197363Y792812D02*
X1203727D01*
X1210545D02*
X1209636Y792250D01*
X1208727Y791125*
X1208272Y790000*
X1208272D02*
X1207818Y788312D01*
X1207818D02*
Y785500D01*
X1208272Y783812*
X1208272D02*
X1208727Y782687D01*
X1208727D02*
X1209636Y781562D01*
X1209636D02*
X1210545Y781000D01*
X1212363*
X1212363D02*
X1213272Y781562D01*
X1213272D02*
X1214181Y782687D01*
X1214181D02*
X1214636Y783812D01*
X1214636D02*
X1215090Y785500D01*
X1215090D02*
Y788312D01*
X1215090D02*
X1214636Y790000D01*
X1214181Y791125*
X1214181D02*
X1213272Y792250D01*
X1213272D02*
X1212363Y792812D01*
X1212363D02*
X1210545D01*
X1219181D02*
Y781000D01*
Y792812D02*
X1223272D01*
X1223272D02*
X1224636Y792250D01*
X1225090Y791687*
X1225090D02*
X1225545Y790562D01*
X1225545D02*
Y788875D01*
X1225090Y787750*
X1225090D02*
X1224636Y787187D01*
X1224636D02*
X1223272Y786625D01*
X1223272D02*
X1219181D01*
X1246454Y791125D02*
X1245545Y792250D01*
X1244181Y792812*
X1244181D02*
X1242363D01*
X1242363D02*
X1241000Y792250D01*
X1240090Y791125*
X1240090D02*
Y790000D01*
X1240090D02*
X1240545Y788875D01*
X1241000Y788312*
X1241000D02*
X1241909Y787750D01*
X1244636Y786625*
X1245545Y786062*
X1245545D02*
X1246000Y785500D01*
X1246454Y784375*
X1246454D02*
Y782687D01*
X1246454D02*
X1245545Y781562D01*
X1245545D02*
X1244181Y781000D01*
X1244181D02*
X1242363D01*
X1242363D02*
X1241000Y781562D01*
X1241000D02*
X1240090Y782687D01*
X1250545Y792812D02*
Y781000D01*
X1254636Y792812D02*
Y781000D01*
Y792812D02*
X1257818D01*
X1257818D02*
X1259181Y792250D01*
X1259181D02*
X1260090Y791125D01*
X1260090D02*
X1260545Y790000D01*
X1261000Y788312*
X1261000D02*
Y785500D01*
X1260545Y783812*
X1260545D02*
X1260090Y782687D01*
X1260090D02*
X1259181Y781562D01*
X1259181D02*
X1257818Y781000D01*
X1254636*
X1265090Y792812D02*
Y781000D01*
Y792812D02*
X1271000D01*
X1265090Y787187D02*
X1268727D01*
X1265090Y781000D02*
X1271000D01*
G54D107*
X1169192Y927500D03*
X1180807D03*
Y842500D03*
X1169192D03*
G54D114*
X1002500Y864192D03*
Y875807D03*
X1377500Y864192D03*
Y875807D03*
X1150000Y881692D03*
Y893307D03*
G54D126*
X1012500Y873444D03*
Y866555D03*
X1387500Y873444D03*
Y866555D03*
G54D192*
X838011Y847500D03*
X826988D03*
G54D205*
X823600Y823600D03*
X1524400D03*
Y965400D03*
X823600D03*
G54D207*
X844000Y843500D03*
X846500Y847500D03*
X850500Y870000D03*
X844000Y851500D03*
X855500Y870000D03*
X861000D03*
X904000D03*
X909500D03*
X914500D03*
X967500Y844500D03*
X957500Y848500D03*
X987500Y852500D03*
X1018500Y865000D03*
Y875000D03*
X1158000Y863500D03*
X1149500Y855000D03*
X1158000Y858500D03*
X1164000Y842500D03*
X1174500Y856000D03*
X1201500Y875000D03*
X1190000Y853000D03*
X1186000Y842500D03*
X1184000Y864500D03*
X1195000Y872500D03*
X1393500Y865000D03*
Y875000D03*
X1165000Y888500D03*
X1170000D03*
Y881500D03*
X1163000Y912500D03*
X1150000Y876500D03*
Y898500D03*
X1206500Y877500D03*
X1190000Y902000D03*
X1185000Y881500D03*
X1175000Y902000D03*
X1163000Y927500D03*
X1186000D03*
G54D212*
X871476Y870000D03*
X893523D03*
G54D213*
X957500Y859764D03*
X962500D03*
X967500D03*
X972500D03*
X977500D03*
X982500D03*
X987500D03*
X992500D03*
Y880236D03*
X987500D03*
X982500D03*
X977500D03*
X972500D03*
X967500D03*
X962500D03*
X957500D03*
X1332500Y859764D03*
X1337500D03*
X1342500D03*
X1347500D03*
X1352500D03*
X1357500D03*
X1362500D03*
X1367500D03*
Y880236D03*
X1362500D03*
X1357500D03*
X1352500D03*
X1347500D03*
X1342500D03*
X1337500D03*
X1332500D03*
X1160000Y874764D03*
X1165000D03*
X1170000D03*
X1175000D03*
X1180000D03*
X1185000D03*
X1190000D03*
Y895236D03*
X1185000D03*
X1180000D03*
X1175000D03*
X1170000D03*
X1165000D03*
X1160000D03*
G54D214*
X1169094Y916240D03*
Y912500D03*
Y908760D03*
X1180906D03*
Y912500D03*
Y916240D03*
G54D215*
X1182874Y853661D03*
Y856220D03*
Y858780D03*
Y861339D03*
X1167125D03*
Y858780D03*
Y856220D03*
Y853661D03*
X0Y0D02*
M02*
